<svg width="103" height="59" viewBox="0 0 103 59" fill="none" xmlns="http://www.w3.org/2000/svg">
<path opacity="0.2" fill-rule="evenodd" clip-rule="evenodd" d="M0.882582 3.11511L24.9373 55.3514C24.9373 55.3514 25.9012 57.5485 27.872 58.0624C29.3343 58.4436 31.9806 58.0624 31.9806 58.0624L52.5235 46.2019C52.5235 46.2019 53.8216 44.1687 54.2844 42.8132C54.6858 41.6374 54.8713 39.7633 54.8713 39.7633L39.2686 8.89655C38.603 7.74363 35.8577 6.51634 33.8937 5.63828C33.3955 5.41557 32.9475 5.21532 32.5966 5.04445C24.0514 0.884383 7.56253 0.226775 7.56253 0.226775C7.56253 0.226775 2.87525 -0.0980525 1.72115 0.708542C0.747326 1.38915 0.882582 3.11511 0.882582 3.11511ZM59.7401 8.43706C57.9188 8.1553 56.2521 9.11755 56.7401 10.1691L67.7538 33.9002C68.2418 34.9517 70.5185 35.3039 71.8518 34.5341L101.942 17.1618C103.275 16.392 102.665 15.0775 100.844 14.7958L59.7401 8.43706Z" fill="#E52440"/>
</svg>
