<svg width="26" height="27" viewBox="0 0 26 27" fill="none" xmlns="http://www.w3.org/2000/svg">
<path d="M23.0282 12.3755C23.5417 13.0472 23.5417 13.9539 23.0282 14.6245C21.4108 16.7359 17.5303 21.0834 12.9998 21.0834C8.46931 21.0834 4.58881 16.7359 2.97139 14.6245C2.72156 14.3029 2.58594 13.9073 2.58594 13.5C2.58594 13.0928 2.72156 12.6971 2.97139 12.3755C4.58881 10.2641 8.46931 5.91669 12.9998 5.91669C17.5303 5.91669 21.4108 10.2641 23.0282 12.3755V12.3755Z" stroke="black" stroke-opacity="0.6" stroke-linecap="round" stroke-linejoin="round"/>
<path d="M13 16.75C14.7949 16.75 16.25 15.2949 16.25 13.5C16.25 11.7051 14.7949 10.25 13 10.25C11.2051 10.25 9.75 11.7051 9.75 13.5C9.75 15.2949 11.2051 16.75 13 16.75Z" stroke="black" stroke-opacity="0.6" stroke-linecap="round" stroke-linejoin="round"/>
</svg>
