<svg width="31" height="30" viewBox="0 0 31 30" fill="none" xmlns="http://www.w3.org/2000/svg">
<path d="M28.5988 14.918C28.5988 14.8535 28.5988 14.7803 28.5958 14.6953C28.5929 14.458 28.587 14.1914 28.5812 13.9072C28.5577 13.0899 28.5167 12.2754 28.4523 11.5078C28.3644 10.4502 28.2355 9.56837 28.0597 8.90626C27.8742 8.21529 27.5106 7.58511 27.0052 7.0787C26.4998 6.5723 25.8704 6.20741 25.1798 6.02051C24.3507 5.79785 22.7277 5.66016 20.4425 5.5752C19.3556 5.53418 18.1925 5.50781 17.0294 5.49316C16.6222 5.4873 16.2443 5.48438 15.9044 5.48145H15.0431C14.7032 5.48438 14.3253 5.4873 13.9181 5.49316C12.755 5.50781 11.5919 5.53418 10.505 5.5752C8.21985 5.66309 6.59387 5.80078 5.7677 6.02051C5.07688 6.20695 4.4472 6.57169 3.94176 7.07816C3.43631 7.58464 3.07286 8.21506 2.88782 8.90626C2.70911 9.56837 2.58313 10.4502 2.49524 11.5078C2.43079 12.2754 2.38977 13.0899 2.36633 13.9072C2.35754 14.1914 2.35461 14.458 2.35168 14.6953C2.35168 14.7803 2.34875 14.8535 2.34875 14.918V15.0821C2.34875 15.1465 2.34875 15.2197 2.35168 15.3047C2.35461 15.542 2.36047 15.8086 2.36633 16.0928C2.38977 16.9102 2.43079 17.7246 2.49524 18.4922C2.58313 19.5498 2.71204 20.4317 2.88782 21.0938C3.26282 22.4971 4.36438 23.6045 5.7677 23.9795C6.59387 24.2022 8.21985 24.3399 10.505 24.4248C11.5919 24.4659 12.755 24.4922 13.9181 24.5069C14.3253 24.5127 14.7032 24.5157 15.0431 24.5186H15.9044C16.2443 24.5157 16.6222 24.5127 17.0294 24.5069C18.1925 24.4922 19.3556 24.4659 20.4425 24.4248C22.7277 24.337 24.3536 24.1993 25.1798 23.9795C26.5831 23.6045 27.6847 22.5 28.0597 21.0938C28.2384 20.4317 28.3644 19.5498 28.4523 18.4922C28.5167 17.7246 28.5577 16.9102 28.5812 16.0928C28.59 15.8086 28.5929 15.542 28.5958 15.3047C28.5958 15.2197 28.5988 15.1465 28.5988 15.0821V14.918ZM26.4894 15.0703C26.4894 15.1319 26.4894 15.1992 26.4865 15.2783C26.4835 15.5069 26.4777 15.7588 26.4718 16.0313C26.4513 16.8106 26.4103 17.5899 26.3488 18.3135C26.2697 19.2569 26.1583 20.0303 26.0206 20.5489C25.839 21.2256 25.3058 21.7618 24.632 21.9405C24.0167 22.1045 22.4669 22.2364 20.3605 22.3155C19.2941 22.3565 18.1456 22.3828 17.0001 22.3975C16.5988 22.4034 16.2267 22.4063 15.8927 22.4063H15.0548L13.9474 22.3975C12.8019 22.3828 11.6564 22.3565 10.587 22.3155C8.48059 22.2334 6.92786 22.1045 6.31555 21.9405C5.64172 21.7588 5.10852 21.2256 4.92688 20.5489C4.78918 20.0303 4.67786 19.2569 4.59875 18.3135C4.53723 17.5899 4.49915 16.8106 4.47571 16.0313C4.46692 15.7588 4.46399 15.5039 4.46106 15.2783C4.46106 15.1992 4.45813 15.1289 4.45813 15.0703V14.9297C4.45813 14.8682 4.45813 14.8008 4.46106 14.7217C4.46399 14.4932 4.46985 14.2412 4.47571 13.9688C4.49622 13.1895 4.53723 12.4102 4.59875 11.6865C4.67786 10.7432 4.78918 9.96974 4.92688 9.45118C5.10852 8.77442 5.64172 8.23829 6.31555 8.05958C6.93079 7.89551 8.48059 7.76368 10.587 7.68457C11.6534 7.64356 12.8019 7.61719 13.9474 7.60254C14.3488 7.59668 14.7208 7.59375 15.0548 7.59375H15.8927L17.0001 7.60254C18.1456 7.61719 19.2911 7.64356 20.3605 7.68457C22.4669 7.76661 24.0197 7.89551 24.632 8.05958C25.3058 8.24122 25.839 8.77442 26.0206 9.45118C26.1583 9.96974 26.2697 10.7432 26.3488 11.6865C26.4103 12.4102 26.4484 13.1895 26.4718 13.9688C26.4806 14.2412 26.4835 14.4961 26.4865 14.7217C26.4865 14.8008 26.4894 14.8711 26.4894 14.9297V15.0703ZM12.8663 18.9258L19.6632 14.9707L12.8663 11.0742V18.9258Z" fill="white"/>
</svg>
