<svg width="19" height="22" viewBox="0 0 19 22" fill="none" xmlns="http://www.w3.org/2000/svg">
<path d="M11.1275 0.714294H13.6732C13.8584 1.63358 14.3675 2.79329 15.2611 3.94401C16.1354 5.07158 17.2951 5.85715 18.8418 5.85715V8.42858C16.5879 8.42858 14.8947 7.38201 13.6989 6.07701V14.8572C13.6989 16.1286 13.3219 17.3715 12.6155 18.4287C11.9092 19.4858 10.9051 20.3098 9.73048 20.7964C8.55581 21.2829 7.26324 21.4102 6.01622 21.1622C4.7692 20.9142 3.62374 20.3019 2.72468 19.4028C1.82563 18.5038 1.21337 17.3583 0.965323 16.1113C0.717275 14.8643 0.844582 13.5717 1.33115 12.397C1.81771 11.2224 2.64167 10.2184 3.69885 9.51199C4.75602 8.80561 5.99892 8.42858 7.27037 8.42858V11C6.5075 11 5.76176 11.2262 5.12746 11.6501C4.49315 12.0739 3.99877 12.6763 3.70684 13.3811C3.4149 14.0859 3.33851 14.8614 3.48734 15.6096C3.63617 16.3579 4.00353 17.0451 4.54296 17.5846C5.08239 18.124 5.76967 18.4914 6.51788 18.6402C7.26609 18.789 8.04163 18.7126 8.74644 18.4207C9.45124 18.1287 10.0536 17.6344 10.4775 17.0001C10.9013 16.3658 11.1275 15.62 11.1275 14.8572V0.714294Z" fill="white"/>
</svg>
