<svg width="32" height="33" viewBox="0 0 32 33" fill="none" xmlns="http://www.w3.org/2000/svg">
<path d="M16 30.5L7.564 20.551C7.44678 20.4016 7.33077 20.2513 7.216 20.1C5.77498 18.2018 4.9965 15.8832 5 13.5C5 10.5826 6.15892 7.78473 8.22182 5.72183C10.2847 3.65893 13.0826 2.5 16 2.5C18.9174 2.5 21.7153 3.65893 23.7782 5.72183C25.8411 7.78473 27 10.5826 27 13.5C27.0035 15.8821 26.2254 18.1996 24.785 20.097L24.784 20.1C24.784 20.1 24.484 20.494 24.439 20.547L16 30.5ZM8.812 18.895C8.814 18.895 9.046 19.203 9.099 19.269L16 27.408L22.91 19.258C22.954 19.203 23.188 18.893 23.189 18.892C24.3661 17.3411 25.0023 15.447 25 13.5C25 11.1131 24.0518 8.82387 22.364 7.13604C20.6761 5.44821 18.3869 4.5 16 4.5C13.613 4.5 11.3239 5.44821 9.63604 7.13604C7.94821 8.82387 7 11.1131 7 13.5C6.9979 15.4482 7.63477 17.3434 8.813 18.895H8.812Z" fill="black" fill-opacity="0.6"/>
<path d="M21 18.5H19V10.5H13V18.5H11V10.5C11.0005 9.96973 11.2114 9.46133 11.5864 9.08637C11.9613 8.71141 12.4697 8.50053 13 8.5H19C19.5303 8.50053 20.0387 8.71141 20.4136 9.08637C20.7886 9.46133 20.9995 9.96973 21 10.5V18.5Z" fill="black" fill-opacity="0.6"/>
<path d="M15 16.5H17V18.5H15V16.5Z" fill="black" fill-opacity="0.6"/>
<path d="M15 12.5H17V14.5H15V12.5Z" fill="black" fill-opacity="0.6"/>
</svg>
