<svg width="32" height="33" viewBox="0 0 32 33" fill="none" xmlns="http://www.w3.org/2000/svg">
<path d="M26.0696 4.49604C25.7486 4.5194 25.4335 4.59471 25.1366 4.71904H25.1326C24.8476 4.83204 23.4926 5.40204 21.4326 6.26604L14.0506 9.37504C8.75363 11.605 3.54663 13.801 3.54663 13.801L3.60863 13.777C3.60863 13.777 3.24963 13.895 2.87463 14.152C2.64296 14.2995 2.4436 14.4924 2.28863 14.719C2.10463 14.989 1.95663 15.402 2.01163 15.829C2.10163 16.551 2.56963 16.984 2.90563 17.223C3.24563 17.465 3.56963 17.578 3.56963 17.578H3.57763L8.46063 19.223C8.67963 19.926 9.94863 24.098 10.2536 25.059C10.4336 25.633 10.6086 25.992 10.8276 26.266C10.9336 26.406 11.0576 26.523 11.2066 26.617C11.2841 26.6621 11.3667 26.6977 11.4526 26.723L11.4026 26.711C11.4176 26.715 11.4296 26.727 11.4406 26.731C11.4806 26.742 11.5076 26.746 11.5586 26.754C12.3316 26.988 12.9526 26.508 12.9526 26.508L12.9876 26.48L15.8706 23.855L20.7026 27.562L20.8126 27.609C21.8196 28.051 22.8396 27.805 23.3786 27.371C23.9216 26.934 24.1326 26.375 24.1326 26.375L24.1676 26.285L27.9016 7.15604C28.0076 6.68404 28.0346 6.24204 27.9176 5.81304C27.797 5.37887 27.5184 5.00545 27.1366 4.76604C26.8161 4.57116 26.4443 4.47709 26.0696 4.49604ZM25.9686 6.54604C25.9646 6.60904 25.9766 6.60204 25.9486 6.72304V6.73404L22.2496 25.664C22.2336 25.691 22.2066 25.75 22.1326 25.809C22.0546 25.871 21.9926 25.91 21.6676 25.781L15.7576 21.25L12.1876 24.504L12.9376 19.714L22.5936 10.714C22.9916 10.344 22.8586 10.266 22.8586 10.266C22.8866 9.81204 22.2576 10.133 22.2576 10.133L10.0816 17.676L10.0776 17.656L4.24163 15.691V15.687L4.22663 15.684C4.23686 15.6806 4.24688 15.6766 4.25663 15.672L4.28863 15.656L4.31963 15.645C4.31963 15.645 9.53063 13.449 14.8276 11.219C17.4796 10.102 20.1516 8.97704 22.2066 8.10904C23.4254 7.59605 24.6454 7.08604 25.8666 6.57904C25.9486 6.54704 25.9096 6.54704 25.9686 6.54704V6.54604Z" fill="black" fill-opacity="0.6"/>
</svg>
