<svg width="24" height="25" viewBox="0 0 24 25" fill="none" xmlns="http://www.w3.org/2000/svg">
<path d="M12.72 2.52979C11.2895 2.42565 9.85327 2.63075 8.50906 3.13115C7.16486 3.63154 5.94415 4.41549 4.92993 5.42972C3.91571 6.44394 3.13175 7.66464 2.63136 9.00885C2.13097 10.3531 1.92586 11.7892 2.03 13.2198C2.39 18.5098 7.01 22.4998 12.31 22.4998H16C16.55 22.4998 17 22.0498 17 21.4998C17 20.9498 16.55 20.4998 16 20.4998H12.33C8.6 20.4998 5.18 18.0798 4.25 14.4698C2.76 8.66979 8.16 3.25979 13.96 4.75979C17.58 5.67979 20 9.09979 20 12.8298V13.9298C20 14.7198 19.29 15.4998 18.5 15.4998C17.71 15.4998 17 14.7198 17 13.9298V12.6798C17 10.1698 15.22 7.90979 12.74 7.55979C11.951 7.44246 11.1453 7.51532 10.3901 7.7723C9.63492 8.02929 8.95205 8.46295 8.39834 9.0372C7.84463 9.61145 7.43612 10.3097 7.2068 11.0737C6.97749 11.8378 6.93402 12.6455 7.08 13.4298C7.25539 14.3748 7.69962 15.2491 8.35944 15.9479C9.01926 16.6468 9.86665 17.1405 10.8 17.3698C12.64 17.7998 14.39 17.2098 15.54 16.0398C16.43 17.2598 18.21 17.8998 19.84 17.2498C21.18 16.7198 22 15.3498 22 13.9098V12.8198C22 7.50979 18.01 2.88979 12.72 2.52979ZM12 15.4998C10.34 15.4998 9 14.1598 9 12.4998C9 10.8398 10.34 9.49979 12 9.49979C13.66 9.49979 15 10.8398 15 12.4998C15 14.1598 13.66 15.4998 12 15.4998Z" fill="black" fill-opacity="0.6"/>
</svg>
