<svg width="24" height="18" viewBox="0 0 24 18" fill="none" xmlns="http://www.w3.org/2000/svg">
<path d="M19.6648 2.07043C18.2524 1.43351 16.7386 0.962737 15.1555 0.695045C15.1414 0.692338 15.1268 0.694083 15.1138 0.700036C15.1007 0.70599 15.0898 0.715859 15.0826 0.728276C14.8888 1.06889 14.6728 1.51289 14.5214 1.86366C12.8424 1.6128 11.1354 1.6128 9.45645 1.86366C9.28783 1.47492 9.09769 1.09587 8.88691 0.728276C8.87976 0.715706 8.86895 0.705614 8.85592 0.699347C8.84289 0.693079 8.82826 0.690935 8.81398 0.693199C7.23183 0.960891 5.71798 1.43166 4.30475 2.06951C4.2926 2.07461 4.28229 2.0833 4.27522 2.09443C1.4026 6.31751 0.615215 10.4363 1.00198 14.5034C1.00306 14.5133 1.00615 14.523 1.01107 14.5317C1.01599 14.5404 1.02264 14.548 1.0306 14.5541C2.70727 15.7748 4.57737 16.7047 6.5626 17.3049C6.57644 17.3092 6.59124 17.3091 6.60507 17.3049C6.61891 17.3006 6.63113 17.2922 6.64014 17.2809C7.0666 16.7086 7.44691 16.104 7.77183 15.4689C7.79121 15.432 7.77275 15.3877 7.73398 15.3729C7.13768 15.1483 6.55991 14.8773 6.00598 14.5624C5.99603 14.5567 5.98764 14.5487 5.98158 14.539C5.97551 14.5292 5.97195 14.5182 5.97121 14.5067C5.97048 14.4953 5.9726 14.4838 5.97738 14.4734C5.98216 14.463 5.98945 14.4539 5.9986 14.447C6.11491 14.3612 6.23122 14.2717 6.34198 14.1821C6.35195 14.1741 6.36397 14.1689 6.37668 14.1673C6.38939 14.1657 6.4023 14.1676 6.41398 14.1729C10.0389 15.8012 13.9648 15.8012 17.5472 14.1729C17.5589 14.1673 17.572 14.1651 17.5849 14.1666C17.5978 14.1681 17.61 14.1731 17.6201 14.1812C17.7309 14.2717 17.8463 14.3612 17.9635 14.447C17.9728 14.4538 17.9802 14.4627 17.9851 14.4731C17.99 14.4834 17.9923 14.4948 17.9918 14.5062C17.9912 14.5177 17.9879 14.5288 17.982 14.5386C17.9761 14.5484 17.9678 14.5566 17.958 14.5624C17.406 14.88 16.8318 15.1486 16.2291 15.372C16.2198 15.3753 16.2114 15.3806 16.2043 15.3875C16.1973 15.3944 16.1918 15.4027 16.1882 15.4119C16.1846 15.421 16.183 15.4309 16.1836 15.4407C16.1841 15.4505 16.1867 15.4601 16.1912 15.4689C16.5235 16.103 16.9038 16.7067 17.322 17.28C17.3307 17.2917 17.3428 17.3005 17.3567 17.3052C17.3705 17.3098 17.3855 17.31 17.3995 17.3058C19.3882 16.7073 21.2613 15.777 22.9398 14.5541C22.948 14.5484 22.9549 14.541 22.96 14.5324C22.9651 14.5238 22.9683 14.5142 22.9694 14.5043C23.4309 9.80212 22.1958 5.71658 19.6934 2.09628C19.6872 2.08451 19.6771 2.07534 19.6648 2.07043ZM8.31368 12.0267C7.2226 12.0267 6.3226 11.04 6.3226 9.82981C6.3226 8.61874 7.20506 7.63289 8.31368 7.63289C9.4306 7.63289 10.3223 8.62704 10.3048 9.82981C10.3048 11.0409 9.42229 12.0267 8.31368 12.0267ZM15.6752 12.0267C14.5832 12.0267 13.6841 11.04 13.6841 9.82981C13.6841 8.61874 14.5657 7.63289 15.6752 7.63289C16.7921 7.63289 17.6838 8.62704 17.6663 9.82981C17.6663 11.0409 16.7931 12.0267 15.6752 12.0267Z" fill="white"/>
</svg>
