<svg width="32" height="33" viewBox="0 0 32 33" fill="none" xmlns="http://www.w3.org/2000/svg">
<path d="M4 12.576V22.5C4 23.5609 4.42143 24.5783 5.17157 25.3284C5.92172 26.0786 6.93913 26.5 8 26.5H24C25.0609 26.5 26.0783 26.0786 26.8284 25.3284C27.5786 24.5783 28 23.5609 28 22.5V10.5C28 9.43913 27.5786 8.42172 26.8284 7.67157C26.0783 6.92143 25.0609 6.5 24 6.5H8C6.93913 6.5 5.92172 6.92143 5.17157 7.67157C4.42143 8.42172 4 9.43913 4 10.5V12.576ZM8 8.5H24C24.5304 8.5 25.0391 8.71071 25.4142 9.08579C25.7893 9.46086 26 9.96957 26 10.5V11.98L16 17.364L6 11.98V10.5C6 9.96957 6.21071 9.46086 6.58579 9.08579C6.96086 8.71071 7.46957 8.5 8 8.5V8.5ZM6 14.252L15.526 19.38C15.6717 19.4584 15.8345 19.4995 16 19.4995C16.1655 19.4995 16.3283 19.4584 16.474 19.38L26 14.252V22.5C26 23.0304 25.7893 23.5391 25.4142 23.9142C25.0391 24.2893 24.5304 24.5 24 24.5H8C7.46957 24.5 6.96086 24.2893 6.58579 23.9142C6.21071 23.5391 6 23.0304 6 22.5V14.252Z" fill="white"/>
</svg>
