<svg width="26" height="27" viewBox="0 0 26 27" fill="none" xmlns="http://www.w3.org/2000/svg">
<path d="M3.25 10.3118V18.375C3.25 19.237 3.59241 20.0636 4.2019 20.6731C4.8114 21.2826 5.63805 21.625 6.5 21.625H19.5C20.362 21.625 21.1886 21.2826 21.7981 20.6731C22.4076 20.0636 22.75 19.237 22.75 18.375V8.625C22.75 7.76305 22.4076 6.9364 21.7981 6.3269C21.1886 5.71741 20.362 5.375 19.5 5.375H6.5C5.63805 5.375 4.8114 5.71741 4.2019 6.3269C3.59241 6.9364 3.25 7.76305 3.25 8.625V10.3118ZM6.5 7H19.5C19.931 7 20.3443 7.17121 20.649 7.47595C20.9538 7.7807 21.125 8.19402 21.125 8.625V9.8275L13 14.202L4.875 9.8275V8.625C4.875 8.19402 5.0462 7.7807 5.35095 7.47595C5.6557 7.17121 6.06902 7 6.5 7ZM4.875 11.6735L12.6149 15.84C12.7332 15.9037 12.8656 15.9371 13 15.9371C13.1344 15.9371 13.2668 15.9037 13.3851 15.84L21.125 11.6735V18.375C21.125 18.806 20.9538 19.2193 20.649 19.524C20.3443 19.8288 19.931 20 19.5 20H6.5C6.06902 20 5.6557 19.8288 5.35095 19.524C5.0462 19.2193 4.875 18.806 4.875 18.375V11.6735Z" fill="black" fill-opacity="0.6"/>
</svg>
