<svg width="69" height="15" viewBox="0 0 69 15" fill="none" xmlns="http://www.w3.org/2000/svg">
<path d="M7.8275 14.7237C11.8277 14.7237 15.0705 11.4767 15.0705 7.47124C15.0705 3.4658 11.8277 0.21875 7.8275 0.21875C3.82729 0.21875 0.584473 3.4658 0.584473 7.47124C0.584473 11.4767 3.82729 14.7237 7.8275 14.7237Z" fill="url(#paint0_linear_2_5)"/>
<path d="M34.3852 14.7237C38.3854 14.7237 41.6282 11.4767 41.6282 7.47124C41.6282 3.4658 38.3854 0.21875 34.3852 0.21875C30.385 0.21875 27.1422 3.4658 27.1422 7.47124C27.1422 11.4767 30.385 14.7237 34.3852 14.7237Z" fill="url(#paint1_linear_2_5)"/>
<path d="M60.943 14.7237C64.9432 14.7237 68.186 11.4767 68.186 7.47124C68.186 3.4658 64.9432 0.21875 60.943 0.21875C56.9428 0.21875 53.7 3.4658 53.7 7.47124C53.7 11.4767 56.9428 14.7237 60.943 14.7237Z" fill="url(#paint2_linear_2_5)"/>
<defs>
<linearGradient id="paint0_linear_2_5" x1="1199.6" y1="-7672.51" x2="1209.04" y2="-7236.34" gradientUnits="userSpaceOnUse">
<stop stop-color="white" stop-opacity="0"/>
<stop offset="0.06" stop-color="white" stop-opacity="0.13"/>
<stop offset="0.16" stop-color="white" stop-opacity="0.33"/>
<stop offset="0.26" stop-color="white" stop-opacity="0.51"/>
<stop offset="0.37" stop-color="white" stop-opacity="0.66"/>
<stop offset="0.48" stop-color="white" stop-opacity="0.79"/>
<stop offset="0.59" stop-color="white" stop-opacity="0.88"/>
<stop offset="0.71" stop-color="white" stop-opacity="0.95"/>
<stop offset="0.84" stop-color="white" stop-opacity="0.99"/>
<stop offset="1" stop-color="white"/>
</linearGradient>
<linearGradient id="paint1_linear_2_5" x1="1525.58" y1="-7679.04" x2="1535.02" y2="-7242.87" gradientUnits="userSpaceOnUse">
<stop stop-color="white" stop-opacity="0"/>
<stop offset="0.06" stop-color="white" stop-opacity="0.13"/>
<stop offset="0.16" stop-color="white" stop-opacity="0.33"/>
<stop offset="0.26" stop-color="white" stop-opacity="0.51"/>
<stop offset="0.37" stop-color="white" stop-opacity="0.66"/>
<stop offset="0.48" stop-color="white" stop-opacity="0.79"/>
<stop offset="0.59" stop-color="white" stop-opacity="0.88"/>
<stop offset="0.71" stop-color="white" stop-opacity="0.95"/>
<stop offset="0.84" stop-color="white" stop-opacity="0.99"/>
<stop offset="1" stop-color="white"/>
</linearGradient>
<linearGradient id="paint2_linear_2_5" x1="1851.42" y1="-7685.56" x2="1861.01" y2="-7249.4" gradientUnits="userSpaceOnUse">
<stop stop-color="white" stop-opacity="0"/>
<stop offset="0.06" stop-color="white" stop-opacity="0.13"/>
<stop offset="0.16" stop-color="white" stop-opacity="0.33"/>
<stop offset="0.26" stop-color="white" stop-opacity="0.51"/>
<stop offset="0.37" stop-color="white" stop-opacity="0.66"/>
<stop offset="0.48" stop-color="white" stop-opacity="0.79"/>
<stop offset="0.59" stop-color="white" stop-opacity="0.88"/>
<stop offset="0.71" stop-color="white" stop-opacity="0.95"/>
<stop offset="0.84" stop-color="white" stop-opacity="0.99"/>
<stop offset="1" stop-color="white"/>
</linearGradient>
</defs>
</svg>
