<svg width="27" height="26" viewBox="0 0 27 26" fill="none" xmlns="http://www.w3.org/2000/svg">
<path d="M22.3175 5.49295C20.7875 4.80295 19.1475 4.29295 17.4325 4.00295C17.4172 4.00002 17.4014 4.00191 17.3872 4.00836C17.3731 4.01481 17.3613 4.0255 17.3535 4.03895C17.1435 4.40795 16.9095 4.88895 16.7455 5.26895C14.9266 4.99719 13.0774 4.99719 11.2585 5.26895C11.0758 4.84781 10.8698 4.43717 10.6415 4.03895C10.6337 4.02533 10.622 4.0144 10.6079 4.00761C10.5938 4.00082 10.578 3.9985 10.5625 4.00095C8.84848 4.29095 7.20848 4.80095 5.67748 5.49195C5.66431 5.49747 5.65314 5.5069 5.64548 5.51895C2.53348 10.094 1.68048 14.556 2.09948 18.962C2.10065 18.9727 2.104 18.9832 2.10933 18.9926C2.11465 19.0021 2.12185 19.0104 2.13048 19.017C3.94687 20.3394 5.97282 21.3468 8.12348 21.997C8.13847 22.0016 8.15451 22.0016 8.16949 21.9969C8.18448 21.9923 8.19772 21.9832 8.20748 21.9709C8.66948 21.3509 9.08148 20.6959 9.43348 20.0079C9.45448 19.9679 9.43448 19.9199 9.39248 19.9039C8.74649 19.6607 8.12057 19.3671 7.52048 19.0259C7.5097 19.0198 7.50061 19.0111 7.49404 19.0005C7.48746 18.99 7.48361 18.978 7.48281 18.9656C7.48202 18.9532 7.48432 18.9408 7.48949 18.9295C7.49467 18.9183 7.50257 18.9084 7.51248 18.9009C7.63848 18.8079 7.76448 18.711 7.88448 18.614C7.89528 18.6052 7.90829 18.5997 7.92206 18.5979C7.93584 18.5961 7.94983 18.5982 7.96248 18.604C11.8895 20.368 16.1425 20.368 20.0235 18.604C20.0362 18.5979 20.0503 18.5955 20.0643 18.5971C20.0782 18.5987 20.0915 18.6042 20.1025 18.6129C20.2225 18.7109 20.3475 18.8079 20.4745 18.9009C20.4845 18.9083 20.4925 18.918 20.4979 18.9292C20.5032 18.9403 20.5057 18.9527 20.5051 18.9651C20.5045 18.9774 20.5008 18.9895 20.4945 19.0001C20.4881 19.0107 20.4791 19.0196 20.4685 19.0259C19.8705 19.3699 19.2485 19.661 18.5955 19.903C18.5855 19.9066 18.5763 19.9123 18.5687 19.9198C18.561 19.9272 18.5551 19.9362 18.5512 19.9462C18.5473 19.9561 18.5456 19.9668 18.5462 19.9774C18.5467 19.9881 18.5496 19.9985 18.5545 20.0079C18.9145 20.695 19.3265 21.3489 19.7795 21.9699C19.7889 21.9827 19.802 21.9922 19.8171 21.9972C19.8321 22.0022 19.8483 22.0025 19.8635 21.9979C22.0178 21.3496 24.0471 20.3417 25.8655 19.017C25.8744 19.0107 25.8818 19.0027 25.8873 18.9934C25.8928 18.9841 25.8963 18.9737 25.8975 18.9629C26.3975 13.8689 25.0595 9.44295 22.3485 5.52095C22.3418 5.5082 22.3308 5.49827 22.3175 5.49295ZM10.0205 16.2789C8.83848 16.2789 7.86348 15.2099 7.86348 13.8989C7.86348 12.5869 8.81948 11.5189 10.0205 11.5189C11.2305 11.5189 12.1965 12.5959 12.1775 13.8989C12.1775 15.2109 11.2215 16.2789 10.0205 16.2789ZM17.9955 16.2789C16.8125 16.2789 15.8385 15.2099 15.8385 13.8989C15.8385 12.5869 16.7935 11.5189 17.9955 11.5189C19.2055 11.5189 20.1715 12.5959 20.1525 13.8989C20.1525 15.2109 19.2065 16.2789 17.9955 16.2789Z" fill="white"/>
</svg>
