<svg width="20" height="20" viewBox="0 0 20 20" fill="none" xmlns="http://www.w3.org/2000/svg">
<path d="M6.57953 9.84201C6.57953 8.0399 8.04003 6.57862 9.84214 6.57862C11.6443 6.57862 13.1055 8.0399 13.1055 9.84201C13.1055 11.6441 11.6443 13.1054 9.84214 13.1054C8.04003 13.1054 6.57953 11.6441 6.57953 9.84201ZM4.8154 9.84201C4.8154 12.6183 7.06586 14.8688 9.84214 14.8688C12.6184 14.8688 14.8689 12.6183 14.8689 9.84201C14.8689 7.06574 12.6184 4.81527 9.84214 4.81527C7.06586 4.81527 4.81548 7.06558 4.81548 9.84201H4.8154ZM13.8932 4.61596C13.8931 4.8483 13.9619 5.07545 14.0909 5.26868C14.22 5.46192 14.4034 5.61256 14.618 5.70156C14.8326 5.79056 15.0688 5.81391 15.2967 5.76868C15.5246 5.72344 15.7339 5.61164 15.8983 5.44742C16.0626 5.2832 16.1746 5.07393 16.22 4.84607C16.2654 4.61821 16.2423 4.38201 16.1534 4.16732C16.0646 3.95263 15.9141 3.7691 15.721 3.63994C15.5279 3.51078 15.3008 3.4418 15.0684 3.4417H15.068C14.7565 3.44185 14.4579 3.5656 14.2376 3.78577C14.0174 4.00594 13.8935 4.30453 13.8932 4.61596ZM5.88722 17.8104C4.93279 17.767 4.41403 17.608 4.06929 17.4737C3.61224 17.2957 3.28614 17.0838 2.94327 16.7414C2.60041 16.399 2.38817 16.0732 2.21102 15.6162C2.07664 15.2716 1.91766 14.7527 1.87427 13.7983C1.82681 12.7664 1.81733 12.4564 1.81733 9.84217C1.81733 7.22793 1.82759 6.91882 1.87427 5.88608C1.91773 4.93165 2.07789 4.41375 2.21102 4.06815C2.38896 3.6111 2.60088 3.28499 2.94327 2.94213C3.28567 2.59927 3.61146 2.38703 4.06929 2.20988C4.41388 2.07549 4.93279 1.91651 5.88722 1.87313C6.9191 1.82567 7.22907 1.81619 9.84214 1.81619C12.4552 1.81619 12.7655 1.8263 13.7982 1.87328C14.7527 1.91675 15.2706 2.0769 15.6162 2.21004C16.0732 2.38719 16.3993 2.59989 16.7422 2.94229C17.085 3.28468 17.2965 3.61126 17.4744 4.0683C17.6088 4.41289 17.7678 4.93181 17.8112 5.88623C17.8586 6.91898 17.8681 7.22809 17.8681 9.84233C17.8681 12.4566 17.8586 12.7657 17.8112 13.7984C17.7677 14.7528 17.608 15.2716 17.4744 15.6164C17.2965 16.0734 17.0846 16.3995 16.7422 16.7416C16.3998 17.0837 16.0732 17.2959 15.6162 17.4738C15.2716 17.6082 14.7527 17.7672 13.7982 17.8106C12.7664 17.858 12.4564 17.8675 9.84214 17.8675C7.2279 17.8675 6.91879 17.858 5.88722 17.8106V17.8104ZM5.80616 0.111897C4.76402 0.159356 4.0519 0.324601 3.43 0.566595C2.78633 0.816499 2.24071 1.15177 1.69587 1.69574C1.15103 2.23972 0.816621 2.78542 0.566717 3.42988C0.324723 4.05217 0.159478 4.7639 0.112019 5.80604C0.0637769 6.84982 0.0527344 7.18353 0.0527344 9.84201C0.0527344 12.5005 0.0637769 12.8342 0.112019 13.878C0.159478 14.9202 0.324723 15.6319 0.566717 16.2542C0.816621 16.8978 1.15111 17.4445 1.69587 17.9883C2.24063 18.532 2.78554 18.8668 3.43 19.1174C4.05308 19.3594 4.76402 19.5247 5.80616 19.5721C6.8505 19.6196 7.18365 19.6314 9.84214 19.6314C12.5006 19.6314 12.8343 19.6204 13.8781 19.5721C14.9203 19.5247 15.632 19.3594 16.2543 19.1174C16.898 18.8668 17.4436 18.5323 17.9884 17.9883C18.5333 17.4443 18.867 16.8978 19.1176 16.2542C19.3596 15.6319 19.5256 14.9201 19.5723 13.878C19.6197 12.8334 19.6308 12.5005 19.6308 9.84201C19.6308 7.18353 19.6197 6.84982 19.5723 5.80604C19.5248 4.76382 19.3596 4.05178 19.1176 3.42988C18.867 2.78621 18.5324 2.24058 17.9884 1.69574C17.4444 1.15091 16.8979 0.816499 16.2551 0.566595C15.632 0.324601 14.9203 0.158573 13.8789 0.111897C12.835 0.064203 12.5014 0.0526123 9.84331 0.0526123C7.18522 0.0526123 6.85089 0.0636548 5.80656 0.111897" fill="white"/>
</svg>
