<svg width="57" height="59" viewBox="0 0 57 59" fill="none" xmlns="http://www.w3.org/2000/svg">
<circle cx="29" cy="32" r="25" fill="black" fill-opacity="0.6"/>
<path d="M23.5334 38.1158C23.5334 38.1158 15.6996 38.2749 11.719 44.8195C11.719 44.8195 8.99262 54.1973 9.26526 56.1894L15.3179 54.2065C18.3351 55.8937 22.8655 57.1854 29.3089 56.8943C41.4595 56.3531 46.9305 50.1906 46.9305 50.1906C46.9305 50.1906 45.6446 41.4631 38.4559 39.4802C31.2673 37.4972 23.5334 38.1158 23.5334 38.1158Z" fill="#FFB443"/>
<path d="M40.5645 27.6828C41.5505 22.6436 42.4366 14.8666 38.9695 13.2748L36.6975 13.1702C36.6975 13.1702 35.0299 9.30446 28.3502 9.93207C21.6705 10.5597 14.9363 16.1946 17.9808 25.3497C19.5621 30.0977 16.7539 37.0061 16.7539 37.0061L26.578 36.9697L41.7459 36.4876C40.3884 33.7647 39.9729 30.6677 40.5645 27.6828Z" fill="#404040"/>
<path d="M39.0739 19.9284C39.0739 19.9284 41.0005 32.1306 36.1566 33.6951C35.6285 34.01 35.0414 34.2128 34.4317 34.2911C33.822 34.3693 33.2027 34.3213 32.6123 34.1499V38.0111C32.6123 38.0111 27.7184 41.7132 23.7061 37.7474V27.7873C23.7061 27.7873 24.1605 21.7203 25.3737 22.3661C25.6509 22.5162 28.1001 22.2615 28.5 17.8182C28.5 17.8182 34.1255 15.3123 36.7292 17.0359C39.3329 18.7596 39.0739 19.9284 39.0739 19.9284Z" fill="#F7AF87"/>
<path d="M32.6121 34.1635C32.6121 34.1635 29.6449 33.3813 28.5498 32.026C28.5498 32.026 30.0584 37.9702 32.6121 38.0248V34.1635Z" fill="url(#paint0_linear_153_730)"/>
<path d="M35.0432 16.3901C33.5392 16.3901 31.9033 16.6039 30.8446 17.6681C29.5359 18.9825 29.5677 21.0745 28.9952 22.8391C28.5724 24.1836 27.7259 25.3548 26.5823 26.1773C26.0097 26.5814 25.3623 26.8671 24.6781 27.0178C23.9938 27.1685 23.2864 27.1812 22.5972 27.0551C22.4557 27.0402 22.3186 26.9966 22.1944 26.927C22.0702 26.8574 21.9614 26.7633 21.8747 26.6503C21.779 26.4463 21.7458 26.2184 21.7793 25.9954C21.9111 23.494 22.2064 20.9063 23.4969 18.7642C24.2171 17.5797 25.2114 16.586 26.396 15.8671C27.0841 15.4274 27.8592 15.1419 28.668 15.0303C30.2584 14.8484 31.8034 15.5579 33.2438 16.2537" fill="#404040"/>
<path d="M23.4835 37.7247C23.4835 37.7247 21.7886 37.9839 21.8431 39.2119C21.8976 40.4398 22.1021 44.1373 24.006 43.2504C25.91 42.3636 27.5231 39.6803 27.5231 39.6803L23.4835 37.7247Z" fill="black" fill-opacity="0.6"/>
<path d="M32.2851 37.7247C32.2851 37.7247 33.98 37.9839 33.93 39.2119C33.88 40.4398 33.6665 44.1373 31.7671 43.2504C29.8677 42.3636 28.25 39.6803 28.25 39.6803L32.2851 37.7247Z" fill="black" fill-opacity="0.6"/>
<path d="M27.7912 45.5016C28.3107 45.5016 28.7318 45.0801 28.7318 44.5602C28.7318 44.0403 28.3107 43.6188 27.7912 43.6188C27.2717 43.6188 26.8506 44.0403 26.8506 44.5602C26.8506 45.0801 27.2717 45.5016 27.7912 45.5016Z" fill="black" fill-opacity="0.6"/>
<path d="M27.7912 48.8307C28.3107 48.8307 28.7318 48.4092 28.7318 47.8893C28.7318 47.3694 28.3107 46.9479 27.7912 46.9479C27.2717 46.9479 26.8506 47.3694 26.8506 47.8893C26.8506 48.4092 27.2717 48.8307 27.7912 48.8307Z" fill="black" fill-opacity="0.6"/>
<path d="M27.7912 52.1598C28.3107 52.1598 28.7318 51.7383 28.7318 51.2184C28.7318 50.6985 28.3107 50.277 27.7912 50.277C27.2717 50.277 26.8506 50.6985 26.8506 51.2184C26.8506 51.7383 27.2717 52.1598 27.7912 52.1598Z" fill="black" fill-opacity="0.6"/>
<defs>
<linearGradient id="paint0_linear_153_730" x1="4670.51" y1="1243.65" x2="4732.28" y2="1074.99" gradientUnits="userSpaceOnUse">
<stop stop-opacity="0"/>
<stop offset="0.99"/>
</linearGradient>
</defs>
</svg>
