<svg width="32" height="32" viewBox="0 0 32 32" fill="none" xmlns="http://www.w3.org/2000/svg">
<path d="M2 26H5C5 25.2044 4.68393 24.4413 4.12132 23.8787C3.55871 23.3161 2.79565 23 2 23V26ZM9 26H7C6.99841 24.6744 6.47112 23.4036 5.53378 22.4662C4.59644 21.5289 3.3256 21.0016 2 21V19C3.85587 19.0021 5.63511 19.7403 6.94741 21.0526C8.2597 22.3649 8.99788 24.1441 9 26Z" fill="white"/>
<path d="M13 26H11C10.9974 23.6139 10.0483 21.3262 8.36104 19.639C6.67378 17.9517 4.38614 17.0026 2 17V15C4.91641 15.0032 7.71245 16.1631 9.77467 18.2253C11.8369 20.2875 12.9968 23.0836 13 26Z" fill="white"/>
<path d="M28 26H15V24H28V8H4V13H2V8C2.00053 7.46973 2.21141 6.96133 2.58637 6.58637C2.96133 6.21141 3.46973 6.00053 4 6H28C28.5303 6.00053 29.0387 6.21141 29.4136 6.58637C29.7886 6.96133 29.9995 7.46973 30 8V24C29.9995 24.5303 29.7886 25.0387 29.4136 25.4136C29.0387 25.7886 28.5303 25.9995 28 26Z" fill="white"/>
</svg>
