<svg width="86" height="86" viewBox="0 0 86 86" fill="none" xmlns="http://www.w3.org/2000/svg">
<g filter="url(#filter0_d_254_1909)">
<rect x="16" y="4" width="53.6316" height="53.6316" rx="25" fill="#E52440"/>
</g>
<path d="M46.5055 21.4283V21.4238H47.6643L48.0877 21.5088C48.37 21.5639 48.6263 21.6362 48.8566 21.7256C49.0869 21.815 49.3097 21.9193 49.5251 22.0385C49.7406 22.1576 49.9359 22.2791 50.1112 22.4028C50.2851 22.5249 50.4411 22.6546 50.5792 22.7917C50.7159 22.9302 50.9291 22.966 51.2188 22.8989C51.5085 22.8319 51.8205 22.7387 52.1548 22.6196C52.489 22.5004 52.8196 22.3663 53.1464 22.2173C53.4733 22.0682 53.6724 21.9736 53.7437 21.9334C53.8135 21.8917 53.8507 21.8694 53.8551 21.8664L53.8596 21.8597L53.8818 21.8485L53.9041 21.8373L53.9264 21.8261L53.9487 21.815L53.9532 21.8082L53.9598 21.8038L53.9665 21.7993L53.971 21.7926L53.9933 21.7859L54.0156 21.7814L54.0111 21.815L54.0044 21.8485L53.9933 21.882L53.9821 21.9155L53.971 21.9379L53.9598 21.9602L53.9487 21.9938C53.9413 22.0161 53.9339 22.0459 53.9264 22.0832C53.919 22.1204 53.8484 22.2694 53.7147 22.5302C53.581 22.7909 53.4139 23.0554 53.2133 23.3236C53.0127 23.5918 52.833 23.7944 52.674 23.9315C52.5136 24.0701 52.4073 24.1669 52.3553 24.2221C52.3033 24.2787 52.2402 24.3308 52.1659 24.3785L52.0545 24.4523L52.0322 24.4634L52.0099 24.4746L52.0055 24.4813L51.9988 24.4858L51.9921 24.4903L51.9876 24.497L51.9653 24.5081L51.943 24.5193L51.9386 24.526L51.9319 24.5305L51.9252 24.535L51.9208 24.5417L51.9163 24.5484L51.9096 24.5528L51.9029 24.5573L51.8985 24.564H52.0099L52.6339 24.4299C53.0499 24.3405 53.4473 24.2325 53.8261 24.1058L54.4278 23.9047L54.4947 23.8823L54.5281 23.8712L54.5504 23.86L54.5727 23.8488L54.595 23.8376L54.6172 23.8265L54.6618 23.8198L54.7064 23.8153V23.86L54.6952 23.8645L54.6841 23.8712L54.6797 23.8779L54.673 23.8823L54.6663 23.8868L54.6618 23.8935L54.6574 23.9002L54.6507 23.9047L54.644 23.9092L54.6395 23.9159L54.6351 23.9226L54.6284 23.927L54.6172 23.9494L54.6061 23.9717L54.5994 23.9762C54.5965 23.9807 54.5021 24.1073 54.3164 24.3562C54.1307 24.6065 54.0304 24.7331 54.0156 24.7361C54.0007 24.7406 53.9799 24.7629 53.9532 24.8032C53.9279 24.8449 53.7704 25.011 53.4807 25.3016C53.191 25.5921 52.9073 25.8506 52.6294 26.0771C52.3501 26.3051 52.209 26.5852 52.206 26.9175C52.2016 27.2483 52.1845 27.6223 52.1548 28.0394C52.125 28.4567 52.0693 28.9074 51.9876 29.3916C51.9059 29.8759 51.7796 30.4235 51.6088 31.0343C51.4379 31.6452 51.2299 32.2413 50.9848 32.8224C50.7397 33.4035 50.4834 33.9249 50.216 34.3869C49.9485 34.8488 49.7034 35.2399 49.4806 35.5602C49.2577 35.8806 49.0312 36.1823 48.8009 36.4654C48.5706 36.7485 48.2794 37.0674 47.9273 37.422C47.5737 37.7751 47.3806 37.9688 47.3479 38.0031C47.3137 38.0359 47.1681 38.1581 46.9111 38.3696C46.6556 38.5827 46.3807 38.7958 46.0865 39.0088C45.7939 39.2204 45.525 39.397 45.2798 39.5385C45.0347 39.6801 44.7391 39.8417 44.3929 40.0235C44.0482 40.2068 43.6753 40.3767 43.2742 40.5331C42.873 40.6896 42.4496 40.8348 42.0039 40.9689C41.5582 41.103 41.1274 41.2074 40.7114 41.2818C40.2954 41.3563 39.8237 41.4197 39.2963 41.4718L38.5052 41.55V41.5612H37.0567V41.55L36.8672 41.5389C36.741 41.5314 36.637 41.524 36.5552 41.5165C36.4735 41.5091 36.1653 41.4681 35.6304 41.3936C35.0956 41.3191 34.6759 41.2446 34.3713 41.1701C34.0668 41.0956 33.6136 40.954 33.0119 40.7454C32.4102 40.5369 31.8954 40.326 31.4676 40.1129C31.0412 39.9014 30.7738 39.7673 30.6653 39.7106C30.5583 39.6555 30.438 39.587 30.3043 39.505L30.1037 39.3821L30.0993 39.3754L30.0926 39.3709L30.0859 39.3664L30.0814 39.3597L30.0592 39.3486L30.0369 39.3374L30.0324 39.3307L30.0257 39.3262L30.0191 39.3217L30.0146 39.315L30.0102 39.3083L30.0035 39.3039H29.9923V39.2592L30.0146 39.2636L30.0369 39.2703L30.1372 39.2815C30.204 39.289 30.386 39.3001 30.6831 39.315C30.9803 39.33 31.296 39.33 31.6303 39.315C31.9645 39.3001 32.3063 39.2666 32.6554 39.2145C33.0045 39.1623 33.4168 39.0729 33.8922 38.9463C34.3676 38.8196 34.8044 38.6691 35.2026 38.4948C35.5992 38.319 35.8815 38.1879 36.0494 38.1014C36.2158 38.0165 36.4698 37.8586 36.8115 37.6276L37.3241 37.2812L37.3285 37.2745L37.3352 37.27L37.3419 37.2655L37.3464 37.2588L37.3508 37.2521L37.3575 37.2477L37.3642 37.2432L37.3686 37.2365L37.3909 37.2298L37.4132 37.2253L37.4177 37.203L37.4244 37.1806L37.4311 37.1761L37.4355 37.1694L37.2572 37.1583C37.1384 37.1508 37.0232 37.1434 36.9118 37.1359C36.8004 37.1285 36.6258 37.0949 36.3881 37.0353C36.1504 36.9757 35.8941 36.8863 35.6193 36.7671C35.3444 36.6479 35.077 36.5064 34.817 36.3425C34.557 36.1786 34.3691 36.0422 34.2532 35.9335C34.1388 35.8262 33.9902 35.6742 33.8075 35.4775C33.6263 35.2794 33.4688 35.076 33.3351 34.8674C33.2014 34.6588 33.0736 34.4181 32.9518 34.1455L32.7668 33.7387L32.7557 33.7052L32.7445 33.6717L32.7378 33.6493L32.7334 33.627L32.7668 33.6314L32.8002 33.6381L33.0454 33.6717C33.2088 33.694 33.4651 33.7014 33.8142 33.694C34.1633 33.6866 34.4047 33.6717 34.5385 33.6493C34.6722 33.627 34.7539 33.612 34.7836 33.6046L34.8282 33.5934L34.8839 33.5823L34.9396 33.5711L34.944 33.5644L34.9507 33.5599L34.9574 33.5554L34.9619 33.5487L34.9173 33.5376L34.8727 33.5264L34.8282 33.5152L34.7836 33.504L34.739 33.4929C34.7093 33.4854 34.6573 33.4705 34.583 33.4482C34.5087 33.4258 34.3082 33.3438 33.9813 33.2023C33.6545 33.0608 33.3945 32.9229 33.2014 32.7888C33.0077 32.6543 32.8231 32.5073 32.6487 32.3485C32.4749 32.1876 32.284 31.9805 32.076 31.7272C31.868 31.4739 31.6823 31.1796 31.5188 30.8444C31.3554 30.5091 31.2328 30.1888 31.1511 29.8833C31.0697 29.5797 31.016 29.2692 30.9907 28.9558L30.9506 28.4864L30.9729 28.4909L30.9951 28.4976L31.0174 28.5088L31.0397 28.52L31.062 28.5311L31.0843 28.5423L31.4297 28.6988C31.66 28.8031 31.946 28.8925 32.2877 28.967C32.6294 29.0415 32.8336 29.0825 32.9005 29.0899L33.0008 29.1011H33.2014L33.1969 29.0944L33.1902 29.0899L33.1835 29.0854L33.1791 29.0787L33.1746 29.072L33.1679 29.0675L33.1612 29.0631L33.1568 29.0564L33.1345 29.0452L33.1122 29.034L33.1078 29.0273L33.1011 29.0228L33.0944 29.0184L33.0899 29.0117L33.0676 29.0005L33.0454 28.9893L33.0409 28.9826C33.0365 28.9796 32.9726 28.9319 32.8492 28.8396C32.7274 28.7457 32.5997 28.6243 32.4659 28.4753C32.3322 28.3263 32.1985 28.1698 32.0648 28.0059C31.9309 27.8416 31.8115 27.6659 31.7083 27.4807C31.6043 27.2944 31.4943 27.0575 31.3784 26.77C31.264 26.4839 31.1771 26.1956 31.1177 25.905C31.0583 25.6145 31.0249 25.3276 31.0174 25.0445C31.01 24.7614 31.0174 24.5193 31.0397 24.3182C31.062 24.117 31.1066 23.8898 31.1734 23.6365C31.2403 23.3832 31.3369 23.115 31.4631 22.8319L31.6525 22.4072L31.6637 22.3737L31.6748 22.3402L31.6815 22.3357L31.686 22.329L31.6904 22.3223L31.6971 22.3178L31.7038 22.3223L31.7083 22.329L31.7127 22.3357L31.7194 22.3402L31.7261 22.3447L31.7305 22.3514L31.735 22.3581L31.7417 22.3625L31.7528 22.3849L31.764 22.4072L31.7707 22.4117L31.7751 22.4184L32.076 22.7537C32.2765 22.9772 32.5142 23.2267 32.7891 23.5024C33.0639 23.778 33.2162 23.9211 33.2459 23.9315C33.2756 23.9434 33.3128 23.9777 33.3573 24.0343C33.4019 24.0895 33.5505 24.2213 33.803 24.4299C34.0556 24.6385 34.3862 24.8806 34.7947 25.1563C35.2033 25.4319 35.6564 25.7039 36.1541 25.9721C36.6518 26.2403 37.1867 26.4824 37.7586 26.6984C38.3306 26.9145 38.7318 27.056 38.962 27.1231C39.1923 27.1901 39.586 27.2758 40.1431 27.3801C40.7003 27.4844 41.12 27.5515 41.4022 27.5813C41.6845 27.6111 41.8777 27.6282 41.9816 27.6327L42.1376 27.6371L42.1332 27.6036L42.1265 27.5701L42.0819 27.2907C42.0522 27.1045 42.0374 26.8437 42.0374 26.5085C42.0374 26.1732 42.0634 25.864 42.1154 25.5809C42.1674 25.2978 42.2454 25.011 42.3493 24.7205C42.4534 24.4299 42.5551 24.1967 42.6547 24.0209C42.7557 23.8466 42.8879 23.6477 43.0513 23.4242C43.2148 23.2007 43.4265 22.9697 43.6865 22.7313C43.9464 22.4929 44.2436 22.2806 44.5779 22.0943C44.9121 21.9081 45.2204 21.7665 45.5027 21.6697C45.785 21.5728 46.0227 21.5095 46.2158 21.4797C46.4089 21.4499 46.5055 21.4328 46.5055 21.4283Z" fill="white"/>
<defs>
<filter id="filter0_d_254_1909" x="0" y="0" width="85.6316" height="85.6318" filterUnits="userSpaceOnUse" color-interpolation-filters="sRGB">
<feFlood flood-opacity="0" result="BackgroundImageFix"/>
<feColorMatrix in="SourceAlpha" type="matrix" values="0 0 0 0 0 0 0 0 0 0 0 0 0 0 0 0 0 0 127 0" result="hardAlpha"/>
<feOffset dy="12"/>
<feGaussianBlur stdDeviation="8"/>
<feColorMatrix type="matrix" values="0 0 0 0 0.596078 0 0 0 0 0.0980392 0 0 0 0 0.129412 0 0 0 0.15 0"/>
<feBlend mode="normal" in2="BackgroundImageFix" result="effect1_dropShadow_254_1909"/>
<feBlend mode="normal" in="SourceGraphic" in2="effect1_dropShadow_254_1909" result="shape"/>
</filter>
</defs>
</svg>
