<svg width="86" height="86" viewBox="0 0 86 86" fill="none" xmlns="http://www.w3.org/2000/svg">
<g filter="url(#filter0_d_254_1905)">
<rect x="16" y="4" width="53.6316" height="53.6316" rx="25" fill="#E52440"/>
</g>
<path d="M51.6314 21.8718L33.1626 28.9937C31.9022 29.4999 31.9095 30.2031 32.9314 30.5166L37.6731 31.9958L48.6439 25.0739C49.1626 24.7583 49.6366 24.9281 49.247 25.2739L40.3585 33.2958H40.3564L40.3585 33.2968L40.0314 38.1843C40.5106 38.1843 40.722 37.9645 40.9908 37.7051L43.2939 35.4656L48.0845 39.0041C48.9678 39.4906 49.6022 39.2406 49.822 38.1864L52.9668 23.3656C53.2887 22.0749 52.4741 21.4906 51.6314 21.8718Z" fill="white"/>
<defs>
<filter id="filter0_d_254_1905" x="0" y="0" width="85.6316" height="85.6318" filterUnits="userSpaceOnUse" color-interpolation-filters="sRGB">
<feFlood flood-opacity="0" result="BackgroundImageFix"/>
<feColorMatrix in="SourceAlpha" type="matrix" values="0 0 0 0 0 0 0 0 0 0 0 0 0 0 0 0 0 0 127 0" result="hardAlpha"/>
<feOffset dy="12"/>
<feGaussianBlur stdDeviation="8"/>
<feColorMatrix type="matrix" values="0 0 0 0 0.596078 0 0 0 0 0.0980392 0 0 0 0 0.129412 0 0 0 0.15 0"/>
<feBlend mode="normal" in2="BackgroundImageFix" result="effect1_dropShadow_254_1905"/>
<feBlend mode="normal" in="SourceGraphic" in2="effect1_dropShadow_254_1905" result="shape"/>
</filter>
</defs>
</svg>
