<svg width="21" height="17" viewBox="0 0 21 17" fill="none" xmlns="http://www.w3.org/2000/svg">
<path d="M13.7264 0.555112V0.551636H14.6277L14.957 0.617693C15.1766 0.660577 15.3759 0.716778 15.555 0.786311C15.7341 0.855845 15.9075 0.936973 16.075 1.02968C16.2426 1.12238 16.3945 1.21685 16.5309 1.31303C16.6661 1.40806 16.7874 1.50889 16.8949 1.6155C17.0011 1.72328 17.167 1.75109 17.3923 1.69894C17.6176 1.64679 17.8603 1.57435 18.1203 1.48165C18.3803 1.38894 18.6374 1.28464 18.8916 1.16875C19.1458 1.05285 19.3007 0.979267 19.3561 0.947977C19.4104 0.915539 19.4393 0.898156 19.4428 0.895826L19.4462 0.890611L19.4636 0.88192L19.4809 0.873228L19.4982 0.864536L19.5156 0.855845L19.519 0.85063L19.5242 0.847153L19.5294 0.843676L19.5329 0.838461L19.5502 0.833246L19.5676 0.82977L19.5641 0.855845L19.5589 0.88192L19.5502 0.907995L19.5416 0.93407L19.5329 0.951453L19.5242 0.968837L19.5156 0.994912C19.5098 1.0123 19.504 1.03547 19.4982 1.06445C19.4925 1.09342 19.4376 1.2093 19.3336 1.41211C19.2296 1.61492 19.0996 1.82062 18.9436 2.02922C18.7876 2.23782 18.6478 2.39542 18.5241 2.50205C18.3993 2.60983 18.3167 2.68515 18.2763 2.72803C18.2358 2.77207 18.1867 2.81262 18.1289 2.84972L18.0423 2.90708L18.0249 2.91577L18.0076 2.92447L18.0042 2.92968L17.9989 2.93316L17.9937 2.93663L17.9903 2.94185L17.9729 2.95054L17.9556 2.95923L17.9522 2.96445L17.9469 2.96792L17.9417 2.9714L17.9383 2.97662L17.9348 2.98183L17.9296 2.98531L17.9244 2.98878L17.9209 2.994H18.0076L18.4929 2.8897C18.8165 2.82017 19.1256 2.73615 19.4202 2.63764L19.8882 2.48119L19.9402 2.46381L19.9662 2.45512L19.9835 2.44642L20.0009 2.43773L20.0182 2.42904L20.0355 2.42035L20.0702 2.41513L20.1049 2.41166V2.44642L20.0962 2.4499L20.0875 2.45512L20.0841 2.46033L20.0789 2.46381L20.0737 2.46728L20.0702 2.4725L20.0668 2.47771L20.0615 2.48119L20.0563 2.48467L20.0529 2.48988L20.0494 2.4951L20.0442 2.49857L20.0355 2.51596L20.0269 2.53334L20.0217 2.53682C20.0194 2.54029 19.946 2.63879 19.8016 2.83233C19.6571 3.02703 19.5791 3.12552 19.5676 3.12785C19.556 3.13133 19.5398 3.14871 19.519 3.18C19.4994 3.21244 19.3769 3.34167 19.1516 3.56765C18.9262 3.79363 18.7056 3.99469 18.4895 4.17085C18.2722 4.34816 18.1625 4.56603 18.1602 4.82447C18.1567 5.08174 18.1434 5.37264 18.1203 5.69711C18.0972 6.02161 18.0538 6.37216 17.9903 6.74881C17.9267 7.12545 17.8285 7.55135 17.6956 8.02649C17.5627 8.50163 17.401 8.96519 17.2103 9.41716C17.0196 9.86912 16.8203 10.2747 16.6123 10.634C16.4043 10.9933 16.2137 11.2975 16.0403 11.5466C15.867 11.7958 15.6908 12.0305 15.5117 12.2506C15.3326 12.4708 15.1061 12.7188 14.8323 12.9947C14.5572 13.2693 14.407 13.42 14.3816 13.4466C14.355 13.4721 14.2418 13.5672 14.0419 13.7317C13.8431 13.8974 13.6293 14.0631 13.4006 14.2289C13.1729 14.3934 12.9638 14.5308 12.7731 14.6409C12.5824 14.7509 12.3525 14.8767 12.0833 15.0181C11.8152 15.1606 11.5251 15.2927 11.2132 15.4144C10.9012 15.5361 10.5718 15.6491 10.2252 15.7534C9.87853 15.8577 9.54344 15.9388 9.21988 15.9968C8.89635 16.0547 8.52947 16.104 8.11925 16.1445L7.50394 16.2054V16.2141H6.37731V16.2054L6.22998 16.1967C6.13177 16.1909 6.05088 16.1851 5.98732 16.1793C5.92378 16.1735 5.684 16.1416 5.26801 16.0837C4.85202 16.0257 4.52559 15.9678 4.28871 15.9098C4.05184 15.8519 3.69939 15.7418 3.23141 15.5796C2.76342 15.4173 2.36303 15.2533 2.03024 15.0876C1.69861 14.923 1.49062 14.8187 1.40626 14.7747C1.32307 14.7318 1.22947 14.6785 1.12547 14.6148L0.969476 14.5192L0.966027 14.514L0.96081 14.5105L0.95561 14.507L0.952144 14.5018L0.934811 14.4931L0.917478 14.4844L0.914029 14.4792L0.908812 14.4757L0.903612 14.4722L0.900145 14.467L0.896696 14.4618L0.891479 14.4583H0.882812V14.4236L0.900145 14.427L0.917478 14.4323L0.995476 14.441C1.04747 14.4467 1.18903 14.4554 1.42013 14.467C1.65124 14.4786 1.89678 14.4786 2.15677 14.467C2.41676 14.4554 2.68255 14.4294 2.95408 14.3888C3.22563 14.3482 3.54629 14.2787 3.91605 14.1802C4.28583 14.0817 4.62555 13.9646 4.93524 13.8291C5.24376 13.6923 5.4633 13.5903 5.59388 13.5231C5.72329 13.4571 5.92088 13.3342 6.18665 13.1546L6.5853 12.8851L6.58877 12.8799L6.59397 12.8764L6.59918 12.873L6.60263 12.8678L6.6061 12.8625L6.6113 12.8591L6.61652 12.8556L6.61997 12.8504L6.6373 12.8452L6.65463 12.8417L6.6581 12.8243L6.6633 12.8069L6.66852 12.8034L6.67196 12.7982L6.5333 12.7895C6.44087 12.7837 6.35131 12.7779 6.26464 12.7721C6.17798 12.7664 6.04221 12.7403 5.85732 12.6939C5.67245 12.6476 5.47312 12.578 5.25934 12.4853C5.04558 12.3926 4.83758 12.2825 4.63536 12.155C4.43316 12.0276 4.28697 11.9215 4.19684 11.8369C4.10787 11.7535 3.99232 11.6353 3.85019 11.4823C3.70922 11.3282 3.58673 11.17 3.48273 11.0077C3.37873 10.8455 3.27937 10.6583 3.18462 10.4463L3.04075 10.1299L3.03208 10.1038L3.02341 10.0777L3.01821 10.0603L3.01475 10.043L3.04075 10.0464L3.06674 10.0516L3.2574 10.0777C3.38452 10.0951 3.58385 10.1009 3.85539 10.0951C4.12694 10.0893 4.3147 10.0777 4.4187 10.0603C4.5227 10.043 4.58626 10.0314 4.60936 10.0256L4.64403 10.0169L4.68736 10.0082L4.73069 9.9995L4.73416 9.99428L4.73936 9.99081L4.74458 9.98733L4.74802 9.98212L4.71336 9.97342L4.67869 9.96473L4.64403 9.95604L4.60936 9.94735L4.5747 9.93866C4.55159 9.93287 4.51115 9.92127 4.45337 9.90389C4.3956 9.88651 4.2396 9.82276 3.98538 9.71267C3.73118 9.60258 3.52896 9.49538 3.37873 9.39108C3.22814 9.28648 3.08455 9.17208 2.94888 9.04863C2.81369 8.92347 2.66521 8.76238 2.50343 8.56537C2.34166 8.36836 2.19723 8.13948 2.07011 7.87873C1.94301 7.61798 1.84768 7.36882 1.78412 7.13124C1.72081 6.89506 1.67905 6.6536 1.65934 6.40983L1.62812 6.04478L1.64546 6.04826L1.66279 6.05347L1.68012 6.06216L1.69745 6.07086L1.71479 6.07955L1.73212 6.08824L2.00078 6.20992C2.17989 6.29105 2.40233 6.36059 2.66809 6.41852C2.93387 6.47646 3.09274 6.50834 3.14474 6.51413L3.22274 6.52282H3.37873L3.37528 6.51761L3.37007 6.51413L3.36487 6.51066L3.3614 6.50544L3.35795 6.50023L3.35274 6.49675L3.34754 6.49327L3.34407 6.48806L3.32674 6.47937L3.3094 6.47067L3.30595 6.46546L3.30074 6.46198L3.29554 6.45851L3.29207 6.45329L3.27474 6.4446L3.2574 6.43591L3.25396 6.43069C3.25049 6.42836 3.2008 6.39128 3.10488 6.31944C3.01012 6.24643 2.91075 6.15198 2.80675 6.03609C2.70276 5.9202 2.59876 5.79851 2.49476 5.67104C2.39057 5.54327 2.29778 5.40658 2.21744 5.26253C2.13656 5.11767 2.05104 4.93339 1.96091 4.70974C1.87194 4.48723 1.80434 4.26299 1.75812 4.037C1.71191 3.81102 1.68591 3.58794 1.68012 3.36774C1.67435 3.14755 1.68012 2.95923 1.69745 2.80278C1.71479 2.64633 1.74945 2.4696 1.80145 2.27259C1.85345 2.07558 1.92857 1.86698 2.02678 1.64679L2.17411 1.3165L2.18277 1.29043L2.19144 1.26435L2.19666 1.26088L2.2001 1.25566L2.20357 1.25045L2.20877 1.24697L2.21399 1.25045L2.21744 1.25566L2.2209 1.26088L2.2261 1.26435L2.23132 1.26783L2.23477 1.27305L2.23824 1.27826L2.24344 1.28174L2.2521 1.29912L2.26077 1.3165L2.26599 1.31998L2.26944 1.3252L2.50343 1.58595C2.65942 1.75978 2.84431 1.9539 3.05808 2.16829C3.27186 2.38268 3.3903 2.49393 3.4134 2.50205C3.43652 2.51132 3.4654 2.53796 3.50006 2.58201C3.53473 2.6249 3.65029 2.72746 3.84672 2.8897C4.04317 3.05194 4.30027 3.24027 4.61803 3.45466C4.93581 3.66905 5.28824 3.88055 5.67533 4.08915C6.06244 4.29775 6.47843 4.48607 6.92329 4.65411C7.36817 4.82216 7.68016 4.93225 7.85926 4.9844C8.03838 5.03655 8.34458 5.10318 8.7779 5.1843C9.21122 5.26543 9.53766 5.31758 9.7572 5.34075C9.97676 5.36393 10.127 5.37726 10.2079 5.38074L10.3292 5.38421L10.3257 5.35814L10.3205 5.33206L10.2859 5.11477C10.2627 4.96992 10.2512 4.7671 10.2512 4.50635C10.2512 4.2456 10.2714 4.00514 10.3119 3.78494C10.3523 3.56475 10.413 3.34167 10.4938 3.11568C10.5747 2.8897 10.6539 2.70832 10.7313 2.57158C10.8099 2.43599 10.9127 2.28128 11.0398 2.10745C11.1669 1.93361 11.3316 1.75399 11.5338 1.56856C11.736 1.38313 11.9671 1.21799 12.2271 1.07314C12.4871 0.928281 12.7269 0.818175 12.9464 0.742853C13.166 0.667531 13.3509 0.618266 13.5011 0.595094C13.6513 0.571922 13.7264 0.558589 13.7264 0.555112Z" fill="white"/>
</svg>
