<svg width="57" height="60" viewBox="0 0 57 60" fill="none" xmlns="http://www.w3.org/2000/svg">
<circle cx="29" cy="32.5" r="24" fill="white" stroke="#FFB443" stroke-width="2"/>
<path d="M23.5334 38.6158C23.5334 38.6158 15.6996 38.7749 11.719 45.3195C11.719 45.3195 8.99262 54.6973 9.26526 56.6894L15.3179 54.7065C18.3351 56.3937 22.8655 57.6854 29.3089 57.3943C41.4595 56.8531 46.9305 50.6906 46.9305 50.6906C46.9305 50.6906 45.6446 41.9631 38.4559 39.9802C31.2673 37.9972 23.5334 38.6158 23.5334 38.6158Z" fill="#981921"/>
<path d="M40.5645 28.1828C41.5505 23.1436 42.4366 15.3666 38.9695 13.7748L36.6975 13.6702C36.6975 13.6702 35.0299 9.80446 28.3502 10.4321C21.6705 11.0597 14.9363 16.6946 17.9808 25.8497C19.5621 30.5977 16.7539 37.5061 16.7539 37.5061L26.578 37.4697L41.7459 36.9876C40.3884 34.2647 39.9729 31.1677 40.5645 28.1828Z" fill="#404040"/>
<path d="M39.0729 20.4284C39.0729 20.4284 40.9996 32.6306 36.1556 34.1951C35.6275 34.51 35.0404 34.7128 34.4307 34.7911C33.821 34.8693 33.2017 34.8213 32.6113 34.6499V38.5111C32.6113 38.5111 27.7174 42.2132 23.7051 38.2474V28.2873C23.7051 28.2873 24.1595 22.2203 25.3727 22.8661C25.6499 23.0162 28.0991 22.7615 28.499 18.3182C28.499 18.3182 34.1245 15.8123 36.7282 17.5359C39.3319 19.2596 39.0729 20.4284 39.0729 20.4284Z" fill="#F7AF87"/>
<path d="M32.6131 34.6635C32.6131 34.6635 29.6459 33.8813 28.5508 32.526C28.5508 32.526 30.0594 38.4702 32.6131 38.5248V34.6635Z" fill="url(#paint0_linear_2091_1142)"/>
<path d="M35.0442 16.8901C33.5402 16.8901 31.9043 17.1039 30.8456 18.1681C29.5369 19.4825 29.5687 21.5745 28.9962 23.3391C28.5734 24.6836 27.7269 25.8548 26.5833 26.6773C26.0107 27.0814 25.3633 27.3671 24.679 27.5178C23.9948 27.6685 23.2874 27.6812 22.5982 27.5551C22.4566 27.5402 22.3196 27.4966 22.1954 27.427C22.0712 27.3574 21.9624 27.2633 21.8757 27.1503C21.78 26.9463 21.7468 26.7184 21.7803 26.4954C21.912 23.994 22.2074 21.4063 23.4979 19.2642C24.218 18.0797 25.2124 17.086 26.397 16.3671C27.0851 15.9274 27.8602 15.6419 28.669 15.5303C30.2594 15.3484 31.8043 16.0579 33.2448 16.7537" fill="#404040"/>
<path d="M23.4835 38.2247C23.4835 38.2247 21.7886 38.4839 21.8431 39.7119C21.8976 40.9398 22.1021 44.6373 24.006 43.7504C25.91 42.8636 27.5231 40.1803 27.5231 40.1803L23.4835 38.2247Z" fill="white"/>
<path d="M32.2851 38.2247C32.2851 38.2247 33.98 38.4839 33.93 39.7119C33.88 40.9398 33.6665 44.6373 31.7671 43.7504C29.8677 42.8636 28.25 40.1803 28.25 40.1803L32.2851 38.2247Z" fill="white"/>
<path d="M27.7902 46.0016C28.3097 46.0016 28.7308 45.5801 28.7308 45.0602C28.7308 44.5403 28.3097 44.1188 27.7902 44.1188C27.2707 44.1188 26.8496 44.5403 26.8496 45.0602C26.8496 45.5801 27.2707 46.0016 27.7902 46.0016Z" fill="white"/>
<path d="M27.7902 49.3307C28.3097 49.3307 28.7308 48.9092 28.7308 48.3893C28.7308 47.8694 28.3097 47.4479 27.7902 47.4479C27.2707 47.4479 26.8496 47.8694 26.8496 48.3893C26.8496 48.9092 27.2707 49.3307 27.7902 49.3307Z" fill="white"/>
<path d="M27.7902 52.6598C28.3097 52.6598 28.7308 52.2383 28.7308 51.7184C28.7308 51.1985 28.3097 50.777 27.7902 50.777C27.2707 50.777 26.8496 51.1985 26.8496 51.7184C26.8496 52.2383 27.2707 52.6598 27.7902 52.6598Z" fill="white"/>
<defs>
<linearGradient id="paint0_linear_2091_1142" x1="4670.52" y1="1244.15" x2="4732.28" y2="1075.49" gradientUnits="userSpaceOnUse">
<stop stop-opacity="0"/>
<stop offset="0.99"/>
</linearGradient>
</defs>
</svg>
