<svg width="26" height="26" viewBox="0 0 26 26" fill="none" xmlns="http://www.w3.org/2000/svg">
<path d="M8.60213 12.7969C8.60213 10.4799 10.4799 8.60112 12.7969 8.60112C15.1139 8.60112 16.9927 10.4799 16.9927 12.7969C16.9927 15.1139 15.1139 16.9927 12.7969 16.9927C10.4799 16.9927 8.60213 15.1139 8.60213 12.7969ZM6.33396 12.7969C6.33396 16.3664 9.22742 19.2599 12.7969 19.2599C16.3664 19.2599 19.2599 16.3664 19.2599 12.7969C19.2599 9.22742 16.3664 6.33396 12.7969 6.33396C9.22742 6.33396 6.33406 9.22722 6.33406 12.7969H6.33396ZM18.0055 6.0777C18.0053 6.37643 18.0938 6.66848 18.2597 6.91692C18.4255 7.16536 18.6613 7.35905 18.9373 7.47347C19.2132 7.5879 19.5169 7.61793 19.8099 7.55977C20.1029 7.50161 20.3721 7.35787 20.5834 7.14672C20.7947 6.93558 20.9387 6.66652 20.9971 6.37356C21.0554 6.0806 21.0257 5.7769 20.9115 5.50088C20.7972 5.22485 20.6038 4.98888 20.3554 4.82282C20.1071 4.65676 19.8152 4.56806 19.5164 4.56794H19.5158C19.1154 4.56813 18.7314 4.72723 18.4483 5.01031C18.1651 5.29339 18.0058 5.67729 18.0055 6.0777ZM7.71202 23.042C6.4849 22.9861 5.81792 22.7817 5.37468 22.6091C4.78705 22.3803 4.36777 22.1078 3.92695 21.6676C3.48612 21.2274 3.21325 20.8085 2.98548 20.2209C2.8127 19.7778 2.6083 19.1106 2.55251 17.8835C2.49149 16.5568 2.47931 16.1583 2.47931 12.7971C2.47931 9.43595 2.4925 9.03852 2.55251 7.71071C2.6084 6.48359 2.81431 5.81772 2.98548 5.37337C3.21425 4.78574 3.48672 4.36646 3.92695 3.92564C4.36717 3.48481 4.78604 3.21194 5.37468 2.98417C5.81772 2.81139 6.4849 2.60699 7.71202 2.5512C9.03873 2.49018 9.43726 2.478 12.7969 2.478C16.1566 2.478 16.5555 2.49099 17.8833 2.55141C19.1104 2.60729 19.7763 2.8132 20.2207 2.98438C20.8083 3.21214 21.2276 3.48562 21.6684 3.92584C22.1092 4.36606 22.3811 4.78594 22.6099 5.37357C22.7826 5.81661 22.987 6.48379 23.0428 7.71091C23.1038 9.03872 23.116 9.43615 23.116 12.7973C23.116 16.1585 23.1038 16.5559 23.0428 17.8837C22.9869 19.1108 22.7815 19.7778 22.6099 20.2211C22.3811 20.8087 22.1086 21.228 21.6684 21.6678C21.2282 22.1076 20.8083 22.3805 20.2207 22.6093C19.7776 22.782 19.1104 22.9864 17.8833 23.0422C16.5566 23.1032 16.1581 23.1154 12.7969 23.1154C9.43575 23.1154 9.03832 23.1032 7.71202 23.0422V23.042ZM7.60781 0.286764C6.26791 0.347783 5.35233 0.560241 4.55274 0.871376C3.72516 1.19268 3.02365 1.62374 2.32314 2.32314C1.62263 3.02254 1.19268 3.72415 0.871376 4.55274C0.560241 5.35283 0.347783 6.26791 0.286764 7.6078C0.224738 8.94981 0.210541 9.37886 0.210541 12.7969C0.210541 16.215 0.224738 16.644 0.286764 17.986C0.347783 19.326 0.560241 20.241 0.871376 21.0411C1.19268 21.8687 1.62273 22.5716 2.32314 23.2707C3.02355 23.9698 3.72415 24.4002 4.55274 24.7225C5.35384 25.0336 6.26791 25.246 7.60781 25.3071C8.95052 25.3681 9.37886 25.3833 12.7969 25.3833C16.215 25.3833 16.644 25.3691 17.986 25.3071C19.326 25.246 20.241 25.0336 21.0411 24.7225C21.8687 24.4002 22.5702 23.9701 23.2707 23.2707C23.9712 22.5713 24.4002 21.8687 24.7225 21.0411C25.0336 20.241 25.2471 19.3259 25.3071 17.986C25.3681 16.643 25.3823 16.215 25.3823 12.7969C25.3823 9.37886 25.3681 8.94981 25.3071 7.6078C25.2461 6.26781 25.0336 5.35233 24.7225 4.55274C24.4002 3.72516 23.9701 3.02365 23.2707 2.32314C22.5713 1.62263 21.8687 1.19268 21.0421 0.871376C20.241 0.560241 19.3259 0.346776 17.987 0.286764C16.6448 0.225443 16.216 0.210541 12.7984 0.210541C9.38087 0.210541 8.95103 0.224738 7.60831 0.286764" fill="white"/>
</svg>
