<svg width="26" height="21" viewBox="0 0 26 21" fill="none" xmlns="http://www.w3.org/2000/svg">
<path d="M17.5055 0.428023V0.423553H18.6643L19.0877 0.508484C19.37 0.563621 19.6263 0.635879 19.8566 0.725279C20.0869 0.814679 20.3097 0.918987 20.5251 1.03818C20.7406 1.15737 20.9359 1.27882 21.1112 1.40249C21.2851 1.52467 21.4411 1.6543 21.5792 1.79138C21.7159 1.92995 21.9291 1.96571 22.2188 1.89866C22.5085 1.83161 22.8205 1.73847 23.1548 1.61928C23.489 1.50009 23.8196 1.36599 24.1464 1.21698C24.4733 1.06797 24.6724 0.973365 24.7437 0.933135C24.8135 0.891429 24.8507 0.869079 24.8551 0.866084L24.8596 0.859379L24.8818 0.848204L24.9041 0.837029L24.9264 0.825854L24.9487 0.814679L24.9532 0.807974L24.9598 0.803504L24.9665 0.799034L24.971 0.792329L24.9933 0.785624L25.0156 0.781154L25.0111 0.814679L25.0044 0.848204L24.9933 0.88173L24.9821 0.915255L24.971 0.937605L24.9598 0.959955L24.9487 0.99348C24.9413 1.01583 24.9339 1.04562 24.9264 1.08288C24.919 1.12014 24.8484 1.26912 24.7147 1.52988C24.581 1.79064 24.4139 2.05511 24.2133 2.32331C24.0127 2.59151 23.833 2.79413 23.674 2.93123C23.5136 3.0698 23.4073 3.16664 23.3553 3.22178C23.3033 3.27839 23.2402 3.33054 23.1659 3.37823L23.0545 3.45199L23.0322 3.46316L23.0099 3.47434L23.0055 3.48104L22.9988 3.48551L22.9921 3.48998L22.9876 3.49669L22.9653 3.50786L22.943 3.51904L22.9386 3.52574L22.9319 3.53021L22.9252 3.53468L22.9208 3.54139L22.9163 3.54809L22.9096 3.55256L22.9029 3.55703L22.8985 3.56374H23.0099L23.6339 3.42964C24.0499 3.34023 24.4473 3.23222 24.8261 3.10556L25.4278 2.90441L25.4947 2.88206L25.5281 2.87088L25.5504 2.85971L25.5727 2.84853L25.595 2.83736L25.6172 2.82618L25.6618 2.81948L25.7064 2.81501V2.85971L25.6952 2.86418L25.6841 2.87088L25.6797 2.87759L25.673 2.88206L25.6663 2.88653L25.6618 2.89323L25.6574 2.89994L25.6507 2.90441L25.644 2.90888L25.6395 2.91558L25.6351 2.92229L25.6284 2.92676L25.6172 2.94911L25.6061 2.97146L25.5994 2.97593C25.5965 2.9804 25.5021 3.10703 25.3164 3.35588C25.1307 3.6062 25.0304 3.73284 25.0156 3.73583C25.0007 3.7403 24.9799 3.76265 24.9532 3.80288C24.9279 3.84459 24.7704 4.01074 24.4807 4.30129C24.191 4.59184 23.9073 4.85034 23.6294 5.07683C23.3501 5.3048 23.209 5.58492 23.206 5.9172C23.2016 6.24798 23.1845 6.62198 23.1548 7.03917C23.125 7.45638 23.0693 7.90709 22.9876 8.39135C22.9059 8.8756 22.7796 9.42318 22.6088 10.0341C22.4379 10.645 22.2299 11.241 21.9848 11.8221C21.7397 12.4032 21.4834 12.9247 21.216 13.3866C20.9485 13.8485 20.7034 14.2396 20.4806 14.56C20.2577 14.8803 20.0312 15.182 19.8009 15.4651C19.5706 15.7482 19.2794 16.0671 18.9273 16.4217C18.5737 16.7749 18.3806 16.9686 18.3479 17.0028C18.3137 17.0356 18.1681 17.1578 17.9111 17.3694C17.6556 17.5824 17.3807 17.7955 17.0865 18.0086C16.7939 18.2202 16.525 18.3967 16.2798 18.5383C16.0347 18.6798 15.7391 18.8415 15.3929 19.0233C15.0482 19.2065 14.6753 19.3764 14.2742 19.5328C13.873 19.6893 13.4496 19.8346 13.0039 19.9687C12.5582 20.1028 12.1274 20.2071 11.7114 20.2816C11.2954 20.3561 10.8237 20.4194 10.2963 20.4715L9.50518 20.5498V20.5609H8.05666V20.5498L7.86724 20.5386C7.74097 20.5312 7.63696 20.5237 7.55525 20.5162C7.47355 20.5088 7.16526 20.4678 6.63042 20.3933C6.09558 20.3188 5.67588 20.2443 5.37131 20.1698C5.06677 20.0953 4.61362 19.9538 4.01193 19.7452C3.41023 19.5366 2.89545 19.3257 2.46758 19.1127C2.0412 18.9011 1.77378 18.767 1.66532 18.7104C1.55835 18.6552 1.43801 18.5867 1.3043 18.5047L1.10373 18.3818L1.0993 18.3751L1.09259 18.3706L1.08591 18.3662L1.08145 18.3595L1.05916 18.3483L1.03688 18.3371L1.03244 18.3304L1.02574 18.3259L1.01905 18.3215L1.01459 18.3148L1.01016 18.3081L1.00345 18.3036H0.99231V18.2589L1.01459 18.2634L1.03688 18.2701L1.13716 18.2812C1.20402 18.2887 1.38602 18.2999 1.68314 18.3148C1.98029 18.3297 2.29598 18.3297 2.63026 18.3148C2.96453 18.2999 3.30625 18.2663 3.65537 18.2142C4.00451 18.1621 4.41678 18.0727 4.89219 17.946C5.36762 17.8193 5.8044 17.6689 6.20257 17.4945C6.59924 17.3187 6.8815 17.1876 7.0494 17.1012C7.21578 17.0162 7.46983 16.8583 7.81152 16.6273L8.32408 16.2809L8.32854 16.2742L8.33522 16.2697L8.34193 16.2653L8.34636 16.2586L8.35082 16.2519L8.35751 16.2474L8.36421 16.2429L8.36865 16.2362L8.39093 16.2295L8.41322 16.225L8.41768 16.2027L8.42436 16.1803L8.43107 16.1759L8.4355 16.1692L8.25722 16.158C8.13838 16.1505 8.02323 16.1431 7.91181 16.1356C7.80038 16.1282 7.62582 16.0947 7.38811 16.0351C7.15042 15.9755 6.89414 15.8861 6.61928 15.7669C6.34443 15.6477 6.07701 15.5061 5.81701 15.3422C5.55704 15.1783 5.36909 15.042 5.2532 14.9332C5.13881 14.8259 4.99024 14.6739 4.8075 14.4773C4.62626 14.2791 4.46877 14.0757 4.33506 13.8671C4.20135 13.6585 4.07359 13.4179 3.95178 13.1452L3.76679 12.7384L3.75565 12.7049L3.74451 12.6714L3.73782 12.649L3.73337 12.6267L3.76679 12.6312L3.80022 12.6379L4.04536 12.6714C4.20879 12.6937 4.46507 12.7012 4.81419 12.6937C5.16333 12.6863 5.40474 12.6714 5.53845 12.649C5.67216 12.6267 5.75388 12.6118 5.78359 12.6043L5.82816 12.5932L5.88387 12.582L5.93958 12.5708L5.94404 12.5641L5.95073 12.5596L5.95743 12.5552L5.96187 12.5485L5.9173 12.5373L5.87273 12.5261L5.82816 12.5149L5.78359 12.5038L5.73902 12.4926C5.70931 12.4851 5.65732 12.4702 5.58302 12.4479C5.50875 12.4255 5.30818 12.3436 4.98133 12.202C4.65449 12.0605 4.3945 11.9227 4.20135 11.7886C4.00773 11.6541 3.82311 11.507 3.64868 11.3483C3.47486 11.1873 3.28397 10.9802 3.07596 10.7269C2.86797 10.4736 2.68227 10.1794 2.51883 9.8441C2.35542 9.50885 2.23285 9.18851 2.15113 8.88305C2.06974 8.57939 2.01604 8.26893 1.9907 7.95552L1.95057 7.48617L1.97285 7.49064L1.99514 7.49734L2.01742 7.50852L2.03971 7.51969L2.06199 7.53087L2.08428 7.54204L2.42969 7.69849C2.65999 7.8028 2.94597 7.8922 3.28767 7.9667C3.62938 8.04119 3.83365 8.08218 3.9005 8.08962L4.00079 8.1008H4.20135L4.19692 8.09409L4.19021 8.08962L4.18352 8.08515L4.17907 8.07845L4.17463 8.07174L4.16792 8.06727L4.16124 8.0628L4.15678 8.0561L4.1345 8.04492L4.11221 8.03375L4.10778 8.02704L4.10107 8.02257L4.09438 8.0181L4.08993 8.0114L4.06764 8.00022L4.04536 7.98905L4.04092 7.98234C4.03646 7.97935 3.97257 7.93167 3.84925 7.8393C3.72742 7.74543 3.59966 7.624 3.46595 7.47499C3.33224 7.32599 3.19853 7.16954 3.06482 7.00564C2.93086 6.84137 2.81155 6.66562 2.70826 6.48042C2.60427 6.29417 2.49432 6.05724 2.37844 5.76969C2.26405 5.4836 2.17714 5.19529 2.1177 4.90474C2.05829 4.61419 2.02486 4.32737 2.01742 4.04426C2.01 3.76115 2.01742 3.51904 2.03971 3.31788C2.06199 3.11673 2.10656 2.8895 2.17342 2.63621C2.24027 2.38292 2.33685 2.11471 2.46312 1.83161L2.65254 1.40696L2.66369 1.37343L2.67483 1.33991L2.68154 1.33544L2.68597 1.32873L2.69043 1.32203L2.69711 1.31756L2.70382 1.32203L2.70826 1.32873L2.71271 1.33544L2.7194 1.33991L2.72611 1.34438L2.73054 1.35108L2.735 1.35779L2.74168 1.36226L2.75283 1.38461L2.76397 1.40696L2.77068 1.41143L2.77511 1.41813L3.07596 1.75338C3.27652 1.97688 3.51424 2.22646 3.78908 2.50211C4.06394 2.77775 4.21622 2.92079 4.24592 2.93123C4.27565 2.94314 4.31278 2.9774 4.35735 3.03404C4.40192 3.08918 4.55049 3.22104 4.80305 3.42964C5.05562 3.63823 5.38618 3.88037 5.79473 4.15601C6.2033 4.43165 6.65642 4.70359 7.15412 4.97179C7.65183 5.23999 8.18667 5.48211 8.75864 5.69817C9.33063 5.91422 9.73176 6.05577 9.96203 6.12282C10.1923 6.18987 10.586 6.27553 11.1431 6.37984C11.7003 6.48415 12.12 6.5512 12.4022 6.58099C12.6845 6.61079 12.8777 6.62793 12.9816 6.6324L13.1376 6.63687L13.1332 6.60334L13.1265 6.56982L13.0819 6.29044C13.0522 6.1042 13.0374 5.84344 13.0374 5.50819C13.0374 5.17294 13.0634 4.86377 13.1154 4.58066C13.1674 4.29755 13.2454 4.01074 13.3493 3.72019C13.4534 3.42964 13.5551 3.19643 13.6547 3.02063C13.7557 2.8463 13.8879 2.64738 14.0513 2.42388C14.2148 2.20038 14.4265 1.96944 14.6865 1.73103C14.9464 1.49262 15.2436 1.2803 15.5779 1.09405C15.9121 0.907812 16.2204 0.766247 16.5027 0.669404C16.785 0.572561 17.0227 0.509221 17.2158 0.479429C17.4089 0.449636 17.5055 0.432493 17.5055 0.428023Z" fill="white"/>
</svg>
