<svg width="78" height="78" viewBox="0 0 78 78" fill="none" xmlns="http://www.w3.org/2000/svg">
<g clip-path="url(#clip0_3_24)" filter="url(#filter0_d_3_24)">
<g filter="url(#filter1_d_3_24)">
<path d="M39 10.125C23.0543 10.125 10.125 23.0543 10.125 39C10.125 54.9457 23.0543 67.875 39 67.875C54.9457 67.875 67.875 54.9457 67.875 39C67.875 23.0543 54.9457 10.125 39 10.125ZM48.2877 39.4447L34.2111 49.6863C34.134 49.7418 34.043 49.7749 33.9482 49.782C33.8535 49.7891 33.7586 49.77 33.674 49.7267C33.5894 49.6834 33.5184 49.6176 33.4687 49.5366C33.4191 49.4556 33.3927 49.3624 33.3926 49.2674V28.7971C33.3923 28.7019 33.4183 28.6084 33.4679 28.5271C33.5174 28.4458 33.5885 28.3798 33.6733 28.3364C33.758 28.293 33.8532 28.2739 33.9481 28.2813C34.043 28.2887 34.1341 28.3222 34.2111 28.3781L48.2877 38.6133C48.3542 38.6603 48.4084 38.7226 48.4459 38.7949C48.4833 38.8673 48.5029 38.9476 48.5029 39.029C48.5029 39.1105 48.4833 39.1907 48.4459 39.2631C48.4084 39.3354 48.3542 39.3977 48.2877 39.4447V39.4447Z" fill="#E52440"/>
</g>
</g>
<defs>
<filter id="filter0_d_3_24" x="-4" y="-4" width="86" height="86" filterUnits="userSpaceOnUse" color-interpolation-filters="sRGB">
<feFlood flood-opacity="0" result="BackgroundImageFix"/>
<feColorMatrix in="SourceAlpha" type="matrix" values="0 0 0 0 0 0 0 0 0 0 0 0 0 0 0 0 0 0 127 0" result="hardAlpha"/>
<feOffset/>
<feGaussianBlur stdDeviation="5"/>
<feComposite in2="hardAlpha" operator="out"/>
<feColorMatrix type="matrix" values="0 0 0 0 0 0 0 0 0 0 0 0 0 0 0 0 0 0 0.25 0"/>
<feBlend mode="normal" in2="BackgroundImageFix" result="effect1_dropShadow_3_24"/>
<feBlend mode="normal" in="SourceGraphic" in2="effect1_dropShadow_3_24" result="shape"/>
</filter>
<filter id="filter1_d_3_24" x="0.125" y="0.125" width="77.75" height="77.75" filterUnits="userSpaceOnUse" color-interpolation-filters="sRGB">
<feFlood flood-opacity="0" result="BackgroundImageFix"/>
<feColorMatrix in="SourceAlpha" type="matrix" values="0 0 0 0 0 0 0 0 0 0 0 0 0 0 0 0 0 0 127 0" result="hardAlpha"/>
<feOffset/>
<feGaussianBlur stdDeviation="5"/>
<feComposite in2="hardAlpha" operator="out"/>
<feColorMatrix type="matrix" values="0 0 0 0 0 0 0 0 0 0 0 0 0 0 0 0 0 0 0.25 0"/>
<feBlend mode="normal" in2="BackgroundImageFix" result="effect1_dropShadow_3_24"/>
<feBlend mode="normal" in="SourceGraphic" in2="effect1_dropShadow_3_24" result="shape"/>
</filter>
<clipPath id="clip0_3_24">
<rect width="66" height="66" fill="white" transform="translate(6 6)"/>
</clipPath>
</defs>
</svg>
