<svg width="25" height="24" viewBox="0 0 25 24" fill="none" xmlns="http://www.w3.org/2000/svg">
<path d="M22.9746 11.9344C22.9746 11.8828 22.9746 11.8242 22.9723 11.7562C22.9699 11.5664 22.9652 11.3531 22.9605 11.1258C22.9418 10.4719 22.909 9.8203 22.8574 9.20623C22.7871 8.36014 22.684 7.65467 22.5434 7.12498C22.395 6.57221 22.1041 6.06806 21.6998 5.66294C21.2955 5.25782 20.7919 4.9659 20.2395 4.81638C19.5762 4.63826 18.2777 4.5281 16.4496 4.46013C15.5801 4.42732 14.6496 4.40623 13.7191 4.39451C13.3934 4.38982 13.091 4.38748 12.8191 4.38513H12.1301C11.8582 4.38748 11.5559 4.38982 11.2301 4.39451C10.2996 4.40623 9.36914 4.42732 8.49961 4.46013C6.67148 4.53044 5.3707 4.6406 4.70977 4.81638C4.15711 4.96554 3.65337 5.25733 3.24901 5.66251C2.84465 6.06768 2.55389 6.57202 2.40586 7.12498C2.26289 7.65467 2.16211 8.36014 2.0918 9.20623C2.04023 9.8203 2.00742 10.4719 1.98867 11.1258C1.98164 11.3531 1.9793 11.5664 1.97695 11.7562C1.97695 11.8242 1.97461 11.8828 1.97461 11.9344V12.0656C1.97461 12.1172 1.97461 12.1758 1.97695 12.2437C1.9793 12.4336 1.98398 12.6469 1.98867 12.8742C2.00742 13.5281 2.04023 14.1797 2.0918 14.7937C2.16211 15.6398 2.26523 16.3453 2.40586 16.875C2.70586 17.9977 3.58711 18.8836 4.70977 19.1836C5.3707 19.3617 6.67148 19.4719 8.49961 19.5398C9.36914 19.5727 10.2996 19.5938 11.2301 19.6055C11.5559 19.6102 11.8582 19.6125 12.1301 19.6149H12.8191C13.091 19.6125 13.3934 19.6102 13.7191 19.6055C14.6496 19.5938 15.5801 19.5727 16.4496 19.5398C18.2777 19.4695 19.5785 19.3594 20.2395 19.1836C21.3621 18.8836 22.2434 18 22.5434 16.875C22.6863 16.3453 22.7871 15.6398 22.8574 14.7937C22.909 14.1797 22.9418 13.5281 22.9605 12.8742C22.9676 12.6469 22.9699 12.4336 22.9723 12.2437C22.9723 12.1758 22.9746 12.1172 22.9746 12.0656V11.9344ZM21.2871 12.0562C21.2871 12.1055 21.2871 12.1594 21.2848 12.2226C21.2824 12.4055 21.2777 12.607 21.273 12.825C21.2566 13.4484 21.2238 14.0719 21.1746 14.6508C21.1113 15.4055 21.0223 16.0242 20.9121 16.4391C20.7668 16.9805 20.3402 17.4094 19.8012 17.5523C19.309 17.6836 18.0691 17.7891 16.384 17.8523C15.5309 17.8852 14.6121 17.9063 13.6957 17.918C13.3746 17.9227 13.077 17.925 12.8098 17.925H12.1395L11.2535 17.918C10.3371 17.9063 9.4207 17.8852 8.56523 17.8523C6.88008 17.7867 5.63789 17.6836 5.14805 17.5523C4.60898 17.407 4.18242 16.9805 4.03711 16.4391C3.92695 16.0242 3.83789 15.4055 3.77461 14.6508C3.72539 14.0719 3.69492 13.4484 3.67617 12.825C3.66914 12.607 3.6668 12.4031 3.66445 12.2226C3.66445 12.1594 3.66211 12.1031 3.66211 12.0562V11.9437C3.66211 11.8945 3.66211 11.8406 3.66445 11.7773C3.6668 11.5945 3.67148 11.393 3.67617 11.175C3.69258 10.5515 3.72539 9.92811 3.77461 9.3492C3.83789 8.59451 3.92695 7.97576 4.03711 7.56092C4.18242 7.01951 4.60898 6.59061 5.14805 6.44764C5.64023 6.31639 6.88008 6.21092 8.56523 6.14763C9.41836 6.11482 10.3371 6.09373 11.2535 6.08201C11.5746 6.07732 11.8723 6.07498 12.1395 6.07498H12.8098L13.6957 6.08201C14.6121 6.09373 15.5285 6.11482 16.384 6.14763C18.0691 6.21326 19.3113 6.31639 19.8012 6.44764C20.3402 6.59295 20.7668 7.01951 20.9121 7.56092C21.0223 7.97576 21.1113 8.59451 21.1746 9.3492C21.2238 9.92811 21.2543 10.5515 21.273 11.175C21.2801 11.393 21.2824 11.5969 21.2848 11.7773C21.2848 11.8406 21.2871 11.8969 21.2871 11.9437V12.0562ZM10.3887 15.1406L15.8262 11.9766L10.3887 8.85936V15.1406Z" fill="white"/>
</svg>
