<svg width="838" height="524" viewBox="0 0 838 524" fill="none" xmlns="http://www.w3.org/2000/svg">
<g clip-path="url(#clip0_1532_20578)">
<path opacity="0.18" d="M47.9575 395.689C34.1565 385.03 22.7725 371.571 14.5556 356.198C6.33864 340.825 1.47531 323.887 0.28599 306.5C-0.903333 289.112 1.60835 271.671 7.65556 255.324C13.7028 238.977 23.1482 224.095 35.3696 211.66C53.6429 193.243 77.2626 181.404 97.5309 165.459C132.581 138.053 158.535 98.4688 197.635 77.5406C244.715 52.3272 301.769 58.9843 353.477 71.5612C405.185 84.138 457.133 102.156 510.157 97.6118C541.736 94.8811 572.139 84.1978 603.419 78.9957C634.699 73.7935 669.011 74.7303 695.185 92.9478C733.287 119.636 742.344 173.571 773.604 208.352C788.746 225.214 808.854 237.213 822.26 255.55C843.825 285.028 843.266 329.296 820.963 358.217C792.396 395.19 740.848 401.05 699.274 421.38C676.133 432.702 655.386 449.025 631.447 458.513C581.136 478.444 524.54 465.469 472.952 449.364C421.364 433.26 368.22 413.886 314.816 421.779C264.943 429.194 219.998 459.948 169.707 464.612C146.366 466.784 119.714 462.619 105.451 442.488C90.1098 420.902 68.7244 411.634 47.9575 395.689Z" fill="#FFB443"/>
<path d="M61.483 281.46C75.0284 266.412 75.0284 266.412 90.3892 248.354L155.762 171.916C170.225 155.353 175.951 147.839 183.691 136.04H245.533C243.765 152.629 242.959 169.306 243.119 185.988V283.872H251.857C261.876 283.778 271.876 282.972 281.78 281.46V336.232C271.985 335.03 262.125 334.431 252.256 334.439H243.219V349.487C242.93 361.871 243.738 374.257 245.633 386.5H183.472C185.182 374.037 185.989 361.468 185.885 348.889V334.14H100.643C81.0531 334.14 72.7144 334.439 61.483 335.335V281.46ZM186.185 249.57C186.185 236.016 186.783 219.473 188 206.219C182.015 214.65 177.447 220.669 169.328 230.894L125.34 284.47H186.185V249.57Z" fill="#FFB443"/>
<path d="M61.483 281.46C75.0284 266.412 75.0284 266.412 90.3892 248.354L155.762 171.916C170.225 155.353 175.951 147.839 183.691 136.04H245.533C243.765 152.629 242.959 169.306 243.119 185.988V283.872H251.857C261.876 283.778 271.876 282.972 281.78 281.46V336.232C271.985 335.03 262.125 334.431 252.256 334.439H243.219V349.487C242.93 361.871 243.738 374.257 245.633 386.5H183.472C185.182 374.037 185.989 361.468 185.885 348.889V334.14H100.643C81.0531 334.14 72.7144 334.439 61.483 335.335V281.46ZM186.185 249.57C186.185 236.016 186.783 219.473 188 206.219C182.015 214.65 177.447 220.669 169.328 230.894L125.34 284.47H186.185V249.57Z" fill="#981921"/>
<path d="M396.707 205.98C402.692 206.976 408.257 210.644 414.262 211.959C419.509 213.155 425.035 212.537 430.221 214.371C439.897 217.799 446.181 229.459 447.557 241.159C448.934 252.859 446.48 264.698 443.687 276.059C436.346 305.996 426.371 335.894 408.417 358.596C407.16 360.17 405.644 361.825 403.789 361.785C402.502 361.608 401.298 361.045 400.338 360.17C396.569 357.592 393.12 354.574 390.064 351.181C385.276 345.421 382.503 337.827 380.089 330.293C373.287 309.086 360.3 295.652 357.886 273.169C355.253 249.59 368.16 201.276 396.707 205.98Z" fill="#FFB443"/>
<path d="M377.396 221.088C374.849 220.629 372.221 221.103 369.995 222.424C367.66 223.858 365.644 225.754 364.069 227.996C362.494 230.238 361.395 232.777 360.838 235.459C359.758 240.833 359.563 246.346 360.26 251.783C361.625 267.737 364.722 283.496 369.496 298.781C370.893 303.206 366.903 313.71 369.796 317.338C372.15 320.288 370.973 338.007 374.045 340.199C382.563 346.338 400.258 342.95 408.776 349.089C419.808 357.061 419.07 336.014 417.314 327.343C415.319 317.677 400.338 319.371 388.867 286.723C373.606 243.272 381.306 221.985 377.396 221.088Z" fill="black" fill-opacity="0.25"/>
<path d="M526.595 280.344C540.141 265.296 540.141 265.296 555.501 247.238L620.874 170.78C631.077 159.543 640.414 147.55 648.803 134.904H710.645C708.876 151.499 708.07 168.183 708.231 184.872V282.696H716.969C726.954 282.588 736.92 281.782 746.793 280.285V335.057C736.999 333.838 727.138 333.232 717.268 333.243H708.231V348.291C707.941 360.676 708.749 373.062 710.645 385.304H648.584C650.286 372.894 651.093 360.378 650.998 347.853V333.103H565.755C546.165 333.103 537.727 333.402 526.595 334.319V280.344ZM651.297 248.454C651.297 234.9 651.895 218.357 653.092 205.123C647.107 213.534 642.559 219.553 634.42 229.798L590.532 283.374H651.377L651.297 248.454Z" fill="#FFB443"/>
<path d="M526.595 280.344C540.141 265.296 540.141 265.296 555.501 247.238L620.874 170.78C631.077 159.543 640.414 147.55 648.803 134.904H710.645C708.876 151.499 708.07 168.183 708.231 184.872V282.696H716.969C726.954 282.588 736.92 281.782 746.793 280.285V335.057C736.999 333.838 727.138 333.232 717.268 333.243H708.231V348.291C707.941 360.676 708.749 373.062 710.645 385.304H648.584C650.286 372.894 651.093 360.378 650.998 347.853V333.103H565.755C546.165 333.103 537.727 333.402 526.595 334.319V280.344ZM651.297 248.454C651.297 234.9 651.895 218.357 653.092 205.123C647.107 213.534 642.559 219.553 634.42 229.798L590.532 283.374H651.377L651.297 248.454Z" fill="#981921"/>
<path d="M331.673 361.685C322.067 352.226 314.587 340.831 309.729 328.26C301.792 306.153 297.815 282.822 297.979 259.337C297.979 227.745 305.52 194.938 316.971 175.983C335.344 145.268 366.664 128.426 404.627 128.426C433.852 128.426 459.447 138.392 477.82 156.33C487.425 165.783 494.906 177.17 499.764 189.736C507.717 211.941 511.688 235.374 511.494 258.958C511.494 290.569 503.973 323.676 492.522 342.671C474.448 372.807 442.829 389.709 404.567 389.709C375.042 389.709 350.046 380.022 331.673 361.685ZM359.602 256.945C359.602 310.76 374.962 338.505 404.786 338.505C434.61 338.505 449.372 311.418 449.372 257.842C449.372 206.378 433.712 179.291 404.487 179.291C376.259 179.291 359.681 207.873 359.681 256.945H359.602Z" fill="#FFB443"/>
<path d="M331.673 361.685C322.067 352.226 314.587 340.831 309.729 328.26C301.792 306.153 297.815 282.822 297.979 259.337C297.979 227.745 305.52 194.938 316.971 175.983C335.344 145.268 366.664 128.426 404.627 128.426C433.852 128.426 459.447 138.392 477.82 156.33C487.425 165.783 494.906 177.17 499.764 189.736C507.717 211.941 511.688 235.374 511.494 258.958C511.494 290.569 503.973 323.676 492.522 342.671C474.448 372.807 442.829 389.709 404.567 389.709C375.042 389.709 350.046 380.022 331.673 361.685ZM359.602 256.945C359.602 310.76 374.962 338.505 404.786 338.505C434.61 338.505 449.372 311.418 449.372 257.842C449.372 206.378 433.712 179.291 404.487 179.291C376.259 179.291 359.681 207.873 359.681 256.945H359.602Z" fill="#981921"/>
<path d="M68.2457 280.344C81.8111 265.296 81.8111 265.296 97.1719 247.238L162.545 170.78C172.748 159.543 182.084 147.55 190.474 134.904H252.316C250.547 151.499 249.741 168.183 249.902 184.872V282.696H258.64C268.658 282.592 278.657 281.787 288.563 280.285V335.057C278.769 333.838 268.908 333.232 259.038 333.243H250.002V348.291C249.712 360.676 250.519 373.062 252.415 385.304H190.254C191.957 372.894 192.764 360.378 192.668 347.853V333.103H107.406C87.8357 333.103 79.477 333.402 68.2457 334.319V280.344ZM192.967 248.454C192.967 234.9 193.566 218.357 194.763 205.123C188.778 213.534 184.23 219.553 176.09 229.798L132.202 283.374H192.967V248.454Z" fill="#E52440"/>
<path d="M338.436 362.801C328.831 353.348 321.351 341.961 316.492 329.396C308.535 307.293 304.537 283.962 304.682 260.473C304.682 228.881 312.223 196.074 323.673 177.099C342.047 146.404 373.367 129.562 411.33 129.562C440.535 129.562 466.15 139.528 484.523 157.466C494.134 166.914 501.615 178.303 506.467 190.872C514.465 213.088 518.464 236.544 518.277 260.154C518.277 291.745 510.756 324.872 499.305 343.866C481.231 373.963 449.592 390.805 411.35 390.805C381.825 390.785 356.829 381.158 338.436 362.801ZM366.524 258.161C366.524 311.976 381.885 339.721 411.709 339.721C441.233 339.721 456.295 312.634 456.295 259.077C456.295 207.594 440.615 180.507 411.409 180.507C383.022 180.427 366.524 209.009 366.524 258.161Z" fill="#E52440"/>
<path d="M460.484 153.42C462.728 155.054 464.439 157.315 465.401 159.918C466.363 162.521 466.533 165.351 465.89 168.05C469.654 168.409 473.309 169.51 476.644 171.289C479.979 173.068 482.928 175.49 485.321 178.414C489.609 184.067 492.203 190.82 492.802 197.888C493.377 204.914 493.223 211.981 492.343 218.975C492.244 221.392 491.745 223.776 490.866 226.031C489.835 227.986 488.382 229.689 486.612 231.016C484.842 232.343 482.8 233.261 480.633 233.705C476.3 234.569 471.861 234.777 467.466 234.322L456.993 233.764C456.648 233.772 456.306 233.697 455.996 233.545C455.786 233.367 455.617 233.147 455.496 232.9C455.376 232.653 455.308 232.384 455.297 232.11C454.579 227.825 453.482 225.951 452.704 221.666C450.76 212.618 446.956 204.073 441.532 196.572C440.571 195.451 439.888 194.119 439.538 192.685C439.417 190.703 439.86 188.727 440.814 186.985C442.232 183.558 443.406 180.034 444.325 176.441C445.171 172.141 446.27 167.895 447.617 163.725C448.988 159.51 451.817 155.92 455.596 153.6" fill="#981921"/>
<path d="M455.596 278.611C455.596 278.611 493.939 281.999 511.454 258.679C518.436 249.431 502.876 205.86 502.876 205.86L485.181 237.512L457.252 243.85L455.596 278.611Z" fill="black" fill-opacity="0.25"/>
<path d="M533.937 280.344C547.482 265.296 547.482 265.296 562.843 247.238L628.216 170.78C642.679 154.237 648.404 146.703 656.144 134.904H717.987C716.235 151.52 715.449 168.224 715.633 184.932V282.756H724.37C734.356 282.648 744.321 281.842 754.194 280.344V335.116C744.4 333.897 734.539 333.292 724.669 333.303H715.633V348.351C715.342 360.736 716.15 373.122 718.046 385.364H655.925C657.631 372.934 658.437 360.398 658.339 347.853V333.103H573.096C553.507 333.103 545.068 333.402 533.937 334.319V280.344ZM658.638 248.454C658.638 234.9 659.237 218.357 660.453 205.123C654.469 213.534 649.9 219.553 641.781 229.798L597.793 283.374H658.638V248.454Z" fill="#E52440"/>
<path d="M365.626 210.444C364.593 210.821 363.592 211.281 362.634 211.819C361.734 212.275 360.944 212.921 360.32 213.713C360.015 214.114 359.819 214.587 359.749 215.086C359.679 215.585 359.738 216.094 359.921 216.563C360.326 217.187 360.91 217.675 361.597 217.963C362.284 218.251 363.041 218.326 363.771 218.178C366.225 217.938 368.499 216.723 370.953 216.304C373.406 215.885 375.72 214.191 373.985 211.58C372.249 208.969 368.08 209.527 365.626 210.444Z" fill="#F7AF87"/>
<path d="M373.446 216.304C369.855 215.367 366.105 216.942 362.873 218.756C362.111 219.126 361.432 219.649 360.878 220.29C360.546 220.555 360.306 220.919 360.195 221.329C360.084 221.739 360.107 222.174 360.261 222.57C360.415 222.966 360.691 223.303 361.05 223.531C361.408 223.759 361.831 223.867 362.255 223.838C362.989 223.912 363.73 223.864 364.449 223.699L369.417 222.842C370.572 222.706 371.697 222.383 372.748 221.885C375.002 220.569 376.917 217.161 373.446 216.304Z" fill="#F7AF87"/>
<path d="M366.524 222.902C365.494 223.294 364.494 223.76 363.532 224.297C362.621 224.781 361.831 225.462 361.218 226.29C360.918 226.69 360.725 227.159 360.655 227.654C360.585 228.149 360.641 228.653 360.819 229.12C361.224 229.744 361.808 230.232 362.495 230.52C363.182 230.808 363.939 230.883 364.669 230.735C367.123 230.496 369.397 229.28 371.85 228.861C374.304 228.443 376.618 226.768 374.883 224.137C373.147 221.507 368.938 221.985 366.524 222.902Z" fill="#F7AF87"/>
<path d="M374.264 227.924C370.574 227.625 367.162 229.918 364.29 232.19C363.592 232.7 363.002 233.344 362.554 234.083C362.28 234.404 362.115 234.804 362.083 235.224C362.05 235.645 362.152 236.065 362.374 236.424C362.596 236.783 362.926 237.062 363.317 237.222C363.708 237.381 364.139 237.413 364.549 237.312C365.278 237.258 365.992 237.083 366.664 236.794L371.392 235.06C372.513 234.724 373.571 234.205 374.524 233.525C376.499 231.891 377.835 228.263 374.264 227.924Z" fill="#F7AF87"/>
<path d="M479.994 171.658C474.178 168.888 467.781 167.555 461.342 167.771C460.253 167.718 459.166 167.895 458.15 168.289C457.653 168.506 457.23 168.863 456.932 169.316C456.635 169.769 456.475 170.298 456.474 170.84C456.668 171.786 457.209 172.625 457.99 173.192C460.346 175.333 462.992 177.131 465.85 178.534C466.713 178.874 467.5 179.382 468.164 180.029C468.49 180.356 468.699 180.78 468.76 181.237C468.821 181.695 468.731 182.159 468.504 182.56C467.845 183.477 466.329 183.517 465.83 184.553C465.172 185.849 466.828 187.124 468.264 187.364C469.791 187.625 471.359 187.48 472.813 186.945C473.83 186.422 474.943 186.11 476.084 186.028C477.212 186.27 478.273 186.753 479.196 187.443C482.348 189.237 492.143 189.297 491.525 183.836C490.946 178.773 484.024 173.75 479.994 171.658Z" fill="#F7AF87"/>
<path d="M431.797 215.607C431.797 215.607 475.905 233.764 480.952 232.828C485.999 231.891 477.84 188.4 477.84 188.4L492.881 181.524C492.881 181.524 526.795 248.693 499.026 258.46C481.853 264.201 463.248 264.004 446.201 257.902L431.797 215.607Z" fill="#FFB443"/>
<path d="M455.257 190.393C455.102 194.295 454.18 198.128 452.544 201.675C450.943 204.317 448.749 206.551 446.135 208.201C443.521 209.851 440.559 210.872 437.483 211.182C435.241 211.326 433.014 211.64 430.82 212.119C429.803 212.327 428.853 212.784 428.056 213.448C427.259 214.112 426.639 214.963 426.252 215.926C424.476 220.231 422.641 224.596 416.915 223.141C416.378 223.022 415.856 222.841 415.359 222.603C413.56 221.758 411.941 220.574 410.591 219.115C408.912 217.416 407.451 215.515 406.243 213.454C405.618 212.501 405.196 211.429 405.006 210.305C404.888 208.925 405.051 207.535 405.485 206.219C407.479 198.246 407.799 189.217 410.631 181.444C413.531 173.564 419.072 166.93 426.311 162.668C433.473 158.503 443.428 158.443 449.512 164.123C452.841 167.453 454.949 171.807 455.497 176.481C455.976 181.111 455.895 185.782 455.257 190.393V190.393Z" fill="#F7AF87"/>
<path d="M406.741 180.427C407.12 176.68 407.1 172.873 407.839 169.186C408.397 165.419 410.286 161.975 413.165 159.479C413.887 158.905 414.695 158.448 415.559 158.124C416.337 157.845 417.155 157.685 417.953 157.466C420.297 156.631 422.534 155.52 424.616 154.157C427.773 152.267 431.226 150.919 434.83 150.171C437.265 149.799 439.727 149.626 442.191 149.653C446.713 149.573 451.254 149.533 455.816 149.533C456.886 149.453 457.961 149.631 458.948 150.051C460.032 150.72 460.823 151.774 461.162 153.001C462.03 155.752 462.03 158.702 461.162 161.452C460.279 164.173 459.109 166.792 457.671 169.265C456.97 170.824 455.982 172.237 454.759 173.431C453.701 171.597 452.764 169.704 451.806 167.791C448.754 170.96 443.946 171.777 439.557 171.438C435.169 171.099 430.86 169.963 426.471 169.903C425.427 169.793 424.372 169.889 423.366 170.187C422.359 170.484 421.421 170.977 420.606 171.637C419.623 172.782 418.938 174.151 418.611 175.624C417.688 178.905 416.936 182.231 416.357 185.589C415.838 184.613 413.743 182.062 412.646 182.101C412.33 182.132 412.023 182.227 411.745 182.382C411.467 182.536 411.224 182.746 411.03 182.998C409.215 184.992 410.113 192.306 411.788 194.419C412.124 194.739 412.378 195.136 412.527 195.575C412.56 195.869 412.535 196.166 412.453 196.45C412.371 196.734 412.233 196.999 412.048 197.229C411.587 197.773 411.002 198.198 410.342 198.469C409.683 198.739 408.968 198.848 408.257 198.784C406.502 198.784 406.163 195.436 405.983 194.2C405.245 189.596 406.302 184.952 406.741 180.427Z" fill="#606060"/>
<path d="M413.743 188.838C413.497 188.323 413.387 187.754 413.424 187.184C413.465 186.613 413.405 186.039 413.245 185.49C413.062 184.986 412.7 184.567 412.227 184.314C412.09 184.275 411.945 184.275 411.808 184.314C411.692 184.363 411.59 184.439 411.51 184.536C411.43 184.634 411.375 184.749 411.35 184.872C410.652 187.057 410.729 189.415 411.569 191.549C411.68 191.932 411.875 192.285 412.141 192.581C412.407 192.878 412.737 193.111 413.105 193.263C413.43 193.328 413.766 193.311 414.083 193.214C414.4 193.116 414.688 192.942 414.92 192.705C415.234 192.373 415.449 191.96 415.541 191.513C415.632 191.066 415.597 190.602 415.439 190.174C415.1 189.377 414.162 189.556 413.743 188.838Z" fill="url(#paint0_linear_1532_20578)"/>
<path d="M430.82 212.078C429.803 212.287 428.853 212.743 428.056 213.408C427.259 214.072 426.639 214.923 426.251 215.885C424.476 220.191 422.641 224.556 416.915 223.101C416.378 222.981 415.856 222.801 415.359 222.562C414.875 222.149 414.481 221.64 414.202 221.068C413.946 220.395 413.829 219.678 413.856 218.959C413.883 218.239 414.055 217.533 414.362 216.882C415.053 215.207 416.217 213.769 417.712 212.743C419.206 211.717 420.967 211.146 422.78 211.102C424.304 211.172 425.819 211.372 427.309 211.7C428.226 211.819 429.304 211.7 430.141 211.799C430.385 211.843 430.616 211.938 430.82 212.078V212.078Z" fill="url(#paint1_linear_1532_20578)"/>
</g>
<defs>
<linearGradient id="paint0_linear_1532_20578" x1="1384.78" y1="1341.78" x2="1398.02" y2="1339.38" gradientUnits="userSpaceOnUse">
<stop stop-opacity="0"/>
<stop offset="0.99"/>
</linearGradient>
<linearGradient id="paint1_linear_1532_20578" x1="3931.59" y1="1911.01" x2="4121.69" y2="2126.19" gradientUnits="userSpaceOnUse">
<stop stop-opacity="0"/>
<stop offset="0.99"/>
</linearGradient>
<clipPath id="clip0_1532_20578">
<rect width="838" height="524" fill="white"/>
</clipPath>
</defs>
</svg>
