<svg width="673" height="507" viewBox="0 0 673 507" fill="none" xmlns="http://www.w3.org/2000/svg">
<g clip-path="url(#clip0_1532_20784)">
<path opacity="0.18" d="M124.932 493.082C101.759 489.275 79.9466 479.605 61.5696 464.991C39.8954 447.966 16.3476 425.025 17.0715 396.551C17.8379 366.332 29.1222 337.262 41.5987 310.065C58.0779 273.334 81.0722 234.602 74.9829 193.7C68.9789 153.436 77.0695 103.851 98.6159 69.2059C132.682 14.6412 192.296 1.40441 251.911 0.12755C291.299 -0.68113 331.837 1.65979 367.734 17.876C405.462 34.9008 435.652 66.3542 474.189 80.9956C499.738 90.6146 527.672 92.5299 552.668 103.341C584.136 117.003 608.407 144.073 624.163 174.547C639.918 205.022 647.838 238.858 653.757 272.44C663.721 329.26 640.046 400.126 605.938 446.647C583.071 477.717 545.003 513.512 505.742 505.851C306.714 467.885 344.995 528.579 124.932 493.082Z" fill="#FFB443"/>
<path opacity="0.31" d="M599.891 197.361C599.891 202.726 597.761 207.873 593.969 211.671C590.177 215.469 585.033 217.609 579.664 217.62H527.587C522.211 217.62 517.056 215.486 513.254 211.686C509.453 207.887 507.318 202.734 507.318 197.361C507.318 191.987 509.453 186.834 513.254 183.035C517.056 179.236 522.211 177.101 527.587 177.101H535.081C535.039 176.549 535.039 175.994 535.081 175.441C535.039 172.999 535.479 170.572 536.375 168.299C537.272 166.026 538.607 163.952 540.306 162.196C542.004 160.439 544.032 159.034 546.273 158.06C548.515 157.087 550.926 156.564 553.37 156.522C555.814 156.48 558.242 156.92 560.515 157.816C562.789 158.712 564.864 160.047 566.622 161.744C568.379 163.442 569.785 165.469 570.759 167.709C571.733 169.95 572.256 172.36 572.298 174.803V175.441C572.298 175.994 572.298 176.548 572.298 177.101H579.75C585.125 177.101 590.281 179.236 594.082 183.035C597.883 186.834 600.019 191.987 600.019 197.361H599.891Z" fill="#FFB443"/>
<path d="M593.589 195.445C593.589 200.811 591.459 205.958 587.667 209.756C583.875 213.554 578.731 215.694 573.362 215.705H521.327C518.665 215.705 516.03 215.181 513.57 214.163C511.111 213.145 508.877 211.652 506.995 209.771C505.113 207.89 503.62 205.656 502.601 203.198C501.582 200.74 501.058 198.106 501.058 195.445C501.058 192.785 501.582 190.15 502.601 187.692C503.62 185.234 505.113 183.001 506.995 181.12C508.877 179.238 511.111 177.746 513.57 176.728C516.03 175.71 518.665 175.186 521.327 175.186H528.779C528.779 174.632 528.779 174.079 528.779 173.568C528.658 171.048 529.051 168.53 529.933 166.166C530.814 163.801 532.167 161.641 533.909 159.815C535.651 157.988 537.745 156.534 540.066 155.541C542.386 154.548 544.884 154.036 547.409 154.036C549.933 154.036 552.431 154.548 554.751 155.541C557.072 156.534 559.166 157.988 560.908 159.815C562.65 161.641 564.003 163.801 564.884 166.166C565.766 168.53 566.159 171.048 566.038 173.568V173.568C566.038 174.122 566.038 174.675 566.038 175.228H573.49C578.832 175.262 583.944 177.407 587.71 181.195C591.475 184.982 593.589 190.105 593.589 195.445V195.445Z" fill="white"/>
<path d="M111.689 243.158C111.668 242.37 111.808 241.586 112.101 240.854C112.394 240.122 112.833 239.458 113.392 238.902C115.946 236.286 117.793 233.064 118.757 229.538C119.313 227.29 119.152 224.925 118.297 222.773C117.442 220.621 115.935 218.79 113.988 217.535C111.678 215.752 109.025 214.463 106.196 213.747C104.813 213.326 103.625 212.427 102.845 211.21C102.065 209.994 101.743 208.54 101.937 207.108C102.15 205.235 102.363 203.362 102.533 201.489C102.675 199.806 103.473 198.247 104.756 197.147C106.039 196.048 107.704 195.498 109.389 195.616C112.092 195.534 114.753 194.927 117.224 193.828C120.008 192.773 122.273 190.68 123.544 187.988C124.815 185.297 124.992 182.218 124.037 179.4C123.3 177.002 122.404 174.656 121.355 172.377C120.752 171.073 120.614 169.602 120.963 168.209C121.311 166.816 122.126 165.583 123.271 164.716C124.676 163.567 126.166 162.588 127.529 161.396C128.76 160.45 130.281 159.958 131.833 160.004C133.385 160.051 134.874 160.633 136.045 161.651C138.082 163.659 140.48 165.262 143.114 166.376C145.562 167.501 148.325 167.738 150.928 167.047C153.532 166.356 155.813 164.779 157.379 162.588C159.166 160.094 160.52 157.317 161.382 154.373C161.816 152.955 162.75 151.742 164.01 150.959C165.271 150.176 166.773 149.877 168.237 150.117C170.111 150.415 171.942 150.67 173.816 150.883C175.28 151.05 176.631 151.75 177.613 152.849C178.595 153.947 179.138 155.369 179.138 156.842C179.272 160.394 180.204 163.87 181.864 167.014C183.103 169.06 184.936 170.682 187.119 171.662C189.301 172.643 191.731 172.937 194.085 172.505C196.757 171.97 199.339 171.052 201.749 169.781C203.172 168.98 204.848 168.755 206.431 169.151C208.015 169.546 209.387 170.533 210.266 171.909C211.33 173.526 212.736 174.931 213.8 176.548C214.598 177.678 214.972 179.053 214.855 180.431C214.738 181.809 214.138 183.102 213.161 184.082C211.078 186.244 209.43 188.787 208.307 191.573C207.118 194.301 207.029 197.384 208.061 200.176C209.093 202.968 211.164 205.254 213.843 206.554C215.885 207.706 218.04 208.647 220.273 209.363C221.551 209.772 222.66 210.589 223.429 211.689C224.198 212.788 224.585 214.109 224.531 215.45C224.531 217.706 224.105 219.961 223.764 222.175C223.585 223.641 222.867 224.989 221.75 225.956C220.633 226.924 219.196 227.442 217.718 227.41C214.418 227.474 211.174 228.274 208.222 229.751C206.009 230.838 204.218 232.624 203.124 234.833C202.031 237.041 201.698 239.549 202.175 241.966C202.59 244.798 203.498 247.535 204.858 250.053C205.289 250.74 205.581 251.506 205.716 252.306C205.85 253.106 205.826 253.924 205.644 254.715C205.462 255.506 205.126 256.253 204.655 256.913C204.184 257.574 203.587 258.135 202.899 258.565L199.067 261.545C197.881 262.598 196.335 263.155 194.749 263.1C193.163 263.044 191.66 262.381 190.55 261.247C188.277 259.117 185.598 257.467 182.673 256.395C180.261 255.461 177.604 255.373 175.136 256.146C172.668 256.919 170.536 258.508 169.089 260.651C167.304 263.146 165.951 265.923 165.086 268.865C164.692 270.229 163.823 271.407 162.636 272.188C161.45 272.968 160.023 273.299 158.614 273.122L152.312 272.185C151.009 271.919 149.83 271.234 148.953 270.235C148.077 269.236 147.551 267.978 147.457 266.652C147.378 263.265 146.595 259.931 145.158 256.863C144.066 254.413 142.141 252.428 139.725 251.259C137.309 250.091 134.558 249.814 131.958 250.478C129.37 251.198 126.848 252.138 124.421 253.288C123.174 253.913 121.756 254.11 120.385 253.848C119.015 253.587 117.77 252.881 116.841 251.84C115.314 250.186 113.892 248.437 112.583 246.605C112.016 245.489 111.559 244.32 111.22 243.115L111.689 243.158ZM163.383 191.487C160.725 191.471 158.09 191.979 155.63 192.982C153.169 193.986 150.931 195.465 149.043 197.336C147.156 199.207 145.657 201.431 144.632 203.882C143.607 206.333 143.077 208.963 143.072 211.619C143.133 216.863 145.21 221.882 148.873 225.638C152.535 229.393 157.501 231.597 162.744 231.794C165.463 231.954 168.187 231.563 170.751 230.643C173.314 229.724 175.666 228.295 177.662 226.443C179.659 224.591 181.26 222.355 182.369 219.868C183.478 217.381 184.072 214.696 184.115 211.974C184.158 209.252 183.65 206.549 182.62 204.028C181.59 201.508 180.061 199.222 178.124 197.307C176.187 195.393 173.882 193.891 171.349 192.891C168.816 191.89 166.106 191.413 163.383 191.487V191.487Z" fill="#E52440"/>
<path d="M264.941 184.677C264.941 185.443 264.941 186.209 264.941 186.976C264.959 187.977 264.623 188.953 263.992 189.732C263.362 190.51 262.476 191.042 261.492 191.232L257.234 192.296C256.158 192.601 255.009 192.511 253.993 192.042C252.978 191.574 252.164 190.758 251.698 189.742C250.859 188.016 249.83 186.389 248.632 184.89C247.923 183.911 247.018 183.09 245.975 182.479C244.932 181.867 243.773 181.48 242.572 181.339C241.371 181.199 240.154 181.31 238.998 181.665C237.843 182.02 236.773 182.611 235.858 183.4C234.487 184.488 233.192 185.668 231.983 186.933C231.272 187.77 230.29 188.33 229.209 188.517C228.127 188.704 227.014 188.505 226.064 187.955L222.615 185.912C222.033 185.627 221.514 185.229 221.089 184.741C220.664 184.253 220.341 183.685 220.138 183.07C219.936 182.456 219.859 181.807 219.911 181.162C219.963 180.517 220.144 179.888 220.443 179.314C221.113 177.392 221.514 175.387 221.635 173.356C221.814 171.144 221.122 168.949 219.707 167.24C218.291 165.531 216.263 164.442 214.056 164.205C211.927 163.864 209.797 164.205 207.541 163.779C206.461 163.782 205.421 163.375 204.63 162.64C203.84 161.905 203.358 160.897 203.282 159.821C203.099 158.639 202.828 157.473 202.473 156.331C202.144 155.216 202.231 154.02 202.716 152.963C203.201 151.907 204.053 151.062 205.113 150.585C207.151 149.527 209.053 148.227 210.777 146.712C212.265 145.357 213.204 143.504 213.416 141.504C213.628 139.503 213.098 137.494 211.927 135.858C210.91 134.301 209.709 132.872 208.35 131.602C207.779 131.218 207.295 130.719 206.927 130.138C206.559 129.557 206.315 128.907 206.211 128.227C206.107 127.547 206.145 126.853 206.322 126.189C206.5 125.524 206.813 124.904 207.243 124.367C207.839 123.388 208.392 122.366 209.031 121.387C209.599 120.374 210.524 119.608 211.626 119.239C212.728 118.869 213.928 118.922 214.992 119.387C217.375 120.376 219.958 120.784 222.529 120.579C224.285 120.488 225.962 119.821 227.301 118.683C228.64 117.544 229.567 115.997 229.939 114.279C230.464 112.006 230.693 109.674 230.62 107.342C230.553 106.274 230.831 105.214 231.414 104.317C231.997 103.42 232.853 102.735 233.856 102.362C235.432 101.894 237.007 101.553 238.583 101.213C239.13 101.03 239.709 100.961 240.285 101.008C240.86 101.056 241.419 101.221 241.929 101.491C242.439 101.762 242.888 102.133 243.25 102.583C243.612 103.033 243.878 103.551 244.033 104.107C245.108 106.587 246.757 108.775 248.845 110.491C250.476 111.705 252.475 112.321 254.506 112.236C256.538 112.151 258.478 111.369 260.002 110.023C261.229 109.046 262.368 107.963 263.408 106.789C264.144 105.949 265.148 105.389 266.25 105.203C267.351 105.017 268.483 105.216 269.455 105.767L273.415 108.108C274.366 108.67 275.08 109.558 275.425 110.607C275.77 111.657 275.721 112.795 275.288 113.811C274.399 116.029 273.965 118.403 274.011 120.791C273.995 122.876 274.744 124.895 276.118 126.464C277.491 128.033 279.393 129.043 281.463 129.304C283.395 129.581 285.345 129.709 287.297 129.687C288.486 129.567 289.675 129.919 290.607 130.668C291.539 131.416 292.139 132.501 292.279 133.688C292.619 135.05 293.003 136.369 293.301 137.944C293.577 138.977 293.454 140.075 292.957 141.021C292.46 141.968 291.625 142.692 290.618 143.051C288.361 144.048 286.332 145.497 284.657 147.308C283.431 148.537 282.636 150.13 282.39 151.848C282.144 153.567 282.462 155.318 283.294 156.842C284.496 158.791 285.926 160.591 287.552 162.204C288.541 162.95 289.2 164.052 289.391 165.275C289.582 166.498 289.289 167.748 288.574 168.759L286.658 171.951C286.116 173.058 285.159 173.906 283.995 174.313C282.832 174.719 281.554 174.651 280.441 174.122C277.627 172.941 274.509 172.687 271.541 173.398C270.036 173.842 268.683 174.693 267.631 175.857C266.578 177.021 265.869 178.453 265.58 179.995C265.266 181.528 265.039 183.077 264.899 184.635L264.941 184.677ZM247.908 131.645C245.916 131.622 243.94 131.996 242.094 132.743C240.248 133.491 238.568 134.598 237.154 136C235.74 137.402 234.618 139.071 233.854 140.91C233.091 142.748 232.701 144.721 232.707 146.712C232.597 148.772 232.909 150.833 233.623 152.769C234.336 154.705 235.437 156.475 236.857 157.972C238.277 159.469 239.988 160.661 241.884 161.476C243.781 162.29 245.823 162.71 247.887 162.71C249.951 162.71 251.993 162.29 253.89 161.476C255.786 160.661 257.497 159.469 258.917 157.972C260.337 156.475 261.438 154.705 262.151 152.769C262.865 150.833 263.177 148.772 263.067 146.712C263.079 144.716 262.691 142.737 261.927 140.893C261.163 139.048 260.038 137.375 258.618 135.971C257.198 134.568 255.511 133.462 253.657 132.719C251.804 131.976 249.82 131.611 247.823 131.645H247.908Z" fill="#E52440"/>
<path d="M226.021 398.977L275.374 402.808C277.706 402.791 280.005 403.362 282.059 404.468C283.531 405.639 284.599 407.242 285.111 409.052C285.623 410.862 285.553 412.787 284.912 414.555C283.554 418.06 281.219 421.103 278.184 423.323C260.257 437.751 235.091 438.475 211.926 438.347L102.917 437.751C98.7031 438.025 94.4794 437.402 90.5253 435.921C88.5734 435.124 86.916 433.743 85.7801 431.968C84.6442 430.193 84.0855 428.109 84.1806 426.004C84.6402 424.168 85.4958 422.455 86.6874 420.985C87.879 419.515 89.3778 418.322 91.0788 417.492C100.817 412.161 111.482 408.738 122.504 407.405C139.111 404.425 155.747 401.588 172.41 398.892" fill="url(#paint0_linear_1532_20784)"/>
<path d="M519.283 393.827L568.636 397.615C570.974 397.592 573.278 398.179 575.321 399.318C576.785 400.486 577.846 402.082 578.358 403.883C578.87 405.684 578.805 407.6 578.174 409.362C576.81 412.877 574.459 415.922 571.403 418.13C553.519 432.772 528.353 433.325 505.231 433.155L396.179 432.516C391.966 432.774 387.745 432.15 383.787 430.686C381.804 429.907 380.115 428.529 378.954 426.743C377.794 424.957 377.22 422.854 377.315 420.727C377.761 418.885 378.611 417.166 379.804 415.693C380.997 414.221 382.503 413.033 384.213 412.214C394.016 406.91 404.738 403.516 415.809 402.212C432.416 399.233 449.051 396.395 465.715 393.7" fill="url(#paint1_linear_1532_20784)"/>
<path d="M487.687 403.702C487.785 406.259 487.304 408.805 486.282 411.15C485.047 413.321 483.174 415.06 480.917 416.13C476.057 418.646 470.415 419.195 465.161 417.662C464.839 417.648 464.524 417.566 464.235 417.422C463.947 417.278 463.692 417.075 463.487 416.826C463.283 416.578 463.133 416.288 463.047 415.978C462.961 415.667 462.942 415.342 462.99 415.024C463.441 412.112 464.959 409.473 467.248 407.618C469.512 405.793 471.443 403.59 472.954 401.106C475.338 396.254 473.55 383.272 482.748 385.358C490.285 386.975 487.9 398.169 487.687 403.702Z" fill="#CE9E95"/>
<path d="M488.965 412.214C488.965 412.214 490.242 415.406 488.667 417.279C487.091 419.152 470.569 429.409 459.455 421.152C448.342 412.895 474.529 411.831 474.529 411.831L488.965 412.214Z" fill="#FFB443"/>
<path d="M488.326 404.893C487.819 404.649 487.241 404.591 486.696 404.731C486.15 404.872 485.672 405.2 485.345 405.66C484.261 406.899 482.879 407.842 481.33 408.401C479.78 408.959 478.114 409.114 476.488 408.852C472.869 408 471.421 403.829 469.633 403.787C467.844 403.744 458.221 411.959 457.667 415.449C457.113 418.939 461.925 421.535 467.461 421.876C472.997 422.216 485.175 418.471 487.517 415.619C488.507 414.029 489.097 412.223 489.238 410.355C489.379 408.488 489.066 406.614 488.326 404.893V404.893Z" fill="white"/>
<path d="M519.198 408.597C519.295 411.153 518.815 413.699 517.793 416.045C516.558 418.216 514.685 419.954 512.427 421.025C507.573 423.555 501.931 424.119 496.672 422.599C495.95 422.459 495.301 422.067 494.841 421.493C494.578 421.012 494.46 420.465 494.5 419.918C494.952 417.007 496.469 414.367 498.759 412.512C501.023 410.687 502.953 408.484 504.465 406C506.849 401.148 505.061 388.167 514.258 390.252C521.795 391.997 519.411 403.191 519.198 408.597Z" fill="#CE9E95"/>
<path d="M520.476 417.407C520.476 417.407 521.753 420.599 520.178 422.471C518.602 424.344 502.08 434.602 490.966 426.345C479.852 418.087 505.998 417.023 505.998 417.023L520.476 417.407Z" fill="#FFB443"/>
<path d="M519.837 409.958C519.333 409.695 518.75 409.628 518.199 409.77C517.649 409.911 517.17 410.251 516.856 410.725C515.763 411.95 514.378 412.881 512.83 413.431C511.283 413.981 509.621 414.134 507.999 413.874C504.38 413.023 502.932 408.852 501.143 408.809C499.355 408.767 489.731 416.981 489.178 420.471C488.624 423.961 493.436 426.558 498.972 426.898C504.507 427.239 516.686 423.493 519.028 420.642C520.017 419.059 520.608 417.26 520.749 415.4C520.889 413.539 520.577 411.672 519.837 409.958V409.958Z" fill="white"/>
<path d="M525.755 273.036C525.755 273.036 527.501 367.353 520.475 398.849L502.761 401.02L490.455 271.759L525.755 273.036Z" fill="#473F47"/>
<path d="M470.953 262.736C470.953 262.736 462.436 313.811 472.741 395.36L490.455 397.531L502.761 268.355L470.953 262.736Z" fill="#473F47"/>
<path d="M450.386 222.132C450.386 225.537 451.706 228.516 454.644 229.495C454.887 229.605 455.145 229.677 455.41 229.708C460.861 230.815 468.185 226.686 472.996 223.068C475.06 221.565 477.036 219.945 478.915 218.216V181.783L452.429 208.895C451.041 213.169 450.351 217.639 450.386 222.132V222.132Z" fill="#FFB443"/>
<path d="M472.571 222.941C472.571 224.643 472.571 226.388 472.571 228.091C472.571 237.497 474.742 247.201 471.932 256.437C471.031 258.407 470.763 260.608 471.165 262.736C471.986 264.434 473.392 265.779 475.126 266.524C483.704 270.545 492.934 272.996 502.378 273.76C509.404 274.739 519.411 276.824 525.926 273.036C528.399 271.198 530.051 268.462 530.525 265.418C532.994 255.665 534.422 245.678 534.783 235.624C534.783 234.347 534.783 233.028 535.039 231.708C535.592 222.728 535.762 213.662 535.592 204.681C535.592 198.127 534.953 191.061 530.695 186.124C523.81 179.608 515.109 175.334 505.742 173.866C503.026 173.307 500.243 173.149 497.481 173.398C493.588 174.022 489.83 175.302 486.367 177.186C482.261 178.588 478.77 181.371 476.488 185.06C474.194 189.746 472.574 194.733 471.676 199.872C470.931 204.718 470.845 209.644 471.421 214.513C471.676 216.897 472.273 219.28 472.528 221.621C472.571 222.089 472.571 222.515 472.571 222.941Z" fill="#FFB443"/>
<path opacity="0.1" d="M511.022 276.228C513.748 277.037 520.05 274.568 522.136 274.185C523.371 274.185 524.521 273.334 525.756 273.036C532.015 271.461 532.739 253.968 533.335 249.244C535.489 236.725 536.911 224.091 537.593 211.406C537.878 206.579 537.316 201.739 535.933 197.105C535.242 194.783 534.048 192.641 532.437 190.832C530.825 189.022 528.835 187.59 526.607 186.635C518.644 183.783 516.26 208.98 515.153 214.173L509.191 242.647C508.341 246.155 507.786 249.729 507.531 253.33C507.672 257.71 508.58 262.031 510.213 266.098C510.937 268.61 508.936 273.334 509.915 275.164C509.993 275.421 510.136 275.654 510.33 275.84C510.524 276.026 510.762 276.16 511.022 276.228Z" fill="#020202"/>
<path d="M491.818 165.907C492.811 167.002 494.178 167.685 495.65 167.823C496.883 167.929 498.122 167.929 499.355 167.823H500.079C500.232 167.779 500.394 167.779 500.547 167.823C500.691 167.973 500.781 168.168 500.802 168.376C501.015 170.84 501.015 173.318 500.802 175.782V175.782V177.101C500.673 177.56 500.673 178.046 500.802 178.506C501.058 179.059 501.697 179.272 502.293 179.485C503.375 179.858 504.512 180.045 505.657 180.038C508.089 179.814 510.429 178.995 512.47 177.654C512.284 173.386 512.512 169.11 513.151 164.886C514.342 159.565 514.885 154.12 514.769 148.67C514.629 146.529 513.842 144.48 512.512 142.796C511.453 141.77 510.188 140.982 508.8 140.483C507.413 139.984 505.935 139.786 504.464 139.902C500.573 139.823 496.743 140.873 493.436 142.924C492.201 143.732 492.073 144.797 491.775 146.159C491.392 148.287 491.051 150.415 490.796 152.628C490.54 154.841 490.37 157.523 490.327 160.034C490.086 162.108 490.617 164.198 491.818 165.907Z" fill="#CE9E95"/>
<path d="M494.373 135.773C493.62 135.903 492.932 136.278 492.415 136.84C491.899 137.402 491.584 138.12 491.52 138.88C491.493 139.648 491.726 140.402 492.183 141.02C492.639 141.638 493.29 142.084 494.032 142.285C493.919 143.156 494.142 144.037 494.656 144.749C495.17 145.461 495.937 145.95 496.8 146.116C498.543 146.37 500.324 146.15 501.952 145.478C502.84 146.578 504.092 147.325 505.482 147.582C506.872 147.84 508.309 147.591 509.532 146.882V147.861C510.343 149.561 510.848 151.391 511.022 153.266L510.554 156.884C510.661 155.95 511.132 155.095 511.866 154.505C512.599 153.916 513.535 153.639 514.471 153.735C514.732 153.707 514.996 153.734 515.245 153.815C515.494 153.896 515.724 154.028 515.919 154.203C516.081 154.461 516.183 154.752 516.217 155.054C516.244 155.617 516.134 156.178 515.897 156.69C515.66 157.201 515.302 157.648 514.855 157.991C514.216 158.416 513.407 158.714 513.109 159.438C512.898 160.132 512.898 160.872 513.109 161.566C513.281 162.381 513.192 163.23 512.853 163.992L514.046 163.694C514.398 163.506 514.726 163.278 515.025 163.013C515.35 162.654 515.591 162.227 515.73 161.763C515.87 161.299 515.906 160.811 515.834 160.332C516.469 160.334 517.095 160.184 517.659 159.893C518.223 159.603 518.71 159.182 519.077 158.664C519.444 158.147 519.682 157.549 519.77 156.921C519.857 156.292 519.793 155.652 519.581 155.054C519.896 155.012 520.199 154.908 520.473 154.748C520.746 154.588 520.985 154.375 521.176 154.121C521.366 153.868 521.504 153.578 521.581 153.271C521.658 152.963 521.673 152.643 521.625 152.33C521.374 151.063 520.785 149.887 519.922 148.925C520.92 148.914 521.873 148.51 522.574 147.801C523.276 147.091 523.669 146.134 523.669 145.137C523.583 144.558 523.583 143.97 523.669 143.392C523.917 142.735 524.262 142.118 524.691 141.562C525.071 140.832 525.206 139.999 525.076 139.186C524.945 138.374 524.557 137.625 523.967 137.05C523.116 136.284 521.923 135.901 521.284 134.965C520.942 134.092 520.727 133.175 520.646 132.241C519.879 128.793 516.047 127.176 512.683 126.069C511.779 125.702 510.804 125.542 509.83 125.601C509.347 125.639 508.889 125.834 508.527 126.157C508.166 126.48 507.92 126.913 507.829 127.389C506.913 126.618 505.784 126.143 504.592 126.027C503.443 126.027 502.165 127.091 502.463 128.197C501.995 126.325 498.844 131.177 498.673 131.304C496.587 132.581 493.393 131.304 494.373 135.773Z" fill="#473F47"/>
<path d="M499.355 167.907H500.079C500.232 167.863 500.394 167.863 500.547 167.907C500.691 168.058 500.781 168.253 500.802 168.461C501.015 170.925 501.015 173.402 500.802 175.866V175.866C503.002 175.19 504.899 173.773 506.172 171.856C507.445 169.94 508.016 167.642 507.786 165.354C505.044 166.479 502.189 167.307 499.27 167.822L499.355 167.907Z" fill="#AF807A"/>
<path d="M428.073 212.725C431.555 217.692 435.878 222.013 440.847 225.494C444.414 227.897 448.529 229.361 452.813 229.75C453.375 229.808 453.944 229.736 454.474 229.537C455.387 229.268 456.192 228.717 456.773 227.963C458.561 225.835 459.633 223.2 459.839 220.429C460.137 213.151 452.259 208.937 452.259 208.937C452.259 208.937 434.332 203.234 432.203 204.17C431.053 204.638 429.946 207.192 429.18 209.363C428.413 211.534 428.073 212.725 428.073 212.725Z" fill="#FFB443"/>
<path opacity="0.1" d="M428.073 212.725C431.555 217.692 435.878 222.014 440.847 225.494C444.414 227.897 448.529 229.361 452.813 229.75C453.375 229.808 453.944 229.736 454.473 229.537C454.716 229.647 454.975 229.719 455.24 229.75C460.69 230.857 468.014 226.728 472.826 223.111L471.123 212.215C467.861 215.641 464.065 218.516 459.881 220.727C456.936 222.303 453.569 222.914 450.258 222.472C449.36 222.342 448.485 222.084 447.66 221.706C440.942 218.431 434.697 214.265 429.094 209.32C428.498 211.151 428.073 212.725 428.073 212.725Z" fill="#020202"/>
<path d="M546.749 224.6C549.515 230.858 550.713 237.695 550.24 244.519C549.048 252.691 543.598 259.544 538.36 265.8C534.102 266.439 528.864 266.354 527.374 262.438C527.031 261.177 526.944 259.86 527.118 258.565L527.714 250.052C528.202 246.302 528 242.494 527.118 238.816C525.491 234.816 523.359 231.04 520.774 227.58C517.042 221.649 514.806 214.901 514.259 207.916C513.79 201.361 518.772 180.165 528.438 186.635C532.441 189.274 536.018 200.17 538.147 204.553C541.383 211.108 544.25 217.79 546.749 224.6Z" fill="#FFB443"/>
<path d="M524.904 271.759C524.689 272.073 524.571 272.443 524.563 272.823C524.564 272.925 524.589 273.025 524.637 273.115C524.684 273.205 524.752 273.282 524.836 273.34C524.919 273.398 525.015 273.436 525.116 273.45C525.216 273.463 525.319 273.453 525.415 273.419C526.394 276.441 524.35 279.633 524.35 282.825C524.308 283.107 524.308 283.394 524.35 283.677C524.506 284.023 524.757 284.318 525.074 284.528C525.61 284.866 526.224 285.064 526.857 285.101C527.49 285.138 528.122 285.014 528.694 284.741C529.839 284.193 530.867 283.427 531.717 282.485C533.548 280.804 534.937 278.699 535.762 276.356C536.067 275.271 536.267 274.159 536.359 273.036L537.381 264.524C531.291 262.608 527.8 266.737 524.904 271.759Z" fill="#CE9E95"/>
<path d="M429.095 197.148C428.918 196.578 428.595 196.064 428.158 195.658C428.058 195.555 427.939 195.473 427.808 195.417C427.676 195.361 427.534 195.333 427.391 195.333C427.248 195.333 427.107 195.361 426.975 195.417C426.843 195.473 426.724 195.555 426.625 195.658C426.456 195.959 426.354 196.293 426.327 196.637C426.162 197.007 425.892 197.32 425.552 197.539C425.212 197.758 424.815 197.874 424.411 197.871C423.6 197.82 422.806 197.618 422.069 197.276C419.932 196.5 417.757 195.832 415.553 195.275C415.042 195.106 414.49 195.106 413.978 195.275C413.71 195.415 413.474 195.608 413.284 195.842C413.093 196.076 412.953 196.347 412.871 196.637C412.413 197.979 412.299 199.413 412.537 200.811C412.774 202.208 413.358 203.524 414.233 204.639C416.028 206.858 418.468 208.465 421.217 209.236C423.997 209.981 426.856 210.395 429.733 210.47C430.443 210.57 431.166 210.466 431.82 210.172C435.226 208.214 430.074 199.404 429.095 197.148Z" fill="#CE9E95"/>
<path d="M224.233 260.736C224.233 260.736 224.233 300.148 221.422 307.299C214.141 327.303 204.39 335.475 204.39 335.475C200.557 349.974 196.753 364.488 192.978 379.016C196.682 383.272 202.857 387.528 207.03 383.825C208.119 382.733 208.974 381.429 209.542 379.995L229.598 336.326C233.938 327.835 237.172 318.824 239.222 309.512V308.703V308.49C239.222 307.937 239.52 306.107 239.775 303.468C240.414 295.764 239.136 259.331 235.517 249.755C235.517 249.755 222.018 254.394 218.143 249.116L224.233 260.736Z" fill="#FFB443"/>
<path d="M224.233 260.735C224.233 260.735 224.233 300.148 221.422 307.298C214.141 327.303 204.39 335.475 204.39 335.475C200.557 349.974 196.753 364.488 192.978 379.016C196.682 383.272 202.857 387.528 207.03 383.825C208.119 382.733 208.974 381.429 209.542 379.995L229.598 336.326C233.938 327.835 237.172 318.824 239.222 309.512V308.703V308.49C239.222 307.937 239.52 306.107 239.775 303.468C240.414 295.764 239.264 266.269 235.858 256.65C233.698 257.031 231.479 256.877 229.392 256.202C227.306 255.526 225.418 254.35 223.892 252.776L224.233 260.735Z" fill="#DB9A39"/>
<path d="M190.635 255.075C187.059 260.331 185.697 266.784 186.846 273.036C188.208 282.442 194.936 290.061 196.299 299.34C196.559 301.729 196.019 304.136 194.763 306.185C193.507 308.234 191.606 309.808 189.358 310.661L163.128 324.196C158.583 326.066 154.637 329.142 151.716 333.091C150.366 335.094 149.843 337.541 150.256 339.92C150.668 342.3 151.985 344.428 153.93 345.86L204.432 335.603C214.178 329.685 221.396 320.379 224.701 309.469C226.617 302.106 224.02 252.777 224.02 252.777C215.844 244.945 213.034 247.882 207.966 241.923C201.877 246.52 195.192 248.904 190.635 255.075Z" fill="#FFB443"/>
<path d="M149.927 353.946C149.927 356.798 150.481 360.203 148.309 362.118C148.221 362.229 148.112 362.319 147.987 362.385C147.863 362.451 147.726 362.491 147.585 362.501C147.17 362.493 146.773 362.325 146.478 362.033C141.496 357.777 140.176 350.669 139.75 344.114C139.447 342.466 139.734 340.764 140.559 339.305C141.708 338.111 143.193 337.295 144.817 336.964C147.404 336.173 149.912 335.147 152.312 333.899C151.588 334.282 151.843 338.539 151.843 339.262C152.166 340.859 152.323 342.485 152.312 344.114C151.839 345.563 151.284 346.984 150.651 348.371C150.116 350.179 149.872 352.061 149.927 353.946V353.946Z" fill="#EC9C7D"/>
<path d="M205.156 394.423C206.492 396.459 207.202 398.841 207.2 401.275C207.167 401.718 206.987 402.138 206.689 402.467C205.795 403.318 204.347 402.722 203.368 402.041C199.607 399.044 196.382 395.432 193.829 391.358C193.419 390.885 193.14 390.313 193.02 389.698C192.995 388.866 193.234 388.047 193.701 387.358L196.597 382.037C196.675 381.87 196.792 381.724 196.938 381.612C197.131 381.547 197.34 381.547 197.534 381.612C199.066 381.916 200.563 382.373 202.005 382.974C203.964 383.782 204.006 383.867 203.793 385.868C203.502 388.789 203.971 391.736 205.156 394.423Z" fill="#EC9C7D"/>
<path d="M190.635 394.423C190.553 394.701 190.553 394.997 190.635 395.275C190.635 395.658 191.104 395.913 191.402 396.126C193.089 397.48 194.631 399.006 196.001 400.68C199.071 403.749 202.358 406.594 205.837 409.192C206.494 409.871 207.282 410.41 208.152 410.776C209.023 411.141 209.96 411.327 210.904 411.321C211.115 411.363 211.332 411.363 211.543 411.321C211.773 411.078 211.909 410.761 211.926 410.427C212.253 407.514 211.767 404.568 210.521 401.914C210.13 400.869 209.553 399.902 208.818 399.063C208.433 398.648 207.964 398.32 207.443 398.1C206.922 397.88 206.36 397.773 205.795 397.786C204.56 397.786 203.453 398.807 202.175 398.807C200.907 398.597 199.774 397.893 199.024 396.849C198.036 395.731 197.139 394.536 196.341 393.274C195.745 392.338 195.192 390.635 194.212 390.039C191.955 388.422 191.061 392.976 190.635 394.423Z" fill="#FFB443"/>
<path d="M137.025 340.454C136.848 340.553 136.695 340.688 136.576 340.851C136.457 341.015 136.374 341.201 136.334 341.399C136.293 341.597 136.296 341.802 136.342 341.999C136.388 342.195 136.475 342.38 136.599 342.54C137.318 344.884 137.803 347.293 138.047 349.733C138.958 354.632 140.239 359.455 141.879 364.161C142.078 365.225 142.485 366.238 143.077 367.144C143.669 368.05 144.434 368.83 145.328 369.439C145.58 369.499 145.843 369.499 146.095 369.439C146.46 369.34 146.787 369.132 147.032 368.843C149.25 366.282 150.723 363.161 151.29 359.82C151.546 358.556 151.546 357.253 151.29 355.989C151.19 355.356 150.955 354.751 150.603 354.216C150.25 353.68 149.788 353.225 149.246 352.882C148.011 352.201 146.393 352.372 145.201 351.52C144.656 351.041 144.219 350.452 143.918 349.792C143.617 349.131 143.459 348.415 143.455 347.69C143.244 346.01 143.158 344.317 143.199 342.625C143.199 341.305 143.753 339.348 143.199 338.369C142.049 335.602 138.302 339.348 137.025 340.454Z" fill="#FFB443"/>
<path d="M239.222 159.736C238.502 165.65 236.804 171.403 234.197 176.76C234.033 177.312 233.688 177.792 233.218 178.122C232.767 178.336 232.267 178.425 231.77 178.378L211.927 178.122C210.351 178.122 208.392 177.867 207.668 176.377C207.03 177.697 205.199 177.782 203.751 177.612C197.408 176.881 191.256 174.975 185.611 171.993C187.766 164.282 190.528 156.754 193.872 149.478C195.015 146.907 196.584 144.547 198.513 142.498C201.123 140.025 204.25 138.164 207.668 137.05C216.185 133.985 228.321 132.283 234.836 140.157C236.851 142.955 238.279 146.133 239.033 149.498C239.787 152.863 239.851 156.345 239.222 159.736Z" fill="#F89659"/>
<path d="M238.625 187.912C246.588 196.126 254.764 204.213 262.556 212.598C264.998 210.859 267.56 209.295 270.221 207.916C273.798 206.469 297.09 194.679 306.075 192.849C310.888 191.867 315.871 192.131 320.553 193.615C321.327 193.792 322 194.266 322.427 194.934C323.065 196.211 321.66 197.616 320.298 197.914C318.859 198.021 317.433 198.263 316.039 198.637C314.903 199.311 313.929 200.226 313.186 201.319C311.65 203.044 309.768 204.428 307.663 205.381C305.558 206.334 303.276 206.835 300.965 206.852C299.049 206.852 297.09 205.915 295.217 206.043C292.63 206.769 290.252 208.096 288.276 209.916C282.016 214.172 276.438 219.578 270.093 223.834C268.863 224.821 267.395 225.467 265.835 225.707C264.361 225.699 262.907 225.365 261.577 224.728C252.184 221.626 243.501 216.693 236.028 210.214C235.413 209.66 234.908 208.996 234.537 208.256C234.297 207.485 234.182 206.68 234.197 205.873C234.197 202.553 234.197 199.191 234.197 195.871C234.198 194.396 234.533 192.941 235.176 191.615C235.531 190.939 236.099 190.398 236.791 190.075C237.483 189.752 238.262 189.665 239.009 189.827" fill="#FDB9A9"/>
<path d="M253.784 213.917C254.548 214.541 255.393 215.057 256.297 215.45C258.301 216.099 260.423 216.303 262.514 216.045C265.689 215.974 268.864 216.159 272.01 216.599C272.809 216.657 273.583 216.905 274.266 217.322C274.597 217.535 274.849 217.849 274.987 218.217C275.126 218.585 275.141 218.988 275.033 219.365C274.819 219.771 274.512 220.121 274.139 220.387C271.78 222.678 268.832 224.269 265.622 224.984C261.627 225.08 257.714 223.837 254.508 221.451L247.525 217.195C246.473 216.691 245.554 215.947 244.842 215.024C243.863 213.492 243.65 209.278 246.035 208.852C248.419 208.427 252.209 212.853 253.784 213.917Z" fill="#DE9F93"/>
<path d="M234.537 182.379C232.025 180.463 229.087 181.783 226.021 181.911C222.955 182.038 219.165 182.166 215.759 181.911C209.244 181.698 198.726 181.017 192.722 188.125C185.568 196.637 191.189 210.683 194.894 219.621C196.201 221.954 197.122 224.484 197.619 227.112C198.002 230.022 198.002 232.969 197.619 235.879C196.784 241.561 194.545 246.944 191.104 251.542C190.31 252.298 189.68 253.21 189.255 254.221C188.83 255.232 188.619 256.32 188.634 257.416C188.923 258.362 189.416 259.234 190.078 259.969C190.74 260.704 191.555 261.286 192.466 261.672C199.274 265.647 206.946 267.911 214.822 268.269C218.497 268.211 222.154 267.74 225.723 266.865C228.959 266.354 232.494 267.46 234.878 264.439C235.62 263.375 236.141 262.174 236.411 260.906C239.136 250.648 239.094 239.625 243.182 229.921C245.353 224.643 249.015 218.259 248.675 212.385C248.434 210.119 247.83 207.906 246.886 205.83C244.842 200.68 242.628 195.616 240.158 190.678C238.932 187.525 237.011 184.688 234.537 182.379Z" fill="white"/>
<path d="M226.49 184.507C226.49 184.507 224.36 189.87 210.181 181.953C210.181 181.953 214.013 181.613 212.948 173.739C212.646 171.028 211.697 168.43 210.181 166.162C210.351 166.337 210.565 166.462 210.801 166.525C211.036 166.588 211.284 166.587 211.519 166.522C211.754 166.457 211.967 166.33 212.136 166.154C212.305 165.979 212.424 165.761 212.48 165.524C212.739 166.303 213.067 167.058 213.459 167.78C215.674 172.036 220.528 177.101 225.936 175.654C225.397 176.681 225.074 177.807 224.986 178.963C224.898 180.12 225.047 181.282 225.425 182.379C225.696 183.127 226.053 183.841 226.49 184.507V184.507Z" fill="#FDB9A9"/>
<path d="M225.425 182.378H224.701C219.378 182.932 213.119 167.396 213.119 167.396H213.459C215.674 171.653 220.528 176.718 225.936 175.27C225.342 176.348 224.989 177.541 224.9 178.768C224.812 179.995 224.991 181.227 225.425 182.378V182.378Z" fill="#DE9F93"/>
<path d="M221.38 176.25C229.13 176.931 233.899 169.653 234.75 160.161C234.75 159.111 234.75 158.047 234.75 156.969C234.769 153.873 234.411 150.786 233.686 147.776C230.279 133.177 209.542 139.008 209.542 139.008C193.361 146.329 207.668 175.143 221.38 176.25Z" fill="#FDB9A9"/>
<path d="M226.915 138.71C226.668 139.852 226.341 140.976 225.936 142.072C225.283 144.37 224.501 146.629 223.594 148.839C222.023 153.271 219.028 157.057 215.078 159.608C214.158 160.259 213.054 160.602 211.927 160.587C210.862 160.374 210.947 159.565 210.138 158.799C209.865 158.539 209.52 158.367 209.147 158.307C208.775 158.246 208.393 158.299 208.052 158.459C207.771 158.681 207.548 158.967 207.4 159.292C207.252 159.618 207.183 159.974 207.2 160.331C207.215 161.187 207.446 162.025 207.87 162.769C208.294 163.513 208.898 164.138 209.627 164.587C210.316 164.889 210.972 165.259 211.586 165.694C212.31 166.333 212.395 167.269 212.778 168.078L214.056 171.099C214.528 172.051 214.762 173.102 214.737 174.164C214.625 174.776 214.38 175.356 214.02 175.864C213.659 176.371 213.192 176.793 212.65 177.101C209.828 178.544 206.593 178.965 203.495 178.292C201.292 178.17 199.154 177.496 197.278 176.335C196.239 175.494 195.257 174.583 194.34 173.611C192.844 172.512 191.212 171.611 189.486 170.929C191.269 169.7 192.812 168.157 194.042 166.375C195.063 164.693 195.706 162.81 195.926 160.855C196.147 158.9 195.94 156.92 195.32 155.054C194.638 152.67 195.32 139.987 204.262 135.773C210.009 133.256 216.416 132.659 222.529 134.07C223.662 134.245 224.724 134.731 225.595 135.475C226.087 135.845 226.47 136.341 226.702 136.91C226.934 137.48 227.008 138.102 226.915 138.71V138.71Z" fill="#F89659"/>
<path d="M213.119 227.41L207.2 240.476C199.42 230.523 193.44 219.288 189.528 207.278C185.27 192.083 192.807 188.252 192.807 188.252C198.598 186.124 202.516 194.339 208.179 210.981C211.288 220.131 213.119 227.41 213.119 227.41Z" fill="#FDB9A9"/>
<path d="M207.2 240.476C207.2 240.476 206.944 229.836 212.139 227.707C217.334 225.579 253.614 219.876 253.614 219.876L257.021 223.834C257.021 223.834 221.38 244.392 207.2 240.476Z" fill="#FDB9A9"/>
<path d="M266.048 268.524L265.58 268.056C267.368 270.057 268.561 271.461 268.901 271.887C268.007 270.738 267.028 269.588 266.048 268.524Z" fill="#DC9BD5"/>
<path d="M257.532 219.323C260.641 218.778 263.787 218.465 266.942 218.386C268.643 218.314 270.345 218.457 272.01 218.812C274.092 219.365 276.106 220.15 278.014 221.153C278.525 221.408 279.163 221.749 279.248 222.344C279.258 222.619 279.186 222.891 279.042 223.126C278.898 223.36 278.689 223.547 278.439 223.664C277.933 223.878 277.405 224.035 276.864 224.132C275.714 224.515 274.692 225.281 273.585 225.749C271.797 226.473 269.753 226.388 267.922 227.026C266.772 227.452 265.707 228.175 264.558 228.644C262.147 229.58 259.474 229.58 257.063 228.644C256.235 228.318 255.425 227.949 254.636 227.537C253.879 227.091 253.081 226.72 252.251 226.43C251.698 226.43 251.315 226.43 250.889 225.92C250.515 225.273 250.318 224.539 250.318 223.792C250.318 223.044 250.515 222.31 250.889 221.663C251.952 220.705 253.332 220.175 254.764 220.174L257.532 219.323Z" fill="#FDB9A9"/>
<path d="M187.229 193.445C186.314 196.211 185.687 199.063 185.355 201.957L184.802 205.873C184.558 206.678 184.558 207.537 184.802 208.341C185.483 209.703 188.08 209.15 189.358 209.363L196.341 210.469L210.266 212.512C210.564 210.138 210.564 207.736 210.266 205.362C209.84 203.149 208.86 201.106 208.307 198.85C207.753 196.594 207.668 195.147 207.242 193.487C206.257 189.735 204.018 186.431 200.898 184.124C196.001 180.548 188.847 189.188 187.357 193.104L187.229 193.445Z" fill="white"/>
<path d="M427.221 128.069H278.439V261.714H427.221V128.069Z" fill="white"/>
<path d="M316.928 216.45L298.703 216.533L298.826 243.602L317.051 243.519L316.928 216.45Z" fill="#E52440"/>
<path d="M339.283 188.257L321.058 188.34L321.308 243.457L339.533 243.375L339.283 188.257Z" fill="#FFB443"/>
<path d="M361.864 209.734L343.639 209.817L343.791 243.398L362.016 243.315L361.864 209.734Z" fill="#E52440"/>
<path d="M384.126 170.604L365.901 170.687L366.231 243.297L384.456 243.214L384.126 170.604Z" fill="#FFB443"/>
<path d="M339.283 188.257L321.058 188.34L321.308 243.457L339.533 243.375L339.283 188.257Z" fill="url(#paint2_linear_1532_20784)"/>
<path d="M384.126 170.604L365.901 170.687L366.231 243.297L384.456 243.214L384.126 170.604Z" fill="url(#paint3_linear_1532_20784)"/>
<path d="M406.517 150.243L388.292 150.325L388.714 243.195L406.939 243.112L406.517 150.243Z" fill="#E52440"/>
<path d="M366.499 375.483L329.836 374.292L334.392 400.425L360.367 401.233L366.499 375.483Z" fill="#FFB443"/>
<path d="M366.499 375.483L329.836 374.292L334.392 400.425L360.367 401.233L366.499 375.483Z" fill="url(#paint4_linear_1532_20784)"/>
<path d="M326.898 311.214C325.966 313.044 325.512 315.079 325.578 317.131C324.744 326.378 325.551 335.701 327.962 344.668C332.221 357.65 341.503 368.12 350.744 378.165C350.02 377.058 352.106 371.184 352.362 369.652C352.915 366.886 353.512 364.162 354.065 361.438C354.658 357.051 354.265 352.587 352.915 348.371C350.615 338.767 346.078 329.842 339.672 322.323C335.978 318.018 331.675 314.276 326.898 311.214V311.214Z" fill="#FFB443"/>
<path d="M326.898 311.214C325.966 313.044 325.512 315.079 325.578 317.131C324.744 326.378 325.551 335.701 327.962 344.668C332.221 357.65 341.503 368.12 350.744 378.165C350.02 377.058 352.106 371.184 352.362 369.652C352.915 366.886 353.512 364.162 354.065 361.438C354.658 357.051 354.265 352.587 352.915 348.371C350.615 338.767 346.078 329.842 339.672 322.323C335.978 318.018 331.675 314.276 326.898 311.214V311.214Z" fill="url(#paint5_linear_1532_20784)"/>
<path d="M367.862 342.54C371.258 335.803 373.749 328.648 375.271 321.259C376.03 317.546 376.045 313.719 375.314 310C374.583 306.281 373.121 302.745 371.013 299.595L353.256 326.494C349.593 331.503 346.721 337.043 344.74 342.923C343.335 348.918 343.204 355.14 344.355 361.189C345.507 367.237 347.915 372.977 351.425 378.037C355.385 374.632 357.259 366.843 359.43 362.033L367.862 342.54Z" fill="#FFB443"/>
<path d="M367.862 342.54C371.258 335.803 373.749 328.648 375.271 321.259C376.03 317.546 376.045 313.719 375.314 310C374.583 306.281 373.121 302.745 371.013 299.595L353.256 326.494C349.593 331.503 346.721 337.043 344.74 342.923C343.335 348.918 343.204 355.14 344.355 361.189C345.507 367.237 347.915 372.977 351.425 378.037C355.385 374.632 357.259 366.843 359.43 362.033L367.862 342.54Z" fill="url(#paint6_linear_1532_20784)"/>
<path d="M368.182 366.533L328.899 365.265C325.608 365.158 322.855 367.729 322.749 371.007C322.643 374.284 325.225 377.027 328.516 377.133L367.798 378.402C371.089 378.508 373.842 375.937 373.948 372.66C374.054 369.382 371.472 366.639 368.182 366.533Z" fill="#FFB443"/>
<path d="M330.304 183.4C331.974 183.4 333.328 182.047 333.328 180.378C333.328 178.709 331.974 177.356 330.304 177.356C328.635 177.356 327.281 178.709 327.281 180.378C327.281 182.047 328.635 183.4 330.304 183.4Z" fill="#FFB443"/>
<path d="M304.883 212.215C306.553 212.215 307.906 210.862 307.906 209.193C307.906 207.524 306.553 206.171 304.883 206.171C303.213 206.171 301.86 207.524 301.86 209.193C301.86 210.862 303.213 212.215 304.883 212.215Z" fill="#FFB443"/>
<path d="M352.192 206.511C353.861 206.511 355.215 205.158 355.215 203.489C355.215 201.82 353.861 200.467 352.192 200.467C350.522 200.467 349.168 201.82 349.168 203.489C349.168 205.158 350.522 206.511 352.192 206.511Z" fill="#FFB443"/>
<path d="M373.908 167.354C375.578 167.354 376.932 166.001 376.932 164.332C376.932 162.664 375.578 161.311 373.908 161.311C372.239 161.311 370.885 162.664 370.885 164.332C370.885 166.001 372.239 167.354 373.908 167.354Z" fill="#FFB443"/>
<path d="M397.626 148.414C399.296 148.414 400.65 147.061 400.65 145.392C400.65 143.723 399.296 142.37 397.626 142.37C395.957 142.37 394.603 143.723 394.603 145.392C394.603 147.061 395.957 148.414 397.626 148.414Z" fill="#FFB443"/>
<path d="M305.564 209.789L304.159 208.554L330.305 178.974L351.979 202.894L373.312 163.609L397.031 144.626L398.18 146.116L374.632 164.928L352.362 206.171L330.305 181.783L305.564 209.789Z" fill="#FFB443"/>
<path opacity="0.31" d="M393.155 85.6777C393.155 89.8018 391.519 93.7576 388.606 96.6778C385.692 99.598 381.739 101.244 377.613 101.255H337.628C333.495 101.255 329.531 99.6142 326.608 96.6928C323.685 93.7714 322.043 89.8092 322.043 85.6777C322.043 81.5462 323.685 77.584 326.608 74.6626C329.531 71.7412 333.495 70.1 337.628 70.1H343.377C343.355 69.6888 343.355 69.2768 343.377 68.8657C343.309 65.0728 344.752 61.4084 347.387 58.6786C350.022 55.9488 353.634 54.3771 357.429 54.3094C361.224 54.2417 364.89 55.6834 367.621 58.3175C370.352 60.9515 371.924 64.5621 371.992 68.3549V68.8657C372.015 69.2768 372.015 69.6888 371.992 70.1H377.741C379.785 70.1 381.81 70.5032 383.698 71.2866C385.587 72.0699 387.302 73.2181 388.746 74.6651C390.19 76.1122 391.334 77.8298 392.112 79.7196C392.891 81.6093 393.289 83.634 393.283 85.6777H393.155Z" fill="#FFB443"/>
<path d="M388.344 84.188C388.344 88.3194 386.702 92.2817 383.779 95.2031C380.856 98.1245 376.892 99.7657 372.759 99.7657H332.817C330.704 99.8762 328.592 99.5557 326.607 98.8238C324.623 98.0919 322.808 96.9639 321.274 95.5085C319.74 94.0531 318.518 92.3007 317.683 90.3582C316.848 88.4156 316.417 86.3235 316.417 84.2093C316.417 82.095 316.848 80.0029 317.683 78.0603C318.518 76.1178 319.74 74.3654 321.274 72.91C322.808 71.4546 324.623 70.3266 326.607 69.5947C328.592 68.8628 330.704 68.5423 332.817 68.6528H338.523C338.523 68.2272 338.523 67.8016 338.523 67.3759C338.523 63.5831 340.03 59.9456 342.713 57.2637C345.397 54.5818 349.036 53.0751 352.83 53.0751C356.625 53.0751 360.264 54.5818 362.947 57.2637C365.63 59.9456 367.138 63.5831 367.138 67.3759V67.3759C367.16 67.7871 367.16 68.1991 367.138 68.6102H372.844C376.959 68.6439 380.895 70.2985 383.797 73.2151C386.699 76.1316 388.333 80.0746 388.344 84.188V84.188Z" fill="white"/>
<path d="M514.769 152.585C514.953 152.488 515.158 152.438 515.366 152.438C515.573 152.438 515.778 152.488 515.962 152.585C516.129 152.748 516.248 152.954 516.302 153.181C516.733 154.179 516.765 155.303 516.393 156.324C516.021 157.345 515.273 158.184 514.301 158.671C513.995 158.895 513.648 159.054 513.279 159.14C513.098 159.189 512.907 159.187 512.726 159.134C512.546 159.082 512.384 158.98 512.257 158.842C512.019 158.573 511.897 158.221 511.916 157.863C511.681 156.787 511.839 155.663 512.363 154.695C512.886 153.726 513.74 152.978 514.769 152.585V152.585Z" fill="#CE9E95"/>
<path d="M479.043 77.7609C479.05 81.2063 478.123 84.5893 476.361 87.5502V87.8055L467.844 103.383H449.96L442.721 86.5712C441.407 83.9893 440.695 81.1436 440.638 78.2475C440.581 75.3514 441.181 72.4799 442.392 69.8483C443.603 67.2167 445.394 64.8933 447.631 63.052C449.869 61.2107 452.494 59.8993 455.31 59.2162C458.126 58.5331 461.061 58.4959 463.893 59.1075C466.726 59.719 469.384 60.9634 471.667 62.7474C473.95 64.5315 475.8 66.8088 477.077 69.4089C478.354 72.0089 479.027 74.8643 479.043 77.7609V77.7609Z" fill="#FFB443"/>
<path d="M479.043 77.7606C479.05 81.2061 478.123 84.589 476.361 87.5499V87.8053L467.844 103.383H449.96L442.721 86.571C440.601 82.4428 440.046 77.688 441.157 73.1828C442.268 68.6777 444.971 64.7257 448.767 62.0552C452.004 59.7679 455.875 58.5478 459.839 58.5651C462.361 58.5651 464.858 59.0616 467.188 60.0263C469.518 60.991 471.635 62.4049 473.418 64.1874C475.202 65.9698 476.616 68.0859 477.581 70.4148C478.547 72.7437 479.043 75.2398 479.043 77.7606V77.7606Z" fill="url(#paint7_linear_1532_20784)"/>
<path d="M469.505 77.378C469.079 85.8904 461.585 103.383 461.585 103.383H449.96L442.721 86.5714C440.601 82.4432 440.046 77.6884 441.157 73.1832C442.268 68.6781 444.971 64.7261 448.767 62.0556C451.166 61.3054 453.707 61.1315 456.185 61.5481C458.663 61.9647 461.008 62.96 463.029 64.4531C465.05 65.9462 466.689 67.8949 467.815 70.1408C468.94 72.3866 469.519 74.8662 469.505 77.378V77.378Z" fill="url(#paint8_linear_1532_20784)"/>
<path d="M449.96 103.341H467.546V109.087C467.546 111.344 466.649 113.51 465.052 115.106C463.455 116.702 461.288 117.599 459.03 117.599H458.178C455.919 117.599 453.753 116.702 452.156 115.106C450.559 113.51 449.662 111.344 449.662 109.087V103.341H449.96Z" fill="#FFB443"/>
<path d="M455.069 104.022C454.907 104.034 454.745 103.984 454.619 103.881C454.492 103.778 454.409 103.63 454.388 103.469C451.535 88.5294 451.109 86.231 451.024 85.8905C450.999 85.7161 451.043 85.5387 451.146 85.3959C451.25 85.253 451.404 85.1557 451.578 85.1244H453.409C454.431 85.1244 454.771 85.1244 454.942 84.3583C454.988 83.981 455.17 83.6334 455.453 83.3794C455.706 83.1999 456.017 83.1221 456.325 83.1615C456.632 83.2009 456.914 83.3547 457.113 83.5922C457.386 83.9047 457.563 84.2887 457.624 84.6988L458.135 86.6992C458.135 86.6992 458.135 86.6992 458.135 86.4013C458.213 85.9573 458.387 85.5358 458.646 85.167C458.829 84.9696 459.054 84.8169 459.305 84.7209C459.556 84.6249 459.826 84.5882 460.094 84.6137C460.566 84.6492 461.007 84.8621 461.329 85.2095C461.329 84.4434 461.755 83.6773 462.01 82.9537C462.266 82.2302 462.862 82.0599 462.99 82.1451C463.215 82.1515 463.431 82.2354 463.602 82.3827C463.773 82.5301 463.887 82.7318 463.926 82.9537C464.092 83.5511 464.192 84.1648 464.225 84.7839C464.19 84.9667 464.19 85.1544 464.225 85.3372H464.736H465.289H466.481C466.58 85.3403 466.677 85.3647 466.765 85.4088C466.853 85.4529 466.931 85.5156 466.992 85.5926C467.031 85.6797 467.051 85.7739 467.051 85.8693C467.051 85.9646 467.031 86.0588 466.992 86.1459L463.543 103.767C463.54 103.865 463.516 103.962 463.472 104.051C463.428 104.139 463.365 104.217 463.288 104.279C463.211 104.341 463.122 104.385 463.026 104.409C462.93 104.432 462.83 104.435 462.733 104.416C462.636 104.397 462.544 104.358 462.464 104.3C462.384 104.242 462.317 104.168 462.268 104.082C462.22 103.995 462.191 103.9 462.183 103.801C462.175 103.703 462.189 103.604 462.223 103.511L465.502 86.6992H464.821C464.31 86.6992 463.415 86.9546 462.947 86.231C462.754 85.8786 462.652 85.4837 462.649 85.0819V85.0819C462.569 85.4278 462.47 85.7689 462.351 86.1033C462.095 87.0823 461.457 87.2951 460.988 87.21C460.806 87.1636 460.636 87.0789 460.489 86.9615C460.342 86.844 460.222 86.6966 460.137 86.529C460.137 86.529 460.137 86.2736 459.796 86.2736C459.751 86.2474 459.699 86.2337 459.647 86.2337C459.595 86.2337 459.543 86.2474 459.498 86.2736C459.372 86.4679 459.285 86.6847 459.242 86.912C459.166 87.2968 459.037 87.6692 458.859 88.0186C458.694 88.2707 458.448 88.4588 458.162 88.5517C457.875 88.6447 457.565 88.6368 457.284 88.5294C456.931 88.2916 456.686 87.9247 456.602 87.5079L456.049 85.2095C456.067 85.1254 456.067 85.0383 456.049 84.9542C455.864 85.531 455.479 86.0231 454.964 86.3428C454.45 86.6625 453.838 86.7888 453.238 86.6992H452.344C452.983 90.1893 455.538 103.511 455.538 103.511C455.556 103.595 455.558 103.682 455.542 103.767C455.526 103.851 455.493 103.932 455.446 104.003C455.398 104.075 455.336 104.136 455.264 104.183C455.192 104.23 455.111 104.262 455.027 104.277L455.069 104.022Z" fill="#FFB443"/>
</g>
<defs>
<linearGradient id="paint0_linear_1532_20784" x1="195.618" y1="271.802" x2="171.666" y2="595.573" gradientUnits="userSpaceOnUse">
<stop offset="0.01"/>
<stop offset="0.08" stop-opacity="0.69"/>
<stop offset="0.21" stop-opacity="0.32"/>
<stop offset="1" stop-opacity="0"/>
</linearGradient>
<linearGradient id="paint1_linear_1532_20784" x1="25559.7" y1="3464.51" x2="25515.8" y2="6483.69" gradientUnits="userSpaceOnUse">
<stop offset="0.01"/>
<stop offset="0.08" stop-opacity="0.69"/>
<stop offset="0.21" stop-opacity="0.32"/>
<stop offset="1" stop-opacity="0"/>
</linearGradient>
<linearGradient id="paint2_linear_1532_20784" x1="3899.63" y1="-13567.5" x2="6724.78" y2="-11924.8" gradientUnits="userSpaceOnUse">
<stop offset="0.01"/>
<stop offset="0.08" stop-opacity="0.69"/>
<stop offset="0.21" stop-opacity="0.32"/>
<stop offset="1" stop-opacity="0"/>
</linearGradient>
<linearGradient id="paint3_linear_1532_20784" x1="4082.4" y1="-18746.4" x2="7250.26" y2="-17350.7" gradientUnits="userSpaceOnUse">
<stop offset="0.01"/>
<stop offset="0.08" stop-opacity="0.69"/>
<stop offset="0.21" stop-opacity="0.32"/>
<stop offset="1" stop-opacity="0"/>
</linearGradient>
<linearGradient id="paint4_linear_1532_20784" x1="-800.191" y1="10568.1" x2="-577.167" y2="11341.9" gradientUnits="userSpaceOnUse">
<stop offset="0.01"/>
<stop offset="0.08" stop-opacity="0.69"/>
<stop offset="0.21" stop-opacity="0.32"/>
<stop offset="1" stop-opacity="0"/>
</linearGradient>
<linearGradient id="paint5_linear_1532_20784" x1="381.857" y1="269.944" x2="275.777" y2="284.303" gradientUnits="userSpaceOnUse">
<stop offset="0.01"/>
<stop offset="0.13" stop-opacity="0.69"/>
<stop offset="0.25" stop-opacity="0.32"/>
<stop offset="1" stop-opacity="0"/>
</linearGradient>
<linearGradient id="paint6_linear_1532_20784" x1="-67397.1" y1="90920.3" x2="-65819.6" y2="91253.5" gradientUnits="userSpaceOnUse">
<stop offset="0.01"/>
<stop offset="0.13" stop-opacity="0.69"/>
<stop offset="0.25" stop-opacity="0.32"/>
<stop offset="1" stop-opacity="0"/>
</linearGradient>
<linearGradient id="paint7_linear_1532_20784" x1="458.476" y1="119.259" x2="460.603" y2="52.1382" gradientUnits="userSpaceOnUse">
<stop offset="0.01" stop-color="white"/>
<stop offset="1" stop-color="white" stop-opacity="0"/>
</linearGradient>
<linearGradient id="paint8_linear_1532_20784" x1="3955.73" y1="1681.34" x2="3672.22" y2="1509.21" gradientUnits="userSpaceOnUse">
<stop offset="0.01" stop-color="white"/>
<stop offset="1" stop-color="white" stop-opacity="0"/>
</linearGradient>
<clipPath id="clip0_1532_20784">
<rect width="673" height="507" fill="white"/>
</clipPath>
</defs>
</svg>
