<svg width="25" height="24" viewBox="0 0 25 24" fill="none" xmlns="http://www.w3.org/2000/svg">
<path d="M23.4722 0.416493C23.2519 0.273516 23.0056 0.175342 22.7474 0.12758C22.4891 0.0798172 22.224 0.0834024 21.9671 0.13813C21.7103 0.192858 21.4667 0.297657 21.2504 0.446538C21.034 0.59542 20.8491 0.785469 20.7062 1.00583L9.49957 18.2798L4.03424 13.2265C3.84142 13.0482 3.61536 12.9096 3.36899 12.8187C3.12261 12.7278 2.86074 12.6863 2.59832 12.6965C2.06834 12.7173 1.56832 12.9477 1.20824 13.3372C0.848166 13.7266 0.657537 14.2431 0.678291 14.7731C0.699045 15.3031 0.929482 15.8031 1.31891 16.1632L8.49491 22.7978C8.49491 22.7978 8.70091 22.9752 8.79624 23.0372C9.01656 23.1802 9.26292 23.2785 9.52124 23.3263C9.77956 23.3741 10.0448 23.3706 10.3017 23.3158C10.5586 23.2611 10.8023 23.1563 11.0187 23.0073C11.2351 22.8584 11.42 22.6683 11.5629 22.4478L24.0616 3.18249C24.2045 2.9622 24.3027 2.71589 24.3505 2.45764C24.3983 2.19939 24.3947 1.93426 24.3399 1.6774C24.2852 1.42054 24.1804 1.17698 24.0315 0.960626C23.8826 0.744275 23.6926 0.559377 23.4722 0.416493Z" fill="#FFB443"/>
</svg>
