<svg width="175" height="132" viewBox="0 0 175 132" fill="none" xmlns="http://www.w3.org/2000/svg">
<path d="M129.214 82.7377L115.878 92.6154C115.594 92.8252 115.239 92.9138 114.89 92.8617C114.541 92.8096 114.227 92.6211 114.016 92.3375L108.485 84.8565C108.381 84.7171 108.307 84.5574 108.268 84.3876C108.203 84.1324 108.216 83.8637 108.304 83.6155C108.392 83.3674 108.551 83.151 108.763 82.9939L122.103 73.1163C122.261 73.0002 122.442 72.9202 122.634 72.882C122.826 72.8437 123.024 72.8481 123.214 72.8948C123.513 72.9712 123.778 73.1473 123.964 73.3941L129.496 80.8794C129.599 81.02 129.674 81.1795 129.716 81.349C129.758 81.5184 129.766 81.6945 129.74 81.8671C129.713 82.0396 129.654 82.2054 129.563 82.3548C129.473 82.5041 129.354 82.6343 129.214 82.7377Z" fill="#FFB443"/>
<path d="M123.214 72.8948L120.745 83.9925L108.268 84.3876C108.203 84.1324 108.216 83.8637 108.304 83.6155C108.392 83.3674 108.551 83.151 108.763 82.9939L122.103 73.1163C122.261 73.0002 122.442 72.9202 122.634 72.882C122.826 72.8437 123.024 72.8481 123.214 72.8948Z" fill="url(#paint0_linear_1532_21915)"/>
<path d="M116.268 84.1358L116.676 92.0205L129.214 82.7377L121.626 80.024L120.745 83.9925L116.268 84.1358Z" fill="url(#paint1_linear_1532_21915)"/>
<path d="M131.695 19.5903L116.797 40.8348L113.934 32.8849C104.046 35.5133 94.3115 38.6891 84.7754 42.3978C73.7819 46.7787 63.1961 52.2234 60.1549 57.8504C53.1831 70.776 69.5606 76.4898 69.5606 76.4898C66.4448 76.7391 63.3115 76.6635 60.2113 76.264C52.0421 75.1916 41.8988 71.2318 44.8359 57.8504C47.157 47.278 62.2677 38.386 77.1138 32.0513H77.1355C79.3047 31.1308 81.4739 30.2668 83.5824 29.4462L83.6431 29.4201C91.5853 26.381 99.6853 23.7721 107.908 21.6049L106.481 14.6493L131.695 19.5903Z" fill="#FFB443"/>
<path d="M60.1549 57.8504C53.183 70.776 69.5606 76.4898 69.5606 76.4898C66.4447 76.7392 63.3114 76.6635 60.2113 76.2641C58.9837 74.8339 57.8366 73.3366 56.7752 71.779C47.3739 58.0935 67.5389 47.3085 67.5389 47.3085C69.2178 41.1735 77.1137 36.0979 77.1137 36.0979V32.0513H77.1354L83.5823 29.4462L83.6431 29.4202L85.0617 41.282L84.7754 42.3892C73.7818 46.7788 63.1961 52.2234 60.1549 57.8504Z" fill="url(#paint2_linear_1532_21915)"/>
<path d="M105.873 102.484C105.476 103.16 105.23 103.914 105.153 104.694C105.166 105.475 105.419 106.233 105.878 106.865C106.819 108.263 108.263 109.244 109.908 109.605C110.123 109.671 110.355 109.66 110.563 109.575C110.706 109.487 110.817 109.356 110.88 109.201C111.275 108.398 111.114 107.443 110.854 106.596C110.593 105.749 110.238 104.89 110.277 103.991C110.342 102.311 112.741 99.0673 109.947 98.2771C107.617 97.5997 106.615 100.986 105.873 102.484Z" fill="#B2857F"/>
<path d="M104.233 104.677C104.233 104.677 103.409 105.354 103.565 106.101C103.721 106.848 106.684 112.054 110.906 111.459C115.127 110.864 108.194 106.683 108.194 106.683L104.233 104.677Z" fill="#FFB443"/>
<path d="M105.509 102.754C105.682 102.76 105.847 102.828 105.973 102.946C106.1 103.064 106.18 103.224 106.199 103.396C106.309 103.892 106.544 104.352 106.881 104.731C107.218 105.111 107.646 105.399 108.125 105.567C109.227 105.867 110.233 104.946 110.728 105.207C111.223 105.467 112.611 109.093 112.246 110.126C111.882 111.159 110.173 111.133 108.654 110.426C107.136 109.718 104.368 106.891 104.155 105.775C103.943 104.66 104.906 103.053 105.509 102.754Z" fill="white"/>
<path d="M87.9727 108.489C87.5634 109.26 87.3265 110.11 87.2786 110.981C87.3382 111.841 87.6558 112.663 88.1896 113.339C89.3038 114.85 90.9571 115.873 92.8057 116.196C93.0474 116.26 93.3038 116.237 93.5302 116.131C93.683 116.022 93.8006 115.871 93.8686 115.696C94.2678 114.785 94.0378 113.73 93.7125 112.792C93.3871 111.854 92.9532 110.929 92.9359 109.939C92.9359 108.072 95.4391 104.343 92.2981 103.6C89.6734 102.979 88.7189 106.791 87.9727 108.489Z" fill="#B2857F"/>
<path d="M86.2506 111.038C86.2506 111.038 85.3829 111.832 85.5782 112.653C85.7734 113.473 89.3222 119.122 93.9904 118.254C98.6585 117.385 90.7539 113.109 90.7539 113.109L86.2506 111.038Z" fill="#FFB443"/>
<path d="M87.5738 108.815C87.7678 108.813 87.9561 108.881 88.1036 109.007C88.2512 109.133 88.3481 109.309 88.3764 109.501C88.5214 110.045 88.8039 110.543 89.1967 110.947C89.5895 111.351 90.0794 111.647 90.6194 111.806C91.8602 112.084 92.9404 111.02 93.4871 111.281C94.0337 111.541 95.7691 115.514 95.4046 116.673C95.0402 117.833 93.1443 117.893 91.422 117.181C89.6996 116.469 86.4849 113.456 86.2159 112.227C85.9469 110.999 86.9187 109.179 87.5738 108.815Z" fill="white"/>
<path d="M97.331 63.2082C97.449 63.2288 97.5651 63.2593 97.6781 63.2994C100.42 64.3414 103.721 68.9872 105.587 71.1928C108.012 73.9861 110.031 77.1084 111.583 80.467C114.732 87.505 115.023 96.2495 110.598 102.562L107.197 101.85C106.9 101.818 106.62 101.695 106.394 101.499C106.278 101.328 106.198 101.136 106.158 100.934C106.119 100.732 106.121 100.524 106.164 100.322C106.344 97.8904 106.232 95.4459 105.83 93.0409C105.605 91.3925 105.101 89.7948 104.338 88.317C103.27 86.3935 101.587 84.9043 99.9471 83.4454C94.741 78.8301 90.0728 74.0584 87.4915 67.5327C89.8212 66.3864 94.819 62.7654 97.331 63.2082Z" fill="#A4A4A4"/>
<path d="M89.4524 66.7511C89.5647 66.7959 89.671 66.8542 89.7691 66.9248C92.1943 68.5747 94.3244 73.8717 95.626 76.4421C97.3306 79.7266 98.5661 83.2343 99.2963 86.8625C100.715 94.4389 98.9665 103.01 93.1921 108.137L90.0468 106.648C89.7668 106.547 89.5235 106.364 89.3483 106.123C89.2754 105.929 89.2424 105.723 89.2514 105.516C89.2603 105.309 89.311 105.107 89.4003 104.92C90.1423 102.597 90.6026 100.193 90.7713 97.7604C90.9376 96.1054 90.8187 94.4342 90.4199 92.8194C89.8342 90.705 88.5413 88.864 87.2875 87.0578C83.3179 81.3614 79.8732 75.6258 78.884 68.6789C81.4133 68.1058 87.1183 65.7525 89.4524 66.7511Z" fill="#A4A4A4"/>
<path d="M103.582 50.2131C103.585 50.2319 103.585 50.2508 103.582 50.2696C103.621 50.9947 103.86 51.6329 103.674 52.371C103.474 53.1916 102.71 53.9341 101.877 53.8125C101.183 53.7126 100.71 53.0874 100.177 52.6315C99.6183 52.184 98.9989 51.8185 98.3373 51.5461C97.4696 51.1423 96.5759 50.7645 95.6822 50.4172C95.1095 50.1914 94.0162 50.0525 93.7733 49.4663C93.5303 48.8802 93.6084 47.9554 93.539 47.3345L92.4587 37.4829L102.511 45.7324C102.923 46.6345 103.244 47.5755 103.47 48.5415C103.566 49.0932 103.603 49.6535 103.582 50.2131Z" fill="white"/>
<path d="M96.1204 51.2986C96.1811 51.8804 96.3156 52.4579 96.3851 53.0354C96.7495 56.244 96.3547 59.6436 97.6562 62.6872C97.9512 63.3645 98.333 64.0853 98.1595 64.806C97.9475 65.4169 97.5202 65.9294 96.9577 66.2475C94.3026 68.1058 91.0792 68.9351 87.9382 69.721C85.5737 70.3201 82.2462 71.4099 79.8861 70.3592C78.8795 69.925 78.4457 68.9177 78.0335 67.9278C76.732 64.7756 76.0466 61.3022 75.4305 57.9416C75.3524 57.5074 75.27 57.0733 75.1962 56.6174C74.6843 53.5868 74.2837 50.5301 73.9945 47.4474C73.7949 45.2071 73.7038 42.7756 74.9793 40.9347C76.6713 38.4772 80.2548 36.5929 83.0444 35.7245C83.9466 35.4339 84.8864 35.2774 85.834 35.2599C87.1841 35.3231 88.5135 35.6168 89.7646 36.1283C91.2527 36.671 92.5759 37.1226 93.4219 38.4425C94.3598 39.9758 95.0783 41.6331 95.5564 43.3661C96.0066 44.9889 96.23 46.6664 96.2202 48.3505C96.2202 49.1755 96.1074 50.0091 96.1117 50.8297C96.098 50.9859 96.1009 51.1431 96.1204 51.2986Z" fill="white"/>
<path opacity="0.1" d="M85.0141 70.9236C84.1117 71.3014 81.8731 70.6805 81.1486 70.6327C80.7148 70.6067 80.2809 70.433 79.8471 70.3809C77.6779 70.0813 76.7538 64.133 76.3764 62.5656C75.3612 58.3758 74.0336 54.0687 73.5043 49.8137C73.3047 48.1681 73.1616 46.4879 73.5303 44.877C73.8991 43.2662 74.8319 41.7119 76.3286 40.9694C78.9317 39.6929 80.6887 48.1985 81.2571 49.9353C81.9686 52.1062 82.6844 54.2771 83.3916 56.448C83.7039 57.4206 83.8037 58.5017 84.3373 59.3917C85.1486 60.7421 85.8341 60.4859 87.192 60.2601C90.0424 59.7651 92.7062 58.5538 95.5131 57.8764C95.6285 57.8333 95.7515 57.8141 95.8746 57.82C95.9977 57.826 96.1182 57.857 96.2289 57.9112C96.3802 58.0357 96.483 58.2093 96.5196 58.4018C96.6849 58.9501 96.7754 59.5182 96.7886 60.0908C96.805 60.2547 96.7812 60.4201 96.7192 60.5727C96.6212 60.7286 96.4854 60.857 96.3244 60.9461C94.4272 62.2021 92.3437 63.1502 90.1508 63.7553C88.4155 64.2416 86.7712 65.0578 85.5998 66.508C84.5456 67.8105 85.9165 69.1826 85.3439 70.5936C85.314 70.668 85.2693 70.7356 85.2127 70.7923C85.156 70.8491 85.0885 70.8937 85.0141 70.9236Z" fill="#020202"/>
<path d="M83.0359 64.3632L99.6694 58.7492L111.869 65.7135L94.8928 72.6777L83.0359 64.3632Z" fill="#FFB443"/>
<path d="M83.0359 64.3632L99.6694 58.7492L111.869 65.7135L94.8928 72.6777L83.0359 64.3632Z" fill="url(#paint3_linear_1532_21915)"/>
<path d="M83.7212 63.4644L100.355 57.8504L112.554 64.8147L95.5781 71.779L83.7212 63.4644Z" fill="#FFB443"/>
<path d="M96.3939 70.8195L110.155 64.7366L103.439 61.046L89.7561 66.2302L96.3939 70.8195Z" fill="url(#paint4_linear_1532_21915)"/>
<path d="M95.5781 71.779H111.982L126.103 62.9781L112.554 64.8147L95.5781 71.779Z" fill="#FFB443"/>
<path d="M89.9816 31.4391C89.8124 32.0513 89.6302 32.6635 89.435 33.2713C89.0011 34.6607 88.1335 35.9285 86.6237 36.2629C86.29 36.3271 85.9522 36.3677 85.6128 36.3844C85.5478 36.3844 85.474 36.3844 85.3872 36.3844C85.3825 36.3867 85.3773 36.3879 85.3721 36.3879C85.3668 36.3879 85.3616 36.3867 85.3569 36.3844H85.3178C85.1484 36.3764 84.9788 36.394 84.8146 36.4365C84.7687 36.4389 84.724 36.4523 84.6844 36.4756C84.2506 36.6753 84.2853 37.3787 84.3156 37.7781C84.4225 38.2276 84.3704 38.7002 84.1681 39.1154C84.1681 39.1154 84.1681 39.1415 84.1421 39.1588C84.0218 39.2901 83.8767 39.3961 83.715 39.4707C83.5534 39.5452 83.3785 39.5868 83.2007 39.593C82.4527 39.6535 81.7097 39.4269 81.1226 38.9591C80.7866 38.6469 80.5166 38.2704 80.3286 37.852C80.2698 37.733 80.2205 37.6096 80.1811 37.4829C80.1319 37.2681 80.1129 37.0474 80.1247 36.8273C80.1327 36.4897 80.1646 36.1531 80.2202 35.82C80.3802 35.1626 80.5062 34.4975 80.5976 33.8271C80.6033 33.4875 80.6265 33.1484 80.667 32.8111C80.7226 32.5956 80.7631 32.3766 80.7885 32.1555C80.7885 31.5172 80.4631 30.9007 80.4588 30.2538C80.453 29.614 80.5126 28.9753 80.6367 28.3477C80.8681 27.1028 81.4098 25.9364 82.2115 24.9568C83.6996 23.22 86.3374 22.3517 88.4111 23.3416C89.4474 23.8364 90.2514 24.7143 90.6541 25.7904C91.3482 27.6183 90.4805 29.6546 89.9816 31.4391Z" fill="#B2857F"/>
<path d="M87.8209 62.7827C88.1853 62.7393 88.5541 62.7002 88.9185 62.6698C89.1359 62.6392 89.3571 62.6525 89.5693 62.7089C89.6736 62.7362 89.7688 62.7908 89.845 62.8671C89.9212 62.9434 89.9758 63.0387 90.0031 63.1431C90.0008 63.2224 90.0172 63.3013 90.0508 63.3732C90.1064 63.4375 90.1835 63.4792 90.2677 63.4904C91.5693 63.8291 92.9142 64.3588 93.6908 65.4312C93.7832 65.5327 93.8478 65.6564 93.8782 65.7904C93.9086 65.9243 93.9038 66.0638 93.8643 66.1953C93.6864 66.5601 93.1658 66.508 92.7754 66.3994C92.8313 66.4796 92.8614 66.5751 92.8614 66.673C92.8614 66.7708 92.8313 66.8663 92.7754 66.9465C92.7169 67.0253 92.6401 67.0886 92.5516 67.1309C92.4632 67.1733 92.3657 67.1934 92.2678 67.1896C92.1387 67.1658 92.0064 67.1658 91.8773 67.1896C91.7888 67.2308 91.7069 67.285 91.6344 67.3503C91.4516 67.4711 91.2462 67.5534 91.0307 67.5922C90.8151 67.631 90.5939 67.6255 90.3806 67.576C89.9467 67.5109 89.5129 67.3633 89.079 67.3286C88.4066 67.2765 87.8035 67.4979 87.1788 67.2244C86.49 66.8831 85.7613 66.6293 85.0096 66.4689C84.7705 66.4304 84.55 66.3163 84.3805 66.1432C84.3075 65.9962 84.2695 65.8342 84.2695 65.67C84.2695 65.5058 84.3075 65.3438 84.3805 65.1967C84.4928 64.664 84.6953 64.1545 84.9792 63.6901C85.348 63.1691 85.964 63.0779 86.5671 62.9737C87.0096 62.8999 87.4044 62.8435 87.8209 62.7827Z" fill="#B2857F"/>
<path d="M74.9708 40.9303C71.782 46.2143 68.6323 52.3363 67.7256 58.493C67.487 60.1125 67.3568 62.0229 68.1161 63.5425C69.3568 66.0174 73.5781 66.4993 76.0076 66.7468C78.9169 67.042 81.8464 67.0812 84.7626 66.864C84.8264 66.8761 84.8921 66.8722 84.9541 66.8528C85.016 66.8334 85.0723 66.7989 85.1177 66.7526C85.1632 66.7062 85.1965 66.6493 85.2148 66.5869C85.2331 66.5246 85.2357 66.4587 85.2224 66.3951L85.3439 63.5859C85.364 63.4548 85.3459 63.3206 85.2919 63.1995C85.2158 63.111 85.12 63.0417 85.0123 62.9972C84.9045 62.9527 84.7877 62.9342 84.6715 62.9433C82.9722 62.8071 81.3025 62.4194 79.717 61.7928C78.2116 61.1936 75.2701 59.6219 75.4827 57.642C75.5998 56.5305 76.8189 55.1758 77.422 54.2988C78.871 52.193 80.4328 50.1523 82.0294 48.1551C82.0294 48.1551 82.1855 36.7926 74.9708 40.9303Z" fill="white"/>
<path d="M89.4826 28.8861C89.6984 28.8361 89.9011 28.7411 90.0776 28.6071C90.2541 28.4732 90.4002 28.3034 90.5065 28.1089C90.6843 28.6082 91.526 28.4563 91.7386 27.9657C91.9512 27.475 91.7386 26.9193 91.5477 26.4286C91.747 26.3817 91.9314 26.2858 92.0844 26.1496C92.2373 26.0134 92.354 25.8412 92.4237 25.6485C92.4935 25.4559 92.5142 25.2489 92.4839 25.0462C92.4537 24.8436 92.3735 24.6517 92.2505 24.4879C92.1074 24.3272 91.9078 24.1883 91.8687 23.9712C91.8595 23.8057 91.8846 23.6401 91.9425 23.4849C91.9696 23.23 91.9289 22.9725 91.8245 22.7384C91.7201 22.5043 91.5558 22.302 91.3481 22.152C90.9216 21.8575 90.4454 21.6428 89.9425 21.518C90.0775 21.2983 90.1278 21.0368 90.0838 20.7826C90.0399 20.5284 89.9048 20.299 89.7039 20.1373C89.2925 19.823 88.7938 19.644 88.2765 19.625C87.526 19.5425 86.6973 19.5773 86.1073 20.0592C85.7044 19.809 85.2296 19.7004 84.7581 19.7507C84.2866 19.8011 83.8454 20.0074 83.5043 20.3371C83.3831 20.5052 83.2136 20.6324 83.0184 20.7018C82.8788 20.7119 82.7389 20.688 82.6106 20.6323C82.0635 20.3982 81.4583 20.3361 80.8752 20.4543C80.5837 20.5238 80.3289 20.7002 80.1611 20.9486C79.9932 21.197 79.9245 21.4993 79.9685 21.7959C79.753 21.8218 79.5507 21.9131 79.3886 22.0574C79.2265 22.2018 79.1124 22.3924 79.0617 22.6035C79.0519 22.7359 79.0102 22.864 78.9403 22.9769C78.8144 23.1245 78.5932 23.1158 78.4066 23.1332C78.0508 23.1642 77.7197 23.3284 77.4796 23.5931C77.2394 23.8577 77.1079 24.2032 77.1111 24.5607C77.1144 24.9182 77.2523 25.2612 77.4973 25.5214C77.7423 25.7815 78.0763 25.9396 78.4327 25.9641C78.3917 26.1385 78.3871 26.3196 78.4192 26.4959C78.4513 26.6722 78.5194 26.84 78.6192 26.9887C78.8492 27.3578 79.1572 27.3838 79.4609 27.614C79.6388 27.7529 79.5693 27.7659 79.5607 28.0481C79.5519 28.3078 79.565 28.5678 79.5997 28.8253C79.6589 29.3213 79.7829 29.8074 79.9685 30.2712C80.0986 30.6055 80.2635 30.9268 80.3806 31.2654C80.542 31.7841 80.6496 32.3181 80.7017 32.8589L81.4348 30.7835C81.443 30.7551 81.443 30.725 81.4348 30.6967C81.4202 30.6581 81.3926 30.6259 81.3568 30.6055C81.0371 30.3561 80.812 30.005 80.7189 29.6102C80.6258 29.2154 80.6702 28.8006 80.8448 28.4346C80.8936 28.3198 80.9711 28.2195 81.0699 28.1434C81.1687 28.0674 81.2854 28.0181 81.4088 28.0004C81.7038 28.0004 81.9294 28.2566 82.0726 28.5127C82.2249 28.7856 82.3402 29.0777 82.4153 29.3811C82.6138 28.906 82.8878 28.4661 83.2266 28.0785C83.3698 27.9179 83.5433 27.6444 83.7733 27.7269C84.0032 27.8093 84.1117 28.2262 84.2071 28.3781C84.5489 28.2451 84.8603 28.0442 85.1225 27.7876C85.0923 28.089 85.1489 28.3926 85.2858 28.6627C85.4227 28.9328 85.634 29.158 85.8947 29.3116C86.4414 29.5678 87.2353 29.2031 87.2353 28.5952C87.2353 28.8688 88.4197 28.4085 88.5065 28.3564C88.598 28.5319 88.7398 28.6761 88.9137 28.7705C89.0876 28.8649 89.2857 28.9051 89.4826 28.8861Z" fill="#754A45"/>
<path d="M83.7603 36.4062C84.1097 36.452 84.4625 36.4666 84.8145 36.4496C84.7687 36.452 84.724 36.4654 84.6844 36.4887C84.2506 36.6884 84.2853 37.3918 84.3156 37.7912C84.4225 38.2406 84.3703 38.7132 84.1681 39.1285C84.033 39.1295 83.8985 39.1105 83.769 39.072C83.6363 39.0252 83.514 38.9529 83.4089 38.8593C83.0154 38.5351 82.7276 38.1008 82.5823 37.612C82.437 37.1231 82.4408 36.6019 82.5933 36.1153C82.9689 36.2599 83.3608 36.3576 83.7603 36.4062Z" fill="#96625E"/>
<path d="M100.953 44.4603C100.953 44.4603 108.897 50.3261 107.799 56.1832C106.78 61.6322 105.864 65.9653 105.864 65.9653L102.146 63.7944C102.146 63.7944 104.632 55.584 99.4436 52.015C94.2548 48.4461 100.953 44.4603 100.953 44.4603Z" fill="white"/>
<path d="M101.487 63.7119L101.131 65.5571C101.069 65.7909 101.06 66.0358 101.105 66.2735C101.129 66.3922 101.192 66.4994 101.284 66.5781C101.376 66.6568 101.492 66.7024 101.613 66.7077C101.873 66.7077 102.094 66.4212 102.355 66.4733C102.448 66.501 102.536 66.5435 102.615 66.5992C103.17 66.9031 103.843 66.5992 104.428 66.3256C104.522 66.273 104.63 66.2531 104.737 66.2692C104.862 66.3039 104.94 66.4298 105.049 66.508C105.157 66.5733 105.283 66.6041 105.409 66.5963C105.535 66.5886 105.656 66.5426 105.756 66.4646C105.953 66.3011 106.102 66.0883 106.19 65.848C106.423 65.3345 106.525 64.7707 106.485 64.2079C106.444 63.6452 106.264 63.1015 105.96 62.6264C105.627 62.2145 105.19 61.8997 104.694 61.7148C104.198 61.53 103.661 61.4819 103.14 61.5757C102.012 61.7537 101.691 62.6394 101.487 63.7119Z" fill="#B2857F"/>
<path d="M94.8926 72.6777H111.296L125.418 63.8768L111.869 65.7134L94.8926 72.6777Z" fill="#FFB443"/>
<path d="M95.578 71.7789L94.8926 72.6777H111.296L111.982 71.7789H95.578Z" fill="url(#paint5_linear_1532_21915)"/>
<path d="M126.103 62.9781L125.418 63.8769L111.296 72.6777L111.982 71.779L126.103 62.9781Z" fill="#FFB443"/>
<path d="M126.103 62.9781L125.418 63.8769L111.296 72.6777L111.982 71.779L126.103 62.9781Z" fill="url(#paint6_linear_1532_21915)"/>
<path d="M112.719 65.2055L123.938 63.6381L112.238 70.8194L99.4697 71.0409L112.719 65.2055Z" fill="white"/>
<path d="M93.6042 64.2329L99.9557 61.8753L96.8928 59.6349L90.3765 61.8753L93.6042 64.2329Z" fill="url(#paint7_linear_1532_21915)"/>
<path d="M80.0118 88.534L54.81 100.049C54.2737 100.293 53.6624 100.315 53.1101 100.109C52.5579 99.9029 52.1098 99.4861 51.8642 98.95L45.4173 84.8131C45.2939 84.5506 45.2274 84.2651 45.2221 83.9751C45.2053 83.5344 45.3202 83.0987 45.552 82.7236C45.7838 82.3485 46.1221 82.0511 46.5236 81.8693L71.7255 70.3548C72.0242 70.2204 72.3487 70.153 72.6763 70.1575C73.0038 70.162 73.3264 70.2382 73.6213 70.3809C74.0854 70.6051 74.4567 70.9844 74.6712 71.4533L81.1094 85.5946C81.2303 85.8597 81.2977 86.1461 81.3079 86.4373C81.3181 86.7285 81.2709 87.0189 81.169 87.2918C81.0671 87.5648 80.9124 87.815 80.7139 88.0281C80.5153 88.2413 80.2768 88.4132 80.0118 88.534Z" fill="#FFB443"/>
<path d="M80.0118 88.534L54.81 100.049C54.2737 100.293 53.6624 100.315 53.1101 100.109C52.5579 99.9029 52.1098 99.4861 51.8642 98.95L45.4173 84.8131C45.2939 84.5506 45.2274 84.2651 45.2221 83.9751C45.2053 83.5344 45.3202 83.0987 45.552 82.7236C45.7838 82.3485 46.1221 82.0511 46.5236 81.8693L71.7255 70.3548C72.0242 70.2204 72.3487 70.153 72.6763 70.1575C73.0038 70.162 73.3264 70.2382 73.6213 70.3809C74.0854 70.6051 74.4567 70.9844 74.6712 71.4533L81.1094 85.5946C81.2303 85.8597 81.2977 86.1461 81.3079 86.4373C81.3181 86.7285 81.2709 87.0189 81.169 87.2918C81.0671 87.5648 80.9124 87.815 80.7139 88.0281C80.5153 88.2413 80.2768 88.4132 80.0118 88.534Z" fill="url(#paint8_linear_1532_21915)"/>
<path d="M81.1791 88.0261L55.9772 99.5406C55.4409 99.7851 54.8296 99.8068 54.2774 99.6009C53.7252 99.3949 53.2771 98.9782 53.0314 98.4421L46.5846 84.3095C46.4628 84.0463 46.3949 83.7614 46.385 83.4715C46.3691 83.0304 46.4843 82.5945 46.716 82.2189C46.9476 81.8433 47.2854 81.5449 47.6865 81.3614L72.8884 69.8512C73.4243 69.6076 74.0347 69.5859 74.5865 69.7908C75.1384 69.9958 75.5868 70.4108 75.8342 70.9453L82.2811 85.0867C82.4017 85.352 82.4689 85.6386 82.4789 85.93C82.4888 86.2214 82.4412 86.512 82.3389 86.785C82.2365 87.0579 82.0814 87.3081 81.8824 87.521C81.6834 87.734 81.4444 87.9056 81.1791 88.0261Z" fill="#FFB443"/>
<path d="M74.7756 69.8512L66.9057 87.123L46.385 83.4498C46.3691 83.0087 46.4843 82.5728 46.716 82.1972C46.9476 81.8216 47.2854 81.5232 47.6865 81.3397L72.8884 69.8295C73.1852 69.6939 73.5082 69.6256 73.8344 69.6294C74.1606 69.6331 74.482 69.7089 74.7756 69.8512Z" fill="url(#paint9_linear_1532_21915)"/>
<path d="M59.5476 85.803L57.4868 98.8242L81.1789 88.0044L69.7211 80.9445L66.9055 87.123L59.5476 85.803Z" fill="url(#paint10_linear_1532_21915)"/>
<path d="M135.136 60.525L118.858 57.3077C118.687 57.2739 118.524 57.2067 118.378 57.1098C118.233 57.013 118.108 56.8884 118.011 56.7432C117.914 56.598 117.847 56.4351 117.812 56.2637C117.778 56.0924 117.778 55.916 117.812 55.7446L119.613 46.6268C119.644 46.4559 119.711 46.2933 119.808 46.1492C119.953 45.9285 120.161 45.7562 120.404 45.6541C120.647 45.552 120.916 45.5248 121.175 45.5761L137.452 48.7934C137.645 48.8296 137.827 48.909 137.985 49.0255C138.143 49.142 138.272 49.2927 138.364 49.4664C138.51 49.7384 138.559 50.0526 138.502 50.3564L136.698 59.4742C136.664 59.6461 136.598 59.8096 136.501 59.9555C136.404 60.1014 136.28 60.2268 136.135 60.3244C135.99 60.422 135.827 60.49 135.655 60.5244C135.484 60.5589 135.307 60.559 135.136 60.525Z" fill="#FFB443"/>
<path d="M138.364 49.4577L128.507 55.102L119.83 46.1405C119.975 45.9198 120.182 45.7475 120.426 45.6454C120.669 45.5433 120.938 45.5161 121.196 45.5674L137.474 48.7847C137.663 48.8239 137.841 48.9046 137.995 49.021C138.148 49.1374 138.274 49.2866 138.364 49.4577Z" fill="url(#paint11_linear_1532_21915)"/>
<path d="M125.387 51.8848L119.839 57.4987L135.136 60.525L132.03 53.0831L128.507 55.1021L125.387 51.8848Z" fill="url(#paint12_linear_1532_21915)"/>
<defs>
<linearGradient id="paint0_linear_1532_21915" x1="110.498" y1="66.102" x2="121.972" y2="93.4823" gradientUnits="userSpaceOnUse">
<stop offset="0.01" stop-color="white"/>
<stop offset="1" stop-color="white" stop-opacity="0"/>
</linearGradient>
<linearGradient id="paint1_linear_1532_21915" x1="102.176" y1="74.2659" x2="156.379" y2="108.386" gradientUnits="userSpaceOnUse">
<stop offset="0.01"/>
<stop offset="0.08" stop-opacity="0.69"/>
<stop offset="0.21" stop-opacity="0.32"/>
<stop offset="1" stop-opacity="0"/>
</linearGradient>
<linearGradient id="paint2_linear_1532_21915" x1="8880.46" y1="10312" x2="-1993.16" y2="5465.8" gradientUnits="userSpaceOnUse">
<stop offset="0.01"/>
<stop offset="0.08" stop-opacity="0.69"/>
<stop offset="0.21" stop-opacity="0.32"/>
<stop offset="1" stop-opacity="0"/>
</linearGradient>
<linearGradient id="paint3_linear_1532_21915" x1="6394.32" y1="1899.55" x2="6224.98" y2="3710.13" gradientUnits="userSpaceOnUse">
<stop offset="0.01"/>
<stop offset="0.08" stop-opacity="0.69"/>
<stop offset="0.21" stop-opacity="0.32"/>
<stop offset="1" stop-opacity="0"/>
</linearGradient>
<linearGradient id="paint4_linear_1532_21915" x1="4229.78" y1="1390.92" x2="4994.54" y2="2677.61" gradientUnits="userSpaceOnUse">
<stop offset="0.01" stop-color="#981921"/>
<stop offset="0.08" stop-opacity="0.69"/>
<stop offset="0.21" stop-opacity="0.32"/>
<stop offset="1" stop-opacity="0"/>
</linearGradient>
<linearGradient id="paint5_linear_1532_21915" x1="3504.66" y1="237.405" x2="3533.37" y2="-91.3472" gradientUnits="userSpaceOnUse">
<stop offset="0.01"/>
<stop offset="0.08" stop-opacity="0.69"/>
<stop offset="0.21" stop-opacity="0.32"/>
<stop offset="1" stop-opacity="0"/>
</linearGradient>
<linearGradient id="paint6_linear_1532_21915" x1="3878.79" y1="1447.31" x2="4330.97" y2="2377.61" gradientUnits="userSpaceOnUse">
<stop offset="0.01"/>
<stop offset="0.08" stop-opacity="0.69"/>
<stop offset="0.21" stop-opacity="0.32"/>
<stop offset="1" stop-opacity="0"/>
</linearGradient>
<linearGradient id="paint7_linear_1532_21915" x1="2061.01" y1="685.098" x2="2121.2" y2="865.802" gradientUnits="userSpaceOnUse">
<stop offset="0.01" stop-color="#E52440"/>
<stop offset="0.08" stop-opacity="0.69"/>
<stop offset="0.21" stop-opacity="0.32"/>
<stop offset="1" stop-opacity="0"/>
</linearGradient>
<linearGradient id="paint8_linear_1532_21915" x1="6026.22" y1="6445.08" x2="2239.49" y2="9472.81" gradientUnits="userSpaceOnUse">
<stop offset="0.01"/>
<stop offset="0.08" stop-opacity="0.69"/>
<stop offset="0.21" stop-opacity="0.32"/>
<stop offset="1" stop-opacity="0"/>
</linearGradient>
<linearGradient id="paint9_linear_1532_21915" x1="10796.5" y1="1460.78" x2="11124.6" y2="3432.99" gradientUnits="userSpaceOnUse">
<stop offset="0.01" stop-color="white"/>
<stop offset="1" stop-color="white" stop-opacity="0"/>
</linearGradient>
<linearGradient id="paint10_linear_1532_21915" x1="8158.19" y1="2207.58" x2="11150.2" y2="5995.02" gradientUnits="userSpaceOnUse">
<stop offset="0.01" stop-color="#E52440"/>
<stop offset="0.08" stop-opacity="0.69"/>
<stop offset="0.21" stop-opacity="0.32"/>
<stop offset="1" stop-opacity="0"/>
</linearGradient>
<linearGradient id="paint11_linear_1532_21915" x1="-9777.57" y1="-1792.83" x2="-10070.8" y2="-1207.83" gradientUnits="userSpaceOnUse">
<stop offset="0.01" stop-color="white"/>
<stop offset="1" stop-color="white" stop-opacity="0"/>
</linearGradient>
<linearGradient id="paint12_linear_1532_21915" x1="-8483.83" y1="-1334.12" x2="-8592.62" y2="148.306" gradientUnits="userSpaceOnUse">
<stop offset="0.01"/>
<stop offset="0.08" stop-opacity="0.69"/>
<stop offset="0.21" stop-opacity="0.32"/>
<stop offset="1" stop-opacity="0"/>
</linearGradient>
</defs>
</svg>
