<svg width="153" height="65" viewBox="0 0 153 65" fill="none" xmlns="http://www.w3.org/2000/svg">
<path d="M49.515 25C48.811 25 48.1603 24.8293 47.563 24.488C46.987 24.1253 46.5177 23.656 46.155 23.08C45.8137 22.4827 45.643 21.832 45.643 21.128V14.408H61.899V10.312C61.899 9.97067 61.771 9.68267 61.515 9.448C61.2803 9.192 60.9923 9.064 60.651 9.064H45.643V6.44H60.651C61.3763 6.44 62.027 6.62133 62.603 6.984C63.2003 7.32533 63.6697 7.79467 64.011 8.392C64.3737 8.968 64.555 9.608 64.555 10.312V25H49.515ZM49.515 22.376H61.899V17.032H48.267V21.128C48.267 21.4693 48.3843 21.768 48.619 22.024C48.875 22.2587 49.1737 22.376 49.515 22.376ZM67.457 25V6.44H82.497C83.201 6.44 83.841 6.62133 84.417 6.984C85.0143 7.32533 85.4837 7.79467 85.825 8.392C86.1877 8.968 86.369 9.608 86.369 10.312V25H83.745V10.312C83.745 9.97067 83.617 9.68267 83.361 9.448C83.1263 9.192 82.8383 9.064 82.497 9.064H71.361C71.0197 9.064 70.721 9.192 70.465 9.448C70.209 9.68267 70.081 9.97067 70.081 10.312V25H67.457ZM92.6503 25C91.9249 25 91.2636 24.8293 90.6663 24.488C90.0903 24.1253 89.6209 23.656 89.2583 23.08C88.9169 22.4827 88.7463 21.832 88.7463 21.128V10.312C88.7463 9.608 88.9169 8.968 89.2583 8.392C89.6209 7.79467 90.0903 7.32533 90.6663 6.984C91.2636 6.62133 91.9249 6.44 92.6503 6.44H105.034V0.359999H107.658V25H92.6503ZM92.6503 22.376H103.786C104.128 22.376 104.416 22.2587 104.65 22.024C104.906 21.768 105.034 21.4693 105.034 21.128V10.312C105.034 9.97067 104.906 9.68267 104.65 9.448C104.416 9.192 104.128 9.064 103.786 9.064H92.6503C92.3089 9.064 92.0103 9.192 91.7543 9.448C91.5196 9.68267 91.4023 9.97067 91.4023 10.312V21.128C91.4023 21.4693 91.5196 21.768 91.7543 22.024C92.0103 22.2587 92.3089 22.376 92.6503 22.376ZM5.17063 65C4.35996 65 3.6133 64.7973 2.93063 64.392C2.2693 63.9867 1.73596 63.4533 1.33063 62.792C0.925296 62.1093 0.722629 61.3627 0.722629 60.552V46.408C0.722629 45.5973 0.925296 44.8613 1.33063 44.2C1.73596 43.5173 2.2693 42.9733 2.93063 42.568C3.6133 42.1627 4.35996 41.96 5.17063 41.96H19.3146C20.1253 41.96 20.8613 42.1627 21.5226 42.568C22.2053 42.9733 22.7493 43.5173 23.1546 44.2C23.56 44.8613 23.7626 45.5973 23.7626 46.408V60.552C23.7626 61.3627 23.56 62.1093 23.1546 62.792C22.7493 63.4533 22.2053 63.9867 21.5226 64.392C20.8613 64.7973 20.1253 65 19.3146 65H5.17063ZM5.33063 60.744H19.0906C19.1973 60.744 19.2933 60.712 19.3786 60.648C19.464 60.5627 19.5066 60.4667 19.5066 60.36V46.6C19.5066 46.4933 19.464 46.408 19.3786 46.344C19.2933 46.2587 19.1973 46.216 19.0906 46.216H5.33063C5.22396 46.216 5.12796 46.2587 5.04263 46.344C4.97863 46.408 4.94663 46.4933 4.94663 46.6V60.36C4.94663 60.4667 4.97863 60.5627 5.04263 60.648C5.12796 60.712 5.22396 60.744 5.33063 60.744ZM35.5426 65V46.216H26.1346V41.96H49.1746V46.216H39.7986V65H35.5426ZM51.5999 65V41.96H55.8239V51.336H70.9279V41.96H75.1519V65H70.9279V55.624H55.8239V65H51.5999ZM78.8506 65V41.96H100.067V46.216H83.1066V51.336H96.7386V55.624H83.1066V60.744H100.067V65H78.8506ZM121.655 65L114.711 56.712H120.247L126.263 63.816V65H121.655ZM103.287 65V41.992H121.847C122.657 41.992 123.404 42.1947 124.087 42.6C124.769 43.0053 125.313 43.5493 125.719 44.232C126.124 44.8933 126.327 45.6293 126.327 46.44V52.648C126.327 53.4587 126.124 54.2053 125.719 54.888C125.313 55.5707 124.769 56.1147 124.087 56.52C123.404 56.904 122.657 57.096 121.847 57.096L107.511 57.128V65H103.287ZM107.895 52.84H121.655C121.761 52.84 121.857 52.808 121.943 52.744C122.028 52.68 122.071 52.5947 122.071 52.488V46.6C122.071 46.4933 122.028 46.408 121.943 46.344C121.857 46.2587 121.761 46.216 121.655 46.216H107.895C107.788 46.216 107.692 46.2587 107.607 46.344C107.543 46.408 107.511 46.4933 107.511 46.6V52.488C107.511 52.5947 107.543 52.68 107.607 52.744C107.692 52.808 107.788 52.84 107.895 52.84ZM134.045 65C133.234 65 132.488 64.7973 131.805 64.392C131.144 63.9867 130.61 63.4533 130.205 62.792C129.8 62.1093 129.597 61.3627 129.597 60.552V58.792H133.821V60.36C133.821 60.4667 133.853 60.5627 133.917 60.648C134.002 60.712 134.098 60.744 134.205 60.744H147.997C148.104 60.744 148.189 60.712 148.253 60.648C148.338 60.5627 148.381 60.4667 148.381 60.36V55.976C148.381 55.8693 148.338 55.784 148.253 55.72C148.189 55.656 148.104 55.624 147.997 55.624H134.045C133.234 55.624 132.488 55.4213 131.805 55.016C131.144 54.6107 130.61 54.0773 130.205 53.416C129.8 52.7333 129.597 51.976 129.597 51.144V46.408C129.597 45.5973 129.8 44.8613 130.205 44.2C130.61 43.5173 131.144 42.9733 131.805 42.568C132.488 42.1627 133.234 41.96 134.045 41.96H148.189C149 41.96 149.736 42.1627 150.397 42.568C151.08 42.9733 151.624 43.5173 152.029 44.2C152.434 44.8613 152.637 45.5973 152.637 46.408V48.168H148.381V46.6C148.381 46.4933 148.338 46.408 148.253 46.344C148.189 46.2587 148.104 46.216 147.997 46.216H134.205C134.098 46.216 134.002 46.2587 133.917 46.344C133.853 46.408 133.821 46.4933 133.821 46.6V50.984C133.821 51.0907 133.853 51.176 133.917 51.24C134.002 51.304 134.098 51.336 134.205 51.336H148.189C149 51.336 149.736 51.5387 150.397 51.944C151.08 52.3493 151.624 52.8933 152.029 53.576C152.434 54.2373 152.637 54.984 152.637 55.816V60.552C152.637 61.3627 152.434 62.1093 152.029 62.792C151.624 63.4533 151.08 63.9867 150.397 64.392C149.736 64.7973 149 65 148.189 65H134.045Z" fill="#981921"/>
</svg>
