<svg width="512" height="437" viewBox="0 0 512 437" fill="none" xmlns="http://www.w3.org/2000/svg">
<g clip-path="url(#clip0_1532_20603)">
<path opacity="0.18" d="M238.326 1.63519C179.203 9.45705 123.369 45.1188 94.8241 97.7324C86.6373 112.872 80.4835 129.074 71.6281 143.873C61.6947 160.226 48.432 174.479 37.9802 190.518C6.28344 238.758 3.49991 303.09 26.5322 355.404C43.8883 394.854 77.0178 417.829 120.285 417.993C141.585 418.061 161.533 410.566 182.423 409.544C211.255 408.181 241.532 417.38 269.231 424.166C300.177 431.742 331.751 439.155 363.571 437.207C395.39 435.258 428.015 422.667 446.995 397.103C465.784 371.811 468.554 337.812 464.146 306.633C459.739 275.455 448.891 245.544 443.092 214.624C436.406 178.854 436.27 141.543 423.58 107.448C404.123 55.1891 355.248 16.3387 300.86 4.1698C280.328 -0.354415 259.157 -1.21253 238.326 1.63519V1.63519Z" fill="#FFB443"/>
<path d="M329.268 72.0592V350.253C329.265 356.694 326.702 362.869 322.143 367.425C317.585 371.98 311.402 374.543 304.953 374.55H184.375C177.922 374.55 171.734 371.99 167.172 367.434C162.609 362.877 160.046 356.697 160.046 350.253V72.0592C160.044 68.8685 160.672 65.7087 161.893 62.7602C163.114 59.8117 164.904 57.1322 167.162 54.8748C169.42 52.6174 172.101 50.8262 175.052 49.6035C178.003 48.3808 181.166 47.7506 184.361 47.7488H304.953C308.148 47.7506 311.311 48.3808 314.262 49.6035C317.213 50.8262 319.894 52.6174 322.152 54.8748C324.41 57.1322 326.201 59.8117 327.421 62.7602C328.642 65.7087 329.27 68.8685 329.268 72.0592V72.0592Z" fill="#FFB443"/>
<path d="M302.402 51.8777H186.899C173.907 51.8777 163.375 62.3958 163.375 75.3705V346.424C163.375 359.399 173.907 369.917 186.899 369.917H302.402C315.393 369.917 325.925 359.399 325.925 346.424V75.3705C325.925 62.3958 315.393 51.8777 302.402 51.8777Z" fill="#473F47"/>
<path d="M321.504 78.0415V340.51C321.443 346.46 319.018 352.142 314.763 356.308C310.508 360.473 304.771 362.78 298.813 362.722H190.597C186.644 362.732 182.755 361.718 179.312 359.778C175.861 357.875 172.981 355.085 170.97 351.698C168.96 348.31 167.893 344.448 167.878 340.51V78.0415C167.943 72.0877 170.373 66.4034 174.633 62.2382C178.893 58.0729 184.635 55.7678 190.597 55.8296H208.881V59.0592C208.925 61.1784 209.597 63.2371 210.811 64.9758C212.025 66.7145 213.727 68.0554 215.703 68.8297C217.007 69.3426 218.395 69.6106 219.796 69.62H270.064C272.931 69.6204 275.682 68.4943 277.725 66.4851C279.767 64.4759 280.936 61.7449 280.979 58.882V55.8296H298.718C304.576 55.7968 310.226 58.0057 314.505 62.0026C316.712 64.0525 318.473 66.5345 319.677 69.294C320.881 72.0535 321.503 75.0313 321.504 78.0415Z" fill="#FFB443"/>
<path opacity="0.1" d="M321.504 202.578V279.216H255.082C254.171 279.218 253.269 279.04 252.427 278.693C251.585 278.345 250.82 277.836 250.176 277.192C249.532 276.549 249.022 275.785 248.674 274.945C248.326 274.104 248.148 273.203 248.15 272.293V272.293V209.514C248.147 208.605 248.323 207.703 248.669 206.862C249.015 206.021 249.524 205.256 250.167 204.611C250.809 203.967 251.573 203.456 252.414 203.107C253.256 202.758 254.157 202.578 255.068 202.578H321.504Z" fill="#020202"/>
<path d="M131.119 267.77H180.609C181.033 267.77 181.454 267.853 181.846 268.015C182.239 268.178 182.595 268.416 182.895 268.715C183.196 269.015 183.434 269.371 183.596 269.763C183.759 270.155 183.843 270.575 183.843 270.999V270.999C183.843 271.856 183.502 272.677 182.895 273.283C182.289 273.888 181.466 274.229 180.609 274.229H131.119C130.262 274.229 129.439 273.888 128.833 273.283C128.226 272.677 127.885 271.856 127.885 270.999V270.999C127.885 270.575 127.969 270.155 128.132 269.763C128.294 269.371 128.532 269.015 128.833 268.715C129.133 268.416 129.489 268.178 129.882 268.015C130.274 267.853 130.695 267.77 131.119 267.77V267.77Z" fill="#473F47"/>
<path d="M139.129 250.49L137.641 260.193L141.735 260.67L146.183 250.395L139.129 250.49Z" fill="#FCBDBA"/>
<path d="M142.949 259.239C142.76 259.073 142.591 258.885 142.444 258.68C142.242 258.803 142.016 258.882 141.781 258.912C141.546 258.943 141.307 258.924 141.08 258.857L139.047 258.503C138.684 258.464 138.329 258.368 137.996 258.217C137.973 258.204 137.948 258.197 137.921 258.197C137.895 258.197 137.869 258.204 137.846 258.217V258.217L137.396 259.062C136.657 260.555 136.226 262.182 136.127 263.845C140.001 264.756 143.98 265.141 147.957 264.989C148.276 265.029 148.601 264.985 148.898 264.861C149.194 264.736 149.453 264.536 149.649 264.281C149.724 264.109 149.763 263.923 149.763 263.736C149.763 263.548 149.724 263.363 149.649 263.191C149.464 262.795 149.201 262.442 148.875 262.151C148.549 261.861 148.167 261.639 147.752 261.501C146.702 261.051 145.624 260.697 144.587 260.138C143.998 259.923 143.446 259.62 142.949 259.239V259.239Z" fill="#FFB443"/>
<path d="M166.5 253.447L165.218 263.177L169.311 263.572L173.554 253.202L166.5 253.447Z" fill="#FCBDBA"/>
<path opacity="0.1" d="M305.622 117.655V147.73C305.622 151.684 304.049 155.475 301.25 158.271C298.45 161.067 294.653 162.638 290.694 162.638H203.3L167.823 203.328V102.761H290.626C292.586 102.748 294.529 103.122 296.344 103.859C298.159 104.597 299.811 105.685 301.205 107.06C302.599 108.436 303.707 110.073 304.468 111.877C305.228 113.68 305.625 115.616 305.635 117.573L305.622 117.655Z" fill="#020202"/>
<path d="M287.106 89.9514H188.25C180.013 89.9514 173.336 96.6198 173.336 104.846V134.948C173.336 143.173 180.013 149.842 188.25 149.842H287.106C295.343 149.842 302.02 143.173 302.02 134.948V104.846C302.02 96.6198 295.343 89.9514 287.106 89.9514Z" fill="white"/>
<path opacity="0.1" d="M190.679 142.402C190.176 142.442 189.671 142.362 189.205 142.17C188.842 141.908 188.534 141.577 188.3 141.196C188.066 140.815 187.909 140.391 187.841 139.949C185.398 132.44 180.363 125.109 172.831 122.861C170.866 130.873 171.017 139.213 171.167 147.484C171.167 149.692 171.412 152.213 173.172 153.521C174.332 154.229 175.676 154.576 177.034 154.516C185.593 154.826 194.094 153.005 201.772 149.215C204.091 148.07 208.84 143.587 204.419 142.129C203.054 141.679 200.121 142.361 198.702 142.374L190.679 142.402Z" fill="#020202"/>
<path d="M299.645 100.485C305.584 100.485 310.397 95.6775 310.397 89.7471C310.397 83.8166 305.584 79.009 299.645 79.009C293.707 79.009 288.893 83.8166 288.893 89.7471C288.893 95.6775 293.707 100.485 299.645 100.485Z" fill="#FFB443"/>
<path d="M201.704 109.084H271.578C272.364 109.084 273.117 109.395 273.672 109.95C274.227 110.504 274.539 111.257 274.539 112.041V112.041C274.539 112.825 274.227 113.577 273.672 114.132C273.117 114.686 272.364 114.998 271.578 114.998H201.704C200.918 114.998 200.165 114.686 199.61 114.132C199.055 113.577 198.743 112.825 198.743 112.041V112.041C198.743 111.257 199.055 110.504 199.61 109.95C200.165 109.395 200.918 109.084 201.704 109.084Z" fill="#E52440"/>
<path d="M271.578 124.85H201.704C200.068 124.85 198.743 126.174 198.743 127.807C198.743 129.44 200.068 130.764 201.704 130.764H271.578C273.214 130.764 274.539 129.44 274.539 127.807C274.539 126.174 273.214 124.85 271.578 124.85Z" fill="#E52440"/>
<path d="M138.774 182.86L144.846 216.628L138.774 252.957L148.625 253.706L162.98 212.798L158.108 180.38L138.774 182.86Z" fill="#473F47"/>
<path d="M172.777 180.38L183.72 225.322L174.864 256.282L166.118 255.832L167.332 229.423L151.9 186.744L172.777 180.38Z" fill="#473F47"/>
<path d="M202.959 143.11C204.27 142.333 205.679 141.732 207.148 141.325C207.377 141.226 207.627 141.183 207.876 141.2C208.125 141.216 208.367 141.292 208.58 141.42C208.809 141.632 208.959 141.916 209.003 142.224C209.236 143.215 209.154 144.253 208.772 145.195C210.428 146.104 212.163 146.861 213.957 147.457C214.331 147.52 214.689 147.661 215.006 147.869C215.323 148.078 215.593 148.351 215.799 148.67C215.911 149.003 215.92 149.361 215.825 149.699C215.73 150.037 215.536 150.339 215.266 150.564C214.721 151.002 214.073 151.293 213.383 151.409C208.881 152.458 201.553 151.409 200.489 146.04C200.257 144.868 200.68 144.677 201.622 143.982C202.058 143.669 202.495 143.383 202.959 143.11Z" fill="#FCBDBA"/>
<path d="M169.079 101.63C170.113 103.672 170.774 105.883 171.03 108.157C171.148 109.295 170.968 110.443 170.506 111.49C170.044 112.537 169.317 113.445 168.397 114.126C167.841 114.389 167.318 114.719 166.841 115.107C165.204 116.797 167.087 119.863 166.132 122.043C165.762 122.76 165.137 123.313 164.379 123.593C163.622 123.873 162.787 123.859 162.038 123.555C161.298 123.221 160.642 122.726 160.118 122.106C159.594 121.485 159.215 120.756 159.009 119.972C158.585 118.386 158.396 116.747 158.45 115.107L158.286 105.336C158.056 103.166 158.394 100.973 159.268 98.9725C159.856 97.9518 160.716 97.1137 161.751 96.5509C162.787 95.9881 163.958 95.7225 165.136 95.7838C167.564 96.1381 168.26 99.7083 169.079 101.63Z" fill="#FCBDBA"/>
<path d="M203.191 150.373C203.191 150.373 184.443 167.093 183.106 167.093C181.769 167.093 173.459 156.587 173.459 156.587L172.777 180.38C170.458 181.738 168.046 182.931 165.559 183.95C161.465 185.613 156.376 187.152 151.914 186.675C142.799 185.844 138.788 182.792 138.788 182.792L144.396 126.744C144.396 126.744 155.011 119.127 158.641 120.285C161.235 120.748 163.892 120.748 166.486 120.285C171.726 119.59 177.088 126.744 177.088 126.744L184.047 149.61L200.421 143.805C201.494 144.491 202.334 145.486 202.829 146.659C203.323 147.832 203.45 149.127 203.191 150.373V150.373Z" fill="#E52440"/>
<path d="M171.153 91.1098C171.276 89.8797 170.988 88.6436 170.334 87.594C169.065 85.8361 166.5 85.6726 164.385 86.1496C162.932 86.5505 161.524 87.0985 160.183 87.7848C159.205 88.1935 158.135 88.3301 157.085 88.18C154.297 88.1424 151.595 89.1487 149.512 91.0007C146.674 93.7261 145.992 97.6916 145.706 101.425C145.392 105.65 147.302 109.138 150.058 112.327C152.446 115.134 156.758 117.887 159.855 114.344C161.226 112.537 161.851 110.274 161.602 108.021C160.854 107.961 160.145 107.664 159.578 107.174C159.011 106.684 158.616 106.026 158.45 105.295C158.336 104.842 158.354 104.365 158.501 103.921C158.649 103.477 158.92 103.084 159.282 102.788C159.505 102.652 159.752 102.561 160.011 102.521C160.269 102.481 160.532 102.492 160.786 102.554C161.04 102.616 161.278 102.728 161.489 102.883C161.699 103.037 161.877 103.232 162.011 103.456C162.092 103.598 162.156 103.749 162.202 103.905C162.648 103.008 162.969 102.055 163.157 101.071C163.526 100.131 164.713 99.3132 165.49 99.94C165.941 100.308 166.214 101.085 166.787 100.962C166.978 100.894 167.144 100.77 167.264 100.608C168.395 99.5195 169.352 98.2649 170.102 96.8876C170.784 95.255 171.141 93.5054 171.153 91.7366C171.139 91.5594 171.153 91.3278 171.153 91.1098Z" fill="#FC682D"/>
<path d="M134.312 88.9841C132.341 88.7429 130.344 89.1114 128.59 90.0398C126.835 90.9682 125.408 92.4119 124.502 94.1759C122.332 98.6047 123.888 103.824 124.242 108.743C124.566 110.45 124.3 112.215 123.486 113.75C122.673 115.286 121.362 116.499 119.767 117.192C116.287 119.277 112.303 120.68 109.52 123.637C107.333 126.071 106.043 129.176 105.863 132.44C105.683 133.805 105.92 135.192 106.545 136.419C107.157 137.32 107.952 138.081 108.878 138.654C111.441 140.518 114.351 141.851 117.437 142.577C120.523 143.302 123.722 143.405 126.848 142.879C133.043 141.611 138.624 136.815 139.934 130.614C141.298 124.073 137.983 117.573 136.727 111.019C136.49 110.251 136.412 109.442 136.499 108.643C136.586 107.844 136.835 107.071 137.232 106.372C138.269 105.009 140.207 104.655 141.694 103.769C149.853 98.9862 140.289 89.8289 134.312 88.9841Z" fill="#FC682D"/>
<path d="M145.91 95.3477H145.787C144.077 95.3477 142.69 96.7326 142.69 98.441V98.5636C142.69 100.272 144.077 101.657 145.787 101.657H145.91C147.621 101.657 149.007 100.272 149.007 98.5636V98.441C149.007 96.7326 147.621 95.3477 145.91 95.3477Z" fill="#FFB443"/>
<path d="M170.498 262.128C170.305 261.962 170.131 261.774 169.98 261.569C169.779 261.695 169.554 261.779 169.319 261.814C169.084 261.849 168.844 261.835 168.615 261.773L166.568 261.474C166.205 261.435 165.85 261.338 165.518 261.188H165.368L164.945 262.046C164.238 263.556 163.839 265.191 163.771 266.856C167.665 267.688 171.654 267.986 175.629 267.742C175.947 267.78 176.269 267.731 176.562 267.602C176.855 267.472 177.107 267.267 177.293 267.006C177.368 266.834 177.407 266.649 177.407 266.461C177.407 266.274 177.368 266.088 177.293 265.916C177.098 265.528 176.827 265.182 176.497 264.899C176.166 264.616 175.783 264.401 175.369 264.267C174.305 263.845 173.213 263.504 172.176 263.014C171.58 262.795 171.015 262.497 170.498 262.128Z" fill="#FFB443"/>
<path d="M171.371 274.188H165.095L160.073 287.719H134.148L139.17 274.188H132.893L88.8206 393.137H95.0971L99.4635 381.377H125.388L121.022 393.137H127.299L131.665 381.377H131.842V380.873L171.044 275.101V393.137H177.334V274.188H171.371ZM158.354 292.298L151.832 310.013H125.907L132.456 292.298H158.354ZM117.666 332.225L124.201 314.592H150.126L143.591 332.225H117.666ZM141.858 336.844L135.335 354.478H109.41L115.946 336.844H141.858ZM101.183 376.785L107.705 359.07H133.63L127.08 376.785H101.183Z" fill="#E52440"/>
<path d="M171.371 274.188H165.095L160.073 287.719H134.148L139.17 274.188H132.893L88.8206 393.137H95.0971L99.4635 381.377H125.388L121.022 393.137H127.299L131.665 381.377H131.842V380.873L171.044 275.101V393.137H177.334V274.188H171.371ZM158.354 292.298L151.832 310.013H125.907L132.456 292.298H158.354ZM117.666 332.225L124.201 314.592H150.126L143.591 332.225H117.666ZM141.858 336.844L135.335 354.478H109.41L115.946 336.844H141.858ZM101.183 376.785L107.705 359.07H133.63L127.08 376.785H101.183Z" fill="url(#paint0_linear_1532_20603)"/>
<path d="M349.558 194.334H255.082C251.253 194.334 248.15 197.433 248.15 201.256V264.036C248.15 267.859 251.253 270.958 255.082 270.958H349.558C353.386 270.958 356.489 267.859 356.489 264.036V201.256C356.489 197.433 353.386 194.334 349.558 194.334Z" fill="white"/>
<path opacity="0.5" d="M234.806 203.328H192.766C190.679 203.328 188.987 205.018 188.987 207.102V207.116C188.987 209.201 190.679 210.891 192.766 210.891H234.806C236.893 210.891 238.585 209.201 238.585 207.116V207.102C238.585 205.018 236.893 203.328 234.806 203.328Z" fill="white"/>
<path opacity="0.5" d="M234.806 218.331H192.766C190.679 218.331 188.987 220.021 188.987 222.105V222.119C188.987 224.204 190.679 225.894 192.766 225.894H234.806C236.893 225.894 238.585 224.204 238.585 222.119V222.105C238.585 220.021 236.893 218.331 234.806 218.331Z" fill="white"/>
<path opacity="0.5" d="M234.806 233.334H192.766C190.679 233.334 188.987 235.024 188.987 237.109V237.123C188.987 239.207 190.679 240.897 192.766 240.897H234.806C236.893 240.897 238.585 239.207 238.585 237.123V237.109C238.585 235.024 236.893 233.334 234.806 233.334Z" fill="white"/>
<path opacity="0.5" d="M302.258 295.542H197.397C192.462 295.542 190.792 297.386 190.792 299.662V299.677C190.792 301.952 192.462 303.797 197.397 303.797H302.258C307.192 303.797 308.038 301.952 308.038 299.677V299.662C308.038 297.386 307.192 295.542 302.258 295.542Z" fill="white"/>
<path opacity="0.5" d="M268.593 310.401H197.209C193.665 310.401 190.792 312.246 190.792 314.522V314.536C190.792 316.812 193.665 318.657 197.209 318.657H268.593C272.137 318.657 275.011 316.812 275.011 314.536V314.522C275.011 312.246 272.137 310.401 268.593 310.401Z" fill="white"/>
<path opacity="0.5" d="M236.611 325.548H194.571C192.484 325.548 190.792 327.238 190.792 329.323V329.336C190.792 331.421 192.484 333.111 194.571 333.111H236.611C238.698 333.111 240.39 331.421 240.39 329.336V329.323C240.39 327.238 238.698 325.548 236.611 325.548Z" fill="white"/>
<path d="M339.925 260.37H264.715V204.922H266.079V259.007H339.925V260.37Z" fill="#E52440"/>
<path d="M265.602 240.447L264.892 239.275L283.859 227.638L311.735 231.944L336.363 217.745L337.046 218.917L311.994 233.361L311.762 233.32L284.145 229.055L265.602 240.447Z" fill="#FFB443"/>
<path d="M284.841 231.454C286.484 231.454 287.815 230.124 287.815 228.483C287.815 226.842 286.484 225.512 284.841 225.512C283.198 225.512 281.866 226.842 281.866 228.483C281.866 230.124 283.198 231.454 284.841 231.454Z" fill="#E52440"/>
<path d="M311.871 235.61C313.514 235.61 314.846 234.28 314.846 232.639C314.846 230.998 313.514 229.668 311.871 229.668C310.228 229.668 308.896 230.998 308.896 232.639C308.896 234.28 310.228 235.61 311.871 235.61Z" fill="#E52440"/>
<path d="M336.2 221.751C337.842 221.751 339.174 220.421 339.174 218.78C339.174 217.14 337.842 215.81 336.2 215.81C334.557 215.81 333.225 217.14 333.225 218.78C333.225 220.421 334.557 221.751 336.2 221.751Z" fill="#E52440"/>
</g>
<defs>
<linearGradient id="paint0_linear_1532_20603" x1="218.473" y1="294.669" x2="20.3846" y2="416.902" gradientUnits="userSpaceOnUse">
<stop offset="0.01"/>
<stop offset="0.08" stop-opacity="0.69"/>
<stop offset="0.21" stop-opacity="0.32"/>
<stop offset="1" stop-opacity="0"/>
</linearGradient>
<clipPath id="clip0_1532_20603">
<rect width="512" height="437" fill="white"/>
</clipPath>
</defs>
</svg>
