<svg width="184" height="125" viewBox="0 0 184 125" fill="none" xmlns="http://www.w3.org/2000/svg">
<path d="M125.088 9.55222H64.2599C59.3247 9.55222 55.324 13.5829 55.324 18.555V87.1919C55.324 92.164 59.3247 96.1947 64.2599 96.1947H125.088C130.023 96.1947 134.024 92.164 134.024 87.1919V18.555C134.024 13.5829 130.023 9.55222 125.088 9.55222Z" fill="white"/>
<path d="M66.4467 96.1947L77.6248 85.898C77.6248 85.898 93.0299 96.9804 107.752 87.1135C122.475 77.2466 122.961 57.8959 116.244 50.4689C109.526 43.042 109.608 48.3261 109.608 48.3261C109.608 48.3261 120.086 77.4984 97.3346 80.4255C74.5833 83.3525 72.3785 76.8304 72.3785 76.8304L58.5406 96.1947H66.4467Z" fill="url(#paint0_linear_1532_21577)"/>
<path d="M55.324 36.363L68.1755 43.9951L89.8401 29.0387L113.796 45.1532L134.024 26.3318V20.0721L113.479 37.9751L90.0332 24.575L67.8701 36.6511L55.324 32.2809V36.363Z" fill="black" fill-opacity="0.2"/>
<path d="M37.7396 43.1973L36.2952 41.3666L51.9517 28.8275L67.8701 36.6511L89.9778 21.8017L114.596 36.9165L139.478 12.6074L141.093 14.2858L114.922 39.8541L90.0332 24.575L68.0482 39.3414L52.251 31.5766L37.7396 43.1973Z" fill="#FFB443"/>
<path d="M48.8443 97.5851C48.4909 97.9408 48.2105 98.3633 48.0192 98.8283C47.8278 99.2932 47.7294 99.7917 47.7294 100.295C47.7294 100.798 47.8278 101.297 48.0192 101.762C48.2105 102.227 48.4909 102.649 48.8443 103.005C49.1974 103.361 49.6167 103.643 50.0782 103.836C50.5398 104.029 51.0345 104.128 51.5341 104.128C52.0337 104.128 52.5284 104.029 52.9899 103.836C53.4514 103.643 53.8707 103.361 54.2238 103.005L78.0319 80.0138C78.745 79.295 79.1456 78.3202 79.1456 77.3039C79.1456 76.2876 78.745 75.3129 78.0319 74.594C77.3184 73.8756 76.3509 73.472 75.3421 73.472C74.3334 73.472 73.3659 73.8756 72.6524 74.594L48.8443 97.5851Z" fill="#E52440"/>
<path d="M65.7402 60.657C65.7405 65.8896 67.2809 71.0045 70.1665 75.355C73.0522 79.7056 77.1535 83.0963 81.9519 85.0985C86.7503 87.1007 92.0302 87.6245 97.124 86.6035C102.218 85.5825 106.897 83.0626 110.569 79.3625C114.241 75.6625 116.742 70.9484 117.755 65.8164C118.769 60.6844 118.248 55.3649 116.261 50.5307C114.273 45.6965 110.907 41.5647 106.589 38.6577C102.271 35.7507 97.1937 34.1991 92.0001 34.1991C88.5514 34.1991 85.1366 34.8834 81.9505 36.2131C78.7644 37.5427 75.8695 39.4916 73.431 41.9485C70.9926 44.4054 69.0583 47.3221 67.7387 50.5321C66.4191 53.7421 65.74 57.1826 65.7402 60.657ZM72.374 60.657C72.3749 56.7465 73.5267 52.924 75.6838 49.673C77.8409 46.4219 80.9064 43.8883 84.4926 42.3924C88.0789 40.8965 92.0249 40.5056 95.8317 41.2691C99.6384 42.0325 103.135 43.9161 105.879 46.6816C108.624 49.447 110.492 52.9702 111.249 56.8057C112.006 60.6412 111.617 64.6166 110.132 68.2294C108.646 71.8422 106.131 74.93 102.903 77.1025C99.6758 79.275 95.8815 80.4345 92.0001 80.4345C89.4223 80.4347 86.8698 79.9233 84.4882 78.9294C82.1067 77.9355 79.9429 76.4786 78.1203 74.642C76.2978 72.8054 74.8523 70.625 73.8663 68.2254C72.8803 65.8259 72.3733 63.2541 72.374 60.657Z" fill="#FFB443"/>
<path d="M65.7402 60.657C65.7405 65.8896 67.2809 71.0045 70.1665 75.355C73.0522 79.7056 77.1535 83.0963 81.9519 85.0985C86.7503 87.1007 92.0302 87.6245 97.124 86.6035C102.218 85.5825 106.897 83.0626 110.569 79.3625C114.241 75.6625 116.742 70.9484 117.755 65.8164C118.769 60.6844 118.248 55.3649 116.261 50.5307C114.273 45.6965 110.907 41.5647 106.589 38.6577C102.271 35.7507 97.1937 34.1991 92.0001 34.1991C88.5514 34.1991 85.1366 34.8834 81.9505 36.2131C78.7644 37.5427 75.8695 39.4916 73.431 41.9485C70.9926 44.4054 69.0583 47.3221 67.7387 50.5321C66.4191 53.7421 65.74 57.1826 65.7402 60.657ZM72.374 60.657C72.3749 56.7465 73.5267 52.924 75.6838 49.673C77.8409 46.4219 80.9064 43.8883 84.4926 42.3924C88.0789 40.8965 92.0249 40.5056 95.8317 41.2691C99.6384 42.0325 103.135 43.9161 105.879 46.6816C108.624 49.447 110.492 52.9702 111.249 56.8057C112.006 60.6412 111.617 64.6166 110.132 68.2294C108.646 71.8422 106.131 74.93 102.903 77.1025C99.6758 79.275 95.8815 80.4345 92.0001 80.4345C89.4223 80.4347 86.8698 79.9233 84.4882 78.9294C82.1067 77.9355 79.9429 76.4786 78.1203 74.642C76.2978 72.8054 74.8523 70.625 73.8663 68.2254C72.8803 65.8259 72.3733 63.2541 72.374 60.657Z" fill="#981921"/>
<path d="M63.7225 58.7373C63.7222 63.9704 65.2622 69.086 68.1477 73.4372C71.0333 77.7884 75.1347 81.1798 79.9334 83.1826C84.7321 85.1853 90.0125 85.7094 95.1068 84.6885C100.201 83.6677 104.881 81.1478 108.553 77.4475C112.226 73.7472 114.727 69.0327 115.741 63.9002C116.754 58.7677 116.234 53.4478 114.246 48.6131C112.258 43.7785 108.892 39.6464 104.573 36.7392C100.254 33.8321 95.1765 32.2806 89.9824 32.2809C83.0178 32.2809 76.3385 35.0683 71.4139 40.0298C66.4892 44.9914 63.7225 51.7207 63.7225 58.7373ZM70.3578 58.7373C70.3575 54.8265 71.5084 51.0034 73.6648 47.7515C75.8212 44.4996 78.8864 41.965 82.4726 40.4683C86.0589 38.9715 90.0051 38.5798 93.8123 39.3427C97.6195 40.1056 101.117 41.9888 103.862 44.7542C106.606 47.5196 108.476 51.043 109.233 54.8787C109.99 58.7144 109.601 62.6902 108.116 66.3033C106.63 69.9164 104.114 73.0045 100.887 75.1771C97.6589 77.3497 93.8642 78.5091 89.9824 78.5088C84.7776 78.5088 79.786 76.4258 76.1057 72.7179C72.4254 69.01 70.3578 63.9811 70.3578 58.7373Z" fill="#E52440"/>
<path d="M141.137 26.3318L138.821 26.1704L139.654 14.0265L126.248 16.204L125.879 13.8953L142.17 11.2502L141.137 26.3318Z" fill="#FFB443"/>
<path d="M83.5012 63.0804H79.1799V69.1456H83.5012V63.0804Z" fill="#FFB443"/>
<path d="M88.8313 56.789H84.51V69.1456H88.8313V56.789Z" fill="#FFB443"/>
<path d="M94.1613 61.6222H89.8401V69.1456H94.1613V61.6222Z" fill="#FFB443"/>
<path d="M99.49 52.8742H95.1687V69.1456H99.49V52.8742Z" fill="#FFB443"/>
<path d="M88.8313 56.789H84.51V69.1456H88.8313V56.789Z" fill="black" fill-opacity="0.2"/>
<path d="M99.49 52.8742H95.1687V69.1456H99.49V52.8742Z" fill="#C4C4C4"/>
<path d="M104.82 48.3291H100.499V69.1456H104.82V48.3291Z" fill="#FFB443"/>
<path d="M89.9839 26.8551C91.843 26.8551 93.3502 25.3366 93.3502 23.4636C93.3502 21.5905 91.843 20.0721 89.9839 20.0721C88.1247 20.0721 86.6176 21.5905 86.6176 23.4636C86.6176 25.3366 88.1247 26.8551 89.9839 26.8551Z" fill="#FFB443"/>
<path d="M89.9839 26.8551C91.843 26.8551 93.3502 25.3366 93.3502 23.4636C93.3502 21.5905 91.843 20.0721 89.9839 20.0721C88.1247 20.0721 86.6176 21.5905 86.6176 23.4636C86.6176 25.3366 88.1247 26.8551 89.9839 26.8551Z" fill="#981921"/>
<path d="M114.425 40.884C116.284 40.884 117.791 39.3656 117.791 37.4925C117.791 35.6195 116.284 34.101 114.425 34.101C112.566 34.101 111.059 35.6195 111.059 37.4925C111.059 39.3656 112.566 40.884 114.425 40.884Z" fill="#FFB443"/>
<path d="M114.425 40.884C116.284 40.884 117.791 39.3656 117.791 37.4925C117.791 35.6195 116.284 34.101 114.425 34.101C112.566 34.101 111.059 35.6195 111.059 37.4925C111.059 39.3656 112.566 40.884 114.425 40.884Z" fill="#981921"/>
<path d="M51.9576 33.8809C53.8168 33.8809 55.3239 32.3625 55.3239 30.4894C55.3239 28.6163 53.8168 27.0979 51.9576 27.0979C50.0985 27.0979 48.5913 28.6163 48.5913 30.4894C48.5913 32.3625 50.0985 33.8809 51.9576 33.8809Z" fill="#FFB443"/>
<path d="M51.9576 33.8809C53.8168 33.8809 55.3239 32.3625 55.3239 30.4894C55.3239 28.6163 53.8168 27.0979 51.9576 27.0979C50.0985 27.0979 48.5913 28.6163 48.5913 30.4894C48.5913 32.3625 50.0985 33.8809 51.9576 33.8809Z" fill="#981921"/>
<path d="M67.9076 41.3666C69.7667 41.3666 71.2739 39.8482 71.2739 37.9751C71.2739 36.102 69.7667 34.5836 67.9076 34.5836C66.0484 34.5836 64.5413 36.102 64.5413 37.9751C64.5413 39.8482 66.0484 41.3666 67.9076 41.3666Z" fill="#FFB443"/>
<path d="M67.9076 41.3666C69.7667 41.3666 71.2739 39.8482 71.2739 37.9751C71.2739 36.102 69.7667 34.5836 67.9076 34.5836C66.0484 34.5836 64.5413 36.102 64.5413 37.9751C64.5413 39.8482 66.0484 41.3666 67.9076 41.3666Z" fill="#981921"/>
<defs>
<linearGradient id="paint0_linear_1532_21577" x1="67.3703" y1="34.2202" x2="136.886" y2="166.468" gradientUnits="userSpaceOnUse">
<stop offset="0.01"/>
<stop offset="0.08" stop-opacity="0.69"/>
<stop offset="0.21" stop-opacity="0.32"/>
<stop offset="1" stop-opacity="0"/>
</linearGradient>
</defs>
</svg>
