<svg width="549" height="415" viewBox="0 0 549 415" fill="none" xmlns="http://www.w3.org/2000/svg">
<path opacity="0.18" d="M214.086 14.498C190.798 29.253 175.107 53.2752 161.164 77.1161C150.869 94.6981 141.041 112.764 128.123 128.607C122.546 135.456 115.868 144.133 108.075 148.261C100.282 152.388 90.8616 153.975 82.8426 158.556C51.1886 176.607 28.5786 210.939 26.7999 247.66C26.448 259.354 27.3068 271.052 29.3624 282.568C33.1759 306.847 39.567 331.519 54.4444 351.067C73.1052 375.588 100.976 385.248 125.922 401.076C152.059 417.706 187.994 416.194 217.87 412.808C252.538 408.802 286.71 400.079 321.589 399.761C356.846 399.429 393.851 407.426 426.259 393.487C438.965 388.015 450.074 379.458 461.033 370.992C480.477 355.965 500.57 340.167 511.332 318.079C517.784 304.836 520.467 290.051 521.658 275.372C526.255 218.891 507.398 158.783 464.289 122.167C448.07 108.35 428.927 98.145 413.763 83.2539C395.991 65.7323 384.415 42.4357 365.528 26.1841C331.899 -2.72127 251.589 -9.26729 214.086 14.498Z" fill="#FFB443"/>
<path d="M187.225 153.612C186.713 157.951 181.573 164.8 181.573 164.8C179.071 162.199 180.065 160.113 180.065 160.113C181.904 159.282 181.784 153.718 180.277 152.796C178.392 151.647 177.458 152.962 177.006 154.172C175.732 153.982 174.512 153.53 173.42 152.846C172.328 152.162 171.389 151.26 170.66 150.196C169.816 148.941 169.981 143.937 164.736 144.784C159.49 145.63 154.275 150.725 154.275 150.74C154.019 150.982 152.768 148.321 152.768 148.14C152.469 146.607 152.665 145.019 153.325 143.604C154.169 142.093 156.219 141.171 157.591 140.263C159.747 138.873 161.917 137.542 164.148 136.272C166.331 134.839 168.783 133.867 171.353 133.415C176.177 132.871 180.864 135.925 184.06 139.296C187.255 142.667 188.582 147.913 193.993 148.76C194.53 148.766 195.054 148.929 195.501 149.228C195.725 149.496 195.891 149.807 195.987 150.144C196.084 150.48 196.108 150.832 196.058 151.179V155.366C195.949 156.119 196.127 156.886 196.556 157.513C197.204 158.254 198.365 158.193 199.284 158.556C200.072 158.991 200.723 159.637 201.165 160.422C201.607 161.207 201.822 162.1 201.786 163.001C201.692 164.793 201.773 166.591 202.027 168.368C202.329 169.547 202.962 170.59 203.324 171.739C203.998 174.465 203.787 177.336 202.721 179.933C201.421 184.014 199.162 187.721 196.134 190.742C193.07 193.76 189.012 195.55 184.723 195.776C183.095 195.597 181.447 195.847 179.945 196.502C179.125 197.153 178.395 197.911 177.774 198.754C175.263 201.178 171.943 202.579 168.459 202.685C165.779 203.126 163.031 202.589 160.711 201.173C158.511 199.661 157.41 196.305 158.963 194.098C159.385 193.508 160.003 192.858 159.777 192.163C159.611 191.824 159.368 191.529 159.068 191.301C158.621 190.829 158.28 190.265 158.07 189.649C157.859 189.032 157.783 188.377 157.848 187.729C157.912 187.08 158.115 186.454 158.443 185.891C158.77 185.328 159.215 184.843 159.747 184.468C158.817 183.419 158.338 182.044 158.414 180.642C158.49 179.241 159.115 177.926 160.154 176.985C159.187 176.09 158.095 175.342 156.913 174.762C156.325 174.463 155.847 173.984 155.549 173.394C155.251 172.804 155.148 172.134 155.255 171.482C155.569 170.895 155.921 170.329 156.31 169.789C157.305 167.914 155.436 163.379 154.667 161.564C153.16 158.057 151.17 155.835 152.225 151.662C153.597 146.265 158.465 142.38 163.696 140.505C167.886 138.994 177.699 136.242 181.467 138.767C185.236 141.291 187.723 149.243 187.225 153.612Z" fill="#473F47"/>
<path d="M168.459 182.14C168.747 181.822 169.071 181.538 169.424 181.293C171.365 180.18 173.38 179.2 175.453 178.36C178.136 176.985 180.789 175.548 183.367 173.991C188.28 170.968 196.194 165.812 203.761 168.73C211.328 171.648 213.528 180.688 214.84 187.673C215.488 191.165 215.066 194.778 215.699 198.165C216.437 202.201 219.663 206.616 221.969 209.911C222.495 210.725 223.134 211.458 223.869 212.088C225.376 213.328 227.682 213.6 229.114 215.112C229.796 215.919 230.248 216.895 230.423 217.938C230.598 218.981 230.49 220.052 230.109 221.038C229.327 223.007 228.193 224.815 226.763 226.375C225.12 228.37 223.477 230.381 221.683 232.255C215.87 238.209 208.805 242.786 201.002 245.65C200.471 245.916 199.866 245.996 199.284 245.877C198.5 245.635 198.123 244.788 197.777 244.032C195.353 238.132 191.926 232.7 187.647 227.977C183.804 223.759 178.875 221.643 175.152 217.243C172.936 214.598 169.318 210.153 168.972 206.661C168.972 206.117 169.379 205.406 169.167 204.922C168.956 204.439 167.464 203.652 166.876 203.244C164.988 201.885 163.218 200.368 161.586 198.709C161.308 198.465 161.109 198.144 161.013 197.787C160.995 197.472 161.063 197.159 161.209 196.88C162.324 194.053 163.455 191.226 164.796 188.504C165.719 186.224 166.951 184.082 168.459 182.14Z" fill="#E52440"/>
<path d="M178.829 159.781C179.643 163.681 178.618 172.011 172.875 173.387C174.059 174.115 175.011 175.165 175.622 176.415C176.233 177.664 176.478 179.063 176.327 180.447C176.327 180.447 180.277 183.667 187.738 171.376C187.738 171.376 184.723 172.888 182.025 166.281C181.084 164.06 180.696 161.642 180.895 159.236C180.841 159.448 180.731 159.641 180.578 159.797C180.424 159.952 180.232 160.063 180.022 160.118C179.811 160.174 179.589 160.172 179.38 160.112C179.17 160.053 178.98 159.938 178.829 159.781V159.781Z" fill="#9F685D"/>
<path d="M179.267 161.731C179.267 161.731 182.628 173.281 178.332 175.155C174.036 177.03 170.795 170.62 170.795 170.62L179.267 161.731Z" fill="#77433C"/>
<path d="M154.396 142.758C154.396 142.758 148.005 146.9 151.381 157.619C154.757 168.337 164.314 162.774 164.314 162.774L160.696 142.803L154.396 142.758Z" fill="#473F47"/>
<path d="M176.689 171.935C170.976 175.836 164.178 172.298 159.37 165.359C158.857 164.603 158.36 163.847 157.863 162.955C156.507 160.569 155.434 158.033 154.667 155.396C150.944 142.667 169.439 138.117 169.439 138.117C185.16 136.665 186.547 165.178 176.689 171.935Z" fill="#9F685D"/>
<path d="M185.763 165.117L186.909 161.595C187.498 159.999 187.898 158.34 188.1 156.651" fill="#473F47"/>
<path d="M210.393 170.303C212.301 172.056 214.023 174.001 215.533 176.108L217.673 178.889C218.181 179.429 218.517 180.108 218.638 180.84C218.744 182.185 216.483 182.896 215.623 183.621L210.664 187.567C207.429 190.137 204.163 192.687 200.867 195.217C199.626 193.506 198.613 191.641 197.852 189.669C197.219 187.779 197.053 185.738 196.51 183.803C196.073 182.215 195.395 180.779 195.003 179.131C194.117 175.812 194.399 172.288 195.802 169.154C198.003 164.271 207.273 167.808 210.107 170.151L210.393 170.303Z" fill="white"/>
<path d="M415.24 181.777L414.923 181.58C412.693 180.356 410.401 179.388 408.095 178.239C405.412 176.864 402.759 175.443 400.182 173.87C395.268 170.847 387.354 165.692 379.787 168.609C372.221 171.527 370.02 180.583 368.709 187.552C368.06 191.059 368.482 194.657 367.849 198.044C367.096 202.08 363.885 206.495 361.579 209.79C361.062 210.61 360.421 211.344 359.68 211.967C358.097 213.207 355.866 213.479 354.434 214.991C351.012 218.423 354.434 223.684 357.027 226.344C360.041 229.207 362.698 232.425 364.94 235.929C370.623 245 376.426 254.554 377.768 265.227L389.404 237.244C390.961 233.05 393.01 229.055 395.509 225.347C400.658 218.708 407.547 213.635 415.406 210.697C422.867 208.233 430.811 212.496 438.272 209.972C444.663 207.81 448.371 201.294 451.461 195.262C455.26 187.869 459.073 180.144 459.194 171.799C459.194 171.346 452.305 169.955 451.657 169.804C450.677 169.592 448.642 168.745 447.648 169.017C446.653 169.29 446.758 169.909 446.547 171.058C445.688 176.032 443.186 180.507 440.744 184.846L437.157 191.211C437.02 191.5 436.819 191.753 436.569 191.951C436.291 192.102 435.98 192.18 435.664 192.178C432.74 192.38 429.807 191.955 427.059 190.931C424.312 189.906 421.814 188.306 419.732 186.237C418.413 184.58 416.905 183.083 415.24 181.777V181.777Z" fill="#E52440"/>
<path d="M415.24 181.777L414.923 181.58C412.693 180.356 410.401 179.388 408.095 178.239C405.412 176.864 402.759 175.443 400.182 173.87C395.268 170.847 387.354 165.692 379.787 168.609C372.221 171.527 370.02 180.583 368.709 187.552C368.06 191.059 368.482 194.657 367.849 198.044C367.096 202.08 363.885 206.495 361.579 209.79C361.062 210.61 360.421 211.344 359.68 211.967C358.097 213.207 355.866 213.479 354.434 214.991C351.012 218.423 354.434 223.684 357.027 226.344C360.041 229.207 362.698 232.425 364.94 235.929C370.623 245 376.426 254.554 377.768 265.227L389.404 237.244C390.961 233.05 393.01 229.055 395.509 225.347C400.658 218.708 407.547 213.635 415.406 210.697C422.867 208.233 430.811 212.496 438.272 209.972C444.663 207.81 448.371 201.294 451.461 195.262C455.26 187.869 459.073 180.144 459.194 171.799C459.194 171.346 452.305 169.955 451.657 169.804C450.677 169.592 448.642 168.745 447.648 169.017C446.653 169.29 446.758 169.909 446.547 171.058C445.688 176.032 443.186 180.507 440.744 184.846L437.157 191.211C437.02 191.5 436.819 191.753 436.569 191.951C436.291 192.102 435.98 192.18 435.664 192.178C432.74 192.38 429.807 191.955 427.059 190.931C424.312 189.906 421.814 188.306 419.732 186.237C418.413 184.58 416.905 183.083 415.24 181.777V181.777Z" fill="url(#paint0_linear_1532_20642)"/>
<path d="M404.779 159.66C403.965 163.56 404.99 171.89 410.808 173.341C409.628 174.072 408.677 175.122 408.066 176.372C407.455 177.621 407.209 179.018 407.356 180.401C407.356 180.401 403.407 183.621 395.946 171.331C395.946 171.331 399.036 172.752 401.659 166.236C402.599 164.009 402.987 161.586 402.789 159.176C402.857 159.368 402.971 159.541 403.122 159.677C403.273 159.814 403.455 159.911 403.653 159.959C403.851 160.007 404.057 160.005 404.254 159.953C404.45 159.9 404.631 159.8 404.779 159.66Z" fill="#FAB8AC"/>
<path d="M404.342 161.61C404.342 161.61 400.98 173.175 405.276 175.05C409.572 176.924 412.813 170.514 412.813 170.514L404.342 161.61Z" fill="#DB9E94"/>
<path d="M406.919 171.829C412.632 175.715 419.43 172.177 424.239 165.238C424.751 164.482 425.248 163.726 425.746 162.834C427.104 160.45 428.177 157.912 428.941 155.275C432.664 142.546 414.17 137.996 414.17 137.996C398.448 136.544 397.001 165.057 406.919 171.829Z" fill="#FAB8AC"/>
<path d="M354.389 33.4407H221.186C206.343 33.4407 194.31 45.5089 194.31 60.3958V369.042C194.31 383.929 206.343 395.997 221.186 395.997H354.389C369.232 395.997 381.265 383.929 381.265 369.042V60.3958C381.265 45.5089 369.232 33.4407 354.389 33.4407Z" fill="#FFB443"/>
<path d="M351.585 38.0063H223.989C209.637 38.0063 198.003 49.6752 198.003 64.0695V364.779C198.003 379.173 209.637 390.842 223.989 390.842H351.585C365.937 390.842 377.571 379.173 377.571 364.779V64.0695C377.571 49.6752 365.937 38.0063 351.585 38.0063Z" fill="#473F47"/>
<path d="M372.688 67.0175V358.202C372.62 364.804 369.942 371.108 365.241 375.728C360.54 380.349 354.203 382.909 347.621 382.845H228.074C223.707 382.858 219.411 381.733 215.609 379.579C211.795 377.467 208.614 374.372 206.393 370.614C204.172 366.856 202.993 362.571 202.977 358.202V67.0175C203.064 60.4229 205.755 54.1322 210.46 49.5243C215.165 44.9163 221.499 42.3673 228.074 42.4359H248.348V46.0189C248.399 48.3695 249.142 50.6525 250.483 52.5811C251.824 54.5096 253.703 55.9977 255.884 56.8583C257.349 57.4373 258.908 57.7348 260.482 57.7352H316.012C319.179 57.7355 322.219 56.4863 324.476 54.2572C326.732 52.0282 328.023 48.9984 328.071 45.8223V42.4359H347.666C354.096 42.4217 360.289 44.8652 364.985 49.2692C367.411 51.5419 369.347 54.2896 370.671 57.3424C371.996 60.3952 372.683 63.6881 372.688 67.0175V67.0175Z" fill="white"/>
<path opacity="0.41" d="M368.889 266.815H207.198V365.822H368.889V266.815Z" fill="#FFB443"/>
<path d="M229.325 304.126C236.435 304.126 242.198 298.345 242.198 291.215C242.198 284.085 236.435 278.304 229.325 278.304C222.216 278.304 216.453 284.085 216.453 291.215C216.453 298.345 222.216 304.126 229.325 304.126Z" fill="#E52440"/>
<path d="M345.616 279.877H256.909C255.036 279.877 253.518 281.4 253.518 283.278C253.518 285.157 255.036 286.68 256.909 286.68H345.616C347.489 286.68 349.007 285.157 349.007 283.278C349.007 281.4 347.489 279.877 345.616 279.877Z" fill="#E52440"/>
<path d="M307.254 295.191H256.909C255.036 295.191 253.518 296.714 253.518 298.592C253.518 300.471 255.036 301.994 256.909 301.994H307.254C309.127 301.994 310.646 300.471 310.646 298.592C310.646 296.714 309.127 295.191 307.254 295.191Z" fill="#E52440"/>
<path opacity="0.41" d="M368.889 154.414H207.198V260.284H368.889V154.414Z" fill="#FFB443"/>
<path d="M229.325 191.725C236.435 191.725 242.198 185.944 242.198 178.814C242.198 171.684 236.435 165.903 229.325 165.903C222.216 165.903 216.453 171.684 216.453 178.814C216.453 185.944 222.216 191.725 229.325 191.725Z" fill="#E52440"/>
<path d="M345.616 167.476H256.909C255.036 167.476 253.518 168.998 253.518 170.877C253.518 172.756 255.036 174.279 256.909 174.279H345.616C347.489 174.279 349.007 172.756 349.007 170.877C349.007 168.998 347.489 167.476 345.616 167.476Z" fill="#E52440"/>
<path d="M345.343 214.749H256.637C254.764 214.749 253.245 216.272 253.245 218.151C253.245 220.029 254.764 221.552 256.637 221.552H345.343C347.217 221.552 348.735 220.029 348.735 218.151C348.735 216.272 347.217 214.749 345.343 214.749Z" fill="#E52440"/>
<path d="M307.254 182.79H256.909C255.036 182.79 253.518 184.313 253.518 186.192C253.518 188.07 255.036 189.593 256.909 189.593H307.254C309.127 189.593 310.646 188.07 310.646 186.192C310.646 184.313 309.127 182.79 307.254 182.79Z" fill="#E52440"/>
<path d="M306.982 199.345H256.637C254.764 199.345 253.245 200.868 253.245 202.746C253.245 204.625 254.764 206.148 256.637 206.148H306.982C308.855 206.148 310.373 204.625 310.373 202.746C310.373 200.868 308.855 199.345 306.982 199.345Z" fill="#E52440"/>
<path d="M372.688 67.0175V90.813H202.977V67.0175C203.064 60.4229 205.755 54.1322 210.46 49.5243C215.165 44.9163 221.499 42.3673 228.074 42.4359H248.348V46.0189C248.399 48.3695 249.142 50.6525 250.483 52.5811C251.824 54.5096 253.703 55.9977 255.884 56.8583C257.349 57.4373 258.908 57.7348 260.482 57.7352H316.012C319.179 57.7355 322.219 56.4863 324.476 54.2572C326.732 52.0282 328.023 48.9984 328.071 45.8223V42.4359H347.666C354.096 42.4217 360.289 44.8652 364.985 49.2692C367.411 51.5419 369.347 54.2896 370.671 57.3424C371.996 60.3952 372.683 63.6881 372.688 67.0175V67.0175Z" fill="#FFB443"/>
<path d="M372.688 67.0175V90.813H202.977V67.0175C203.064 60.4229 205.755 54.1322 210.46 49.5243C215.165 44.9163 221.499 42.3673 228.074 42.4359H248.348V46.0189C248.399 48.3695 249.142 50.6525 250.483 52.5811C251.824 54.5096 253.703 55.9977 255.884 56.8583C257.349 57.4373 258.908 57.7348 260.482 57.7352H316.012C319.179 57.7355 322.219 56.4863 324.476 54.2572C326.732 52.0282 328.023 48.9984 328.071 45.8223V42.4359H347.666C354.096 42.4217 360.289 44.8652 364.985 49.2692C367.411 51.5419 369.347 54.2896 370.671 57.3424C371.996 60.3952 372.683 63.6881 372.688 67.0175V67.0175Z" fill="url(#paint1_linear_1532_20642)"/>
<path d="M292.98 72.1272H214.041V86.1717H292.98V72.1272Z" fill="#FFB443"/>
<path d="M354.735 75.937H323.519C321.987 75.937 320.745 77.1824 320.745 78.7187C320.745 80.255 321.987 81.5004 323.519 81.5004H354.735C356.267 81.5004 357.509 80.255 357.509 78.7187C357.509 77.1824 356.267 75.937 354.735 75.937Z" fill="#FFB443"/>
<path d="M309.048 87.0183C313.619 87.0183 317.323 83.3024 317.323 78.7186C317.323 74.1348 313.619 70.4189 309.048 70.4189C304.478 70.4189 300.773 74.1348 300.773 78.7186C300.773 83.3024 304.478 87.0183 309.048 87.0183Z" fill="#FFB443"/>
<path opacity="0.41" d="M368.889 101.063H207.198V147.883H368.889V101.063Z" fill="#FFB443"/>
<path d="M229.325 138.389C236.435 138.389 242.198 132.608 242.198 125.478C242.198 118.348 236.435 112.567 229.325 112.567C222.216 112.567 216.453 118.348 216.453 125.478C216.453 132.608 222.216 138.389 229.325 138.389Z" fill="#E52440"/>
<path d="M345.616 114.125H256.909C255.036 114.125 253.518 115.647 253.518 117.526C253.518 119.405 255.036 120.928 256.909 120.928H345.616C347.489 120.928 349.007 119.405 349.007 117.526C349.007 115.647 347.489 114.125 345.616 114.125Z" fill="#E52440"/>
<path d="M307.254 129.439H256.909C255.036 129.439 253.518 130.962 253.518 132.84C253.518 134.719 255.036 136.242 256.909 136.242H307.254C309.127 136.242 310.646 134.719 310.646 132.84C310.646 130.962 309.127 129.439 307.254 129.439Z" fill="#E52440"/>
<path d="M202.094 298.688C202.094 298.688 243.319 303.783 246.153 266.336C248.987 228.889 209.088 230.869 209.088 230.869C209.088 230.869 202.094 284.492 202.094 298.688Z" fill="url(#paint2_linear_1532_20642)"/>
<path d="M259.246 361.619C276.62 361.619 290.704 347.493 290.704 330.068C290.704 312.643 276.62 298.517 259.246 298.517C241.872 298.517 227.788 312.643 227.788 330.068C227.788 347.493 241.872 361.619 259.246 361.619Z" fill="url(#paint3_linear_1532_20642)"/>
<path d="M345.721 286.68C363.095 286.68 377.18 272.554 377.18 255.129C377.18 237.704 363.095 223.578 345.721 223.578C328.348 223.578 314.263 237.704 314.263 255.129C314.263 272.554 328.348 286.68 345.721 286.68Z" fill="url(#paint4_linear_1532_20642)"/>
<path d="M384.49 347.212C401.864 347.212 415.948 333.086 415.948 315.661C415.948 298.235 401.864 284.11 384.49 284.11C367.116 284.11 353.032 298.235 353.032 315.661C353.032 333.086 367.116 347.212 384.49 347.212Z" fill="url(#paint5_linear_1532_20642)"/>
<path d="M205.606 293.079C225.061 293.079 240.832 277.261 240.832 257.749C240.832 238.236 225.061 222.418 205.606 222.418C186.151 222.418 170.379 238.236 170.379 257.749C170.379 277.261 186.151 293.079 205.606 293.079Z" fill="#FFB443"/>
<path d="M188.302 261.453C188.343 261.843 188.455 262.222 188.633 262.571C188.931 263.059 189.314 263.489 189.764 263.841C194.994 268.377 200.616 272.791 207.249 274.787C207.937 275.043 208.672 275.146 209.404 275.089C209.772 275.055 210.122 274.918 210.416 274.694C210.709 274.469 210.933 274.166 211.062 273.819C211.109 273.507 211.18 273.198 211.273 272.897C211.771 271.839 213.549 272.337 214.393 271.506C214.626 271.216 214.77 270.866 214.81 270.496C214.85 270.126 214.784 269.753 214.62 269.42C214.348 268.739 213.881 268.135 213.625 267.439C214.592 267.32 215.514 266.962 216.308 266.396C216.697 266.108 216.989 265.707 217.142 265.247C217.296 264.787 217.305 264.291 217.167 263.826C216.896 263.131 216.142 262.496 216.368 261.77C216.594 261.044 217.408 260.939 218.011 260.606C218.658 260.145 219.107 259.456 219.269 258.676C219.431 257.897 219.294 257.085 218.885 256.403C218.003 255.062 216.672 254.081 215.132 253.637C213.592 253.236 212.081 252.731 210.61 252.125C210.263 251.943 209.887 251.717 209.796 251.339C209.706 250.961 210.052 250.341 210.414 249.933C211.655 248.676 212.583 247.144 213.122 245.46C213.662 243.776 213.798 241.989 213.519 240.242C213.443 239.575 213.171 238.945 212.74 238.432C212.308 237.918 211.735 237.543 211.092 237.355C210.653 237.33 210.213 237.403 209.804 237.568C209.395 237.732 209.027 237.985 208.726 238.307C208.143 238.968 207.637 239.693 207.219 240.469C204.415 245.004 200.029 249.268 194.391 249.101C193.426 249.101 192.748 248.602 191.889 249.101C191.195 249.654 190.672 250.393 190.382 251.233C188.895 254.249 188.136 257.574 188.166 260.939C188.196 261.113 188.242 261.285 188.302 261.453Z" fill="white"/>
<path d="M394.74 350.991C414.195 350.991 429.966 335.173 429.966 315.661C429.966 296.148 414.195 280.33 394.74 280.33C375.285 280.33 359.514 296.148 359.514 315.661C359.514 335.173 375.285 350.991 394.74 350.991Z" fill="#FFB443"/>
<path d="M377.451 319.38C377.501 319.768 377.613 320.145 377.783 320.498C378.086 320.987 378.474 321.417 378.928 321.768C384.144 326.304 389.781 330.703 396.413 332.713C397.102 332.966 397.838 333.064 398.569 333.001C398.933 332.969 399.281 332.835 399.572 332.612C399.863 332.39 400.085 332.09 400.212 331.746C400.266 331.435 400.337 331.127 400.423 330.824C400.92 329.75 402.699 330.249 403.543 329.433C403.775 329.143 403.92 328.793 403.96 328.423C404 328.053 403.934 327.68 403.769 327.347C403.498 326.651 403.03 326.062 402.789 325.351C403.748 325.228 404.663 324.875 405.457 324.323C405.848 324.037 406.141 323.636 406.295 323.175C406.449 322.715 406.456 322.218 406.316 321.753C406.045 321.042 405.307 320.423 405.518 319.682C405.729 318.941 406.558 318.866 407.161 318.518C407.807 318.056 408.257 317.367 408.419 316.588C408.581 315.809 408.444 314.997 408.035 314.315C407.156 312.974 405.823 311.997 404.282 311.564C402.742 311.161 401.232 310.656 399.76 310.052C399.394 309.902 399.102 309.614 398.946 309.251C398.81 308.737 399.217 308.253 399.564 307.86C400.803 306.599 401.731 305.064 402.273 303.379C402.815 301.693 402.956 299.904 402.684 298.154C402.382 296.854 401.568 295.463 400.242 295.282C399.805 295.249 399.366 295.317 398.959 295.479C398.551 295.641 398.186 295.894 397.89 296.219C397.31 296.881 396.804 297.606 396.383 298.381C393.579 302.916 389.193 307.179 383.556 307.013C382.591 307.013 381.928 306.529 381.054 307.013C380.358 307.564 379.835 308.304 379.546 309.145C378.053 312.159 377.289 315.484 377.315 318.85L377.451 319.38Z" fill="white"/>
<path d="M254.769 356.071C272.143 356.071 286.227 341.945 286.227 324.52C286.227 307.095 272.143 292.969 254.769 292.969C237.395 292.969 223.311 307.095 223.311 324.52C223.311 341.945 237.395 356.071 254.769 356.071Z" fill="#FFB443"/>
<path d="M253.804 319.349C253.804 319.349 242.303 305.365 235.068 318.609C227.833 331.852 258.07 343.644 258.07 343.644C258.07 343.644 275.073 327.921 273.324 318.442C271.576 308.963 255.884 305.244 253.804 319.349Z" fill="white"/>
<path d="M346.792 280.33C364.166 280.33 378.25 266.204 378.25 248.779C378.25 231.354 364.166 217.228 346.792 217.228C329.418 217.228 315.334 231.354 315.334 248.779C315.334 266.204 329.418 280.33 346.792 280.33Z" fill="#FFB443"/>
<path d="M345.827 243.624C345.827 243.624 334.326 229.64 327.091 242.883C319.856 256.126 350.078 267.918 350.078 267.918C350.078 267.918 367.096 252.196 365.347 242.717C363.599 233.238 347.937 229.519 345.827 243.624Z" fill="white"/>
<path d="M156.837 149.591C157.166 149.822 157.52 150.015 157.893 150.166C161.761 151.647 165.93 152.165 170.042 151.677C171.04 151.642 172.022 151.416 172.936 151.012C173.394 150.813 173.802 150.512 174.128 150.133C174.454 149.753 174.691 149.304 174.82 148.82C174.956 148.155 174.82 147.444 174.956 146.779C177.307 148.291 179.854 150.211 180.533 152.993C180.313 152.518 180.19 152.004 180.171 151.481C180.172 151.225 180.251 150.975 180.396 150.765C180.541 150.555 180.747 150.393 180.985 150.302C181.754 150.09 182.492 150.952 182.598 151.738C183.035 153.749 181.965 155.608 181.754 157.558C181.542 159.643 181.437 161.737 181.437 163.832C181.387 164.573 181.5 165.317 181.769 166.009C182.097 166.629 182.542 167.178 183.08 167.627C183.532 166.115 184 164.77 184.376 163.333C184.921 162.102 185.331 160.814 185.597 159.493C186.293 157.697 186.798 155.832 187.105 153.93C187.374 152.44 187.157 150.903 186.487 149.546C185.635 148.308 184.893 146.998 184.271 145.63C183.733 143.82 183.005 142.072 182.1 140.415C181.178 138.746 179.739 137.424 178 136.65C176.97 136.273 175.886 136.058 174.79 136.015C171.027 135.685 167.239 136.239 163.726 137.633C161.026 138.728 158.613 140.43 156.672 142.607C155.27 144.209 154.622 145.449 155.466 147.565C155.719 148.359 156.195 149.063 156.837 149.591V149.591Z" fill="#473F47"/>
<path d="M158.918 169.244C160.017 169.746 161.224 169.97 162.43 169.894C162.517 169.902 162.604 169.875 162.671 169.819C162.694 169.761 162.694 169.696 162.671 169.637C162.628 169.342 162.514 169.062 162.339 168.821C161.405 167.4 159.671 163.273 157.35 164.15C157.11 164.257 156.895 164.414 156.717 164.608C156.54 164.803 156.405 165.033 156.32 165.282C156.235 165.532 156.203 165.797 156.224 166.06C156.246 166.322 156.321 166.578 156.446 166.81C156.988 168.095 158.043 168.367 158.918 169.244Z" fill="#9F685D"/>
<path d="M157.531 215.431C157.23 217.078 157.513 218.778 158.33 220.239C158.988 220.948 159.786 221.512 160.674 221.895C161.561 222.277 162.519 222.47 163.485 222.461C170.557 223.165 177.687 221.937 184.12 218.908C188.718 216.746 193.164 213.617 198.169 213.33C199.082 213.355 199.993 213.232 200.867 212.967C201.433 212.689 201.937 212.3 202.348 211.822C202.76 211.344 203.071 210.787 203.263 210.185C203.741 208.918 203.914 207.556 203.77 206.208C203.626 204.861 203.169 203.567 202.434 202.43C201.891 201.481 201.076 200.717 200.095 200.238C199.114 199.758 198.013 199.584 196.933 199.739C194.385 200.359 193.209 203.231 191.461 205.196C188.883 208.084 184.829 209.112 180.91 209.46C176.991 209.807 173.117 209.641 169.424 210.775L171.624 206.92C171.896 206.519 172.038 206.044 172.031 205.559C171.926 204.788 171.112 204.35 170.404 204.047C168.377 203.063 166.474 201.84 164.736 200.404C162.671 198.711 161.902 197.637 160.696 200.646C158.924 205.392 157.858 210.374 157.531 215.431V215.431Z" fill="#9F685D"/>
<path d="M449.064 171.648C449.896 172.642 451.079 173.276 452.365 173.417C453.195 173.46 454.027 173.389 454.837 173.205C455.356 173.128 455.862 172.986 456.345 172.782C457.084 172.376 457.735 171.826 458.259 171.164C459.45 169.819 460.58 168.413 461.635 166.961C461.892 166.655 462.059 166.284 462.118 165.888C462.155 165.786 462.155 165.673 462.118 165.571C462.064 165.478 461.987 165.401 461.895 165.348C461.802 165.295 461.697 165.267 461.59 165.268C460.505 165.268 459.842 166.689 458.756 166.78C459.405 165.752 460.264 164.875 460.987 163.893C461.762 162.944 462.169 161.747 462.133 160.521C462.133 160.44 462.106 160.36 462.058 160.295C461.922 160.098 461.62 160.295 461.44 160.37C460.143 161.398 459.299 163.046 457.762 163.62C458.051 162.641 458.45 161.697 458.952 160.809C459.544 159.475 459.793 158.015 459.676 156.56C459.676 156.409 459.676 156.213 459.465 156.182C459.254 156.152 459.299 156.182 459.224 156.273C458.341 157.12 457.657 158.153 457.219 159.297C456.67 160.301 455.945 161.197 455.079 161.942C455.269 160.55 455.355 159.145 455.335 157.74C455.335 157.256 455.199 156.651 454.732 156.576C454.008 156.455 453.556 157.755 453.405 158.269C453.127 159.256 452.945 160.269 452.863 161.292C452.863 161.731 452.772 162.169 452.697 162.608C452.411 164.347 451.557 165.942 450.27 167.143C449.837 166.356 449.503 165.518 449.275 164.648C449.166 164.307 448.987 163.993 448.748 163.726C448.619 163.603 448.454 163.525 448.278 163.504C448.101 163.482 447.923 163.517 447.768 163.605C447.595 163.757 447.482 163.966 447.451 164.195C447.27 165.482 447.442 166.794 447.949 167.989C448.033 169.279 448.415 170.532 449.064 171.648V171.648Z" fill="#FAB8AC"/>
<path d="M419.083 132.614C416.771 132.589 414.462 132.807 412.195 133.264C410.48 133.44 408.808 133.911 407.251 134.655C405.943 135.425 404.805 136.454 403.905 137.678C402.082 139.991 400.824 142.7 400.233 145.587C399.641 148.475 399.732 151.462 400.498 154.308C400.151 151.587 402.171 149.198 404.055 147.202L407.326 143.74C407.628 143.395 407.972 143.09 408.351 142.833C409.143 142.498 410.021 142.429 410.856 142.636C411.69 142.843 412.435 143.315 412.979 143.982C414.185 145.207 414.953 146.809 416.189 148.004C418.842 150.619 422.942 150.816 426.409 152.176C426.956 152.331 427.434 152.667 427.766 153.129C428.032 153.762 428.059 154.472 427.841 155.124L426.53 161.338C430.128 158.001 432.953 153.914 434.805 149.364C436.312 145.781 433.192 141.034 430.796 138.313C429.316 136.634 427.519 135.265 425.509 134.287C423.498 133.309 421.314 132.74 419.083 132.614V132.614Z" fill="#FB682D"/>
<defs>
<linearGradient id="paint0_linear_1532_20642" x1="352.987" y1="216.457" x2="459.194" y2="216.457" gradientUnits="userSpaceOnUse">
<stop offset="0.01"/>
<stop offset="0.08" stop-opacity="0.69"/>
<stop offset="0.21" stop-opacity="0.32"/>
<stop offset="1" stop-opacity="0"/>
</linearGradient>
<linearGradient id="paint1_linear_1532_20642" x1="36723" y1="-1275.39" x2="36723" y2="31415.9" gradientUnits="userSpaceOnUse">
<stop offset="0.01"/>
<stop offset="0.08" stop-opacity="0.69"/>
<stop offset="0.21" stop-opacity="0.32"/>
<stop offset="1" stop-opacity="0"/>
</linearGradient>
<linearGradient id="paint2_linear_1532_20642" x1="171.962" y1="214.134" x2="296.312" y2="356.786" gradientUnits="userSpaceOnUse">
<stop offset="0.01"/>
<stop offset="0.13" stop-opacity="0.69"/>
<stop offset="0.25" stop-opacity="0.32"/>
<stop offset="1" stop-opacity="0"/>
</linearGradient>
<linearGradient id="paint3_linear_1532_20642" x1="2835.66" y1="9344.17" x2="18807.4" y2="19925.2" gradientUnits="userSpaceOnUse">
<stop offset="0.01"/>
<stop offset="0.13" stop-opacity="0.69"/>
<stop offset="0.25" stop-opacity="0.32"/>
<stop offset="1" stop-opacity="0"/>
</linearGradient>
<linearGradient id="paint4_linear_1532_20642" x1="6531.63" y1="6141.27" x2="22504" y2="16722.3" gradientUnits="userSpaceOnUse">
<stop offset="0.01"/>
<stop offset="0.13" stop-opacity="0.69"/>
<stop offset="0.25" stop-opacity="0.32"/>
<stop offset="1" stop-opacity="0"/>
</linearGradient>
<linearGradient id="paint5_linear_1532_20642" x1="8188.6" y1="8728.41" x2="24160.3" y2="19309.5" gradientUnits="userSpaceOnUse">
<stop offset="0.01"/>
<stop offset="0.13" stop-opacity="0.69"/>
<stop offset="0.25" stop-opacity="0.32"/>
<stop offset="1" stop-opacity="0"/>
</linearGradient>
</defs>
</svg>
