<svg width="184" height="138" viewBox="0 0 184 138" fill="none" xmlns="http://www.w3.org/2000/svg">
<g clip-path="url(#clip0_1532_22469)">
<path opacity="0.18" d="M143.53 14.0254C156.473 29.0797 155.801 52.206 163.269 70.7958C167.259 80.7619 174.313 89.7739 175.545 100.432C176.748 110.828 171.738 121.851 162.809 128.46C143.37 142.845 119.016 129.965 97.8723 130.241C81.9966 130.452 66.7036 139.127 50.936 137.878C46.0945 137.444 41.3597 136.21 36.9261 134.226C26.4941 129.65 17.9195 121.704 12.5909 111.675C9.37155 105.595 7.89113 97.5933 8.36111 90.742C9.07547 80.2989 9.96841 69.332 16.0123 60.3762C24.0488 48.474 37.0671 46.4723 48.7083 39.6771C61.2801 32.3394 69.8571 20.7786 80.394 11.3036C92.5898 0.360096 111.939 -2.96971 127.076 2.77795C134.272 5.52317 139.545 9.3908 143.53 14.0254Z" fill="#FFB443"/>
<path d="M30.4498 124.929C31.62 126.743 34.0028 127.267 36.1459 127.594C51.4623 129.806 67.0466 128.062 82.4241 126.276C83.6132 126.135 84.9056 125.948 85.714 125.074L83.9516 123.671C96.6713 125.327 109.522 125.76 122.325 124.966C124.139 124.854 126.113 124.643 127.391 123.362C128.275 122.483 128.698 121.192 129.68 120.416C131.015 119.363 132.923 119.583 134.61 119.822C140.177 120.609 145.789 121.036 151.412 121.098C155.486 121.145 160.026 120.799 162.804 117.825C160.162 115.804 157.014 114.574 153.912 113.363C149.926 111.81 145.922 110.253 141.735 109.355C136.668 108.266 131.452 108.172 126.273 108.079L70.0356 107.082C64.2409 106.979 58.3944 106.881 52.703 107.971C46.2174 109.21 32.3156 114.808 37.7955 123.166C37.2033 123.212 30.1678 124.484 30.4498 124.929Z" fill="url(#paint0_linear_1532_22469)"/>
<path d="M147.858 117.474C137.157 117.474 128.481 108.841 128.481 98.192C128.481 87.5428 137.157 78.9099 147.858 78.9099C158.56 78.9099 167.235 87.5428 167.235 98.192C167.235 108.841 158.56 117.474 147.858 117.474Z" fill="#F8C244"/>
<path d="M131.937 102.54C129.518 93.7918 134.685 84.7487 143.477 82.3422C152.269 79.9357 161.356 85.0771 163.774 93.8257C166.193 102.574 161.026 111.617 152.234 114.024C143.443 116.43 134.355 111.289 131.937 102.54Z" fill="#E8A825"/>
<path d="M150.476 108.326L150.194 105.703C151.602 105.548 152.938 105.005 154.053 104.136L153.244 102.466C152.211 103.303 150.958 103.827 149.635 103.977C147.755 104.178 146.411 103.257 146.251 101.779C146.091 100.301 147.013 99.3611 148.855 98.3697C151.402 97.0415 152.915 95.6712 152.671 93.4217C152.436 91.2704 150.725 89.8019 148.281 89.6804L147.999 87.0614L146.383 87.2344L146.655 89.7458C145.468 89.8878 144.336 90.3271 143.366 91.0226L144.183 92.6828C145.11 91.9852 146.213 91.5563 147.37 91.4435C149.376 91.2283 150.26 92.3414 150.373 93.3749C150.519 94.7218 149.63 95.4982 147.468 96.6767C144.902 98.0563 143.709 99.5482 143.944 101.854C144.164 103.902 145.823 105.67 148.535 105.824L148.827 108.518L150.476 108.326Z" fill="#F8C244"/>
<path d="M125.074 117.984C114.373 117.984 105.697 109.351 105.697 98.7017C105.697 88.0525 114.373 79.4197 125.074 79.4197C135.776 79.4197 144.451 88.0525 144.451 98.7017C144.451 109.351 135.776 117.984 125.074 117.984Z" fill="#F8C244"/>
<path d="M117.146 113.118C109.149 108.758 106.219 98.773 110.6 90.8157C114.982 82.8583 125.017 79.9422 133.013 84.3023C141.01 88.6625 143.94 98.6478 139.559 106.605C135.177 114.562 125.142 117.479 117.146 113.118Z" fill="#E8A825"/>
<path d="M119.872 107.793L121.502 105.717C122.622 106.581 123.961 107.117 125.37 107.265L125.958 105.502C124.631 105.392 123.363 104.905 122.306 104.099C120.826 102.953 120.497 101.349 121.418 100.175C122.339 99.001 123.655 98.9683 125.648 99.5295C128.402 100.343 130.446 100.409 131.847 98.6222C133.186 96.9152 132.979 94.6751 131.32 92.8886L132.946 90.8121L131.663 89.816L130.103 91.8082C129.152 91.0876 128.033 90.6193 126.851 90.4473L126.277 92.2198C127.431 92.3603 128.523 92.8169 129.431 93.5386C131.024 94.7733 130.878 96.181 130.239 97.0041C129.398 98.0703 128.214 98.0142 125.84 97.3642C123.02 96.5738 121.141 96.8076 119.688 98.6409C118.415 100.264 118.358 102.672 120.21 104.669L118.537 106.811L119.872 107.793Z" fill="#F8C244"/>
<path d="M65.6697 18.3514V113.826C65.6697 116.038 66.5526 118.159 68.124 119.722C69.6955 121.286 71.8269 122.165 74.0493 122.165H115.576C116.678 122.167 117.77 121.953 118.789 121.535C119.808 121.117 120.734 120.504 121.514 119.729C122.294 118.954 122.913 118.034 123.335 117.021C123.757 116.009 123.975 114.923 123.975 113.826V18.3514C123.975 17.2559 123.759 16.1711 123.338 15.1589C122.917 14.1467 122.3 13.2269 121.522 12.4521C120.744 11.6773 119.82 11.0627 118.803 10.6433C117.786 10.224 116.696 10.0081 115.595 10.0081H74.0681C72.9657 10.0057 71.8737 10.2197 70.8545 10.6379C69.8354 11.0562 68.9092 11.6704 68.129 12.4455C67.3488 13.2205 66.73 14.1411 66.308 15.1546C65.886 16.168 65.6691 17.2544 65.6697 18.3514Z" fill="#E52440"/>
<path d="M74.924 11.4205H114.707C119.182 11.4205 122.81 15.0303 122.81 19.4831V112.507C122.81 116.96 119.182 120.57 114.707 120.57H74.924C70.4492 120.57 66.8216 116.96 66.8216 112.507V19.4831C66.8216 15.0303 70.4492 11.4205 74.924 11.4205Z" fill="#473F47"/>
<path d="M68.4099 20.4933V110.571C68.431 112.613 69.2661 114.563 70.7318 115.993C72.1974 117.422 74.1734 118.214 76.2256 118.194H113.499C114.861 118.198 116.2 117.85 117.386 117.184C118.575 116.531 119.567 115.573 120.259 114.411C120.952 113.248 121.319 111.923 121.324 110.571V20.4933C121.302 18.45 120.465 16.4992 118.998 15.0697C117.53 13.6402 115.553 12.8491 113.499 12.8703H107.202V14.002C107.186 14.7292 106.954 15.4355 106.536 16.0321C106.118 16.6287 105.532 17.089 104.852 17.3552C104.395 17.5344 103.909 17.6264 103.418 17.6265H86.1044C85.1169 17.6266 84.1691 17.2401 83.4656 16.5506C82.7621 15.861 82.3594 14.9238 82.3446 13.9413V12.8703H76.235C74.2303 12.8659 72.2993 13.6218 70.835 14.9842C70.072 15.6873 69.4629 16.5394 69.0457 17.4873C68.6284 18.4352 68.412 19.4585 68.4099 20.4933Z" fill="white"/>
<path opacity="0.18" d="M94.8031 49.0258C87.8339 49.0258 82.1843 43.4039 82.1843 36.4689C82.1843 29.5339 87.8339 23.912 94.8031 23.912C101.772 23.912 107.422 29.5339 107.422 36.4689C107.422 43.4039 101.772 49.0258 94.8031 49.0258Z" fill="#FFB443"/>
<path opacity="0.18" d="M74.9849 58.2857H115.083V90.7747H74.9849V58.2857Z" fill="#FFB443"/>
<g opacity="0.41">
<path opacity="0.41" d="M104.626 83.4557H111.233V89.1847H104.626V83.4557Z" fill="#FFB443"/>
</g>
<path d="M98.0699 78.9988H104.678V89.1846H98.0699V78.9988Z" fill="#E52440"/>
<g opacity="0.5">
<path opacity="0.5" d="M91.5133 74.2987H98.1211V89.1846H91.5133V74.2987Z" fill="#FFB443"/>
</g>
<path d="M84.9576 69.7202H91.5654V89.1846H84.9576V69.7202Z" fill="#E52440"/>
<path d="M78.401 65.1043H85.0088V89.1846H78.401V65.1043Z" fill="#FFB443"/>
<path d="M78.401 65.1043H85.0088V89.1846H78.401V65.1043Z" fill="url(#paint1_linear_1532_22469)"/>
<path d="M77.0952 89.1846H113.758V90.7794H77.0952V89.1846Z" fill="url(#paint2_linear_1532_22469)"/>
<path opacity="0.18" d="M95.7577 93.7678H115.083V118.096H95.7577V93.7678Z" fill="#FFB443"/>
<path opacity="0.18" d="M74.9843 93.7678H94.3096V118.096H74.9843V93.7678Z" fill="#FFB443"/>
<path d="M95.5456 45.7521V43.4652C96.7734 43.4702 97.9781 43.1333 99.0234 42.4925L98.4924 40.9726C97.5192 41.5883 96.3887 41.913 95.2355 41.9079C93.6093 41.9079 92.5331 40.9726 92.5378 39.6818C92.5425 38.391 93.4308 37.6755 95.118 37.002C97.4396 36.1088 98.8777 35.0752 98.8777 33.111C98.8777 31.2404 97.5571 29.8046 95.4657 29.4539V27.1763H94.0558V29.365C93.0202 29.3703 92.003 29.6374 91.0997 30.1413L91.6496 31.6613C92.5154 31.1514 93.5058 30.8892 94.5117 30.9036C96.26 30.9036 96.9133 31.9606 96.9086 32.8585C96.9086 34.0323 96.0579 34.6169 94.0887 35.4213C91.7388 36.3567 90.5592 37.5258 90.5451 39.5368C90.5451 41.3186 91.7811 43.0022 94.1122 43.3998V45.7381L95.5456 45.7521Z" fill="#FFB443"/>
<path d="M71.2393 80.023C71.3944 80.2474 71.5824 80.5795 71.8268 80.6824C72.1839 80.832 72.6821 80.5608 72.9782 80.3831C73.4766 80.084 73.9483 79.7429 74.3881 79.3635C74.797 79.0175 75.1777 78.6387 75.6195 78.3347C76.0496 78.0101 76.5698 77.8256 77.1093 77.8062C78.2466 77.8062 78.8482 78.9286 78.9563 79.9248C79.0644 80.9209 78.5145 82.0246 77.5463 82.2163C77.0247 82.3192 76.4842 82.1415 75.9531 82.1883C74.1625 82.3379 73.0487 84.868 71.2816 84.5266C70.665 84.3434 70.117 83.982 69.7072 83.4884L67.8884 81.6785C66.8215 80.6169 65.6936 79.4384 65.5103 77.9372C65.374 76.8007 66.1824 74.2753 67.5829 75.0142C68.2502 75.365 68.9317 76.8428 69.3829 77.4554C69.9798 78.2832 70.5719 79.1157 71.1829 79.9294C71.2064 79.9715 71.2252 79.9949 71.2393 80.023Z" fill="#F9C6D6"/>
<path d="M82.4854 78.0868L74.0587 80.3129L71.112 91.0366L79.2895 89.7084L82.4854 78.0868Z" fill="#FFB443"/>
<path d="M73.904 90.5502L74.1672 89.4138C74.1622 89.3027 74.1794 89.1917 74.218 89.0873C74.2565 88.9829 74.3156 88.8872 74.3917 88.8058C74.4679 88.7244 74.5595 88.6589 74.6614 88.6131C74.7633 88.5674 74.8733 88.5422 74.985 88.5393C75.58 88.5108 76.148 88.2834 76.597 87.8939C76.8906 87.5229 77.0436 87.061 77.0294 86.5891C77.0294 85.8829 76.8179 85.0925 76.1928 84.7558L72.0382 87.6507L71.0983 91.0413L73.904 90.5502Z" fill="url(#paint3_linear_1532_22469)"/>
<path d="M70.6092 77.4414C70.6565 77.5832 70.6803 77.7317 70.6797 77.881C70.6488 78.0906 70.5611 78.2879 70.4259 78.4516C69.8609 79.2759 69.4074 80.1706 69.0771 81.1126C68.9907 81.4119 68.8643 81.6982 68.7011 81.9638C68.6188 82.0977 68.5055 82.2101 68.3705 82.2915C68.2356 82.3729 68.083 82.4209 67.9256 82.4315C67.7342 82.4154 67.5522 82.3414 67.4043 82.2193C67.2564 82.0972 67.1497 81.933 67.0985 81.7487C66.9965 81.382 66.9693 80.9988 67.0186 80.6216C67.0985 79.5226 67.3147 78.2832 67.1032 77.1842C66.8729 75.9589 66.4593 74.7476 66.1914 73.527C66.5768 73.3587 66.9904 73.6626 67.2959 73.9479C68.2828 74.8599 69.2697 75.7718 70.1815 76.7539C70.3727 76.9493 70.5187 77.184 70.6092 77.4414Z" fill="#E52440"/>
<path d="M60.6455 124.606C71.9014 124.442 80.9718 120.617 80.9061 116.043C80.9061 115.533 81.2867 112.662 81.0658 112.203C79.2893 108.368 70.4162 107.919 60.387 108.055C50.5458 108.2 42.2789 108.055 40.4366 111.843C40.164 112.381 40.1217 116.052 40.1311 116.618C40.2063 121.192 49.3896 124.765 60.6455 124.606Z" fill="#E8A825"/>
<path d="M40.2922 112.808C40.2264 108.239 49.2958 104.406 60.5492 104.245C71.8025 104.085 80.9784 107.659 81.0441 112.227C81.1098 116.796 72.0405 120.63 60.7871 120.79C49.5338 120.95 40.3579 117.376 40.2922 112.808Z" fill="#F8C244"/>
<path d="M43.3095 112.765C43.2535 108.873 50.98 105.607 60.5671 105.47C70.1543 105.334 77.9716 108.378 78.0275 112.27C78.0835 116.162 70.357 119.428 60.7699 119.565C51.1827 119.701 43.3654 116.657 43.3095 112.765Z" fill="#E8A825"/>
<path d="M71.6194 111.689L68.8418 111.731C68.7875 111.371 68.6462 111.029 68.4302 110.735C68.2141 110.441 67.9296 110.203 67.6011 110.043L65.7588 110.328C66.0772 110.475 66.3542 110.697 66.5649 110.976C66.7757 111.256 66.9137 111.582 66.9666 111.927C66.9666 112.722 65.8528 113.279 64.2878 113.293C63.6836 113.34 63.0762 113.256 62.508 113.046C61.9399 112.836 61.4245 112.506 60.998 112.077C60.3856 111.442 59.6367 110.952 58.8074 110.645C57.9781 110.338 57.0898 110.222 56.2089 110.305C53.9249 110.305 52.1907 111.02 51.7912 112.054L49.0136 112.096V112.788L51.6878 112.746C51.7312 113.046 51.8426 113.331 52.0136 113.582C52.1846 113.832 52.4107 114.041 52.6747 114.191L54.4841 113.887C54.228 113.743 54.0096 113.54 53.8463 113.297C53.683 113.053 53.5796 112.775 53.5442 112.484C53.5442 111.637 54.7896 111.282 55.8941 111.268C56.4894 111.236 57.0842 111.34 57.6326 111.573C58.181 111.805 58.6683 112.16 59.057 112.61C60.2272 113.742 61.67 114.303 64.1515 114.303C66.3369 114.303 68.3813 113.625 68.8136 112.465L71.6758 112.423L71.6194 111.689Z" fill="#F8C244"/>
<path d="M51.166 120.71C62.4219 120.551 71.4924 116.721 71.4266 112.147C71.4266 111.642 71.8072 108.766 71.5863 108.312C69.8098 104.473 60.932 104.024 50.9075 104.159C41.0616 104.304 32.7994 104.159 30.9524 107.948C30.6845 108.49 30.6423 112.157 30.647 112.722C30.7268 117.296 39.9101 120.869 51.166 120.71Z" fill="#E8A825"/>
<path d="M30.8137 108.913C30.7479 104.345 39.8173 100.511 51.0706 100.351C62.324 100.191 71.4999 103.764 71.5656 108.333C71.6313 112.902 62.5619 116.735 51.3086 116.895C40.0553 117.056 30.8794 113.482 30.8137 108.913Z" fill="#F8C244"/>
<path d="M33.8299 108.87C33.774 104.978 41.5005 101.713 51.0876 101.576C60.6748 101.44 68.4921 104.484 68.5481 108.376C68.604 112.268 60.8775 115.534 51.2904 115.67C41.7032 115.807 33.8859 112.762 33.8299 108.87Z" fill="#E8A825"/>
<path d="M62.1399 107.793L59.3623 107.835C59.308 107.475 59.1668 107.133 58.9507 106.839C58.7346 106.545 58.4501 106.308 58.1216 106.147L56.2793 106.432C56.5971 106.579 56.8733 106.802 57.0833 107.081C57.2932 107.36 57.4304 107.687 57.4825 108.032C57.4825 108.827 56.3733 109.383 54.8083 109.402C54.2042 109.448 53.5972 109.363 53.0292 109.153C52.4612 108.944 51.9458 108.613 51.5185 108.186C50.9069 107.549 50.1584 107.058 49.3289 106.751C48.4995 106.443 47.6108 106.326 46.7295 106.409C44.4407 106.409 42.7112 107.129 42.3117 108.158L39.5342 108.2V108.892L42.2083 108.85C42.2506 109.15 42.3616 109.436 42.5328 109.687C42.7039 109.938 42.9305 110.146 43.1953 110.295L45.0047 109.991C44.7486 109.847 44.5301 109.645 44.3668 109.401C44.2036 109.157 44.1001 108.879 44.0647 108.588C44.0647 107.746 45.3148 107.391 46.4146 107.372C47.0092 107.34 47.6035 107.444 48.1512 107.676C48.6989 107.909 49.1853 108.264 49.5728 108.715C50.7477 109.851 52.1906 110.407 54.672 110.407C56.8527 110.407 58.9018 109.729 59.3342 108.574L62.1963 108.532L62.1399 107.793Z" fill="#F8C244"/>
<path d="M58.5779 110.492C69.8337 110.342 78.9042 106.502 78.8572 101.924C78.8572 101.419 79.2379 98.5427 79.017 98.0891C77.2405 94.2495 68.3674 93.8005 58.3382 93.9362C48.4969 94.0811 40.2301 93.9362 38.3878 97.7243C38.1152 98.2668 38.0729 101.933 38.0823 102.499C38.1387 107.068 47.322 110.655 58.5779 110.492Z" fill="#E8A825"/>
<path d="M38.2267 98.6928C38.161 94.1242 47.2304 90.2907 58.4837 90.1304C69.7371 89.9701 78.913 93.5438 78.9787 98.1124C79.0444 102.681 69.975 106.515 58.7217 106.675C47.4684 106.835 38.2925 103.261 38.2267 98.6928Z" fill="#F8C244"/>
<path d="M41.243 98.6499C41.187 94.7579 48.9136 91.4921 58.5007 91.3556C68.0879 91.219 75.9052 94.2634 75.9611 98.1554C76.0171 102.047 68.2906 105.313 58.7034 105.45C49.1163 105.586 41.299 102.542 41.243 98.6499Z" fill="#E8A825"/>
<path d="M69.552 97.5793L66.7745 97.6214C66.7208 97.2603 66.5799 96.9176 66.3638 96.6227C66.1477 96.3278 65.8628 96.0896 65.5337 95.9284L63.6914 96.2184C64.0092 96.3646 64.2858 96.5866 64.4965 96.8649C64.7072 97.1431 64.8456 97.4688 64.8993 97.8131C64.8993 98.6082 63.7854 99.1647 62.2204 99.1834C61.6163 99.2296 61.0093 99.1448 60.4413 98.9349C59.8733 98.725 59.3579 98.3949 58.9306 97.9674C58.3184 97.3314 57.5697 96.8412 56.7405 96.5334C55.9112 96.2257 55.0228 96.1084 54.1416 96.1903C51.8575 96.1903 50.1233 96.9105 49.7238 97.9394L46.9463 97.9815V98.6783L49.6204 98.6362C49.6638 98.9359 49.7752 99.2218 49.9462 99.4722C50.1172 99.7226 50.3433 99.9309 50.6074 100.081L52.4168 99.7773C52.1607 99.633 51.9422 99.4309 51.7789 99.1872C51.6157 98.9435 51.5122 98.6651 51.4768 98.3743C51.4768 97.5278 52.7222 97.1724 53.8267 97.1537C54.4224 97.1212 55.0177 97.2259 55.5663 97.4594C56.1148 97.693 56.6019 98.0493 56.9896 98.5006C58.1598 99.6324 59.6027 100.189 62.0841 100.189C64.2695 100.189 66.3139 99.5154 66.7463 98.3556L69.6084 98.3135L69.552 97.5793Z" fill="#F8C244"/>
<path d="M74.0869 112.844C73.9083 113.415 73.7485 114.093 74.0869 114.579C74.2506 114.791 74.4703 114.953 74.7213 115.047C75.0099 115.186 75.3322 115.243 75.6514 115.209C75.9705 115.175 76.2736 115.052 76.526 114.855C76.7922 114.561 76.9811 114.206 77.0759 113.821C77.5265 112.414 77.852 110.969 78.0488 109.505C78.084 109.372 78.084 109.231 78.0488 109.098C77.9739 108.956 77.8529 108.844 77.7057 108.78C76.9302 108.364 75.7271 108.032 75.2947 108.953C74.7307 110.127 74.4723 111.586 74.0869 112.844Z" fill="#F9C6D6"/>
<path d="M76.4136 113.508C76.5721 113.488 76.7332 113.506 76.8836 113.56C76.9887 113.619 77.0813 113.699 77.1562 113.793L78.8575 115.692C79.177 116.057 79.5201 116.562 79.2945 116.992C79.215 117.114 79.1092 117.216 78.9847 117.291C78.8603 117.366 78.7204 117.413 78.5755 117.427C77.7633 117.5 76.9472 117.338 76.2256 116.96C75.7086 116.735 75.2058 116.492 74.7076 116.221C74.3351 116.053 74.0116 115.794 73.7677 115.468C73.387 114.883 73.2695 113.475 73.9509 113.036C74.294 112.816 74.5948 112.975 74.9191 113.125C75.3783 113.372 75.8914 113.504 76.4136 113.508Z" fill="#FFB443"/>
<path d="M83.345 119.293C83.3602 119.4 83.3489 119.509 83.3121 119.611C83.2561 119.715 83.1713 119.801 83.0677 119.859C82.7513 120.08 82.3778 120.207 81.9915 120.224C81.7981 120.229 81.6061 120.19 81.4307 120.109C81.2553 120.028 81.1014 119.907 80.981 119.756C80.8054 119.473 80.6977 119.153 80.6661 118.821C80.5251 118.098 80.4558 117.364 80.4593 116.627C80.4514 116.523 80.4833 116.42 80.5486 116.338C80.6053 116.296 80.6717 116.271 80.7413 116.263C81.3476 116.136 82.5413 115.795 82.8468 116.562C83.1582 117.44 83.3264 118.362 83.345 119.293Z" fill="#F9C6D6"/>
<path d="M85.9071 119.228C86.423 119.254 86.9325 119.354 87.4204 119.522C87.6653 119.608 87.8899 119.743 88.0806 119.918C88.2714 120.094 88.4241 120.306 88.5296 120.542C88.6272 120.777 88.6388 121.038 88.5625 121.281C88.394 121.634 88.1014 121.913 87.74 122.067C86.0223 122.991 84.0772 123.414 82.1285 123.287C81.6273 123.304 81.1394 123.125 80.7703 122.787C80.498 122.382 80.3705 121.898 80.4084 121.412L80.3426 119.111C80.775 119.045 81.1792 119.326 81.5928 119.471C82.3071 119.714 82.5891 119.125 83.1813 119.003C83.9332 118.797 85.1035 119.144 85.9071 119.228Z" fill="#FFB443"/>
<path d="M76.4136 113.508C76.5721 113.488 76.7332 113.506 76.8836 113.56C76.9887 113.619 77.0813 113.699 77.1562 113.793L78.8575 115.692C79.177 116.057 79.5201 116.562 79.2945 116.992C79.215 117.114 79.1092 117.216 78.9847 117.291C78.8603 117.366 78.7204 117.413 78.5755 117.427C77.7633 117.5 76.9472 117.338 76.2256 116.96C75.7086 116.735 75.2058 116.492 74.7076 116.221C74.3351 116.053 74.0116 115.794 73.7677 115.468C73.387 114.883 73.2695 113.475 73.9509 113.036C74.294 112.816 74.5948 112.975 74.9191 113.125C75.3783 113.372 75.8914 113.504 76.4136 113.508Z" fill="url(#paint4_linear_1532_22469)"/>
<path d="M85.9071 119.228C86.423 119.254 86.9325 119.354 87.4204 119.522C87.6653 119.608 87.8899 119.743 88.0806 119.918C88.2714 120.094 88.4241 120.306 88.5296 120.542C88.6272 120.777 88.6388 121.038 88.5625 121.281C88.394 121.634 88.1014 121.913 87.74 122.067C86.0223 122.991 84.0772 123.414 82.1285 123.287C81.6273 123.304 81.1394 123.125 80.7703 122.787C80.498 122.382 80.3705 121.898 80.4084 121.412L80.3426 119.111C80.775 119.045 81.1792 119.326 81.5928 119.471C82.3071 119.714 82.5891 119.125 83.1813 119.003C83.9332 118.797 85.1035 119.144 85.9071 119.228Z" fill="url(#paint5_linear_1532_22469)"/>
<path d="M79.7223 93.852C80.2154 93.95 80.6712 94.1833 81.0382 94.5254C81.4105 95.0607 81.5773 95.7113 81.5082 96.3587C81.4976 100.997 80.631 105.594 78.9515 109.921C78.9115 110.08 78.8402 110.23 78.7418 110.362C78.6434 110.493 78.5198 110.604 78.3781 110.688C78.1217 110.764 77.8471 110.752 77.598 110.655C76.5897 110.375 75.5967 110.042 74.6231 109.659L75.9437 100.839C76.0053 100.593 75.9906 100.333 75.9014 100.095C75.8035 99.9294 75.6663 99.7898 75.5019 99.6885C74.0027 98.5797 72.4152 97.5944 70.7552 96.7422C68.6873 95.6759 67.3667 94.4366 66.9954 92.0655C66.8685 91.3996 67.0013 90.7106 67.3667 90.1387C67.5534 89.8582 67.8199 89.6394 68.1321 89.5103C68.4443 89.3812 68.7882 89.3476 69.1197 89.4138C69.3657 89.4902 69.5998 89.6004 69.8152 89.7412C71.4131 90.6999 78.0633 93.3609 79.7223 93.852Z" fill="#282328"/>
<path d="M78.7771 100.006C79.4015 100.805 79.8949 101.697 80.2387 102.649C82.1432 107.3 83.3789 112.194 83.9092 117.189C82.3486 117.382 80.77 117.382 79.2094 117.189C79.0872 113.657 78.5477 110.152 77.6021 106.746C77.4348 106.015 77.1491 105.317 76.7562 104.679C76.0606 103.668 74.9233 103.079 73.8329 102.532C71.3266 101.293 68.7021 100.306 65.9985 99.5856C64.8565 99.2676 63.705 98.9776 62.5818 98.5941C61.6187 98.3045 60.7171 97.8416 59.9217 97.2285C58.5118 96.0547 57.4309 93.4872 59.3155 92.2432C60.1567 91.682 61.2189 91.5744 62.2293 91.4762L65.364 91.1816C65.6767 91.1309 65.9964 91.1436 66.304 91.219C66.5666 91.3184 66.8099 91.4624 67.023 91.6446C69.3729 93.4357 71.7228 95.0305 74.1948 96.6533C75.7128 97.6541 77.5645 98.5848 78.7771 100.006Z" fill="#473F47"/>
<path d="M65.4397 93.6789C66.2587 93.3591 67.0548 92.9841 67.8225 92.5565C70.7316 90.9337 68.3488 90.1387 67.3525 88.1838C66.6616 86.7808 66.9436 85.1393 67.3008 83.6334C67.9353 80.991 68.7812 78.2598 68.1702 75.6128C68.0921 75.1837 67.9239 74.7758 67.6768 74.4156C67.497 74.1961 67.2919 73.9983 67.0658 73.8263C66.4532 73.2932 65.7475 72.8763 64.9838 72.5964C63.5128 72.1287 61.882 72.4654 60.505 73.1669C54.8653 76.015 54.9123 85.1159 55.4434 90.4707C55.5655 91.7054 55.7535 93.0008 56.5102 93.9876C57.6193 95.4374 58.6533 94.9229 60.0632 94.6704C61.9384 94.3524 63.6303 94.3804 65.4397 93.6789Z" fill="#E52440"/>
<path d="M55.7299 84.073C55.7299 85.0083 55.9131 85.8922 55.9554 86.8088C56.0071 87.8237 55.899 88.8479 55.9836 89.8581C56.124 91.5199 56.7681 93.1001 57.8306 94.3898C57.9245 94.5208 58.0508 94.6255 58.1972 94.6938C58.4039 94.7472 58.6227 94.7291 58.8176 94.6423L61.5293 93.8145C61.8851 93.7192 62.23 93.5876 62.5586 93.4217C63.1288 93.0997 63.5604 92.5804 63.7711 91.9626C63.8334 91.8052 63.8545 91.6346 63.8322 91.4668C63.757 91.1021 63.3622 90.8916 63.0708 90.6905C61.9006 89.9329 61.1675 88.6748 60.4766 87.4683C59.8159 86.3802 59.2363 85.2454 58.7424 84.073C58.5618 83.5122 58.3107 82.9764 57.9951 82.4782C57.6755 82.0339 56.8719 81.3886 56.3126 81.758C55.7534 82.1275 55.7252 83.4978 55.7299 84.073Z" fill="url(#paint6_linear_1532_22469)"/>
<path d="M62.1684 76.3845C62.4047 76.6797 62.7002 76.9228 63.0359 77.0983C63.3717 77.2738 63.7405 77.378 64.1188 77.404C64.2391 77.4191 64.3607 77.3909 64.4619 77.3245C64.569 77.2158 64.6296 77.0699 64.6311 76.9177C64.664 76.6137 64.711 76.2208 64.7439 75.8327C64.7768 75.4445 64.8379 74.9675 64.8802 74.6354C64.9713 73.7521 65.3082 72.9115 65.853 72.2082C65.9646 72.0563 66.0922 71.9168 66.2337 71.792C67.1736 70.9502 63.3528 71.2822 62.8499 70.1364C62.2671 70.88 62.3188 71.9323 62.065 72.8536C61.8977 73.3007 61.7549 73.7566 61.6374 74.2192C61.5688 74.597 61.5807 74.9849 61.6721 75.3579C61.7636 75.7309 61.9327 76.0806 62.1684 76.3845Z" fill="#F9C6D6"/>
<path d="M64.6917 76.0104L64.7434 75.8327C64.7951 75.3977 64.8374 74.9675 64.8797 74.6354C64.9709 73.7521 65.3078 72.9115 65.8525 72.2082V72.1147C65.8525 72.1147 62.8259 70.1365 62.5016 72.4514C62.1774 74.7664 64.6917 76.0104 64.6917 76.0104Z" fill="url(#paint7_linear_1532_22469)"/>
<path d="M67.8693 70.8333C67.932 71.3163 67.8417 71.8068 67.6108 72.2363C67.4911 72.4174 67.3399 72.5758 67.1643 72.7039C65.9612 73.6065 64.1518 73.4242 62.9345 72.4888C62.3539 71.9923 61.886 71.3786 61.5619 70.6884C61.2378 69.9982 61.0649 69.2473 61.0546 68.4856C60.968 67.6919 61.1937 66.8957 61.6844 66.2641C61.9803 65.9781 62.3435 65.7704 62.7409 65.6601C63.1383 65.5498 63.5571 65.5404 63.9591 65.6328C65.0595 65.8872 66.062 66.4543 66.8447 67.2649C67.6202 68.1114 67.8129 69.7436 67.8693 70.8333Z" fill="#F9C6D6"/>
<path d="M56.9709 78.7369C56.9474 78.9052 56.9286 79.0736 56.9098 79.242C56.6372 81.744 56.8816 84.2039 56.9756 86.6966C57.0367 88.413 57.1636 90.6671 58.6346 91.841C62.5683 94.9791 71.3239 88.4176 71.7093 88.1324C72.2968 87.6974 73.1192 87.6647 73.8242 87.5852C74.6476 87.5331 75.4189 87.1661 75.9767 86.561C76.2465 86.2546 76.4223 85.8775 76.4831 85.4746C76.5439 85.0717 76.4872 84.6599 76.3198 84.2881C75.7417 83.1564 74.1156 82.9833 72.9453 83.4884C71.7751 83.9935 70.8962 84.9756 69.8811 85.7426C69.0806 86.3133 68.2368 86.8215 67.3573 87.2625C66.3328 87.805 62.7234 88.586 61.5626 88.6C60.3265 88.6 60.8106 81.3792 60.6884 79.0736C60.6839 78.4774 60.5373 77.8908 60.2607 77.3619C60.1224 77.1037 59.9205 76.8846 59.6739 76.7251C59.4274 76.5656 59.1441 76.4709 58.8508 76.45C58.5401 76.4735 58.241 76.5779 57.9836 76.7527C57.7263 76.9275 57.5196 77.1667 57.3845 77.4461C57.1714 77.8488 57.0314 78.2858 56.9709 78.7369Z" fill="#F9C6D6"/>
<path d="M63.3149 69.5753C63.3149 69.6501 63.3384 69.7249 63.3478 69.7997L63.4747 71.1513L63.7426 73.9059L59.0851 74.5559C58.883 73.0828 58.4554 71.6424 58.2721 70.1645C58.0888 68.6867 58.164 67.1106 58.9065 65.8199C59.5081 64.7676 60.9462 64.1363 62.0178 63.6499C62.2871 63.5291 62.5672 63.4336 62.8543 63.3646C63.9597 63.0718 65.1293 63.129 66.2005 63.5283C66.457 63.6145 66.6958 63.746 66.9055 63.9164C67.041 64.0864 67.1636 64.2661 67.2721 64.4543C67.6878 64.9912 68.0409 65.5732 68.3248 66.1893C68.4746 66.4807 68.5656 66.7985 68.5927 67.1247C68.6045 67.1596 68.6045 67.1973 68.5927 67.2322C68.5696 67.263 68.5388 67.2872 68.5034 67.3024L67.2533 67.9711C67.2262 67.9875 67.1956 67.9971 67.164 67.9992C67.1163 67.9937 67.0726 67.9703 67.0418 67.9337L66.1676 67.1761L66.4073 67.7046C66.4198 67.7301 66.4263 67.7581 66.4263 67.7864C66.4263 67.8148 66.4198 67.8428 66.4073 67.8683C66.3863 67.8949 66.3588 67.9158 66.3274 67.9291L65.0773 68.5417C65.0526 68.548 65.0268 68.548 65.0021 68.5417C64.9598 68.5417 64.9316 68.509 64.9034 68.4809L64.2971 67.8449L64.4757 68.6306C64.4877 68.6686 64.4877 68.7094 64.4757 68.7475C64.4553 68.7807 64.4236 68.8056 64.3864 68.8176L63.7191 69.159C63.6956 69.159 63.6721 69.1824 63.6533 69.159C63.633 69.1539 63.6149 69.1424 63.6016 69.1263L63.1551 68.6259C63.185 68.9458 63.2384 69.2631 63.3149 69.5753Z" fill="#473F47"/>
<path d="M56.2468 78.6059C55.6876 80.009 56.1951 81.3371 56.2233 82.7168C56.2221 82.8553 56.2379 82.9935 56.2703 83.1283C56.3293 83.3175 56.4342 83.4894 56.5758 83.6287C56.854 83.8864 57.1822 84.0849 57.5402 84.212C57.8982 84.339 58.2785 84.392 58.6578 84.3676C59.4159 84.3102 60.1616 84.1432 60.8714 83.8719C61.104 83.8257 61.3105 83.6938 61.4494 83.5024C61.5099 83.3691 61.5357 83.2227 61.5246 83.0769C61.5622 80.9677 62.1074 77.563 60.0442 76.16C58.4087 75.0423 56.7685 77.231 56.2468 78.6059Z" fill="#E52440"/>
<path d="M67.2625 78.475C67.9378 78.839 68.5529 79.3044 69.086 79.8546C69.1932 79.9505 69.2727 80.0732 69.3163 80.21C69.3373 80.3166 69.3373 80.4262 69.3163 80.5327C69.2098 81.0565 69.0278 81.5621 68.7758 82.0339C68.7227 82.1423 68.653 82.2417 68.569 82.3286C67.7747 83.0488 67.5915 81.7393 67.5351 81.3137C67.4003 80.369 67.3095 79.4228 67.2625 78.475Z" fill="url(#paint8_linear_1532_22469)"/>
<path d="M67.4794 69.912C66.9681 69.912 66.5536 69.4995 66.5536 68.9906C66.5536 68.4818 66.9681 68.0693 67.4794 68.0693C67.9908 68.0693 68.4053 68.4818 68.4053 68.9906C68.4053 69.4995 67.9908 69.912 67.4794 69.912Z" stroke="#473F47" stroke-width="0.331842" stroke-miterlimit="10"/>
<path d="M65.6601 70.707C65.1487 70.707 64.7342 70.2945 64.7342 69.7857C64.7342 69.2769 65.1487 68.8644 65.6601 68.8644C66.1714 68.8644 66.5859 69.2769 66.5859 69.7857C66.5859 70.2945 66.1714 70.707 65.6601 70.707Z" stroke="#473F47" stroke-width="0.331842" stroke-miterlimit="10"/>
<path d="M77.3486 78.475L75.9011 75.4866C75.9011 75.4866 75.3089 75.5146 75.1962 75.8514L76.7941 78.7883C76.7941 78.7883 76.8881 79.0081 77.3486 78.475Z" fill="#473F47"/>
</g>
<defs>
<linearGradient id="paint0_linear_1532_22469" x1="93.9526" y1="75.2434" x2="100.235" y2="184.71" gradientUnits="userSpaceOnUse">
<stop offset="0.01"/>
<stop offset="0.13" stop-opacity="0.69"/>
<stop offset="0.25" stop-opacity="0.32"/>
<stop offset="1" stop-opacity="0"/>
</linearGradient>
<linearGradient id="paint1_linear_1532_22469" x1="98.2996" y1="65.441" x2="39.128" y2="107.586" gradientUnits="userSpaceOnUse">
<stop offset="0.01"/>
<stop offset="0.08" stop-opacity="0.69"/>
<stop offset="0.21" stop-opacity="0.32"/>
<stop offset="1" stop-opacity="0"/>
</linearGradient>
<linearGradient id="paint2_linear_1532_22469" x1="-6190.02" y1="361.662" x2="-6189.72" y2="491.539" gradientUnits="userSpaceOnUse">
<stop offset="0.01"/>
<stop offset="0.08" stop-opacity="0.69"/>
<stop offset="0.21" stop-opacity="0.32"/>
<stop offset="1" stop-opacity="0"/>
</linearGradient>
<linearGradient id="paint3_linear_1532_22469" x1="-1367.29" y1="1431.3" x2="-1223.44" y2="1571.62" gradientUnits="userSpaceOnUse">
<stop offset="0.01"/>
<stop offset="0.13" stop-opacity="0.69"/>
<stop offset="0.25" stop-opacity="0.32"/>
<stop offset="1" stop-opacity="0"/>
</linearGradient>
<linearGradient id="paint4_linear_1532_22469" x1="-1242.05" y1="1371.39" x2="-1344.73" y2="1437.98" gradientUnits="userSpaceOnUse">
<stop offset="0.01"/>
<stop offset="0.13" stop-opacity="0.69"/>
<stop offset="0.25" stop-opacity="0.32"/>
<stop offset="1" stop-opacity="0"/>
</linearGradient>
<linearGradient id="paint5_linear_1532_22469" x1="-1627.68" y1="1450.56" x2="-1658.08" y2="1321.1" gradientUnits="userSpaceOnUse">
<stop offset="0.01"/>
<stop offset="0.13" stop-opacity="0.69"/>
<stop offset="0.25" stop-opacity="0.32"/>
<stop offset="1" stop-opacity="0"/>
</linearGradient>
<linearGradient id="paint6_linear_1532_22469" x1="-1976.73" y1="2853.68" x2="-2401" y2="3052.28" gradientUnits="userSpaceOnUse">
<stop offset="0.01"/>
<stop offset="0.13" stop-opacity="0.69"/>
<stop offset="0.25" stop-opacity="0.32"/>
<stop offset="1" stop-opacity="0"/>
</linearGradient>
<linearGradient id="paint7_linear_1532_22469" x1="-783.08" y1="923.964" x2="-853.316" y2="1034.68" gradientUnits="userSpaceOnUse">
<stop offset="0.01"/>
<stop offset="0.13" stop-opacity="0.69"/>
<stop offset="0.25" stop-opacity="0.32"/>
<stop offset="1" stop-opacity="0"/>
</linearGradient>
<linearGradient id="paint8_linear_1532_22469" x1="-458.736" y1="915.868" x2="-414.048" y2="919.707" gradientUnits="userSpaceOnUse">
<stop offset="0.01"/>
<stop offset="0.13" stop-opacity="0.69"/>
<stop offset="0.25" stop-opacity="0.32"/>
<stop offset="1" stop-opacity="0"/>
</linearGradient>
<clipPath id="clip0_1532_22469">
<rect width="184" height="138" fill="white" transform="matrix(-1 0 0 1 184 0)"/>
</clipPath>
</defs>
</svg>
