<svg width="675" height="508" viewBox="0 0 675 508" fill="none" xmlns="http://www.w3.org/2000/svg">
<g clip-path="url(#clip0_1532_20696)">
<path opacity="0.18" d="M291.603 39.0127C149.123 -29.8206 61.9783 74.1318 51.7398 99.9638C17.3509 187.527 70.1457 260.809 21.1805 319.848C-27.7846 378.887 2.85281 535.635 167.842 480.655C332.83 425.674 485.9 482.723 565.424 462.354C644.949 441.985 702.003 213.984 618.415 148.818C544.986 91.5353 409.541 95.9447 291.603 39.0127Z" fill="white"/>
<path opacity="0.31" d="M130.287 359.377L79.29 368.235L351.471 432.854L631.467 375.688L455.185 330.891L130.287 359.377Z" fill="#E52440"/>
<path d="M343.694 318.483L449.713 139.375C450.44 138.112 451.505 137.078 452.79 136.388C454.074 135.699 455.526 135.382 456.982 135.473L667.223 143.98C668.615 144.039 669.968 144.457 671.151 145.192C672.334 145.927 673.307 146.955 673.975 148.175C674.643 149.396 674.984 150.769 674.965 152.16C674.946 153.551 674.568 154.913 673.867 156.115L553.701 359.533L343.694 318.483Z" fill="#E52440"/>
<path d="M127.864 350.792L130.248 359.26C130.648 360.741 131.452 362.084 132.569 363.137C133.687 364.191 135.074 364.915 136.579 365.23L323.334 410.065C325.756 410.629 328.267 410.709 330.72 410.299L540.961 375.844C543.012 375.504 544.877 374.453 546.228 372.875C547.579 371.298 548.329 369.295 548.347 367.22V358.869L127.864 350.792Z" fill="url(#paint0_linear_1532_20696)"/>
<path d="M338.223 317.858L444.242 138.751C444.985 137.503 446.054 136.481 447.335 135.793C448.615 135.106 450.059 134.779 451.511 134.849L661.752 143.394C663.144 143.454 664.497 143.872 665.68 144.607C666.863 145.342 667.836 146.369 668.504 147.59C669.172 148.811 669.513 150.183 669.494 151.574C669.475 152.965 669.097 154.328 668.396 155.53L548.23 358.947L338.223 317.858Z" fill="#473F47"/>
<path d="M548.23 358.869L326.968 394.457C325.393 394.75 323.776 394.75 322.201 394.457L127.864 350.792L338.223 317.858L548.23 358.869Z" fill="url(#paint1_linear_1532_20696)"/>
<path d="M234.587 337.564L411.104 370.888L507.432 356.528L336.582 321.214L234.587 337.564Z" fill="#473F47"/>
<path d="M194.336 361.601L268.585 346.851L357.176 363.162L283.201 379.863L194.336 361.601Z" fill="#473F47"/>
<path d="M205.435 368.235C207.979 371.68 211.571 374.212 215.673 375.453C221.926 376.936 249.085 383.258 249.085 383.258C250.55 383.273 252.002 382.982 253.348 382.405C254.694 381.827 255.904 380.974 256.901 379.902L205.435 368.235Z" fill="#EAEAEA"/>
<path d="M345.531 312.981L540.961 352.08L652.725 159.198L444.789 144.955L345.531 312.981Z" fill="white"/>
<path opacity="0.43" d="M461.945 181.284C463.611 181.375 465.256 181.703 466.83 182.26C467.545 182.544 468.342 182.544 469.057 182.26" stroke="#F8F8F8" stroke-width="0.940196" stroke-linecap="round" stroke-linejoin="round"/>
<path d="M229.116 347.631C229.136 349.61 228.873 351.581 228.335 353.485C228.243 353.84 228.02 354.147 227.71 354.343C227.43 354.451 227.128 354.483 226.832 354.435C226.537 354.387 226.259 354.261 226.029 354.07C223.833 352.652 222.174 350.541 221.317 348.073C220.46 345.606 220.454 342.923 221.301 340.451C222.033 337.243 223.723 334.331 226.146 332.101L230.367 329.057C231.02 328.551 231.744 328.143 232.516 327.848C233.339 327.601 234.2 327.508 235.056 327.574C236.564 327.554 238.063 327.819 239.472 328.355C239.629 328.422 239.774 328.515 239.902 328.628C239.977 328.773 240.017 328.933 240.017 329.096C240.017 329.259 239.977 329.42 239.902 329.564C239.059 330.577 238.023 331.413 236.854 332.023C233.648 334.26 231.347 337.568 230.367 341.349C229.682 343.381 229.261 345.492 229.116 347.631V347.631Z" fill="#F89659"/>
<path d="M322.709 318.6C322.492 318.959 322.346 319.356 322.279 319.77C322.201 320.104 322.201 320.451 322.279 320.785C322.869 322.173 323.829 323.374 325.053 324.258C326.46 325.389 327.906 326.521 329.391 327.535C329.759 327.887 330.209 328.143 330.7 328.279C331.191 328.415 331.708 328.428 332.205 328.316C332.639 328.064 332.973 327.67 333.151 327.201C333.329 326.732 333.34 326.217 333.182 325.74C332.842 324.802 332.339 323.93 331.697 323.165C331.05 322.401 330.69 321.435 330.681 320.434C330.681 318.795 332.517 317.702 332.596 316.063C332.674 314.424 331.032 312.941 329.86 312.161C326.89 310.756 323.842 316.453 322.709 318.6Z" fill="#F89659"/>
<path d="M365.578 277.237C361.371 284.911 356.254 292.052 350.337 298.504C347.172 302.406 343.928 305.918 340.646 309.547C339.161 311.186 337.598 312.746 336.191 314.424C334.784 316.102 333.338 317.195 330.603 315.751L329.938 315.322C329.812 315.258 329.694 315.179 329.587 315.088C328.622 314.371 327.743 313.547 326.968 312.629C326.827 312.456 326.721 312.258 326.656 312.044C326.618 311.89 326.618 311.73 326.656 311.576C328.453 307.44 330.29 303.342 332.088 299.206C333.368 295.642 335.172 292.289 337.441 289.256C340.685 285.354 343.811 281.451 347.015 277.549C336.994 271.29 327.423 264.341 318.371 256.751C317.07 255.595 315.915 254.284 314.932 252.849C300.121 228.188 293.83 224.168 293.83 224.168L332.322 222.022C332.322 222.022 362.686 261.395 366.906 270.369C367.883 272.75 366.476 275.403 365.578 277.237Z" fill="#473F47"/>
<path d="M319.035 255.346C316.691 260.224 288.124 292.104 288.124 292.104C280.309 299.167 272.493 306.113 264.677 312.903C259.91 316.805 255.103 320.707 250.14 324.609C246.749 327.737 242.762 330.152 238.417 331.711C237.743 331.808 237.059 331.808 236.385 331.711C235.276 331.605 234.193 331.315 233.18 330.852C233.079 330.885 232.969 330.885 232.868 330.852C231.769 330.342 230.903 329.436 230.445 328.316C229.351 325.272 235.33 320.98 237.323 318.951L246.662 309.313C252.759 303.069 258.842 296.8 264.912 290.504L273.47 281.725C273.47 281.725 290.508 228.5 294.338 224.402C294.509 224.229 294.707 224.084 294.924 223.973C295.833 223.476 296.859 223.233 297.894 223.271V223.271C298.87 223.196 299.849 223.196 300.825 223.271C307.278 224.35 313.612 226.048 319.739 228.344C319.739 228.344 321.38 250.43 319.035 255.346Z" fill="#473F47"/>
<path d="M281.911 276.652C274.369 292.26 259.48 302.64 247.327 314.932C243.978 318.345 240.821 321.94 237.87 325.701C236.474 327.641 234.772 329.342 232.829 330.735C232.727 330.768 232.618 330.768 232.516 330.735C231.417 330.225 230.552 329.319 230.093 328.199C228.999 325.155 234.978 320.863 236.971 318.834L246.311 309.195C252.407 302.952 258.49 296.683 264.56 290.387L273.119 281.607C273.119 281.607 290.157 228.383 293.986 224.285C294.157 224.112 294.355 223.967 294.573 223.856C295.537 223.526 296.532 223.291 297.543 223.154C298.385 223.037 299.24 223.037 300.083 223.154H300.473C308.758 224.91 301.372 231.66 298.832 235.484C294.874 241.406 291.683 247.804 289.336 254.527C287.277 262.034 284.798 269.421 281.911 276.652V276.652Z" fill="url(#paint2_linear_1532_20696)" fill-opacity="0.5"/>
<path d="M410.127 196.814C409.681 197.324 409.263 197.858 408.877 198.414C408.447 199 408.056 199.624 407.587 200.404C407.33 200.858 407 201.267 406.61 201.614C406.208 201.95 405.743 202.202 405.242 202.355C403.565 202.529 401.88 202.115 400.475 201.185C395.994 199.819 391.424 198.763 386.797 198.024C381.795 196.463 376.91 194.59 372.026 192.678L360.302 188.23C356.394 186.669 352.487 185.186 348.579 183.235L346.351 182.025C345.257 181.401 343.889 180.699 342.756 181.284C342.296 181.602 341.909 182.014 341.623 182.494C340.55 184.618 340.051 186.986 340.177 189.361C339.971 191.51 339.485 193.622 338.731 195.644C337.363 199.546 336.152 203.448 334.589 207.35C333.62 211.023 331.962 214.479 329.704 217.535C328.1 218.768 326.14 219.452 324.116 219.486C319.8 219.615 315.507 220.164 311.298 221.125C309.438 221.926 307.517 222.578 305.553 223.076C302.557 223.465 299.512 222.963 296.8 221.632C294.377 220.305 294.963 217.73 295.471 215.467C297.386 206.102 299.887 200.443 294.377 192.054C295.471 193.693 280.153 202.668 278.12 202.98C269.523 204.268 263.388 199.078 256.276 195.176C251.956 193.042 247.489 191.216 242.911 189.713C241.541 189.192 240.129 188.787 238.69 188.503C237.193 188.552 235.699 188.34 234.275 187.879C233.786 187.59 233.35 187.22 232.985 186.786C232.3 186.065 231.721 185.25 231.266 184.367C230.822 183.304 230.092 182.385 229.155 181.713C227.815 181.169 226.314 181.169 224.974 181.713C224.273 181.919 223.553 182.049 222.825 182.103C222.685 182.136 222.54 182.131 222.403 182.09C222.266 182.049 222.142 181.973 222.043 181.869C221.919 181.745 221.849 181.577 221.849 181.401C221.849 181.226 221.919 181.057 222.043 180.933C222.278 180.681 222.574 180.493 222.903 180.387C224.661 179.645 226.42 178.943 228.178 178.318C226.381 177.148 224.036 177.967 221.965 177.616C221.698 177.59 221.442 177.496 221.222 177.343C221.089 177.135 221.043 176.884 221.094 176.643C221.146 176.402 221.29 176.191 221.496 176.055C221.924 175.816 222.413 175.707 222.903 175.743C224.935 175.743 226.811 175.509 228.999 175.431C226.889 173.558 223.176 174.807 221.183 172.973C221.77 172.444 222.468 172.055 223.225 171.832C223.983 171.609 224.781 171.559 225.56 171.685C227.932 171.627 230.297 171.97 232.555 172.699C233.931 173.24 235.242 173.934 236.463 174.767C241.131 178.46 246.069 181.799 251.235 184.757C254.743 186.316 258.452 187.379 262.255 187.918C263.896 188.23 265.615 188.347 267.257 188.581C268.898 188.815 271.165 189.478 272.884 189.908C273.616 190.08 274.379 190.08 275.111 189.908C275.681 189.729 276.203 189.422 276.635 189.01C279.815 186.191 282.473 182.836 284.49 179.099C286.835 175.197 289.649 171.763 292.306 168.056C293.294 166.475 294.631 165.141 296.214 164.154C299.066 162.593 302.623 163.568 305.866 163.178C307.222 163.045 308.535 162.629 309.72 161.957C310.905 161.284 311.935 160.371 312.744 159.276C314.268 156.779 313.643 153.462 315.284 150.965C316.283 149.603 317.634 148.537 319.192 147.882C320.94 146.976 322.613 145.932 324.194 144.76C325.444 143.902 327.047 143.004 328.414 143.746C328.621 143.839 328.803 143.979 328.946 144.155C329.088 144.331 329.187 144.539 329.235 144.76C329.329 145.132 329.329 145.52 329.235 145.892C328.657 147.713 328.174 149.562 327.789 151.433C327.222 153.343 327.222 155.376 327.789 157.286C328.805 159.939 332.517 160.954 335.019 161.539C338.614 162.437 342.404 162.047 346.039 162.866C349.444 163.888 352.626 165.543 355.417 167.744C359.911 170.904 364.054 174.455 368.391 177.811C370.58 179.528 372.807 181.206 375.152 182.728C378.267 184.298 381.509 185.603 384.843 186.63C388.551 188.196 392.364 189.5 396.254 190.532C401.341 191.958 406.686 192.211 411.886 191.273C412.005 192.269 411.911 193.278 411.607 194.234C411.304 195.19 410.799 196.07 410.127 196.814V196.814Z" fill="#F89659"/>
<path d="M406.61 201.614C406.208 201.95 405.743 202.202 405.242 202.355C403.565 202.529 401.88 202.115 400.475 201.185C395.994 199.819 391.424 198.763 386.797 198.024C381.795 196.463 376.91 194.59 372.026 192.678L360.302 188.23C356.394 186.669 352.486 185.186 348.579 183.235C349.634 183.781 352.486 177.382 353.034 176.719C356.238 173.051 356.004 179.801 356.316 182.025C356.331 182.489 356.451 182.942 356.668 183.352C357.075 183.856 357.617 184.235 358.231 184.445C365.734 187.723 373.367 190.649 381.131 193.225C385.039 194.512 388.947 195.605 393.05 196.853C396.332 197.868 399.693 198.219 403.093 198.961C404.461 199.273 406.102 199.78 406.375 201.185C406.475 201.315 406.554 201.46 406.61 201.614V201.614Z" fill="#D57439"/>
<path d="M313.486 153.501C313.763 154.804 313.655 156.16 313.174 157.403C312.353 159.003 319.661 159.705 321.419 157.403C323.178 154.592 324.757 151.672 326.148 148.662L313.486 153.501Z" fill="#D57439"/>
<path d="M321.849 152.642C319.765 153.883 317.354 154.468 314.932 154.32C313.715 154.256 312.53 153.909 311.472 153.306C310.413 152.703 309.511 151.861 308.836 150.847C308.087 149.471 307.621 147.958 307.468 146.399C306.495 138.837 307.859 131.158 311.376 124.391C311.899 123.288 312.644 122.305 313.564 121.504C314.87 120.692 316.418 120.361 317.941 120.567C320.853 120.882 323.59 122.112 325.757 124.079C328.065 125.998 330.15 128.171 331.97 130.556C333.104 132.078 335.175 134.459 334.745 136.449C333.969 138.393 332.944 140.229 331.697 141.912C329.47 146.328 326.061 150.042 321.849 152.642V152.642Z" fill="#F89659"/>
<path d="M418.294 193.888C418.415 193.841 418.523 193.767 418.611 193.673C418.699 193.578 418.764 193.465 418.802 193.342C418.802 192.873 418.372 192.561 417.904 192.405C416.364 191.923 414.78 191.596 413.175 191.43C412.081 191.43 410.049 191.43 409.267 192.483C408.486 193.537 409.619 194.278 410.518 194.668C413.12 195.351 415.881 195.074 418.294 193.888V193.888Z" fill="#F89659"/>
<path d="M417.317 168.446C412.433 171.49 407.431 169.187 402.624 173.051C400.345 175.339 397.705 177.238 394.808 178.67C392.884 179.309 390.852 179.56 388.829 179.411C380.425 179.039 372.5 175.397 366.75 169.266C365.556 167.861 364.249 166.556 362.842 165.363C356.98 160.915 348.461 163.764 341.349 161.891C337.847 160.879 334.766 158.763 332.568 155.858C330.37 152.953 329.174 149.415 329.157 145.775C329.482 143.068 329.651 140.345 329.665 137.619C329.541 136.713 329.318 135.824 329 134.966C328.263 133.192 327.291 131.525 326.109 130.01C326.441 131.619 326.441 133.279 326.109 134.888C325.845 136.528 326.192 138.208 327.085 139.609C326.054 139.068 325.148 138.316 324.428 137.401C323.707 136.487 323.188 135.431 322.904 134.303C322.904 133.756 322.904 133.249 322.904 132.742C322.58 131.438 321.822 130.282 320.755 129.464C319.231 128.215 317.472 127.279 315.909 126.108C314.399 125.066 313.198 123.637 312.431 121.972C312.066 121.166 311.93 120.274 312.04 119.396C312.273 117.782 312.869 116.242 313.782 114.891C314.696 113.539 315.904 112.411 317.316 111.592C319.217 110.588 321.306 109.987 323.451 109.825C325.596 109.664 327.751 109.947 329.782 110.656C333.818 112.142 337.512 114.425 340.646 117.367C342.607 119.543 345.16 121.102 347.992 121.855C350.226 121.926 352.449 121.527 354.518 120.684C358.119 119.443 361.965 119.082 365.734 119.631C371.522 121.433 376.691 124.811 380.662 129.386C384.728 133.972 390.245 137.029 396.293 138.049C401.115 137.728 405.95 138.433 410.479 140.117C414.122 142.055 417.235 144.855 419.545 148.272C421.995 151.581 423.224 155.634 423.023 159.744C422.851 161.548 422.241 163.283 421.247 164.799C420.253 166.316 418.904 167.567 417.317 168.446V168.446Z" fill="#B83E00"/>
<path d="M334.979 217.379C334.279 219.032 333.142 220.464 331.69 221.523C330.237 222.581 328.524 223.226 326.734 223.388C319.895 225.066 312.588 224.441 305.866 226.783C303.862 227.621 301.814 228.35 299.731 228.968H299.106C297.954 229.285 296.743 229.323 295.574 229.078C294.405 228.834 293.312 228.315 292.384 227.563C289.727 225.066 290.43 220.734 291.29 217.223C292.892 210.823 296.644 203.097 292.736 196.932C292.186 196.342 291.677 195.717 291.212 195.058C290.734 194.344 290.353 193.57 290.078 192.756L288.203 187.801L284.295 177.85C283.992 177.216 283.832 176.524 283.826 175.821C284.056 174.866 284.558 173.999 285.272 173.324L291.603 166.339C292.787 164.777 294.328 163.52 296.097 162.671C298.053 162.194 300.062 161.971 302.075 162.008C304.647 161.475 307.141 160.623 309.5 159.471C309.806 159.375 310.133 159.375 310.438 159.471C310.739 159.687 310.948 160.007 311.024 160.369C311.474 161.45 312.17 162.412 313.057 163.178C313.666 163.737 314.319 164.246 315.01 164.7L315.909 165.324L320.95 168.68C322.037 169.489 323.252 170.109 324.546 170.514C328.961 171.646 330.915 166.378 330.095 162.71C329.56 160.724 328.63 158.866 327.359 157.247C329.352 157.676 331.267 158.144 333.299 158.691C335.152 159.423 337.06 160.01 339.005 160.447C341.935 160.72 344.515 159.588 347.406 160.837C351.12 162.458 354.634 164.5 357.879 166.924L356.59 171.49C354.988 177.031 353.034 183.196 348.188 186.201C346.937 186.981 345.57 187.566 344.28 188.425C342.209 189.908 342.287 191.742 341.623 193.888C340.45 197.79 339.317 201.458 338.34 205.243C337.539 209.37 336.416 213.427 334.979 217.379V217.379Z" fill="white"/>
<path d="M333.807 165.988C334.074 165.54 334.434 165.154 334.862 164.856C335.231 164.688 335.63 164.595 336.035 164.583C341.154 164.154 346.312 163.842 351.432 163.725C344.28 159.237 334.706 161.071 327.008 157.52C326.382 159.354 327.672 161.422 328.453 163.022C329.082 164.655 329.426 166.384 329.469 168.134C330.317 168.183 331.163 168.011 331.923 167.635C332.684 167.259 333.333 166.691 333.807 165.988V165.988Z" fill="url(#paint3_linear_1532_20696)" fill-opacity="0.2"/>
<path d="M236.307 186.552C235.23 187 234.035 187.083 232.907 186.786C232.222 186.065 231.643 185.25 231.187 184.367C230.731 183.312 230.003 182.396 229.077 181.713C227.737 181.169 226.236 181.169 224.896 181.713C225.569 181.106 226.392 180.689 227.28 180.504C227.765 180.424 228.222 180.221 228.605 179.913C228.988 179.605 229.286 179.204 229.468 178.748C229.504 178.388 229.583 178.035 229.702 177.694C230.015 177.187 230.679 177.148 231.266 177.148C232.455 177.242 233.633 177.451 234.783 177.772C235.578 177.939 236.343 178.228 237.049 178.631C237.686 179.005 238.159 179.604 238.378 180.308C237.987 180.308 237.44 180.035 237.01 179.918C236.498 179.764 235.976 179.647 235.447 179.567C234.397 179.446 233.333 179.539 232.321 179.84C232.321 179.84 232.008 179.84 231.969 180.074C231.93 180.308 231.969 180.426 232.282 180.543C233.962 181.44 235.955 181.674 237.635 182.689C237.88 182.792 238.085 182.969 238.221 183.196C238.358 183.534 238.358 183.912 238.221 184.25C238.094 184.752 237.856 185.219 237.525 185.617C237.194 186.016 236.777 186.335 236.307 186.552V186.552Z" fill="#D57439"/>
<path d="M335.878 328.667C335.253 327.418 334.511 326.014 333.143 325.623C332.408 325.486 331.663 325.407 330.915 325.389C329.079 325.038 327.945 323.282 327.008 321.76C326.074 319.995 324.975 318.323 323.725 316.766C323.725 316.766 320.794 319.497 321.146 320.434C321.6 321.351 322.193 322.193 322.904 322.931C325.457 326.072 328.399 328.878 331.658 331.281C332.674 331.906 335.878 334.13 337.129 333.545C338.379 332.959 336.308 329.721 335.878 328.667Z" fill="#FFB443"/>
<path d="M229.624 356.021C229.502 357.116 229.052 358.149 228.335 358.987C228.21 359.122 228.059 359.23 227.891 359.303C227.723 359.377 227.541 359.416 227.358 359.416C227.016 359.387 226.696 359.234 226.459 358.987C224.266 357.441 222.373 355.511 220.871 353.289C219.361 350.982 218.685 348.228 218.956 345.485C219.19 343.69 219.933 341.973 220.285 340.178C220.636 338.383 220.597 336.979 221.027 335.418C221.457 333.857 223.802 332.92 225.326 332.413C225.912 332.842 224.583 333.74 224.31 334.403C223.31 336.883 222.806 339.534 222.825 342.207C222.68 343.475 222.795 344.759 223.165 345.98C223.535 347.201 224.15 348.334 224.974 349.309C225.304 349.639 225.703 349.89 226.142 350.045C226.582 350.201 227.05 350.256 227.514 350.207C228.257 350.207 229.077 348.763 229.742 349.075C230.406 349.387 229.781 354.967 229.624 356.021Z" fill="#FFB443"/>
<path d="M346.117 286.68L330.485 315.751L329.821 315.322C329.695 315.258 329.577 315.179 329.469 315.088C328.505 314.371 327.626 313.547 326.851 312.629C326.71 312.456 326.604 312.258 326.539 312.044C326.5 311.89 326.5 311.73 326.539 311.576C328.336 307.44 330.173 303.342 331.97 299.206C333.251 295.642 335.055 292.289 337.324 289.256C340.568 285.354 343.694 281.451 346.898 277.549C336.877 271.29 327.306 264.341 318.254 256.751L318.762 255.19L320.95 250.82C320.95 250.82 350.962 271.735 352.213 273.764C353.463 275.793 346.117 286.68 346.117 286.68Z" fill="url(#paint4_linear_1532_20696)" fill-opacity="0.5"/>
<path d="M299.731 228.968H299.106C297.954 229.285 296.743 229.323 295.574 229.078C294.405 228.834 293.312 228.315 292.384 227.563C289.727 225.066 290.43 220.734 291.29 217.223C292.892 210.823 296.644 203.097 292.736 196.932C294.091 194.68 295.934 192.76 298.129 191.312C299.009 190.548 300.031 189.965 301.138 189.596C304.342 188.815 308.328 191.742 310.751 189.596C309.657 193.498 306.335 196.073 304.616 199.585C303.85 201.34 303.273 203.171 302.896 205.048C302.036 208.95 301.138 212.852 300.239 216.754C299.13 219.681 298.612 222.797 298.715 225.924C298.949 227.056 299.692 228.07 299.731 228.968Z" fill="url(#paint5_linear_1532_20696)" fill-opacity="0.2"/>
<path d="M417.317 168.446C412.433 171.49 407.431 169.187 402.624 173.051C400.345 175.339 397.705 177.238 394.808 178.67C392.884 179.308 390.852 179.56 388.829 179.411C380.425 179.039 372.5 175.397 366.75 169.265C365.556 167.861 364.249 166.556 362.842 165.363C356.98 160.915 348.461 163.763 341.349 161.89C337.847 160.879 334.766 158.763 332.568 155.858C330.37 152.953 329.174 149.415 329.157 145.775C329.482 143.068 329.651 140.345 329.665 137.619C329.541 136.713 329.318 135.824 329 134.966C328.688 132.781 328.727 131.883 330.837 133.6C333.199 135.851 335.155 138.491 336.621 141.404C338.714 145.509 342.127 148.793 346.312 150.73C352.838 153.111 360.498 149.794 366.828 152.603C370.101 154.382 373.016 156.75 375.425 159.588C376.587 161.029 378.033 162.215 379.674 163.074C381.314 163.933 383.113 164.447 384.961 164.583C385.703 164.582 386.436 164.421 387.111 164.112C387.785 163.802 388.385 163.35 388.868 162.788C383.055 159.895 378.218 155.364 374.956 149.755C378.241 153.283 382.357 155.934 386.93 157.468C391.503 159.001 396.388 159.368 401.139 158.535C399.694 160.359 397.849 161.828 395.746 162.827C401.999 163.022 408.955 162.515 413.37 158.066C414.66 156.779 415.989 155.062 417.825 155.218C418.811 155.375 419.71 155.872 420.366 156.623C421.327 157.599 422.131 158.718 422.749 159.939C422.576 161.684 421.995 163.363 421.051 164.841C420.107 166.319 418.828 167.554 417.317 168.446V168.446Z" fill="url(#paint6_linear_1532_20696)" fill-opacity="0.5"/>
<path d="M331.736 138.088C332.262 137.99 332.805 138.082 333.27 138.346C333.735 138.61 334.091 139.03 334.276 139.531C334.349 139.92 334.338 140.319 334.244 140.703C334.149 141.086 333.974 141.445 333.729 141.756C332.8 143.265 331.438 144.461 329.821 145.189C329.534 145.351 329.213 145.445 328.883 145.463C328.521 145.426 328.18 145.274 327.913 145.027C327.645 144.781 327.464 144.454 327.398 144.097C327.28 143.375 327.403 142.634 327.75 141.99C328.414 140.39 329.899 138.361 331.736 138.088Z" fill="#F89659"/>
<path d="M331.267 140.663C331.452 140.415 331.693 140.214 331.97 140.078C332.08 140.004 332.209 139.964 332.342 139.964C332.474 139.964 332.603 140.004 332.713 140.078C332.713 140.078 332.713 140.429 332.713 140.624C332.638 141.438 332.335 142.215 331.837 142.864C331.339 143.513 330.667 144.008 329.899 144.292C329.708 144.349 329.504 144.349 329.313 144.292C328.57 144.058 328.492 142.536 329.039 142.068C329.587 141.599 329.743 141.873 330.095 141.756C330.446 141.638 330.993 141.131 331.267 140.663Z" fill="#D57439"/>
<path d="M320.911 169.695C318.255 169.379 315.718 168.414 313.525 166.885C312.148 165.736 310.64 164.754 309.031 163.959C307.171 163.316 305.148 163.316 303.287 163.959C298.623 165.942 294.575 169.135 291.563 173.207C290.45 174.321 289.572 175.648 288.984 177.109C288.125 179.489 290.587 187.176 288.164 187.801L284.256 177.85C283.953 177.216 283.793 176.524 283.787 175.821C284.017 174.866 284.519 173.999 285.233 173.324L291.563 166.339C292.748 164.777 294.289 163.52 296.057 162.671C298.014 162.194 300.023 161.971 302.036 162.008C304.608 161.475 307.102 160.623 309.461 159.471C309.767 159.375 310.094 159.375 310.399 159.471C310.7 159.687 310.909 160.007 310.985 160.369C311.435 161.45 312.131 162.412 313.017 163.178C313.627 163.737 314.28 164.246 314.971 164.7C316.711 166.631 318.71 168.312 320.911 169.695V169.695Z" fill="url(#paint7_linear_1532_20696)" fill-opacity="0.2"/>
<path d="M342.209 178.084C341.942 176.929 341.942 175.728 342.209 174.572C342.541 173.837 343.05 173.196 343.691 172.706C344.332 172.215 345.085 171.891 345.882 171.763C347.486 171.49 349.124 171.49 350.728 171.763C352.526 171.763 354.636 172.543 355.066 174.299C355.157 175.13 355.008 175.97 354.636 176.718C353.856 179.168 352.808 181.523 351.51 183.742C350.533 185.225 344.944 190.922 342.639 189.283C341.271 188.308 342.404 179.957 342.209 178.084Z" fill="url(#paint8_linear_1532_20696)" fill-opacity="0.2"/>
<path d="M412.863 293.08L390.94 288.163L408.173 254.215L430.135 259.131L412.863 293.08Z" fill="#FFB443"/>
<path d="M439.944 299.167L417.982 294.211L453.152 225.105L475.075 230.021L439.944 299.167Z" fill="#FFB443"/>
<path d="M466.986 305.254L445.063 300.299L466.439 258.195L488.401 263.15L466.986 305.254Z" fill="#E52440"/>
<path d="M494.067 311.303L472.105 306.386L518.413 215.35L540.336 220.266L494.067 311.303Z" fill="#FFB443"/>
<path d="M439.944 299.167L417.982 294.211L453.152 225.105L475.075 230.021L439.944 299.167Z" fill="url(#paint9_linear_1532_20696)"/>
<path d="M494.067 311.303L472.105 306.386L518.413 215.35L540.336 220.266L494.067 311.303Z" fill="url(#paint10_linear_1532_20696)"/>
<path d="M521.109 317.39L499.187 312.473L558.39 195.995L580.313 200.912L521.109 317.39Z" fill="#E52440"/>
<path d="M213.915 81.2727H85.9332C76.1348 81.2727 68.1917 89.2043 68.1917 98.9883V226.783C68.1917 236.567 76.1348 244.498 85.9332 244.498H213.915C223.713 244.498 231.656 236.567 231.656 226.783V98.9883C231.656 89.2043 223.713 81.2727 213.915 81.2727Z" fill="white"/>
<path d="M147.091 204.541C173.206 204.541 194.376 183.401 194.376 157.325C194.376 131.249 173.206 110.109 147.091 110.109C120.976 110.109 99.8062 131.249 99.8062 157.325C99.8062 183.401 120.976 204.541 147.091 204.541Z" fill="#FFB443"/>
<path d="M147.052 101.681V159.354L197.854 122.713C197.854 122.713 174.758 96.9202 147.052 101.681Z" fill="#E52440"/>
</g>
<defs>
<linearGradient id="paint0_linear_1532_20696" x1="328.547" y1="284.404" x2="349.921" y2="443.515" gradientUnits="userSpaceOnUse">
<stop stop-color="#EAEAEA"/>
<stop offset="1" stop-color="#A3A3A3"/>
</linearGradient>
<linearGradient id="paint1_linear_1532_20696" x1="-201139" y1="21014.3" x2="-199732" y2="25320.5" gradientUnits="userSpaceOnUse">
<stop stop-color="#EAEAEA"/>
<stop offset="1" stop-color="#A3A3A3"/>
</linearGradient>
<linearGradient id="paint2_linear_1532_20696" x1="225.951" y1="254.176" x2="408.828" y2="356.17" gradientUnits="userSpaceOnUse">
<stop offset="0.01"/>
<stop offset="0.08" stop-opacity="0.69"/>
<stop offset="0.21" stop-opacity="0.32"/>
<stop offset="1" stop-opacity="0"/>
</linearGradient>
<linearGradient id="paint3_linear_1532_20696" x1="1321" y1="376.972" x2="2612.15" y2="2440.56" gradientUnits="userSpaceOnUse">
<stop offset="0.01"/>
<stop offset="0.08" stop-opacity="0.69"/>
<stop offset="0.21" stop-opacity="0.32"/>
<stop offset="1" stop-opacity="0"/>
</linearGradient>
<linearGradient id="paint4_linear_1532_20696" x1="2616.75" y1="5062.87" x2="6442.28" y2="6195.05" gradientUnits="userSpaceOnUse">
<stop offset="0.01"/>
<stop offset="0.08" stop-opacity="0.69"/>
<stop offset="0.21" stop-opacity="0.32"/>
<stop offset="1" stop-opacity="0"/>
</linearGradient>
<linearGradient id="paint5_linear_1532_20696" x1="940.12" y1="1491.39" x2="4302.24" y2="2672.31" gradientUnits="userSpaceOnUse">
<stop offset="0.01"/>
<stop offset="0.08" stop-opacity="0.69"/>
<stop offset="0.21" stop-opacity="0.32"/>
<stop offset="1" stop-opacity="0"/>
</linearGradient>
<linearGradient id="paint6_linear_1532_20696" x1="9347.13" y1="1887.79" x2="9460.34" y2="4264.06" gradientUnits="userSpaceOnUse">
<stop offset="0.01"/>
<stop offset="0.08" stop-opacity="0.69"/>
<stop offset="0.21" stop-opacity="0.32"/>
<stop offset="1" stop-opacity="0"/>
</linearGradient>
<linearGradient id="paint7_linear_1532_20696" x1="1624.35" y1="923.962" x2="5443.03" y2="4370.14" gradientUnits="userSpaceOnUse">
<stop offset="0.01"/>
<stop offset="0.08" stop-opacity="0.69"/>
<stop offset="0.21" stop-opacity="0.32"/>
<stop offset="1" stop-opacity="0"/>
</linearGradient>
<linearGradient id="paint8_linear_1532_20696" x1="857.931" y1="574.092" x2="2814.31" y2="1559.02" gradientUnits="userSpaceOnUse">
<stop offset="0.01"/>
<stop offset="0.08" stop-opacity="0.69"/>
<stop offset="0.21" stop-opacity="0.32"/>
<stop offset="1" stop-opacity="0"/>
</linearGradient>
<linearGradient id="paint9_linear_1532_20696" x1="-31616.2" y1="192.33" x2="-28444.7" y2="8486.02" gradientUnits="userSpaceOnUse">
<stop offset="0.01"/>
<stop offset="0.08" stop-opacity="0.69"/>
<stop offset="0.21" stop-opacity="0.32"/>
<stop offset="1" stop-opacity="0"/>
</linearGradient>
<linearGradient id="paint10_linear_1532_20696" x1="-37520.9" y1="326.883" x2="-33235.1" y2="10566.2" gradientUnits="userSpaceOnUse">
<stop offset="0.01"/>
<stop offset="0.08" stop-opacity="0.69"/>
<stop offset="0.21" stop-opacity="0.32"/>
<stop offset="1" stop-opacity="0"/>
</linearGradient>
<clipPath id="clip0_1532_20696">
<rect width="675" height="508" fill="white"/>
</clipPath>
</defs>
</svg>
