<svg width="120" height="95" viewBox="0 0 120 95" fill="none" xmlns="http://www.w3.org/2000/svg">
<g clip-path="url(#clip0_1532_22254)">
<path d="M57.5111 90.5506C57.268 90.7276 57.0646 90.9532 56.9141 91.2129C56.8402 91.3432 56.8075 91.4927 56.82 91.6418C56.8325 91.791 56.8898 91.9329 56.9845 92.0493C57.2063 92.2772 57.5688 92.2736 57.8863 92.2413C59.0821 92.1199 60.2553 91.8349 61.3728 91.3942C61.7083 91.2613 62.0654 91.0926 62.2313 90.7714C62.3189 90.5684 62.3631 90.3496 62.3612 90.1288L62.4225 89.1399C62.4369 88.9083 62.4063 88.6104 62.1826 88.5458C62.1235 88.5321 62.0624 88.529 62.0023 88.5368C61.2808 88.5763 60.231 88.4309 59.5962 88.8006C58.8404 89.244 58.2001 90.0014 57.5111 90.5506Z" fill="#E52440"/>
<path d="M70.5027 91.2631C70.7196 91.471 70.8914 91.7208 71.0077 91.9972C71.063 92.1363 71.0754 92.2886 71.0433 92.4347C71.0111 92.5808 70.936 92.7141 70.8273 92.8175C70.5766 93.0149 70.2177 92.9628 69.9093 92.8892C68.7403 92.6117 67.6155 92.1744 66.5671 91.5898C66.2514 91.4103 65.9195 91.2003 65.7987 90.8611C65.7393 90.648 65.7246 90.425 65.7554 90.206L65.8257 89.217C65.842 88.9855 65.9123 88.6947 66.1414 88.6606C66.2018 88.6543 66.2628 88.6586 66.3218 88.6732C67.0252 88.8078 68.0912 88.8024 68.6665 89.2529C69.3573 89.7932 69.893 90.6278 70.5027 91.2631Z" fill="#E52440"/>
<path d="M57.5111 90.5506C57.268 90.7276 57.0646 90.9532 56.9141 91.2129C56.8402 91.3432 56.8075 91.4927 56.82 91.6418C56.8325 91.791 56.8898 91.9329 56.9845 92.0493C57.2063 92.2772 57.5688 92.2736 57.8863 92.2413C59.0821 92.1199 60.2553 91.8349 61.3728 91.3942C61.7083 91.2613 62.0654 91.0926 62.2313 90.7714C62.3189 90.5684 62.3631 90.3496 62.3612 90.1288L62.4225 89.1399C62.4369 88.9083 62.4063 88.6104 62.1826 88.5458C62.1235 88.5321 62.0624 88.529 62.0023 88.5368C61.2808 88.5763 60.231 88.4309 59.5962 88.8006C58.8404 89.244 58.2001 90.0014 57.5111 90.5506Z" fill="#010101"/>
<path d="M70.5027 91.2631C70.7196 91.471 70.8914 91.7208 71.0077 91.9972C71.063 92.1363 71.0754 92.2886 71.0433 92.4347C71.0111 92.5808 70.936 92.7141 70.8273 92.8175C70.5766 93.0149 70.2177 92.9628 69.9093 92.8892C68.7403 92.6117 67.6155 92.1744 66.5671 91.5898C66.2514 91.4103 65.9195 91.2003 65.7987 90.8611C65.7393 90.648 65.7246 90.425 65.7554 90.206L65.8257 89.217C65.842 88.9855 65.9123 88.6947 66.1414 88.6606C66.2018 88.6543 66.2628 88.6586 66.3218 88.6732C67.0252 88.8078 68.0912 88.8024 68.6665 89.2529C69.3573 89.7932 69.893 90.6278 70.5027 91.2631Z" fill="url(#paint0_linear_1532_22254)"/>
<path d="M58.7319 58.8234L59.181 70.6173L59.632 88.6822C59.632 88.6822 60.4256 89.253 62.3717 88.7756L64.1321 70.1685L65.034 61.8082L67.2831 70.9152L66.0837 88.824C66.0837 88.824 67.1334 89.7214 68.9335 89.7214L72.2342 70.9098L69.8335 57.1812L58.7319 58.8234Z" fill="#606161"/>
<path d="M58.7319 58.8234L59.181 70.6173L59.632 88.6822C59.632 88.6822 60.4202 88.9245 62.3717 88.7756L64.1321 70.1685L65.034 61.8082L67.2831 70.9152L66.0837 88.824C66.0837 88.824 67.1334 89.7214 68.9335 89.7214L72.2342 70.9098L69.8335 57.1812L58.7319 58.8234Z" fill="url(#paint1_linear_1532_22254)"/>
<path d="M59.4822 37.3231C59.4822 37.3231 56.5169 38.9384 56.1814 39.2651C55.8802 39.563 58.4306 57.9313 58.5821 58.8288C58.7336 59.7262 63.6829 59.4246 65.7824 58.8288C67.1815 58.4091 68.5379 57.8592 69.8334 57.1865C69.8334 57.1865 68.7837 38.0751 68.3346 37.7772C67.8855 37.4792 63.6829 36.5818 63.6829 36.5818L59.4822 37.3231Z" fill="#FFB443"/>
<path d="M68.3345 37.7718C68.3345 37.7718 69.2363 38.0697 69.6836 38.6692C70.1309 39.2687 73.7347 46.4319 73.291 47.9251C72.8473 49.4184 71.3394 49.8672 70.8903 49.5674C70.4412 49.2677 69.5339 47.1839 69.3932 46.5808C69.2525 45.9778 68.9531 44.016 68.9531 44.016L68.3345 37.7718Z" fill="#FFB443"/>
<path d="M72.7734 50.7448C72.9968 50.772 73.2235 50.7468 73.4354 50.6712C73.6605 50.5664 73.8642 50.421 74.036 50.2423C74.3955 49.9322 74.7235 49.5877 75.0154 49.2138C75.2543 48.8725 75.4545 48.5059 75.6124 48.1208C76.1455 46.8942 76.4827 45.5922 76.6117 44.2619C76.6676 43.7001 76.6802 43.1114 76.4403 42.6017C76.4094 42.525 76.3598 42.4571 76.296 42.4043C76.2425 42.3719 76.1827 42.351 76.1206 42.343C76.0585 42.3349 75.9953 42.3399 75.9353 42.3576C75.3148 42.4832 74.9577 43.1132 74.6456 43.6624C74.0495 44.7095 73.3315 45.683 72.5065 46.5629C72.091 46.972 71.7029 47.4079 71.3449 47.8677C70.9643 48.4062 70.526 49.1708 70.9842 49.7559C71.1987 50.0336 71.4682 50.2646 71.7759 50.4347C72.0837 50.6048 72.4231 50.7103 72.7734 50.7448Z" fill="#E52440"/>
<path d="M72.7734 50.7448C72.9968 50.772 73.2235 50.7468 73.4354 50.6712C73.6605 50.5664 73.8642 50.421 74.036 50.2423C74.3955 49.9322 74.7235 49.5877 75.0154 49.2138C75.2543 48.8725 75.4545 48.5059 75.6124 48.1208C76.1455 46.8942 76.4827 45.5922 76.6117 44.2619C76.6676 43.7001 76.6802 43.1114 76.4403 42.6017C76.4094 42.525 76.3598 42.4571 76.296 42.4043C76.2425 42.3719 76.1827 42.351 76.1206 42.343C76.0585 42.3349 75.9953 42.3399 75.9353 42.3576C75.3148 42.4832 74.9577 43.1132 74.6456 43.6624C74.0495 44.7095 73.3315 45.683 72.5065 46.5629C72.091 46.972 71.7029 47.4079 71.3449 47.8677C70.9643 48.4062 70.526 49.1708 70.9842 49.7559C71.1987 50.0336 71.4682 50.2646 71.7759 50.4347C72.0837 50.6048 72.4231 50.7103 72.7734 50.7448Z" fill="url(#paint2_linear_1532_22254)"/>
<path d="M56.3225 39.152C56.3225 39.152 54.2302 40.1607 53.7811 41.654C53.332 43.1473 50.1738 50.6102 51.2307 51.6566C51.3209 51.7464 51.4562 51.8935 51.6203 52.073C51.8411 52.3167 52.1235 52.4971 52.4381 52.5953C52.7527 52.6936 53.088 52.7062 53.4091 52.6318C53.7302 52.5574 54.0255 52.3988 54.2641 52.1723C54.5027 51.9459 54.676 51.66 54.7659 51.3443L56.6977 44.576C56.6977 44.576 57.2135 40.2343 56.3225 39.152Z" fill="#FFB443"/>
<path d="M54.0405 52.0012C54.0032 52.0977 53.9355 52.1795 53.8476 52.2346C53.7243 52.3281 53.5898 52.4059 53.4471 52.4661V52.4751C53.0158 52.682 52.5333 52.7599 52.0583 52.6994C51.1312 52.5756 50.2691 51.5687 49.6829 50.6282C49.5837 50.4684 49.5909 50.1023 49.5241 49.9282C49.4697 49.7765 49.4524 49.6141 49.4736 49.4544C49.5169 48.53 49.4322 47.0565 49.5169 46.0657C49.5176 45.9937 49.523 45.9217 49.5332 45.8503C49.5494 45.7085 49.5909 45.5416 49.7135 45.5165C49.7964 45.5067 49.8799 45.5278 49.948 45.5757C50.8336 46.0908 51.8202 48.4708 52.374 49.3449C52.8754 50.1202 53.761 50.8346 54.0297 51.7266C54.0627 51.8147 54.0665 51.9109 54.0405 52.0012Z" fill="#FFB443"/>
<path d="M53.4724 52.3997C53.4634 52.4248 53.4543 52.4499 53.4471 52.4661V52.4751C53.0158 52.682 52.5333 52.7599 52.0583 52.6994C51.1312 52.5756 50.2691 51.5687 49.6829 50.6282C49.5837 50.4685 49.5909 50.1023 49.5241 49.9282C49.4697 49.7765 49.4524 49.6141 49.4736 49.4544C49.5169 48.53 49.4322 47.0565 49.5169 46.0657C50.3701 46.7244 51.2809 48.9123 51.8076 49.7451C52.309 50.5187 53.1964 51.2348 53.4634 52.1251C53.4947 52.2135 53.4978 52.3094 53.4724 52.3997Z" fill="url(#paint3_linear_1532_22254)"/>
<path d="M59.1812 35.5319C59.1812 35.5319 59.6321 37.4721 59.4824 38.2241C59.3327 38.9761 60.5321 41.0617 62.0328 41.0617C63.5334 41.0617 63.5334 38.5238 63.5334 38.2241C63.5334 37.9244 62.9021 37.298 63.0518 36.5513C63.2015 35.8047 59.3327 34.6362 59.1812 35.5319Z" fill="#F5E0CD"/>
<path d="M60.0142 37.8364C60.1607 38.0503 60.3389 38.2409 60.5427 38.4018C60.9012 38.6593 61.3343 38.7935 61.7764 38.7841C62.0983 38.7986 62.4134 38.6879 62.6548 38.4754C62.8039 38.2928 62.8911 38.0678 62.9037 37.8328C62.9595 37.441 62.9885 37.0458 62.9902 36.6501C62.9902 36.4706 62.9542 36.2337 62.7431 36.1637C62.6299 36.1367 62.5119 36.1367 62.3986 36.1637C61.7244 36.2712 61.0402 36.3037 60.3587 36.2606C59.8897 36.2301 59.2621 36.0954 59.3721 36.6034C59.5008 37.0531 59.7192 37.4724 60.0142 37.8364Z" fill="url(#paint4_linear_1532_22254)"/>
<path d="M59.5111 37.9405C59.5111 37.9405 60.7196 40.7566 61.7513 41.0564C61.7513 41.0564 62.0327 41.2053 61.2823 41.654C60.532 42.1028 58.4307 39.8592 58.732 38.2187C58.7636 38.0094 58.8489 37.8117 58.9797 37.6448C59.1105 37.4778 59.2824 37.3473 59.4787 37.2657L59.5111 37.9405Z" fill="white"/>
<path d="M63.0068 36.8529C63.0068 36.8529 63.566 39.3943 62.7236 40.823C62.7236 40.823 63.0844 41.3615 63.3838 41.3615C63.6832 41.3615 64.4335 39.5666 64.1323 38.2259C63.9574 37.4344 63.1565 36.6393 63.0068 36.8529Z" fill="white"/>
<path d="M63.5159 30.9084C63.5159 30.9084 63.8153 34.7906 63.5159 35.837C63.2165 36.8834 62.3147 37.7772 61.4147 37.7772C60.5146 37.7772 59.1637 37.0305 58.5649 35.6862C57.966 34.3419 57.663 31.0591 57.8145 30.6104C57.966 30.1617 58.8697 28.751 61.265 28.9682C62.9153 29.1171 63.5159 30.3125 63.5159 30.9084Z" fill="#F5E0CD"/>
<path d="M64.1216 33.2811C64.1028 33.3872 64.0719 33.4907 64.0296 33.5898C64.0064 33.6679 63.9678 33.7405 63.9159 33.8034C63.8393 33.8745 63.7455 33.9246 63.6436 33.9488C63.602 33.9659 63.5563 33.9709 63.5119 33.9632C63.2179 33.8824 63.254 33.1501 63.4019 32.9509C63.4831 32.8432 63.7771 32.6099 63.9069 32.6511C64.0999 32.7104 64.145 33.1268 64.1216 33.2811Z" fill="#F5E0CD"/>
<path d="M57.9686 33.6599C57.9303 33.6229 57.8821 33.598 57.8297 33.5881C57.7902 33.5865 57.7511 33.5971 57.7179 33.6186C57.6685 33.6519 57.6275 33.6961 57.5981 33.7478C57.5687 33.7995 57.5516 33.8572 57.5483 33.9165C57.5405 34.0381 57.5564 34.16 57.5952 34.2755C57.6674 34.534 57.7846 34.8139 58.0281 34.9288C58.055 34.9459 58.0863 34.955 58.1183 34.955C58.1502 34.955 58.1815 34.9459 58.2085 34.9288C58.2331 34.9054 58.2507 34.8756 58.259 34.8427C58.3516 34.6321 58.3995 34.4048 58.3997 34.175C58.3708 33.9686 58.1237 33.7873 57.9686 33.6599Z" fill="#F5E0CD"/>
<path d="M74.8049 19.6996H49.6004C49.1164 19.7006 48.6526 19.8926 48.3107 20.2334C47.9689 20.5743 47.7769 21.0362 47.7769 21.5178V67.8729C47.7766 68.1113 47.8236 68.3473 47.9152 68.5676C48.0067 68.7878 48.141 68.988 48.3104 69.1565C48.4798 69.3251 48.6809 69.4587 48.9023 69.5498C49.1236 69.6409 49.3608 69.6877 49.6004 69.6875H74.8049C75.045 69.6884 75.283 69.6422 75.5052 69.5515C75.7274 69.4607 75.9294 69.3272 76.0996 69.1587C76.2698 68.9901 76.405 68.7897 76.4973 68.5691C76.5896 68.3485 76.6372 68.1119 76.6374 67.8729V21.5178C76.6372 21.2787 76.5896 21.0419 76.4973 20.8211C76.4051 20.6002 76.27 20.3997 76.0998 20.2308C75.9296 20.0619 75.7277 19.9281 75.5055 19.837C75.2833 19.7458 75.0452 19.6992 74.8049 19.6996ZM74.1033 64.0697H49.9683V21.7709H74.1069L74.1033 64.0697Z" fill="#E52440"/>
<path d="M63.3024 68.4024C64.2616 68.4024 65.0393 67.6286 65.0393 66.674C65.0393 65.7194 64.2616 64.9456 63.3024 64.9456C62.3431 64.9456 61.5654 65.7194 61.5654 66.674C61.5654 67.6286 62.3431 68.4024 63.3024 68.4024Z" fill="url(#paint5_linear_1532_22254)"/>
<path d="M47.7498 41.5177C48.4302 41.4825 49.112 41.5509 49.7717 41.7205C49.905 41.7482 50.0322 41.7999 50.1469 41.873C50.2038 41.9097 50.2512 41.9592 50.2854 42.0175C50.3195 42.0758 50.3394 42.1413 50.3435 42.2087C50.3435 42.4061 50.1721 42.5533 50.0152 42.6717C50.1584 42.7702 50.2744 42.9029 50.3525 43.0576C50.387 43.1361 50.3922 43.2243 50.367 43.3063C50.3419 43.3883 50.2881 43.4586 50.2154 43.5045C50.1721 43.5243 50.1162 43.5386 50.1036 43.5835C50.091 43.6284 50.1306 43.6697 50.1613 43.7038C50.2186 43.7652 50.2585 43.8405 50.2771 43.9222C50.2957 44.0039 50.2923 44.089 50.2672 44.169C50.2421 44.2489 50.1963 44.3209 50.1343 44.3776C50.0723 44.4342 49.9964 44.4736 49.9142 44.4917C49.9479 44.4943 49.9806 44.5041 50.0102 44.5202C50.0399 44.5363 50.0658 44.5585 50.0862 44.5853C50.1066 44.612 50.1212 44.6428 50.1288 44.6755C50.1365 44.7083 50.1371 44.7423 50.1306 44.7753C50.1129 44.8412 50.0778 44.9012 50.029 44.9492C49.9801 44.9971 49.9194 45.0313 49.8529 45.0481C49.7197 45.0813 49.5816 45.0904 49.4452 45.075C48.9727 45.0499 48.4821 45.0355 48.042 45.2114C47.8881 45.2976 47.7153 45.3451 47.5388 45.3496C47.4579 45.3359 47.3815 45.3034 47.3157 45.2547C47.2499 45.2061 47.1965 45.1426 47.16 45.0696C47.0888 44.9221 47.05 44.7612 47.0464 44.5976C47.0067 43.912 47.2267 43.2209 47.1131 42.5425C47.0157 41.9789 47.059 41.5518 47.7498 41.5177Z" fill="#F5E0CD"/>
<path d="M75.1114 39.4661C74.7254 39.5254 74.3196 39.59 74.0076 39.8251C73.6955 40.0602 73.5206 40.5233 73.7316 40.85C73.7965 40.9505 73.8957 41.0402 73.9029 41.1587C73.8982 41.2497 73.8702 41.338 73.8218 41.4153C73.739 41.5985 73.7057 41.8001 73.7254 42C73.745 42.1999 73.8168 42.3913 73.9336 42.555C73.8038 42.9338 73.7226 43.4166 74.0238 43.6804C74.2853 43.9083 74.6857 43.8366 75.023 43.7522L75.9249 43.526C76.1168 43.4991 76.294 43.4087 76.4281 43.2694C76.4851 43.1839 76.5249 43.0882 76.5453 42.9876C76.796 42.0633 76.9475 40.9989 76.8032 40.0423C76.659 39.0856 75.887 39.3459 75.1114 39.4661Z" fill="#F5E0CD"/>
<path d="M58.5915 27.6561C59.2372 27.0836 60.0345 26.6654 60.5269 25.9547L60.6062 26.73L61.4918 26.0121C61.4566 26.1938 61.4787 26.3818 61.555 26.5505C61.6622 26.36 61.8217 26.2037 62.0149 26.1C62.006 26.3229 62.0473 26.5449 62.1358 26.7498C62.3574 26.5348 62.5518 26.2937 62.7147 26.0318C62.6826 26.1416 62.6727 26.2567 62.6853 26.3703C62.698 26.484 62.7332 26.594 62.7887 26.6941C62.8819 26.6466 62.9636 26.5794 63.028 26.4972C63.0925 26.4151 63.1382 26.32 63.162 26.2185C63.3983 27.0585 63.8709 27.8213 64.0639 28.672C64.2208 29.3577 64.1883 30.072 64.1559 30.7756C64.1206 31.5255 63.9263 32.2594 63.5859 32.9294C63.3803 32.2617 63.2883 31.7502 63.0123 31.1076C62.895 30.7751 62.7109 30.4697 62.4712 30.2102C61.9301 29.6915 61.0698 29.7058 60.3068 29.7669C59.6124 29.8225 58.8495 29.9248 58.3931 30.4471C58.0198 30.8761 57.9494 31.4881 57.9855 32.0535C58.0216 32.6189 58.1478 33.1824 58.0973 33.7478C57.6067 33.1735 57.1306 32.5489 56.9718 31.813C56.8888 31.441 56.9106 31.0534 57.035 30.693C57.1684 30.3233 57.5472 30.1366 57.6789 29.8207C57.8105 29.5048 57.6789 29.0938 57.7961 28.7438C57.9681 28.3221 58.2411 27.9486 58.5915 27.6561Z" fill="#606161"/>
<path d="M58.5915 27.6561C59.2372 27.0836 60.0345 26.6654 60.5269 25.9547L60.6062 26.73L61.4918 26.0121C61.4566 26.1938 61.4787 26.3818 61.555 26.5505C61.6622 26.36 61.8217 26.2037 62.0149 26.1C62.006 26.3229 62.0473 26.5449 62.1358 26.7498C62.3574 26.5348 62.5518 26.2937 62.7147 26.0318C62.6826 26.1416 62.6727 26.2567 62.6853 26.3703C62.698 26.484 62.7332 26.594 62.7887 26.6941C62.8819 26.6466 62.9636 26.5794 63.028 26.4972C63.0925 26.4151 63.1382 26.32 63.162 26.2185C63.3983 27.0585 63.8709 27.8213 64.0639 28.672C64.2208 29.3577 64.1883 30.072 64.1559 30.7756C64.1206 31.5255 63.9263 32.2594 63.5859 32.9294C63.3803 32.2617 63.2883 31.7502 63.0123 31.1076C62.895 30.7751 62.7109 30.4697 62.4712 30.2102C61.9301 29.6915 61.0698 29.7058 60.3068 29.7669C59.6124 29.8225 58.8495 29.9248 58.3931 30.4471C58.0198 30.8761 57.9494 31.4881 57.9855 32.0535C58.0216 32.6189 58.1478 33.1824 58.0973 33.7478C57.6067 33.1735 57.1306 32.5489 56.9718 31.813C56.8888 31.441 56.9106 31.0534 57.035 30.693C57.1684 30.3233 57.5472 30.1366 57.6789 29.8207C57.8105 29.5048 57.6789 29.0938 57.7961 28.7438C57.9681 28.3221 58.2411 27.9486 58.5915 27.6561Z" fill="url(#paint6_linear_1532_22254)"/>
<path d="M80.1473 24.7737H74.5252C73.0529 24.7737 71.8594 25.9613 71.8594 27.4264V30.3412C71.8594 31.8063 73.0529 32.994 74.5252 32.994H80.1473C81.6196 32.994 82.8131 31.8063 82.8131 30.3412V27.4264C82.8131 25.9613 81.6196 24.7737 80.1473 24.7737Z" fill="#E52440"/>
<path d="M80.1473 24.7737H74.5252C73.0529 24.7737 71.8594 25.9613 71.8594 27.4264V30.3412C71.8594 31.8063 73.0529 32.994 74.5252 32.994H80.1473C81.6196 32.994 82.8131 31.8063 82.8131 30.3412V27.4264C82.8131 25.9613 81.6196 24.7737 80.1473 24.7737Z" fill="url(#paint7_linear_1532_22254)"/>
<path d="M76.3486 27.0082L79.3572 28.8838L76.3486 30.7164V27.0082Z" fill="#E52440"/>
<path d="M93.171 41.5392V46.0137C93.171 46.5102 92.9728 46.9863 92.62 47.3374C92.2672 47.6885 91.7887 47.8857 91.2897 47.8857H90.9506V49.86L89.9243 47.8857H82.118C81.8709 47.8859 81.6262 47.8377 81.3979 47.7437C81.1695 47.6497 80.962 47.5118 80.7873 47.3379C80.6126 47.1641 80.474 46.9576 80.3795 46.7304C80.2851 46.5031 80.2366 46.2596 80.2368 46.0137V41.5392C80.2366 41.2933 80.2851 41.0497 80.3795 40.8225C80.474 40.5953 80.6126 40.3888 80.7873 40.2149C80.962 40.0411 81.1695 39.9032 81.3979 39.8092C81.6262 39.7152 81.8709 39.6669 82.118 39.6672H91.2897C91.5368 39.6669 91.7816 39.7152 92.0099 39.8092C92.2383 39.9032 92.4458 40.0411 92.6205 40.2149C92.7952 40.3888 92.9338 40.5953 93.0282 40.8225C93.1227 41.0497 93.1712 41.2933 93.171 41.5392Z" fill="#E52440"/>
<path d="M93.171 41.5392V46.0137C93.171 46.5102 92.9728 46.9863 92.62 47.3374C92.2672 47.6885 91.7887 47.8857 91.2897 47.8857H90.9506V49.86L89.9243 47.8857H82.118C81.8709 47.8859 81.6262 47.8377 81.3979 47.7437C81.1695 47.6497 80.962 47.5118 80.7873 47.3379C80.6126 47.1641 80.474 46.9576 80.3795 46.7304C80.2851 46.5031 80.2366 46.2596 80.2368 46.0137V41.5392C80.2366 41.2933 80.2851 41.0497 80.3795 40.8225C80.474 40.5953 80.6126 40.3888 80.7873 40.2149C80.962 40.0411 81.1695 39.9032 81.3979 39.8092C81.6262 39.7152 81.8709 39.6669 82.118 39.6672H91.2897C91.5368 39.6669 91.7816 39.7152 92.0099 39.8092C92.2383 39.9032 92.4458 40.0411 92.6205 40.2149C92.7952 40.3888 92.9338 40.5953 93.0282 40.8225C93.1227 41.0497 93.1712 41.2933 93.171 41.5392Z" fill="url(#paint8_linear_1532_22254)"/>
<path d="M91.5032 41.2915H81.8662V41.8281H91.5032V41.2915Z" fill="#E52440"/>
<path d="M91.5032 42.7076H81.8662V43.2442H91.5032V42.7076Z" fill="#E52440"/>
<path d="M91.5032 44.1219H81.8662V44.6586H91.5032V44.1219Z" fill="#E52440"/>
<path d="M42.2879 55.0309C42.2879 57.698 39.5012 59.8554 36.0634 59.8554C35.4863 59.857 34.9108 59.7932 34.3481 59.6652L31.6318 61.049L32.714 59.0926C30.9807 58.2436 29.8281 56.745 29.8281 55.0309C29.8281 52.3656 32.6148 50.2082 36.0526 50.2082C39.4904 50.2082 42.2879 52.3656 42.2879 55.0309Z" fill="#E52440"/>
<path d="M42.2879 55.0309C42.2879 57.698 39.5012 59.8554 36.0634 59.8554C35.4863 59.857 34.9108 59.7932 34.3481 59.6652L31.6318 61.049L32.714 59.0926C30.9807 58.2436 29.8281 56.745 29.8281 55.0309C29.8281 52.3656 32.6148 50.2082 36.0526 50.2082C39.4904 50.2082 42.2879 52.3656 42.2879 55.0309Z" fill="url(#paint9_linear_1532_22254)"/>
<path d="M83.5311 55.2409C83.5311 55.2409 82.0881 53.3653 80.748 55.1511C79.4079 56.937 83.7998 59.0836 83.7998 59.0836C83.7998 59.0836 86.9436 56.849 86.5847 55.5083C86.2258 54.1676 84.2489 53.8122 83.5311 55.2409Z" fill="#E52440"/>
<path d="M35.5246 37.0144C35.5246 37.0144 34.0817 35.1388 32.7416 36.9246C31.4014 38.7105 35.7952 40.8571 35.7952 40.8571C35.7952 40.8571 38.9372 38.6225 38.5783 37.2818C38.2193 35.9411 36.2443 35.5857 35.5246 37.0144Z" fill="#E52440"/>
<path d="M35.5246 37.0144C35.5246 37.0144 34.0817 35.1388 32.7416 36.9246C31.4014 38.7105 35.7952 40.8571 35.7952 40.8571C35.7952 40.8571 38.9372 38.6225 38.5783 37.2818C38.2193 35.9411 36.2443 35.5857 35.5246 37.0144Z" fill="url(#paint10_linear_1532_22254)"/>
<path d="M43.3956 24.0593H39.0903C38.0971 24.0593 37.292 24.8605 37.292 25.8488V29.2392C37.292 30.2275 38.0971 31.0287 39.0903 31.0287H43.3956C44.3888 31.0287 45.1939 30.2275 45.1939 29.2392V25.8488C45.1939 24.8605 44.3888 24.0593 43.3956 24.0593Z" fill="#E52440"/>
<path d="M42.5945 25.3408H39.9485C39.4066 25.3408 38.9673 25.778 38.9673 26.3172V28.9502C38.9673 29.4895 39.4066 29.9266 39.9485 29.9266H42.5945C43.1364 29.9266 43.5757 29.4895 43.5757 28.9502V26.3172C43.5757 25.778 43.1364 25.3408 42.5945 25.3408Z" stroke="white" stroke-width="1.08013" stroke-miterlimit="10"/>
<path d="M41.2853 28.2143C41.7495 28.2143 42.1258 27.8399 42.1258 27.378C42.1258 26.916 41.7495 26.5416 41.2853 26.5416C40.8211 26.5416 40.4448 26.916 40.4448 27.378C40.4448 27.8399 40.8211 28.2143 41.2853 28.2143Z" stroke="white" stroke-width="1.08013" stroke-miterlimit="10"/>
<path d="M42.573 26.5739C42.7274 26.5739 42.8526 26.4493 42.8526 26.2957C42.8526 26.142 42.7274 26.0175 42.573 26.0175C42.4186 26.0175 42.2935 26.142 42.2935 26.2957C42.2935 26.4493 42.4186 26.5739 42.573 26.5739Z" stroke="white" stroke-width="0.537013" stroke-miterlimit="10"/>
<path d="M54.2212 15.0798C54.2212 15.0798 55.812 17.86 58.4111 17.5369C61.0102 17.2138 61.205 15.0798 61.205 15.0798H62.1465L61.3673 14.4659C61.3673 14.4659 61.1076 13.529 60.3934 13.748C59.6791 13.967 58.7033 14.8787 58.7033 14.8787L55.8174 12.2942C55.7156 12.4798 55.6677 12.6899 55.6792 12.9011C55.6906 13.1122 55.761 13.316 55.8824 13.4895C55.8824 13.4895 55.4928 14.0388 55.9148 14.3618C55.9148 14.3618 55.9148 14.9111 56.3369 15.1372C56.3315 15.1444 55.2926 15.9862 54.2212 15.0798Z" fill="#E52440"/>
<path opacity="0.18" d="M50.7177 91C49.7299 91 48.5929 91.0681 48 91.8225L51.8613 92.698C52.0938 92.7497 52.3473 92.8153 52.4873 93.0007C52.7237 93.3148 52.5018 93.7576 52.5969 94.1361C52.7607 94.7845 53.6758 94.8728 54.3717 94.8211L60.5401 94.3568C62.0799 94.2408 63.7333 94.15 65.0578 94.9069C65.6798 95.2626 66.1856 95.7899 66.8234 96.1154C68.1915 96.8193 69.895 96.4938 71.3212 95.9072C72.7475 95.3206 74.072 94.4691 75.5814 94.1159C76.8307 93.8232 78.1446 93.8825 79.4018 93.6239C80.6847 93.3578 81.87 92.7695 82.8353 91.9196C82.7587 91.9878 79.4454 91.2359 79.0373 91.2208C78.0826 91.1854 77.1265 91.2725 76.1704 91.27C73.3879 91.2624 70.6029 91.1627 67.8217 91.1236C62.123 91.0412 56.4217 91 50.7177 91Z" fill="#E52440"/>
</g>
<defs>
<linearGradient id="paint0_linear_1532_22254" x1="2086.7" y1="2261.98" x2="2105.75" y2="2015.22" gradientUnits="userSpaceOnUse">
<stop stop-color="#010101" stop-opacity="0"/>
<stop offset="0.95" stop-color="#010101"/>
</linearGradient>
<linearGradient id="paint1_linear_1532_22254" x1="4585.24" y1="13833.4" x2="6385.63" y2="12783.3" gradientUnits="userSpaceOnUse">
<stop stop-color="#010101" stop-opacity="0"/>
<stop offset="0.95" stop-color="#010101"/>
</linearGradient>
<linearGradient id="paint2_linear_1532_22254" x1="2410.23" y1="2070.31" x2="2712.35" y2="2050.74" gradientUnits="userSpaceOnUse">
<stop stop-color="#010101" stop-opacity="0"/>
<stop offset="0.95" stop-color="#010101"/>
</linearGradient>
<linearGradient id="paint3_linear_1532_22254" x1="1269.55" y1="1761.11" x2="964.766" y2="1737.24" gradientUnits="userSpaceOnUse">
<stop stop-color="#010101" stop-opacity="0"/>
<stop offset="0.95" stop-color="#010101"/>
</linearGradient>
<linearGradient id="paint4_linear_1532_22254" x1="1292.95" y1="548.541" x2="1306.88" y2="461.735" gradientUnits="userSpaceOnUse">
<stop stop-color="#010101" stop-opacity="0"/>
<stop offset="0.95" stop-color="#010101"/>
</linearGradient>
<linearGradient id="paint5_linear_1532_22254" x1="1060.89" y1="1082.6" x2="1045.17" y2="1673.87" gradientUnits="userSpaceOnUse">
<stop stop-color="#010101" stop-opacity="0"/>
<stop offset="0.95" stop-color="#010101"/>
</linearGradient>
<linearGradient id="paint6_linear_1532_22254" x1="2364.78" y1="1167.42" x2="2657.01" y2="1167.42" gradientUnits="userSpaceOnUse">
<stop stop-color="#010101" stop-opacity="0"/>
<stop offset="0.95" stop-color="#010101"/>
</linearGradient>
<linearGradient id="paint7_linear_1532_22254" x1="4058.68" y1="807.924" x2="4064.79" y2="2395.7" gradientUnits="userSpaceOnUse">
<stop stop-color="#010101" stop-opacity="0"/>
<stop offset="0.95" stop-color="#010101"/>
</linearGradient>
<linearGradient id="paint8_linear_1532_22254" x1="86.3098" y1="53.1697" x2="87.4957" y2="24.5793" gradientUnits="userSpaceOnUse">
<stop stop-color="white" stop-opacity="0"/>
<stop offset="0.95" stop-color="white"/>
</linearGradient>
<linearGradient id="paint9_linear_1532_22254" x1="2531.38" y1="2910" x2="2592.46" y2="4022.8" gradientUnits="userSpaceOnUse">
<stop stop-color="white" stop-opacity="0"/>
<stop offset="0.95" stop-color="white"/>
</linearGradient>
<linearGradient id="paint10_linear_1532_22254" x1="1233.57" y1="847.437" x2="1270.82" y2="1145.83" gradientUnits="userSpaceOnUse">
<stop stop-color="white" stop-opacity="0"/>
<stop offset="0.95" stop-color="white"/>
</linearGradient>
<clipPath id="clip0_1532_22254">
<rect width="120" height="90" fill="white" transform="translate(0 5)"/>
</clipPath>
</defs>
</svg>
