<svg width="53" height="78" viewBox="0 0 53 78" fill="none" xmlns="http://www.w3.org/2000/svg">
<g clip-path="url(#clip0_1532_21958)">
<path d="M28.7606 64.8926C28.7606 65.9268 30.4043 66.9044 31.2101 67.1468C31.5465 67.2199 31.8751 67.3255 32.1916 67.4619C32.346 67.5414 32.4756 67.6629 32.5658 67.8127C32.656 67.9626 32.7032 68.1349 32.7022 68.3103C32.6623 68.6093 32.423 68.8517 32.3591 69.1183C32.3199 69.3908 32.3501 69.669 32.4469 69.9263C32.7581 70.9201 33.9789 71.5423 34.2741 72.5523C35.9656 72.3745 36.7237 72.5523 38.3993 72.2372L39.7637 71.3241L37.6572 67.3327C37.3845 66.771 37.05 66.2425 36.6598 65.7571C36.2069 65.2655 35.6854 64.8436 35.1119 64.5047C33.6489 63.5437 32.1241 62.6826 30.5479 61.9272C30.7873 62.0242 28.7606 64.6259 28.7606 64.8926Z" fill="url(#paint0_linear_1532_21958)"/>
<path d="M24.7953 22.4975L24.9629 22.5621C25.8846 22.8524 26.8224 23.0871 27.7715 23.2651L29.9338 23.7822C30.5772 24.0425 31.2687 24.1583 31.9605 24.1215C31.6884 23.4649 31.2047 22.9209 30.5881 22.5783C30.1253 22.3521 29.5907 22.2793 29.1359 22.0369C28.6809 21.7786 28.3287 21.3682 28.1395 20.8759C27.9503 20.3837 27.9358 19.8401 28.0987 19.3383C28.2011 19.0405 28.3835 18.7774 28.6253 18.5788C28.99 18.3709 29.4117 18.2892 29.8264 18.3461C30.2412 18.4029 30.6263 18.5953 30.9232 18.8939C31.4983 19.5055 32.0314 20.1561 32.5191 20.8411C33.4658 21.7045 34.4594 22.5138 35.4952 23.2651C36.4527 24.1296 37.2107 25.4466 36.8437 26.6909C36.4767 27.9352 34.9048 27.7898 33.8117 27.7898C32.441 27.7703 31.0765 27.5996 29.7424 27.2808C28.4258 26.9899 27.1252 26.6182 25.8167 26.2708C25.1895 26.0709 24.5497 25.9144 23.9017 25.8022C23.473 25.8177 23.0446 25.7631 22.633 25.6406C22.2666 25.4511 21.9516 25.1737 21.7154 24.8326C21.2678 24.3168 20.989 23.6732 20.9175 22.9904C20.8697 22.0369 21.508 21.1078 22.5133 21.3744C23.2966 21.6996 24.0588 22.0747 24.7953 22.4975Z" fill="#F9C6D6"/>
<path d="M29.7424 60.1981C29.6128 60.466 29.5454 60.7603 29.5454 61.0586C29.5454 61.3569 29.6128 61.6513 29.7424 61.9191C29.9036 62.121 30.116 62.2746 30.3568 62.3635C30.6387 62.5017 30.9531 62.5575 31.2646 62.5247C31.5761 62.4919 31.8724 62.3717 32.1202 62.1777C32.377 61.8852 32.558 61.5326 32.6468 61.1516C33.0863 59.7605 33.4041 58.3329 33.5963 56.8854C33.6287 56.7555 33.6287 56.6194 33.5963 56.4895C33.5245 56.3479 33.4059 56.2364 33.2612 56.1744C32.5191 55.7623 31.3462 55.4391 30.9233 56.344C30.4458 57.6008 30.0513 58.8884 29.7424 60.1981Z" fill="#F9C6D6"/>
<path d="M31.9998 60.8607C32.1583 60.8364 32.3202 60.853 32.4706 60.9092C32.5757 60.9646 32.6661 61.045 32.7339 61.1435L34.3297 63.018C34.6409 63.3816 34.976 63.8826 34.7526 64.3027C34.675 64.4231 34.5715 64.5241 34.4499 64.5983C34.3283 64.6724 34.1918 64.7178 34.0504 64.7309C33.2693 64.8103 32.4822 64.6588 31.7844 64.2946C31.2817 64.0684 30.787 63.826 30.3082 63.5594C29.947 63.3949 29.6317 63.1423 29.3907 62.8241C29.0236 62.2423 28.9119 60.8445 29.5662 60.4001C29.9013 60.182 30.1965 60.3355 30.5077 60.489C30.9686 60.732 31.4803 60.8594 31.9998 60.8607Z" fill="#E52440"/>
<path d="M38.7351 66.5812C38.7589 66.6849 38.7589 66.7927 38.7351 66.8964C38.6811 66.9997 38.5977 67.0841 38.4957 67.1388C38.1878 67.3556 37.8252 67.4789 37.4504 67.4943C37.2633 67.5019 37.077 67.4649 36.9065 67.3863C36.7361 67.3077 36.5862 67.1897 36.469 67.0418C36.294 66.7621 36.1898 66.4429 36.1658 66.1126C36.0292 65.3963 35.9598 64.6686 35.9583 63.9391C35.9534 63.8359 35.9876 63.7347 36.0541 63.6563C36.1083 63.6169 36.1714 63.5919 36.2376 63.5836C36.8281 63.4543 37.985 63.1392 38.2802 63.8745C38.5743 64.7462 38.7279 65.6601 38.7351 66.5812Z" fill="#F9C6D6"/>
<path d="M41.2084 66.5085C41.7084 66.533 42.2026 66.6282 42.6766 66.7913C42.9145 66.879 43.1325 67.0143 43.3176 67.1892C43.5027 67.3642 43.651 67.5751 43.7537 67.8094C43.8334 68.0451 43.8334 68.3009 43.7537 68.5366C43.5938 68.8953 43.3101 69.1826 42.9558 69.3446C41.2851 70.259 39.3931 70.6764 37.4982 70.5485C37.0126 70.5647 36.54 70.3878 36.1816 70.0556C35.9196 69.6519 35.7962 69.172 35.8306 68.6901L35.7667 66.4197C36.1922 66.4445 36.6067 66.566 36.9795 66.7752C37.6737 67.0176 37.945 66.4358 38.5275 66.2985C39.4265 66.2347 40.3298 66.3055 41.2084 66.5085Z" fill="#E52440"/>
<path d="M31.9998 60.8607C32.1583 60.8364 32.3202 60.853 32.4706 60.9092C32.5757 60.9646 32.6661 61.045 32.7339 61.1435L34.3297 63.018C34.6409 63.3816 34.976 63.8826 34.7526 64.3027C34.675 64.4231 34.5715 64.5241 34.4499 64.5983C34.3283 64.6724 34.1918 64.7178 34.0504 64.7309C33.2693 64.8103 32.4822 64.6588 31.7844 64.2946C31.2817 64.0684 30.787 63.826 30.3082 63.5594C29.947 63.3949 29.6317 63.1423 29.3907 62.8241C29.0236 62.2423 28.9119 60.8445 29.5662 60.4001C29.9013 60.182 30.1965 60.3355 30.5077 60.489C30.9686 60.732 31.4803 60.8594 31.9998 60.8607Z" fill="url(#paint1_linear_1532_21958)"/>
<path d="M41.2084 66.5085C41.7084 66.533 42.2026 66.6282 42.6766 66.7913C42.9145 66.879 43.1325 67.0143 43.3176 67.1892C43.5027 67.3642 43.651 67.5751 43.7537 67.8094C43.8334 68.0451 43.8334 68.3009 43.7537 68.5366C43.5938 68.8953 43.3101 69.1826 42.9558 69.3446C41.2851 70.259 39.3931 70.6764 37.4982 70.5485C37.0126 70.5647 36.54 70.3878 36.1816 70.0556C35.9196 69.6519 35.7962 69.172 35.8306 68.6901L35.7667 66.4197C36.1922 66.4445 36.6067 66.566 36.9795 66.7752C37.6737 67.0176 37.945 66.4358 38.5275 66.2985C39.4265 66.2347 40.3298 66.3055 41.2084 66.5085Z" fill="url(#paint2_linear_1532_21958)"/>
<path d="M35.2159 41.4286C35.477 41.4558 35.7302 41.535 35.961 41.6614C36.1918 41.7879 36.3957 41.9593 36.561 42.1657C36.7262 42.3721 36.8497 42.6095 36.9242 42.8643C36.9988 43.1191 37.0229 43.3863 36.9953 43.6506C36.9953 43.7395 36.9953 43.8203 36.9474 43.9091C36.9382 48.4969 36.0943 53.0437 34.4579 57.3217C34.4217 57.4805 34.3534 57.63 34.2572 57.7607C34.1611 57.8914 34.0393 58.0006 33.8994 58.0812C33.6571 58.1701 33.3917 58.1701 33.1494 58.0812C32.1673 57.8049 31.2005 57.4759 30.253 57.0955L31.5376 48.3773C31.5964 48.1336 31.5825 47.8777 31.4977 47.642C31.4022 47.4795 31.2712 47.3413 31.1147 47.238C29.6547 46.1482 28.1127 45.1756 26.5028 44.3293C25.2182 43.6587 23.7501 42.8911 23.399 41.4609C23.3311 41.2231 23.3181 40.9726 23.361 40.7288C23.4039 40.4851 23.5015 40.2545 23.6463 40.055C23.8523 39.8536 24.093 39.692 24.3565 39.5783C25.2302 39.0278 26.2322 38.7212 27.2608 38.6895C28.0587 38.7784 28.346 39.239 29.0003 39.5864C30.8275 40.4914 33.2451 40.863 35.2159 41.4286Z" fill="#282328"/>
<path d="M27.9946 31.8863C28.0105 31.7995 28.0491 31.7185 28.1063 31.652C28.1857 31.5966 28.2816 31.5709 28.3776 31.5793C31.7166 31.371 35.0664 31.7315 38.2876 32.6458C38.0097 33.5287 37.6238 34.3729 37.1386 35.1586C35.846 37.4533 34.5534 39.7561 33.2369 42.0427C33.1564 42.3176 33.0231 42.5738 32.8448 42.7965C32.6664 43.0193 32.4465 43.2042 32.1975 43.3408C31.9485 43.4774 31.6753 43.5629 31.3936 43.5925C31.112 43.6221 30.8273 43.5951 30.5559 43.5132L30.3724 43.4486L25.4014 42.4305C24.6035 42.2689 26.1994 38.1078 26.4866 37.3402C27.109 35.5626 27.5239 33.7123 27.9946 31.8863Z" fill="#FFB443"/>
<path d="M21.3401 41.2589C22.1356 40.9443 22.9087 40.5744 23.654 40.152C26.4786 38.536 24.1647 37.728 23.2231 35.8293C22.5529 34.4557 22.8242 32.8155 23.1753 31.3288C23.7897 28.719 24.6115 26.0122 23.9732 23.4024C23.8983 22.9792 23.7351 22.577 23.4944 22.2228C23.3221 22.0025 23.1238 21.8044 22.904 21.633C22.31 21.1031 21.6223 20.6918 20.8773 20.421C19.4117 20.022 17.8499 20.2222 16.5287 20.9785C11.0631 23.7984 11.095 32.7993 11.6136 38.0916C11.6286 39.3257 11.9882 40.5303 12.6509 41.566C13.7281 43.0042 14.7334 42.4871 16.0979 42.2447C17.941 41.9296 19.5847 41.9538 21.3401 41.2589Z" fill="#E52440"/>
<path d="M18.1568 24.1619C18.3882 24.4529 18.6762 24.6926 19.0029 24.8663C19.3295 25.0401 19.6879 25.1441 20.0558 25.1719C20.1734 25.1865 20.2924 25.1578 20.3909 25.0911C20.4973 24.9842 20.5576 24.8389 20.5585 24.6871C20.5585 24.3882 20.6303 24.0003 20.6622 23.6206C20.6941 23.2408 20.7579 22.7641 20.7978 22.4328C20.8783 21.5508 21.2049 20.7101 21.7394 20.0089C21.8496 19.8585 21.9753 19.7203 22.1144 19.5968C23.024 18.7888 19.3137 19.0959 18.827 17.9808C18.2605 18.7161 18.3084 19.7584 18.0291 20.6634C17.8632 21.1039 17.7246 21.5546 17.6142 22.0127C17.5496 22.3894 17.5645 22.7757 17.6581 23.1462C17.7516 23.5166 17.9216 23.8628 18.1568 24.1619Z" fill="#F9C6D6"/>
<path d="M20.6137 23.7903L20.6616 23.6206C20.7095 23.1924 20.7573 22.7641 20.7972 22.4329C20.8777 21.5508 21.2043 20.7101 21.7388 20.0089V19.92C21.7388 19.92 18.8025 17.9647 18.4833 20.2513C18.1642 22.5379 20.6137 23.7903 20.6137 23.7903Z" fill="url(#paint3_linear_1532_21958)"/>
<path d="M23.7016 18.6757C23.7556 19.1509 23.6695 19.6316 23.4543 20.0574C23.3333 20.2337 23.1851 20.3892 23.0154 20.5179C22.399 20.9262 21.6706 21.1258 20.935 21.0881C20.1994 21.0503 19.4946 20.7771 18.9222 20.3078C18.3586 19.8166 17.9049 19.2095 17.5912 18.5268C17.2775 17.8441 17.1111 17.1016 17.1029 16.3487C17.0137 15.564 17.2313 14.7752 17.7094 14.151C17.9969 13.8682 18.3499 13.663 18.7361 13.5543C19.1222 13.4456 19.5292 13.4369 19.9195 13.5288C20.9896 13.7771 21.9638 14.3391 22.7202 15.1448C23.4622 15.9851 23.6458 17.6011 23.7016 18.6757Z" fill="#F9C6D6"/>
<path d="M34.2978 47.5128C34.9049 48.3025 35.3819 49.1866 35.7101 50.1306C37.5619 54.7256 38.7652 59.5618 39.2847 64.4966C37.7747 64.6906 36.2466 64.6906 34.7366 64.4966C34.609 61.0029 34.0733 57.5368 33.1408 54.1706C32.9882 53.4517 32.7186 52.7636 32.3429 52.1344C31.5891 51.1939 30.6117 50.4627 29.5024 50.0094C27.0614 48.7795 24.5063 47.7971 21.8744 47.0765C20.7653 46.7613 19.6482 46.4785 18.5551 46.0988C17.6203 45.81 16.7445 45.3529 15.9699 44.7494C14.6055 43.594 13.5762 41.065 15.3795 39.8207C16.2484 39.3375 17.2208 39.0768 18.212 39.0612L21.26 38.7703C21.5429 38.7079 21.8366 38.7173 22.1151 38.7976C22.3935 38.878 22.648 39.0268 22.8558 39.2309C25.1219 41.0004 27.4438 42.576 29.8215 44.1839C31.3216 45.1858 33.1169 46.1069 34.2978 47.5128Z" fill="#473F47"/>
<path d="M13.1142 26.489C13.1241 26.6585 13.1024 26.8284 13.0504 26.9899C12.9001 29.4581 12.9214 31.934 13.1142 34.3991C13.1701 35.9182 13.3696 38.8269 14.9414 39.6026C17.8937 41.065 23.5668 40.4994 23.5668 40.4994C24.2251 40.3926 24.8979 40.4201 25.5456 40.5802C25.9046 40.6934 26.2238 40.8873 26.5749 41.0246C27.8605 41.3954 29.2229 41.3954 30.5085 41.0246C30.737 40.9948 30.957 40.9178 31.1549 40.7984C31.3815 40.5868 31.5188 40.2948 31.5382 39.9832C31.5575 39.6716 31.4573 39.3645 31.2586 39.1259C30.8331 38.6658 30.2743 38.3546 29.6628 38.2371C28.0144 37.6783 26.2426 37.6082 24.5562 38.0351C24.3328 38.0997 24.1173 38.1724 23.8939 38.2209C23.6299 38.2612 23.3629 38.2774 23.096 38.2694H21.0933C18.7873 38.2694 16.617 38.2694 16.3059 35.5222C16.1796 34.4958 16.1528 33.4593 16.2261 32.4277C16.3617 30.5612 16.8404 28.719 16.7367 26.8526C16.7358 26.2613 16.5934 25.6791 16.3218 25.1558C16.1881 24.898 15.9906 24.6798 15.7487 24.5226C15.5067 24.3654 15.2285 24.2745 14.9414 24.2589C14.64 24.2821 14.3497 24.3845 14.0993 24.556C13.8488 24.7274 13.6468 24.962 13.5132 25.2366C13.3135 25.6292 13.1787 26.0522 13.1142 26.489Z" fill="#F9C6D6"/>
<path d="M19.3057 17.4314C19.1958 17.9979 19.1529 18.5756 19.178 19.1524C18.787 18.7969 18.811 17.9162 18.2923 17.9404C17.9811 17.9404 17.8375 18.3929 17.9811 18.6757C18.0713 18.8133 18.1888 18.9304 18.3262 19.0195C18.4636 19.1085 18.6178 19.1675 18.779 19.1928C18.8668 20.4048 17.9173 21.2289 17.1354 21.9642C16.2732 22.8174 15.6698 23.9023 15.3959 25.0911C15.0849 26.6129 14.9722 28.1694 15.0608 29.7209C14.6379 29.3815 14.0395 29.5593 13.5049 29.6158C12.7085 29.653 11.9245 29.4056 11.29 28.9167C10.6555 28.4278 10.211 27.7286 10.034 26.9414C9.88331 26.1537 9.9755 25.3382 10.2981 24.6054C10.6207 23.8726 11.158 23.2579 11.8373 22.8449C12.291 22.66 12.6936 22.366 13.0102 21.9884C13.3613 21.4229 13.1538 20.6714 13.1299 19.9927C13.1334 19.2511 13.3797 18.5315 13.8302 17.9467C14.2806 17.3619 14.9098 16.9448 15.6193 16.7608C15.3331 16.2297 15.149 15.6484 15.0768 15.0478C15.0766 14.6432 15.1587 14.2428 15.318 13.8717C15.4772 13.5006 15.7102 13.1666 16.0023 12.8905C16.5883 12.3499 17.2635 11.9178 17.9971 11.6139C18.6553 11.2286 19.4278 11.094 20.1754 11.2341C20.5859 11.4096 20.9508 11.6789 21.2415 12.0209C21.5322 12.3629 21.7408 12.7684 21.851 13.2056C22.0555 13.1099 22.2849 13.0825 22.5058 13.1275C22.7267 13.1726 22.9277 13.2877 23.0797 13.4561C23.2296 13.6287 23.3441 13.8297 23.4167 14.0475C23.4893 14.2652 23.5185 14.4954 23.5026 14.7247C23.4933 15.0269 23.4311 15.3251 23.3191 15.6054C23.0398 15.266 22.7047 14.9347 22.3696 15.1771C22.0345 15.4195 21.827 15.9205 21.5238 16.1952C21.1875 16.4806 20.8209 16.7272 20.4307 16.9305C20.0407 17.0604 19.6639 17.2282 19.3057 17.4314Z" fill="#F86938"/>
<path d="M26.614 16.5426L26.8933 18.1101C26.9128 18.3177 27.0031 18.512 27.1487 18.6595C27.2943 18.8069 27.4862 18.8984 27.6912 18.9181C29.1992 18.6515 32.8935 18.1101 35.5266 18.8212C36.964 19.1928 38.37 19.6791 39.7316 20.2755C40.2741 20.5179 40.8087 19.9039 40.721 19.1605L39.7635 10.7817C39.6757 10.0464 39.0454 9.68283 38.5826 10.1111C36.6836 11.8482 32.2791 15.3226 27.3561 15.3064C26.8693 15.3064 26.5023 15.9043 26.614 16.5426Z" fill="#E52440"/>
<path d="M37.309 15.2185C37.0826 12.3181 38.0066 9.87818 39.3728 9.76881C40.739 9.65945 42.0301 11.922 42.2565 14.8225C42.4829 17.7229 41.559 20.1628 40.1927 20.2722C38.8265 20.3816 37.5354 18.119 37.309 15.2185Z" fill="#E52440"/>
<path d="M37.309 15.2185C37.0826 12.3181 38.0066 9.87818 39.3728 9.76881C40.739 9.65945 42.0301 11.922 42.2565 14.8225C42.4829 17.7229 41.559 20.1628 40.1927 20.2722C38.8265 20.3816 37.5354 18.119 37.309 15.2185Z" fill="url(#paint4_linear_1532_21958)"/>
<path d="M-50.0244 55.6977L-3.32304 58.0651C-2.43431 58.1226 -1.55938 57.8205 -0.890572 57.2251C-0.221764 56.6296 0.186183 55.7896 0.243595 54.8897C0.247578 54.8116 0.247578 54.7334 0.243595 54.6554V37.3887C0.230313 36.4468 -0.125331 35.5428 -0.755344 34.8497C-1.38536 34.1566 -2.24553 33.7229 -3.17143 33.6316L-49.8967 29.0907C-50.3678 29.0385 -50.8444 29.0873 -51.2956 29.234C-51.7467 29.3807 -52.1624 29.622 -52.5154 29.9421C-52.8684 30.2622 -53.1509 30.654 -53.3444 31.092C-53.538 31.53 -53.6383 32.0044 -53.6389 32.4842V51.9325C-53.6274 52.9095 -53.246 53.8447 -52.5735 54.5453C-51.9009 55.2459 -50.9885 55.6584 -50.0244 55.6977Z" fill="white"/>
</g>
<defs>
<linearGradient id="paint0_linear_1532_21958" x1="-1494.29" y1="-2343.77" x2="-1839.49" y2="-2013.3" gradientUnits="userSpaceOnUse">
<stop offset="0.01"/>
<stop offset="0.13" stop-opacity="0.69"/>
<stop offset="0.25" stop-opacity="0.32"/>
<stop offset="1" stop-opacity="0"/>
</linearGradient>
<linearGradient id="paint1_linear_1532_21958" x1="-833.92" y1="-878.481" x2="-891.431" y2="-841.764" gradientUnits="userSpaceOnUse">
<stop offset="0.01"/>
<stop offset="0.13" stop-opacity="0.69"/>
<stop offset="0.25" stop-opacity="0.32"/>
<stop offset="1" stop-opacity="0"/>
</linearGradient>
<linearGradient id="paint2_linear_1532_21958" x1="-1101.64" y1="-782.327" x2="-1118.9" y2="-855.08" gradientUnits="userSpaceOnUse">
<stop offset="0.01"/>
<stop offset="0.13" stop-opacity="0.69"/>
<stop offset="0.25" stop-opacity="0.32"/>
<stop offset="1" stop-opacity="0"/>
</linearGradient>
<linearGradient id="paint3_linear_1532_21958" x1="-527.796" y1="-1137.76" x2="-568.043" y2="-1075.67" gradientUnits="userSpaceOnUse">
<stop offset="0.01"/>
<stop offset="0.13" stop-opacity="0.69"/>
<stop offset="0.25" stop-opacity="0.32"/>
<stop offset="1" stop-opacity="0"/>
</linearGradient>
<linearGradient id="paint4_linear_1532_21958" x1="-7534.33" y1="-1277.4" x2="-7218.82" y2="-998.633" gradientUnits="userSpaceOnUse">
<stop offset="0.01"/>
<stop offset="0.08" stop-opacity="0.69"/>
<stop offset="0.21" stop-opacity="0.32"/>
<stop offset="1" stop-opacity="0"/>
</linearGradient>
<clipPath id="clip0_1532_21958">
<rect width="53" height="78" fill="white" transform="matrix(-1 0 0 1 53 0)"/>
</clipPath>
</defs>
</svg>
