<svg width="97" height="78" viewBox="0 0 97 78" fill="none" xmlns="http://www.w3.org/2000/svg">
<path d="M15.7344 39.4349V46.868C15.7342 47.2764 15.8146 47.6809 15.9711 48.0582C16.1275 48.4356 16.3569 48.7785 16.6461 49.0673C16.9353 49.3561 17.2787 49.5852 17.6567 49.7414C18.0346 49.8976 18.4397 49.9779 18.8487 49.9777H19.4085V53.2457L21.1081 49.9777H34.0322C34.8582 49.9777 35.6503 49.6501 36.2344 49.0669C36.8184 48.4837 37.1465 47.6927 37.1465 46.868V39.4349C37.1467 39.0264 37.0663 38.622 36.9098 38.2446C36.7534 37.8672 36.524 37.5243 36.2348 37.2355C35.9456 36.9467 35.6022 36.7177 35.2242 36.5615C34.8463 36.4052 34.4412 36.3249 34.0322 36.3251H18.8487C18.4397 36.3249 18.0346 36.4052 17.6567 36.5615C17.2787 36.7177 16.9353 36.9467 16.6461 37.2355C16.3569 37.5243 16.1275 37.8672 15.9711 38.2446C15.8146 38.622 15.7342 39.0264 15.7344 39.4349Z" fill="#FFB443"/>
<path d="M15.7344 39.4349V46.868C15.7342 47.2764 15.8146 47.6809 15.9711 48.0582C16.1275 48.4356 16.3569 48.7785 16.6461 49.0673C16.9353 49.3561 17.2787 49.5852 17.6567 49.7414C18.0346 49.8976 18.4397 49.9779 18.8487 49.9777H19.4085V53.2457L21.1081 49.9777H34.0322C34.8582 49.9777 35.6503 49.6501 36.2344 49.0669C36.8184 48.4837 37.1465 47.6927 37.1465 46.868V39.4349C37.1467 39.0264 37.0663 38.622 36.9099 38.2446C36.7534 37.8672 36.524 37.5243 36.2348 37.2355C35.9456 36.9467 35.6022 36.7177 35.2242 36.5615C34.8463 36.4052 34.4412 36.3249 34.0322 36.3251H18.8487C18.4397 36.3249 18.0346 36.4052 17.6567 36.5615C17.2787 36.7177 16.9353 36.9467 16.6461 37.2355C16.3569 37.5243 16.1275 37.8672 15.9711 38.2446C15.8146 38.622 15.7342 39.0264 15.7344 39.4349Z" fill="url(#paint0_linear_1532_22205)"/>
<path d="M18.4947 39.9154H34.4487V39.0255H18.4947V39.9154Z" fill="#E52440"/>
<path d="M18.4947 42.2658H34.4487V41.3759H18.4947V42.2658Z" fill="#E52440"/>
<path d="M18.4947 44.6148H34.4487V43.7249H18.4947V44.6148Z" fill="#E52440"/>
<path d="M46.3928 75.802C59.7545 75.802 70.5863 74.0133 70.5863 71.8067C70.5863 69.6002 59.7545 67.8114 46.3928 67.8114C33.031 67.8114 22.1992 69.6002 22.1992 71.8067C22.1992 74.0133 33.031 75.802 46.3928 75.802Z" fill="url(#paint1_linear_1532_22205)"/>
<path d="M58.0085 13.7252H36.1995C33.7014 13.7252 31.6763 15.7473 31.6763 18.2417V68.7246C31.6763 71.219 33.7014 73.2411 36.1995 73.2411H58.0085C60.5066 73.2411 62.5317 71.219 62.5317 68.7246V18.2417C62.5317 15.7473 60.5066 13.7252 58.0085 13.7252Z" fill="#FFB443"/>
<path d="M60.3683 18.7498V68.1352H33.6929V18.7498C33.6944 18.2548 33.892 17.7804 34.2426 17.4303C34.5932 17.0803 35.0683 16.8829 35.5641 16.8814H42.4383C42.4391 17.2999 42.606 17.7011 42.9026 17.9969C43.1991 18.2928 43.601 18.4591 44.0202 18.4595H50.2212C50.4294 18.4601 50.6357 18.4196 50.8282 18.3405C51.0207 18.2614 51.1957 18.1452 51.3431 17.9985C51.4906 17.8518 51.6077 17.6775 51.6876 17.4855C51.7675 17.2936 51.8088 17.0878 51.8089 16.8799H58.4971C58.9934 16.8807 59.4691 17.078 59.8199 17.4286C60.1707 17.7791 60.3679 18.2543 60.3683 18.7498Z" fill="url(#paint2_linear_1532_22205)"/>
<path opacity="0.24" d="M58.8618 54.8019H34.9067V66.9548H58.8618V54.8019Z" fill="#E52440"/>
<path opacity="0.51" d="M59.0441 28.0862H34.8506V51.3351H59.0441V28.0862Z" fill="#E52440" fill-opacity="0.2"/>
<path d="M45.1271 59.2865L46.501 57.9306L47.4228 58.1382V58.4009L45.9733 59.979L44.7505 60.0357L45.1271 59.2865Z" fill="#606161"/>
<path d="M46.3948 58.1251L47.0941 58.3182L45.7667 59.6814L45.2563 59.6858L45.3421 59.1486L46.3948 58.1251Z" fill="url(#paint3_linear_1532_22205)"/>
<path d="M38.6365 63.1962C38.6365 63.1962 43.9274 60.7659 44.9306 61.155C45.9338 61.5441 48.609 66.3524 48.609 66.3524L46.7204 66.3146L43.7107 63.7217L41.1518 65.8631L37.4326 65.6424L38.6365 63.1962Z" fill="#606161"/>
<path d="M38.6365 63.1962C38.6365 63.1962 43.9274 60.7659 44.9306 61.155C45.9338 61.5441 48.609 66.3524 48.609 66.3524L46.7204 66.3146L43.7107 63.7217L41.1518 65.8631L37.4326 65.6424L38.6365 63.1962Z" fill="url(#paint4_linear_1532_22205)"/>
<path d="M34.4219 66.8213C34.4219 66.8213 34.7795 68.0422 35.7391 68.1743C36.6987 68.3064 51.0171 67.9653 51.0171 67.9653C51.1349 67.8987 51.2364 67.8069 51.3144 67.6965C51.3923 67.586 51.4447 67.4596 51.4679 67.3265C51.5813 66.8372 51.2803 66.3102 51.2803 66.3102L39.2969 64.9267L34.4219 66.8213Z" fill="#606161"/>
<path d="M34.4219 66.8213C34.4219 66.8213 34.7795 68.0422 35.7391 68.1743C36.6987 68.3064 51.0171 67.9653 51.0171 67.9653C51.1349 67.8987 51.2364 67.8069 51.3144 67.6965C51.3923 67.586 51.4447 67.4596 51.4679 67.3265C51.5813 66.8372 51.2803 66.3102 51.2803 66.3102L39.2969 64.9267L34.4219 66.8213Z" fill="url(#paint5_linear_1532_22205)"/>
<path d="M44.2998 59.9964C44.7085 60.0021 45.1073 60.1234 45.4498 60.3463C45.6187 60.4598 45.7564 60.6137 45.8504 60.794C45.9444 60.9744 45.9916 61.1753 45.9878 61.3785C45.989 61.4377 45.97 61.4956 45.934 61.5426C45.8913 61.583 45.8343 61.605 45.7755 61.6036C45.4513 61.6137 45.2448 61.2363 44.9308 61.155C44.7287 61.1027 44.5164 61.1811 44.3085 61.168C44.1849 61.1586 44.0658 61.1177 43.9625 61.0494C43.8592 60.981 43.7751 60.8874 43.7182 60.7775C43.6711 60.6845 43.6453 60.5821 43.6428 60.4779C43.6403 60.3737 43.6611 60.2702 43.7036 60.175C43.8214 59.9718 44.0831 59.9805 44.2998 59.9964Z" fill="#F4A982"/>
<path d="M40.8886 59.9021C40.8871 59.9212 40.8894 59.9403 40.8954 59.9585C40.9014 59.9767 40.9109 59.9935 40.9235 60.008C40.9533 60.0281 40.9896 60.0364 41.0252 60.0313L43.8343 59.9761C43.9023 60.3141 43.9058 60.6618 43.8444 61.0011C43.8392 61.0569 43.8185 61.1101 43.7848 61.155C43.7254 61.2063 43.6497 61.2351 43.5711 61.2362C42.3845 61.389 41.2158 61.6575 40.0816 62.0376C39.9679 62.0893 39.8421 62.1084 39.7181 62.0928C39.4884 62.042 39.3837 61.7778 39.3358 61.5484C39.1744 60.7746 39.234 59.9732 39.1424 59.1878C39.0973 58.806 39.0203 58.4009 39.1787 58.0496C39.3241 57.7244 40.371 56.923 40.592 57.4398C40.7374 57.7825 40.7272 58.2978 40.7708 58.6666C40.8231 59.077 40.8624 59.4888 40.8886 59.9021Z" fill="#E52440"/>
<path d="M40.8886 59.9021C40.8871 59.9212 40.8894 59.9403 40.8954 59.9585C40.9014 59.9767 40.9109 59.9935 40.9235 60.008C40.9533 60.0281 40.9896 60.0364 41.0252 60.0313L43.8343 59.9761C43.9023 60.3141 43.9058 60.6618 43.8444 61.0011C43.8392 61.0569 43.8185 61.1101 43.7848 61.155C43.7254 61.2063 43.6497 61.2351 43.5711 61.2362C42.3845 61.389 41.2158 61.6575 40.0816 62.0376C39.9679 62.0893 39.8421 62.1084 39.7181 62.0928C39.4884 62.042 39.3837 61.7778 39.3358 61.5484C39.1744 60.7746 39.234 59.9732 39.1424 59.1878C39.0973 58.806 39.0203 58.4009 39.1787 58.0496C39.3241 57.7244 40.371 56.923 40.592 57.4398C40.7374 57.7825 40.7272 58.2978 40.7708 58.6666C40.8231 59.077 40.8624 59.4888 40.8886 59.9021Z" fill="url(#paint6_linear_1532_22205)"/>
<path d="M44.3416 60.0168C44.4427 59.7797 44.5914 59.5658 44.7784 59.3883C44.9655 59.2108 45.1869 59.0734 45.4292 58.9846C45.5426 59.1791 45.1805 59.4491 45.3347 59.6146C45.3662 59.6393 45.4025 59.6569 45.4414 59.6664C45.4802 59.6759 45.5207 59.6771 45.56 59.6698L46.4905 59.6306C46.5194 59.6257 46.549 59.6319 46.5734 59.648C46.5905 59.6657 46.6008 59.6888 46.6025 59.7134C46.6061 59.8067 46.5871 59.8995 46.5471 59.9839C46.5071 60.0683 46.4473 60.1418 46.3728 60.1982C46.2274 60.3217 46.0645 60.4117 45.9279 60.538C45.7054 60.7427 45.5644 61.0446 45.291 61.1768C45.0846 61.2769 44.8403 61.261 44.6251 61.3379C44.3605 61.4337 44.1133 61.6747 43.8429 61.5934C43.7135 61.5557 43.8589 60.7935 43.9243 60.7064C44.0945 60.4967 44.2349 60.2647 44.3416 60.0168Z" fill="#F4A982"/>
<path d="M40.4523 55.4117C40.6165 55.5579 40.7937 55.6891 40.9815 55.8037C41.0523 55.8556 41.1379 55.8835 41.2258 55.8835C41.3246 55.8642 41.4127 55.8088 41.4729 55.7282C41.6416 55.545 41.7809 55.3369 41.8859 55.1112C41.8981 55.0774 41.9174 55.0467 41.9426 55.0212C42.0298 54.9442 42.1708 55.0212 42.2813 54.9805C42.3214 54.9641 42.3562 54.937 42.3818 54.9022C42.4075 54.8674 42.423 54.8261 42.4267 54.7831C42.4342 54.6974 42.4278 54.6112 42.4078 54.5276C42.3725 54.3386 42.3617 54.1458 42.3758 53.9541C42.4064 53.6478 42.5285 53.3429 42.466 53.0424C42.3903 52.7826 42.2384 52.5515 42.0298 52.3789C41.8899 52.2343 41.7267 52.1141 41.5471 52.0232C41.334 51.9363 41.1056 51.8929 40.8754 51.8955C40.5944 51.866 40.3113 51.9265 40.067 52.0682C39.8416 52.225 39.7166 52.4863 39.6017 52.7361L38.6232 54.8644C38.5931 54.9196 38.5776 54.9815 38.5781 55.0444C38.5882 55.0981 38.6123 55.1481 38.6479 55.1896C38.8442 55.4672 39.1025 55.6954 39.4025 55.8559C39.5712 55.9459 39.8692 56.0693 40.0539 55.9532C40.2385 55.8371 40.3229 55.5598 40.4523 55.4117Z" fill="#F4A982"/>
<path d="M43.4014 52.6983C43.5441 52.5352 43.6424 52.3381 43.6867 52.126C43.731 51.914 43.7199 51.6941 43.6544 51.4876C43.6364 51.4199 43.6013 51.3579 43.5526 51.3075C43.4839 51.2579 43.404 51.226 43.32 51.2146C42.763 51.0881 42.2276 50.8807 41.7308 50.5991C41.4531 50.4408 41.1711 50.255 40.8585 50.2448C40.6848 50.2425 40.5145 50.292 40.3692 50.3869C40.2238 50.4818 40.1102 50.6178 40.0428 50.7776C39.9617 50.7272 39.8694 50.6975 39.774 50.6912C39.6787 50.6848 39.5832 50.7021 39.4961 50.7413C39.3218 50.8219 39.1763 50.9536 39.0788 51.1188C38.8084 51.5543 38.7968 52.0886 38.788 52.5967L38.7779 54.243C38.7758 54.2735 38.7798 54.3041 38.7895 54.333C38.8066 54.3642 38.8336 54.3887 38.8663 54.4027C38.899 54.4167 38.9355 54.4192 38.9698 54.41C39.038 54.391 39.1008 54.3562 39.153 54.3084C39.3667 54.14 39.5775 53.9686 39.7884 53.7959C39.694 53.6548 39.6514 53.4855 39.6678 53.3167C39.6842 53.1479 39.7587 52.9899 39.8785 52.8697C39.907 52.8386 39.9438 52.8164 39.9846 52.8058C40.0197 52.8042 40.0547 52.8109 40.0868 52.8253C40.1189 52.8397 40.1471 52.8613 40.1693 52.8885C40.2975 53.0296 40.367 53.2143 40.3635 53.4047C40.3599 53.5952 40.2837 53.7772 40.1504 53.9135C40.3853 53.8236 40.575 53.6446 40.6782 53.4155C40.7783 53.1877 40.9094 52.9747 41.0678 52.7825C41.2423 52.6054 41.5316 52.5067 41.7424 52.6374C42.0332 52.8159 42.0754 53.1136 42.4694 53.1136C42.6451 53.1127 42.8187 53.0753 42.9791 53.0038C43.1396 52.9324 43.2834 52.8283 43.4014 52.6983Z" fill="#606161"/>
<path d="M43.4014 52.6983C43.5441 52.5352 43.6424 52.3381 43.6867 52.126C43.731 51.914 43.7199 51.6941 43.6544 51.4876C43.6364 51.4199 43.6013 51.3579 43.5526 51.3075C43.4839 51.2579 43.404 51.226 43.32 51.2146C42.763 51.0881 42.2276 50.8807 41.7308 50.5991C41.4531 50.4408 41.1711 50.255 40.8585 50.2448C40.6848 50.2425 40.5145 50.292 40.3692 50.3869C40.2238 50.4818 40.1102 50.6178 40.0428 50.7776C39.9617 50.7272 39.8694 50.6975 39.774 50.6912C39.6787 50.6848 39.5832 50.7021 39.4961 50.7413C39.3218 50.8219 39.1763 50.9536 39.0788 51.1188C38.8084 51.5543 38.7968 52.0886 38.788 52.5967L38.7779 54.243C38.7758 54.2735 38.7798 54.3041 38.7895 54.333C38.8066 54.3642 38.8336 54.3887 38.8663 54.4027C38.899 54.4167 38.9355 54.4192 38.9698 54.41C39.038 54.391 39.1008 54.3562 39.153 54.3084C39.3667 54.14 39.5775 53.9686 39.7884 53.7959C39.694 53.6548 39.6514 53.4855 39.6678 53.3167C39.6842 53.1479 39.7587 52.9899 39.8785 52.8697C39.907 52.8386 39.9438 52.8164 39.9846 52.8058C40.0197 52.8042 40.0547 52.8109 40.0868 52.8253C40.1189 52.8397 40.1471 52.8613 40.1693 52.8885C40.2975 53.0296 40.367 53.2143 40.3635 53.4047C40.3599 53.5952 40.2837 53.7772 40.1504 53.9135C40.3853 53.8236 40.575 53.6446 40.6782 53.4155C40.7783 53.1877 40.9094 52.9747 41.0678 52.7825C41.2423 52.6054 41.5316 52.5067 41.7424 52.6374C42.0332 52.8159 42.0754 53.1136 42.4694 53.1136C42.6451 53.1127 42.8187 53.0753 42.9791 53.0038C43.1396 52.9324 43.2834 52.8283 43.4014 52.6983Z" fill="url(#paint7_linear_1532_22205)"/>
<path d="M39.2838 63.6273C39.3332 64.0629 39.4117 64.5071 39.2969 64.9339C39.1646 65.4188 38.7938 65.8181 38.3736 66.1302C37.5362 66.7399 36.5254 67.066 35.489 67.0608C34.9147 67.0608 34.2706 66.9156 33.9827 66.4467C33.7922 66.1404 33.8024 65.7644 33.8184 65.4101L33.9013 63.5664C33.9609 62.2278 34.0234 60.8791 34.3651 59.5783C34.7068 58.2775 35.3552 57.013 36.4239 56.1158C36.7674 55.8116 37.1726 55.5848 37.6117 55.4509C39.2591 54.9994 41.0648 56.0084 40.4818 57.6692C39.7665 59.7061 39.0337 61.4192 39.2838 63.6273Z" fill="#E52440"/>
<path d="M36.8175 63.5199C36.8422 63.6651 36.7652 64.0396 36.8437 64.166C37.0327 64.465 37.1825 66.7037 37.5271 66.618C37.8716 66.5324 38.9548 65.3855 39.2325 65.1662C39.4739 64.9746 39.3198 63.2557 39.2325 62.9581C39.1823 62.8343 39.1093 62.7211 39.0173 62.6242C38.6757 62.1886 38.5899 61.5992 38.5812 61.0432C38.5724 60.4871 38.6277 59.9224 38.523 59.3765C38.4125 58.7958 38.0519 58.1425 37.4296 58.0133C36.6082 57.8449 36.598 58.2717 36.7637 58.8336C37.2057 60.3289 36.5645 61.9825 36.8175 63.5199Z" fill="url(#paint8_linear_1532_22205)"/>
<path d="M52.3689 66.5919C52.4635 66.7061 52.5108 66.852 52.5012 66.9999C52.5138 67.1159 52.5104 67.2332 52.491 67.3483C52.4713 67.4649 52.4066 67.5692 52.3107 67.6387C52.1924 67.6974 52.0596 67.7206 51.9283 67.7054L51.5838 67.6967C51.4654 67.7005 51.3472 67.6858 51.2334 67.6532C51.1766 67.6367 51.1244 67.6075 51.0808 67.5677C51.0372 67.528 51.0033 67.4787 50.9818 67.4238C50.9579 67.3383 50.9579 67.2479 50.9818 67.1625C51.0458 66.8721 51.1272 66.4758 51.4718 66.4729C51.7088 66.4685 52.193 66.4308 52.3689 66.5919Z" fill="#F4A982"/>
<path d="M53.2314 63.9845C52.9286 64.6105 52.5888 65.2179 52.2136 65.8036C52.089 65.9648 52.0111 66.1572 51.9883 66.3596C52.0001 66.4959 52.0294 66.63 52.0755 66.7588C52.1326 66.9702 52.1479 67.1906 52.1206 67.4078C52.0967 67.5303 52.0835 67.6547 52.0813 67.7794C52.081 67.8419 52.0958 67.9036 52.1244 67.9592C52.153 68.0148 52.1946 68.0627 52.2456 68.0988C52.3274 68.1404 52.4186 68.1599 52.5102 68.1555L53.6051 68.2019C53.6717 68.2085 53.739 68.2041 53.8043 68.1889C53.9265 68.1402 54.0264 68.0482 54.0849 67.9304C54.601 67.0884 54.4309 66.0141 54.6097 65.0428C54.6839 64.6407 54.8206 64.2458 54.8307 63.8364C54.8428 63.7166 54.8292 63.5956 54.7908 63.4815C54.7524 63.3674 54.6902 63.2627 54.6083 63.1744C54.428 63.0147 54.0921 63.0292 53.9904 63.2455" fill="#606161"/>
<path d="M53.2314 63.9845C52.9286 64.6105 52.5888 65.2179 52.2136 65.8036C52.089 65.9648 52.0111 66.1572 51.9883 66.3596C52.0001 66.4959 52.0294 66.63 52.0755 66.7588C52.1326 66.9702 52.1479 67.1906 52.1206 67.4078C52.0967 67.5303 52.0835 67.6546 52.0813 67.7794C52.081 67.8419 52.0958 67.9036 52.1244 67.9592C52.153 68.0148 52.1946 68.0627 52.2456 68.0988C52.3274 68.1404 52.4186 68.1599 52.5102 68.1554C52.8752 68.1714 52.849 68.1424 53.214 68.1554C53.2807 68.1609 53.3479 68.156 53.4131 68.1409C53.5354 68.0923 53.6353 68.0003 53.6938 67.8825C54.2099 67.0405 54.1648 66.1026 54.3437 65.1314C54.4178 64.7292 54.5545 64.3344 54.5647 63.925C54.5768 63.8052 54.5632 63.6842 54.5249 63.57C54.4865 63.4559 54.4242 63.3512 54.3422 63.2629C54.1619 63.1018 54.0921 63.0249 53.9904 63.2426" fill="url(#paint9_linear_1532_22205)"/>
<path d="M36.8555 58.0234C36.8555 58.0234 36.8308 56.4265 38.26 56.2944C39.6892 56.1622 39.916 57.6721 39.8666 58.0931C39.8172 58.5141 40.092 60.9226 40.092 60.9226L43.9304 60.6729L44.0758 61.7748C44.0758 61.7748 38.6831 63.4023 38.3821 63.0524C38.0812 62.7025 37.7061 62.0303 36.8555 58.0234Z" fill="#E52440"/>
<path d="M35.3594 57.3324C35.3594 57.3324 36.3597 57.4224 37.011 57.1205C37.6624 56.8185 39.4173 56.4773 39.9422 56.6109C40.5674 56.7706 40.5107 56.3205 40.5107 56.3205L38.0724 55.5656C38.0724 55.5656 35.9351 56.3975 35.7534 56.7459C35.6433 56.9548 35.5112 57.1515 35.3594 57.3324Z" fill="url(#paint10_linear_1532_22205)"/>
<path d="M38.6613 54.5668C38.4098 54.3345 38.1423 54.0935 37.8079 54.018C37.4735 53.9425 37.0591 54.1037 36.9849 54.4376C36.9573 54.5581 36.9544 54.7163 36.8395 54.7555C36.7668 54.7802 36.6942 54.7381 36.6127 54.741C36.5561 54.7484 36.5026 54.7711 36.458 54.8067C36.4134 54.8422 36.3794 54.8893 36.3597 54.9428C36.3118 55.0473 36.2943 55.162 36.2463 55.2651C36.1271 55.5279 35.848 55.6687 35.6299 55.8574C35.4118 56.0462 35.2431 56.3801 35.4176 56.6094C35.5921 56.8388 35.9061 56.7808 36.1635 56.7111C36.8047 56.5369 37.4342 56.3046 38.0914 56.2015C38.7486 56.0984 39.4537 56.1347 40.028 56.4686C40.659 56.8374 40.6416 56.11 40.1938 55.8516C39.6122 55.5177 39.16 55.0198 38.6613 54.5668Z" fill="#E52440"/>
<path d="M38.5321 55.3711C38.3675 55.3493 38.2084 55.2976 38.0625 55.2186C37.7357 55.0692 37.4008 54.9384 37.0592 54.8267C37.0401 54.8218 37.0222 54.8129 37.0069 54.8005C36.9892 54.7818 36.978 54.7579 36.9749 54.7323C36.9458 54.5871 36.9865 54.3142 37.1581 54.2895C37.2933 54.2692 37.555 54.4637 37.6655 54.5319C38.0118 54.7457 38.3075 55.032 38.5321 55.3711Z" fill="url(#paint11_linear_1532_22205)"/>
<path d="M38.1523 55.6251C37.9865 55.615 37.9022 55.8066 37.0371 55.6367C36.6853 55.567 36.7071 55.6208 36.3654 55.509C36.3463 55.5041 36.3284 55.4952 36.313 55.4828C36.2954 55.4641 36.2841 55.4402 36.2811 55.4146C36.252 55.2767 36.2927 54.9965 36.4643 54.9718C36.5995 54.9515 36.8612 55.146 36.9717 55.2143C37.3163 55.432 37.5155 55.6062 38.1523 55.6251Z" fill="url(#paint12_linear_1532_22205)"/>
<path opacity="0.24" d="M37.6534 27.1774C38.8338 27.1774 39.7907 26.2219 39.7907 25.0433C39.7907 23.8647 38.8338 22.9092 37.6534 22.9092C36.473 22.9092 35.5161 23.8647 35.5161 25.0433C35.5161 26.2219 36.473 27.1774 37.6534 27.1774Z" fill="#E52440"/>
<path opacity="0.51" d="M49.646 23.908H40.793V24.9373H49.646V23.908Z" fill="#E52440"/>
<path opacity="0.24" d="M52.8388 25.8607H40.793V26.3746H52.8388V25.8607Z" fill="#E52440"/>
<path d="M61.6958 44.1561C61.6958 47.6766 65.3655 50.5279 69.8902 50.5279C70.6505 50.5306 71.4085 50.4464 72.1496 50.2768L75.7263 52.1046L74.284 49.5277C76.5681 48.404 78.0802 46.4252 78.0802 44.1561C78.0802 40.634 74.4105 37.7842 69.8844 37.7842C65.3583 37.7842 61.6958 40.6355 61.6958 44.1561Z" fill="#FFB443"/>
<path d="M61.5083 44.066C61.5083 47.5881 65.178 50.4379 69.7027 50.4379C70.463 50.4406 71.221 50.3563 71.9621 50.1868L75.5388 52.0145L74.1023 49.4318C76.3864 48.3081 77.8985 46.3308 77.8985 44.0602C77.8985 40.5397 74.2288 37.6884 69.7027 37.6884C65.1766 37.6884 61.5083 40.5455 61.5083 44.066Z" fill="url(#paint13_linear_1532_22205)"/>
<path d="M66.8606 26.3688C66.8606 26.3688 65.7585 24.9257 64.7262 26.3006C63.6939 27.6754 67.067 29.3261 67.067 29.3261C67.067 29.3261 69.4777 27.6072 69.2029 26.5764C68.9281 25.5456 67.4116 25.2698 66.8606 26.3688Z" fill="white"/>
<path d="M25.5466 30.007C25.5466 30.007 24.6263 28.8005 23.7641 29.9489C22.9019 31.0973 25.7197 32.475 25.7197 32.475C25.7197 32.475 27.7305 31.0392 27.5007 30.1783C27.442 29.9746 27.3228 29.7934 27.1589 29.6586C26.995 29.5238 26.7941 29.4418 26.5825 29.4232C26.371 29.4047 26.1589 29.4505 25.9739 29.5547C25.789 29.6589 25.6401 29.8166 25.5466 30.007Z" fill="white"/>
<path d="M73.3281 30.5093C73.3281 30.5093 71.8436 28.5639 70.4507 30.4164C69.0578 32.2688 73.6058 34.493 73.6058 34.493C73.6058 34.493 76.8539 32.1774 76.4831 30.788C76.1124 29.3987 74.0638 29.0227 73.3281 30.5093Z" fill="white"/>
<path d="M28.401 25.37C28.401 25.37 27.7395 24.4989 27.1186 25.3293C26.4978 26.1597 28.526 27.1469 28.526 27.1469C28.526 27.1469 29.9727 26.1133 29.8084 25.4948C29.7661 25.3481 29.6803 25.2177 29.5624 25.1206C29.4444 25.0235 29.2998 24.9643 29.1476 24.9508C28.9953 24.9373 28.8425 24.9701 28.7093 25.0449C28.576 25.1197 28.4686 25.233 28.401 25.37Z" fill="white"/>
<defs>
<linearGradient id="paint0_linear_1532_22205" x1="27.0911" y1="58.7552" x2="25.1152" y2="11.2613" gradientUnits="userSpaceOnUse">
<stop stop-color="white" stop-opacity="0"/>
<stop offset="0.95" stop-color="white"/>
</linearGradient>
<linearGradient id="paint1_linear_1532_22205" x1="46.9903" y1="58.9555" x2="37.1965" y2="270.38" gradientUnits="userSpaceOnUse">
<stop stop-color="#010101" stop-opacity="0"/>
<stop offset="0.95" stop-color="#010101"/>
</linearGradient>
<linearGradient id="paint2_linear_1532_22205" x1="6515.02" y1="37941.1" x2="18184.3" y2="1238.43" gradientUnits="userSpaceOnUse">
<stop stop-color="white" stop-opacity="0"/>
<stop offset="0.95" stop-color="white"/>
</linearGradient>
<linearGradient id="paint3_linear_1532_22205" x1="568.95" y1="661.761" x2="574.305" y2="623.647" gradientUnits="userSpaceOnUse">
<stop stop-color="white" stop-opacity="0"/>
<stop offset="0.95" stop-color="white"/>
</linearGradient>
<linearGradient id="paint4_linear_1532_22205" x1="3226.51" y1="2147.41" x2="3255.84" y2="2339.86" gradientUnits="userSpaceOnUse">
<stop stop-color="#010101" stop-opacity="0"/>
<stop offset="0.95" stop-color="#010101"/>
</linearGradient>
<linearGradient id="paint5_linear_1532_22205" x1="5014.7" y1="1438.26" x2="5016.96" y2="1529.94" gradientUnits="userSpaceOnUse">
<stop stop-color="#010101" stop-opacity="0"/>
<stop offset="0.95" stop-color="#010101"/>
</linearGradient>
<linearGradient id="paint6_linear_1532_22205" x1="1415.47" y1="1848.42" x2="1262.99" y2="2215.32" gradientUnits="userSpaceOnUse">
<stop stop-color="#010101" stop-opacity="0"/>
<stop offset="0.95" stop-color="#010101"/>
</linearGradient>
<linearGradient id="paint7_linear_1532_22205" x1="1343.7" y1="1423.65" x2="1511.27" y2="1423.65" gradientUnits="userSpaceOnUse">
<stop stop-color="#010101" stop-opacity="0"/>
<stop offset="0.95" stop-color="#010101"/>
</linearGradient>
<linearGradient id="paint8_linear_1532_22205" x1="683.669" y1="3532.72" x2="1068.55" y2="3495.17" gradientUnits="userSpaceOnUse">
<stop stop-color="#010101" stop-opacity="0"/>
<stop offset="0.95" stop-color="#010101"/>
</linearGradient>
<linearGradient id="paint9_linear_1532_22205" x1="968.829" y1="2189.79" x2="1014.56" y2="2189.79" gradientUnits="userSpaceOnUse">
<stop stop-color="#010101" stop-opacity="0"/>
<stop offset="0.95" stop-color="#010101"/>
</linearGradient>
<linearGradient id="paint10_linear_1532_22205" x1="1368.71" y1="699.931" x2="1364.73" y2="589.525" gradientUnits="userSpaceOnUse">
<stop stop-color="#010101" stop-opacity="0"/>
<stop offset="0.95" stop-color="#010101"/>
</linearGradient>
<linearGradient id="paint11_linear_1532_22205" x1="438.993" y1="432.712" x2="446.85" y2="391.018" gradientUnits="userSpaceOnUse">
<stop stop-color="#010101" stop-opacity="0"/>
<stop offset="0.95" stop-color="#010101"/>
</linearGradient>
<linearGradient id="paint12_linear_1532_22205" x1="511.736" y1="315.244" x2="514.187" y2="292.281" gradientUnits="userSpaceOnUse">
<stop stop-color="#010101" stop-opacity="0"/>
<stop offset="0.95" stop-color="#010101"/>
</linearGradient>
<linearGradient id="paint13_linear_1532_22205" x1="13612.3" y1="4005.61" x2="17057.3" y2="4036.93" gradientUnits="userSpaceOnUse">
<stop stop-color="white" stop-opacity="0"/>
<stop offset="0.95" stop-color="white"/>
</linearGradient>
</defs>
</svg>
