<svg width="92" height="79" viewBox="0 0 92 79" fill="none" xmlns="http://www.w3.org/2000/svg">
<path d="M28.8468 34.2368C28.5731 33.8078 28.5058 33.2818 28.3354 32.8007C28.1649 32.3196 27.8192 31.8312 27.3174 31.7767C26.8156 31.7221 26.3714 32.1184 26.058 32.5232C25.8778 32.7383 25.7379 32.9847 25.6451 33.2503C25.5873 33.438 25.5689 33.6358 25.5913 33.8311C25.6136 34.0264 25.6761 34.2148 25.7748 34.3842C25.8734 34.5536 26.0061 34.7004 26.1643 34.8151C26.3224 34.9297 26.5025 35.0098 26.6931 35.05C26.9452 35.1034 27.2165 35.0888 27.447 35.2039C27.6032 35.2984 27.7452 35.4152 27.8684 35.5505C28.1601 35.8256 28.5334 36.0559 28.932 36.0293C29.2849 36.005 29.7423 35.6427 29.6391 35.2403C29.5431 34.8682 29.0521 34.558 28.8468 34.2368Z" fill="url(#paint0_linear_1532_22141)"/>
<path d="M24.9297 42.8038V69.215C24.9297 69.215 24.9297 71.0002 26.698 71.1892C28.4663 71.3783 63.7521 71.1892 63.7521 71.1892C63.7521 71.1892 65.0558 71.2825 65.7077 69.4925C66.3595 67.7025 65.7077 42.799 65.7077 42.799L24.9297 42.8038Z" fill="#FFB443"/>
<path opacity="0.69" d="M24.9297 42.8038V69.215C24.9297 69.215 24.9297 71.0002 26.698 71.1892C28.4663 71.3783 63.7521 71.1892 63.7521 71.1892C63.7521 71.1892 65.0558 71.2825 65.7077 69.4925C66.3595 67.7025 65.7077 42.799 65.7077 42.799L24.9297 42.8038Z" fill="url(#paint1_linear_1532_22141)"/>
<path d="M45.8769 24.7585L24.9297 42.8038L38.9357 54.9726C39.8102 55.7327 40.9259 56.1507 42.0798 56.1506H49.111C49.9076 56.1508 50.6778 55.8622 51.2815 55.3374L65.7077 42.8038L45.8769 24.7585Z" fill="#FFB443"/>
<path d="M45.8769 24.7585L24.9297 42.8038L38.7352 54.8018C39.7371 55.672 41.015 56.1506 42.3367 56.1506H48.8025C49.8012 56.1504 50.7668 55.7888 51.524 55.1314L65.7077 42.8038L45.8769 24.7585Z" fill="url(#paint2_linear_1532_22141)"/>
<path d="M54.9539 38.7779C54.9479 38.8106 54.9419 38.8445 54.9371 38.8773C54.655 40.4744 53.8072 41.9135 52.5517 42.9262C51.8638 43.4777 51.0367 43.9176 50.6201 44.6981C50.3584 45.1828 50.2912 45.7536 50.2384 46.3087C49.9262 49.5518 49.793 52.7221 50.1435 55.9616L49.1831 56.1506H45.2348C44.853 56.1506 43.6633 56.2536 42.6009 56.2512H42.5949C41.7546 56.2512 40.985 56.1736 40.7762 55.9264C40.7687 55.9183 40.7623 55.9094 40.757 55.8998C40.7472 55.8869 40.7388 55.8731 40.7317 55.8585C40.7221 55.8416 40.7113 55.8246 40.7017 55.8052C40.6921 55.7858 40.6801 55.7616 40.6693 55.7386L40.6585 55.7168C40.3776 55.0744 40.4028 53.9607 40.338 53.3353C40.2467 52.4458 40.1891 51.5502 40.0907 50.6607C39.8866 48.8585 39.4784 47.0092 38.3872 45.5706C38.2299 45.3646 37.9418 45.041 37.5769 44.652C36.2804 43.2692 34.0054 41.0551 33.1351 40.2806C32.9946 40.1595 28.069 36.3165 28.0246 36.1347C27.9046 35.6087 29.3536 34.9022 29.5853 34.4174C31.2059 35.3579 37.6033 40.0031 39.2215 40.9448C40.0067 41.4005 40.8038 41.8622 41.6837 42.0815C43.5337 42.5433 45.458 41.8792 47.2516 41.2235C48.4821 40.7739 50.1255 40.0867 51.4184 39.2845C51.9767 38.9391 52.8266 38.2616 52.0343 38.2931C50.7042 38.3452 49.2804 38.2446 48.1843 38.3016C48.1273 38.3136 48.0684 38.3127 48.0118 38.2991C47.9551 38.2855 47.9021 38.2595 47.8566 38.2228C47.7994 38.1399 47.777 38.0376 47.7942 37.938C47.8434 36.9612 47.6825 36.9346 47.9851 36.005C49.1543 36.2959 50.5517 36.039 51.7546 36.0535C53.0427 36.068 53.5805 35.8778 54.4016 36.7649C54.619 36.9847 54.7891 37.2475 54.901 37.5369C55.0451 37.9295 55.0175 38.3634 54.9539 38.7779Z" fill="#E52440"/>
<path d="M42.4303 42.2161C42.7424 42.7299 42.6548 43.0644 43.1242 43.4365C43.3451 43.6122 44.2839 43.8 44.6512 43.5189C45.1098 43.1638 45.0558 42.1506 45.0642 42.0816C45.0674 41.9671 45.0417 41.8537 44.9897 41.7519C44.8376 41.4186 44.7038 41.0772 44.5888 40.7291C44.4722 40.3771 44.456 39.9992 44.542 39.6383C44.4412 39.5386 44.3212 39.4607 44.1895 39.4094C44.0578 39.3582 43.9171 39.3346 43.7761 39.3402C43.508 39.3762 43.2528 39.4782 43.033 39.6371C42.8613 39.7583 42.3271 38.8906 42.2166 39.0675C42.1206 39.2275 42.4219 41.7931 42.4303 42.2161Z" fill="url(#paint3_linear_1532_22141)"/>
<path d="M42.1865 38.6021C42.1865 38.6021 42.6883 41.0963 43.6607 41.6646C44.6331 42.233 45.0509 41.8876 45.0509 41.8876L44.3114 39.9958L42.1865 38.6021Z" fill="url(#paint4_linear_1532_22141)"/>
<path d="M43.9561 40.7521C44.1544 40.7779 44.3558 40.7647 44.5492 40.7133C45.0294 40.5545 45.2598 39.9571 45.1998 39.3802C45.1398 38.8033 44.8493 38.2471 44.5275 37.7405C44.1273 37.1082 43.6669 36.5168 43.153 35.9747C42.879 35.6602 42.5543 35.3947 42.1926 35.1894C41.9546 35.0652 41.6932 34.9933 41.4256 34.9785C41.1581 34.9636 40.8905 35.0062 40.6404 35.1034C40.1647 35.3081 39.7775 35.6784 39.5491 36.1468C39.2991 36.6221 39.2074 37.166 39.2874 37.6981C39.6128 39.7474 42.4531 40.6297 43.9561 40.7521Z" fill="url(#paint5_linear_1532_22141)"/>
<path d="M45.5229 37.406C45.3537 37.5114 45.1304 37.4642 44.9551 37.3696C44.6965 37.231 44.5002 36.9977 44.4065 36.7176C44.3615 36.5774 44.3469 36.4291 44.3637 36.2828C44.3805 36.1364 44.4282 35.9954 44.5037 35.8693C44.6238 35.6826 44.8014 35.5275 44.8399 35.3118C44.8399 35.3118 46.2492 34.1847 46.4977 32.5874C46.7462 30.9901 48.3597 32.4662 48.3597 32.4662C48.3597 32.4662 50.146 34.0672 49.3032 35.0524C49.2192 35.1437 49.1128 35.211 48.9948 35.2476C48.8768 35.2842 48.7513 35.2888 48.631 35.2609C48.2708 35.1906 47.5613 35.2464 46.5397 36.2147L45.5229 37.406Z" fill="white"/>
<path d="M46.5399 36.2147C46.356 36.1889 46.1686 36.2084 45.9937 36.2716C45.8064 36.3763 45.6555 36.5367 45.5616 36.7309C45.4729 36.867 45.4192 37.0232 45.4055 37.1854C45.3995 37.4023 45.5147 37.6011 45.6276 37.7853C45.6896 37.9094 45.7802 38.0166 45.8917 38.098C46.0094 38.1584 46.1391 38.1911 46.271 38.1937C46.4871 38.2155 46.7212 38.2313 46.9061 38.115C46.9767 38.0563 47.0522 38.004 47.1318 37.9586C47.3587 37.8641 47.6648 38.0471 47.8425 37.8774C47.917 37.7841 47.9546 37.6662 47.9481 37.5466L47.9925 36.8424C48.0057 36.6437 48.0922 36.4352 47.8833 36.3637C47.5003 36.2329 46.9445 36.2147 46.5399 36.2147Z" fill="url(#paint6_linear_1532_22141)"/>
<path d="M46.8695 37.635C46.8695 37.635 48.2669 39.076 48.6703 39.076C49.0736 39.076 48.1108 40.4551 47.6463 40.2043C47.1817 39.9534 46.2705 38.1937 46.2705 38.1937C46.2705 38.1937 46.5286 37.6508 46.6607 37.6035C46.6949 37.5886 46.7326 37.5837 46.7695 37.5893C46.8065 37.5948 46.8411 37.6107 46.8695 37.635Z" fill="white"/>
<path d="M49.2502 34.8294C49.5663 34.5641 49.305 33.7207 48.6667 32.9456C48.0284 32.1705 47.2546 31.7572 46.9385 32.0225C46.6225 32.2878 46.8837 33.1312 47.522 33.9063C48.1604 34.6814 48.9341 35.0947 49.2502 34.8294Z" fill="#FFB443"/>
<path d="M49.2502 34.8294C49.5663 34.5641 49.305 33.7207 48.6667 32.9456C48.0284 32.1705 47.2546 31.7572 46.9385 32.0225C46.6225 32.2878 46.8837 33.1312 47.522 33.9063C48.1604 34.6814 48.9341 35.0947 49.2502 34.8294Z" fill="url(#paint7_linear_1532_22141)"/>
<path d="M42.26 34.7628C42.1497 35.2023 41.9001 35.5934 41.5493 35.8765C41.3476 36.0499 41.1219 36.1953 40.9239 36.3734C40.7154 36.5423 40.5616 36.7702 40.4821 37.0279C40.4197 37.3555 40.4846 37.6949 40.6633 37.9756C40.8407 38.252 41.0364 38.516 41.2492 38.7657C41.2777 38.7932 41.2991 38.8274 41.3115 38.8653C41.3239 38.9031 41.3268 38.9434 41.32 38.9827C41.29 39.0675 41.182 39.0917 41.0931 39.0857C40.9852 39.0784 40.8805 39.0461 40.787 38.9912C40.7373 38.9546 40.6804 38.9294 40.6201 38.9172C40.5683 38.9196 40.5192 38.9417 40.4827 38.979C40.4462 39.0162 40.425 39.066 40.4232 39.1184C40.423 39.2243 40.4591 39.3271 40.5253 39.4093C40.6301 39.5561 40.7654 39.678 40.9218 39.7665C41.0781 39.8551 41.2517 39.9081 41.4305 39.9219C41.4356 39.9397 41.4372 39.9584 41.4351 39.9768C41.433 39.9953 41.4274 40.0131 41.4184 40.0294C41.4095 40.0456 41.3975 40.0599 41.3831 40.0714C41.3687 40.0829 41.3521 40.0914 41.3344 40.0964C41.2614 40.114 41.1848 40.1089 41.1147 40.0819C40.9287 40.0286 40.7474 39.9607 40.5673 39.8916L39.8698 39.6262C39.5913 39.522 39.3128 39.4178 39.0391 39.3026C38.8247 39.2299 38.6299 39.108 38.4701 38.9463C38.2984 38.7476 38.23 38.4761 38.1916 38.2192C38.1315 37.9672 38.134 37.7041 38.1988 37.4532C38.2756 37.2206 38.4509 37.0206 38.4689 36.777C38.4869 36.5334 38.332 36.2922 38.2156 36.0692C38.0811 35.8075 37.9935 35.4996 38.0811 35.2209C38.1592 35.0014 38.3154 34.8191 38.5193 34.7095C38.7213 34.6007 38.9408 34.5289 39.1675 34.4974C39.3644 34.4622 39.5769 34.4344 39.727 34.2999C40.0703 33.9944 39.889 33.3303 40.2504 33.0516C40.6357 32.7498 41.254 33.1316 41.6129 33.3315C41.8632 33.4633 42.0628 33.6757 42.18 33.9349C42.2973 34.1942 42.3254 34.4856 42.26 34.7628Z" fill="#3F3D56"/>
<path d="M26.6982 71.1892L37.7751 58.9344C38.5676 58.0567 39.5328 57.3554 40.6089 56.8755C41.685 56.3956 42.8484 56.1474 44.0248 56.147H46.5783C47.7643 56.1471 48.9371 56.3988 50.0206 56.8859C51.1041 57.373 52.074 58.0845 52.8676 58.9744L63.7524 71.1856L26.6982 71.1892Z" fill="#FFB443"/>
<path d="M70.5491 30.5854C70.5497 31.6847 70.232 32.7603 69.635 33.6798C69.0381 34.5992 68.1879 35.3225 67.189 35.7605C66.1902 36.1986 65.0863 36.3324 64.0132 36.1454C62.9401 35.9584 61.9445 35.4588 61.1489 34.7081C60.3534 33.9574 59.7925 32.9882 59.5354 31.92C59.2783 30.8517 59.3361 29.7308 59.7017 28.6953C60.0673 27.6597 60.7248 26.7546 61.5933 26.0914C62.4618 25.4281 63.5034 25.0356 64.5899 24.9621V30.5854H70.5491Z" fill="#E52440"/>
<path d="M71.1545 29.9309H65.1953V24.3016C65.3154 24.2919 65.4426 24.2883 65.5675 24.2883C66.3014 24.2883 67.0281 24.4342 67.7061 24.7178C68.3841 25.0014 69.0001 25.4171 69.519 25.9411C70.0378 26.4651 70.4493 27.0872 70.7299 27.7718C71.0105 28.4563 71.1548 29.19 71.1545 29.9309Z" fill="#FFB443"/>
<path d="M71.1545 29.9309H65.1953V24.3016C65.3154 24.2919 65.4426 24.2883 65.5675 24.2883C66.3014 24.2883 67.0281 24.4342 67.7061 24.7178C68.3841 25.0014 69.0001 25.4171 69.519 25.9411C70.0378 26.4651 70.4493 27.0872 70.7299 27.7718C71.0105 28.4563 71.1548 29.19 71.1545 29.9309Z" fill="url(#paint8_linear_1532_22141)"/>
<path d="M78.1375 39.9849H71.8362C70.9882 39.9849 70.3008 40.6789 70.3008 41.535V45.0762C70.3008 45.9322 70.9882 46.6262 71.8362 46.6262H78.1375C78.9855 46.6262 79.6729 45.9322 79.6729 45.0762V41.535C79.6729 40.6789 78.9855 39.9849 78.1375 39.9849Z" fill="#981921"/>
<path d="M73.4346 41.9276V44.8726L76.6627 43.2122L73.4346 41.9276Z" fill="url(#paint9_linear_1532_22141)"/>
<path d="M75.3201 31.9257L75.2265 33.3594L73.9468 34.1108L75.3429 34.8161L75.4834 36.3662L76.7631 34.9337L78.1833 35.0743L77.5074 34.0163L77.7643 32.4893L76.4378 33.0298L75.3201 31.9257Z" fill="#FFB443"/>
<path d="M28.2806 21.9626L28.1881 23.3963L26.9072 24.1477L28.3046 24.853L28.4438 26.403L29.7236 24.9705L31.1437 25.1111L30.4691 24.0543L30.7248 22.5261L29.3982 23.0666L28.2806 21.9626Z" fill="#FFB443"/>
<path d="M15.0606 29.7867H13.7568V34.0163H15.0606V29.7867Z" fill="#FFB443"/>
<path d="M16.8989 31.4713H15.5952V34.0163H16.8989V31.4713Z" fill="#FFB443"/>
<path d="M18.7378 30.5345H17.4341V34.0163H18.7378V30.5345Z" fill="#FFB443"/>
<path d="M49.6474 29.3177L48.9019 30.6799" stroke="white" stroke-width="2.18798" stroke-miterlimit="10" stroke-linecap="round"/>
<path d="M51.2069 30.5866L49.8335 31.5731" stroke="white" stroke-width="2.18798" stroke-miterlimit="10" stroke-linecap="round"/>
<path d="M52.231 32.3245L50.5083 32.7947" stroke="white" stroke-width="2.18798" stroke-miterlimit="10" stroke-linecap="round"/>
<path d="M43.5489 56.0876C43.2359 56.1594 42.9193 56.214 42.6005 56.2512H42.5945C41.9162 56.3276 41.0747 56.3276 40.7758 55.9264C40.7683 55.9183 40.7619 55.9094 40.7566 55.8997C40.7468 55.8869 40.7384 55.8731 40.7313 55.8585C40.7217 55.8416 40.7109 55.8246 40.7013 55.8052C40.6917 55.7858 40.6797 55.7616 40.6689 55.7386L40.6581 55.7167C40.3772 55.0744 40.4024 53.9607 40.3376 53.3353C40.2463 52.4458 40.1887 51.5502 40.0903 50.6607C39.8862 48.8585 39.478 47.0092 38.3868 45.5706C38.2295 45.3646 37.5681 44.6011 37.2031 44.2169L37.7157 44.4363C37.7157 44.4363 41.7493 46.1899 42.1215 47.8199C42.4936 49.45 43.5489 56.0876 43.5489 56.0876Z" fill="url(#paint10_linear_1532_22141)"/>
<path d="M54.937 38.8772C54.6549 40.4744 53.8071 41.9135 52.5516 42.9262C51.8637 43.4777 51.0366 43.9176 50.62 44.6981C50.3583 45.1828 50.2911 45.7536 50.2383 46.3087C50.2383 46.3087 50.3691 43.6582 51.3007 42.7808C52.2323 41.9034 54.662 39.2954 54.8457 38.1053C54.8973 38.3596 54.9278 38.6178 54.937 38.8772Z" fill="url(#paint11_linear_1532_22141)"/>
<defs>
<linearGradient id="paint0_linear_1532_22141" x1="25.5827" y1="33.9011" x2="29.6535" y2="33.9011" gradientUnits="userSpaceOnUse">
<stop stop-color="#ECC4D7"/>
<stop offset="0.42" stop-color="#EFD4D1"/>
<stop offset="1" stop-color="#F2EAC9"/>
</linearGradient>
<linearGradient id="paint1_linear_1532_22141" x1="38.7472" y1="73.5367" x2="46.9818" y2="52.1596" gradientUnits="userSpaceOnUse">
<stop offset="0.02" stop-color="white" stop-opacity="0"/>
<stop offset="0.58" stop-color="white" stop-opacity="0.39"/>
<stop offset="0.68" stop-color="white" stop-opacity="0.68"/>
<stop offset="1" stop-color="white"/>
</linearGradient>
<linearGradient id="paint2_linear_1532_22141" x1="45.6788" y1="31.7233" x2="44.3526" y2="71.7725" gradientUnits="userSpaceOnUse">
<stop offset="0.505208" stop-opacity="0"/>
<stop offset="0.99"/>
</linearGradient>
<linearGradient id="paint3_linear_1532_22141" x1="1030.71" y1="-1795.62" x2="1116.78" y2="-1769.6" gradientUnits="userSpaceOnUse">
<stop stop-color="#ECC4D7"/>
<stop offset="0.42" stop-color="#EFD4D1"/>
<stop offset="1" stop-color="#F2EAC9"/>
</linearGradient>
<linearGradient id="paint4_linear_1532_22141" x1="775.652" y1="642.924" x2="604.901" y2="726.436" gradientUnits="userSpaceOnUse">
<stop stop-color="#ECC4D7"/>
<stop offset="0.42" stop-color="#EFD4D1"/>
<stop offset="1" stop-color="#F2EAC9"/>
</linearGradient>
<linearGradient id="paint5_linear_1532_22141" x1="3320.83" y1="7104.65" x2="3534.34" y2="6997.54" gradientUnits="userSpaceOnUse">
<stop stop-color="#ECC4D7"/>
<stop offset="0.42" stop-color="#EFD4D1"/>
<stop offset="1" stop-color="#F2EAC9"/>
</linearGradient>
<linearGradient id="paint6_linear_1532_22141" x1="771.882" y1="503.574" x2="828.914" y2="503.574" gradientUnits="userSpaceOnUse">
<stop stop-color="#ECC4D7"/>
<stop offset="0.42" stop-color="#EFD4D1"/>
<stop offset="1" stop-color="#F2EAC9"/>
</linearGradient>
<linearGradient id="paint7_linear_1532_22141" x1="497.903" y1="761.949" x2="464.553" y2="771.448" gradientUnits="userSpaceOnUse">
<stop stop-opacity="0"/>
<stop offset="0.99"/>
</linearGradient>
<linearGradient id="paint8_linear_1532_22141" x1="3049.8" y1="796.091" x2="2048.15" y2="1206.41" gradientUnits="userSpaceOnUse">
<stop stop-opacity="0"/>
<stop offset="0.99"/>
</linearGradient>
<linearGradient id="paint9_linear_1532_22141" x1="1795.47" y1="776.487" x2="1633.4" y2="1222.38" gradientUnits="userSpaceOnUse">
<stop stop-opacity="0"/>
<stop offset="0.99"/>
</linearGradient>
<linearGradient id="paint10_linear_1532_22141" x1="1851.64" y1="4002.19" x2="-146.205" y2="4254.12" gradientUnits="userSpaceOnUse">
<stop stop-opacity="0"/>
<stop offset="0.99"/>
</linearGradient>
<linearGradient id="paint11_linear_1532_22141" x1="1639.61" y1="2130.88" x2="1598.6" y2="2848.18" gradientUnits="userSpaceOnUse">
<stop stop-opacity="0"/>
<stop offset="0.99"/>
</linearGradient>
</defs>
</svg>
