<svg width="53" height="78" viewBox="0 0 53 78" fill="none" xmlns="http://www.w3.org/2000/svg">
<path opacity="0.29" d="M25.9651 44.0883L22.1357 41.9956L18.2962 49.4688L22.1256 51.5616L25.9651 44.0883Z" fill="#981921"/>
<path d="M14.9867 32.5336C15.5829 41.0583 22.7829 47.4993 31.0685 46.9199C39.354 46.3406 45.5876 38.9602 44.9915 30.4354C44.3954 21.9107 37.1953 15.4697 28.9098 16.0491C20.6242 16.6285 14.3906 24.0088 14.9867 32.5336Z" fill="#FFB443"/>
<path d="M19.3831 32.2266C19.8045 38.2532 24.8946 42.8067 30.7521 42.3971C36.6097 41.9875 41.0165 36.7699 40.5951 30.7433C40.1737 24.7166 35.0836 20.1631 29.226 20.5727C23.3685 20.9823 18.9616 26.1999 19.3831 32.2266Z" fill="white"/>
<path d="M23.9251 46.1188L20.9711 44.5044C19.8828 43.9097 18.5352 44.3331 17.9613 45.4502L11.9518 57.1469C11.3779 58.264 11.7949 59.6518 12.8832 60.2466L15.8372 61.8609C16.9256 62.4557 18.2731 62.0322 18.847 60.9151L24.8565 49.2184C25.4304 48.1013 25.0134 46.7136 23.9251 46.1188Z" fill="#981921"/>
</svg>
