<svg width="53" height="91" viewBox="0 0 53 91" fill="none" xmlns="http://www.w3.org/2000/svg">
<g clip-path="url(#clip0_1532_22179)">
<path opacity="0.18" d="M12.1411 77.7636C11.1533 77.7636 10.0163 77.8318 9.42334 78.5861L13.2847 79.4616C13.5171 79.5133 13.7707 79.5789 13.9106 79.7644C14.147 80.0785 13.9252 80.5213 14.0202 80.8997C14.184 81.5481 15.0991 81.6364 15.7951 81.5847L21.9635 81.1205C23.5032 81.0044 25.1566 80.9136 26.4811 81.6705C27.1031 82.0262 27.6089 82.5536 28.2467 82.879C29.6148 83.5829 31.3184 83.2575 32.7446 82.6709C34.1708 82.0843 35.4953 81.2328 37.0047 80.8795C38.254 80.5869 39.568 80.6462 40.8252 80.3876C42.108 80.1215 43.2933 79.5331 44.2586 78.6833C44.182 78.7514 40.8687 77.9995 40.4607 77.9844C39.5059 77.9491 38.5498 78.0361 37.5937 78.0336C34.8113 78.026 32.0262 77.9264 29.2451 77.8873C23.5464 77.8049 17.845 77.7636 12.1411 77.7636Z" fill="#E52440"/>
<path d="M33.1233 26.3712C33.777 27.1698 34.4888 27.9195 35.253 28.6144C35.2755 28.6388 35.3051 28.6557 35.3376 28.6629C35.3738 28.6659 35.4097 28.6556 35.4386 28.6338L35.7121 28.4881C36.7856 28.516 37.856 28.3616 38.8773 28.0317C38.9713 27.991 39.0727 27.97 39.1753 27.97C39.2778 27.97 39.3792 27.991 39.4732 28.0317C39.562 28.0907 39.6302 28.1755 39.6686 28.2745C39.7159 28.403 39.7358 28.5399 39.7272 28.6764C39.7186 28.813 39.6816 28.9463 39.6186 29.0679C39.5555 29.1896 39.4679 29.2969 39.361 29.3832C39.2542 29.4695 39.1305 29.5328 38.9978 29.5692C39.1062 29.8051 39.1409 30.0678 39.0974 30.3235C39.0538 30.5792 38.9341 30.8159 38.7536 31.0032C38.4703 31.2783 38.073 31.411 37.7767 31.6505C37.044 32.2591 37.0375 33.3532 36.6467 34.2206C36.576 34.4058 36.4527 34.5666 36.2918 34.6835C35.901 34.9328 35.3865 34.6835 34.9892 34.4181C34.4002 34.0114 33.8418 33.5624 33.3187 33.0748C33.063 32.8635 32.8536 32.6024 32.7032 32.3076C32.6071 32.0532 32.55 31.7859 32.5339 31.5146L32.065 27.2452C32.0485 27.1608 32.0552 27.0735 32.0845 26.9927C32.1397 26.9089 32.2227 26.847 32.319 26.8179C32.6577 26.6916 32.7619 26.3421 33.1233 26.3712Z" fill="url(#paint0_linear_1532_22179)"/>
<path d="M35.5036 27.9217C35.3769 28.161 35.2355 28.3924 35.0802 28.6144C34.9448 28.7725 34.8258 28.9438 34.7253 29.1258C34.6148 29.4135 34.5703 29.722 34.595 30.0289C34.5796 30.1562 34.5922 30.2852 34.6322 30.4071C34.6721 30.529 34.7383 30.6408 34.8262 30.7346C34.9397 30.8099 35.0711 30.8545 35.2072 30.864C35.763 30.9482 36.3285 30.9482 36.8843 30.864C37.1262 30.8373 37.3595 30.7589 37.5681 30.6342C37.7793 30.4755 37.9536 30.2735 38.0793 30.0419C39.0593 28.5187 39.9298 26.9287 40.6844 25.2836C40.7068 25.2401 40.7212 25.193 40.7268 25.1445C40.7236 25.0825 40.7042 25.0224 40.6705 24.9702C40.6368 24.9179 40.59 24.8754 40.5346 24.8467C40.2817 24.6998 39.9969 24.6154 39.7043 24.6007C39.1642 24.5352 38.6199 24.5114 38.0761 24.5294C37.8961 24.5266 37.7172 24.5573 37.5486 24.6201C37.2718 24.7431 35.865 27.2743 35.5036 27.9217Z" fill="#E52440"/>
<path d="M35.5036 27.9217C35.3769 28.161 35.2355 28.3924 35.0802 28.6144C34.9448 28.7725 34.8258 28.9438 34.7253 29.1258C34.6148 29.4135 34.5703 29.722 34.595 30.0289C34.5796 30.1562 34.5922 30.2852 34.6322 30.4071C34.6721 30.529 34.7383 30.6408 34.8262 30.7346C34.9397 30.8099 35.0711 30.8545 35.2072 30.864C35.763 30.9482 36.3285 30.9482 36.8843 30.864C37.1262 30.8373 37.3595 30.7589 37.5681 30.6342C37.7793 30.4755 37.9536 30.2735 38.0793 30.0419C39.0593 28.5187 39.9298 26.9287 40.6844 25.2836C40.7068 25.2401 40.7212 25.193 40.7268 25.1445C40.7236 25.0825 40.7042 25.0224 40.6705 24.9702C40.6368 24.9179 40.59 24.8754 40.5346 24.8467C40.2817 24.6998 39.9969 24.6154 39.7043 24.6007C39.1642 24.5352 38.6199 24.5114 38.0761 24.5294C37.8961 24.5266 37.7172 24.5573 37.5486 24.6201C37.2718 24.7431 35.865 27.2743 35.5036 27.9217Z" fill="url(#paint1_linear_1532_22179)"/>
<path d="M35.9237 28.2259C35.8001 28.4663 35.6597 28.6978 35.5036 28.9186C35.3681 29.0778 35.2492 29.2503 35.1487 29.4333C35.0376 29.7242 34.9942 30.0362 35.0217 30.3461C35.0055 30.4734 35.0179 30.6027 35.0579 30.7246C35.0978 30.8466 35.1644 30.9583 35.2529 31.0518C35.3668 31.1262 35.4979 31.1707 35.6339 31.1812C36.1887 31.2638 36.7528 31.2638 37.3077 31.1812C37.5507 31.155 37.7852 31.0766 37.9948 30.9514C38.2032 30.7882 38.3761 30.5844 38.5027 30.3526C39.4827 28.8295 40.3533 27.2394 41.1078 25.5944C41.1307 25.5508 41.1462 25.5038 41.1534 25.4552C41.1503 25.3932 41.1309 25.3331 41.0972 25.2809C41.0635 25.2287 41.0166 25.1861 40.9613 25.1574C40.7078 25.0113 40.4234 24.9259 40.1309 24.9081C39.5908 24.8439 39.0464 24.8212 38.5027 24.8402C38.3226 24.836 38.1435 24.8668 37.9752 24.9308C37.6952 25.0506 36.2852 27.5786 35.9237 28.2259Z" fill="#E52440"/>
<path d="M40.3461 57.1022C35.7202 62.5542 30.7991 67.7517 25.6045 72.6716C25.5156 72.7815 25.4038 72.8709 25.2767 72.9335C25.1496 72.9961 25.0103 73.0304 24.8685 73.0341C24.7059 72.9949 24.5572 72.912 24.4387 72.7946C23.3074 71.8432 22.37 70.6851 21.6773 69.3829C21.6438 69.3395 21.6198 69.2897 21.6067 69.2366C21.5936 69.1835 21.5917 69.1283 21.6012 69.0744C21.6107 69.0206 21.6313 68.9692 21.6618 68.9237C21.6923 68.8782 21.7319 68.8395 21.7782 68.81C25.6577 64.7509 29.4665 60.6174 33.2048 56.4095C33.3419 56.2803 33.4419 56.1172 33.4947 55.9369C33.5095 55.6585 33.4163 55.385 33.2342 55.173C31.2667 52.2033 29.6207 49.0351 28.3235 45.7213C28.2293 45.5354 28.1952 45.3251 28.2259 45.1192C28.2829 44.9531 28.3842 44.8054 28.5189 44.692C29.7042 43.5299 33.3384 40.8466 34.706 42.8696C35.5494 44.1223 36.0411 45.7828 36.6208 47.1682C37.259 48.6787 37.869 50.2087 38.4509 51.7581C39.1195 53.5254 39.7512 55.3068 40.3461 57.1022Z" fill="#3E3E54"/>
<path d="M40.3461 57.1022C35.7202 62.5542 30.7991 67.7517 25.6045 72.6716C25.5156 72.7815 25.4038 72.8709 25.2767 72.9335C25.1496 72.9961 25.0103 73.0304 24.8685 73.0341C24.7059 72.9949 24.5572 72.912 24.4387 72.7946C23.3074 71.8432 22.37 70.6851 21.6773 69.3829C21.6438 69.3395 21.6198 69.2897 21.6067 69.2366C21.5936 69.1835 21.5917 69.1283 21.6012 69.0744C21.6107 69.0206 21.6313 68.9692 21.6618 68.9237C21.6923 68.8782 21.7319 68.8395 21.7782 68.81C25.6577 64.7509 29.4665 60.6174 33.2048 56.4095C33.3419 56.2803 33.4419 56.1172 33.4947 55.9369C33.5095 55.6585 33.4163 55.385 33.2342 55.173C31.2667 52.2033 29.6207 49.0351 28.3235 45.7213C28.2293 45.5354 28.1952 45.3251 28.2259 45.1192C28.2829 44.9531 28.3842 44.8054 28.5189 44.692C29.7042 43.5299 33.3384 40.8466 34.706 42.8696C35.5494 44.1223 36.0411 45.7828 36.6208 47.1682C37.259 48.6787 37.869 50.2087 38.4509 51.7581C39.1195 53.5254 39.7512 55.3068 40.3461 57.1022Z" fill="url(#paint2_linear_1532_22179)"/>
<path d="M23.3967 49.5894C23.8688 53.1143 25.5459 56.3868 26.0213 59.915C26.1809 61.0803 26.2037 62.2618 26.399 63.4206C26.6661 65.039 27.2555 66.5636 27.5551 68.1626C28.0207 70.6324 27.796 73.2057 28.4245 75.6398C28.4589 75.8852 28.5733 76.1126 28.7501 76.2872C28.9849 76.437 29.2642 76.5021 29.5414 76.4717L32.3354 76.4879C32.5957 71.0097 32.3843 65.5193 31.7037 60.0769C31.5669 58.9796 31.4106 57.879 31.339 56.7753C31.0687 52.5673 32.0554 48.2914 31.3878 44.1158C28.8912 44.337 26.3827 44.3932 23.8786 44.2841C23.3218 44.2582 22.8594 44.0608 22.7194 44.5722C22.6249 44.8959 23.0124 45.867 23.0645 46.2457C23.2208 47.3495 23.2469 48.4791 23.3967 49.5894Z" fill="#3E3E54"/>
<path d="M34.9729 43.0833C34.8394 43.2845 34.6583 43.4501 34.4454 43.5655C33.3187 44.2841 32.1659 45.0189 30.8341 45.2196C30.2479 45.307 29.6455 45.2876 29.0593 45.3847C28.3657 45.5012 27.7112 45.786 27.0241 45.9511C25.9809 46.1987 24.8906 46.1697 23.8622 45.867C23.4643 45.756 23.0799 45.6019 22.7159 45.4073C22.5258 45.308 22.3449 45.1921 22.1754 45.061C21.9166 44.8693 21.7142 44.6122 21.5892 44.3165C21.4713 43.942 21.4391 43.5461 21.4948 43.1577C21.7292 39.8464 22.2144 36.3602 20.8435 33.337L20.342 33.4179C20.3182 33.4195 20.2943 33.4195 20.2704 33.4179H20.2183L19.9871 33.4535C19.3265 31.2861 18.9146 29.0514 18.7594 26.792C18.6715 25.4455 18.6878 24.0212 19.3619 22.8495C19.9481 21.9283 20.8021 21.2059 21.8107 20.7779C22.361 20.5324 22.9447 20.3688 23.543 20.2924C24.6921 20.1839 25.849 20.1839 26.9981 20.2924L29.3068 20.438C29.573 20.439 29.8368 20.4884 30.0851 20.5837C30.2925 20.6896 30.4764 20.836 30.6256 21.0142C31.824 22.3284 32.1789 24.2511 33.3219 25.5847C33.3968 25.6753 33.475 25.7627 33.5596 25.8468C33.5792 25.8663 33.602 25.8857 33.6183 25.9051C33.6597 25.9382 33.6923 25.9809 33.7133 26.0294C33.7343 26.0779 33.743 26.1308 33.7387 26.1835C33.7411 26.1931 33.7411 26.203 33.7387 26.2126C33.7095 26.2864 33.6626 26.352 33.602 26.4036C33.2307 26.7661 32.8595 27.1254 32.4948 27.4879C32.5176 27.7534 32.5274 28.0285 32.5339 28.3101C32.5665 29.3653 32.5339 30.5047 32.7325 31.4855C33.4837 35.0137 34.2348 38.5441 34.9859 42.0766C35.1033 42.4028 35.0986 42.7601 34.9729 43.0833Z" fill="#E52440"/>
<path d="M32.4589 35.1788C31.8683 35.9999 31.0861 36.6663 30.1794 37.1209C29.1309 37.6356 27.9651 37.846 26.8286 38.1179C26.1383 38.2829 25.3893 38.516 24.9953 39.1084C24.7395 39.6021 24.6268 40.1568 24.6696 40.7106C24.6469 42.0054 24.6176 43.3001 24.5948 44.6143C24.5948 45.0124 24.5557 45.4656 24.2431 45.7213C24.1391 45.804 24.0159 45.8596 23.8849 45.8831C23.6789 45.9152 23.4683 45.8997 23.2694 45.8378C22.8429 45.6983 22.4692 45.433 22.1981 45.0772C21.9056 44.6951 21.7031 44.2526 21.6054 43.7824C21.5597 43.5746 21.5303 43.3636 21.5175 43.1512C21.7519 39.8399 22.2371 36.3538 20.8662 33.3305C22.5823 30.8511 23.3736 32.2526 25.2981 33.5021C25.7237 33.7691 26.1753 33.9925 26.6463 34.1689C27.4697 34.5392 28.3675 34.7175 29.2709 34.69C30.2999 34.6058 31.2247 34.0912 32.1723 33.6672C33.5823 33.0198 32.879 34.6026 32.4589 35.1788Z" fill="url(#paint3_linear_1532_22179)"/>
<path d="M23.9794 18.6998C23.8818 19.1821 23.6538 20.2859 23.6538 20.2859C23.7917 20.548 23.9945 20.7708 24.2432 20.9333C24.6696 21.2355 25.1636 21.4299 25.6825 21.4997C26.0863 21.5547 26.5683 21.4997 26.7734 21.1437C26.8501 20.9902 26.8944 20.8228 26.9037 20.6516L27.1251 18.7451C27.1463 18.5796 27.1463 18.4121 27.1251 18.2466C27.0896 18.0765 27.0234 17.9142 26.9297 17.7676C26.5357 17.1202 24.9108 14.275 24.5591 15.0486C24.2074 15.8222 24.113 18.0524 23.9794 18.6998Z" fill="url(#paint4_linear_1532_22179)"/>
<path d="M31.0131 16.3013C30.8465 17.1742 30.4344 17.9823 29.8245 18.6318C29.1732 19.2468 28.1963 19.5705 27.379 19.2501C26.8149 18.9794 26.3321 18.5665 25.9787 18.0524C25.6083 17.6231 25.2923 17.1502 25.0377 16.6444C24.6871 16.4328 24.3672 16.1747 24.0868 15.8772C23.9095 15.7191 23.767 15.5261 23.6683 15.3105C23.5697 15.0949 23.517 14.8614 23.5137 14.6246C23.5527 14.1552 24.0542 13.7182 24.4906 13.8995C24.9204 13.2877 24.9953 12.4947 25.3372 11.8279C25.5859 11.3699 25.9441 10.9798 26.3802 10.6919C26.8163 10.404 27.317 10.2272 27.8381 10.1771C28.3605 10.1382 28.8854 10.2042 29.3815 10.371C29.8777 10.5378 30.3351 10.8021 30.7265 11.1481C31.0071 11.3554 31.2201 11.6402 31.3387 11.9671C31.5048 12.553 31.4039 13.3492 31.3387 13.9513C31.2889 14.7416 31.1801 15.527 31.0131 16.3013Z" fill="url(#paint5_linear_1532_22179)"/>
<path d="M32.0425 9.57181C30.9711 9.68186 30.004 8.98593 29.1117 8.37092C28.2195 7.75591 27.1416 7.16356 26.1191 7.50667C25.8392 7.60226 25.5851 7.76064 25.3767 7.96955C25.2409 8.13571 25.078 8.27797 24.8947 8.39034C24.7575 8.44345 24.6158 8.48461 24.4714 8.51334C23.6215 8.76582 23.3024 9.8081 23.2307 10.6756C23.1868 11.2347 23.1868 11.7964 23.2307 12.3555C23.2796 12.9641 23.4326 13.6503 23.9634 13.9578C24.2532 14.1229 24.644 14.1649 24.8231 14.4466C24.898 14.5631 24.9566 14.7346 25.0966 14.7411C25.1309 14.7406 25.1648 14.7331 25.1961 14.7192C25.2275 14.7053 25.2557 14.6852 25.279 14.6602C25.826 14.1844 25.5493 13.3007 25.6828 12.5886C25.6953 12.5077 25.7253 12.4304 25.7707 12.362C25.8602 12.2656 25.972 12.1923 26.0963 12.1484C26.5164 11.9282 26.8399 11.5617 27.0048 11.119C27.5736 11.7438 28.2981 12.2083 29.1052 12.4656C29.3743 12.5313 29.6306 12.6406 29.8639 12.7893C30.0504 12.9595 30.2224 13.1446 30.3784 13.3428C31.0883 14.0678 32.3941 13.9643 33.1301 13.2651C33.4774 12.8933 33.7233 12.4393 33.8441 11.9464C33.965 11.4534 33.9568 10.9379 33.8204 10.449C33.6801 10.527 33.522 10.5679 33.3613 10.5679C33.2005 10.5679 33.0424 10.527 32.9021 10.449C32.9868 10.4976 33.7325 9.34846 33.5534 9.15425C33.3743 8.96004 32.316 9.54268 32.0425 9.57181Z" fill="#3E3E54"/>
<path d="M32.0425 9.57181C30.9711 9.68186 30.004 8.98593 29.1117 8.37092C28.2195 7.75591 27.1416 7.16356 26.1191 7.50667C25.8392 7.60226 25.5851 7.76064 25.3767 7.96955C25.2409 8.13571 25.078 8.27797 24.8947 8.39034C24.7575 8.44345 24.6158 8.48461 24.4714 8.51334C23.6215 8.76582 23.3024 9.8081 23.2307 10.6756C23.1868 11.2347 23.1868 11.7964 23.2307 12.3555C23.2796 12.9641 23.4326 13.6503 23.9634 13.9578C24.2532 14.1229 24.644 14.1649 24.8231 14.4466C24.898 14.5631 24.9566 14.7346 25.0966 14.7411C25.1309 14.7406 25.1648 14.7331 25.1961 14.7192C25.2275 14.7053 25.2557 14.6852 25.279 14.6602C25.826 14.1844 25.5493 13.3007 25.6828 12.5886C25.6953 12.5077 25.7253 12.4304 25.7707 12.362C25.8602 12.2656 25.972 12.1923 26.0963 12.1484C26.5164 11.9282 26.8399 11.5617 27.0048 11.119C27.5736 11.7438 28.2981 12.2083 29.1052 12.4656C29.3743 12.5313 29.6306 12.6406 29.8639 12.7893C30.0504 12.9595 30.2224 13.1446 30.3784 13.3428C31.0883 14.0678 32.3941 13.9643 33.1301 13.2651C33.4774 12.8933 33.7233 12.4393 33.8441 11.9464C33.965 11.4534 33.9568 10.9379 33.8204 10.449C33.6801 10.527 33.522 10.5679 33.3613 10.5679C33.2005 10.5679 33.0424 10.527 32.9021 10.449C32.9868 10.4976 33.7325 9.34846 33.5534 9.15425C33.3743 8.96004 32.316 9.54268 32.0425 9.57181Z" fill="url(#paint6_linear_1532_22179)"/>
<path d="M23.81 29.8832C24.7982 30.8795 25.8431 31.8186 26.9394 32.6961C27.0393 32.7859 27.1568 32.8542 27.2846 32.8967C27.4596 32.9233 27.6386 32.902 27.8024 32.8352C28.1768 32.7155 28.5481 32.5925 28.9193 32.4662C29.9725 32.1428 30.9992 31.7391 31.99 31.2589C32.967 30.7507 33.7843 29.1064 34.7156 29.1258C34.7352 29.3135 34.5789 29.5692 34.5984 29.757C34.5984 29.818 34.619 29.8773 34.657 29.9253C34.6933 29.9551 34.7373 29.9742 34.784 29.9803C35.4353 30.113 36.0638 29.7149 36.6792 29.4559C36.774 29.4057 36.8816 29.3843 36.9886 29.3944C37.2491 29.443 37.3142 29.8152 37.1774 30.0418C37.0141 30.249 36.8284 30.4379 36.6239 30.605C36.1419 31.1229 36.1615 31.9257 35.826 32.5472C35.6845 32.8086 35.4826 33.0329 35.2369 33.2017C34.9913 33.3705 34.7088 33.479 34.4128 33.5182C34.2446 33.5277 34.0771 33.5472 33.9113 33.5765C33.6373 33.6682 33.384 33.8123 33.1656 34.0005C31.9108 34.8594 30.5682 35.5842 29.1603 36.1628C28.604 36.4438 28.0173 36.661 27.4116 36.8101C26.9402 36.8713 26.4728 36.9588 26.0114 37.0723C25.5945 37.2083 25.1973 37.4543 24.7576 37.4284C24.1292 37.3863 23.6928 36.8069 23.3444 36.2825C22.6931 35.2856 21.8399 34.13 21.6283 32.9259C21.5273 32.3562 22.0581 31.9548 22.4098 31.5534L23.81 29.8832Z" fill="url(#paint7_linear_1532_22179)"/>
<path d="M29.0853 79.1664C29.0805 79.2953 29.1145 79.4226 29.183 79.5322C29.2422 79.5983 29.3172 79.6484 29.4012 79.6778C29.7212 79.7898 30.0583 79.8456 30.3976 79.8429C32.6228 79.9465 34.848 79.9638 37.0732 79.8947C36.287 78.9952 35.2128 78.3928 34.0317 78.1889C33.4814 78.095 32.9148 78.0885 32.371 77.9526C32.3198 77.9425 32.2717 77.9203 32.2309 77.8879C32.1948 77.8387 32.1734 77.7803 32.1691 77.7195L32.0323 76.852C32.0335 76.8053 32.0186 76.7596 31.99 76.7226C31.9464 76.6893 31.8915 76.6742 31.8369 76.6805L30.3097 76.6546C30.0101 76.6546 29.5868 76.5769 29.3328 76.7647C29.0788 76.9524 29.0983 77.3797 29.0853 77.6775C29.0679 78.1781 29.0679 78.6744 29.0853 79.1664Z" fill="#3E3E54"/>
<path d="M19.7554 71.3477C19.6486 71.4305 19.5692 71.5433 19.5275 71.6714C19.5101 71.7974 19.5305 71.9258 19.5861 72.0404C20.1625 73.5488 21.3022 74.7626 22.4192 75.9247C23.3179 76.8698 24.2362 77.8312 25.3857 78.4527C25.9328 76.8536 25.3564 75.028 24.272 73.7268C24.1321 73.5934 24.0424 73.4163 24.018 73.2251C24.0559 73.0505 24.1172 72.8817 24.2004 72.7234C24.2245 72.5475 24.2077 72.3685 24.1513 72.2002C24.0948 72.0318 24.0002 71.8786 23.8748 71.7523C23.3615 71.023 22.7194 70.3924 21.9796 69.8911C21.4455 69.5674 21.3283 69.8166 20.9115 70.2148L19.7554 71.3477Z" fill="#3E3E54"/>
<path d="M38.2239 5.82477V4.80789H39.2408V5.82477H38.2239ZM38.2239 17.8248V16.8079H39.2408V17.8248H38.2239ZM38.2239 29.8248V28.8079H39.2408V29.8248H38.2239Z" fill="#E52440"/>
</g>
<defs>
<linearGradient id="paint0_linear_1532_22179" x1="32.065" y1="30.5824" x2="39.737" y2="30.5824" gradientUnits="userSpaceOnUse">
<stop stop-color="#E5C5D5"/>
<stop offset="0.42" stop-color="#EAD4D1"/>
<stop offset="1" stop-color="#F0E9CB"/>
</linearGradient>
<linearGradient id="paint1_linear_1532_22179" x1="38.177" y1="27.9055" x2="33.4879" y2="26.7303" gradientUnits="userSpaceOnUse">
<stop stop-opacity="0"/>
<stop offset="0.99"/>
</linearGradient>
<linearGradient id="paint2_linear_1532_22179" x1="5864.92" y1="6767.59" x2="7760.38" y2="8028.71" gradientUnits="userSpaceOnUse">
<stop stop-opacity="0"/>
<stop offset="0.99"/>
</linearGradient>
<linearGradient id="paint3_linear_1532_22179" x1="4381.36" y1="2587.64" x2="3393.89" y2="3003.48" gradientUnits="userSpaceOnUse">
<stop stop-opacity="0"/>
<stop offset="0.99"/>
</linearGradient>
<linearGradient id="paint4_linear_1532_22179" x1="1172.29" y1="903.043" x2="1209.7" y2="903.043" gradientUnits="userSpaceOnUse">
<stop stop-color="#E5C5D5"/>
<stop offset="0.42" stop-color="#EAD4D1"/>
<stop offset="1" stop-color="#F0E9CB"/>
</linearGradient>
<linearGradient id="paint5_linear_1532_22179" x1="2734.51" y1="1007.09" x2="2707.94" y2="1221.18" gradientUnits="userSpaceOnUse">
<stop stop-color="#E5C5D5"/>
<stop offset="0.42" stop-color="#EAD4D1"/>
<stop offset="1" stop-color="#F0E9CB"/>
</linearGradient>
<linearGradient id="paint6_linear_1532_22179" x1="3672.28" y1="762.729" x2="3705.78" y2="878.536" gradientUnits="userSpaceOnUse">
<stop stop-opacity="0"/>
<stop offset="0.99"/>
</linearGradient>
<linearGradient id="paint7_linear_1532_22179" x1="5073.23" y1="1532.35" x2="5823.54" y2="1532.35" gradientUnits="userSpaceOnUse">
<stop stop-color="#E5C5D5"/>
<stop offset="0.42" stop-color="#EAD4D1"/>
<stop offset="1" stop-color="#F0E9CB"/>
</linearGradient>
<clipPath id="clip0_1532_22179">
<rect width="47" height="91" fill="white" transform="translate(5)"/>
</clipPath>
</defs>
</svg>
