<svg width="223" height="258" viewBox="0 0 223 258" fill="none" xmlns="http://www.w3.org/2000/svg">
<g filter="url(#filter0_d_1532_22327)">
<g filter="url(#filter1_d_1532_22327)">
<rect x="20.2041" y="20" width="182" height="218" rx="5" fill="white"/>
</g>
</g>
<g filter="url(#filter2_d_1532_22327)">
<rect x="56.2041" y="39" width="109" height="68" rx="15.5249" fill="#FF0000"/>
</g>
<path d="M130.454 72.8797C130.454 72.7852 130.454 72.6777 130.45 72.5531C130.446 72.2051 130.437 71.8141 130.428 71.3973C130.394 70.1984 130.334 69.0039 130.239 67.8781C130.11 66.3269 129.921 65.0336 129.663 64.0625C129.391 63.0491 128.858 62.1248 128.117 61.3821C127.376 60.6393 126.453 60.1042 125.44 59.8301C124.224 59.5035 121.843 59.3015 118.492 59.1769C116.897 59.1168 115.192 59.0781 113.486 59.0566C112.888 59.048 112.334 59.0437 111.836 59.0394H110.572C110.074 59.0437 109.52 59.048 108.922 59.0566C107.217 59.0781 105.511 59.1168 103.917 59.1769C100.565 59.3058 98.1803 59.5078 96.9686 59.8301C95.9554 60.1035 95.0318 60.6385 94.2905 61.3813C93.5492 62.1241 93.0161 63.0487 92.7447 64.0625C92.4826 65.0336 92.2979 66.3269 92.1689 67.8781C92.0744 69.0039 92.0143 70.1984 91.9799 71.3973C91.967 71.8141 91.9627 72.2051 91.9584 72.5531C91.9584 72.6777 91.9541 72.7852 91.9541 72.8797V73.1203C91.9541 73.2148 91.9541 73.3223 91.9584 73.4469C91.9627 73.7949 91.9713 74.1859 91.9799 74.6027C92.0143 75.8016 92.0744 76.9961 92.1689 78.1219C92.2979 79.6731 92.4869 80.9664 92.7447 81.9375C93.2947 83.9957 94.9104 85.6199 96.9686 86.17C98.1803 86.4965 100.565 86.6985 103.917 86.8231C105.511 86.8832 107.217 86.9219 108.922 86.9434C109.52 86.952 110.074 86.9563 110.572 86.9606H111.836C112.334 86.9563 112.888 86.952 113.486 86.9434C115.192 86.9219 116.897 86.8832 118.492 86.8231C121.843 86.6942 124.228 86.4922 125.44 86.17C127.498 85.6199 129.113 84 129.663 81.9375C129.926 80.9664 130.11 79.6731 130.239 78.1219C130.334 76.9961 130.394 75.8016 130.428 74.6027C130.441 74.1859 130.446 73.7949 130.45 73.4469C130.45 73.3223 130.454 73.2148 130.454 73.1203V72.8797ZM127.36 73.1031C127.36 73.1934 127.36 73.2922 127.356 73.4082C127.352 73.7434 127.343 74.1129 127.335 74.5125C127.304 75.6555 127.244 76.7984 127.154 77.8598C127.038 79.2434 126.875 80.3778 126.673 81.1383C126.406 82.1309 125.624 82.9172 124.636 83.1793C123.734 83.4199 121.461 83.6133 118.371 83.7293C116.807 83.7895 115.123 83.8281 113.443 83.8496C112.854 83.8582 112.308 83.8625 111.819 83.8625H110.59L108.965 83.8496C107.285 83.8281 105.605 83.7895 104.037 83.7293C100.947 83.609 98.6701 83.4199 97.7721 83.1793C96.7838 82.9129 96.0018 82.1309 95.7354 81.1383C95.5334 80.3778 95.3701 79.2434 95.2541 77.8598C95.1639 76.7984 95.108 75.6555 95.0736 74.5125C95.0607 74.1129 95.0564 73.7391 95.0521 73.4082C95.0521 73.2922 95.0479 73.1891 95.0479 73.1031V72.8969C95.0479 72.8066 95.0479 72.7078 95.0521 72.5918C95.0564 72.2566 95.065 71.8871 95.0736 71.4875C95.1037 70.3445 95.1639 69.2016 95.2541 68.1402C95.3701 66.7566 95.5334 65.6223 95.7354 64.8617C96.0018 63.8691 96.7838 63.0828 97.7721 62.8207C98.6744 62.5801 100.947 62.3867 104.037 62.2707C105.601 62.2105 107.285 62.1719 108.965 62.1504C109.554 62.1418 110.1 62.1375 110.59 62.1375H111.819L113.443 62.1504C115.123 62.1719 116.803 62.2105 118.371 62.2707C121.461 62.391 123.738 62.5801 124.636 62.8207C125.624 63.0871 126.406 63.8691 126.673 64.8617C126.875 65.6223 127.038 66.7566 127.154 68.1402C127.244 69.2016 127.3 70.3445 127.335 71.4875C127.347 71.8871 127.352 72.2609 127.356 72.5918C127.356 72.7078 127.36 72.8109 127.36 72.8969V73.1031ZM107.38 78.7578L117.349 72.957L107.38 67.2422V78.7578Z" fill="white"/>
<rect opacity="0.76" x="36.2041" y="129" width="69.2294" height="55.5183" rx="6" fill="#E52440"/>
<rect opacity="0.76" x="116.204" y="129" width="105" height="56" rx="6" fill="#E52440"/>
<rect x="36.2041" y="196" width="64" height="9" rx="4.5" fill="#FFB443"/>
<rect x="36.2041" y="212.801" width="54.0028" height="6" rx="3" fill="#BEBFCC"/>
<rect x="36.2041" y="223.801" width="65.1452" height="6" rx="3" fill="#BEBFCC"/>
<rect x="118.204" y="196" width="64" height="9" rx="4.5" fill="#FFB443"/>
<rect x="118.204" y="212.801" width="54.0028" height="6" rx="3" fill="#BEBFCC"/>
<rect x="118.204" y="223.801" width="65.1452" height="6" rx="3" fill="#BEBFCC"/>
<defs>
<filter id="filter0_d_1532_22327" x="0.204102" y="0" width="222" height="258" filterUnits="userSpaceOnUse" color-interpolation-filters="sRGB">
<feFlood flood-opacity="0" result="BackgroundImageFix"/>
<feColorMatrix in="SourceAlpha" type="matrix" values="0 0 0 0 0 0 0 0 0 0 0 0 0 0 0 0 0 0 127 0" result="hardAlpha"/>
<feOffset/>
<feGaussianBlur stdDeviation="10"/>
<feComposite in2="hardAlpha" operator="out"/>
<feColorMatrix type="matrix" values="0 0 0 0 0.596078 0 0 0 0 0.0980392 0 0 0 0 0.129412 0 0 0 0.05 0"/>
<feBlend mode="normal" in2="BackgroundImageFix" result="effect1_dropShadow_1532_22327"/>
<feBlend mode="normal" in="SourceGraphic" in2="effect1_dropShadow_1532_22327" result="shape"/>
</filter>
<filter id="filter1_d_1532_22327" x="4.2041" y="8" width="214" height="250" filterUnits="userSpaceOnUse" color-interpolation-filters="sRGB">
<feFlood flood-opacity="0" result="BackgroundImageFix"/>
<feColorMatrix in="SourceAlpha" type="matrix" values="0 0 0 0 0 0 0 0 0 0 0 0 0 0 0 0 0 0 127 0" result="hardAlpha"/>
<feOffset dy="4"/>
<feGaussianBlur stdDeviation="8"/>
<feColorMatrix type="matrix" values="0 0 0 0 0.121042 0 0 0 0 0.143938 0 0 0 0 0.35 0 0 0 0.11 0"/>
<feBlend mode="normal" in2="BackgroundImageFix" result="effect1_dropShadow_1532_22327"/>
<feBlend mode="normal" in="SourceGraphic" in2="effect1_dropShadow_1532_22327" result="shape"/>
</filter>
<filter id="filter2_d_1532_22327" x="40.2041" y="29" width="141" height="100" filterUnits="userSpaceOnUse" color-interpolation-filters="sRGB">
<feFlood flood-opacity="0" result="BackgroundImageFix"/>
<feColorMatrix in="SourceAlpha" type="matrix" values="0 0 0 0 0 0 0 0 0 0 0 0 0 0 0 0 0 0 127 0" result="hardAlpha"/>
<feOffset dy="6"/>
<feGaussianBlur stdDeviation="8"/>
<feColorMatrix type="matrix" values="0 0 0 0 1 0 0 0 0 0 0 0 0 0 0 0 0 0 0.15 0"/>
<feBlend mode="normal" in2="BackgroundImageFix" result="effect1_dropShadow_1532_22327"/>
<feBlend mode="normal" in="SourceGraphic" in2="effect1_dropShadow_1532_22327" result="shape"/>
</filter>
</defs>
</svg>
