<svg width="539" height="547" viewBox="0 0 539 547" fill="none" xmlns="http://www.w3.org/2000/svg">
<path d="M358.271 131.519C358.27 142.415 354.919 153.041 348.68 161.931C342.441 170.821 333.623 177.536 323.443 181.147C313.263 184.759 302.223 185.089 291.849 182.093C281.475 179.096 272.278 172.921 265.529 164.42H247.172L257.29 149.716C256.26 146.935 255.478 144.066 254.95 141.145L254.079 131.003C254.147 117.051 259.7 103.698 269.518 93.8802C274.379 89.0191 280.141 85.1725 286.475 82.5601C292.808 79.9476 299.589 78.6204 306.43 78.6542C313.272 78.688 320.039 80.0822 326.347 82.7572C332.655 85.4322 338.379 89.3356 343.193 94.2446C348.007 99.1535 351.816 104.972 354.403 111.367C356.99 117.763 358.305 124.61 358.271 131.519Z" fill="#FFB443"/>
<path d="M151.947 464.327C151.866 467.677 152.519 471.004 153.859 474.077C155.51 476.938 157.99 479.233 160.974 480.659C167.364 483.977 174.79 484.708 181.707 482.701C182.649 482.511 183.495 481.998 184.098 481.251C184.466 480.631 184.615 479.905 184.519 479.19C184.366 475.374 181.803 472.15 179.087 469.479C176.371 466.807 173.349 464.327 171.628 460.912C168.453 454.501 170.805 437.463 158.698 440.21C148.504 442.481 151.679 457.229 151.947 464.327Z" fill="#FBB9AD"/>
<path d="M150.262 475.889C150.262 475.889 148.541 480.106 150.664 482.567C152.787 485.029 174.533 498.518 189.184 487.662C203.835 476.805 169.274 475.393 169.274 475.393L150.262 475.889Z" fill="#FFB443"/>
<path d="M151.122 466.082C151.777 465.772 152.52 465.703 153.221 465.888C153.921 466.073 154.533 466.501 154.948 467.094C156.379 468.711 158.198 469.941 160.235 470.668C162.272 471.396 164.46 471.597 166.595 471.253C171.358 470.108 173.251 464.632 175.604 464.613C177.957 464.594 190.618 475.317 191.364 479.877C192.11 484.437 185.626 487.872 178.492 488.31C171.358 488.749 155.235 483.941 152.155 480.125C149.076 476.309 149.458 468.429 151.122 466.082Z" fill="white"/>
<path d="M110.458 470.89C110.347 474.233 110.967 477.56 112.275 480.64C113.921 483.5 116.403 485.79 119.39 487.204C125.777 490.531 133.207 491.262 140.123 489.245C141.066 489.07 141.915 488.562 142.514 487.814C142.86 487.185 143.013 486.469 142.954 485.754C142.801 481.938 140.219 478.694 137.503 476.023C134.787 473.352 131.765 470.89 130.043 467.532C126.869 461.103 129.221 444.064 117.133 446.793C107.035 449.082 110.171 463.812 110.458 470.89Z" fill="#FBB9AD"/>
<path d="M108.777 482.491C108.777 482.491 107.075 486.708 109.179 489.169C111.283 491.63 133.029 505.12 147.642 494.263C162.254 483.407 127.789 482.033 127.789 482.033L108.777 482.491Z" fill="#FFB443"/>
<path d="M109.64 472.684C110.306 472.355 111.069 472.277 111.789 472.462C112.509 472.648 113.138 473.085 113.561 473.695C114.978 475.326 116.793 476.565 118.829 477.294C120.866 478.022 123.056 478.215 125.19 477.855C129.933 476.71 131.865 471.234 134.198 471.215C136.531 471.196 149.212 481.919 149.901 486.479C150.589 491.039 144.163 494.492 137.029 494.95C129.895 495.408 113.714 490.447 110.634 486.708C107.555 482.968 107.995 475.05 109.64 472.684Z" fill="white"/>
<path d="M101.798 292.799C101.798 292.799 99.5605 416.818 108.76 458.107L132.113 460.969L148.275 291.235L101.798 292.799Z" fill="#473F47"/>
<path d="M173.981 279.253C173.981 279.253 184.959 346.127 171.628 453.509L148.275 456.39L132.113 286.579L173.981 279.253Z" fill="#473F47"/>
<path d="M201.332 226.001C201.064 230.484 199.61 234.377 195.689 235.674C195.366 235.792 195.033 235.882 194.695 235.941C187.522 237.372 178.112 231.935 171.552 227.184C168.807 225.216 166.176 223.095 163.672 220.83V172.94L198.558 208.505C200.413 214.152 201.349 220.058 201.332 226.001V226.001Z" fill="#FFB443"/>
<path d="M171.782 226.974C171.782 229.225 172.049 231.477 172.068 233.709C172.068 246.073 169.199 258.837 172.891 270.972C173.713 273.681 174.803 276.581 173.924 279.253C172.851 281.475 171.01 283.236 168.74 284.213C157.8 290.185 145.158 291.998 132.84 293.753C123.564 295.051 110.405 297.817 101.837 292.818C98.1643 290.7 96.9211 286.751 95.7736 282.801C92.0439 270.247 90.9537 256.757 90.0357 243.783C89.9209 242.066 89.787 240.349 89.6914 238.632C88.9774 226.789 88.7351 214.941 88.9646 203.086C89.1367 194.481 89.8062 185.189 95.4484 178.702C102.927 170.059 117.405 164.335 128.422 162.312C131.981 161.582 135.63 161.382 139.248 161.721C144.379 162.528 149.334 164.206 153.898 166.681C159.349 169.372 164.208 171.661 166.885 177.042C169.828 183.263 171.881 189.866 172.986 196.656C174.012 203.023 174.16 209.5 173.426 215.907C173.082 219.037 172.298 222.166 171.973 225.295C171.853 225.847 171.789 226.409 171.782 226.974Z" fill="#FFB443"/>
<path opacity="0.1" d="M121.228 296.959C117.632 298.008 109.35 294.707 106.596 294.249C104.932 293.944 103.44 293.124 101.795 292.742C93.59 290.7 92.6146 267.671 91.8113 261.489C89.6882 245.119 86.4176 228.157 86.1881 211.748C85.8158 205.419 86.5471 199.073 88.3494 192.993C90.4342 187.021 94.6993 181.545 100.667 179.331C111.167 175.515 114.285 208.657 115.719 215.583C117.517 224.169 119.353 232.755 121.132 241.322C122.432 247.599 121.706 252.617 126.698 257.273C127.025 257.653 127.468 257.914 127.96 258.017C128.399 258.02 128.833 257.915 129.222 257.711C131.317 256.82 133.548 256.291 135.821 256.147C136.841 255.998 137.882 256.165 138.805 256.624C139.346 257.007 139.805 257.495 140.154 258.059C140.502 258.622 140.733 259.251 140.832 259.906C141.478 262.831 141.216 265.884 140.082 268.658C138.948 271.432 136.995 273.796 134.482 275.437C132.225 276.829 129.681 277.593 127.424 278.966C118.951 284.099 126.047 289.594 122.662 295.928C122.506 296.189 122.299 296.415 122.052 296.592C121.805 296.769 121.525 296.894 121.228 296.959V296.959Z" fill="#020202"/>
<path d="M149.613 146.457C148.742 148.198 147.257 149.557 145.444 150.273C143.321 151.131 140.93 151.246 139.228 152.791C137.695 154.458 136.72 156.558 136.435 158.801C135.938 161.129 135.441 163.438 134.924 165.766C134.676 166.929 134.408 168.093 134.159 169.257C134.074 169.93 133.853 170.579 133.509 171.165C133.073 171.661 132.53 172.051 131.92 172.306C131.31 172.561 130.65 172.673 129.99 172.634C127.26 172.753 124.552 172.091 122.186 170.726C121.785 170.523 121.447 170.212 121.211 169.83C121.005 169.342 120.952 168.803 121.058 168.284C121.345 164.945 121.632 161.606 121.938 158.267C122.417 155.52 121.981 152.691 120.694 150.216C118.112 144.835 115.32 139.455 114.306 133.521C113.679 130.774 113.92 127.902 114.995 125.297C115.975 123.627 117.294 122.18 118.869 121.049C120.444 119.919 122.238 119.13 124.137 118.734C129.041 117.234 134.275 117.181 139.209 118.581C141.121 119.211 141.6 120.489 142.46 122.111C143.761 124.649 144.966 127.243 146.056 129.896C147.28 132.891 148.351 135.963 149.307 139.092C150.279 141.434 150.387 144.043 149.613 146.457V146.457Z" fill="#FBB9AD"/>
<path d="M223.878 196.828C224.184 196.332 224.796 195.778 225.294 196.122C225.492 196.314 225.632 196.559 225.695 196.828C225.988 197.333 226.409 197.753 226.916 198.044C227.423 198.336 227.998 198.489 228.583 198.488C229.712 198.488 230.879 198.316 232.045 198.297C233.552 198.353 235.025 198.753 236.352 199.468C237.679 200.183 238.823 201.192 239.696 202.418C241.428 204.905 242.393 207.843 242.469 210.871C242.777 213.587 242.031 216.317 240.384 218.502C237.687 221.574 233.021 221.651 228.908 221.517L225.198 221.383C224.322 221.49 223.438 221.26 222.728 220.738C222.017 220.217 221.532 219.445 221.373 218.579C219.824 214.896 217.069 211.214 218.982 207.493C220.627 204.307 221.621 199.652 223.878 196.828Z" fill="#FBB9AD"/>
<path d="M150.741 235.903V208.199C150.741 207.117 151.068 206.06 151.679 205.165C152.289 204.27 153.155 203.579 154.164 203.181L223.019 175.84C226.596 174.428 233.844 178.645 233.844 182.48L230.459 246.741C230.459 247.813 230.142 248.862 229.546 249.755C228.951 250.647 228.104 251.345 227.112 251.759L161.566 281.886C157.989 283.355 150.664 279.119 150.664 275.265L150.741 235.903Z" fill="white"/>
<path d="M150.741 235.903V208.199C150.741 207.117 151.068 206.06 151.679 205.165C152.289 204.27 153.155 203.579 154.164 203.181L223.019 175.84C226.596 174.428 233.844 178.645 233.844 182.48L230.459 246.741C230.459 247.813 230.142 248.862 229.546 249.755C228.951 250.647 228.104 251.345 227.112 251.759L161.566 281.886C157.989 283.355 150.664 279.119 150.664 275.265L150.741 235.903Z" fill="url(#paint0_linear_1532_21502)"/>
<path d="M154.049 237.544V209.821C154.051 208.737 154.378 207.678 154.988 206.78C155.598 205.882 156.463 205.187 157.472 204.784L226.327 177.443C227.151 177.115 228.043 176.995 228.925 177.091C229.807 177.187 230.652 177.497 231.386 177.994C232.12 178.491 232.721 179.159 233.136 179.941C233.551 180.723 233.768 181.595 233.767 182.48V248.362C233.769 249.433 233.452 250.479 232.856 251.369C232.26 252.259 231.412 252.953 230.42 253.361L161.565 281.886C160.739 282.223 159.841 282.353 158.953 282.264C158.064 282.174 157.211 281.868 156.468 281.373C155.726 280.877 155.117 280.207 154.695 279.421C154.273 278.636 154.051 277.759 154.049 276.868V237.544Z" fill="white"/>
<path d="M137.736 121.615C136.763 123.075 135.25 124.09 133.528 124.439C128.861 125.431 126.011 123.16 123.659 128.598C122.894 130.451 122.662 132.479 122.989 134.456C122.989 134.856 124.443 139.512 124.902 139.264C123.697 140.122 122.779 137.795 121.459 137.108C120.139 136.421 118.188 138.405 118.514 140.122C119.063 141.782 120.039 143.269 121.344 144.434C123.441 147.032 124.6 150.258 124.634 153.593C124.634 154.375 124.328 155.501 123.563 155.501C122.798 155.501 121.899 154.413 121.287 154.012C120.334 153.366 119.33 152.798 118.284 152.314C115.071 150.788 110.251 150.311 107.573 148.174C106.229 147.006 105.337 145.407 105.049 143.652C104.934 143.251 105.049 138.73 105.833 138.997C104.765 138.67 103.804 138.064 103.05 137.241C102.296 136.418 101.777 135.409 101.546 134.318C101.316 133.227 101.383 132.095 101.74 131.039C102.097 129.983 102.731 129.041 103.576 128.312C100.286 123.752 101.797 116.998 105.737 113.048C109.677 109.099 115.396 107.324 121.038 106.58C127.165 105.602 133.434 106.013 139.38 107.782C141.431 108.34 143.323 109.365 144.908 110.778C145.702 111.489 146.312 112.38 146.689 113.377C147.065 114.373 147.195 115.444 147.069 116.502C146.718 116.642 146.334 116.681 145.962 116.613C145.59 116.546 145.244 116.375 144.965 116.12C145.218 116.935 145.19 117.812 144.884 118.609C144.579 119.407 144.014 120.079 143.28 120.519C142.547 120.958 141.687 121.14 140.837 121.034C139.988 120.928 139.199 120.542 138.596 119.936C138.43 120.549 138.137 121.121 137.736 121.615V121.615Z" fill="#473F47"/>
<path d="M140.718 151.723L139.915 151.952C139.681 151.978 139.464 152.086 139.303 152.257C139.215 152.427 139.182 152.621 139.207 152.81C137.675 154.477 136.699 156.577 136.415 158.821C135.918 161.148 135.42 163.457 134.904 165.785C132.394 161.333 130.496 156.565 129.262 151.608C133.066 152.045 136.906 152.084 140.718 151.723V151.723Z" fill="#DC9F95"/>
<path d="M144.715 236.113C145.728 235.159 147.067 234.205 148.406 234.548C149.225 234.926 150.006 235.379 150.739 235.903C151.408 236.203 152.13 236.365 152.862 236.38C155.83 236.572 158.806 236.15 161.603 235.14C162.982 234.445 164.496 234.054 166.04 233.995C166.977 234.175 167.864 234.552 168.642 235.102C169.421 235.651 170.073 236.36 170.554 237.181C171.942 239.184 172.721 241.545 172.795 243.979C172.87 246.413 172.238 248.816 170.975 250.9C169.813 252.594 168.275 253.997 166.48 255.002C162.502 257.103 158.071 258.209 153.57 258.226C149.094 258.417 144.561 258.074 140.182 258.417C139.137 258.613 138.056 258.466 137.102 257.998C136.568 257.504 136.156 256.895 135.897 256.216C135.638 255.538 135.54 254.809 135.61 254.086C135.438 250.728 134.864 247.885 136.854 245.023C139.263 241.722 142.113 239.147 144.715 236.113Z" fill="#FBB9AD"/>
<path d="M95.4437 178.664C95.4437 178.664 46.1552 242.963 61.724 265.687C77.2928 288.411 143.011 261.871 143.011 261.871L136.604 243.058C136.604 243.058 90.4326 248.878 90.0883 243.745C89.7441 238.613 119.371 209.191 119.371 209.191C119.371 209.191 124.726 165.899 95.4437 178.664Z" fill="#FFB443"/>
<path d="M154.376 208.027L206.705 232.087L232.124 179.026C232.124 179.026 233.788 179.026 233.539 183.529L214.241 227.413L233.788 248.229C233.789 249.024 233.619 249.811 233.289 250.535C232.959 251.259 232.477 251.904 231.875 252.426L212.156 230.542L209.479 236.056L198.749 232.774L170.556 278.05L159.922 282.172L193.049 230.542L154.127 212.683L154.376 208.027Z" fill="url(#paint1_linear_1532_21502)"/>
<g opacity="0.41">
<path opacity="0.41" d="M257.387 397.414H217.451V432.101H257.387V397.414Z" fill="#FFB443"/>
</g>
<path d="M296.998 370.416H257.062V432.101H296.998V370.416Z" fill="#FFB443"/>
<g opacity="0.5">
<path opacity="0.5" d="M336.612 341.949H296.676V432.101H336.612V341.949Z" fill="#FFB443"/>
</g>
<path d="M376.223 314.207H336.287V432.101H376.223V314.207Z" fill="#FFB443"/>
<path d="M415.813 286.255H375.877V432.101H415.813V286.255Z" fill="#FFB443"/>
<path d="M415.813 286.255H375.877V432.101H415.813V286.255Z" fill="url(#paint2_linear_1532_21502)"/>
<defs>
<linearGradient id="paint0_linear_1532_21502" x1="345.542" y1="320.255" x2="-131.506" y2="34.5239" gradientUnits="userSpaceOnUse">
<stop offset="0.01"/>
<stop offset="0.13" stop-opacity="0.69"/>
<stop offset="0.25" stop-opacity="0.32"/>
<stop offset="1" stop-opacity="0"/>
</linearGradient>
<linearGradient id="paint1_linear_1532_21502" x1="11714.5" y1="4523.52" x2="22023.6" y2="27542.3" gradientUnits="userSpaceOnUse">
<stop offset="0.01"/>
<stop offset="0.13" stop-opacity="0.69"/>
<stop offset="0.25" stop-opacity="0.32"/>
<stop offset="1" stop-opacity="0"/>
</linearGradient>
<linearGradient id="paint2_linear_1532_21502" x1="295.604" y1="288.316" x2="653.677" y2="542.689" gradientUnits="userSpaceOnUse">
<stop offset="0.01"/>
<stop offset="0.08" stop-opacity="0.69"/>
<stop offset="0.21" stop-opacity="0.32"/>
<stop offset="1" stop-opacity="0"/>
</linearGradient>
</defs>
</svg>
