<svg width="183" height="234" viewBox="0 0 183 234" fill="none" xmlns="http://www.w3.org/2000/svg">
<path opacity="0.24" d="M149.737 36.46H69.12C63.006 36.46 58.0496 41.3781 58.0496 47.4449V168.79C58.0496 174.857 63.006 179.775 69.12 179.775H149.737C155.851 179.775 160.807 174.857 160.807 168.79V47.4449C160.807 41.3781 155.851 36.46 149.737 36.46Z" fill="#FFB443"/>
<path d="M154.945 32.2344H74.328C68.214 32.2344 63.2576 37.1525 63.2576 43.2193V164.564C63.2576 170.631 68.214 175.549 74.328 175.549H154.945C161.059 175.549 166.015 170.631 166.015 164.564V43.2193C166.015 37.1525 161.059 32.2344 154.945 32.2344Z" fill="white"/>
<path opacity="0.3" d="M149.538 41.6321H115.25C112.078 41.6321 109.506 44.1839 109.506 47.3318V104.221C109.506 107.368 112.078 109.92 115.25 109.92H149.538C152.711 109.92 155.282 107.368 155.282 104.221V47.3318C155.282 44.1839 152.711 41.6321 149.538 41.6321Z" fill="#FFB443"/>
<path opacity="0.16" d="M102.103 52.5959H78.8399C76.1453 52.5959 73.9609 54.7634 73.9609 57.4372V116.043C73.9609 118.717 76.1453 120.884 78.8399 120.884H102.103C104.798 120.884 106.982 118.717 106.982 116.043V57.4372C106.982 54.7634 104.798 52.5959 102.103 52.5959Z" fill="#E52440"/>
<path opacity="0.16" d="M143.95 122.451H117.175C115.45 122.451 114.052 123.838 114.052 125.55V147.344C114.052 149.055 115.45 150.443 117.175 150.443H143.95C145.675 150.443 147.073 149.055 147.073 147.344V125.55C147.073 123.838 145.675 122.451 143.95 122.451Z" fill="#E52440"/>
<path opacity="0.24" d="M27.0243 198.671C25.4374 198.708 23.2258 199.73 23.9517 201.121C24.1779 201.464 24.4927 201.742 24.8634 201.925C29.928 204.911 35.7566 206.288 41.5387 207.369C58.3984 210.469 75.6072 211.258 92.6832 209.714C93.8565 209.61 95.0974 209.463 96.0259 208.751C101.124 204.839 84.4109 203.277 82.4231 202.783C78.2701 201.757 74.4336 200.241 70.1455 199.764C55.9561 198.168 41.277 198.29 27.0243 198.671Z" fill="#E52440"/>
<path d="M114.28 72.0532L137.248 75.9312L121.86 98.1314L101.377 92.4945L114.28 72.0532Z" fill="white"/>
<path d="M50.153 176.559C48.0427 183.322 45.4344 190.04 44.9321 197.105C44.8493 197.804 44.8907 198.513 45.0545 199.199C45.7383 201.523 48.5914 202.319 50.9971 202.733C52.1493 202.934 53.6518 202.972 54.1456 201.917C54.6394 200.861 53.6096 199.705 52.5882 199.102C51.5668 198.499 50.3302 197.867 50.1614 196.703C50.0517 195.961 50.4315 195.249 50.7818 194.583C52.3687 191.572 53.5252 188.364 54.6816 185.165L60.5524 168.903C61.6312 166.118 62.5209 163.263 63.2155 160.36C64.1736 155.925 64.2242 151.352 64.2074 146.816C64.2074 144.37 64.1567 141.828 63.0847 139.621C62.3841 138.181 61.0799 136.815 59.5183 136.309C57.273 135.576 57.197 136.233 56.986 138.16C56.4669 142.465 56.3825 146.816 55.8043 151.142C54.6411 159.756 52.7506 168.258 50.153 176.559Z" fill="#F0E9CB"/>
<path d="M69.7658 138.796C70.4833 159.635 70.2526 180.477 69.0736 201.322C68.9853 201.891 69.0659 202.473 69.3058 202.997C69.7278 203.746 70.7239 203.956 71.5933 204.031C73.3268 204.182 75.0731 204.089 76.7803 203.755C77.3321 203.708 77.8437 203.449 78.2069 203.035C78.6711 202.352 78.2069 201.38 77.5358 200.911C76.8647 200.442 76.0038 200.296 75.2398 199.977C74.87 199.853 74.5494 199.615 74.324 199.299C74.0243 198.809 74.1467 198.185 74.2818 197.624C78.4643 179.955 80.3087 161.536 77.4472 143.6C77.1011 141.439 76.1219 138.767 73.9146 138.683C72.1378 138.616 70.8969 140.358 70.0064 141.878" fill="#F0E9CB"/>
<path d="M82.5119 84.1937C83.8413 85.0941 85.251 85.9903 86.8464 86.2039C86.9392 84.8345 86.2513 83.5488 85.8714 82.2254C85.4916 80.902 85.5464 79.2352 86.6944 78.4563C88.0112 77.5768 89.8303 78.4981 90.839 79.7126C91.8477 80.9271 92.4892 82.5102 93.0885 84.022L94.992 88.8172C95.2844 89.4385 95.4549 90.1093 95.4942 90.7939C95.4444 91.626 95.1128 92.417 94.553 93.0386C92.6496 95.3085 89.193 95.7943 86.3526 94.9106C83.5121 94.027 81.1951 92.0377 79.0595 89.9689C77.4683 88.4151 73.1845 84.3235 75.0669 81.8443C77.1012 79.1682 80.7941 83.0337 82.5119 84.1937Z" fill="#E52440"/>
<path d="M82.5119 84.1937C83.8413 85.0941 85.251 85.9903 86.8464 86.2039C86.9392 84.8345 86.2513 83.5488 85.8714 82.2254C85.4916 80.902 85.5464 79.2352 86.6944 78.4563C88.0112 77.5768 89.8303 78.4981 90.839 79.7126C91.8477 80.9271 92.4892 82.5102 93.0885 84.022L94.992 88.8172C95.2844 89.4385 95.4549 90.1093 95.4942 90.7939C95.4444 91.626 95.1128 92.417 94.553 93.0386C92.6496 95.3085 89.193 95.7943 86.3526 94.9106C83.5121 94.027 81.1951 92.0377 79.0595 89.9689C77.4683 88.4151 73.1845 84.3235 75.0669 81.8443C77.1012 79.1682 80.7941 83.0337 82.5119 84.1937Z" fill="url(#paint0_linear_1532_21791)"/>
<path d="M80.4478 73.678C80.5934 74.3227 80.888 74.9251 81.3085 75.4374C81.7289 75.9498 82.2636 76.3582 82.8704 76.6304C83.1808 76.7492 83.4826 76.8892 83.7736 77.0492C84.3327 77.4597 84.757 78.0251 84.9933 78.6741C85.2268 79.3227 85.5693 79.9273 86.0063 80.4624C86.2314 80.7245 86.5326 80.9114 86.8687 80.9976C87.2047 81.0838 87.5594 81.0651 87.8844 80.944C88.1723 80.784 88.408 80.5457 88.5639 80.2572C89.012 79.3979 89.1247 78.4047 88.8804 77.468C88.6368 76.5414 88.2885 75.6451 87.8422 74.7961C87.3737 73.8078 86.9052 72.7817 86.1118 72.0237C84.4869 70.4533 79.7641 70.4993 80.4478 73.678Z" fill="url(#paint1_linear_1532_21791)"/>
<path d="M74.8642 62.8984C74.9215 62.4816 74.8487 62.0574 74.6555 61.6829C74.4623 61.3085 74.158 61.0019 73.7837 60.8044C73.0255 60.423 72.1808 60.2427 71.3316 60.2809C70.189 60.2403 69.0476 60.3903 67.9551 60.7248C65.8449 61.4242 64.1566 63.0659 62.8525 64.8541C61.5484 66.6424 60.5101 68.6233 59.1848 70.4073C56.7918 73.6278 53.2761 76.2076 49.2581 76.6515C48.414 76.7436 47.4982 76.7897 46.9453 77.4053C46.6411 77.7979 46.4513 78.2658 46.3966 78.758C46.0261 80.4036 46.0536 82.1128 46.4768 83.7458C46.6941 84.5598 47.0855 85.3177 47.6244 85.9681C48.1634 86.6185 48.8372 87.1461 49.6 87.515C49.9081 87.649 50.2668 87.7872 50.385 88.0971C50.4487 88.3543 50.4249 88.6252 50.3175 88.8677C50.0739 89.7464 50.0335 90.6683 50.1993 91.5647C50.3944 92.6266 50.8666 93.6191 51.5689 94.4434C52.2713 95.2676 53.1791 95.8947 54.202 96.2622C55.2248 96.6296 56.3269 96.7244 57.3982 96.5373C58.4695 96.3501 59.4726 95.8875 60.3075 95.1956C60.9758 95.9665 61.8361 96.55 62.8027 96.8879C63.7693 97.2257 64.8082 97.306 65.8159 97.1208C66.8235 96.9355 67.7646 96.4913 68.5451 95.8323C69.3255 95.1734 69.9182 94.3228 70.2638 93.3655C70.7111 92.1091 70.7196 90.769 71.053 89.4917C71.8971 86.334 74.5223 84.0474 76.5017 81.4341C78.2312 79.2079 79.4263 76.6198 79.9963 73.8665C80.2744 72.2731 80.4156 70.6592 80.4184 69.0421C80.4479 67.5302 80.4184 65.9388 79.6714 64.628C78.9243 63.3172 77.5906 62.534 76.2949 61.8305C74.7755 61.0347 73.0789 60.3102 71.3822 60.595" fill="#606161"/>
<path d="M69.2762 75.7344C69.1938 76.9674 69.2278 78.2055 69.3775 79.4323C69.4636 80.5181 69.7785 81.5739 70.3018 82.5313C70.5668 83.0082 70.9394 83.4177 71.3904 83.7279C71.8414 84.0382 72.3587 84.2407 72.9016 84.3196C73.3281 84.358 73.7579 84.3029 74.1605 84.1581C74.5631 84.0134 74.9287 83.7826 75.2314 83.482C75.8307 82.8789 72.2053 77.6817 72.9692 78.067C77.6117 80.4165 77.5316 70.2021 77.6117 69.0672C77.729 67.7976 77.463 66.5221 76.8478 65.4028C76.5316 64.8499 76.0731 64.3903 75.5192 64.0709C74.9652 63.7516 74.3357 63.584 73.6951 63.5852C73.1383 63.6427 72.6015 63.8229 72.1239 64.1128C71.6463 64.4026 71.2401 64.7947 70.9349 65.2604C70.3304 66.1975 69.9174 67.2434 69.7194 68.3385C69.2425 70.4876 69.0649 72.6914 69.1918 74.8884" fill="url(#paint2_linear_1532_21791)"/>
<path d="M67.7694 80.7725C66.9464 79.9349 65.5452 79.8846 64.4943 80.4081C63.4651 80.9923 62.656 81.8936 62.1899 82.9753C61.7623 83.8445 61.461 84.7695 61.2951 85.7226C61.0911 87.2315 61.0557 88.7582 61.1896 90.2749C61.3373 93.2818 61.4597 96.2929 61.3711 99.2998C61.3331 100.673 61.2487 102.076 61.6243 103.4C62.2447 105.594 64.1018 107.324 66.2669 108.136C68.4524 108.885 70.81 108.989 73.0535 108.434C73.3915 108.379 73.7155 108.26 74.0074 108.082C74.248 107.901 74.4551 107.68 74.6193 107.429C75.1086 106.755 75.5325 106.037 75.8855 105.284C76.7085 103.517 77.1221 101.595 77.5315 99.6893C78.4263 95.5307 79.321 91.3135 79.3168 87.0753C79.3168 85.7519 79.2113 84.3825 78.574 83.2224C77.8303 81.9763 76.6537 81.0426 75.2651 80.5966C73.8864 80.1601 72.445 79.9508 70.9981 79.9768C69.0755 79.9478 67.1539 80.0809 65.254 80.3746" fill="#E52440"/>
<path d="M78.173 96.7828C78.173 96.7828 67.993 95.4343 67.4022 94.6092C66.8113 93.7842 65.3889 106.235 65.3889 106.235C65.3889 106.235 62.194 106.821 62.0716 104.472C61.9492 102.122 61.9999 83.9803 63.8147 81.7775C65.6295 79.5746 64.203 87.7913 72.4921 88.7336C80.7813 89.6759 78.5275 94.2533 78.5275 94.2533L78.173 96.7828Z" fill="#981921"/>
<path d="M75.7673 94.1781C80.3044 95.1581 94.1013 94.3289 95.7727 92.0842C96.2496 91.4518 96.5282 90.1829 96.5788 89.3955C96.6294 88.6082 96.6674 87.7204 96.3045 87.1173C95.8571 86.3551 95.0383 86.3886 94.3293 86.4724C89.999 86.9383 85.6407 87.0951 81.2878 86.9414C78.3841 86.8702 75.379 86.7027 72.7286 85.0862C71.2809 84.2025 69.9725 82.921 68.5418 81.9829C67.111 81.0448 65.2371 80.3664 63.8148 81.761C62.671 82.8749 62.6837 84.5752 63.3927 86.1038C65.0598 89.6217 68.8794 91.7408 71.6228 93.0474C73.4165 93.9185 73.9061 93.7803 75.7673 94.1781Z" fill="#E52440"/>
<path d="M93.8567 90.9115C97.4399 92.1679 101.504 90.9492 105.125 89.7975C105.827 89.6223 106.479 89.2884 107.029 88.8217C107.54 88.3233 107.822 87.6407 108.295 87.1088C109.325 85.9572 111.051 85.7185 112.279 84.7804C112.422 84.6863 112.537 84.5562 112.613 84.4034C112.68 84.2138 112.68 84.0068 112.613 83.8171C112.453 83.3957 112.183 83.0246 111.829 82.7424C111.476 82.4603 111.053 82.2775 110.604 82.2132C109.705 82.0953 108.79 82.1783 107.928 82.4561C105.782 83.0217 103.74 83.9192 101.876 85.1154C100.251 86.1624 98.723 87.4564 96.8533 87.9632C95.7348 88.2689 94.38 88.382 93.7807 89.3578C93.768 89.3578 93.232 90.6979 93.8567 90.9115Z" fill="#F0E9CB"/>
<path d="M81.6466 142.109C81.5622 143.21 81.444 144.362 80.756 145.229C80.0681 146.095 78.9412 146.485 77.8819 146.833C74.0834 148.089 70.192 149.345 66.1741 149.685C63.2515 149.975 60.301 149.58 57.56 148.533C56.5361 148.133 55.5641 147.612 54.6647 146.983C54.0379 146.586 53.5144 146.048 53.1368 145.413C52.7939 144.657 52.6156 143.838 52.6135 143.009C51.8749 130.696 54.1793 117.693 61.5273 107.864C62.0506 107.165 62.5866 106.494 63.1606 105.829C67.2292 106.511 71.5342 106.427 75.6576 106.796C80.4427 117.931 82.4953 130.033 81.6466 142.109Z" fill="#E52440"/>
<path d="M74.5729 64.6783C74.5721 65.7766 74.3334 66.862 73.873 67.8608C73.4125 68.8596 72.7411 69.7485 71.9042 70.4674C71.0673 71.1862 70.0844 71.7182 69.0223 72.0272C67.9601 72.3362 66.8433 72.415 65.7477 72.2584C65.6157 72.2614 65.487 72.2175 65.3848 72.1345C65.2827 72.0516 65.2138 71.9351 65.1906 71.8061C64.3887 69.5153 65.4776 66.969 67.0055 65.0803C67.7717 64.0625 68.7619 63.2318 69.9007 62.6513C70.8195 62.2611 71.7958 62.0207 72.7918 61.9394C73.3827 61.8765 74.4294 61.8221 74.7417 62.4628C74.9992 62.9905 74.5729 64.0836 74.5729 64.6783Z" fill="#606161"/>
<path d="M100.55 74.7041C100.466 75.1899 99.9807 75.5878 99.2379 75.8893C97.0179 76.8567 92.4597 77.0578 89.8387 76.8735C86.3399 76.639 81.1275 78.1592 79.2874 78.0419C79.0739 78.0305 78.8612 78.0082 78.65 77.9749C77.3037 77.7739 76.8816 77.1918 77.3839 76.0568C77.9705 74.7544 87.8635 68.1794 88.8722 66.3618C89.8809 64.5442 93.7807 62.3037 93.7807 62.3037C93.7807 62.3037 100.905 72.7023 100.55 74.7041Z" fill="white"/>
<path d="M99.2547 75.8725C97.0347 76.8399 92.4765 77.0409 89.8555 76.8567C86.3567 76.6222 81.1443 78.1424 79.3042 78.0251C79.0907 78.0137 78.878 77.9914 78.6669 77.9581C78.5149 77.6398 78.9201 77.2922 79.2704 77.1205C82.4132 75.7287 85.7769 74.8925 89.2098 74.6496C89.7838 74.6161 90.5055 74.4319 90.5561 73.8833C90.5561 73.498 90.2691 73.0164 90.5899 72.7986C90.6405 72.7986 91.8181 73.7325 91.97 73.7995C92.3236 73.9974 92.7249 74.0958 93.1307 74.0843C94.2744 74.168 95.013 74.6831 96.1061 74.9847C97.0811 75.2527 98.1742 74.9847 99.1027 75.4035C99.1906 75.433 99.2663 75.4904 99.318 75.5668C99.3298 75.6193 99.3302 75.6737 99.3193 75.7264C99.3084 75.7791 99.2864 75.8289 99.2547 75.8725Z" fill="url(#paint3_linear_1532_21791)"/>
<path d="M99.1701 75.5208C98.6354 75.7059 98.0735 75.8021 97.5072 75.8055C94.9327 75.8055 92.3455 73.8037 91.2524 70.78C90.8541 69.7691 90.6793 68.6851 90.7397 67.6013C90.8001 66.5175 91.0944 65.4593 91.6027 64.4981C92.1804 63.3843 93.1599 62.5275 94.346 62.0985C97.389 61.0306 100.938 63.1496 102.285 66.8518C103.631 70.5539 102.234 74.4361 99.1701 75.5208Z" fill="#FFA216"/>
<path d="M97.5072 75.8054C94.9327 75.8054 92.3455 73.8036 91.2524 70.7799C90.8541 69.769 90.6793 68.685 90.7397 67.6012C90.8001 66.5174 91.0944 65.4592 91.6027 64.498C94.135 64.6153 96.6674 66.6171 97.7605 69.6073C98.1444 70.6034 98.32 71.6666 98.2765 72.7322C98.2329 73.7978 97.9712 74.8434 97.5072 75.8054Z" fill="url(#paint4_linear_1532_21791)"/>
<path d="M82.8157 70.8219C82.4855 70.8232 82.1573 70.8711 81.8408 70.9643C80.8447 71.2742 80.1525 72.162 79.663 73.0918C79.5216 73.3411 79.4258 73.6133 79.3802 73.8958C79.351 74.0326 79.3525 74.174 79.3847 74.3101C79.4169 74.4462 79.4789 74.5736 79.5664 74.6831C79.6538 74.7927 79.7646 74.8818 79.8907 74.9441C80.0168 75.0063 80.1552 75.0402 80.296 75.0433C80.5661 75.0575 80.8367 75.0292 81.0979 74.9596C81.9136 74.8012 82.6757 74.4411 83.3137 73.9126C83.6301 73.6461 83.881 73.3113 84.047 72.9339C84.2131 72.5564 84.29 72.1463 84.2718 71.7349C84.2612 71.5462 84.2063 71.3626 84.1114 71.1988C83.8455 70.7717 83.2546 70.8093 82.8157 70.8219Z" fill="url(#paint5_linear_1532_21791)"/>
<path d="M48.2746 188.289C47.9174 188.21 47.5457 188.221 47.1942 188.322C46.5316 188.569 46.2404 189.327 46.0251 189.998L42.6487 200.698C42.4667 201.094 42.447 201.544 42.5938 201.954C42.764 202.214 43.0056 202.421 43.2902 202.549C46.3622 204.237 49.7955 205.174 53.3055 205.283C53.9217 205.283 54.6223 205.258 55.0233 204.793C55.2693 204.46 55.3956 204.055 55.382 203.642C55.4238 202.626 55.2029 201.617 54.7405 200.71C54.2383 199.722 53.4743 198.888 52.913 197.925C52.3751 196.956 52.062 195.881 51.9962 194.777C51.9305 193.673 52.114 192.568 52.5332 191.543C53.0101 190.349 53.0143 190.06 51.7861 189.424C50.6852 188.86 49.4993 188.476 48.2746 188.289Z" fill="#E52440"/>
<path d="M70.669 190.458C70.3033 190.446 69.9408 190.53 69.6181 190.701C69.0145 191.07 68.8795 191.865 68.7993 192.569L67.5711 203.721C67.467 204.149 67.5367 204.601 67.7653 204.978C67.9816 205.201 68.2588 205.357 68.5629 205.426C71.9085 206.485 75.4598 206.741 78.9244 206.171C79.5363 206.067 80.2116 205.891 80.5155 205.359C80.6905 204.985 80.735 204.563 80.6421 204.161C80.4821 203.154 80.0667 202.205 79.4351 201.401C78.7429 200.53 77.8228 199.864 77.0927 199.027C76.3752 198.18 75.8568 197.186 75.575 196.116C75.2932 195.046 75.2551 193.927 75.4635 192.841C75.6957 191.585 75.6492 191.292 74.3155 190.906C73.1323 190.563 71.9009 190.412 70.669 190.458Z" fill="#E52440"/>
<path d="M48.2746 188.289C47.9174 188.21 47.5457 188.221 47.1942 188.322C46.5316 188.569 46.2404 189.327 46.0251 189.998L42.6487 200.698C42.4667 201.094 42.447 201.544 42.5938 201.954C42.764 202.214 43.0056 202.421 43.2902 202.549C46.3622 204.237 49.7955 205.174 53.3055 205.283C53.9217 205.283 54.6223 205.258 55.0233 204.793C55.2693 204.46 55.3956 204.055 55.382 203.642C55.4238 202.626 55.2029 201.617 54.7405 200.71C54.2383 199.722 53.4743 198.888 52.913 197.925C52.3751 196.956 52.062 195.881 51.9962 194.777C51.9305 193.673 52.114 192.568 52.5332 191.543C53.0101 190.349 53.0143 190.06 51.7861 189.424C50.6852 188.86 49.4993 188.476 48.2746 188.289Z" fill="url(#paint6_linear_1532_21791)"/>
<path d="M70.669 190.458C70.3033 190.446 69.9408 190.53 69.6181 190.701C69.0145 191.07 68.8795 191.865 68.7993 192.569L67.5711 203.721C67.467 204.149 67.5367 204.601 67.7653 204.978C67.9816 205.201 68.2588 205.357 68.5629 205.426C71.9085 206.485 75.4598 206.741 78.9244 206.171C79.5363 206.067 80.2116 205.891 80.5155 205.359C80.6905 204.985 80.735 204.563 80.6421 204.161C80.4821 203.154 80.0667 202.205 79.4351 201.401C78.7429 200.53 77.8228 199.864 77.0927 199.027C76.3752 198.18 75.8568 197.186 75.575 196.116C75.2932 195.046 75.2551 193.927 75.4635 192.841C75.6957 191.585 75.6492 191.292 74.3155 190.906C73.1323 190.563 71.9009 190.412 70.669 190.458Z" fill="url(#paint7_linear_1532_21791)"/>
<path d="M62.6245 113.857C60.8435 117.894 59.9192 122.283 59.4465 126.655C58.7247 133.549 59.1088 140.475 58.8092 147.398C58.8242 147.698 58.7348 147.994 58.5559 148.236C58.3647 148.413 58.1132 148.514 57.8511 148.516C57.7568 148.537 57.6606 148.548 57.5641 148.55C56.5402 148.15 55.5682 147.629 54.6688 147C54.0421 146.603 53.5186 146.065 53.141 145.43C52.7981 144.674 52.6198 143.855 52.6176 143.026C51.8791 130.713 54.1835 117.71 61.5314 107.881C63.0466 107.382 64.8107 106.964 65.3003 108.3C65.6844 109.418 63.0972 112.756 62.6245 113.857Z" fill="#981921"/>
<path d="M103.901 55.6365L111.882 43.5879L115.82 47.2942L106.881 57.6049L103.901 55.6365Z" fill="url(#paint8_linear_1532_21791)"/>
<path d="M106.847 58.4215L120.024 51.8213L122.109 57.0101L108.81 61.6168L106.847 58.4215Z" fill="url(#paint9_linear_1532_21791)"/>
<path d="M109.418 62.1531L124.109 63.5686L123.071 69.0589L109.35 65.8929L109.418 62.1531Z" fill="url(#paint10_linear_1532_21791)"/>
<defs>
<linearGradient id="paint0_linear_1532_21791" x1="87.0363" y1="82.7908" x2="70.9065" y2="118.01" gradientUnits="userSpaceOnUse">
<stop stop-color="#010101" stop-opacity="0"/>
<stop offset="0.95" stop-color="#010101"/>
</linearGradient>
<linearGradient id="paint1_linear_1532_21791" x1="3091.48" y1="2007.36" x2="3267.62" y2="2007.36" gradientUnits="userSpaceOnUse">
<stop stop-color="#E5C6D6"/>
<stop offset="0.42" stop-color="#EAD4D0"/>
<stop offset="1" stop-color="#F0E9CB"/>
</linearGradient>
<linearGradient id="paint2_linear_1532_21791" x1="2805.34" y1="3961.8" x2="2975.75" y2="3961.8" gradientUnits="userSpaceOnUse">
<stop stop-color="#E5C6D6"/>
<stop offset="0.42" stop-color="#EAD4D0"/>
<stop offset="1" stop-color="#F0E9CB"/>
</linearGradient>
<linearGradient id="paint3_linear_1532_21791" x1="7681.91" y1="1044.72" x2="7695.85" y2="1289.79" gradientUnits="userSpaceOnUse">
<stop stop-color="#010101" stop-opacity="0"/>
<stop offset="0.95" stop-color="#010101"/>
</linearGradient>
<linearGradient id="paint4_linear_1532_21791" x1="2903.88" y1="2217.76" x2="3325.88" y2="1900.28" gradientUnits="userSpaceOnUse">
<stop stop-color="#010101" stop-opacity="0"/>
<stop offset="0.95" stop-color="#010101"/>
</linearGradient>
<linearGradient id="paint5_linear_1532_21791" x1="1783.25" y1="855.707" x2="1840.46" y2="855.707" gradientUnits="userSpaceOnUse">
<stop stop-color="#E5C6D6"/>
<stop offset="0.42" stop-color="#EAD4D0"/>
<stop offset="1" stop-color="#F0E9CB"/>
</linearGradient>
<linearGradient id="paint6_linear_1532_21791" x1="3805.15" y1="8085.61" x2="2937.86" y2="9000.67" gradientUnits="userSpaceOnUse">
<stop stop-color="#010101" stop-opacity="0"/>
<stop offset="0.95" stop-color="#010101"/>
</linearGradient>
<linearGradient id="paint7_linear_1532_21791" x1="4576.2" y1="7413.54" x2="4146.47" y2="9226.72" gradientUnits="userSpaceOnUse">
<stop stop-color="#010101" stop-opacity="0"/>
<stop offset="0.95" stop-color="#010101"/>
</linearGradient>
<linearGradient id="paint8_linear_1532_21791" x1="103.901" y1="50.5985" x2="115.82" y2="50.5985" gradientUnits="userSpaceOnUse">
<stop stop-color="white" stop-opacity="0"/>
<stop offset="0.95" stop-color="white"/>
</linearGradient>
<linearGradient id="paint9_linear_1532_21791" x1="1593.53" y1="2820.21" x2="2006.02" y2="3035.88" gradientUnits="userSpaceOnUse">
<stop stop-color="white" stop-opacity="0"/>
<stop offset="0.95" stop-color="white"/>
</linearGradient>
<linearGradient id="paint10_linear_1532_21791" x1="-2361.67" y1="820.375" x2="-2137.22" y2="1208.25" gradientUnits="userSpaceOnUse">
<stop stop-color="white" stop-opacity="0"/>
<stop offset="0.95" stop-color="white"/>
</linearGradient>
</defs>
</svg>
