<svg width="680" height="395" viewBox="0 0 680 395" fill="none" xmlns="http://www.w3.org/2000/svg">
<g clip-path="url(#clip0_2214_17480)">
<path opacity="0.18" d="M84.5817 298.277C74.1805 290.242 65.6009 280.097 59.4082 268.508C53.2155 256.92 49.5503 244.151 48.6539 231.045C47.7576 217.938 49.6505 204.79 54.208 192.467C58.7655 180.144 65.8841 168.927 75.0948 159.553C88.8666 145.67 106.668 136.745 121.943 124.726C148.359 104.067 167.919 74.2273 197.387 58.4513C232.869 39.445 275.868 44.4633 314.838 53.9439C353.808 63.4245 392.958 77.0069 432.92 73.5813C456.72 71.5229 479.633 63.4696 503.207 59.5481C526.782 55.6267 552.641 56.3329 572.367 70.0655C601.083 90.1836 607.909 130.841 631.468 157.059C642.879 169.77 658.034 178.815 668.138 192.637C684.39 214.859 683.969 248.229 667.16 270.03C645.631 297.901 606.781 302.318 575.449 317.644C558.009 326.178 542.373 338.483 524.331 345.635C486.414 360.659 443.76 350.878 404.88 338.738C366.001 326.598 325.948 311.994 285.701 317.944C248.114 323.533 214.241 346.716 176.338 350.232C158.748 351.87 138.661 348.73 127.912 333.555C116.35 317.283 100.233 310.296 84.5817 298.277Z" fill="#FFB443"/>
<path d="M85.2 102.36H143.44L191.6 195.88L238.64 102.36H296.88V295H238.64V192.24L203.08 259.44H179.28L143.44 192.24V295H85.2V102.36Z" fill="#981921"/>
<path d="M89.2 105.36H147.44L195.6 198.88L242.64 105.36H300.88V298H242.64V195.24L207.08 262.44H183.28L147.44 195.24V298H89.2V105.36Z" fill="#E52440"/>
<path d="M287.56 103.36H350.84L380.52 223.48L410.2 103.36H476.28L416.08 296H344.68L287.56 103.36Z" fill="#981921"/>
<path d="M292.56 105.36H355.84L385.52 225.48L415.2 105.36H481.28L421.08 298H349.68L292.56 105.36Z" fill="#E52440"/>
<path d="M555.854 156.207C559.959 156.852 563.776 159.224 567.895 160.075C571.493 160.849 575.283 160.449 578.84 161.635C585.476 163.853 589.786 171.396 590.73 178.965C591.674 186.534 589.991 194.193 588.075 201.542C583.04 220.909 576.199 240.25 563.886 254.937C563.024 255.955 561.984 257.025 560.712 257C559.829 256.885 559.003 256.521 558.345 255.955C555.759 254.287 553.394 252.335 551.298 250.14C548.015 246.414 546.113 241.501 544.457 236.627C539.792 222.908 530.885 214.217 529.229 199.673C527.423 184.419 536.276 153.164 555.854 156.207Z" fill="#FFB443"/>
<path d="M542 165.112C540.258 164.811 538.46 165.121 536.938 165.985C535.341 166.924 533.962 168.164 532.885 169.631C531.808 171.097 531.056 172.758 530.675 174.512C529.936 178.027 529.803 181.634 530.28 185.19C531.213 195.627 533.331 205.935 536.597 215.934C537.552 218.829 534.823 225.7 536.802 228.073C538.412 230.002 537.607 241.593 539.708 243.027C545.534 247.043 557.636 244.827 563.462 248.842C571.008 254.058 570.503 240.289 569.302 234.618C567.938 228.294 557.691 229.403 549.845 208.046C539.408 179.623 544.674 165.699 542 165.112Z" fill="black" fill-opacity="0.25"/>
<path d="M511.726 254.981C505.248 248.899 500.203 241.573 496.927 233.489C491.575 219.275 488.893 204.274 489.003 189.173C489.003 168.86 494.089 147.766 501.811 135.578C514.202 115.829 535.323 105 560.925 105C580.635 105 597.895 111.408 610.286 122.942C616.764 129.02 621.808 136.342 625.085 144.421C630.448 158.699 633.126 173.766 632.995 188.93C632.995 209.255 627.923 230.542 620.201 242.755C608.012 262.132 586.689 273 560.885 273C540.974 273 524.117 266.772 511.726 254.981ZM530.561 187.635C530.561 222.237 540.92 240.077 561.033 240.077C581.146 240.077 591.101 222.66 591.101 188.212C591.101 155.122 580.54 137.705 560.831 137.705C541.795 137.705 530.615 156.083 530.615 187.635H530.561Z" fill="#FFB443"/>
<path d="M511.726 254.981C505.248 248.899 500.203 241.573 496.927 233.489C491.575 219.275 488.893 204.274 489.003 189.173C489.003 168.86 494.089 147.766 501.811 135.578C514.202 115.829 535.323 105 560.925 105C580.635 105 597.895 111.408 610.286 122.942C616.764 129.02 621.808 136.342 625.085 144.421C630.448 158.699 633.126 173.766 632.995 188.93C632.995 209.255 627.923 230.542 620.201 242.755C608.012 262.132 586.689 273 560.885 273C540.974 273 524.117 266.772 511.726 254.981ZM530.561 187.635C530.561 222.237 540.718 236.5 560.831 236.5C580.944 236.5 591.101 222.66 591.101 188.212C591.101 155.122 580.54 137.705 560.831 137.705C541.795 137.705 530.615 156.083 530.615 187.635H530.561Z" fill="#981921"/>
<path d="M514.39 256.884C507.735 250.769 502.552 243.402 499.185 235.274C493.672 220.975 490.902 205.882 491.003 190.687C491.003 170.25 496.227 149.027 504.161 136.752C516.891 116.895 538.592 106 564.895 106C585.131 106 602.879 112.447 615.609 124.051C622.268 130.163 627.451 137.531 630.813 145.662C636.355 160.034 639.125 175.208 638.996 190.481C638.996 210.917 633.785 232.347 625.851 244.635C613.328 264.105 591.406 275 564.909 275C544.453 274.987 527.134 268.759 514.39 256.884ZM536.5 190.481C536.5 225 544.287 235.274 564.951 235.274C585.407 235.274 594 223.5 594 188.5C594 154.5 585.186 138.957 564.951 138.957C545.282 138.905 536.5 158.684 536.5 190.481Z" fill="#E52440"/>
<path d="M597.075 128C598.582 128.987 599.731 130.352 600.376 131.924C601.022 133.496 601.136 135.205 600.705 136.835C603.231 137.052 605.685 137.717 607.924 138.791C610.163 139.866 612.143 141.328 613.749 143.095C616.628 146.508 618.369 150.586 618.771 154.855C619.157 159.098 619.054 163.366 618.463 167.59C618.397 169.05 618.062 170.49 617.472 171.851C616.78 173.032 615.804 174.06 614.616 174.862C613.428 175.663 612.057 176.218 610.602 176.485C607.693 177.007 604.713 177.133 601.763 176.859L594.732 176.522C594.5 176.526 594.27 176.481 594.062 176.389C593.922 176.281 593.808 176.149 593.727 176C593.646 175.851 593.601 175.688 593.593 175.522C593.111 172.934 592.374 171.803 591.852 169.215C590.547 163.751 587.993 158.59 584.352 154.06C583.707 153.383 583.248 152.579 583.013 151.713C582.932 150.516 583.229 149.323 583.87 148.27C584.822 146.201 585.61 144.073 586.227 141.903C586.795 139.306 587.533 136.742 588.437 134.223C589.358 131.678 591.257 129.51 593.794 128.108" fill="#981921"/>
<path d="M593.5 201.5C593.5 201.5 619.269 204.029 630.812 189.319C635.414 183.485 625.159 156 625.159 156L613.497 175.966L595.091 179.964L594 191L593.5 201.5Z" fill="black" fill-opacity="0.25"/>
<path d="M535.28 161.511C534.488 161.529 533.708 161.598 532.948 161.716C532.241 161.8 531.588 162.007 531.034 162.321C530.762 162.482 530.558 162.701 530.442 162.956C530.325 163.211 530.3 163.495 530.369 163.779C530.577 164.187 530.931 164.552 531.386 164.829C531.841 165.106 532.375 165.281 532.919 165.331C534.712 165.64 536.507 165.392 538.325 165.604C540.143 165.816 542.03 165.319 541.131 163.608C540.232 161.898 537.164 161.455 535.28 161.511Z" fill="#F7AF87"/>
<path d="M540.5 164.107C537.669 163.749 534.713 164.351 532.165 165.044C531.564 165.186 531.029 165.385 530.593 165.631C530.331 165.732 530.142 165.871 530.055 166.028C529.967 166.185 529.985 166.351 530.106 166.502C530.227 166.654 530.445 166.782 530.728 166.87C531.011 166.957 531.344 166.998 531.678 166.987C532.257 167.015 532.841 166.997 533.408 166.934L537.323 166.606C538.234 166.555 539.121 166.431 539.949 166.24C541.726 165.737 543.236 164.434 540.5 164.107Z" fill="#F7AF87"/>
<path d="M534.763 166.337C533.931 166.519 533.123 166.735 532.346 166.984C531.611 167.208 530.973 167.523 530.478 167.907C530.236 168.092 530.08 168.309 530.023 168.539C529.967 168.768 530.013 169.001 530.156 169.218C530.483 169.507 530.955 169.733 531.509 169.866C532.064 170 532.675 170.034 533.265 169.966C535.246 169.855 537.082 169.292 539.064 169.098C541.045 168.904 542.914 168.128 541.512 166.91C540.111 165.691 536.712 165.913 534.763 166.337Z" fill="#F7AF87"/>
<path d="M540.454 168.014C537.894 167.856 535.528 169.066 533.535 170.265C533.051 170.535 532.642 170.875 532.331 171.265C532.141 171.434 532.026 171.645 532.004 171.867C531.982 172.089 532.052 172.311 532.206 172.501C532.36 172.69 532.589 172.837 532.86 172.922C533.131 173.006 533.431 173.023 533.715 172.969C534.22 172.941 534.716 172.848 535.182 172.696L538.461 171.781C539.239 171.603 539.973 171.329 540.634 170.97C542.004 170.108 542.931 168.193 540.454 168.014Z" fill="#F7AF87"/>
<path d="M613.421 132.822C609.608 130.823 605.414 129.86 601.192 130.016C600.478 129.978 599.765 130.106 599.099 130.39C598.773 130.547 598.495 130.804 598.3 131.131C598.105 131.458 598.001 131.841 598 132.232C598.127 132.914 598.482 133.52 598.994 133.929C600.539 135.474 602.274 136.772 604.148 137.785C604.713 138.03 605.229 138.397 605.665 138.864C605.878 139.1 606.015 139.406 606.055 139.736C606.096 140.066 606.037 140.401 605.887 140.691C605.456 141.352 604.462 141.381 604.135 142.129C603.703 143.064 604.789 143.985 605.73 144.158C606.731 144.346 607.76 144.242 608.713 143.856C609.38 143.478 610.109 143.253 610.858 143.194C611.597 143.368 612.293 143.717 612.898 144.215C614.965 145.51 621.387 145.553 620.982 141.611C620.602 137.957 616.064 134.332 613.421 132.822Z" fill="#F7AF87"/>
<path d="M579 162.113C579 162.113 608.91 174.427 612.333 173.792C615.756 173.157 610.223 143.663 610.223 143.663L620.423 139C620.423 139 643.42 184.551 624.589 191.174C612.944 195.068 600.327 194.934 588.767 190.796L579 162.113Z" fill="#FFB443"/>
<path d="M595.613 145.234C595.503 147.805 594.85 150.331 593.691 152.667C592.557 154.409 591.003 155.881 589.152 156.968C587.301 158.055 585.204 158.728 583.025 158.932C581.438 159.027 579.861 159.233 578.307 159.549C577.587 159.686 576.914 159.987 576.35 160.425C575.785 160.863 575.346 161.424 575.072 162.058C573.814 164.894 572.515 167.771 568.46 166.812C568.079 166.733 567.71 166.614 567.358 166.457C566.084 165.901 564.937 165.12 563.982 164.159C562.792 163.04 561.758 161.787 560.902 160.429C560.459 159.801 560.161 159.094 560.026 158.354C559.943 157.445 560.058 156.529 560.365 155.662C561.778 150.409 562.004 144.459 564.01 139.337C566.064 134.145 569.987 129.774 575.114 126.966C580.186 124.221 587.235 124.182 591.544 127.925C593.901 130.119 595.394 132.987 595.782 136.067C596.121 139.118 596.064 142.196 595.613 145.234Z" fill="#F7AF87"/>
<path d="M560.758 139.561C561.042 137.433 561.027 135.27 561.58 133.175C561.998 131.035 563.413 129.079 565.569 127.661C566.11 127.335 566.715 127.075 567.362 126.891C567.944 126.732 568.557 126.642 569.154 126.517C570.91 126.043 572.585 125.412 574.144 124.638C576.508 123.564 579.094 122.798 581.793 122.373C583.617 122.162 585.46 122.063 587.305 122.079C590.692 122.033 594.093 122.011 597.509 122.011C598.31 121.965 599.115 122.066 599.854 122.305C600.666 122.685 601.259 123.284 601.513 123.981C602.162 125.543 602.162 127.219 601.513 128.782C600.851 130.328 599.975 131.815 598.898 133.221C598.373 134.106 597.633 134.909 596.717 135.587C595.925 134.545 595.223 133.47 594.506 132.383C592.22 134.183 588.62 134.647 585.333 134.455C582.047 134.262 578.82 133.617 575.533 133.583C574.752 133.52 573.961 133.575 573.208 133.744C572.454 133.913 571.752 134.193 571.141 134.568C570.405 135.218 569.892 135.996 569.647 136.833C568.956 138.696 568.393 140.586 567.959 142.494C567.571 141.939 566.002 140.49 565.18 140.513C564.943 140.53 564.714 140.584 564.505 140.672C564.297 140.759 564.115 140.879 563.97 141.022C562.611 142.154 563.283 146.31 564.538 147.51C564.79 147.692 564.979 147.917 565.091 148.167C565.116 148.334 565.097 148.503 565.036 148.664C564.974 148.825 564.871 148.976 564.732 149.107C564.387 149.416 563.949 149.657 563.455 149.811C562.961 149.965 562.426 150.026 561.894 149.99C560.579 149.99 560.325 148.088 560.191 147.386C559.638 144.77 560.43 142.132 560.758 139.561Z" fill="#606060"/>
<path d="M470 301V92H521V301H470Z" fill="#981921"/>
<path d="M473 303L473 94H523V303H473Z" fill="#E52440"/>
<rect width="401" height="8" transform="matrix(1 0 0 -1 27 337)" fill="#FFB443"/>
</g>
<defs>
<clipPath id="clip0_2214_17480">
<rect width="680" height="395" fill="white"/>
</clipPath>
</defs>
</svg>
