<svg width="216" height="163" viewBox="0 0 216 163" fill="none" xmlns="http://www.w3.org/2000/svg">
<g clip-path="url(#clip0_1532_21204)">
<path opacity="0.18" d="M205.568 140.258C203.929 143.186 202.053 146.022 199.604 148.309C198.18 149.619 196.62 150.772 194.952 151.75C193.702 152.511 192.404 153.194 191.097 153.846C182.983 157.908 174.45 161.065 165.447 162.276C156.062 163.543 146.526 162.984 137.167 161.825C124.572 160.273 112.101 157.624 99.4389 156.878C90.3067 156.335 81.1435 156.78 72.0475 157.468C63.7784 158.089 55.3284 158.897 47.1472 157.732C45.7001 157.525 44.2581 157.256 42.8265 156.915C30.3299 153.924 19.4973 145.277 12.882 134.25C7.11434 124.641 0.628263 106.364 5.67759 95.5853C11.0577 84.108 25.632 76.3151 35.1776 68.7964C39.0434 65.7537 42.8679 62.4005 45.0695 57.997C47.5193 53.0863 47.7001 47.4045 48.7183 42.0074C52.0156 24.5328 65.2307 9.28324 82.0479 3.54978C105.698 -4.51742 134.247 0.833116 148.201 23.0011C148.89 24.0878 149.531 25.1952 150.123 26.3232C154.087 33.6867 158.124 41.7021 161.188 49.4123C164.289 57.257 171.008 63.9012 177.21 69.3707C184.037 75.425 191.459 80.8118 197.883 87.2904C204.307 93.769 209.8 101.588 211.589 110.54C213.547 120.661 210.612 131.254 205.568 140.258Z" fill="#FFB443"/>
<path opacity="0.18" d="M194.947 151.75C193.696 152.511 192.399 153.194 191.092 153.846C182.978 157.908 174.445 161.065 165.442 162.276C156.056 163.543 146.521 162.984 137.162 161.825C124.567 160.273 112.096 157.624 99.4337 156.878C90.3015 156.335 81.1383 156.78 72.0423 157.468C63.7732 158.089 55.3232 158.897 47.142 157.732L45.1057 131.259L148.671 106.897L194.947 151.75Z" fill="#FFB443"/>
<path d="M43.9791 121.189L107.889 92.0924C108.576 91.7161 109.331 91.4802 110.11 91.3985C110.889 91.3167 111.676 91.3908 112.427 91.6163L148.935 96.5788C151.002 97.2049 150.485 105.727 148.676 106.897L89.3145 144.894C88.1453 145.644 86.8146 146.105 85.4325 146.238C84.0503 146.371 82.6563 146.173 81.3658 145.66L45.1058 131.254C43.116 130.467 42.103 122.219 43.9791 121.189Z" fill="white"/>
<path d="M43.9791 121.189L107.889 92.0924C108.576 91.7161 109.331 91.4802 110.11 91.3985C110.889 91.3167 111.676 91.3908 112.427 91.6163L148.935 96.5788C151.002 97.2049 150.485 105.727 148.676 106.897L89.3145 144.894C88.1453 145.644 86.8146 146.105 85.4325 146.238C84.0503 146.371 82.6563 146.173 81.3658 145.66L45.1058 131.254C43.116 130.467 42.103 122.219 43.9791 121.189Z" fill="url(#paint0_linear_1532_21204)"/>
<path d="M44.8371 120.454L107.889 85.8622C108.576 85.4859 109.331 85.25 110.11 85.1683C110.889 85.0865 111.677 85.1606 112.427 85.3861L148.041 96.0976C148.505 96.2372 148.919 96.5073 149.234 96.8756C149.55 97.2439 149.753 97.6951 149.82 98.1755C149.887 98.656 149.814 99.1456 149.612 99.5863C149.409 100.027 149.084 100.4 148.676 100.662L89.3145 138.664C88.1438 139.41 86.8131 139.868 85.4315 140.001C84.0498 140.133 82.6566 139.935 81.3658 139.425L45.1058 125.024C44.6612 124.845 44.2764 124.543 43.9965 124.154C43.7166 123.764 43.553 123.303 43.5249 122.824C43.4967 122.345 43.6051 121.868 43.8374 121.449C44.0698 121.029 44.4164 120.684 44.8371 120.454V120.454Z" fill="white"/>
<path opacity="0.52" d="M48.3358 119.921L107.124 87.6733C107.764 87.3225 108.467 87.1025 109.193 87.0261C109.919 86.9497 110.653 87.0184 111.352 87.2283L144.583 97.2153C145.016 97.3457 145.403 97.5978 145.697 97.9417C145.991 98.2857 146.18 98.7069 146.242 99.1554C146.304 99.6038 146.236 100.061 146.047 100.472C145.857 100.883 145.554 101.231 145.172 101.474L89.8002 136.894C88.7106 137.592 87.4708 138.021 86.1832 138.145C84.8955 138.27 83.5968 138.085 82.3941 137.608L48.589 124.154C48.1815 123.984 47.8299 123.703 47.5741 123.343C47.3184 122.983 47.1688 122.558 47.1424 122.117C47.116 121.676 47.2139 121.236 47.4249 120.848C47.6358 120.46 47.9515 120.139 48.3358 119.921V119.921Z" fill="#FFB443"/>
<path d="M99.3718 94.1985L107.212 89.8518L139.529 102.312L130.856 107.151L99.3718 94.1985Z" fill="white"/>
<path d="M88.7769 100.527L96.617 96.1803L128.934 108.646L120.261 113.484L88.7769 100.527Z" fill="white"/>
<path d="M78.1821 106.861L86.0223 102.514L118.344 114.975L109.672 119.813L78.1821 106.861Z" fill="white"/>
<path d="M67.5874 113.189L75.4327 108.843L107.749 121.308L99.0772 126.146L67.5874 113.189Z" fill="white"/>
<path d="M56.9978 119.523L64.838 115.176L97.1546 127.637L88.4824 132.475L56.9978 119.523Z" fill="white"/>
<path d="M66.4504 54.2919C66.4504 54.2919 63.0032 54.8405 61.644 56.2997C60.2848 57.7589 52.9149 69.5053 52.9149 69.5053C52.9149 69.5053 50.1499 72.4238 52.9149 73.3707C55.6799 74.3177 56.481 74.0227 56.6257 73.3707C56.7704 72.7187 57.0598 71.6941 57.0598 71.6941C57.0598 71.6941 57.3544 71.5492 57.7162 70.8196C57.9529 70.3958 58.0775 69.9184 58.0779 69.4328C58.0129 69.1084 57.9159 68.7912 57.7885 68.4859L63.9904 60.7654L66.0576 59.1612L66.4504 54.2919Z" fill="#FFBBAB"/>
<path d="M89.3455 48.7189C89.3801 48.9465 89.3589 49.1792 89.2835 49.3968C89.1361 49.6184 88.9443 49.807 88.7202 49.9504C88.22 50.4644 87.7732 51.0279 87.3868 51.6322C86.932 52.1962 86.2394 52.6671 85.5417 52.5067C85.3458 52.4351 85.1432 52.3831 84.9371 52.3515C84.7314 52.3698 84.5343 52.4421 84.3655 52.5611C84.1967 52.6801 84.0623 52.8417 83.9758 53.0293C83.8079 53.4114 83.5754 53.7615 83.2884 54.0643C82.6786 54.5817 81.7845 54.3385 81.0402 54.0953C80.6105 54.0032 80.2265 53.7634 79.9549 53.4174C79.8352 53.1818 79.7732 52.9211 79.774 52.6568C79.774 52.0255 79.8102 51.3942 79.8102 50.768C79.8102 48.7448 79.19 46.7111 79.5776 44.7241C79.7908 43.6297 80.3202 42.6222 81.1003 41.8264C81.8803 41.0307 82.8766 40.4819 83.9654 40.2481C84.9273 40.106 85.9097 40.2482 86.792 40.6572C87.6743 41.0663 88.4181 41.7244 88.9321 42.5508C90.0019 44.217 89.2525 46.7991 89.3455 48.7189Z" fill="#FFBBAB"/>
<path d="M88.7097 62.2298C88.7097 62.2298 92.2034 66.0176 93.4386 66.1625C94.6738 66.3074 104.292 55.746 104.292 55.746C104.623 55.7059 104.937 55.5736 105.197 55.3642C105.458 55.1548 105.654 54.8765 105.765 54.561C105.979 53.9417 106.053 53.2824 105.982 52.6309C105.977 52.4411 105.946 52.253 105.889 52.072C105.752 51.7773 105.551 51.5173 105.3 51.3114C105.034 51.0362 104.725 50.8071 104.385 50.6335C104.217 50.5442 104.03 50.4976 103.84 50.4976C103.649 50.4976 103.462 50.5442 103.294 50.6335C103.074 50.7931 102.897 51.0046 102.778 51.2493C102.405 51.8857 102.028 52.6516 102.333 53.3191C102.402 53.4288 102.447 53.5525 102.462 53.6813C102.443 53.8384 102.366 53.9824 102.245 54.085C99.783 56.7755 96.882 59.0275 93.666 60.7447C93.5709 60.8042 93.4627 60.8397 93.3507 60.8482C93.2055 60.8364 93.0679 60.7783 92.958 60.6826C92.2654 60.2013 91.5884 59.7046 90.9165 59.1975C89.9876 60.052 89.2375 61.0827 88.7097 62.2298V62.2298Z" fill="#FFBBAB"/>
<path d="M77.8823 52.8482L77.5257 53.5106C76.6471 55.1837 75.7651 56.8534 74.8796 58.5196C74.4144 59.3941 73.7891 61.4018 72.8847 61.8779C72.4625 62.0647 71.9924 62.1135 71.5409 62.0176C70.1972 61.8365 68.533 60.9827 67.5511 60.7291C67.207 60.6137 66.8415 60.5766 66.4813 60.6205C65.9703 60.7925 65.5282 61.1245 65.2202 61.5674C63.625 63.4165 61.9402 65.1828 60.1657 66.8662C59.8136 67.2381 59.4012 67.5477 58.9461 67.7821C57.9486 68.2271 56.8788 67.9218 55.8451 67.4044C55.4367 67.2025 55.0399 66.9779 54.6565 66.7317C54.4202 66.6118 54.2284 66.4197 54.1086 66.1832C53.9381 65.7382 54.2998 65.2828 54.6254 64.9309C55.9031 63.5426 57.0037 62.0008 57.9021 60.341C58.7342 58.7887 59.4525 57.1173 60.7756 55.9996C63.3855 53.821 67.7785 54.1263 71.0293 53.7176C71.5926 53.6451 74.5953 53.5727 76.4404 53.3036C77.1846 53.1949 77.7376 53.0552 77.872 52.8741L77.8823 52.8482Z" fill="#FFB443"/>
<path d="M83.5984 79.6423C83.5984 79.6423 93.2268 80.434 94.3896 82.9851C95.5525 85.5362 96.7205 101.267 96.7205 101.267L91.2577 103.109L90.0225 89.1946C90.0225 89.1946 74.3991 88.6203 72.4972 86.5504C71.3186 85.2295 70.503 83.6247 70.1301 81.8933L83.5984 79.6423Z" fill="#282328"/>
<path d="M82.9833 81.4948C82.9833 81.4948 81.7275 95.5853 80.1253 96.7547C78.5232 97.9242 69.0189 111.663 69.0189 111.663L63.9592 108.848L71.8356 93.9863L72.833 82.509L82.9833 81.4948Z" fill="#473F47"/>
<path d="M86.8904 58.3954C86.8904 58.3954 86.8904 58.442 86.8904 58.4678C86.601 60.4187 86.3064 62.3747 86.017 64.3203L85.955 64.7343C85.4864 67.8701 85.0195 71.0042 84.5544 74.1365C84.2288 76.2995 83.9084 78.4625 83.3916 80.5789C83.3349 80.9145 83.1964 81.2308 82.9884 81.5C82.7198 81.7519 82.3842 81.9208 82.022 81.9864C79.686 82.6125 77.2311 82.5401 74.7865 82.4573C73.2188 82.4719 71.6557 82.2858 70.1351 81.9036C69.5511 81.7277 68.9103 81.3862 68.7811 80.817C68.7475 80.6166 68.7475 80.4119 68.7811 80.2115C69.0602 78.0175 69.8147 75.8907 69.9749 73.6812C70.037 72.7084 69.9749 71.7252 70.068 70.7524C70.1455 69.9451 70.316 69.1482 70.4556 68.3513C70.5331 67.9374 70.6003 67.5234 70.6416 67.1043C70.7295 66.2298 70.7088 65.3501 70.8484 64.4807C71.0011 63.6487 71.2312 62.8327 71.5357 62.0435C71.5357 62.0073 71.5357 61.9762 71.5719 61.94C72.0887 60.5015 72.6055 59.0681 73.1585 57.6606C73.5551 56.5954 74.1034 55.5932 74.7865 54.6852C75.0351 54.3768 75.3158 54.0958 75.6238 53.8469C75.876 53.6473 76.1478 53.4739 76.4352 53.3295C76.7992 53.1356 77.1917 53.0011 77.598 52.931C77.6869 52.9156 77.7767 52.9052 77.8668 52.9C78.4556 52.8595 79.0472 52.889 79.6291 52.9879C81.2519 53.2001 83.5983 53.2311 85.2263 54.1367C85.8872 54.4759 86.4204 55.0206 86.7457 55.6891C87.0531 56.5585 87.1033 57.4981 86.8904 58.3954Z" fill="#FFB443"/>
<path d="M103.837 56.962C103.873 57.5364 103.424 57.997 103 58.4109L94.9115 66.059C94.7927 66.1728 94.6686 66.2867 94.5394 66.3953C94.3185 66.5943 94.065 66.7536 93.79 66.8662C93.5753 66.9408 93.3505 66.9827 93.1233 66.9904C92.7581 66.99 92.394 66.9483 92.038 66.8662C89.8716 66.4385 87.8178 65.5645 86.0067 64.2996C83.4226 62.4109 81.9652 59.6063 83.464 55.8805C83.5876 55.5555 83.7398 55.242 83.9188 54.9439C84.0328 54.6906 84.2171 54.4754 84.4499 54.324C84.6826 54.1726 84.954 54.0914 85.2315 54.0901C85.7741 54.1669 86.2825 54.4007 86.6941 54.7628C87.9913 55.746 89.2317 56.7913 90.4669 57.8676C90.8287 58.1729 91.2214 58.5144 91.6297 58.8352C92.2094 59.3153 92.8552 59.7092 93.5471 60.0047C93.7003 60.0762 93.8704 60.1031 94.0381 60.0823C94.1774 60.039 94.306 59.9667 94.4154 59.8702C96.7066 58.1074 99.003 56.3566 101.305 54.6179C101.398 54.5234 101.512 54.451 101.637 54.4063C101.762 54.3615 101.896 54.3454 102.028 54.3592C102.201 54.4323 102.346 54.5593 102.442 54.7214L103.351 55.9478C103.463 56.0922 103.565 56.2444 103.656 56.4032C103.758 56.5731 103.82 56.7643 103.837 56.962Z" fill="#FFB443"/>
<path d="M78.9108 62.5351C78.4618 62.7527 78.0824 63.0914 77.8151 63.5131C77.0709 64.5946 76.5334 65.9141 75.4998 66.7627C74.125 67.8856 72.1714 67.8753 70.4504 68.3513C70.528 67.9374 70.5951 67.5234 70.6365 67.1043C70.7243 66.2298 70.7037 65.3501 70.8432 64.4807C70.996 63.6487 71.2261 62.8327 71.5306 62.0435C70.1869 61.8624 68.5227 61.0086 67.5407 60.755C67.1966 60.6396 66.8312 60.6025 66.4709 60.6464C65.96 60.8183 65.5179 61.1503 65.2099 61.5933C63.6146 63.4424 61.9298 65.2086 60.1554 66.8921C59.8032 67.2639 59.3908 67.5736 58.9357 67.808C57.9382 68.253 56.8684 67.9477 55.8348 67.4303C55.8295 67.3994 55.8295 67.3679 55.8348 67.3371C55.8408 67.162 55.9128 66.9956 56.0363 66.8714C58.5997 63.6583 61.4791 60.7112 64.6311 58.0746C67.4529 55.6529 71.1016 54.7939 74.6728 54.0643L75.6341 53.8728C76.2646 53.7538 76.8952 53.6451 77.5309 53.5623C78.8239 53.3631 80.1398 53.3631 81.4328 53.5623C82.3887 53.7669 83.2605 54.2557 83.9342 54.9646C85.0092 55.9996 85.8982 57.376 86.906 58.3954L87.1799 58.6645C89.3787 60.6164 91.7119 62.4113 94.1621 64.0357C94.3291 64.1803 94.5409 64.2626 94.7616 64.2686C94.9439 64.2339 95.1125 64.1477 95.2474 64.0202C97.6961 62.064 100.019 59.9555 102.204 57.7072C102.6 57.2768 103.027 56.8756 103.48 56.5067C103.531 56.4656 103.587 56.4308 103.646 56.4032C103.748 56.5731 103.81 56.7643 103.827 56.962C103.863 57.5364 103.413 57.997 102.989 58.4109L94.9115 66.059C94.7926 66.1728 94.6686 66.2867 94.5394 66.3953L94.4567 66.4367C94.0276 66.6565 93.5817 66.8416 93.1233 66.9904C92.758 66.99 92.3939 66.9484 92.038 66.8662C89.8716 66.4385 87.8177 65.5645 86.0067 64.2996L85.9447 64.7136C85.8504 64.649 85.7606 64.5781 85.6759 64.5014C85.3452 64.2065 85.0919 63.8391 84.7715 63.5338C83.7379 62.5506 82.1874 62.3695 80.7817 62.2764C77.9391 62.0952 78.2492 64.7912 77.8668 67.0577C77.4327 69.6484 77.1243 72.2564 76.9417 74.8817C76.8073 76.7652 76.7401 78.6902 76.0838 80.4599C75.9231 81.0301 75.5684 81.5261 75.0811 81.8622C74.7224 82.0392 74.3285 82.1329 73.9286 82.1365C72.6289 82.218 71.3242 82.117 70.0525 81.8364C69.807 81.8149 69.5703 81.7351 69.3618 81.6037C69.1532 81.4724 68.979 81.2931 68.8535 81.0809C68.7667 80.7905 68.7667 80.4812 68.8535 80.1908L71.0965 67.9529" fill="url(#paint1_linear_1532_21204)" fill-opacity="0.2"/>
<path d="M63.5612 110.457C63.0857 110.892 62.4914 111.264 62.2795 111.87C62.1769 112.205 62.1591 112.561 62.2278 112.905C62.4345 114.162 63.2253 115.238 63.985 116.263L64.8636 117.438L66.3262 119.399C66.6599 119.906 67.0838 120.348 67.5769 120.703C68.375 121.108 69.2686 121.287 70.161 121.22C70.5463 121.252 70.9339 121.2 71.298 121.07C71.4774 121.002 71.6313 120.88 71.7387 120.72C71.846 120.561 71.9015 120.372 71.8975 120.18C71.8458 119.663 71.2825 119.404 70.8638 119.145C69.546 118.286 69.0653 116.62 68.6829 115.094C68.4193 114.059 68.1661 112.925 68.4348 111.875C68.5278 111.518 68.6829 111.176 68.7604 110.814C68.8048 110.639 68.8125 110.457 68.7832 110.279C68.7538 110.101 68.688 109.931 68.5898 109.779C68.4076 109.573 68.1765 109.417 67.918 109.324C67.1352 108.984 66.317 108.732 65.4786 108.574C64.5587 108.32 64.1555 109.909 63.5612 110.457Z" fill="#FFBBAB"/>
<path d="M92.8133 104.522C92.7875 105.241 92.9736 106.074 93.5989 106.421C93.9064 106.581 94.2502 106.657 94.5964 106.643C95.3935 106.659 96.1847 106.504 96.9169 106.188C98.2038 105.629 99.2529 104.605 100.535 104.072C100.905 103.957 101.254 103.782 101.568 103.554C101.724 103.438 101.837 103.273 101.889 103.086C101.942 102.899 101.93 102.7 101.858 102.519C101.728 102.297 101.475 102.173 101.31 102.002C101.144 101.831 101.072 101.484 100.85 101.329C100.467 101.044 99.9455 101.329 99.5372 101.577C98.7671 102.039 97.9103 102.337 97.0203 102.452C96.8958 102.478 96.7674 102.478 96.643 102.452C96.1675 102.302 96.183 101.567 95.7747 101.283C95.1855 100.884 93.6506 101.728 93.2423 102.219C92.7823 102.762 92.8289 103.803 92.8133 104.522Z" fill="#FFBBAB"/>
<path d="M90.7822 44.543C90.0019 45.6348 88.6478 46.2403 87.9966 47.4097C87.3454 48.5792 87.5108 50.3644 86.4875 51.3528C86.0676 51.7212 85.5544 51.9665 85.0042 52.0617C84.3789 52.2066 83.7018 52.2583 83.0868 52.4187C82.6826 52.4944 82.3171 52.7084 82.0532 53.0242C81.7379 53.4692 82.0532 54.0953 82.0842 54.5765C82.1837 55.3292 82.1452 56.0938 81.9705 56.8327C81.8155 57.3138 81.5615 57.7571 81.2251 58.1341C80.8886 58.5111 80.4771 58.8134 80.0169 59.0215C79.094 59.4391 78.0808 59.6171 77.071 59.539C76.8484 59.5046 76.6205 59.5351 76.4147 59.627C76.2935 59.7315 76.1961 59.861 76.1293 60.0065C76.0624 60.152 76.0275 60.3102 76.0271 60.4704C75.7997 62.1004 75.3862 63.8391 74.1355 64.905C73.5862 65.3472 72.9507 65.6698 72.2698 65.852C71.0651 66.2177 69.7888 66.2796 68.5544 66.0323C67.32 65.7849 66.1659 65.2359 65.1945 64.4342C64.6635 63.9718 64.2083 63.4287 63.8456 62.8249C63.3722 62.0534 63.0642 61.1917 62.9415 60.2946C62.8187 59.3975 62.8837 58.4846 63.1324 57.614C63.6492 55.9996 64.8121 54.4368 64.4193 52.7913C64.2746 52.1962 63.9335 51.6684 63.7526 51.0837C63.5467 50.2015 63.5361 49.2848 63.7216 48.3981C63.7859 47.5957 64.024 46.817 64.4193 46.1161C64.8698 45.4711 65.4858 44.9598 66.2023 44.6361C69.1534 43.1717 72.7504 43.3994 75.6343 41.7953C78.1564 40.3878 79.9652 37.6556 82.7871 37.0295C83.6117 36.8452 84.4633 36.8154 85.2988 36.9415C86.1205 37.0812 86.5805 37.6504 87.3351 37.8936C87.7915 37.9661 88.2529 38.0025 88.715 38.0023C89.4337 38.1731 90.056 38.6214 90.4463 39.2494C90.824 39.7726 91.1041 40.3599 91.2732 40.9829C91.4605 41.5755 91.5136 42.2026 91.4287 42.8184C91.3438 43.4342 91.123 44.0233 90.7822 44.543V44.543Z" fill="#981921"/>
<path d="M90.7821 44.543C90.0017 45.6348 88.6476 46.2403 87.9964 47.4097C87.3452 48.5792 87.5106 50.3644 86.4873 51.3528C86.0675 51.7212 85.5542 51.9665 85.004 52.0617C84.3787 52.2066 83.7016 52.2583 83.0866 52.4187C82.6824 52.4944 82.317 52.7084 82.053 53.0242C81.7377 53.4692 82.053 54.0953 82.084 54.5765C82.1835 55.3293 82.145 56.0938 81.9703 56.8327C81.8153 57.3138 81.5614 57.7571 81.2249 58.1341C80.8884 58.5111 80.4769 58.8134 80.0167 59.0215C79.0938 59.4391 78.0806 59.6171 77.0709 59.539C76.8482 59.5046 76.6203 59.5351 76.4145 59.627C76.2933 59.7315 76.196 59.861 76.1291 60.0065C76.0622 60.152 76.0274 60.3102 76.0269 60.4704C75.7995 62.1004 75.386 63.8391 74.1353 64.9051C73.586 65.3472 72.9506 65.6698 72.2696 65.852C71.0649 66.2177 69.7886 66.2796 68.5542 66.0323C67.3199 65.7849 66.1657 65.2359 65.1944 64.4342C64.6633 63.9718 64.2081 63.4287 63.8455 62.8249C64.7912 63.2564 65.7996 63.5341 66.8327 63.6476C67.9872 63.6957 69.1402 63.52 70.2282 63.1302C71.4645 62.7873 72.6029 62.1581 73.5513 61.2932C74.021 60.8568 74.3783 60.3131 74.5925 59.7084C74.8067 59.1038 74.8715 58.4562 74.7814 57.821C75.8807 57.7169 76.9051 57.2178 77.6652 56.4158C78.4253 55.6139 78.8696 54.5634 78.9159 53.4588C78.0658 53.6419 77.2009 53.7475 76.3318 53.7745C78.7658 52.9733 80.9256 51.503 82.5647 49.5313C82.3433 49.845 82.1788 50.1954 82.0788 50.5662C82.561 50.6497 83.0561 50.6192 83.5244 50.4773C83.9928 50.3353 84.4216 50.0858 84.7766 49.7486C85.1268 49.4076 85.4051 48.9997 85.595 48.549C85.785 48.0984 85.8828 47.6142 85.8826 47.1251C85.8562 46.8796 85.901 46.6316 86.0118 46.411C86.1356 46.2668 86.2938 46.1564 86.4718 46.0902C87.9693 45.3455 89.2387 44.2104 90.1464 42.8043C90.4742 42.1683 90.8546 41.5607 91.2834 40.988C91.4684 41.5807 91.5194 42.2072 91.4327 42.8221C91.346 43.4369 91.1237 44.0248 90.7821 44.543Z" fill="url(#paint2_linear_1532_21204)" fill-opacity="0.5"/>
<path d="M122.639 34.0282L97.3975 45.1225V24.155L122.639 13.0607V34.0282Z" stroke="white" stroke-width="0.971429" stroke-miterlimit="10"/>
<path d="M119.714 28.2792C119.695 28.8895 119.496 29.4805 119.14 29.9765C118.8 30.4905 118.316 30.8935 117.75 31.1356L104.271 36.5172C103.186 36.9518 102.307 36.3723 102.307 35.2235C102.325 34.6132 102.525 34.0223 102.881 33.5263C103.222 33.0121 103.705 32.6078 104.271 32.362L104.731 32.1809C104.634 31.8444 104.586 31.496 104.586 31.1459C104.627 29.9428 105.02 28.7783 105.718 27.798C106.389 26.7812 107.338 25.9798 108.452 25.4901L109.599 25.0347C111.093 24.4396 112.39 24.8174 113.036 25.8678C113.336 25.5778 113.687 25.3446 114.07 25.1796L114.365 25.0606C115.651 24.5431 116.695 25.2314 116.695 26.613V26.7372C116.694 26.9778 116.664 27.2174 116.608 27.4513L117.724 27.0063C118.835 26.5509 119.714 27.1304 119.714 28.2792Z" fill="white"/>
<path opacity="0.82" d="M137.828 75.7614C137.828 76.654 137.524 77.5199 136.966 78.2161C136.407 78.9122 135.629 79.3969 134.758 79.59C133.888 79.7832 132.978 79.6733 132.178 79.2785C131.378 78.8837 130.737 78.2277 130.36 77.4187C129.984 76.6097 129.894 75.6961 130.105 74.829C130.317 73.9619 130.818 73.193 131.525 72.6494C132.232 72.1058 133.103 71.82 133.995 71.8392C134.886 71.8584 135.744 72.1814 136.428 72.7549C136.866 73.1231 137.219 73.5832 137.461 74.1026C137.703 74.622 137.828 75.1882 137.828 75.7614Z" fill="#FFB443"/>
<path opacity="0.55" d="M136.65 74.0589C136.651 74.8055 136.44 75.5368 136.04 76.167C135.64 76.7971 135.069 77.2997 134.393 77.6156C133.718 77.9315 132.966 78.0476 132.227 77.9501C131.487 77.8526 130.791 77.5456 130.221 77.0654C129.938 76.2559 129.928 75.3761 130.193 74.5605C130.457 73.745 130.982 73.0387 131.685 72.5497C132.389 72.0608 133.233 71.8161 134.088 71.8532C134.944 71.8902 135.764 72.207 136.422 72.7549C136.572 73.1733 136.649 73.6144 136.65 74.0589Z" fill="white"/>
<path opacity="0.82" d="M133.322 63.0318C133.322 63.42 133.207 63.7993 132.991 64.122C132.776 64.4446 132.469 64.6959 132.111 64.8442C131.753 64.9925 131.359 65.031 130.979 64.955C130.599 64.8789 130.25 64.6916 129.976 64.4168C129.702 64.142 129.516 63.792 129.441 63.4113C129.366 63.0305 129.406 62.636 129.555 62.2777C129.704 61.9195 129.956 61.6135 130.278 61.3987C130.601 61.1838 130.98 61.0696 131.368 61.0707C131.887 61.072 132.383 61.2793 132.75 61.6469C133.116 62.0146 133.322 62.5126 133.322 63.0318V63.0318Z" fill="#FFB443"/>
<path opacity="0.55" d="M132.732 62.1832C132.732 62.5558 132.625 62.9204 132.424 63.2345C132.224 63.5485 131.939 63.7989 131.601 63.9563C131.264 64.1137 130.889 64.1717 130.52 64.1235C130.151 64.0752 129.803 63.9227 129.518 63.6838C129.42 63.3893 129.393 63.0758 129.439 62.7689C129.486 62.462 129.604 62.1705 129.784 61.9181C129.965 61.6657 130.202 61.4597 130.478 61.3169C130.753 61.1741 131.058 61.0986 131.368 61.0965C131.828 61.0955 132.273 61.2588 132.624 61.5571C132.695 61.7583 132.731 61.9699 132.732 62.1832V62.1832Z" fill="white"/>
<path opacity="0.82" d="M151.079 54.5921C151.079 55.0382 150.927 55.471 150.648 55.819C150.369 56.1669 149.98 56.4092 149.545 56.5059C149.11 56.6025 148.655 56.5478 148.255 56.3507C147.855 56.1535 147.535 55.8258 147.346 55.4216C147.157 55.0174 147.112 54.5609 147.217 54.1274C147.323 53.6939 147.573 53.3093 147.926 53.0371C148.279 52.765 148.714 52.6216 149.16 52.6305C149.605 52.6394 150.035 52.8002 150.376 53.0863C150.597 53.2704 150.774 53.5007 150.895 53.7609C151.017 54.0211 151.079 54.3049 151.079 54.5921V54.5921Z" fill="#FFB443"/>
<path opacity="0.55" d="M150.485 53.7382C150.485 54.1113 150.379 54.4766 150.179 54.7914C149.979 55.1062 149.694 55.3573 149.356 55.5154C149.019 55.6735 148.643 55.7319 148.274 55.6839C147.905 55.6358 147.556 55.4832 147.271 55.2441C147.128 54.8391 147.123 54.3987 147.255 53.9903C147.387 53.582 147.649 53.2282 148.001 52.9832C148.353 52.7383 148.775 52.6157 149.203 52.6343C149.632 52.6529 150.042 52.8117 150.371 53.0862C150.446 53.2956 150.484 53.516 150.485 53.7382V53.7382Z" fill="white"/>
<g opacity="0.82">
<path opacity="0.82" d="M137.518 74.5764L137.11 74.4263L141.089 63.2388L132.913 62.8248L132.934 62.3954L141.694 62.8352L137.518 74.5764Z" fill="#FFB443"/>
</g>
<path d="M147.074 63.2492H141.389V62.8197H146.743L148.619 55.746L149.038 55.8598L147.074 63.2492Z" fill="#FFB443"/>
</g>
<defs>
<linearGradient id="paint0_linear_1532_21204" x1="89.6142" y1="87.0834" x2="117.033" y2="187.691" gradientUnits="userSpaceOnUse">
<stop offset="0.01"/>
<stop offset="0.13" stop-opacity="0.69"/>
<stop offset="0.25" stop-opacity="0.32"/>
<stop offset="1" stop-opacity="0"/>
</linearGradient>
<linearGradient id="paint1_linear_1532_21204" x1="7258.39" y1="461.676" x2="7599.58" y2="8626.42" gradientUnits="userSpaceOnUse">
<stop offset="0.01"/>
<stop offset="0.13" stop-opacity="0.69"/>
<stop offset="0.25" stop-opacity="0.32"/>
<stop offset="1" stop-opacity="0"/>
</linearGradient>
<linearGradient id="paint2_linear_1532_21204" x1="3950.32" y1="2326.75" x2="4895.48" y2="3435.46" gradientUnits="userSpaceOnUse">
<stop offset="0.01"/>
<stop offset="0.13" stop-opacity="0.69"/>
<stop offset="0.25" stop-opacity="0.32"/>
<stop offset="1" stop-opacity="0"/>
</linearGradient>
<clipPath id="clip0_1532_21204">
<rect width="216" height="163" fill="white"/>
</clipPath>
</defs>
</svg>
