<svg width="76" height="58" viewBox="0 0 76 58" fill="none" xmlns="http://www.w3.org/2000/svg">
<path d="M67.1393 6.32336H15.5665C14.2482 6.32336 13.1794 7.38685 13.1794 8.69873V43.5717C13.1794 44.8836 14.2482 45.9471 15.5665 45.9471H67.1393C68.4577 45.9471 69.5264 44.8836 69.5264 43.5717V8.69873C69.5264 7.38685 68.4577 6.32336 67.1393 6.32336Z" fill="#FFB443"/>
<path d="M65.4121 7.67035H17.3061C16.0869 7.67035 15.0986 8.6538 15.0986 9.86695V41.8406C15.0986 43.0538 16.0869 44.0372 17.3061 44.0372H65.4121C66.6312 44.0372 67.6195 43.0538 67.6195 41.8406V9.86695C67.6195 8.6538 66.6312 7.67035 65.4121 7.67035Z" fill="white"/>
<path d="M48.1139 39.7166L39.8499 35.6048H13.3467V26.1104H51.3708L47.9894 32.9056L48.1139 39.7166Z" fill="url(#paint0_linear_1532_21890)"/>
<path d="M51.3707 12.3804V30.9143C51.3707 31.5623 51.1125 32.1838 50.6527 32.6427C50.1929 33.1016 49.569 33.3603 48.9178 33.3622H11.004C10.6812 33.3622 10.3616 33.2989 10.0634 33.1758C9.76523 33.0527 9.49439 32.8723 9.26639 32.6449C9.03838 32.4175 8.85768 32.1476 8.73464 31.8507C8.61159 31.5537 8.54862 31.2355 8.54932 30.9143V12.3804C8.54932 11.7325 8.80794 11.1113 9.26828 10.6532C9.72861 10.1951 10.353 9.93774 11.004 9.93774H48.9178C49.5683 9.93915 50.1916 10.197 50.6514 10.6548C51.1111 11.1127 51.3698 11.7331 51.3707 12.3804Z" fill="#FFB443"/>
<path d="M29.9227 14.6903C29.8121 14.7298 29.6905 14.7252 29.5833 14.6773C29.4762 14.6295 29.3919 14.5421 29.3481 14.4336L28.9177 13.2955C28.7946 12.9847 28.5536 12.7346 28.2466 12.5993C27.9397 12.464 27.5916 12.4544 27.2776 12.5726C26.9636 12.6908 26.709 12.9272 26.5689 13.2308C26.4287 13.5344 26.4144 13.8806 26.5288 14.1947L27.1247 15.7611C27.1343 15.787 27.1414 15.8136 27.1461 15.8408H26.2033L25.6964 14.508C25.5045 13.9758 25.5304 13.39 25.7684 12.8767C26.0064 12.3634 26.4375 11.9636 26.9688 11.7635C27.5002 11.5634 28.0893 11.5791 28.6092 11.807C29.129 12.035 29.5381 12.457 29.7484 12.9822L30.1806 14.1186C30.2015 14.1729 30.2114 14.2309 30.2097 14.2891C30.208 14.3473 30.1948 14.4046 30.1709 14.4577C30.1469 14.5108 30.1126 14.5587 30.0701 14.5986C30.0275 14.6385 29.9774 14.6696 29.9227 14.6903Z" fill="white"/>
<path d="M70.6435 45.5736H10.8102C9.62936 45.5736 8.67212 46.5262 8.67212 47.7012V47.9313C8.67212 49.1063 9.62936 50.0588 10.8102 50.0588H70.6435C71.8243 50.0588 72.7815 49.1063 72.7815 47.9313V47.7012C72.7815 46.5262 71.8243 45.5736 70.6435 45.5736Z" fill="#FFB443"/>
<path d="M70.6435 45.5736H10.8102C9.62936 45.5736 8.67212 46.5262 8.67212 47.7012V47.9313C8.67212 49.1063 9.62936 50.0588 10.8102 50.0588H70.6435C71.8243 50.0588 72.7815 49.1063 72.7815 47.9313V47.7012C72.7815 46.5262 71.8243 45.5736 70.6435 45.5736Z" fill="#981921"/>
<path d="M40.6006 33.2383L48.114 39.7166V31.8046L40.6006 33.2383Z" fill="#FFB443"/>
<path d="M44.2166 23.1032H15.1982C14.5901 23.1032 14.0972 23.5937 14.0972 24.1988V27.3247C14.0972 27.9298 14.5901 28.4203 15.1982 28.4203H44.2166C44.8247 28.4203 45.3176 27.9298 45.3176 27.3247V24.1988C45.3176 23.5937 44.8247 23.1032 44.2166 23.1032Z" fill="white"/>
<path d="M31.3136 15.8514H25.4705V21.2234H31.3136V15.8514Z" fill="#E52440"/>
<path d="M31.3065 15.8408H27.6423V21.2128H31.3065V15.8408Z" fill="#E52440"/>
<path d="M28.2525 18.3578C28.2525 18.3578 27.6762 17.8798 28.1796 17.4727C28.6829 17.0656 29.2468 17.9152 28.7132 18.3578L29.0885 19.3543H27.822L28.2525 18.3578Z" fill="#981921"/>
<path d="M18.5672 26.7477C19.1831 26.7477 19.6825 26.2508 19.6825 25.6379C19.6825 25.0249 19.1831 24.528 18.5672 24.528C17.9512 24.528 17.4519 25.0249 17.4519 25.6379C17.4519 26.2508 17.9512 26.7477 18.5672 26.7477Z" fill="#E52440"/>
<path d="M21.5752 26.7477C22.1912 26.7477 22.6905 26.2508 22.6905 25.6379C22.6905 25.0249 22.1912 24.528 21.5752 24.528C20.9593 24.528 20.46 25.0249 20.46 25.6379C20.46 26.2508 20.9593 26.7477 21.5752 26.7477Z" fill="#E52440"/>
<path d="M24.583 26.7477C25.199 26.7477 25.6983 26.2508 25.6983 25.6379C25.6983 25.0249 25.199 24.528 24.583 24.528C23.9671 24.528 23.4678 25.0249 23.4678 25.6379C23.4678 26.2508 23.9671 26.7477 24.583 26.7477Z" fill="#E52440"/>
<path d="M27.5909 26.7477C28.2068 26.7477 28.7061 26.2508 28.7061 25.6379C28.7061 25.0249 28.2068 24.528 27.5909 24.528C26.9749 24.528 26.4756 25.0249 26.4756 25.6379C26.4756 26.2508 26.9749 26.7477 27.5909 26.7477Z" fill="#E52440"/>
<path d="M30.8352 26.7477C31.4512 26.7477 31.9505 26.2508 31.9505 25.6379C31.9505 25.0249 31.4512 24.528 30.8352 24.528C30.2193 24.528 29.72 25.0249 29.72 25.6379C29.72 26.2508 30.2193 26.7477 30.8352 26.7477Z" fill="#E52440"/>
<path d="M33.8431 26.7477C34.459 26.7477 34.9583 26.2508 34.9583 25.6379C34.9583 25.0249 34.459 24.528 33.8431 24.528C33.2271 24.528 32.7278 25.0249 32.7278 25.6379C32.7278 26.2508 33.2271 26.7477 33.8431 26.7477Z" fill="#E52440"/>
<path d="M36.8509 26.7477C37.4668 26.7477 37.9661 26.2508 37.9661 25.6379C37.9661 25.0249 37.4668 24.528 36.8509 24.528C36.2349 24.528 35.7356 25.0249 35.7356 25.6379C35.7356 26.2508 36.2349 26.7477 36.8509 26.7477Z" fill="#E52440"/>
<path d="M39.8606 26.7477C40.4766 26.7477 40.9759 26.2508 40.9759 25.6379C40.9759 25.0249 40.4766 24.528 39.8606 24.528C39.2447 24.528 38.7454 25.0249 38.7454 25.6379C38.7454 26.2508 39.2447 26.7477 39.8606 26.7477Z" fill="#E52440"/>
<path d="M10.0489 8.20492C9.87588 8.20483 9.70669 8.15455 9.56199 8.06024C9.4173 7.96592 9.30338 7.83167 9.23419 7.67391L7.31315 3.2701C7.26643 3.16341 7.24129 3.0486 7.23916 2.93224C7.23703 2.81588 7.25795 2.70024 7.30073 2.59193C7.34351 2.48362 7.40731 2.38475 7.48849 2.30097C7.56966 2.21719 7.66663 2.15014 7.77385 2.10365C7.88106 2.05716 7.99643 2.03214 8.11337 2.03002C8.2303 2.0279 8.34651 2.04872 8.45535 2.09129C8.5642 2.13386 8.66356 2.19735 8.74775 2.27813C8.83194 2.35891 8.89932 2.4554 8.94604 2.56209L10.8653 6.96767C10.9244 7.10246 10.9488 7.24977 10.9364 7.39631C10.9239 7.54285 10.875 7.68399 10.7939 7.80697C10.7129 7.92995 10.6023 8.03089 10.4722 8.10068C10.3422 8.17047 10.1966 8.20691 10.0489 8.20669V8.20492Z" fill="#FFB443"/>
<path d="M1.42555 14.2424C1.18968 14.2502 0.960369 14.1644 0.788076 14.0039C0.615783 13.8434 0.514616 13.6214 0.506832 13.3866C0.499048 13.1519 0.585285 12.9237 0.74657 12.7523C0.907855 12.5808 1.13098 12.4802 1.36685 12.4724L6.17835 12.152C6.41422 12.1363 6.64672 12.2145 6.82468 12.3693C7.00264 12.5242 7.1115 12.743 7.12731 12.9778C7.14311 13.2125 7.06456 13.4438 6.90895 13.6209C6.75334 13.798 6.5334 13.9063 6.29752 13.9221L1.48425 14.2407L1.42555 14.2424Z" fill="#FFB443"/>
<path d="M6.54305 9.88643C6.36721 9.8859 6.19557 9.83287 6.05034 9.73421L2.05351 7.0367C1.86234 6.90319 1.73162 6.70021 1.68958 6.47159C1.64754 6.24298 1.69756 6.00708 1.82883 5.81486C1.9601 5.62263 2.16209 5.48951 2.39117 5.44423C2.62025 5.39896 2.85804 5.44517 3.05317 5.57289L7.04288 8.2704C7.19976 8.37694 7.31825 8.53065 7.381 8.70904C7.44375 8.88743 7.44746 9.08112 7.39159 9.26176C7.33572 9.4424 7.22321 9.60049 7.07052 9.7129C6.91783 9.82531 6.73299 9.88612 6.54305 9.88643Z" fill="#FFB443"/>
<path d="M47.3882 45.6143H34.3821V46.9436H47.3882V45.6143Z" fill="#981921"/>
<defs>
<linearGradient id="paint0_linear_1532_21890" x1="30.8637" y1="18.8675" x2="37.0822" y2="69.2551" gradientUnits="userSpaceOnUse">
<stop stop-opacity="0"/>
<stop offset="0.99"/>
</linearGradient>
</defs>
</svg>
