<svg width="134" height="100" viewBox="0 0 134 100" fill="none" xmlns="http://www.w3.org/2000/svg">
<path d="M21.6685 15.9357V25.9489C21.6609 26.4077 21.7447 26.8635 21.9151 27.2903C22.0855 27.717 22.3391 28.1064 22.6614 28.436C22.9838 28.7657 23.3686 29.0293 23.7939 29.2117C24.2191 29.3942 24.6765 29.4918 25.1399 29.4992H32.8634L36.3538 34.5042V29.4992H42.9222C43.8581 29.4835 44.7495 29.1009 45.4009 28.4353C46.0522 27.7698 46.4104 26.8756 46.3968 25.9489V15.9357C46.4104 15.009 46.0522 14.1148 45.4009 13.4492C44.7495 12.7837 43.8581 12.4011 42.9222 12.3853H25.1526C24.6887 12.3903 24.2303 12.4857 23.8037 12.6663C23.3771 12.8468 22.9906 13.1089 22.6664 13.4375C22.3422 13.7661 22.0866 14.1548 21.9143 14.5813C21.7419 15.0078 21.6563 15.4638 21.6621 15.9231L21.6685 15.9357Z" fill="url(#paint0_linear_1532_22363)"/>
<path d="M23.6103 89.0222C23.4717 89.0875 23.3459 89.1769 23.2391 89.2861C23.1121 89.4085 23.0307 89.5698 23.0083 89.7439C22.9858 89.9179 23.0235 90.0943 23.1153 90.2444C23.3128 90.4398 23.5787 90.5523 23.8578 90.5586L33.6946 92.073C35.4145 92.3369 37.147 92.6008 38.8827 92.516C39.7036 92.4751 40.5186 92.3562 41.3165 92.161C42.7984 91.7996 44.2104 91.1775 45.7082 90.9042C47.2059 90.6309 48.6973 90.8099 50.195 90.7157C51.9847 90.6057 53.6855 89.8799 55.4275 89.4589C57.855 88.8934 60.403 89.3301 62.748 88.6892C65.203 88.0347 67.7246 87.6564 70.2652 87.5612C72.8418 87.445 75.4216 87.5204 77.9982 87.5235C79.2896 87.5235 80.5811 87.5235 81.8726 87.4512C82.7991 87.4073 84.5888 86.8606 85.436 87.1371C81.679 85.9054 77.6713 85.7986 73.7303 85.7201C70.2589 85.6551 66.7885 85.6049 63.3192 85.5693C59.0195 85.5284 54.6819 85.5158 50.4774 86.4301L56.3065 87.7654C53.3006 88.4513 50.2238 88.7856 47.1393 88.7614L43.2331 88.6954C41.783 88.6734 40.3329 88.6954 38.8827 88.6954C38.2703 88.6954 37.5944 88.5918 36.9788 88.6357C36.3632 88.6797 35.6937 89.0033 35.0749 89.2264C34.729 89.3886 34.3457 89.4569 33.9643 89.4244C33.6219 89.3213 33.2999 89.1609 33.0124 88.9499C31.7939 88.2304 30.312 88.2022 28.9063 88.2399C27.3017 88.2397 25.7031 88.4349 24.1466 88.8211C23.9617 88.8708 23.7821 88.9381 23.6103 89.0222Z" fill="url(#paint1_linear_1532_22363)"/>
<path d="M57.4523 19.4074H79.75C82.2911 19.4074 84.3511 21.4471 84.3511 23.9632V77.1051C84.3511 79.6211 82.2911 81.6608 79.75 81.6608H57.4523C54.9112 81.6608 52.8512 79.6211 52.8512 77.1051V23.9632C52.8512 21.4471 54.9112 19.4074 57.4523 19.4074Z" fill="#FFB443"/>
<path d="M57.9218 20.1898H79.2802C81.7372 20.1898 83.729 22.162 83.729 24.5948V76.3668C83.729 78.7996 81.7372 80.7717 79.2802 80.7717H57.9218C55.4648 80.7717 53.473 78.7996 53.473 76.3668V24.5948C53.473 22.162 55.4648 20.1898 57.9218 20.1898Z" fill="#473F47"/>
<path d="M54.2946 25.1729V75.1697C54.2913 75.7222 54.3979 76.2699 54.6083 76.7816C54.8188 77.2933 55.1289 77.7589 55.5211 78.1519C55.9133 78.5449 56.3798 78.8575 56.894 79.072C57.4083 79.2865 57.9601 79.3985 58.5181 79.4018H78.6486C79.3864 79.4027 80.1113 79.2097 80.7492 78.8426C81.398 78.4687 81.9362 77.9327 82.3099 77.2881C82.6835 76.6435 82.8796 75.913 82.8784 75.1697V25.1729C82.8834 24.0565 82.4408 22.9838 81.6478 22.1903C80.8547 21.3968 79.776 20.9474 78.6486 20.9407H75.2438V21.5691C75.2394 21.9685 75.1169 22.3579 74.8913 22.6891C74.6657 23.0203 74.3469 23.2786 73.9745 23.4323C73.7271 23.5297 73.4633 23.5798 73.1971 23.5799H63.8426C63.2981 23.5766 62.7771 23.3599 62.3935 22.9771C62.01 22.5944 61.7951 22.0769 61.796 21.5377V20.9407H58.5022C57.4118 20.9415 56.3646 21.3631 55.5829 22.1158C55.1719 22.5136 54.846 22.9893 54.6247 23.5146C54.4033 24.0398 54.2911 24.6038 54.2946 25.1729Z" fill="white"/>
<path d="M54.2946 25.1729V40.0465H82.8911V25.1729C82.8936 24.619 82.7858 24.0702 82.5739 23.5576C82.3619 23.0451 82.05 22.5789 81.656 22.1859C81.262 21.7928 80.7935 21.4805 80.2775 21.2669C79.7614 21.0532 79.2079 20.9424 78.6486 20.9407H75.2374V21.5691C75.2331 21.9685 75.1105 22.3579 74.8849 22.6891C74.6593 23.0203 74.3406 23.2786 73.9682 23.4323C73.7208 23.5297 73.457 23.5798 73.1908 23.5799H63.8363C63.2918 23.5766 62.7707 23.3599 62.3872 22.9771C62.0036 22.5944 61.7888 22.0769 61.7896 21.5377V20.9407H58.4959C57.4055 20.9415 56.3583 21.3631 55.5766 22.1158C55.1667 22.5141 54.842 22.9901 54.6217 23.5153C54.4015 24.0405 54.2903 24.6042 54.2946 25.1729Z" fill="#FFB443"/>
<path d="M84.3606 60.5096H74.0288C73.3342 60.498 72.6726 60.2138 72.1895 59.7196C71.7064 59.2253 71.4412 58.5613 71.4522 57.8735V35.4561C71.4467 35.1157 71.5091 34.7776 71.6356 34.461C71.7621 34.1445 71.9504 33.8557 72.1897 33.6112C72.429 33.3667 72.7145 33.1713 73.0301 33.0361C73.3456 32.9009 73.685 32.8286 74.0288 32.8232H84.3606V60.5096Z" fill="url(#paint2_linear_1532_22363)"/>
<path d="M97.5388 33.3232H75.5901C74.5665 33.3232 73.7452 34.1436 73.7452 35.1451V56.4597C73.7452 57.4612 74.5665 58.2815 75.5901 58.2815H97.5388C98.5625 58.2815 99.3838 57.4612 99.3838 56.4597V35.1451C99.3838 34.1436 98.5625 33.3232 97.5388 33.3232Z" fill="white" stroke="#FFB443"/>
<path d="M85.1237 51.5795H82.3989C82.3476 51.5803 82.2966 51.5706 82.2489 51.551C82.2012 51.5314 82.1577 51.5023 82.1209 51.4652C82.0841 51.4281 82.0546 51.3839 82.0343 51.3351C82.0139 51.2862 82.003 51.2337 82.0022 51.1804C81.9993 51.148 81.9993 51.1154 82.0022 51.083L82.5472 47.3819C82.7188 46.2152 82.8903 45.0506 83.0619 43.8881C83.1951 42.9707 83.3293 42.0532 83.4646 41.1358C83.5887 40.2969 83.7098 39.458 83.834 38.6223C83.8441 38.4829 83.8955 38.3501 83.9811 38.2421C84.0667 38.1341 84.1824 38.0562 84.3123 38.0191C84.3691 38.0066 84.4269 38.0003 84.4849 38.0002H89.0748C89.6895 37.9951 90.3016 38.084 90.8914 38.2641C91.124 38.3359 91.3484 38.4339 91.5605 38.5563C91.9176 38.7592 92.2243 39.0458 92.4561 39.3932C92.6878 39.7406 92.8384 40.1394 92.8957 40.5577C92.9502 40.9316 92.9502 41.3118 92.8957 41.6856C92.8816 41.7537 92.8765 41.8235 92.8805 41.893C92.8674 41.91 92.86 41.931 92.8593 41.9527C92.8021 42.3281 92.7191 42.6987 92.6111 43.0618C92.3719 43.9021 91.9215 44.6612 91.3062 45.2611C90.976 45.567 90.6009 45.8162 90.195 45.9995C89.82 46.1701 89.4266 46.2935 89.0233 46.3671C88.7099 46.4297 88.3918 46.4644 88.0726 46.4707H86.4165C86.2592 46.4661 86.1058 46.5219 85.9856 46.6274C85.8655 46.733 85.7872 46.8808 85.7656 47.0426C85.7171 47.3253 85.6778 47.6112 85.6384 47.8972C85.5839 48.2616 85.5355 48.6292 85.481 48.9968C85.4265 49.3644 85.3569 49.8231 85.2933 50.2536L85.1237 51.5795Z" fill="#E52440"/>
<path d="M85.1236 51.5794L85.3234 50.2473C85.387 49.8326 85.4506 49.421 85.5111 48.9905C85.5656 48.6229 85.6141 48.2553 85.6686 47.8909C85.7079 47.605 85.7473 47.319 85.7957 47.0363C85.8173 46.8745 85.8956 46.7267 86.0158 46.6211C86.1359 46.5156 86.2893 46.4598 86.4467 46.4645H88.1028C88.4219 46.4581 88.74 46.4234 89.0534 46.3608C89.4568 46.2872 89.8501 46.1638 90.2251 45.9932C90.631 45.8099 91.0061 45.5607 91.3363 45.2548C91.9516 44.6549 92.402 43.8958 92.6412 43.0555C92.7493 42.6924 92.8322 42.3218 92.8895 41.9464C92.8901 41.9247 92.8976 41.9037 92.9107 41.8867C93.2066 42.0372 93.46 42.2645 93.6464 42.5465C93.8853 42.898 94.0305 43.3088 94.0672 43.7373C94.1431 44.5684 94.0397 45.4066 93.7644 46.1911C93.5737 46.7973 93.2528 47.3505 92.8259 47.8092C92.3361 48.3174 91.7197 48.6743 91.0456 48.8397C90.5354 48.9686 90.0116 49.0309 89.4864 49.0251H89.1836C89.0534 49.0236 88.927 49.0712 88.8279 49.159C88.7288 49.2468 88.6637 49.3689 88.6447 49.5027C88.5811 49.8671 88.5266 50.2379 88.4721 50.6055C88.3843 51.193 88.2996 51.7837 88.2148 52.3712L88.1512 52.7577C88.1361 52.8529 88.1021 52.9438 88.0513 53.0247C88.0211 53.0752 87.9786 53.1166 87.9281 53.1447C87.8777 53.1729 87.8209 53.1867 87.7637 53.185H85.2205C85.1569 53.185 85.0872 53.2101 85.0388 53.1378C84.9817 53.061 84.9557 52.9641 84.9661 52.8676C84.9994 52.6383 85.0358 52.4089 85.0691 52.1795C85.1024 51.9502 85.0933 51.7774 85.1236 51.5794Z" fill="#981921"/>
<path d="M35.3856 84.9314C35.3856 84.9314 34.4146 85.8363 34.605 86.4804C34.7954 87.1245 35.668 87.5518 35.7886 88.3372C35.9092 89.1227 36.3788 89.55 36.804 89.55H38.8348C38.8348 89.55 39.1521 88.997 38.3906 88.8305C37.629 88.664 37.3498 87.7403 37.3974 86.8825C37.4159 86.2156 37.3916 85.5482 37.3244 84.8843L35.7156 84.501L35.3856 84.9314Z" fill="#FCBDBA"/>
<path d="M43.5979 85.3148C43.5979 85.3148 43.2488 89.1479 43.674 89.3647H49.1382C49.1382 89.3647 49.1382 88.7206 48.2624 88.5792C47.3866 88.4378 45.8476 87.9131 45.5874 86.7443C45.3272 85.5756 43.5979 85.3148 43.5979 85.3148Z" fill="#FCBDBA"/>
<path d="M39.714 57.8139C40.8341 55.2407 41.5195 54.5055 41.3894 53.7043C41.2911 53.1105 41.6877 42.6323 41.6877 42.6323C41.821 42.5883 42.0875 42.5506 42.2335 42.5192C42.4623 42.4664 42.674 42.3573 42.8487 42.2018C43.0235 42.0463 43.1557 41.8496 43.2331 41.63C43.4754 40.8649 43.5901 40.0658 43.5726 39.2642L43.7154 39.2924L46.1301 39.7826C46.1301 39.7826 46.0762 40.5586 46.0762 41.2907V41.3095C46.0701 41.6152 46.1646 41.9144 46.3455 42.1622C46.5264 42.4099 46.7839 42.5925 47.0789 42.6825L47.6501 42.8491C48.2044 44.5532 48.5589 46.3148 48.7067 48.0991C48.8749 50.7572 47.0916 51.9134 48.7067 57.2295C50.379 62.6524 39.0921 59.2309 39.714 57.8139Z" fill="#FCBDBA"/>
<path d="M41.3892 53.7012C41.3892 53.7012 38.9935 56.9908 38.7682 59.2121C38.5429 61.4334 38.4192 69.241 37.9432 71.4089C37.4672 73.5768 35.722 77.7461 35.722 84.5011C35.8865 84.7834 36.1512 84.9951 36.4645 85.0949C36.6785 85.1695 36.8968 85.2314 37.1182 85.2803C37.3455 85.3322 37.5838 85.3053 37.7935 85.2041C38.0032 85.1029 38.1714 84.9335 38.27 84.7242C39.4504 82.2892 43.2201 74.4377 43.4137 72.8102C43.5502 71.6571 44.7401 64.0129 47.3357 59.5451C47.9704 58.4706 46.9518 54.2039 46.9518 54.2039L41.3892 53.7012Z" fill="#FFB443"/>
<path d="M35.7188 84.5199C35.8798 84.7956 36.1371 85.0035 36.4423 85.1043H36.4455C36.6607 85.1785 36.88 85.2404 37.1023 85.2897C37.3292 85.3414 37.567 85.3143 37.7762 85.2131C37.9853 85.1119 38.1529 84.9425 38.251 84.7335C39.4346 82.2986 43.2011 74.447 43.3947 72.8164C43.7421 70.403 44.2509 68.0152 44.9178 65.6686C45.5207 63.5352 46.314 61.3139 47.3294 59.5702C47.964 58.4925 46.9454 54.229 46.9454 54.229L41.3892 53.7294C41.3892 53.7294 38.9935 57.0158 38.7682 59.2403C38.5429 61.4647 38.4192 69.2723 37.9432 71.4371C37.4672 73.6018 35.7188 77.7428 35.7188 84.5199Z" fill="url(#paint3_linear_1532_22363)"/>
<path d="M36.4457 85.0887C36.6608 85.1628 36.8801 85.2247 37.1025 85.274C37.3293 85.3257 37.5672 85.2987 37.7763 85.1975C37.9855 85.0962 38.1531 84.9269 38.2512 84.7179C39.4348 82.2829 43.2013 74.4314 43.3949 72.8007C43.7376 70.3834 44.2421 67.9914 44.9053 65.6404C44.7445 65.3763 44.4846 65.186 44.1825 65.1112C43.8804 65.0364 43.5607 65.0832 43.2933 65.2413H43.2743C42.1795 65.832 41.7988 67.9748 41.6084 69.0776C41.3133 70.8371 41.4275 72.7033 40.704 74.3308C40.3169 75.2043 39.6981 75.974 39.4094 76.8883C39.2367 77.6417 39.1263 78.4077 39.0794 79.1788C38.8642 80.7306 38.238 82.1983 37.2643 83.4329C36.8677 83.9262 36.3917 84.4634 36.4457 85.0887Z" fill="url(#paint4_linear_1532_22363)"/>
<path d="M46.1304 39.7794C46.1304 39.7794 46.0764 40.5554 46.0764 41.2875C44.7215 41.2498 44.0075 39.9899 43.7156 39.2892L46.1304 39.7794Z" fill="#FCBDBA"/>
<path d="M46.5585 40.4456C46.5392 40.4667 46.5167 40.4847 46.4919 40.499C46.424 40.5359 46.3471 40.5533 46.2697 40.5493C45.9633 40.5431 45.6604 40.4835 45.3749 40.3733C44.9353 40.2506 44.5185 40.0586 44.1405 39.8046C43.7598 39.521 43.496 39.1101 43.398 38.6484C43.3452 38.2317 43.3303 37.811 43.3536 37.3917C43.3536 36.8104 43.2743 36.0878 43.6138 35.5788C43.9311 35.1169 44.4991 35.0038 45.0068 34.9755C45.7176 34.9316 46.6124 34.941 47.1709 35.4688C47.3318 35.6265 47.4535 35.819 47.5263 36.0312C47.6282 36.4421 47.6561 36.8675 47.6088 37.288C47.6103 37.6301 47.6294 37.972 47.6659 38.3122C47.6755 38.3747 47.6755 38.4383 47.6659 38.5007C47.6298 38.5941 47.5696 38.6764 47.4914 38.7395C47.0725 39.192 46.9996 39.88 46.6283 40.3733C46.6084 40.4004 46.5849 40.4247 46.5585 40.4456Z" fill="#FCBDBA"/>
<path d="M46.4634 34.9189C46.4634 34.9189 45.5876 37.3067 44.2422 37.6618C42.8967 38.0168 42.3129 37.646 42.3129 37.646C42.9827 37.0437 43.423 36.2317 43.5599 35.3462C43.5599 35.3462 45.8034 33.7815 46.4634 34.9189Z" fill="#473F47"/>
<path d="M45.886 39.2107C45.9673 39.3043 46.0697 39.3778 46.1848 39.4253C46.3 39.4728 46.4248 39.4929 46.5492 39.4841C46.6536 39.4768 46.7542 39.442 46.8407 39.3835C46.9271 39.325 46.9962 39.2448 47.041 39.151C46.6581 39.0622 46.2575 39.0828 45.886 39.2107Z" fill="#FCBDBA"/>
<path d="M47.5519 53.4341L48.2405 53.2236C48.2405 53.2236 48.2595 53.1733 48.2913 53.0791C48.0663 53.2371 47.8165 53.357 47.5519 53.4341Z" fill="#FCBDBA"/>
<path d="M48.0502 53.852C48.0502 53.852 49.6209 58.8507 49.7224 60.5536C49.824 62.2565 46.7175 84.7462 46.5937 85.5222C46.4699 86.2983 45.5751 86.7319 45.5751 86.7319C45.2643 86.8874 44.9041 86.9156 44.5724 86.8104C44.1762 86.728 43.8066 86.5499 43.4967 86.292C43.4967 86.292 42.275 70.2684 43.0302 64.5313C43.4922 60.9879 43.7486 57.4213 43.7982 53.8488L48.0502 53.852Z" fill="#FFB443"/>
<path d="M43.4962 86.2952C43.8083 86.5511 44.1786 86.7279 44.5751 86.8105C44.8673 86.8988 45.1808 86.8888 45.4667 86.7822C45.5057 86.77 45.543 86.7531 45.5778 86.7319C45.5778 86.7319 46.4758 86.2606 46.5932 85.5223C46.7106 84.7839 49.8203 62.2566 49.7188 60.5537C49.6172 58.8508 48.0497 53.8521 48.0497 53.8521H43.7945C43.7476 57.4245 43.4923 60.9912 43.0297 64.5345C42.2745 70.2621 43.4962 86.2952 43.4962 86.2952Z" fill="url(#paint5_linear_1532_22363)"/>
<path d="M39.4067 49.8398C39.4575 50.7824 40.3809 52.0171 40.511 52.3282C40.8283 53.1011 41.2091 53.2236 41.2091 53.2236C41.1073 53.5364 41.0538 53.8627 41.0504 54.1913C41.0504 54.1913 44.4298 55.0648 47.0413 54.6595C47.4386 54.6004 47.8288 54.5014 48.2059 54.3641C48.4031 53.9638 48.4372 53.5036 48.3011 53.0791C48.5486 52.3282 49.6306 48.8407 49.1134 46.7796C48.9896 46.28 48.8437 45.7868 48.6787 45.2935C48.5327 44.8631 48.4597 44.4326 48.3169 44.0022C48.2213 43.8072 48.1902 43.5873 48.2281 43.3738C48.2485 43.3108 48.287 43.255 48.3388 43.2132C48.3906 43.1714 48.4536 43.1453 48.52 43.1382C48.5547 43.1353 48.5896 43.1413 48.6212 43.1556C48.6529 43.1699 48.6803 43.192 48.7009 43.2198C48.3677 42.4061 47.4729 42.0228 46.6605 41.7117C46.5141 41.6482 46.357 41.612 46.1973 41.6049C45.9773 41.6333 45.768 41.7154 45.588 41.8437C45.4071 41.9474 45.2231 42.0416 45.0327 42.1328C44.5063 42.3759 43.9474 42.543 43.3731 42.6292C43.0783 42.6752 42.7797 42.6931 42.4815 42.6826C42.2943 42.6826 41.904 42.5506 41.739 42.6292C41.3899 42.7988 41.0631 43.8859 40.8949 44.2284C40.3957 45.2359 39.8996 46.2434 39.4067 47.2509C39.3543 48.1131 39.3543 48.9776 39.4067 49.8398Z" fill="white"/>
<path d="M46.2576 45.0233C46.2992 45.5872 46.4478 46.1383 46.6954 46.6477C46.7676 46.7758 46.8504 46.8977 46.943 47.0121C47.1429 47.2698 47.3809 47.5023 47.5617 47.7756C48.0916 48.5799 48.0314 49.6356 47.952 50.6033C47.8663 51.6778 47.7648 52.7744 47.3428 53.7452C47.1911 54.0266 47.0891 54.3315 47.0413 54.6469C47.4386 54.5879 47.8288 54.4889 48.2059 54.3516C48.4031 53.9512 48.4372 53.4911 48.3011 53.0666C48.5486 52.3156 49.6306 48.8281 49.1134 46.7671C48.9896 46.2675 48.8437 45.7742 48.6787 45.281C48.5327 44.8505 48.4597 44.4201 48.3169 43.9896C48.2213 43.7946 48.1902 43.5748 48.2281 43.3613C48.2485 43.2983 48.287 43.2425 48.3388 43.2006C48.3906 43.1588 48.4536 43.1328 48.52 43.1256C48.4318 42.975 48.3253 42.8357 48.2027 42.7109C48.0868 42.5762 47.9397 42.4712 47.7739 42.405C47.6081 42.3388 47.4286 42.3133 47.2507 42.3307C47.0226 42.3682 46.8131 42.4785 46.6542 42.6449C46.1084 43.2733 46.1497 44.2096 46.2576 45.0233Z" fill="url(#paint6_linear_1532_22363)"/>
<path d="M45.9652 39.2768C45.9652 39.2768 46.0191 39.5156 46.5998 39.4779C46.5998 39.4779 47.0917 39.4496 47.0758 39.1857C46.7072 39.0767 46.3106 39.1092 45.9652 39.2768Z" fill="#FCBDBA"/>
<path d="M53.5808 44.1718C54.7832 44.0779 55.9717 43.8545 57.1252 43.5057C57.6679 43.3518 58.2105 43.1507 58.7562 43.0533C58.9995 43.0222 59.2332 42.94 59.4418 42.8121C59.6503 42.6842 59.8288 42.5136 59.9652 42.3118C60.2191 41.9285 60.3619 41.4038 60.7902 41.2499L60.7553 41.8343C60.7429 41.9012 60.7553 41.9704 60.7902 42.0291C60.8759 42.139 61.0473 42.073 61.1615 41.9976L62.6624 41.0174C62.6714 41.1487 62.6471 41.2802 62.5917 41.3998C62.5363 41.5194 62.4515 41.6234 62.3451 41.7023C62.1256 41.8522 61.953 42.0601 61.8469 42.3024C62.2669 42.0542 62.7113 41.8489 63.1733 41.6897C63.1799 41.8097 63.154 41.9291 63.0982 42.0358C63.0424 42.1424 62.9587 42.2323 62.856 42.2961C62.6486 42.4153 62.4639 42.5695 62.3102 42.7517C62.6955 42.6381 63.0907 42.5603 63.4906 42.5192C63.5826 42.7203 63.3288 42.8931 63.1225 42.9622L62.2404 43.2575C62.5942 43.2507 62.948 43.2644 63.3002 43.2984C63.1066 43.556 62.7163 43.4775 62.4054 43.5497C62.0889 43.6724 61.7959 43.8477 61.5391 44.0681C61.1426 44.2813 60.7141 44.4299 60.2698 44.508C59.9674 44.6361 59.687 44.8099 59.4385 45.0233C58.5939 45.5137 57.7098 45.934 56.7952 46.28C56.3478 46.4654 55.8972 46.6508 55.434 46.7953C53.9806 47.2477 52.4321 47.2729 50.9122 47.1912C49.7483 47.1648 48.6086 46.8563 47.5931 46.2926C46.7014 45.7962 46.3619 44.4452 46.511 43.4649C46.5306 43.246 46.612 43.037 46.7458 42.8617C46.883 42.7187 47.0635 42.6239 47.2599 42.5915C47.9834 42.4438 48.6815 42.8774 49.3351 43.2198C50.6304 43.9299 52.103 44.2601 53.5808 44.1718Z" fill="#FCBDBA"/>
<path d="M47.7138 36.9234L47.2822 36.1285C47.2853 36.3815 47.2148 36.6301 47.0792 36.8445C46.9437 37.059 46.7487 37.2303 46.5175 37.3382C46.36 37.3871 46.2105 37.4579 46.0732 37.5487C45.9623 37.6598 45.8797 37.7955 45.8321 37.9445C45.545 38.6938 45.4207 39.4946 45.4672 40.2947C45.5465 41.6802 46.5048 44.2817 45.1245 45.306C44.6161 45.6296 44.0306 45.8149 43.4268 45.8432C43.4929 46.4052 43.5194 46.9711 43.5062 47.5367C43.5327 48.1185 43.3953 48.6961 43.1095 49.2051C42.5606 50.0314 41.377 50.2136 40.479 49.8334C40.2301 49.6916 39.9549 49.6008 39.6698 49.5664C39.2287 49.5664 38.8797 49.9308 38.4735 50.1005C38.1701 50.2058 37.8445 50.2322 37.5278 50.1772C37.2111 50.1221 36.914 49.9876 36.6648 49.7863C36.1086 49.3301 35.7359 48.6917 35.6142 47.9867C35.4925 47.2818 35.63 46.557 36.0016 45.9438C36.319 45.4662 36.7632 45.0923 37.0615 44.6053C37.8928 43.2449 36.9885 41.5263 37.4486 40.0433C37.6514 39.3843 38.0874 38.8199 38.6766 38.4535C39.3462 38.0419 40.2188 37.8848 40.6567 37.2251C41.2405 36.3485 40.7265 35.1106 41.0914 34.1209C41.3643 33.3857 42.0782 32.9175 42.8017 32.6536C43.6204 32.3636 44.4967 32.2693 45.3592 32.3785C46.2217 32.4877 47.0459 32.7973 47.7645 33.282C48.9418 34.0769 49.0211 36.0971 47.7138 36.9234Z" fill="#473F47"/>
<path d="M58.4614 34.6675H66.6068C67.0169 34.6675 67.3494 34.9967 67.3494 35.4027V35.4247C67.3494 35.8308 67.0169 36.1599 66.6068 36.1599H58.4614C58.0513 36.1599 57.7189 35.8308 57.7189 35.4247V35.4027C57.7189 34.9967 58.0513 34.6675 58.4614 34.6675Z" fill="white"/>
<path d="M45.0574 85.7422C45.0859 86.1216 45.2284 86.4838 45.4667 86.7822C45.5057 86.77 45.543 86.7531 45.5778 86.7319C45.5778 86.7319 46.4758 86.2606 46.5932 85.5223C46.7106 84.7839 49.8203 62.2566 49.7188 60.5537C49.6172 58.8508 48.0497 53.8521 48.0497 53.8521L48.2052 54.3642C48.0782 54.4145 47.5705 54.5558 47.2945 54.6155C45.9967 54.892 47.7831 55.7435 48.1512 56.7175C48.5159 57.8639 48.6812 59.0634 48.6399 60.2646C48.6809 61.294 48.6054 62.3247 48.4146 63.3374C48.1925 64.3679 47.78 65.3482 47.5515 66.3788C47.1009 68.509 47.5515 70.7523 47.1612 72.8982C47.0597 73.4637 46.9042 74.0135 46.8026 74.5791C46.643 75.7081 46.5846 76.8488 46.6281 77.988C46.6281 79.5935 46.5773 81.2367 45.9935 82.726C45.6127 83.7188 44.9908 84.6771 45.0574 85.7422Z" fill="url(#paint7_linear_1532_22363)"/>
<path d="M44.9756 88.8086C45.2744 88.7983 45.5712 88.7562 45.8609 88.6829C45.9779 88.6591 46.0917 88.6222 46.2004 88.573C46.4574 88.4379 46.6478 88.1551 46.9366 88.1174C47.0602 88.1078 47.1845 88.1239 47.3015 88.1645L47.9044 88.3216C48.1939 88.3873 48.4749 88.4853 48.7421 88.6138C49.0203 88.7448 49.2445 88.9667 49.3767 89.2422C49.4243 89.349 49.5005 89.8517 49.4211 89.9334C49.3596 89.9858 49.2801 90.0127 49.199 90.0088C47.4177 90.1021 45.632 90.0695 43.8554 89.9114C43.7569 89.9125 43.6597 89.8887 43.573 89.8423C43.4366 89.7575 43.3382 89.2139 43.3128 89.0663C43.2462 88.661 43.335 88.2494 43.7888 88.4976C44.1504 88.7016 44.5594 88.8088 44.9756 88.8086Z" fill="#FFB443"/>
<path d="M35.4936 86.4616C35.6546 87.0048 36.0012 87.4757 36.4741 87.7938C36.5787 87.8803 36.703 87.9401 36.8364 87.968C36.9697 87.9959 37.1078 87.9911 37.2388 87.954C37.3117 87.914 37.3869 87.8783 37.4641 87.8472C37.5555 87.833 37.649 87.8423 37.7357 87.8742C37.8224 87.9061 37.8993 87.9596 37.9591 88.0294C38.0892 88.1614 38.1876 88.3216 38.3272 88.441C38.5883 88.6116 38.8725 88.7449 39.1713 88.8369C39.4537 88.9688 39.7298 89.2422 39.6758 89.5532C39.6092 89.9554 39.0983 90.0622 38.6985 90.0622C37.8475 90.0587 36.9983 89.984 36.16 89.8391C36.0262 89.8269 35.8992 89.7755 35.7951 89.6915C35.6997 89.5629 35.6425 89.4106 35.63 89.2516C35.5606 88.8353 35.3884 88.4424 35.1287 88.1079C34.7162 87.5927 34.0371 87.1905 34.0213 86.537C34.0213 86.1129 34.4369 85.4154 34.859 85.2803C35.281 85.1452 35.3984 86.0909 35.4936 86.4616Z" fill="#FFB443"/>
<path d="M56.3729 47.7755H67.4345C67.7762 47.7755 68.0532 48.0498 68.0532 48.3882V48.4102C68.0532 48.7486 67.7762 49.0229 67.4345 49.0229H56.3729C56.0311 49.0229 55.7541 48.7486 55.7541 48.4102V48.3882C55.7541 48.0498 56.0311 47.7755 56.3729 47.7755Z" fill="url(#paint8_linear_1532_22363)"/>
<path d="M56.3729 51.1688H67.4345C67.7762 51.1688 68.0532 51.4431 68.0532 51.7815V51.8035C68.0532 52.1418 67.7762 52.4161 67.4345 52.4161H56.3729C56.0311 52.4161 55.7541 52.1418 55.7541 51.8035V51.7815C55.7541 51.4431 56.0311 51.1688 56.3729 51.1688Z" fill="url(#paint9_linear_1532_22363)"/>
<path d="M56.3729 54.5589H67.4345C67.7762 54.5589 68.0532 54.8332 68.0532 55.1716V55.1936C68.0532 55.532 67.7762 55.8063 67.4345 55.8063H56.3729C56.0311 55.8063 55.7541 55.532 55.7541 55.1936V55.1716C55.7541 54.8332 56.0311 54.5589 56.3729 54.5589Z" fill="url(#paint10_linear_1532_22363)"/>
<path d="M56.3729 57.949H67.4345C67.7762 57.949 68.0532 58.2233 68.0532 58.5616V58.5836C68.0532 58.922 67.7762 59.1963 67.4345 59.1963H56.3729C56.0311 59.1963 55.7541 58.922 55.7541 58.5836V58.5616C55.7541 58.2233 56.0311 57.949 56.3729 57.949Z" fill="url(#paint11_linear_1532_22363)"/>
<path d="M56.3728 61.3392H67.4345C67.7762 61.3392 68.0532 61.6135 68.0532 61.9518V61.9738C68.0532 62.3122 67.7762 62.5865 67.4345 62.5865H56.3728C56.0311 62.5865 55.7541 62.3122 55.7541 61.9738V61.9518C55.7541 61.6135 56.0311 61.3392 56.3728 61.3392Z" fill="url(#paint12_linear_1532_22363)"/>
<path d="M23.3013 25.9489H23.3013L23.3012 25.9571C23.2947 26.3496 23.3664 26.7396 23.5122 27.1049C23.6581 27.4702 23.8753 27.8038 24.1517 28.0865L23.7942 28.436L24.1517 28.0865C24.4282 28.3692 24.7584 28.5955 25.1237 28.7522C25.4879 28.9084 25.8797 28.9924 26.2768 28.9992H33.9898H34.2507L34.3999 29.2132L36.9803 32.9132V29.4992V28.9992H37.4803H44.0583C44.4562 28.9943 44.8491 28.912 45.2147 28.7571C45.5811 28.6018 45.9127 28.3768 46.1907 28.095C46.4687 27.8132 46.6877 27.4803 46.8353 27.1153C46.983 26.7503 47.0565 26.3603 47.0519 25.9674L47.0518 25.9674V25.9614V15.9357H47.0518L47.0519 15.9279C47.058 15.5342 46.9855 15.143 46.8385 14.7767C46.6915 14.4105 46.4728 14.0763 46.1946 13.7934C45.9165 13.5104 45.5844 13.2844 45.2173 13.1285C44.851 12.9729 44.4572 12.8903 44.0584 12.8853H26.2945C25.8969 12.8899 25.5043 12.9718 25.1389 13.1262C24.7728 13.281 24.4413 13.5055 24.1634 13.7867C23.8854 14.068 23.6664 14.4004 23.5186 14.7648C23.3707 15.1293 23.2969 15.5189 23.3012 15.9113L23.3013 15.9113V15.9168V15.9357V25.9489Z" fill="white" stroke="#C0C0C0"/>
<path d="M35.3357 26.9874L35.4008 25.3832C34.5373 25.3422 33.704 25.0633 33 24.5796L33.4202 23.5373C34.0762 23.9983 34.8572 24.2656 35.668 24.3064C36.8016 24.3473 37.5834 23.7351 37.6225 22.8341C37.6616 21.9331 37.0589 21.4057 35.9058 20.8783C34.3095 20.1845 33.3388 19.4185 33.3942 18.0529C33.4463 16.7438 34.4203 15.7863 35.8927 15.6073L35.9546 14L36.9319 14.0377L36.87 15.5665C37.5943 15.6041 38.2965 15.8203 38.9093 16.1944L38.4793 17.2398C37.8938 16.8546 37.2071 16.6369 36.4986 16.6119C35.2771 16.5648 34.7884 17.2743 34.7656 17.9022C34.733 18.7216 35.3031 19.1579 36.6518 19.7858C38.2805 20.511 39.0526 21.3555 38.9972 22.7713C38.9484 24.027 38.0199 25.1541 36.3912 25.3581L36.3227 27L35.3357 26.9874Z" fill="#FFB443"/>
<defs>
<linearGradient id="paint0_linear_1532_22363" x1="0.427406" y1="42.5663" x2="63.0886" y2="1.58607" gradientUnits="userSpaceOnUse">
<stop offset="0.01"/>
<stop offset="0.08" stop-opacity="0.69"/>
<stop offset="0.21" stop-opacity="0.32"/>
<stop offset="1" stop-opacity="0"/>
</linearGradient>
<linearGradient id="paint1_linear_1532_22363" x1="53.3586" y1="60.5032" x2="54.4537" y2="96.8462" gradientUnits="userSpaceOnUse">
<stop offset="0.01"/>
<stop offset="0.84" stop-opacity="0"/>
</linearGradient>
<linearGradient id="paint2_linear_1532_22363" x1="-485.688" y1="7826.52" x2="-6910.39" y2="5502.43" gradientUnits="userSpaceOnUse">
<stop offset="0.01"/>
<stop offset="0.08" stop-opacity="0.69"/>
<stop offset="0.21" stop-opacity="0.32"/>
<stop offset="1" stop-opacity="0"/>
</linearGradient>
<linearGradient id="paint3_linear_1532_22363" x1="-2721.84" y1="4408.79" x2="-4349.07" y2="4147.1" gradientUnits="userSpaceOnUse">
<stop offset="0.01"/>
<stop offset="0.84" stop-opacity="0"/>
</linearGradient>
<linearGradient id="paint4_linear_1532_22363" x1="-2268.17" y1="2000.44" x2="-2494.33" y2="2000.44" gradientUnits="userSpaceOnUse">
<stop offset="0.01"/>
<stop offset="0.13" stop-opacity="0.69"/>
<stop offset="0.25" stop-opacity="0.32"/>
<stop offset="1" stop-opacity="0"/>
</linearGradient>
<linearGradient id="paint5_linear_1532_22363" x1="-1586.78" y1="4550.92" x2="-3098.04" y2="4343.5" gradientUnits="userSpaceOnUse">
<stop offset="0.01"/>
<stop offset="0.13" stop-opacity="0.69"/>
<stop offset="0.25" stop-opacity="0.32"/>
<stop offset="1" stop-opacity="0"/>
</linearGradient>
<linearGradient id="paint6_linear_1532_22363" x1="-683.957" y1="2355.2" x2="-799.387" y2="2347.54" gradientUnits="userSpaceOnUse">
<stop offset="0.01"/>
<stop offset="0.13" stop-opacity="0.69"/>
<stop offset="0.25" stop-opacity="0.32"/>
<stop offset="1" stop-opacity="0"/>
</linearGradient>
<linearGradient id="paint7_linear_1532_22363" x1="-1089.82" y1="3657.07" x2="-1382.24" y2="3660.22" gradientUnits="userSpaceOnUse">
<stop offset="0.01"/>
<stop offset="0.13" stop-opacity="0.69"/>
<stop offset="0.25" stop-opacity="0.32"/>
<stop offset="1" stop-opacity="0"/>
</linearGradient>
<linearGradient id="paint8_linear_1532_22363" x1="-2663.72" y1="-338.535" x2="-2663.25" y2="-120.151" gradientUnits="userSpaceOnUse">
<stop offset="0.01"/>
<stop offset="0.84" stop-opacity="0"/>
</linearGradient>
<linearGradient id="paint9_linear_1532_22363" x1="-2663.72" y1="-328.467" x2="-2663.25" y2="-110.084" gradientUnits="userSpaceOnUse">
<stop offset="0.01"/>
<stop offset="0.84" stop-opacity="0"/>
</linearGradient>
<linearGradient id="paint10_linear_1532_22363" x1="-2663.72" y1="-318.398" x2="-2663.25" y2="-100.003" gradientUnits="userSpaceOnUse">
<stop offset="0.01"/>
<stop offset="0.84" stop-opacity="0"/>
</linearGradient>
<linearGradient id="paint11_linear_1532_22363" x1="-2663.72" y1="-308.319" x2="-2663.25" y2="-89.9353" gradientUnits="userSpaceOnUse">
<stop offset="0.01"/>
<stop offset="0.84" stop-opacity="0"/>
</linearGradient>
<linearGradient id="paint12_linear_1532_22363" x1="-2663.73" y1="-298.252" x2="-2663.25" y2="-79.8675" gradientUnits="userSpaceOnUse">
<stop offset="0.01"/>
<stop offset="0.84" stop-opacity="0"/>
</linearGradient>
</defs>
</svg>
