<svg width="187" height="436" viewBox="0 0 187 436" fill="none" xmlns="http://www.w3.org/2000/svg">
<path d="M80 248.159V413H100.882L110.435 287.101L118.819 285.71L133.76 412.942H150L147.506 238C147.506 238 120.22 246.64 80 248.159Z" fill="#25233A" fill-opacity="0.1"/>
<path opacity="0.1" d="M49.6443 198.713C42.9633 190.972 34.5041 182.908 35.0227 172.66C35.4056 165.08 40.7157 158.802 45.7666 153.158L57.6219 139.883L73.503 122.142C77.3473 117.592 81.5875 113.394 86.1734 109.6C87.441 108.749 88.5664 107.703 89.5077 106.498C90.0639 105.615 90.5078 104.664 90.8291 103.67C95.8798 89.6518 98.511 74.8705 98.6091 59.9629C98.6091 56.3279 98.6091 52.2959 101.079 49.6534C102.795 47.8173 105.352 47.0853 107.772 46.4526C113.095 45.0507 118.553 43.7357 124.049 44.0458C129.544 44.356 135.163 46.5271 138.534 50.8816C142.548 56.117 142.585 63.2877 142.449 69.8754C142.313 76.463 124.135 85.8173 124.024 92.3553C124.024 94.0673 136.447 94.3279 138.016 94.9854C146.265 98.4715 151.056 112.739 151.822 114.041C164.566 135.628 169.815 142.005 182.559 163.604C184.548 166.966 186.585 170.477 186.943 174.385C187.301 178.293 185.906 182.238 184.338 185.885C179.183 197.881 172.043 208.913 163.22 218.513C161.949 220.081 160.351 221.352 158.54 222.235C153.452 224.356 147.562 220.424 142.227 221.776C147.475 210.102 161.306 203.006 163.554 190.388C164.789 183.23 161.837 175.824 157.219 170.204C152.6 164.584 146.537 160.465 140.535 156.383C138.979 167.243 137.419 178.102 135.854 188.962C134.62 197.547 133.385 206.268 134.558 214.878C134.965 217.942 135.311 221.838 132.631 223.339C131.549 223.819 130.367 224.032 129.186 223.959C111.65 224.133 94.1263 223.749 76.6151 222.806C70.8233 222.483 66.6616 222.806 62.858 218.141C57.9306 212.124 54.8186 204.693 49.6443 198.713Z" fill="url(#paint0_linear_1532_21874)"/>
<path d="M119.004 48.1199C120.189 54.6716 120.927 61.2965 121.213 67.9486C121.466 70.4335 121.319 72.943 120.777 75.3811C120.497 76.6009 119.943 77.7409 119.157 78.7145C118.372 79.6882 117.375 80.4699 116.243 81.0005C114.843 81.5663 113.225 81.6049 111.98 82.4407C110.977 83.1823 110.264 84.251 109.963 85.4626C109.565 87.7644 109.565 90.1175 109.963 92.4193C110.32 94.7454 109.808 97.1214 108.525 99.0932C107.375 100.355 105.878 101.25 104.223 101.665C100.322 102.89 96.1664 103.063 92.1769 102.166C91.5395 102.069 90.9355 101.818 90.4175 101.433C89.8683 100.893 89.4775 100.213 89.2874 99.4661C87.8337 95.0086 86.6585 90.4649 85.7686 85.8612C84.3688 79.4317 82.9176 72.8607 82.7892 66.2254C82.6608 59.5902 83.9835 52.7492 87.7078 47.2712C91.432 41.7933 97.8532 37.8841 104.403 38.2699C108.082 38.7163 111.655 39.8043 114.959 41.4847C117.72 42.7448 118.362 45.1366 119.004 48.1199Z" fill="#FAD7A3"/>
<path d="M119.004 39.0284C119.184 35.7236 116.577 32.9718 113.944 30.9915C113.454 30.6655 113.02 30.2615 112.66 29.7956C112.292 29.061 112.016 28.2836 111.838 27.481C110.772 24.4848 107.202 23.1475 104.03 23.1475C100.858 23.1475 97.7247 24.1119 94.5527 24.0219C91.9842 24.0219 89.4158 23.2632 87.0785 24.3176C85.7654 25.042 84.6396 26.0636 83.7909 27.3009C82.1993 29.1424 81.0914 31.3523 80.5675 33.7304C80.3748 34.7849 80.3877 35.8779 80.118 36.9195C79.756 38.0906 79.1813 39.1848 78.4228 40.1471C75.1095 44.6992 70.2808 48.5055 69.0993 54.0091C68.3545 57.4939 67.5968 61.506 69.2791 64.6436C85.4475 94.8624 89.5442 96.6112 91.2008 96.3797C92.8575 96.1482 102.04 95.711 103.003 84.1507C103.22 83.369 103.299 82.555 103.234 81.7461C102.987 81.1045 102.591 80.5313 102.078 80.0744C100.933 78.9574 99.9858 77.6528 99.2786 76.2167C98.911 75.4938 98.7193 74.6941 98.7193 73.8828C98.7193 73.0716 98.911 72.2718 99.2786 71.5489C99.5844 71.0968 99.9762 70.7095 100.432 70.4093C100.887 70.109 101.397 69.9015 101.933 69.7988C102.468 69.6961 103.019 69.7001 103.553 69.8107C104.087 69.9212 104.594 70.1361 105.045 70.443C105.321 70.6376 105.575 70.8618 105.802 71.1117C106.881 68.0255 103.683 64.5407 104.993 61.5446C105.79 59.7314 107.998 58.8442 108.769 57.0053C109.784 54.575 107.973 51.1802 109.899 49.3928C110.55 48.9415 111.237 48.5458 111.954 48.2097C113.045 47.5411 113.238 46.6281 113.816 45.5736C114.394 44.5192 114.497 44.6092 115.665 44.0048C116.611 43.5441 117.418 42.8411 118.004 41.967C118.591 41.093 118.936 40.0791 119.004 39.0284Z" fill="#3F3D56"/>
<path d="M88.9401 99.301C88.9401 99.301 65.8851 104.539 62.7629 111.523C59.6407 118.507 34.3795 140.338 35.0117 149.02C35.6438 157.702 52.9835 168.708 52.9835 168.708L66.2463 156.666L72.4777 250.324C72.4777 250.324 97.739 256.345 117.324 250.324C136.908 244.303 140.275 239.812 140.275 239.812L136.908 153.246L152.841 172.621L174 155.619C174 155.619 142.778 108.139 137.463 105.249C132.147 102.36 108.331 99 108.331 99C108.331 99 97.8035 104.924 88.9401 99.301Z" fill="#981921"/>
<path d="M88.9401 99.301C88.9401 99.301 65.8851 104.539 62.7629 111.523C59.6407 118.507 34.3795 140.338 35.0117 149.02C35.6438 157.702 52.9835 168.708 52.9835 168.708L66.2463 156.666L72.4777 250.324C72.4777 250.324 97.739 256.345 117.324 250.324C136.908 244.303 140.275 239.812 140.275 239.812L136.908 153.246L152.841 172.621L174 155.619C174 155.619 142.778 108.139 137.463 105.249C132.147 102.36 108.331 99 108.331 99C108.331 99 97.8035 104.924 88.9401 99.301Z" fill="white"/>
<path d="M35.5298 149.522C35.5298 149.522 19.066 171.859 18.6294 175.536C18.1927 179.214 63.1535 233.608 63.1535 233.608C63.1535 233.608 66.5438 245.734 72.143 247.457L70.358 218.344C70.358 218.344 45.8036 177.619 42.837 178.262L51.5312 169.158C51.5312 169.158 37.5332 159.488 35.5298 149.522Z" fill="#FAD7A3"/>
<path d="M154.703 172.701L160.841 181.342L141.334 220.678C141.334 220.678 134.36 224.24 133.988 227.493C133.616 230.746 141.578 227.493 141.578 227.493L142.194 244.454C142.194 244.454 150.786 235.067 154.703 227.493C158.619 219.919 181.671 186.344 182.673 182.178C184.535 174.707 171.641 158.093 171.641 158.093L154.703 172.701Z" fill="#FAD7A3"/>
<path d="M73 248.159V413H93.8817L103.435 287.101L111.819 285.71L126.76 412.942H143L140.506 238C140.506 238 113.22 246.64 73 248.159Z" fill="#25233A"/>
<path d="M111.749 432.991C111.749 433.377 111.748 433.775 111.659 434.161C111.659 434.161 81.0684 437.324 76.0342 435.087C71 432.849 71.3596 431.538 71.3596 431.538L72.7723 411.928H93.6281C108.589 414.204 111.389 424.645 111.787 430.368V430.496C111.833 431.328 111.82 432.161 111.749 432.991Z" fill="url(#paint1_linear_1532_21874)"/>
<path d="M125.952 410.928L124.668 430.538C124.668 430.538 124.295 431.824 129.342 434.087C134.389 436.35 164.967 433.161 164.967 433.161C164.967 433.161 167.728 414.104 146.872 410.928H125.952Z" fill="url(#paint2_linear_1532_21874)"/>
<path d="M111.749 432.991C111.749 433.377 111.748 433.775 111.659 434.161C111.659 434.161 81.0684 437.324 76.0342 435.087C71 432.849 71.3596 431.538 71.3596 431.538L72.7723 411.928H93.6281C108.589 414.204 111.389 424.645 111.787 430.368V430.496C111.833 431.328 111.82 432.161 111.749 432.991Z" fill="url(#paint3_linear_1532_21874)"/>
<path d="M125.952 411.928L124.668 431.538C124.668 431.538 124.295 432.824 129.342 435.087C134.389 437.35 164.967 434.161 164.967 434.161C164.967 434.161 167.728 415.104 146.872 411.928H125.952Z" fill="url(#paint4_linear_1532_21874)"/>
<path d="M111.749 432.991C111.749 433.377 111.748 433.776 111.659 434.161C111.659 434.161 81.0684 437.325 76.0342 435.087C71 432.85 71.3596 431.538 71.3596 431.538L72.7723 411.928L83.3671 411.671V411.928L82.8663 413.6C82.8663 413.6 80.0795 425.366 82.8663 428.542C85.6531 431.718 111.26 430.407 111.851 430.368V430.497L111.749 432.991Z" fill="url(#paint5_linear_1532_21874)"/>
<path d="M165.005 431.991C165.005 432.377 165.005 432.775 164.915 433.161C164.915 433.161 134.325 436.325 129.291 434.087C124.257 431.85 124.629 430.538 124.629 430.538L125.913 410.941L136.521 410.684L136.444 410.941L135.943 412.612C135.943 412.612 133.156 424.378 135.943 427.555C138.73 430.731 164.337 429.419 164.928 429.381V431.952L165.005 431.991Z" fill="url(#paint6_linear_1532_21874)"/>
<defs>
<linearGradient id="paint0_linear_1532_21874" x1="34.998" y1="134.003" x2="187.005" y2="134.003" gradientUnits="userSpaceOnUse">
<stop stop-color="#FFB443"/>
<stop offset="1" stop-color="#AD6800"/>
</linearGradient>
<linearGradient id="paint1_linear_1532_21874" x1="70.0995" y1="426.866" x2="110.733" y2="426.619" gradientUnits="userSpaceOnUse">
<stop stop-color="#D33B51"/>
<stop offset="1" stop-color="#E52440"/>
</linearGradient>
<linearGradient id="paint2_linear_1532_21874" x1="123.408" y1="425.873" x2="164.008" y2="425.627" gradientUnits="userSpaceOnUse">
<stop stop-color="#D33B51"/>
<stop offset="1" stop-color="#E52440"/>
</linearGradient>
<linearGradient id="paint3_linear_1532_21874" x1="85.2036" y1="392.446" x2="112.241" y2="555.295" gradientUnits="userSpaceOnUse">
<stop stop-opacity="0"/>
<stop offset="0.08" stop-opacity="0.19"/>
<stop offset="0.99"/>
</linearGradient>
<linearGradient id="paint4_linear_1532_21874" x1="14796.9" y1="1443.15" x2="15100.7" y2="-1646.34" gradientUnits="userSpaceOnUse">
<stop stop-opacity="0"/>
<stop offset="0.08" stop-opacity="0.19"/>
<stop offset="0.99"/>
</linearGradient>
<linearGradient id="paint5_linear_1532_21874" x1="13305" y1="918.045" x2="13379.4" y2="-1706.48" gradientUnits="userSpaceOnUse">
<stop stop-opacity="0"/>
<stop offset="0.08" stop-opacity="0.19"/>
<stop offset="0.99"/>
</linearGradient>
<linearGradient id="paint6_linear_1532_21874" x1="14990.9" y1="964.229" x2="15065.6" y2="-1658.91" gradientUnits="userSpaceOnUse">
<stop stop-opacity="0"/>
<stop offset="0.08" stop-opacity="0.19"/>
<stop offset="0.99"/>
</linearGradient>
</defs>
</svg>
