<svg width="177" height="133" viewBox="0 0 177 133" fill="none" xmlns="http://www.w3.org/2000/svg">
<path opacity="0.3" d="M129.498 29.3675C144.361 34.3659 155.654 47.7683 158.26 64.2854C160.473 78.204 155.831 95.1666 131.033 102.556C105.722 110.104 41.1126 118.257 22.8905 89.7624C8.90749 67.8676 13.8458 38.1996 40.8693 28.5602C59.8127 21.7708 100.478 19.6047 129.498 29.3675Z" fill="#E6E6E6"/>
<path d="M136.29 53.6358L101.948 64.5854C101.026 61.8952 99.2836 59.5599 96.9641 57.9065C94.6447 56.2531 91.8646 55.3645 89.0133 55.3651V19.4282C99.5058 19.4278 109.73 22.7366 118.221 28.8809C126.713 35.0252 133.038 43.6902 136.29 53.6358Z" fill="#FFB443"/>
<path opacity="0.08" d="M136.29 53.6358L101.948 64.5854C101.026 61.8952 99.2836 59.5599 96.9641 57.9065C94.6447 56.2531 91.8646 55.3645 89.0133 55.3651V19.4282C99.5058 19.4278 109.73 22.7366 118.221 28.8809C126.713 35.0252 133.038 43.6902 136.29 53.6358Z" fill="black"/>
<path d="M125.604 68.9926C125.608 74.7858 124.226 80.4966 121.574 85.6509C118.921 90.8053 115.074 95.2546 110.351 98.6297L97.1199 79.9466C99.3378 78.3214 101.011 76.0658 101.921 73.4758C102.831 70.8857 102.934 68.082 102.217 65.4324L124.342 59.4414C125.185 62.5555 125.609 65.7672 125.604 68.9926Z" fill="#E52440"/>
<path d="M113.191 106.496C105.773 111.253 97.1094 113.716 88.2903 113.574C79.4711 113.431 70.8914 110.691 63.6315 105.697L81.8625 80.573C84.0394 81.9117 86.5501 82.6133 89.1078 82.5977C91.6656 82.5821 94.1674 81.8499 96.3278 80.4848L113.191 106.496Z" fill="#FFB443"/>
<path opacity="0.46" d="M113.191 106.496C105.773 111.253 97.1094 113.716 88.2903 113.574C79.4711 113.431 70.8914 110.691 63.6315 105.697L81.8625 80.573C84.0394 81.9117 86.5501 82.6133 89.1078 82.5977C91.6656 82.5821 94.1674 81.8499 96.3278 80.4848L113.191 106.496Z" fill="white"/>
<path d="M80.765 79.823L55.0381 113.572C55.0381 113.572 39.263 102.128 35.0282 83.1317C30.7935 64.1354 35.8159 52.6917 35.8159 52.6917L75.9683 65.0045C75.1514 67.6684 75.1732 70.518 76.0309 73.1692C76.8886 75.8204 78.5408 78.1458 80.765 79.8319V79.823Z" fill="#FFB443"/>
<path d="M87.9868 55.4269C85.4372 55.6192 82.993 56.5213 80.9324 58.0305C78.8719 59.5396 77.2777 61.5952 76.3313 63.9633C76.3313 63.9633 64.8883 60.284 60.6226 58.8238C62.6627 53.164 66.358 48.2438 71.2311 44.6988C76.1042 41.1537 81.9314 39.1465 87.9602 38.9363L87.9868 55.4269Z" fill="#E52440"/>
<path d="M89.0221 79.4304C86.9593 79.4304 84.9428 78.8205 83.2277 77.678C81.5125 76.5354 80.1757 74.9115 79.3863 73.0114C78.5969 71.1114 78.3904 69.0207 78.7928 67.0037C79.1952 64.9866 80.1886 63.1338 81.6472 61.6796C83.1058 60.2254 84.9642 59.2351 86.9874 58.8339C89.0106 58.4327 91.1076 58.6386 93.0134 59.4256C94.9192 60.2126 96.5481 61.5454 97.6941 63.2553C98.8402 64.9653 99.4519 66.9757 99.4519 69.0322C99.4483 71.7889 98.3484 74.4317 96.3932 76.381C94.438 78.3302 91.7872 79.4269 89.0221 79.4304ZM89.0221 61.4311C87.514 61.4302 86.0395 61.8752 84.7851 62.7099C83.5307 63.5446 82.5528 64.7315 81.9751 66.1203C81.3973 67.5092 81.2457 69.0377 81.5394 70.5125C81.8331 71.9872 82.5589 73.342 83.625 74.4055C84.6911 75.469 86.0496 76.1934 87.5287 76.4871C89.0077 76.7807 90.541 76.6304 91.9344 76.0552C93.3278 75.4801 94.5188 74.5058 95.3568 73.2557C96.1947 72.0056 96.642 70.5358 96.642 69.0322C96.6396 67.0178 95.8362 65.0864 94.4079 63.6615C92.9795 62.2367 91.0427 61.4346 89.0221 61.4311Z" fill="#C9C9C9"/>
<path d="M89.0221 79.4304C86.4711 79.4317 84.0085 78.4992 82.1014 76.8099L83.9644 74.7144C85.3552 75.9558 87.1554 76.6435 89.0221 76.6467V79.4304Z" fill="#E6E6E6"/>
<path d="M99.4519 69.0322H96.6421C96.6397 67.0178 95.8363 65.0864 94.4079 63.6615C92.9796 62.2367 91.0428 61.4346 89.0222 61.431V58.6341C91.7873 58.6376 94.4381 59.7342 96.3933 61.6835C98.3485 63.6328 99.4484 66.2756 99.4519 69.0322Z" fill="#E52440"/>
<path d="M89.0222 79.4304V76.6467C91.042 76.6432 92.9781 75.8417 94.4064 74.4178C95.8346 72.9939 96.6386 71.0636 96.6421 69.0499H99.4519C99.4426 71.8032 98.3402 74.4408 96.3857 76.386C94.4313 78.3312 91.7839 79.4258 89.0222 79.4304Z" fill="#FFD200"/>
<g opacity="0.08">
<path opacity="0.08" d="M89.2522 65.6662C89.4337 65.6662 89.4912 65.7324 89.4912 65.9132V66.3103C89.8177 66.3411 90.1293 66.4618 90.391 66.6589C90.6528 66.856 90.8545 67.1217 90.9736 67.4264C91.0709 67.6161 91.0311 67.722 90.8143 67.8191L90.416 67.9955C90.2346 68.0838 90.1461 68.044 90.0399 67.8499C89.9579 67.6499 89.8132 67.4816 89.6273 67.3703C89.4415 67.2589 89.2246 67.2106 89.0089 67.2323C88.323 67.2323 88.0088 67.4308 88.0088 67.8896C88.0088 68.1852 88.2832 68.3705 88.5664 68.4279C88.7573 68.4704 88.951 68.4999 89.146 68.5161C89.5112 68.5326 89.872 68.6025 90.2169 68.7234C90.3893 68.7807 90.5498 68.8689 90.6904 68.9837C90.8359 69.1313 90.95 69.3065 91.0261 69.4991C91.1021 69.6916 91.1384 69.8974 91.1329 70.1043C91.1329 70.9866 90.5443 71.5733 89.5045 71.7277V72.1689C89.5045 72.3542 89.4469 72.4159 89.2655 72.4159H88.823C88.6416 72.4159 88.5752 72.3542 88.5752 72.1689V71.7586C88.2146 71.7336 87.8694 71.6031 87.5829 71.3834C87.2963 71.1636 87.0812 70.8645 86.9645 70.5234C86.9468 70.4874 86.9376 70.4478 86.9377 70.4077C86.9379 70.3676 86.9473 70.328 86.9653 70.2922C86.9833 70.2563 87.0094 70.225 87.0415 70.2009C87.0736 70.1767 87.1108 70.1602 87.1504 70.1528L87.5442 70.0072C87.7477 69.9366 87.8362 69.9852 87.9247 70.1837C88.0056 70.3996 88.1557 70.5828 88.3517 70.7049C88.5478 70.8269 88.7788 70.881 89.0089 70.8587C89.7523 70.8587 90.1195 70.6248 90.1195 70.1528C90.1264 70.0431 90.0962 69.9344 90.0335 69.844C89.9709 69.7535 89.8797 69.6867 89.7744 69.6543C89.5177 69.5651 89.2494 69.5131 88.9779 69.4999C88.6084 69.4783 88.2444 69.4009 87.8982 69.2705C87.7372 69.2069 87.5877 69.1175 87.4557 69.0058C87.3099 68.864 87.1952 68.6935 87.1191 68.5051C87.0429 68.3168 87.0068 68.1147 87.0132 67.9117C87.0132 67.0294 87.5619 66.4691 88.5929 66.3323V65.9353C88.5929 65.7544 88.6593 65.6883 88.8407 65.6883L89.2522 65.6662Z" fill="black"/>
</g>
<path d="M63.2244 31.3395H43.5951V33.788H63.2244V31.3395Z" fill="#E6E6E6"/>
<path d="M62.0562 35.985H43.5951V38.4334H62.0562V35.985Z" fill="#E6E6E6"/>
<path d="M58.0383 41.2701H43.5951V43.7185H58.0383V41.2701Z" fill="#E6E6E6"/>
<path d="M134.985 91.6152H122.904V94.0637H134.985V91.6152Z" fill="#E6E6E6"/>
<path d="M132.356 96.9004H122.904V99.3488H132.356V96.9004Z" fill="#E6E6E6"/>
<path d="M143.671 45.3022H107.541V67.9646H143.671V45.3022Z" fill="#E6E6E6"/>
<path opacity="0.46" d="M111.019 65.6618V60.337L116.112 55.8328L120.201 60.0503L125.604 53.9534L130.006 59.9488L140.188 50.8344V65.6618H111.019Z" fill="white"/>
<path opacity="0.46" d="M121.236 47.6007H111.019V48.9771H121.236V47.6007Z" fill="white"/>
<path opacity="0.46" d="M119.749 50.8344H111.019V52.2108H119.749V50.8344Z" fill="white"/>
</svg>
