<svg width="163" height="123" viewBox="0 0 163 123" fill="none" xmlns="http://www.w3.org/2000/svg">
<path d="M88.2959 46.2159C70.8041 50.485 55.3239 48.6216 53.7277 42.0529C53.6166 41.6011 52.2443 36.0539 52.2665 35.5782C52.2665 35.5645 53.0168 35.5782 53.0219 35.5559C53.3996 29.1993 66.2599 26.4103 82.5109 22.4389C96.7828 18.9586 109.026 14.8161 114.172 18.7208C115.334 19.6003 116.783 25.3939 117.077 26.6054C118.679 33.1776 105.791 41.9502 88.2959 46.2159Z" fill="#FFB443"/>
<path d="M88.2958 46.2159C70.8041 50.485 55.3239 48.6217 53.7277 42.0529C53.6166 41.6012 52.1263 35.3506 52.1263 35.3506C52.504 28.9923 66.2599 26.4103 82.5108 22.4389C96.7828 18.9586 110.164 16.5477 115.312 20.4524C115.312 20.4524 116.783 25.3956 117.077 26.6122C118.679 33.1776 105.791 41.9502 88.2958 46.2159Z" fill="#981921"/>
<path opacity="0.29" d="M147.547 57.2608H25.5803C21.9332 57.2608 18.9767 60.2209 18.9767 63.8724V100.096C18.9767 103.747 21.9332 106.707 25.5803 106.707H147.547C151.194 106.707 154.151 103.747 154.151 100.096V63.8724C154.151 60.2209 151.194 57.2608 147.547 57.2608Z" fill="#E52440"/>
<path d="M144.745 54.6292H22.7776C19.1305 54.6292 16.174 57.5893 16.174 61.2408V97.464C16.174 101.116 19.1305 104.076 22.7776 104.076H144.745C148.392 104.076 151.348 101.116 151.348 97.464V61.2408C151.348 57.5893 148.392 54.6292 144.745 54.6292Z" fill="white"/>
<path d="M48.5409 72.515C48.5409 72.6006 48.5511 72.6861 48.5546 72.7682C48.5546 72.6827 48.5546 72.5971 48.5546 72.515H48.5409Z" fill="#FFB443"/>
<path d="M48.5546 72.26C48.5546 72.3456 48.5409 72.4312 48.5409 72.515H48.5597C48.5597 72.4295 48.5563 72.3456 48.5546 72.26Z" fill="#FFB443"/>
<path d="M69.2524 72.515C69.2524 72.6006 69.2627 72.6861 69.2644 72.7682C69.2644 72.6827 69.2644 72.5971 69.2644 72.515H69.2524Z" fill="#FFB443"/>
<path d="M69.2644 72.26C69.2644 72.3456 69.2524 72.4312 69.2524 72.515H69.2712C69.2712 72.4295 69.2661 72.3456 69.2644 72.26Z" fill="#FFB443"/>
<path d="M42.5183 72.515H42.5371C42.5371 72.4295 42.5269 72.3439 42.5234 72.26C42.5234 72.3456 42.5183 72.4295 42.5183 72.515Z" fill="#FFB443"/>
<path d="M42.5234 72.7682C42.5234 72.6827 42.5371 72.5971 42.5371 72.515H42.5183C42.5183 72.5989 42.5234 72.6827 42.5234 72.7682Z" fill="#FFB443"/>
<path d="M89.9844 72.26C89.9844 72.3456 89.9707 72.4312 89.9707 72.515H89.9844C89.9844 72.4295 89.9844 72.3456 89.9844 72.26Z" fill="#FFB443"/>
<path d="M63.2281 72.515H63.2487C63.2487 72.4277 63.2384 72.3439 63.235 72.26C63.2333 72.3456 63.2281 72.4295 63.2281 72.515Z" fill="#FFB443"/>
<path d="M89.9622 72.515C89.9622 72.6006 89.9724 72.6861 89.9758 72.7682C89.9758 72.6827 89.9758 72.5971 89.9758 72.515H89.9622Z" fill="#FFB443"/>
<path d="M63.235 72.7682C63.235 72.6827 63.2487 72.5971 63.2487 72.515H63.2281C63.2281 72.5989 63.2333 72.6827 63.235 72.7682Z" fill="#FFB443"/>
<path d="M83.9464 72.7682C83.9464 72.6827 83.9584 72.5971 83.9584 72.515H83.9396C83.9396 72.5989 83.9447 72.6827 83.9464 72.7682Z" fill="#FFB443"/>
<path d="M110.633 72.515C110.632 72.767 110.645 73.0189 110.67 73.2696C110.684 73.0198 110.692 72.7682 110.692 72.515H110.633Z" fill="#FFB443"/>
<path d="M110.663 71.7587C110.638 72.01 110.625 72.2624 110.626 72.515H110.686C110.693 72.2601 110.684 72.0085 110.663 71.7587Z" fill="#FFB443"/>
<path d="M83.9396 72.515H83.9584C83.9584 72.4295 83.9481 72.3439 83.9464 72.26C83.9447 72.3456 83.9396 72.4295 83.9396 72.515Z" fill="#FFB443"/>
<path d="M131.363 72.515C131.363 72.4295 131.363 72.3439 131.363 72.26C131.363 72.3456 131.349 72.4312 131.349 72.515H131.363Z" fill="#FFB443"/>
<path d="M104.631 73.2696C104.657 73.0189 104.67 72.767 104.67 72.515H104.608C104.608 72.7682 104.617 73.0198 104.631 73.2696Z" fill="#FFB443"/>
<path d="M104.608 72.515H104.67C104.67 72.2624 104.657 72.01 104.631 71.7587C104.617 72.0085 104.608 72.2601 104.608 72.515Z" fill="#FFB443"/>
<path d="M131.342 72.515C131.342 72.6006 131.353 72.6861 131.356 72.7682C131.356 72.6827 131.356 72.5971 131.356 72.515H131.342Z" fill="#FFB443"/>
<path d="M125.32 72.515H125.339C125.339 72.4295 125.328 72.3439 125.327 72.26C125.325 72.3456 125.32 72.4295 125.32 72.515Z" fill="#FFB443"/>
<path d="M125.327 72.7682C125.327 72.6827 125.339 72.5971 125.339 72.515H125.32C125.32 72.5989 125.325 72.6827 125.327 72.7682Z" fill="#FFB443"/>
<path d="M42.5235 72.26C42.4562 70.3321 41.6354 68.5077 40.2378 67.1798C38.8402 65.8518 36.9775 65.1266 35.051 65.1602C33.1245 65.1939 31.2882 65.9837 29.9377 67.3597C28.5872 68.7356 27.8304 70.5876 27.8304 72.5167C27.8304 74.4458 28.5872 76.2978 29.9377 77.6737C31.2882 79.0497 33.1245 79.8395 35.051 79.8732C36.9775 79.9068 38.8402 79.1816 40.2378 77.8536C41.6354 76.5257 42.4562 74.7013 42.5235 72.7734C42.5235 72.6878 42.5235 72.6023 42.5235 72.5201C42.5235 72.438 42.5235 72.3456 42.5235 72.26Z" fill="#FFB443"/>
<path d="M63.235 72.26C63.144 70.3723 62.3309 68.592 60.9643 67.2882C59.5977 65.9844 57.7824 65.2572 55.8948 65.2572C54.0071 65.2572 52.1918 65.9844 50.8252 67.2882C49.4586 68.592 48.6456 70.3723 48.5546 72.26C48.5546 72.3456 48.5546 72.4312 48.5546 72.515C48.5546 72.5988 48.5546 72.6861 48.5546 72.7682C48.6456 74.656 49.4586 76.4363 50.8252 77.74C52.1918 79.0438 54.0071 79.7711 55.8948 79.7711C57.7824 79.7711 59.5977 79.0438 60.9643 77.74C62.3309 76.4363 63.144 74.656 63.235 72.7682C63.235 72.6827 63.235 72.5971 63.235 72.515C63.235 72.4329 63.2333 72.3456 63.235 72.26Z" fill="#E52440"/>
<path d="M104.631 71.7587C104.426 69.9157 103.535 68.2178 102.134 67.0047C100.733 65.7917 98.9265 65.1529 97.0755 65.2163C95.2245 65.2796 93.4656 66.0404 92.1508 67.3464C90.836 68.6525 90.0623 70.4074 89.9844 72.26C89.9844 72.3456 89.9844 72.4312 89.9844 72.515C89.9844 72.5988 89.9844 72.6861 89.9844 72.7682C90.0478 74.6317 90.8155 76.4016 92.1322 77.7201C93.449 79.0386 95.2167 79.8074 97.0779 79.871C98.9391 79.9347 100.755 79.2885 102.159 78.0631C103.562 76.8376 104.449 75.1244 104.639 73.2696C104.625 73.0198 104.617 72.7682 104.617 72.515C104.617 72.2618 104.617 72.0085 104.631 71.7587Z" fill="#FFB443"/>
<path d="M83.9465 72.26C83.86 70.3689 83.0488 68.5839 81.6816 67.2763C80.3143 65.9686 78.4963 65.239 76.6055 65.239C74.7146 65.239 72.8966 65.9686 71.5293 67.2763C70.1621 68.5839 69.3509 70.3689 69.2644 72.26C69.2644 72.3456 69.2644 72.4311 69.2644 72.515C69.2644 72.5988 69.2644 72.6861 69.2644 72.7682C69.3509 74.6593 70.1621 76.4443 71.5293 77.7519C72.8966 79.0596 74.7146 79.7893 76.6055 79.7893C78.4963 79.7893 80.3143 79.0596 81.6816 77.7519C83.0488 76.4443 83.86 74.6593 83.9465 72.7682C83.9465 72.6827 83.9465 72.5971 83.9465 72.515C83.9465 72.4328 83.9448 72.3456 83.9465 72.26Z" fill="#E52440"/>
<path d="M125.327 72.26C125.28 70.3845 124.519 68.5976 123.201 67.2649C121.882 65.9321 120.104 65.1542 118.231 65.0902C116.358 65.0261 114.532 65.6808 113.125 66.9204C111.718 68.1599 110.838 69.8907 110.663 71.7587C110.677 72.0085 110.686 72.26 110.686 72.515C110.686 72.7699 110.686 73.0283 110.663 73.2696C110.851 75.1269 111.736 76.8434 113.14 78.0716C114.545 79.2997 116.363 79.9475 118.226 79.8837C120.089 79.82 121.859 79.0495 123.176 77.7283C124.493 76.4071 125.26 74.634 125.32 72.7682C125.32 72.6827 125.32 72.5971 125.32 72.515C125.32 72.4329 125.325 72.3456 125.327 72.26Z" fill="#FFB443"/>
<path d="M138.691 65.1523C136.786 65.1534 134.956 65.8952 133.587 67.2212C132.217 68.5472 131.416 70.3538 131.351 72.2601C131.351 72.3456 131.351 72.4312 131.351 72.515C131.351 72.5989 131.351 72.6861 131.351 72.7682C131.402 74.2117 131.875 75.6083 132.714 76.784C133.552 77.9596 134.717 78.8623 136.064 79.3796C137.411 79.8968 138.88 80.0056 140.288 79.6925C141.696 79.3794 142.982 78.6582 143.983 77.6189C144.985 76.5795 145.659 75.2679 145.921 73.8476C146.184 72.4273 146.023 70.9612 145.458 69.6319C144.894 68.3026 143.951 67.169 142.748 66.3724C141.545 65.5758 140.134 65.1515 138.691 65.1523Z" fill="#E52440"/>
<path d="M34.9543 72.4996V66.6819C33.8104 66.6857 32.6932 67.0285 31.7436 67.6671C30.794 68.3057 30.0546 69.2115 29.6186 70.2703C29.1825 71.3291 29.0694 72.4935 29.2935 73.6166C29.5176 74.7397 30.0688 75.7713 30.8777 76.5811C31.6865 77.3909 32.7168 77.9428 33.8386 78.1672C34.9603 78.3915 36.1233 78.2783 37.1809 77.8417C38.2384 77.4051 39.1431 76.6648 39.781 75.7141C40.4188 74.7634 40.7612 73.6449 40.7649 72.4996H34.9543Z" fill="white"/>
<path d="M55.7375 72.4996V66.6819C54.7176 66.6853 53.7163 66.9549 52.8322 67.4639C52.3927 67.7176 51.9878 68.027 51.6273 68.3845C51.0353 68.9681 50.5752 69.6721 50.278 70.449C49.9809 71.2258 49.8536 72.0575 49.9047 72.8878C49.9558 73.7181 50.1842 74.5277 50.5745 75.2621C50.9647 75.9966 51.5078 76.6386 52.1669 77.1451C52.8261 77.6515 53.5861 78.0105 54.3956 78.1978C55.2051 78.3852 56.0454 78.3966 56.8597 78.2312C57.674 78.0658 58.4433 77.7274 59.1159 77.239C59.7885 76.7506 60.3487 76.1234 60.7586 75.3998L55.7375 72.4996Z" fill="white"/>
<path d="M76.7122 72.4996V66.6819C75.1737 66.6911 73.7005 67.3057 72.6106 68.393C71.528 69.4858 70.9174 70.9605 70.9102 72.4996C70.9129 73.5207 71.1822 74.5235 71.6912 75.4084C72.461 76.742 73.7277 77.7154 75.2134 78.1153C76.6997 78.5131 78.2829 78.3045 79.6158 77.5352L76.7122 72.4996Z" fill="white"/>
<path d="M97.3332 72.4996V66.6819C96.3133 66.6853 95.312 66.9549 94.4279 67.4639C93.9914 67.7183 93.5894 68.0276 93.2316 68.3845C92.4218 69.198 91.8707 70.2333 91.6476 71.36C91.4246 72.4866 91.5396 73.6541 91.9783 74.7154C92.4169 75.7767 93.1595 76.6842 94.1124 77.3237C95.0653 77.9631 96.186 78.3058 97.3332 78.3086V72.491V72.4996Z" fill="white"/>
<path d="M118.103 72.4996V66.6819C116.956 66.6848 115.835 67.0275 114.882 67.6669C113.929 68.3063 113.186 69.2139 112.748 70.2752C112.309 71.3365 112.194 72.504 112.417 73.6306C112.64 74.7572 113.191 75.7926 114.001 76.6061L118.103 72.4996Z" fill="white"/>
<path d="M138.678 72.4996V66.6819C137.138 66.6856 135.662 67.2997 134.573 68.3899C133.484 69.4801 132.871 70.9578 132.867 72.4996H138.678Z" fill="white"/>
<path d="M29.1555 91.554H31.6199V92.1238C31.4139 92.309 31.2335 92.5207 31.0833 92.7535C30.9046 93.0382 30.766 93.3462 30.6714 93.6689C30.5836 93.974 30.5297 94.2879 30.5108 94.6048H29.6682C29.7173 94.1764 29.823 93.7563 29.9827 93.3558C30.1572 92.9666 30.3843 92.6033 30.6577 92.2761H29.1572L29.1555 91.554Z" fill="#FFB443"/>
<path d="M32.3156 91.554H34.3202V92.2282H32.9616L32.8898 92.685C32.979 92.6424 33.0723 92.6092 33.1684 92.5858C33.2578 92.5636 33.3496 92.5521 33.4418 92.5516C33.5774 92.5459 33.7127 92.5675 33.8398 92.6151C33.9669 92.6627 34.0832 92.7354 34.1818 92.8288C34.2749 92.9183 34.3483 93.0264 34.3971 93.146C34.446 93.2657 34.4693 93.3942 34.4655 93.5235C34.4656 93.7215 34.4157 93.9164 34.3202 94.0898C34.2274 94.2676 34.0825 94.4126 33.9049 94.5056C33.6921 94.6085 33.4575 94.6578 33.2213 94.6493C33.0487 94.6521 32.8765 94.6331 32.7086 94.5929C32.5775 94.5597 32.4539 94.5016 32.3446 94.4218C32.2484 94.3516 32.1656 94.2647 32.1002 94.1651C32.0308 94.055 31.9784 93.935 31.9447 93.8092L32.7992 93.7151C32.8101 93.8331 32.8614 93.9438 32.9445 94.0282C33.0176 94.0979 33.1152 94.136 33.2162 94.1343C33.2716 94.1355 33.3265 94.1242 33.3768 94.101C33.4271 94.0779 33.4716 94.0437 33.5067 94.0008C33.5917 93.8855 33.6323 93.7434 33.6212 93.6005C33.6333 93.458 33.5925 93.3161 33.5067 93.2018C33.4671 93.1599 33.4191 93.1269 33.3657 93.105C33.3124 93.0832 33.255 93.073 33.1974 93.0752C33.1151 93.0759 33.0342 93.0964 32.9616 93.135C32.8896 93.176 32.8259 93.23 32.7736 93.2942L32.0541 93.1898L32.3156 91.554Z" fill="#FFB443"/>
<path d="M34.8363 92.3018C34.8357 92.1616 34.8679 92.0233 34.9303 91.8979C34.9898 91.7723 35.0881 91.6691 35.2106 91.6036C35.3495 91.5323 35.504 91.497 35.6601 91.501C35.7699 91.4951 35.8798 91.5115 35.9831 91.5492C36.0865 91.5868 36.1812 91.6449 36.2616 91.72C36.4035 91.8805 36.4818 92.0874 36.4818 92.3018C36.4818 92.5161 36.4035 92.723 36.2616 92.8835C36.1812 92.9586 36.0865 93.0167 35.9831 93.0543C35.8798 93.092 35.7699 93.1084 35.6601 93.1025C35.504 93.1065 35.3495 93.0712 35.2106 92.9999C35.0877 92.9349 34.9893 92.8316 34.9303 92.7056C34.8677 92.5802 34.8355 92.4419 34.8363 92.3018ZM35.4191 92.3018C35.4086 92.4317 35.4378 92.5618 35.5028 92.6748C35.5204 92.6999 35.544 92.7201 35.5715 92.7335C35.599 92.747 35.6295 92.7533 35.6601 92.7518C35.6905 92.754 35.721 92.748 35.7483 92.7345C35.7757 92.721 35.7989 92.7003 35.8156 92.6748C35.8806 92.5618 35.9098 92.4317 35.8993 92.3018C35.9091 92.1713 35.8799 92.0409 35.8156 91.927C35.7985 91.9021 35.7751 91.8821 35.7477 91.8692C35.7204 91.8563 35.6902 91.8509 35.6601 91.8535C35.6298 91.8516 35.5995 91.8573 35.5721 91.8702C35.5446 91.883 35.5208 91.9026 35.5028 91.927C35.4373 92.0417 35.4081 92.1735 35.4191 92.3052V92.3018ZM37.4186 91.4976H37.8596L36.1027 94.7486H35.6703L37.4186 91.4976ZM37.029 93.9444C37.0287 93.8047 37.0596 93.6667 37.1196 93.5406C37.1803 93.4147 37.2797 93.3116 37.4033 93.2463C37.5408 93.1746 37.6942 93.1387 37.8493 93.1419C37.9597 93.1359 38.0701 93.1522 38.174 93.1898C38.278 93.2274 38.3733 93.2856 38.4543 93.3609C38.5953 93.5222 38.673 93.7292 38.673 93.9435C38.673 94.1579 38.5953 94.3649 38.4543 94.5261C38.3733 94.6014 38.278 94.6596 38.174 94.6972C38.0701 94.7349 37.9597 94.7512 37.8493 94.7452C37.6941 94.7492 37.5405 94.7133 37.4033 94.6408C37.2795 94.5766 37.1799 94.474 37.1196 94.3482C37.0601 94.2231 37.0292 94.0863 37.029 93.9478V93.9444ZM37.6118 93.9444C37.6019 94.0746 37.6304 94.2049 37.6938 94.3191C37.7109 94.344 37.7343 94.364 37.7616 94.3769C37.7889 94.3898 37.8192 94.3953 37.8493 94.3927C37.8798 94.3947 37.9104 94.389 37.9381 94.3762C37.9659 94.3633 37.99 94.3437 38.0082 94.3191C38.0622 94.2016 38.0902 94.0738 38.0902 93.9444C38.0902 93.815 38.0622 93.6872 38.0082 93.5697C37.9904 93.5445 37.9664 93.5244 37.9386 93.5112C37.9108 93.498 37.88 93.4922 37.8493 93.4944C37.8189 93.4921 37.7884 93.4981 37.7611 93.5117C37.7337 93.5252 37.7105 93.5458 37.6938 93.5714C37.6288 93.6868 37.6002 93.8192 37.6118 93.9512V93.9444Z" fill="#FFB443"/>
<path d="M51.5316 92.2385L50.6908 92.3428C50.6811 92.2502 50.6429 92.1629 50.5814 92.093C50.5288 92.0449 50.4595 92.0192 50.3883 92.0212C50.3208 92.0204 50.2546 92.0396 50.198 92.0765C50.1415 92.1133 50.0971 92.1661 50.0704 92.2282C49.9914 92.4324 49.9498 92.6492 49.9474 92.8681C50.0367 92.7743 50.142 92.6972 50.2584 92.6406C50.3745 92.5889 50.5006 92.5637 50.6275 92.567C50.7554 92.5651 50.8823 92.59 51.0001 92.6401C51.1178 92.6902 51.2237 92.7644 51.3111 92.8579C51.4049 92.9554 51.4781 93.0708 51.5265 93.1972C51.575 93.3235 51.5976 93.4583 51.5931 93.5936C51.5951 93.7866 51.5462 93.9766 51.4513 94.1446C51.3602 94.3067 51.2227 94.4379 51.0565 94.521C50.8593 94.6129 50.6433 94.6569 50.4259 94.6494C50.1723 94.6603 49.92 94.6067 49.6927 94.4936C49.4984 94.3766 49.3446 94.2029 49.2518 93.9957C49.1289 93.7109 49.0705 93.4024 49.0809 93.0923C49.0809 92.543 49.1971 92.1392 49.4227 91.8843C49.5451 91.7545 49.6943 91.653 49.8599 91.5868C50.0254 91.5206 50.2034 91.4913 50.3814 91.501C50.5763 91.4941 50.7709 91.5225 50.9557 91.5848C51.0877 91.6383 51.205 91.7228 51.2975 91.8312C51.404 91.9484 51.4839 92.0873 51.5316 92.2385ZM49.9764 93.5936C49.9679 93.7342 50.0124 93.8728 50.1012 93.982C50.1383 94.0265 50.1849 94.0622 50.2375 94.0864C50.2901 94.1107 50.3475 94.1229 50.4054 94.1223C50.4583 94.1231 50.5107 94.1121 50.5588 94.0902C50.607 94.0683 50.6497 94.0361 50.6839 93.9957C50.766 93.8876 50.8055 93.753 50.795 93.6176C50.8054 93.4774 50.7647 93.3382 50.6805 93.2257C50.6457 93.1828 50.6016 93.1484 50.5516 93.125C50.5016 93.1016 50.4469 93.0898 50.3917 93.0906C50.3359 93.0893 50.2805 93.1002 50.2294 93.1227C50.1783 93.1452 50.1328 93.1786 50.096 93.2206C50.0127 93.3262 49.9724 93.4595 49.9833 93.5936H49.9764Z" fill="#E52440"/>
<path d="M52.2682 91.554H54.2746V92.2282H52.9159L52.8424 92.685C52.9321 92.6422 53.026 92.6089 53.1227 92.5858C53.2116 92.5635 53.3028 92.552 53.3944 92.5516C53.53 92.5459 53.6654 92.5675 53.7925 92.6151C53.9196 92.6627 54.0359 92.7354 54.1344 92.8288C54.2275 92.9183 54.3009 93.0264 54.3498 93.146C54.3986 93.2657 54.4219 93.3942 54.4181 93.5235C54.4165 93.7227 54.3641 93.9182 54.266 94.0915C54.1732 94.2693 54.0283 94.4143 53.8507 94.5073C53.6379 94.6102 53.4033 94.6595 53.1671 94.6511C52.9945 94.6538 52.8223 94.6348 52.6544 94.5946C52.5235 94.5607 52.4001 94.5027 52.2904 94.4235C52.1947 94.3528 52.112 94.2659 52.046 94.1668C51.978 94.056 51.9257 93.9362 51.8905 93.8109L52.745 93.7168C52.7577 93.8343 52.8088 93.9444 52.8903 94.0299C52.9638 94.099 53.0612 94.137 53.162 94.136C53.2176 94.1373 53.2728 94.1259 53.3234 94.1028C53.374 94.0797 53.4187 94.0454 53.4542 94.0026C53.5384 93.8868 53.5789 93.745 53.5688 93.6022C53.5805 93.4595 53.5391 93.3175 53.4525 93.2035C53.4131 93.1614 53.365 93.1283 53.3117 93.1064C53.2583 93.0846 53.2008 93.0745 53.1432 93.0769C53.0609 93.0776 52.98 93.0981 52.9074 93.1368C52.836 93.1779 52.7729 93.2318 52.7211 93.2959L52.0016 93.1915L52.2682 91.554Z" fill="#E52440"/>
<path d="M54.7908 92.3018C54.7904 92.1619 54.822 92.0238 54.8831 91.8979C54.9432 91.7722 55.042 91.669 55.1651 91.6036C55.3039 91.5321 55.4585 91.4968 55.6145 91.501C55.7241 91.4953 55.8336 91.5118 55.9367 91.5494C56.0398 91.587 56.1342 91.645 56.2144 91.72C56.3563 91.8805 56.4346 92.0874 56.4346 92.3018C56.4346 92.5161 56.3563 92.723 56.2144 92.8835C56.1342 92.9585 56.0398 93.0165 55.9367 93.0541C55.8336 93.0918 55.7241 93.1082 55.6145 93.1025C55.4585 93.1067 55.3039 93.0714 55.1651 92.9999C55.0417 92.935 54.9427 92.8317 54.8831 92.7056C54.8218 92.5798 54.7903 92.4417 54.7908 92.3018ZM55.3736 92.3018C55.3634 92.4315 55.3919 92.5613 55.4556 92.6748C55.4733 92.7001 55.4972 92.7205 55.525 92.734C55.5529 92.7474 55.5837 92.7536 55.6145 92.7518C55.6447 92.7537 55.6748 92.7476 55.7018 92.7341C55.7288 92.7205 55.7518 92.7001 55.7683 92.6748C55.8334 92.5618 55.8626 92.4317 55.8521 92.3018C55.8618 92.1713 55.8327 92.0409 55.7683 91.927C55.7514 91.9024 55.7282 91.8826 55.7012 91.8697C55.6742 91.8568 55.6443 91.8512 55.6145 91.8535C55.584 91.8514 55.5534 91.8571 55.5257 91.87C55.4979 91.8828 55.4738 91.9024 55.4556 91.927C55.3915 92.0422 55.363 92.1738 55.3736 92.3052V92.3018ZM57.3714 91.4976H57.8089L56.0537 94.7486H55.6196L57.3714 91.4976ZM56.9817 93.9444C56.9812 93.8045 57.0128 93.6663 57.074 93.5406C57.1336 93.4145 57.2326 93.3112 57.356 93.2463C57.4941 93.1744 57.6481 93.1385 57.8038 93.1419C57.9139 93.1358 58.0241 93.1521 58.1277 93.1897C58.2314 93.2274 58.3264 93.2856 58.407 93.3609C58.5491 93.5217 58.6274 93.7289 58.6274 93.9435C58.6274 94.1582 58.5491 94.3654 58.407 94.5261C58.3264 94.6015 58.2314 94.6597 58.1277 94.6973C58.0241 94.7349 57.9139 94.7512 57.8038 94.7452C57.648 94.7494 57.4938 94.7135 57.356 94.6408C57.2324 94.5771 57.1332 94.4742 57.074 94.3482C57.0133 94.2235 56.9817 94.0866 56.9817 93.9478V93.9444ZM57.5645 93.9444C57.5542 94.0749 57.5834 94.2055 57.6482 94.3191C57.6654 94.344 57.6888 94.364 57.7161 94.3769C57.7434 94.3898 57.7737 94.3953 57.8038 94.3927C57.834 94.3946 57.8643 94.3888 57.8918 94.376C57.9192 94.3631 57.943 94.3436 57.961 94.3191C58.0161 94.2019 58.0447 94.0739 58.0447 93.9444C58.0447 93.8148 58.0161 93.6869 57.961 93.5697C57.9439 93.5441 57.9203 93.5237 57.8927 93.5104C57.865 93.4972 57.8343 93.4916 57.8038 93.4944C57.7733 93.4921 57.7429 93.4981 57.7155 93.5117C57.6882 93.5252 57.6649 93.5458 57.6482 93.5714C57.5819 93.6863 57.5526 93.819 57.5645 93.9512V93.9444Z" fill="#E52440"/>
<path d="M72.6447 92.2384L71.8039 92.3428C71.793 92.2502 71.7542 92.1631 71.6928 92.093C71.6408 92.045 71.5721 92.0192 71.5014 92.0211C71.4336 92.02 71.3671 92.0391 71.3101 92.076C71.2532 92.1129 71.2086 92.1658 71.1818 92.2282C71.1045 92.4329 71.0629 92.6493 71.0588 92.8681C71.1481 92.7743 71.2534 92.6972 71.3698 92.6405C71.486 92.5893 71.612 92.5642 71.7389 92.567C71.8668 92.5655 71.9935 92.5906 72.1112 92.6406C72.2289 92.6907 72.3349 92.7647 72.4225 92.8578C72.5153 92.956 72.5878 93.0715 72.6359 93.1977C72.684 93.324 72.7068 93.4585 72.7028 93.5936C72.7048 93.7866 72.6558 93.9766 72.561 94.1446C72.4708 94.3075 72.3331 94.4388 72.1662 94.521C71.969 94.6129 71.7529 94.6569 71.5356 94.6493C71.282 94.6601 71.0298 94.6066 70.8024 94.4936C70.6082 94.377 70.4548 94.2031 70.3632 93.9957C70.2394 93.7112 70.181 93.4024 70.1923 93.0923C70.1923 92.543 70.3085 92.1392 70.5341 91.8842C70.6568 91.7544 70.8063 91.6529 70.9722 91.5867C71.138 91.5205 71.3163 91.4913 71.4946 91.501C71.6889 91.4942 71.8828 91.5226 72.0671 91.5848C72.2018 91.6377 72.322 91.7222 72.4174 91.8312C72.5209 91.9495 72.5983 92.0882 72.6447 92.2384ZM71.0878 93.5936C71.0793 93.7342 71.1238 93.8728 71.2126 93.982C71.2499 94.0267 71.2968 94.0625 71.3497 94.0868C71.4026 94.111 71.4603 94.1232 71.5185 94.1223C71.5711 94.1228 71.6231 94.1117 71.671 94.0899C71.7188 94.068 71.7613 94.0358 71.7953 93.9957C71.878 93.8878 71.9181 93.7532 71.9081 93.6176C71.918 93.4772 71.8767 93.338 71.7919 93.2257C71.7571 93.1828 71.713 93.1484 71.663 93.125C71.613 93.1016 71.5583 93.0898 71.5031 93.0906C71.4473 93.0895 71.392 93.1005 71.341 93.123C71.2899 93.1454 71.2444 93.1787 71.2074 93.2206C71.1222 93.3255 71.0795 93.4587 71.0878 93.5936Z" fill="#E52440"/>
<path d="M73.0309 93.0649C73.0309 92.4866 73.1352 92.0816 73.3437 91.85C73.5505 91.6191 73.8684 91.5078 74.2939 91.5078C74.4652 91.5024 74.6361 91.5285 74.7981 91.5848C74.9176 91.6274 75.027 91.6944 75.1193 91.7816C75.1978 91.8557 75.2642 91.9417 75.3159 92.0365C75.3672 92.1356 75.4057 92.2409 75.4304 92.3497C75.4878 92.582 75.5165 92.8205 75.5158 93.0598C75.5158 93.613 75.4224 94.0168 75.2356 94.2712C75.0487 94.5256 74.7274 94.6539 74.2717 94.6562C74.058 94.6651 73.8454 94.6229 73.6513 94.533C73.4918 94.4507 73.3577 94.3265 73.2634 94.1737C73.1786 94.0321 73.1207 93.876 73.0925 93.7134C73.0493 93.5 73.0286 93.2826 73.0309 93.0649ZM73.8684 93.0649C73.85 93.3339 73.8855 93.6038 73.9726 93.8588C73.9945 93.9206 74.0347 93.9741 74.0879 94.0123C74.141 94.0506 74.2045 94.0716 74.27 94.0727C74.3111 94.073 74.352 94.0651 74.3901 94.0496C74.4282 94.034 74.4629 94.011 74.4921 93.982C74.5652 93.9024 74.6133 93.803 74.6306 93.6963C74.6666 93.4953 74.6815 93.2912 74.675 93.0871C74.6939 92.8116 74.6591 92.5349 74.5725 92.2727C74.5483 92.2108 74.5059 92.1578 74.451 92.1205C74.3961 92.0832 74.3312 92.0635 74.2648 92.0639C74.1983 92.0629 74.1332 92.0831 74.0788 92.1216C74.0245 92.16 73.9837 92.2147 73.9623 92.2778C73.8845 92.5325 73.8527 92.799 73.8684 93.0649Z" fill="#E52440"/>
<path d="M75.8953 92.3018C75.8949 92.1619 75.9265 92.0238 75.9876 91.8979C76.0477 91.7722 76.1465 91.669 76.2695 91.6036C76.4084 91.5321 76.563 91.4968 76.719 91.501C76.8288 91.4951 76.9387 91.5115 77.0421 91.5492C77.1454 91.5868 77.2401 91.6449 77.3206 91.72C77.4614 91.881 77.5391 92.0877 77.5391 92.3018C77.5391 92.5158 77.4614 92.7225 77.3206 92.8835C77.2401 92.9586 77.1454 93.0167 77.0421 93.0543C76.9387 93.092 76.8288 93.1084 76.719 93.1025C76.563 93.1067 76.4084 93.0714 76.2695 92.9999C76.1462 92.935 76.0472 92.8317 75.9876 92.7056C75.9263 92.5798 75.8947 92.4417 75.8953 92.3018ZM76.478 92.3018C76.4676 92.4317 76.4968 92.5618 76.5618 92.6748C76.5803 92.6986 76.604 92.7179 76.6311 92.7311C76.6582 92.7444 76.688 92.7513 76.7182 92.7513C76.7483 92.7513 76.7781 92.7444 76.8052 92.7311C76.8323 92.7179 76.856 92.6986 76.8745 92.6748C76.9382 92.5613 76.9667 92.4315 76.9566 92.3018C76.9655 92.1716 76.937 92.0416 76.8745 91.927C76.8555 91.904 76.8315 91.8856 76.8045 91.8729C76.7775 91.8602 76.748 91.8536 76.7182 91.8536C76.6883 91.8536 76.6588 91.8602 76.6318 91.8729C76.6048 91.8856 76.5809 91.904 76.5618 91.927C76.498 92.0422 76.4706 92.1741 76.4832 92.3052L76.478 92.3018ZM78.4759 91.4976H78.9151L77.1582 94.7486H76.7241L78.4759 91.4976ZM78.0879 93.9444C78.0877 93.8047 78.1186 93.6667 78.1785 93.5406C78.2387 93.4148 78.3375 93.3117 78.4605 93.2463C78.5988 93.1748 78.7527 93.1389 78.9083 93.1419C79.0184 93.1358 79.1286 93.1521 79.2322 93.1897C79.3359 93.2274 79.4309 93.2856 79.5115 93.3609C79.6535 93.5217 79.7319 93.7289 79.7319 93.9435C79.7319 94.1582 79.6535 94.3654 79.5115 94.5261C79.4309 94.6015 79.3359 94.6597 79.2322 94.6973C79.1286 94.7349 79.0184 94.7512 78.9083 94.7452C78.7526 94.749 78.5985 94.7131 78.4605 94.6408C78.3372 94.5766 78.2382 94.4738 78.1785 94.3482C78.1191 94.2231 78.0882 94.0863 78.0879 93.9478V93.9444ZM78.669 93.9444C78.6596 94.0748 78.6888 94.2051 78.7527 94.3191C78.7698 94.344 78.7933 94.364 78.8206 94.3769C78.8479 94.3898 78.8782 94.3953 78.9083 94.3927C78.9385 94.3947 78.9688 94.3891 78.9963 94.3762C79.0238 94.3633 79.0476 94.3437 79.0655 94.3191C79.1206 94.2019 79.1492 94.0739 79.1492 93.9444C79.1492 93.8148 79.1206 93.6869 79.0655 93.5697C79.0469 93.5458 79.0232 93.5266 78.9961 93.5133C78.969 93.5001 78.9393 93.4932 78.9091 93.4932C78.879 93.4932 78.8492 93.5001 78.8221 93.5133C78.795 93.5266 78.7713 93.5458 78.7527 93.5697C78.6868 93.6854 78.6576 93.8185 78.669 93.9512V93.9444Z" fill="#E52440"/>
<path d="M92.1565 91.554H94.1629V92.2282H92.7957L92.7222 92.685C92.8116 92.643 92.9049 92.6097 93.0008 92.5858C93.0903 92.5638 93.182 92.5523 93.2742 92.5516C93.41 92.5463 93.5455 92.568 93.6728 92.6156C93.8002 92.6632 93.9168 92.7356 94.0159 92.8288C94.1088 92.9185 94.1819 93.0266 94.2308 93.1462C94.2796 93.2658 94.3031 93.3943 94.2996 93.5234C94.2991 93.7216 94.2485 93.9164 94.1526 94.0898C94.0599 94.267 93.9157 94.412 93.739 94.5056C93.5262 94.6082 93.2916 94.6575 93.0554 94.6493C92.8828 94.6523 92.7106 94.6333 92.5427 94.5929C92.4112 94.5593 92.2871 94.5013 92.177 94.4218C92.0816 94.3507 91.999 94.2639 91.9326 94.1651C91.8646 94.0542 91.8122 93.9345 91.7771 93.8092L92.6316 93.7151C92.6429 93.8333 92.6949 93.944 92.7786 94.0282C92.8513 94.0975 92.9482 94.1356 93.0486 94.1343C93.1042 94.1355 93.1594 94.1242 93.21 94.1011C93.2606 94.0779 93.3053 94.0437 93.3408 94.0008C93.4258 93.8855 93.4664 93.7433 93.4553 93.6004C93.4679 93.4577 93.4264 93.3154 93.3391 93.2018C93.3 93.1597 93.2523 93.1266 93.1992 93.1048C93.1461 93.0829 93.0889 93.0728 93.0315 93.0752C92.9487 93.0756 92.8672 93.0961 92.794 93.135C92.7229 93.1766 92.6598 93.2305 92.6077 93.2942L91.8882 93.1898L92.1565 91.554Z" fill="#FFB443"/>
<path d="M94.6483 93.0649C94.6483 92.4865 94.7519 92.0816 94.9593 91.85C95.1667 91.6185 95.484 91.5044 95.9112 91.5078C96.082 91.5024 96.2523 91.5285 96.4137 91.5848C96.5336 91.6278 96.6435 91.6947 96.7367 91.7816C96.8141 91.8562 96.8798 91.9422 96.9315 92.0365C96.9835 92.1353 97.0221 92.2406 97.046 92.3497C97.1048 92.5817 97.1341 92.8203 97.1332 93.0597C97.1332 93.613 97.0392 94.0168 96.8512 94.2712C96.6632 94.5256 96.3419 94.6539 95.8873 94.6562C95.6737 94.6651 95.461 94.6229 95.2669 94.533C95.1076 94.4511 94.9739 94.3268 94.8807 94.1737C94.796 94.032 94.738 93.876 94.7098 93.7134C94.6675 93.4998 94.6469 93.2826 94.6483 93.0649ZM95.4857 93.0649C95.4679 93.3337 95.5027 93.6034 95.5882 93.8588C95.6103 93.9204 95.6506 93.9738 95.7037 94.012C95.7568 94.0502 95.8202 94.0714 95.8856 94.0727C95.9693 94.0733 96.0498 94.0407 96.1095 93.982C96.1819 93.9019 96.2299 93.8028 96.2479 93.6963C96.283 93.4952 96.2979 93.2912 96.2923 93.0871C96.3113 92.8115 96.2764 92.5349 96.1898 92.2727C96.164 92.2116 96.121 92.1594 96.0661 92.1223C96.0112 92.0852 95.9467 92.065 95.8805 92.0639C95.814 92.0632 95.749 92.0835 95.6947 92.1219C95.6404 92.1603 95.5995 92.2148 95.578 92.2778C95.5009 92.5326 95.4697 92.7991 95.4857 93.0649Z" fill="#FFB443"/>
<path d="M97.504 92.3018C97.5037 92.1619 97.5353 92.0238 97.5963 91.8979C97.6566 91.7717 97.7561 91.6684 97.88 91.6036C98.0182 91.5321 98.1723 91.4968 98.3278 91.501C98.4376 91.4951 98.5475 91.5115 98.6508 91.5492C98.7542 91.5868 98.8489 91.6449 98.9294 91.72C99.0712 91.8805 99.1496 92.0874 99.1496 92.3018C99.1496 92.5161 99.0712 92.723 98.9294 92.8835C98.8489 92.9586 98.7542 93.0167 98.6508 93.0543C98.5475 93.092 98.4376 93.1084 98.3278 93.1025C98.1723 93.1067 98.0182 93.0714 97.88 92.9999C97.7558 92.9355 97.6562 92.8321 97.5963 92.7056C97.5351 92.5798 97.5035 92.4417 97.504 92.3018ZM98.0868 92.3018C98.0763 92.4317 98.1055 92.5618 98.1706 92.6748C98.1874 92.7006 98.2109 92.7214 98.2386 92.735C98.2663 92.7485 98.2971 92.7543 98.3278 92.7518C98.3582 92.754 98.3887 92.748 98.416 92.7345C98.4434 92.721 98.4666 92.7003 98.4833 92.6748C98.5469 92.5613 98.5755 92.4315 98.5653 92.3018C98.5742 92.1716 98.5458 92.0416 98.4833 91.927C98.4662 91.9021 98.4428 91.8821 98.4155 91.8692C98.3881 91.8563 98.3579 91.8509 98.3278 91.8535C98.2975 91.8514 98.2672 91.8571 98.2397 91.8699C98.2122 91.8828 98.1884 91.9025 98.1706 91.927C98.1074 92.0424 98.0806 92.1742 98.0936 92.3052L98.0868 92.3018ZM100.085 91.4976H100.524L98.7687 94.7486H98.3415L100.085 91.4976ZM99.6967 93.9444C99.6956 93.8046 99.7266 93.6665 99.7873 93.5406C99.8479 93.4152 99.9466 93.3121 100.069 93.2463C100.207 93.1746 100.361 93.1387 100.517 93.1419C100.627 93.1357 100.737 93.152 100.841 93.1896C100.945 93.2273 101.04 93.2855 101.12 93.3609C101.262 93.5217 101.341 93.7289 101.341 93.9435C101.341 94.1582 101.262 94.3654 101.12 94.5261C101.04 94.6015 100.945 94.6598 100.841 94.6975C100.737 94.7351 100.627 94.7513 100.517 94.7452C100.361 94.7492 100.207 94.7133 100.069 94.6408C99.9464 94.5761 99.8475 94.4735 99.7873 94.3482C99.7294 94.2228 99.7008 94.0859 99.7035 93.9478L99.6967 93.9444ZM100.279 93.9444C100.27 94.0746 100.298 94.2049 100.361 94.3191C100.379 94.344 100.402 94.364 100.429 94.3769C100.457 94.3898 100.487 94.3953 100.517 94.3927C100.548 94.3946 100.578 94.3888 100.606 94.376C100.633 94.3631 100.658 94.3436 100.676 94.3191C100.73 94.2016 100.758 94.0738 100.758 93.9444C100.758 93.815 100.73 93.6872 100.676 93.5697C100.658 93.5448 100.634 93.5248 100.606 93.5116C100.578 93.4985 100.548 93.4925 100.517 93.4944C100.487 93.4921 100.456 93.4981 100.429 93.5117C100.401 93.5252 100.378 93.5458 100.361 93.5714C100.299 93.6876 100.273 93.8199 100.286 93.9512L100.279 93.9444Z" fill="#FFB443"/>
<path d="M113.227 94.0282H111.689V93.3335L113.227 91.501H113.964V93.3729H114.345V94.0282H113.964V94.6048H113.227V94.0282ZM113.227 93.3729V92.4147L112.413 93.3729H113.227Z" fill="#FFB443"/>
<path d="M114.936 91.554H116.942V92.2282H115.584L115.51 92.685C115.599 92.6427 115.693 92.6095 115.789 92.5858C115.878 92.5636 115.97 92.5521 116.062 92.5516C116.198 92.5459 116.333 92.5675 116.46 92.6151C116.587 92.6627 116.704 92.7354 116.802 92.8288C116.895 92.9183 116.969 93.0264 117.017 93.146C117.066 93.2657 117.09 93.3943 117.086 93.5235C117.086 93.7215 117.036 93.9164 116.941 94.0898C116.848 94.2676 116.703 94.4126 116.525 94.5056C116.313 94.6087 116.078 94.658 115.842 94.6493C115.669 94.6524 115.497 94.6335 115.329 94.5929C115.197 94.5597 115.073 94.5016 114.963 94.4218C114.868 94.3511 114.785 94.2642 114.719 94.1651C114.65 94.0546 114.598 93.9347 114.563 93.8092L115.418 93.7151C115.43 93.8328 115.481 93.9431 115.563 94.0282C115.637 94.0973 115.734 94.1353 115.835 94.1343C115.89 94.1355 115.946 94.1242 115.996 94.1011C116.047 94.078 116.092 94.0437 116.127 94.0008C116.211 93.8851 116.252 93.7433 116.242 93.6005C116.253 93.4578 116.212 93.3158 116.125 93.2018C116.086 93.1597 116.038 93.1266 115.985 93.1047C115.931 93.0829 115.874 93.0728 115.816 93.0752C115.734 93.0759 115.653 93.0964 115.58 93.135C115.509 93.1761 115.446 93.2301 115.394 93.2942L114.674 93.1898L114.936 91.554Z" fill="#FFB443"/>
<path d="M117.465 92.3018C117.465 92.1621 117.496 92.0242 117.556 91.8979C117.617 91.7725 117.717 91.6695 117.84 91.6036C117.978 91.5323 118.132 91.497 118.287 91.501C118.397 91.495 118.507 91.5113 118.611 91.5489C118.714 91.5865 118.809 91.6447 118.889 91.72C119.031 91.8805 119.109 92.0874 119.109 92.3018C119.109 92.5161 119.031 92.723 118.889 92.8835C118.809 92.9588 118.714 93.017 118.611 93.0546C118.507 93.0923 118.397 93.1086 118.287 93.1025C118.132 93.1065 117.978 93.0712 117.84 92.9999C117.716 92.9345 117.617 92.8314 117.556 92.7056C117.496 92.5794 117.465 92.4414 117.465 92.3018ZM118.048 92.3018C118.038 92.4315 118.067 92.5613 118.13 92.6748C118.148 92.6999 118.171 92.7201 118.199 92.7335C118.226 92.747 118.257 92.7533 118.287 92.7518C118.318 92.754 118.348 92.748 118.376 92.7345C118.403 92.721 118.426 92.7003 118.443 92.6748C118.508 92.5618 118.537 92.4317 118.527 92.3018C118.536 92.1713 118.507 92.0409 118.443 91.927C118.426 91.9021 118.402 91.8821 118.375 91.8692C118.348 91.8563 118.317 91.8509 118.287 91.8535C118.257 91.8516 118.227 91.8573 118.199 91.8702C118.172 91.883 118.148 91.9026 118.13 91.927C118.066 92.0422 118.038 92.1738 118.048 92.3052V92.3018ZM120.046 91.4976H120.483L118.728 94.7486H118.294L120.046 91.4976ZM119.656 93.9444C119.656 93.8045 119.687 93.6663 119.749 93.5406C119.808 93.4149 119.906 93.3117 120.029 93.2463C120.168 93.1746 120.322 93.1387 120.478 93.1419C120.588 93.136 120.699 93.1524 120.802 93.19C120.906 93.2277 121.001 93.2858 121.082 93.3609C121.223 93.5222 121.3 93.7292 121.3 93.9435C121.3 94.1579 121.223 94.3649 121.082 94.5261C121.001 94.6013 120.906 94.6594 120.802 94.697C120.699 94.7347 120.588 94.751 120.478 94.7452C120.322 94.7492 120.167 94.7133 120.029 94.6408C119.906 94.5765 119.808 94.4737 119.749 94.3482C119.688 94.2235 119.656 94.0866 119.656 93.9478V93.9444ZM120.239 93.9444C120.229 94.0749 120.258 94.2055 120.323 94.3191C120.34 94.344 120.363 94.364 120.391 94.3769C120.418 94.3898 120.448 94.3953 120.478 94.3927C120.509 94.3946 120.539 94.3888 120.566 94.376C120.594 94.3631 120.618 94.3436 120.636 94.3191C120.69 94.2016 120.718 94.0738 120.718 93.9444C120.718 93.815 120.69 93.6872 120.636 93.5697C120.618 93.5441 120.595 93.5237 120.567 93.5104C120.54 93.4972 120.509 93.4916 120.478 93.4944C120.448 93.4921 120.417 93.4981 120.39 93.5117C120.363 93.5252 120.339 93.5458 120.323 93.5714C120.255 93.6857 120.224 93.8185 120.234 93.9512L120.239 93.9444Z" fill="#FFB443"/>
<path d="M138.57 92.3018C138.569 92.1619 138.601 92.0238 138.662 91.8979C138.722 91.7722 138.821 91.669 138.944 91.6036C139.082 91.5325 139.236 91.4972 139.392 91.501C139.502 91.4951 139.612 91.5115 139.716 91.5491C139.819 91.5867 139.914 91.6449 139.995 91.72C140.136 91.881 140.214 92.0877 140.214 92.3018C140.214 92.5158 140.136 92.7225 139.995 92.8835C139.914 92.9587 139.819 93.0168 139.716 93.0544C139.612 93.092 139.502 93.1084 139.392 93.1025C139.236 93.1063 139.082 93.071 138.944 92.9999C138.821 92.935 138.722 92.8317 138.662 92.7056C138.601 92.5798 138.569 92.4417 138.57 92.3018ZM139.153 92.3018C139.142 92.4315 139.171 92.5613 139.235 92.6748C139.252 92.6997 139.276 92.7199 139.303 92.7333C139.331 92.7468 139.361 92.7531 139.392 92.7518C139.423 92.7543 139.453 92.7485 139.481 92.735C139.509 92.7214 139.532 92.7006 139.549 92.6748C139.613 92.5613 139.641 92.4315 139.631 92.3018C139.64 92.1716 139.612 92.0416 139.549 91.927C139.531 91.9025 139.507 91.8828 139.48 91.8699C139.452 91.8571 139.422 91.8514 139.392 91.8535C139.362 91.8519 139.331 91.8578 139.304 91.8706C139.277 91.8834 139.253 91.9028 139.235 91.927C139.171 92.0422 139.142 92.1738 139.153 92.3052V92.3018ZM141.15 91.4976H141.596L139.84 94.7486H139.407L141.15 91.4976ZM140.761 93.9444C140.76 93.8045 140.792 93.6663 140.853 93.5406C140.913 93.4148 141.012 93.3117 141.135 93.2463C141.273 93.1746 141.427 93.1387 141.583 93.1419C141.693 93.1358 141.803 93.1521 141.907 93.1897C142.01 93.2274 142.105 93.2856 142.186 93.3609C142.327 93.5222 142.405 93.7292 142.405 93.9435C142.405 94.1579 142.327 94.3649 142.186 94.5261C142.105 94.6015 142.01 94.6597 141.907 94.6973C141.803 94.7349 141.693 94.7512 141.583 94.7452C141.427 94.7492 141.273 94.7133 141.135 94.6408C141.012 94.5766 140.913 94.4738 140.853 94.3482C140.792 94.2235 140.761 94.0866 140.761 93.9478V93.9444ZM141.345 93.9444C141.335 94.0746 141.364 94.2049 141.427 94.3191C141.444 94.344 141.468 94.364 141.495 94.3769C141.522 94.3898 141.553 94.3953 141.583 94.3927C141.613 94.3946 141.643 94.3888 141.671 94.376C141.698 94.3631 141.722 94.3436 141.74 94.3191C141.795 94.2019 141.824 94.0739 141.824 93.9444C141.824 93.8148 141.795 93.6869 141.74 93.5697C141.723 93.5441 141.699 93.5237 141.672 93.5104C141.644 93.4972 141.613 93.4916 141.583 93.4944C141.552 93.4921 141.522 93.4981 141.495 93.5117C141.467 93.5252 141.444 93.5458 141.427 93.5714C141.362 93.6868 141.334 93.8192 141.345 93.9512V93.9444Z" fill="#E52440"/>
<path d="M135.485 94.5638H132.981C133.012 94.3136 133.102 94.0742 133.243 93.8657C133.473 93.5667 133.75 93.3062 134.062 93.094C134.235 92.9768 134.392 92.8376 134.53 92.6799C134.592 92.6036 134.628 92.5094 134.632 92.4113C134.633 92.3673 134.624 92.3238 134.607 92.2834C134.589 92.2431 134.564 92.2068 134.532 92.1768C134.461 92.1141 134.37 92.0794 134.275 92.0794C134.181 92.0794 134.089 92.1141 134.019 92.1768C133.937 92.2774 133.889 92.4015 133.882 92.531L133.046 92.4643C133.065 92.2695 133.127 92.0814 133.228 91.9133C133.319 91.7787 133.447 91.673 133.597 91.6088C133.808 91.5299 134.033 91.4944 134.258 91.5044C134.49 91.4942 134.722 91.5284 134.942 91.6053C135.099 91.6665 135.233 91.7739 135.328 91.9133C135.42 92.0508 135.469 92.213 135.468 92.3788C135.467 92.5658 135.411 92.7484 135.307 92.9041C135.148 93.122 134.949 93.3083 134.721 93.4533C134.55 93.5697 134.443 93.6518 134.379 93.698C134.316 93.7442 134.256 93.8058 134.179 93.8811H135.483L135.485 94.5638Z" fill="#E52440"/>
<path d="M136.179 91.5591H138.158V92.2247H136.811L136.741 92.6765C136.829 92.6339 136.921 92.6006 137.016 92.5772C137.104 92.5564 137.194 92.5455 137.285 92.5447C137.419 92.5389 137.553 92.5601 137.678 92.6071C137.804 92.6542 137.919 92.726 138.016 92.8185C138.108 92.9069 138.18 93.0134 138.228 93.1312C138.276 93.249 138.3 93.3756 138.296 93.5029C138.296 93.6985 138.247 93.8908 138.153 94.0624C138.061 94.238 137.918 94.3813 137.743 94.4731C137.53 94.5753 137.295 94.6235 137.059 94.6134C136.886 94.6167 136.714 94.5978 136.546 94.5569C136.416 94.5241 136.294 94.4659 136.186 94.3858C136.091 94.3163 136.01 94.2306 135.945 94.1326C135.877 94.0231 135.826 93.9044 135.793 93.7801L136.635 93.6877C136.647 93.8037 136.697 93.9123 136.779 93.9957C136.817 94.0314 136.861 94.0592 136.91 94.0773C136.959 94.0954 137.011 94.1035 137.063 94.1011C137.115 94.0987 137.166 94.0859 137.213 94.0634C137.26 94.0408 137.302 94.0091 137.336 93.97C137.419 93.8557 137.459 93.7157 137.449 93.5748C137.461 93.4339 137.42 93.2936 137.334 93.1812C137.295 93.1394 137.248 93.1066 137.195 93.085C137.142 93.0635 137.085 93.0537 137.028 93.0563C136.947 93.0569 136.867 93.0775 136.796 93.1162C136.726 93.1566 136.663 93.2093 136.611 93.2719L135.9 93.1692L136.179 91.5591Z" fill="#E52440"/>
<path d="M149.772 85.6064H21.0343V86.0735H149.772V85.6064Z" fill="#FFB443"/>
<path d="M86.6535 40.6036C69.1618 44.8813 54.0114 43.0504 52.4101 36.4816C52.2973 36.0299 52.0819 35.2035 52.0854 35.1898C52.4648 28.8315 64.6175 20.798 80.8685 16.8266C95.1405 13.348 108.069 13.9503 113.215 17.8533C114.377 18.731 115.143 19.7816 115.437 20.9931C117.036 27.5567 104.15 36.3396 86.6535 40.6036Z" fill="#E52440"/>
<path d="M113.215 17.855L84.6471 26.5386L52.3759 36.3533C52.2955 35.8965 52.0905 35.6569 52.0853 35.1898C52.0853 35.1761 52.0853 35.2035 52.0853 35.1898C52.3759 30.3543 59.4153 24.4734 69.9838 20.2796C73.5282 18.8787 77.1651 17.725 80.8685 16.8266C95.1404 13.348 108.069 13.9503 113.215 17.855Z" fill="url(#paint0_linear_1532_21602)"/>
<path d="M71.4176 42.8451L84.6488 26.5403L52.3759 36.3533C52.3759 36.3533 52.557 43.3499 71.4176 42.8451Z" fill="url(#paint1_linear_1532_21602)"/>
<path d="M84.6471 23.6675L52.0853 33.5711C52.0061 33.111 51.9643 32.6452 51.9606 32.1783C51.9581 32.1726 51.9568 32.1665 51.9568 32.1603C51.9568 32.1542 51.9581 32.148 51.9606 32.1424C52.2494 27.3069 59.4153 21.6039 69.9838 17.4084L84.6471 23.6675Z" fill="#FFB443"/>
<path d="M84.6488 26.5404L84.6471 23.6675L52.0853 33.5711L84.6488 26.5404Z" fill="#FFB443"/>
<path d="M84.6488 26.5404L84.6471 23.6675L52.0853 33.5711V35.1898L84.6488 26.5404Z" fill="#981921"/>
<path d="M71.4177 42.8451V39.8969L84.6472 24.6393L84.6489 26.5403L71.4177 42.8451Z" fill="#981921"/>
<path d="M84.6471 24.6393L52.0853 35.1898C52.0853 35.1898 57.3833 41.1785 71.4176 39.8969L84.6471 24.6393Z" fill="#FFB443"/>
<path d="M71.4177 39.8969V48.5087C71.4177 48.5087 56.8586 48.8698 54.0097 42.8622L52.0853 35.1812C52.0853 35.1812 58.4172 42.7236 71.4177 39.8969Z" fill="#FFB443"/>
<path d="M71.4177 39.8969V48.5087C71.4177 48.5087 56.8586 48.8698 54.0097 42.8622L52.0853 35.1812C52.0853 35.1812 58.4172 42.7236 71.4177 39.8969Z" fill="#530A0F"/>
<path d="M66.4667 25.5753L57.9131 12.6345L39.6746 11.589L39.7019 11.1219L58.1729 12.1828L58.2378 12.2786L66.8564 25.3169L66.4667 25.5753Z" fill="#FFB443"/>
<path d="M38.2441 13.0794C37.8428 13.0794 37.4505 12.9602 37.1168 12.737C36.7832 12.5137 36.5232 12.1964 36.3697 11.8252C36.2162 11.454 36.1761 11.0455 36.2546 10.6515C36.333 10.2575 36.5263 9.89558 36.8102 9.61161C37.0941 9.32763 37.4557 9.13433 37.8493 9.05615C38.243 8.97798 38.6509 9.01844 39.0215 9.17243C39.3922 9.32642 39.7089 9.58701 39.9316 9.92123C40.1543 10.2555 40.273 10.6483 40.2726 11.0501C40.2717 11.5883 40.0577 12.1042 39.6774 12.4846C39.2971 12.8651 38.7816 13.079 38.2441 13.0794ZM38.2441 9.48617C37.9352 9.48617 37.6332 9.57785 37.3764 9.74962C37.1196 9.92139 36.9194 10.1655 36.8011 10.4512C36.6828 10.7369 36.6518 11.0512 36.7119 11.3546C36.772 11.6579 36.9206 11.9365 37.1389 12.1553C37.3572 12.3741 37.6354 12.5232 37.9383 12.5837C38.2412 12.6443 38.5552 12.6135 38.8406 12.4954C39.1261 12.3773 39.3702 12.1772 39.542 11.9202C39.7139 11.6632 39.8058 11.361 39.8061 11.0518C39.8063 10.8462 39.7661 10.6426 39.6877 10.4525C39.6093 10.2625 39.4943 10.0898 39.3493 9.94423C39.2042 9.79869 39.032 9.68318 38.8423 9.60429C38.6527 9.5254 38.4494 9.48468 38.2441 9.48446V9.48617Z" fill="#FFB443"/>
<path d="M86.4348 17.4786L86.0452 17.2202L94.7287 4.08433L94.8449 4.07748L113.201 3.02518L113.227 3.4923L94.9884 4.53776L86.4348 17.4786Z" fill="#FFB443"/>
<path d="M114.659 4.98264C114.258 4.98264 113.866 4.86352 113.532 4.64034C113.198 4.41717 112.938 4.09997 112.785 3.72884C112.631 3.35772 112.591 2.94935 112.669 2.55536C112.748 2.16138 112.941 1.79949 113.225 1.51544C113.508 1.23139 113.87 1.03796 114.263 0.959589C114.657 0.881221 115.065 0.921443 115.435 1.07517C115.806 1.22889 116.123 1.48921 116.346 1.82322C116.569 2.15722 116.688 2.5499 116.688 2.9516C116.687 3.49012 116.473 4.00646 116.093 4.38726C115.713 4.76805 115.197 4.98218 114.659 4.98264ZM114.659 1.3894C114.35 1.3894 114.048 1.48112 113.791 1.65296C113.534 1.82481 113.334 2.06906 113.216 2.35483C113.098 2.64059 113.067 2.95505 113.127 3.25842C113.187 3.56179 113.336 3.84045 113.555 4.05916C113.773 4.27788 114.051 4.42683 114.354 4.48717C114.657 4.54752 114.971 4.51655 115.257 4.39818C115.542 4.27981 115.786 4.07936 115.958 3.82218C116.13 3.56499 116.221 3.26262 116.221 2.95331C116.221 2.53838 116.057 2.14041 115.764 1.84685C115.471 1.55329 115.074 1.38814 114.659 1.38768V1.3894Z" fill="#FFB443"/>
<path d="M137.153 44.8744C136.752 44.8744 136.36 44.7553 136.026 44.532C135.692 44.3088 135.432 43.9915 135.279 43.6202C135.125 43.249 135.085 42.8405 135.164 42.4465C135.242 42.0525 135.435 41.6906 135.719 41.4066C136.003 41.1226 136.365 40.9293 136.758 40.8512C137.152 40.773 137.56 40.8135 137.931 40.9674C138.301 41.1214 138.618 41.382 138.841 41.7162C139.063 42.0505 139.182 42.4433 139.182 42.8451C139.181 43.3833 138.967 43.8992 138.586 44.2797C138.206 44.6601 137.691 44.874 137.153 44.8744ZM137.153 41.2812C136.844 41.2812 136.542 41.3729 136.285 41.5447C136.028 41.7166 135.828 41.9608 135.71 42.2466C135.592 42.5324 135.561 42.8468 135.621 43.1502C135.681 43.4536 135.83 43.7322 136.049 43.951C136.267 44.1697 136.545 44.3186 136.848 44.379C137.151 44.4393 137.465 44.4083 137.751 44.29C138.036 44.1716 138.28 43.9711 138.452 43.714C138.624 43.4568 138.715 43.1544 138.715 42.8451C138.715 42.4305 138.55 42.0329 138.257 41.7397C137.964 41.4465 137.567 41.2816 137.153 41.2812Z" fill="#981921"/>
<path d="M135.359 43.0778H117.395L117.339 43.0402L99.5992 31.5435L99.8539 31.1517L117.534 42.6107H135.359V43.0778Z" fill="#981921"/>
<path d="M29.335 47.927C28.9338 47.9266 28.5418 47.8072 28.2084 47.5839C27.8751 47.3605 27.6153 47.0432 27.462 46.672C27.3088 46.3008 27.2688 45.8925 27.3473 45.4987C27.4258 45.1048 27.6191 44.743 27.9029 44.4592C28.1866 44.1753 28.5481 43.982 28.9416 43.9038C29.335 43.8256 29.7428 43.8659 30.1134 44.0197C30.484 44.1734 30.8007 44.4338 31.0235 44.7677C31.2464 45.1017 31.3653 45.4943 31.3653 45.8959C31.3648 46.4348 31.1507 46.9514 30.77 47.3322C30.3893 47.7131 29.8732 47.927 29.335 47.927ZM29.335 44.3337C29.026 44.3337 28.724 44.4255 28.4672 44.5973C28.2103 44.7691 28.0101 45.0134 27.8919 45.2992C27.7736 45.5849 27.7427 45.8994 27.803 46.2028C27.8632 46.5061 28.012 46.7848 28.2305 47.0035C28.4489 47.2222 28.7272 47.3712 29.0303 47.4315C29.3333 47.4919 29.6473 47.4609 29.9328 47.3425C30.2182 47.2242 30.4621 47.0237 30.6338 46.7665C30.8054 46.5093 30.897 46.207 30.897 45.8977C30.897 45.4827 30.7325 45.0848 30.4396 44.7912C30.1467 44.4976 29.7494 44.3325 29.335 44.332V44.3337Z" fill="#FFB443"/>
<path d="M49.0946 46.1304H31.1312V45.6632H48.9562L66.6359 34.2042L66.8905 34.5961L49.0946 46.1304Z" fill="#FFB443"/>
<defs>
<linearGradient id="paint0_linear_1532_21602" x1="102.711" y1="54.2716" x2="60.7512" y2="-2.82817" gradientUnits="userSpaceOnUse">
<stop offset="0.01" stop-color="white"/>
<stop offset="1" stop-color="white" stop-opacity="0"/>
</linearGradient>
<linearGradient id="paint1_linear_1532_21602" x1="12136.7" y1="8027.82" x2="13523.6" y2="-3237.22" gradientUnits="userSpaceOnUse">
<stop offset="0.01"/>
<stop offset="0.08" stop-opacity="0.69"/>
<stop offset="0.21" stop-opacity="0.32"/>
<stop offset="1" stop-opacity="0"/>
</linearGradient>
</defs>
</svg>
