<svg width="256" height="258" viewBox="0 0 256 258" fill="none" xmlns="http://www.w3.org/2000/svg">
<g filter="url(#filter0_d_61_41)">
<g filter="url(#filter1_d_61_41)">
<rect x="20" y="20" width="182" height="218" rx="5" fill="white"/>
</g>
<rect x="129.949" y="49.2412" width="10.8213" height="67.6305" rx="5.41065" fill="#E52440"/>
<g filter="url(#filter2_d_61_41)">
<rect x="151.592" y="77.7175" width="10.8213" height="39.1545" rx="5.41065" fill="#FFB443"/>
</g>
<rect x="173.235" y="58.1401" width="10.8213" height="58.7318" rx="5.41065" fill="#981921"/>
<rect opacity="0.5" x="42.7959" y="133.883" width="119.458" height="7.24617" rx="3.62308" fill="#BEBFCC"/>
<rect opacity="0.5" x="42.7959" y="150.791" width="65.3505" height="7.24617" rx="3.62308" fill="#BEBFCC"/>
<rect x="43" y="168" width="193" height="7" rx="3.5" fill="#FFB443"/>
<g filter="url(#filter3_d_61_41)">
<rect x="42.7959" y="184.606" width="80.3441" height="7.24617" rx="3.62308" fill="#981921"/>
</g>
<rect opacity="0.5" x="42.7959" y="201.513" width="123.911" height="7.24617" rx="3.62308" fill="#E52440"/>
<g filter="url(#filter4_d_61_41)">
<rect x="43" y="51.3889" width="68" height="68" rx="15.5249" fill="#FF0000"/>
</g>
<path d="M95.25 85.2687C95.25 85.1742 95.25 85.0668 95.2457 84.9422C95.2414 84.5941 95.2328 84.2031 95.2242 83.7863C95.1898 82.5875 95.1297 81.3929 95.0352 80.2672C94.9062 78.716 94.7172 77.4226 94.4594 76.4515C94.1873 75.4381 93.654 74.5138 92.9128 73.7711C92.1716 73.0284 91.2484 72.4932 90.2355 72.2191C89.0195 71.8925 86.6391 71.6906 83.2875 71.566C81.6934 71.5058 79.9875 71.4671 78.2816 71.4457C77.6844 71.4371 77.1301 71.4328 76.6316 71.4285H75.3684C74.8699 71.4328 74.3156 71.4371 73.7184 71.4457C72.0125 71.4671 70.3066 71.5058 68.7125 71.566C65.3609 71.6949 62.9762 71.8968 61.7645 72.2191C60.7513 72.4925 59.8277 73.0275 59.0864 73.7703C58.3451 74.5131 57.812 75.4378 57.5406 76.4515C57.2785 77.4226 57.0938 78.716 56.9648 80.2672C56.8703 81.3929 56.8102 82.5875 56.7758 83.7863C56.7629 84.2031 56.7586 84.5941 56.7543 84.9422C56.7543 85.0668 56.75 85.1742 56.75 85.2687V85.5094C56.75 85.6039 56.75 85.7113 56.7543 85.8359C56.7586 86.184 56.7672 86.575 56.7758 86.9918C56.8102 88.1906 56.8703 89.3851 56.9648 90.5109C57.0938 92.0621 57.2828 93.3555 57.5406 94.3266C58.0906 96.3848 59.7062 98.009 61.7645 98.559C62.9762 98.8856 65.3609 99.0875 68.7125 99.2121C70.3066 99.2723 72.0125 99.3109 73.7184 99.3324C74.3156 99.341 74.8699 99.3453 75.3684 99.3496H76.6316C77.1301 99.3453 77.6844 99.341 78.2816 99.3324C79.9875 99.3109 81.6934 99.2723 83.2875 99.2121C86.6391 99.0832 89.0238 98.8813 90.2355 98.559C92.2938 98.009 93.9094 96.3891 94.4594 94.3266C94.7215 93.3555 94.9062 92.0621 95.0352 90.5109C95.1297 89.3851 95.1898 88.1906 95.2242 86.9918C95.2371 86.575 95.2414 86.184 95.2457 85.8359C95.2457 85.7113 95.25 85.6039 95.25 85.5094V85.2687ZM92.1562 85.4922C92.1562 85.5824 92.1562 85.6812 92.152 85.7972C92.1477 86.1324 92.1391 86.5019 92.1305 86.9015C92.1004 88.0445 92.0402 89.1875 91.95 90.2488C91.834 91.6324 91.6707 92.7668 91.4688 93.5273C91.2023 94.5199 90.4203 95.3062 89.432 95.5684C88.5297 95.809 86.2566 96.0023 83.1672 96.1184C81.6031 96.1785 79.9187 96.2172 78.2387 96.2387C77.65 96.2473 77.1043 96.2516 76.6145 96.2516H75.3855L73.7613 96.2387C72.0813 96.2172 70.4012 96.1785 68.8328 96.1184C65.7434 95.998 63.466 95.809 62.568 95.5684C61.5797 95.302 60.7977 94.5199 60.5312 93.5273C60.3293 92.7668 60.166 91.6324 60.05 90.2488C59.9598 89.1875 59.9039 88.0445 59.8695 86.9015C59.8566 86.5019 59.8523 86.1281 59.848 85.7972C59.848 85.6812 59.8438 85.5781 59.8438 85.4922V85.2859C59.8438 85.1957 59.8438 85.0969 59.848 84.9808C59.8523 84.6457 59.8609 84.2761 59.8695 83.8765C59.8996 82.7336 59.9598 81.5906 60.05 80.5293C60.166 79.1457 60.3293 78.0113 60.5312 77.2507C60.7977 76.2582 61.5797 75.4718 62.568 75.2097C63.4703 74.9691 65.7434 74.7757 68.8328 74.6597C70.3969 74.5996 72.0813 74.5609 73.7613 74.5394C74.35 74.5308 74.8957 74.5265 75.3855 74.5265H76.6145L78.2387 74.5394C79.9187 74.5609 81.5988 74.5996 83.1672 74.6597C86.2566 74.78 88.534 74.9691 89.432 75.2097C90.4203 75.4761 91.2023 76.2582 91.4688 77.2507C91.6707 78.0113 91.834 79.1457 91.95 80.5293C92.0402 81.5906 92.0961 82.7336 92.1305 83.8765C92.1434 84.2761 92.1477 84.65 92.152 84.9808C92.152 85.0969 92.1562 85.2 92.1562 85.2859V85.4922ZM72.1758 91.1469L82.1445 85.3461L72.1758 79.6312V91.1469Z" fill="white"/>
</g>
<defs>
<filter id="filter0_d_61_41" x="0" y="0" width="256" height="258" filterUnits="userSpaceOnUse" color-interpolation-filters="sRGB">
<feFlood flood-opacity="0" result="BackgroundImageFix"/>
<feColorMatrix in="SourceAlpha" type="matrix" values="0 0 0 0 0 0 0 0 0 0 0 0 0 0 0 0 0 0 127 0" result="hardAlpha"/>
<feOffset/>
<feGaussianBlur stdDeviation="10"/>
<feComposite in2="hardAlpha" operator="out"/>
<feColorMatrix type="matrix" values="0 0 0 0 0.596078 0 0 0 0 0.0980392 0 0 0 0 0.129412 0 0 0 0.05 0"/>
<feBlend mode="normal" in2="BackgroundImageFix" result="effect1_dropShadow_61_41"/>
<feBlend mode="normal" in="SourceGraphic" in2="effect1_dropShadow_61_41" result="shape"/>
</filter>
<filter id="filter1_d_61_41" x="4" y="8" width="214" height="250" filterUnits="userSpaceOnUse" color-interpolation-filters="sRGB">
<feFlood flood-opacity="0" result="BackgroundImageFix"/>
<feColorMatrix in="SourceAlpha" type="matrix" values="0 0 0 0 0 0 0 0 0 0 0 0 0 0 0 0 0 0 127 0" result="hardAlpha"/>
<feOffset dy="4"/>
<feGaussianBlur stdDeviation="8"/>
<feColorMatrix type="matrix" values="0 0 0 0 0.121042 0 0 0 0 0.143938 0 0 0 0 0.35 0 0 0 0.11 0"/>
<feBlend mode="normal" in2="BackgroundImageFix" result="effect1_dropShadow_61_41"/>
<feBlend mode="normal" in="SourceGraphic" in2="effect1_dropShadow_61_41" result="shape"/>
</filter>
<filter id="filter2_d_61_41" x="147.592" y="77.7175" width="18.8213" height="47.1545" filterUnits="userSpaceOnUse" color-interpolation-filters="sRGB">
<feFlood flood-opacity="0" result="BackgroundImageFix"/>
<feColorMatrix in="SourceAlpha" type="matrix" values="0 0 0 0 0 0 0 0 0 0 0 0 0 0 0 0 0 0 127 0" result="hardAlpha"/>
<feOffset dy="4"/>
<feGaussianBlur stdDeviation="2"/>
<feComposite in2="hardAlpha" operator="out"/>
<feColorMatrix type="matrix" values="0 0 0 0 0 0 0 0 0 0 0 0 0 0 0 0 0 0 0.25 0"/>
<feBlend mode="normal" in2="BackgroundImageFix" result="effect1_dropShadow_61_41"/>
<feBlend mode="normal" in="SourceGraphic" in2="effect1_dropShadow_61_41" result="shape"/>
</filter>
<filter id="filter3_d_61_41" x="39.7959" y="183.606" width="86.3441" height="13.2461" filterUnits="userSpaceOnUse" color-interpolation-filters="sRGB">
<feFlood flood-opacity="0" result="BackgroundImageFix"/>
<feColorMatrix in="SourceAlpha" type="matrix" values="0 0 0 0 0 0 0 0 0 0 0 0 0 0 0 0 0 0 127 0" result="hardAlpha"/>
<feOffset dy="2"/>
<feGaussianBlur stdDeviation="1.5"/>
<feColorMatrix type="matrix" values="0 0 0 0 0.470588 0 0 0 0 0.172549 0 0 0 0 0.894118 0 0 0 0.19 0"/>
<feBlend mode="normal" in2="BackgroundImageFix" result="effect1_dropShadow_61_41"/>
<feBlend mode="normal" in="SourceGraphic" in2="effect1_dropShadow_61_41" result="shape"/>
</filter>
<filter id="filter4_d_61_41" x="27" y="41.3889" width="100" height="100" filterUnits="userSpaceOnUse" color-interpolation-filters="sRGB">
<feFlood flood-opacity="0" result="BackgroundImageFix"/>
<feColorMatrix in="SourceAlpha" type="matrix" values="0 0 0 0 0 0 0 0 0 0 0 0 0 0 0 0 0 0 127 0" result="hardAlpha"/>
<feOffset dy="6"/>
<feGaussianBlur stdDeviation="8"/>
<feColorMatrix type="matrix" values="0 0 0 0 1 0 0 0 0 0 0 0 0 0 0 0 0 0 0.15 0"/>
<feBlend mode="normal" in2="BackgroundImageFix" result="effect1_dropShadow_61_41"/>
<feBlend mode="normal" in="SourceGraphic" in2="effect1_dropShadow_61_41" result="shape"/>
</filter>
</defs>
</svg>
