<svg width="222" height="258" viewBox="0 0 222 258" fill="none" xmlns="http://www.w3.org/2000/svg">
<g filter="url(#filter0_d_204_9420)">
<g filter="url(#filter1_d_204_9420)">
<rect x="20" y="20" width="182" height="218" rx="5" fill="white"/>
</g>
</g>
<g filter="url(#filter2_d_204_9420)">
<rect x="56" y="39" width="109" height="68" rx="15.5249" fill="#FF0000"/>
</g>
<path d="M130.25 72.8797C130.25 72.7852 130.25 72.6777 130.246 72.5531C130.241 72.2051 130.233 71.8141 130.224 71.3973C130.19 70.1984 130.13 69.0039 130.035 67.8781C129.906 66.3269 129.717 65.0336 129.459 64.0625C129.187 63.0491 128.654 62.1248 127.913 61.3821C127.172 60.6393 126.248 60.1042 125.236 59.8301C124.02 59.5035 121.639 59.3015 118.287 59.1769C116.693 59.1168 114.987 59.0781 113.282 59.0566C112.684 59.048 112.13 59.0437 111.632 59.0394H110.368C109.87 59.0437 109.316 59.048 108.718 59.0566C107.012 59.0781 105.307 59.1168 103.712 59.1769C100.361 59.3058 97.9762 59.5078 96.7645 59.8301C95.7513 60.1035 94.8277 60.6385 94.0864 61.3813C93.3451 62.1241 92.812 63.0487 92.5406 64.0625C92.2785 65.0336 92.0938 66.3269 91.9648 67.8781C91.8703 69.0039 91.8102 70.1984 91.7758 71.3973C91.7629 71.8141 91.7586 72.2051 91.7543 72.5531C91.7543 72.6777 91.75 72.7852 91.75 72.8797V73.1203C91.75 73.2148 91.75 73.3223 91.7543 73.4469C91.7586 73.7949 91.7672 74.1859 91.7758 74.6027C91.8102 75.8016 91.8703 76.9961 91.9648 78.1219C92.0938 79.6731 92.2828 80.9664 92.5406 81.9375C93.0906 83.9957 94.7062 85.6199 96.7645 86.17C97.9762 86.4965 100.361 86.6985 103.712 86.8231C105.307 86.8832 107.012 86.9219 108.718 86.9434C109.316 86.952 109.87 86.9563 110.368 86.9606H111.632C112.13 86.9563 112.684 86.952 113.282 86.9434C114.987 86.9219 116.693 86.8832 118.287 86.8231C121.639 86.6942 124.024 86.4922 125.236 86.17C127.294 85.6199 128.909 84 129.459 81.9375C129.721 80.9664 129.906 79.6731 130.035 78.1219C130.13 76.9961 130.19 75.8016 130.224 74.6027C130.237 74.1859 130.241 73.7949 130.246 73.4469C130.246 73.3223 130.25 73.2148 130.25 73.1203V72.8797ZM127.156 73.1031C127.156 73.1934 127.156 73.2922 127.152 73.4082C127.148 73.7434 127.139 74.1129 127.13 74.5125C127.1 75.6555 127.04 76.7984 126.95 77.8598C126.834 79.2434 126.671 80.3778 126.469 81.1383C126.202 82.1309 125.42 82.9172 124.432 83.1793C123.53 83.4199 121.257 83.6133 118.167 83.7293C116.603 83.7895 114.919 83.8281 113.239 83.8496C112.65 83.8582 112.104 83.8625 111.614 83.8625H110.386L108.761 83.8496C107.081 83.8281 105.401 83.7895 103.833 83.7293C100.743 83.609 98.466 83.4199 97.568 83.1793C96.5797 82.9129 95.7977 82.1309 95.5312 81.1383C95.3293 80.3778 95.166 79.2434 95.05 77.8598C94.9598 76.7984 94.9039 75.6555 94.8695 74.5125C94.8566 74.1129 94.8523 73.7391 94.848 73.4082C94.848 73.2922 94.8438 73.1891 94.8438 73.1031V72.8969C94.8438 72.8066 94.8438 72.7078 94.848 72.5918C94.8523 72.2566 94.8609 71.8871 94.8695 71.4875C94.8996 70.3445 94.9598 69.2016 95.05 68.1402C95.166 66.7566 95.3293 65.6223 95.5312 64.8617C95.7977 63.8691 96.5797 63.0828 97.568 62.8207C98.4703 62.5801 100.743 62.3867 103.833 62.2707C105.397 62.2105 107.081 62.1719 108.761 62.1504C109.35 62.1418 109.896 62.1375 110.386 62.1375H111.614L113.239 62.1504C114.919 62.1719 116.599 62.2105 118.167 62.2707C121.257 62.391 123.534 62.5801 124.432 62.8207C125.42 63.0871 126.202 63.8691 126.469 64.8617C126.671 65.6223 126.834 66.7566 126.95 68.1402C127.04 69.2016 127.096 70.3445 127.13 71.4875C127.143 71.8871 127.148 72.2609 127.152 72.5918C127.152 72.7078 127.156 72.8109 127.156 72.8969V73.1031ZM107.176 78.7578L117.145 72.957L107.176 67.2422V78.7578Z" fill="white"/>
<rect opacity="0.76" x="36" y="129" width="69.2294" height="55.5183" rx="6" fill="#E52440"/>
<rect opacity="0.76" x="116" y="129" width="105" height="56" rx="6" fill="#E52440"/>
<rect x="36" y="196" width="64" height="9" rx="4.5" fill="#FFB443"/>
<rect x="36" y="212.801" width="54.0028" height="6" rx="3" fill="#BEBFCC"/>
<rect x="36" y="223.801" width="65.1452" height="6" rx="3" fill="#BEBFCC"/>
<rect x="118" y="196" width="64" height="9" rx="4.5" fill="#FFB443"/>
<rect x="118" y="212.801" width="54.0028" height="6" rx="3" fill="#BEBFCC"/>
<rect x="118" y="223.801" width="65.1452" height="6" rx="3" fill="#BEBFCC"/>
<defs>
<filter id="filter0_d_204_9420" x="0" y="0" width="222" height="258" filterUnits="userSpaceOnUse" color-interpolation-filters="sRGB">
<feFlood flood-opacity="0" result="BackgroundImageFix"/>
<feColorMatrix in="SourceAlpha" type="matrix" values="0 0 0 0 0 0 0 0 0 0 0 0 0 0 0 0 0 0 127 0" result="hardAlpha"/>
<feOffset/>
<feGaussianBlur stdDeviation="10"/>
<feComposite in2="hardAlpha" operator="out"/>
<feColorMatrix type="matrix" values="0 0 0 0 0.596078 0 0 0 0 0.0980392 0 0 0 0 0.129412 0 0 0 0.05 0"/>
<feBlend mode="normal" in2="BackgroundImageFix" result="effect1_dropShadow_204_9420"/>
<feBlend mode="normal" in="SourceGraphic" in2="effect1_dropShadow_204_9420" result="shape"/>
</filter>
<filter id="filter1_d_204_9420" x="4" y="8" width="214" height="250" filterUnits="userSpaceOnUse" color-interpolation-filters="sRGB">
<feFlood flood-opacity="0" result="BackgroundImageFix"/>
<feColorMatrix in="SourceAlpha" type="matrix" values="0 0 0 0 0 0 0 0 0 0 0 0 0 0 0 0 0 0 127 0" result="hardAlpha"/>
<feOffset dy="4"/>
<feGaussianBlur stdDeviation="8"/>
<feColorMatrix type="matrix" values="0 0 0 0 0.121042 0 0 0 0 0.143938 0 0 0 0 0.35 0 0 0 0.11 0"/>
<feBlend mode="normal" in2="BackgroundImageFix" result="effect1_dropShadow_204_9420"/>
<feBlend mode="normal" in="SourceGraphic" in2="effect1_dropShadow_204_9420" result="shape"/>
</filter>
<filter id="filter2_d_204_9420" x="40" y="29" width="141" height="100" filterUnits="userSpaceOnUse" color-interpolation-filters="sRGB">
<feFlood flood-opacity="0" result="BackgroundImageFix"/>
<feColorMatrix in="SourceAlpha" type="matrix" values="0 0 0 0 0 0 0 0 0 0 0 0 0 0 0 0 0 0 127 0" result="hardAlpha"/>
<feOffset dy="6"/>
<feGaussianBlur stdDeviation="8"/>
<feColorMatrix type="matrix" values="0 0 0 0 1 0 0 0 0 0 0 0 0 0 0 0 0 0 0.15 0"/>
<feBlend mode="normal" in2="BackgroundImageFix" result="effect1_dropShadow_204_9420"/>
<feBlend mode="normal" in="SourceGraphic" in2="effect1_dropShadow_204_9420" result="shape"/>
</filter>
</defs>
</svg>
