<svg width="225" height="169" viewBox="0 0 225 169" fill="none" xmlns="http://www.w3.org/2000/svg">
<path d="M175.736 64.6389C175.733 67.3513 174.651 69.9517 172.726 71.8697C170.802 73.7876 168.192 74.8664 165.471 74.8694H53.9381C51.2155 74.8694 48.6044 73.7915 46.6792 71.873C44.754 69.9544 43.6725 67.3522 43.6725 64.6389C43.6725 61.9257 44.754 59.3235 46.6792 57.4049C48.6044 55.4864 51.2155 54.4085 53.9381 54.4085H165.471C168.193 54.4085 170.804 55.4864 172.73 57.4049C174.655 59.3235 175.736 61.9257 175.736 64.6389Z" fill="#E6E6E6"/>
<path d="M179.904 64.2802C179.901 66.9926 178.819 69.593 176.894 71.5109C174.97 73.4289 172.36 74.5077 169.639 74.5106H58.1062C55.3836 74.5106 52.7725 73.4328 50.8473 71.5142C48.9221 69.5956 47.8406 66.9935 47.8406 64.2802C47.8406 61.5669 48.9221 58.9648 50.8473 57.0462C52.7725 55.1276 55.3836 54.0497 58.1062 54.0497H169.639C172.361 54.0497 174.972 55.1276 176.898 57.0462C178.823 58.9648 179.904 61.5669 179.904 64.2802Z" fill="#E6E6E6"/>
<path d="M155.149 75.2282C161.017 75.2282 165.774 70.4872 165.774 64.6389C165.774 58.7907 161.017 54.0497 155.149 54.0497C149.28 54.0497 144.523 58.7907 144.523 64.6389C144.523 70.4872 149.28 75.2282 155.149 75.2282Z" fill="#E52440"/>
<path d="M92.3119 45.529C92.3104 46.6035 91.8815 47.6335 91.1191 48.3933C90.3567 49.153 89.3232 49.5805 88.245 49.582H44.0607C42.982 49.582 41.9476 49.155 41.1849 48.3949C40.4223 47.6348 39.9938 46.6039 39.9938 45.529C39.9938 44.4541 40.4223 43.4233 41.1849 42.6632C41.9476 41.9031 42.982 41.4761 44.0607 41.4761H88.245C89.3236 41.4761 90.3581 41.9031 91.1207 42.6632C91.8834 43.4233 92.3119 44.4541 92.3119 45.529Z" fill="#E6E6E6"/>
<path d="M92.3119 45.529C92.3104 46.6035 91.8815 47.6335 91.1191 48.3933C90.3567 49.153 89.3232 49.5805 88.245 49.582H44.0607C42.982 49.582 41.9476 49.155 41.1849 48.3949C40.4223 47.6348 39.9938 46.6039 39.9938 45.529C39.9938 44.4541 40.4223 43.4233 41.1849 42.6632C41.9476 41.9031 42.982 41.4761 44.0607 41.4761H88.245C89.3236 41.4761 90.3581 41.9031 91.1207 42.6632C91.8834 43.4233 92.3119 44.4541 92.3119 45.529Z" fill="#E6E6E6"/>
<path d="M75.9375 45.529C75.936 46.6035 75.5071 47.6335 74.7447 48.3933C73.9823 49.153 72.9488 49.5805 71.8706 49.582H44.0606C42.982 49.582 41.9476 49.155 41.1849 48.3949C40.4222 47.6348 39.9938 46.6039 39.9938 45.529C39.9938 44.4541 40.4222 43.4233 41.1849 42.6632C41.9476 41.9031 42.982 41.4761 44.0606 41.4761H71.8481C72.3841 41.4732 72.9154 41.5758 73.4114 41.7782C73.9074 41.9805 74.3584 42.2786 74.7384 42.6552C75.1184 43.0319 75.42 43.4797 75.6258 43.9729C75.8316 44.466 75.9375 44.9949 75.9375 45.529Z" fill="#C9C9C9"/>
<path d="M191.931 88.5529C191.929 89.6274 191.5 90.6574 190.738 91.4172C189.975 92.1769 188.942 92.6044 187.864 92.6059H143.685C142.606 92.6059 141.572 92.1789 140.809 91.4188C140.047 90.6587 139.618 89.6278 139.618 88.5529C139.618 87.478 140.047 86.4471 140.809 85.6871C141.572 84.927 142.606 84.5 143.685 84.5H187.875C188.952 84.503 189.983 84.9313 190.743 85.691C191.504 86.4508 191.931 87.48 191.931 88.5529Z" fill="#E6E6E6"/>
<path d="M191.931 88.5529C191.929 89.6274 191.5 90.6574 190.738 91.4172C189.975 92.1769 188.942 92.6044 187.864 92.6059H143.685C142.606 92.6059 141.572 92.1789 140.809 91.4188C140.047 90.6587 139.618 89.6278 139.618 88.5529C139.618 87.478 140.047 86.4471 140.809 85.6871C141.572 84.927 142.606 84.5 143.685 84.5H187.875C188.952 84.503 189.983 84.9313 190.743 85.691C191.504 86.4508 191.931 87.48 191.931 88.5529Z" fill="#E6E6E6"/>
<path d="M164.047 88.5529C164.046 89.6274 163.617 90.6574 162.855 91.4172C162.092 92.1769 161.059 92.6044 159.981 92.6059H143.668C142.589 92.6059 141.555 92.1789 140.792 91.4188C140.03 90.6587 139.601 89.6278 139.601 88.5529C139.601 87.478 140.03 86.4471 140.792 85.6871C141.555 84.927 142.589 84.5 143.668 84.5H159.981C161.059 84.5 162.094 84.927 162.856 85.6871C163.619 86.4471 164.047 87.478 164.047 88.5529Z" fill="#C9C9C9"/>
<path d="M42.75 130.54C42.75 130.54 40.4663 131.1 40.0782 133.051C39.69 135.002 37.6932 135.293 37.3782 133.483C37.0632 131.672 39.87 127.316 39.87 127.316L43.4925 127.877L42.75 130.54Z" fill="#FFB443"/>
<path d="M141.851 63.8709L132.891 73.182C130.157 76.0208 126.612 77.952 122.739 78.7132C118.865 79.4744 114.85 79.0288 111.24 77.4368L101.323 73.0643L91.3612 90.1057L105.778 92.2583C111.986 93.1859 118.331 92.3289 124.067 89.7878C129.803 87.2468 134.693 83.1274 138.161 77.9133L145.125 67.4474C144 66.2889 142.909 65.0967 141.851 63.8709Z" fill="#FFB443"/>
<path opacity="0.46" d="M141.851 63.8709L132.891 73.182C130.157 76.0208 126.612 77.952 122.739 78.7132C118.865 79.4744 114.85 79.0288 111.24 77.4368L101.323 73.0643L91.3612 90.1057L105.778 92.2583C111.986 93.1859 118.331 92.3289 124.067 89.7878C129.803 87.2468 134.693 83.1274 138.161 77.9133L145.125 67.4474C144 66.2889 142.909 65.0967 141.851 63.8709Z" fill="white"/>
<path d="M72.7594 128.477C72.7594 128.477 70.9931 130.024 71.5669 131.941C72.1406 133.858 70.515 135.052 69.3844 133.572C68.2538 132.093 68.6981 126.952 68.6981 126.952L72.1631 125.764L72.7594 128.477Z" fill="#FFB443"/>
<path d="M92.9475 109.995L77.1975 121.206C69.0631 126.986 59.424 130.296 49.4437 130.736L42.9131 131.027V127.479L53.4656 123.931C57.5032 122.578 61.1645 120.296 64.1531 117.271L74.5875 106.687L92.9475 109.995Z" fill="#981921"/>
<path opacity="0.08" d="M92.9475 109.995L77.1975 121.206C69.0631 126.986 59.424 130.296 49.4437 130.736L42.9131 131.027V127.479L53.4656 123.931C57.5032 122.578 61.1645 120.296 64.1531 117.271L74.5875 106.687L92.9475 109.995Z" fill="#981921"/>
<path d="M103.747 60.6981C104.355 61.9891 104.785 63.3563 105.024 64.7623C105.059 65.1034 104.956 65.4442 104.739 65.7101C104.522 65.976 104.208 66.1451 103.866 66.1805C103.326 66.2635 102.775 66.1903 102.276 65.9697C101.777 65.7491 101.353 65.3903 101.053 64.936L99.5512 63.0974C99.2913 62.6978 99.162 62.2277 99.1812 61.7519C99.2003 61.2761 99.3669 60.8178 99.6581 60.4402C100.637 58.9659 103.151 59.2743 103.747 60.6981Z" fill="#F4A28C"/>
<path d="M100.614 63.4001L98.7582 71.6012L103.365 72.2964L102.864 66.0516L100.614 63.4001Z" fill="#F4A28C"/>
<path d="M103.185 61.0176C102.451 61.3234 101.682 61.5399 100.896 61.6623C101.232 61.9109 101.488 62.2516 101.632 62.6429C101.777 63.0341 101.805 63.4589 101.711 63.8654C101.626 64.2612 101.406 64.6153 101.088 64.8669C100.77 65.1185 100.374 65.252 99.9675 65.2444L98.8425 62.1388C98.67 61.6992 98.6198 61.2214 98.697 60.7557C98.7742 60.2901 98.976 59.8538 99.2812 59.4929C99.5473 59.1818 99.8328 58.8878 100.136 58.6128C100.896 57.9289 102.426 58.0522 103.005 57.1441C103.064 57.0545 103.145 56.9817 103.24 56.9327C103.336 56.8838 103.442 56.8604 103.549 56.865C103.657 56.8695 103.761 56.9017 103.852 56.9585C103.943 57.0153 104.017 57.0947 104.068 57.1889C104.552 58.0746 104.929 59.6218 103.843 60.6028C103.648 60.7758 103.425 60.9159 103.185 61.0176Z" fill="#24285B"/>
<path d="M101.942 63.7028C101.942 63.7028 101.582 62.7835 100.907 63.1086C100.232 63.4337 100.749 64.7903 101.745 64.5436L101.942 63.7028Z" fill="#F4A28C"/>
<path d="M104.361 62.1949L105.379 62.8788C105.437 62.9164 105.484 62.968 105.517 63.0287C105.55 63.0893 105.568 63.1573 105.568 63.2263C105.568 63.2953 105.55 63.3633 105.517 63.424C105.484 63.4847 105.437 63.5362 105.379 63.5739L104.518 64.084L104.361 62.1949Z" fill="#F4A28C"/>
<path opacity="0.31" d="M102.78 66.2422C102.187 66.1803 101.626 65.9464 101.166 65.5695C101.166 65.5695 101.059 67.1167 102.954 68.3723L102.78 66.2422Z" fill="#CE8172"/>
<path d="M103.365 72.2963L98.7582 71.6068C98.7582 71.6068 75.2738 65.0089 71.8538 79.0512C68.4338 93.0936 68.8332 102.365 68.8332 102.365L84.6788 110.056C84.6788 110.056 128.301 92.348 103.365 72.2963Z" fill="#FFB443"/>
<path opacity="0.08" d="M93.1387 81.0749C93.1387 81.0749 95.6925 87.415 86.0681 89.4835C76.4437 91.552 76.4493 97.993 82.755 98.3854C89.0606 98.7778 98.3756 95.3639 98.2068 102.719C98.2068 102.719 90.8943 107.73 84.6787 110.073L68.8331 102.382V101.407L68.0175 87.6952L76.2525 79.8136L93.1387 81.0749Z" fill="black"/>
<path d="M94.0669 76.9827C93.7408 74.8789 92.6051 72.9845 90.9007 71.7014C89.1962 70.4183 87.0572 69.8475 84.9375 70.1101C78.8906 70.794 69.75 73.4735 65.4919 83.1434C58.86 98.234 62.9269 107.652 94.5675 98.3629L93.7125 94.8257C93.7125 94.8257 72.3375 97.3707 73.6144 90.6663C74.6944 85.0101 95.4562 87.1123 94.0669 76.9827Z" fill="#FFB443"/>
<path opacity="0.46" d="M94.0669 76.9827C93.7408 74.8789 92.6051 72.9845 90.9007 71.7014C89.1962 70.4183 87.0572 69.8475 84.9375 70.1101C78.8906 70.794 69.75 73.4735 65.4919 83.1434C58.86 98.234 62.9269 107.652 94.5675 98.3629L93.7125 94.8257C93.7125 94.8257 72.3375 97.3707 73.6144 90.6663C74.6944 85.0101 95.4562 87.1123 94.0669 76.9827Z" fill="white"/>
<path d="M93.7069 94.8257C93.7069 94.8257 96.6544 91.9388 98.685 92.3648C100.716 92.7909 99.5457 96.9952 94.5619 98.3629L93.7069 94.8257Z" fill="#F4A28C"/>
<path d="M68.8331 102.36C68.8331 102.36 99.5569 106.211 98.2125 113.885C96.8682 121.559 72.495 129.228 72.495 129.228L70.5656 125.422L86.3888 114.126C86.3888 114.126 59.625 120.455 68.8331 102.36Z" fill="#981921"/>
<path d="M145.125 67.4474C145.125 67.4474 147.403 63.8317 147.257 62.6881C147.111 61.5446 145.822 62.946 145.822 62.946C145.822 62.946 147.352 60.4459 146.587 58.9211C145.822 57.3963 143.73 61.9202 141.851 63.8709L145.125 67.4474Z" fill="#F4A28C"/>
</svg>
