<svg width="622" height="469" viewBox="0 0 622 469" fill="none" xmlns="http://www.w3.org/2000/svg">
<g clip-path="url(#clip0_1532_20877)">
<path opacity="0.18" d="M206.392 0.842594C190.056 2.24309 174.197 7.06234 159.842 14.988C145.487 22.9136 132.958 33.7686 123.065 46.8494C103.609 72.9705 96.1132 105.833 90.1613 137.88C88.8186 147.365 86.3395 156.654 82.7775 165.546C75.6184 181.303 61.8896 192.875 50.2946 205.711C20.7596 238.488 5.57101 282.81 5.93599 326.71C6.13252 365.443 18.8225 423.611 56.8642 442.064C112.89 469.011 176.45 475.95 236.966 461.725C275.12 452.625 312.095 435.099 351.316 436.026C390.537 436.952 427.455 456.333 466.648 458.243C488.83 459.091 510.872 454.379 530.769 444.534C550.667 434.688 567.788 420.023 580.577 401.872C591.577 385.125 599.761 366.69 604.806 347.298C611.427 323.941 615.253 299.88 616.204 275.62C619.068 198.408 567.241 123.584 502.865 84.9918C359.121 -1.03925 246.203 -2.30317 206.392 0.842594Z" fill="#FFB443"/>
<path d="M144.43 372.52C147.376 375.843 151.072 378.414 155.211 380.02C173.404 388.446 192.439 396.254 212.456 397.996C241.907 400.551 270.768 390.215 298.507 380.048C295.699 380.497 285.62 371.622 283.037 369.824C277.956 366.482 272.958 362.999 267.961 359.572C260.016 354.151 250.105 352.326 240.672 350.865C219.381 347.639 197.63 349.496 177.194 356.286C165.556 360.109 154.523 365.575 144.43 372.52V372.52Z" fill="#FFB443"/>
<path d="M144.43 372.52C147.376 375.843 151.072 378.414 155.211 380.02C173.404 388.446 192.439 396.254 212.456 397.996C241.907 400.551 270.768 390.215 298.507 380.048C295.699 380.497 285.62 371.622 283.037 369.824C277.956 366.482 272.958 362.999 267.961 359.572C260.016 354.151 250.105 352.326 240.672 350.865C219.381 347.639 197.63 349.496 177.194 356.286C165.556 360.109 154.523 365.575 144.43 372.52V372.52Z" fill="url(#paint0_linear_1532_20877)" fill-opacity="0.2"/>
<path d="M241.233 316.037C230.003 304.1 218.464 291.994 204.399 283.456C190.333 274.917 173.151 270.255 157.261 274.468L196.566 332.384C204.146 343.619 211.867 354.854 222.479 363.28C241.065 377.829 275.597 385.918 298.422 378.924C294.885 368.111 280.791 357.943 272.958 349.658L241.233 316.037Z" fill="#FFB443"/>
<path d="M241.233 316.037C230.003 304.1 218.464 291.994 204.399 283.456C190.333 274.917 173.151 270.255 157.261 274.468L196.566 332.384C204.146 343.619 211.867 354.854 222.479 363.28C241.065 377.829 275.597 385.918 298.422 378.924C294.885 368.111 280.791 357.943 272.958 349.658L241.233 316.037Z" fill="url(#paint1_linear_1532_20877)"/>
<path opacity="0.44" d="M121.044 408.584C135.727 408.584 151 410.298 163.521 417.966C164.66 418.509 165.574 419.433 166.104 420.578C167.087 423.386 163.634 425.605 160.77 426.532C143.205 431.774 124.904 434.117 106.585 433.47C94.3708 433.187 82.1838 432.184 70.0876 430.464C65.8448 430.23 61.7134 429.019 58.0153 426.925C56.2027 425.826 54.7891 424.175 53.9809 422.214C53.1727 420.254 53.0124 418.086 53.5233 416.028C55.0113 411.871 59.8682 409.933 64.276 409.708C82.946 408.528 102.177 408.669 121.044 408.584Z" fill="#FFB443"/>
<path opacity="0.44" d="M504.943 397.293L534.674 401.422C536.104 401.488 537.485 401.955 538.661 402.77C539.439 403.599 539.926 404.659 540.048 405.789C540.169 406.919 539.919 408.059 539.335 409.034C538.099 410.949 536.449 412.562 534.506 413.752C541.553 415.438 553.822 415.073 553.485 425.128C553.387 426.983 552.769 428.773 551.702 430.293C550.634 431.814 549.16 433.002 547.449 433.722C545.317 434.449 543.075 434.801 540.823 434.762C518.84 435.52 496.52 436.278 475.239 430.745C471.168 429.706 466.368 427.403 466.368 423.218C466.368 421.729 467.013 420.409 467.098 418.836C467.575 409.315 447.248 414.904 442.027 415.213C430.403 415.887 418.78 416.336 407.157 416.645C383.406 417.291 359.654 417.263 335.931 416.926C328.431 416.573 320.915 416.883 313.471 417.853C307.631 418.836 301.96 420.662 296.232 422.094C277.359 426.897 257.721 427.909 238.454 425.072C229.723 423.78 218.998 419.089 219.559 410.27C220.037 402.714 228.628 398.782 235.955 396.816C246.788 393.952 257.799 391.813 268.915 390.412C288.584 388.234 308.366 387.249 328.154 387.463C371.137 387.126 414.12 387.098 457.131 387.07C471.59 386.957 490.625 395.299 504.943 397.293Z" fill="#FFB443"/>
<path d="M109.645 327.441L107.849 415.241H95.9448L92.5196 345.444L85.0516 415.241L71.4071 417.516L68.2627 324.548L109.645 327.441Z" fill="#FFB443"/>
<path d="M109.645 327.441L107.849 415.241H95.9448L92.5196 345.444L85.0516 415.241L71.4071 417.516L68.2627 324.548L109.645 327.441Z" fill="url(#paint2_linear_1532_20877)" fill-opacity="0.1"/>
<path d="M148.389 247.167C142.984 257.141 137.061 266.826 130.645 276.181C129.445 277.553 127.97 278.657 126.316 279.421C124.662 280.186 122.866 280.594 121.044 280.619C119.55 280.604 118.066 280.377 116.636 279.945C112.397 278.906 108.214 277.67 104.002 276.294C103.649 276.16 103.311 275.99 102.992 275.788V275.788C100.184 273.738 99.5664 268.092 98.9487 264.834C98.6118 263.037 96.9554 255.902 100.016 255.369C101.56 255.088 106.613 259.582 108.045 260.453C111.045 262.269 114.138 263.928 117.31 265.424C117.688 265.659 118.128 265.777 118.573 265.761C119.052 265.626 119.475 265.34 119.78 264.947C126.206 257.401 131.597 249.032 135.811 240.061C137.047 240.595 138.254 241.185 139.461 241.803C141.146 242.683 142.802 243.619 144.43 244.611L144.936 244.892C146.311 245.566 147.294 246.269 148.389 247.167Z" fill="#E52440"/>
<path d="M148.389 247.167C142.984 257.141 137.061 266.826 130.645 276.181C129.445 277.553 127.97 278.657 126.316 279.421C124.662 280.186 122.866 280.594 121.044 280.619C119.55 280.604 118.066 280.377 116.636 279.945C112.397 278.906 108.213 277.67 104.002 276.294C103.643 276.154 103.295 275.985 102.963 275.788C102.739 275.788 102.149 273.597 102.065 273.316C101.78 272.398 101.565 271.459 101.419 270.508C101.166 268.644 101.166 266.754 101.419 264.89C101.419 264.244 101.588 263.767 102.177 264.272C102.767 264.778 102.542 264.806 102.795 265.031C103.048 265.255 103.665 265.649 104.086 265.958C105.266 266.8 106.445 267.643 107.708 268.429C110.128 269.876 112.723 271.008 115.429 271.8C117.231 272.427 119.137 272.703 121.044 272.614C122.477 272.432 123.839 271.884 124.999 271.024C126.16 270.163 127.079 269.018 127.67 267.699C128.652 266.182 129.607 264.609 130.477 263.037C131.37 261.458 132.404 259.963 133.565 258.571C136.036 255.593 138.478 252.616 140.949 249.667C142.203 247.957 143.593 246.351 145.104 244.864C146.311 245.566 147.294 246.268 148.389 247.167Z" fill="url(#paint3_linear_1532_20877)"/>
<path d="M79.5489 413.865V332.468L68.2627 324.548L72.0809 415.241L79.5489 413.865Z" fill="url(#paint4_linear_1532_20877)" fill-opacity="0.1"/>
<path d="M77.0782 249.751C73.8994 251.337 70.8068 253.09 67.8134 255.004C61.4404 259.076 62.5914 260.958 63.7706 268.008C66.2489 283.058 67.4977 298.285 67.5046 313.537C67.2504 317.225 67.5055 320.93 68.2626 324.548C69.2925 326.643 70.0836 328.848 70.6209 331.12C80.4472 332.468 102.907 337.524 109.617 327.441C116.327 317.357 104.48 283.456 106.641 268.233C108.803 253.009 89.0382 251.38 89.0382 251.38L77.0782 249.751Z" fill="#E52440"/>
<path d="M97.1519 305.926L99.426 293.174C99.5977 292.419 100.007 291.739 100.593 291.234C101.179 290.728 101.911 290.424 102.683 290.365L127.164 288.455C127.527 288.435 127.891 288.495 128.228 288.633C128.564 288.77 128.866 288.981 129.111 289.25C129.356 289.52 129.538 289.84 129.643 290.188C129.748 290.537 129.774 290.904 129.719 291.264L120.286 333.76C120.16 334.293 119.859 334.768 119.432 335.109C119.004 335.45 118.474 335.638 117.927 335.642H95.4674C95.1167 335.643 94.7702 335.567 94.4517 335.42C94.1333 335.273 93.8507 335.058 93.6236 334.791C93.3965 334.524 93.2303 334.21 93.1366 333.872C93.0429 333.534 93.0239 333.179 93.081 332.833L97.1519 305.926Z" fill="#981921"/>
<path d="M90.6105 320.194L72.8109 332.215L70.0034 328.48C68.2871 322.291 67.4832 315.885 67.617 309.465C68.0381 299.887 67.617 303.314 67.617 303.314L92.66 319.155L90.6105 320.194Z" fill="url(#paint5_linear_1532_20877)"/>
<path d="M99.4541 234.893C99.4828 235.907 99.4265 236.922 99.2857 237.927C98.8222 240.029 97.9957 242.035 96.8431 243.853C96.5522 244.486 96.12 245.043 95.5798 245.482C94.4381 246.051 93.1224 246.161 91.9019 245.791C91.6161 245.721 91.3175 245.721 91.0316 245.791C90.3297 246.072 90.2455 247.027 90.2736 247.785L90.4701 251.268C90.5556 251.748 90.4765 252.243 90.2455 252.673C89.9895 252.942 89.6714 253.144 89.319 253.262C88.0278 253.689 86.6446 253.755 85.3186 253.453C83.9927 253.151 82.7743 252.493 81.7949 251.549C81.3088 251.101 80.9091 250.568 80.6157 249.976C80.3928 249.39 80.2511 248.775 80.1946 248.15C79.7735 244.808 80.1946 241.438 79.8858 238.067C79.4304 235.282 79.3455 232.449 79.6331 229.641C79.9045 228.152 80.5383 226.753 81.4784 225.568C82.4186 224.382 83.6361 223.447 85.0235 222.844C87.904 221.94 91.0017 222.009 93.8391 223.041C95.2285 223.427 96.5967 223.887 97.9381 224.417C98.5974 224.602 99.1666 225.021 99.5384 225.596C100.072 226.664 99.5384 228.209 99.5384 229.36C99.426 231.27 99.4541 233.124 99.4541 234.893Z" fill="#FFBBAB"/>
<path d="M99.4822 221.159C99.791 221.833 100.24 222.422 100.577 223.097C100.776 223.411 100.911 223.761 100.974 224.127C101.036 224.494 101.025 224.869 100.942 225.231C100.734 225.803 100.363 226.3 99.8752 226.664C97.4237 228.381 94.4239 229.132 91.4527 228.77C90.6026 228.7 89.7481 228.7 88.8979 228.77C88.0417 228.852 87.244 229.241 86.6519 229.866C85.9828 231.021 85.6068 232.323 85.557 233.657C85.557 233.657 85.557 233.826 85.557 233.882C85.557 233.938 85.557 233.882 85.557 233.882C84.6024 233.882 83.704 232.899 82.7494 233.264C82.5391 233.389 82.3642 233.565 82.2414 233.777C82.1185 233.988 82.0518 234.227 82.0476 234.472C81.9636 235.055 82.0514 235.651 82.3002 236.185C82.4116 236.394 82.4785 236.623 82.4968 236.859C82.5224 237.008 82.5224 237.16 82.4968 237.309L81.9072 238.966C81.7591 239.59 81.3772 240.133 80.8403 240.483C80.4597 240.598 80.0568 240.621 79.6657 240.547C79.2747 240.474 78.9071 240.307 78.5943 240.061C78.1063 239.817 77.683 239.461 77.359 239.022C77.1351 238.661 76.9826 238.261 76.9098 237.842C76.1046 233.69 75.775 229.459 75.9272 225.231C75.8698 224.278 76.0034 223.323 76.3203 222.422C76.8477 221.557 77.5682 220.825 78.4254 220.284C79.2826 219.743 80.2533 219.408 81.2615 219.305C84.9653 218.635 88.7299 218.362 92.4915 218.49C93.666 218.438 94.8426 218.514 96.0009 218.715C97.1575 218.956 98.2087 219.555 99.0049 220.428" fill="#963637"/>
<path d="M93.6706 238.741C93.074 239.046 92.606 239.554 92.3511 240.174C92.3511 240.174 92.3511 240.342 92.3511 240.398C92.3511 240.454 92.3511 240.398 92.5476 240.398C93.8283 240.482 95.1132 240.482 96.3939 240.398C97.369 240.344 98.3236 240.096 99.2014 239.668C99.2655 239.688 99.3339 239.688 99.3979 239.668C99.4134 239.603 99.4134 239.536 99.3979 239.471C99.3839 239.215 99.3184 238.965 99.2055 238.735C99.0926 238.504 98.9344 238.299 98.7405 238.131C98.5467 237.964 98.321 237.837 98.077 237.758C97.833 237.679 97.5757 237.651 97.3204 237.674C96.0384 237.747 94.79 238.112 93.6706 238.741V238.741Z" fill="#963637"/>
<path d="M80.1946 248.15C80.1946 248.15 77.3871 250.06 77.3871 252.139C77.3871 254.217 92.2388 295.814 92.2388 295.814C92.2388 295.814 92.5757 255.987 92.2388 254.133C91.7351 252.334 91.0678 250.586 90.2455 248.909C90.2455 248.909 84.5462 253.178 80.1946 248.15Z" fill="white"/>
<path d="M85.0516 251.914L84.0409 255.144L85.7254 256.52L86.5115 279.131L92.3792 295.814L92.5196 278.85L87.4941 256.436L89.319 253.262L86.9046 251.914H85.0516Z" fill="#212741"/>
<path d="M95.9447 310.672C94.2046 312.877 92.2274 314.883 90.0489 316.655L88.7013 317.722C88.2143 318.16 87.6086 318.443 86.9606 318.537C86.5125 318.532 86.0712 318.426 85.6692 318.228C77.0782 314.895 68.6557 311.15 60.4016 306.993C56.9764 305.224 53.1863 302.92 52.4563 299.129C52.2458 297.807 52.2458 296.461 52.4563 295.14C53.7476 285.499 56.257 276.062 59.9243 267.053C60.9631 264.525 62.2546 259.638 64.9498 257.981H65.2586L65.6516 257.784C69.3014 256.464 72.4739 260.115 73.4846 263.205C74.6224 267.705 74.4765 272.434 73.0635 276.855C71.6615 281.238 70.6193 285.729 69.9471 290.281C69.8346 290.912 69.8927 291.562 70.1156 292.163C70.4567 292.743 70.9398 293.226 71.5193 293.567L95.9447 310.672Z" fill="#DB1330"/>
<path d="M95.9447 415.241L96.5904 421.701L100.661 422.46L102.486 420.859L105.603 423.33H117.815C117.815 423.33 120.932 417.966 114.165 416.14L107.427 414.314L95.9447 415.241Z" fill="#212741"/>
<path d="M72.0809 415.241L72.7267 421.701L76.7975 422.46L78.6224 420.859L81.7107 423.33H93.9514C93.9514 423.33 97.0397 417.966 90.3017 416.14L83.5356 414.314L72.0809 415.241Z" fill="#212741"/>
<path d="M92.5195 345.444L97.9942 341.007L101.84 414.314L95.9447 415.241L92.5195 345.444Z" fill="#FFB443"/>
<path d="M90.1613 316.655L88.8137 317.723C88.3267 318.16 87.721 318.444 87.0731 318.537C86.6249 318.532 86.1837 318.426 85.7816 318.228C77.1906 314.895 68.7681 311.15 60.514 306.993C57.0889 305.224 53.2987 302.921 52.5688 299.129C52.3583 297.808 52.3583 296.462 52.5688 295.14C53.86 285.5 56.3694 276.062 60.0368 267.053C61.0755 264.525 62.367 259.638 65.0622 257.981H65.371L65.7641 257.784C67.4714 257.759 69.1439 258.268 70.5482 259.24C71.9524 260.212 73.0183 261.598 73.597 263.205C73.597 263.205 60.5982 289.832 61.1597 293.848C61.7212 297.865 89.0102 310.897 89.0102 310.897L90.1613 316.655Z" fill="url(#paint6_linear_1532_20877)"/>
<path d="M102.065 312.92C102.775 313.087 103.437 313.414 104.002 313.874C104.285 314.108 104.495 314.416 104.609 314.764C104.724 315.112 104.737 315.485 104.648 315.841C104.439 316.26 104.185 316.656 103.89 317.02C103.553 317.638 103.497 318.425 103.16 319.071C102.847 319.569 102.437 320 101.955 320.338C101.473 320.675 100.928 320.913 100.352 321.037C98.772 321.75 97.0339 322.042 95.3071 321.885C93.5804 321.727 91.9237 321.125 90.4981 320.138C88.589 318.481 84.8831 311.712 88.9821 310.729C90.7789 310.623 92.581 310.813 94.3164 311.29C96.9402 311.616 99.5321 312.161 102.065 312.92V312.92Z" fill="#FFBBAB"/>
<path d="M453.425 360.724H333.432L354.685 300.842H435.513L453.425 360.724Z" fill="black" fill-opacity="0.2"/>
<path d="M553.99 83.3628H243.03C231.138 83.3628 221.497 93.0079 221.497 104.906V301.769C221.497 313.667 231.138 323.312 243.03 323.312H553.99C565.883 323.312 575.524 313.667 575.524 301.769V104.906C575.524 93.0079 565.883 83.3628 553.99 83.3628Z" fill="#981921"/>
<path d="M514.095 287.444C514.052 287.809 514.127 288.177 514.309 288.496C514.491 288.814 514.77 289.066 515.106 289.214C515.795 289.475 516.535 289.571 517.268 289.495H520.412C520.733 289.47 521.055 289.539 521.339 289.691C521.504 289.86 521.63 290.064 521.708 290.287C521.786 290.51 521.813 290.748 521.788 290.983L522.125 304.353C522.431 307.404 522.007 310.485 520.889 313.341C520.216 314.717 519.205 315.897 518.503 317.245C518.096 317.89 517.832 318.615 517.731 319.371C517.629 320.127 517.691 320.897 517.913 321.626C523.248 321.851 528.582 321.851 533.888 321.626C534.896 321.707 535.898 321.406 536.696 320.784C537.056 320.371 537.315 319.881 537.454 319.351C539.026 314.905 540.32 310.365 541.328 305.757C542.383 301.39 542.883 296.908 542.816 292.416C542.729 287.899 541.461 283.483 539.138 279.608C538.588 278.633 537.842 277.782 536.948 277.108C536.02 276.523 534.993 276.113 533.916 275.901C528.595 274.682 523.172 273.968 517.717 273.766C515.907 273.451 514.043 273.737 512.411 274.58C511.633 275.163 511.02 275.938 510.631 276.829C510.242 277.721 510.091 278.697 510.193 279.664C510.409 281.616 510.96 283.517 511.821 285.282" fill="url(#paint7_linear_1532_20877)"/>
<path d="M251.818 309.128C255.187 298.043 259.014 287.098 263.3 276.294C263.488 275.856 263.813 275.491 264.227 275.254C264.689 275.085 265.197 275.085 265.659 275.254L275.008 276.575C274.405 281.823 272.844 286.916 270.403 291.601C266.776 300.201 264.121 309.179 262.486 318.368C262.408 319.292 262.12 320.185 261.644 320.98C260.648 322.147 259.239 322.882 257.713 323.031C253.137 323.986 250.161 325.39 249.291 320.728C248.729 317.161 250.863 312.273 251.818 309.128Z" fill="url(#paint8_linear_1532_20877)"/>
<path d="M295.587 312.021H305.638C306.329 311.93 307.03 312.1 307.603 312.498C308.08 312.919 308.193 313.594 308.586 314.127C309.4 315.251 311.028 315.223 312.404 315.082C317.218 314.54 321.979 313.601 326.638 312.273L324.841 300.027C316.318 301.917 307.599 302.775 298.872 302.583L298.394 287.838H311.646C311.983 287.906 312.332 287.888 312.66 287.784C312.988 287.68 313.284 287.495 313.52 287.244C313.756 286.994 313.925 286.687 314.009 286.354C314.094 286.02 314.092 285.671 314.004 285.338C314.027 283.535 313.924 281.733 313.695 279.945C313.691 279.522 313.519 279.118 313.218 278.822C312.843 278.609 312.401 278.549 311.983 278.653C301.888 279.996 291.688 280.373 281.521 279.777C280.955 294.838 278.213 309.738 273.379 324.014C278.77 323.424 285.171 324.351 290.365 323.171C292.835 322.61 292.723 322.357 293.509 319.689C293.734 318.874 295.278 312.049 295.587 312.021Z" fill="black" fill-opacity="0.2"/>
<path d="M575.496 104.906V277.558H221.469V104.906C221.476 99.1944 223.747 93.7192 227.784 89.6808C231.821 85.6423 237.293 83.3702 243.002 83.3628H553.962C559.671 83.3702 565.144 85.6423 569.18 89.6808C573.217 93.7192 575.488 99.1944 575.496 104.906V104.906Z" fill="#E52440"/>
<path d="M526.757 267.924C522.828 271.048 518.284 273.307 513.422 274.552C513.118 274.565 512.82 274.639 512.545 274.769C512.27 274.899 512.024 275.084 511.821 275.311C511.638 275.79 511.638 276.32 511.821 276.799C512.558 280.305 513.61 283.736 514.966 287.051C522.138 286.115 529.033 283.685 535.208 279.917C536.227 279.372 537.109 278.604 537.791 277.67C538.322 276.574 538.609 275.376 538.633 274.159C538.886 270.817 539.363 266.07 537.398 263.121C535.826 260.818 534.983 262.334 532.906 263.767L526.757 267.924Z" fill="#FFB443"/>
<path d="M529.284 267.362C525.358 270.492 520.813 272.751 515.948 273.991C515.637 274 515.331 274.075 515.05 274.21C514.77 274.346 514.521 274.539 514.32 274.777C514.135 275.246 514.135 275.768 514.32 276.238C515.046 279.742 516.09 283.173 517.436 286.489C524.617 285.553 531.522 283.123 537.706 279.355C538.723 278.818 539.598 278.048 540.261 277.108C540.823 276.024 541.112 274.819 541.104 273.597C541.356 270.283 541.862 265.508 539.868 262.587C538.324 260.284 537.454 261.773 535.376 263.205L529.284 267.362Z" fill="url(#paint9_linear_1532_20877)"/>
<path d="M570.245 109.034V271.94H226.803V109.034C226.818 106.305 227.37 103.605 228.427 101.089C229.485 98.573 231.028 96.29 232.967 94.3704C234.907 92.4508 237.205 90.9322 239.732 89.9013C242.258 88.8704 244.962 88.3475 247.691 88.3623H549.273C552.009 88.3363 554.722 88.8511 557.258 89.877C559.794 90.9029 562.103 92.4197 564.051 94.3404C566 96.2611 567.55 98.5479 568.613 101.069C569.676 103.591 570.231 106.298 570.245 109.034V109.034Z" fill="white"/>
<path opacity="0.18" d="M570.245 109.034V271.94H226.803V109.034C226.818 106.305 227.37 103.605 228.427 101.089C229.485 98.573 231.028 96.29 232.967 94.3704C234.907 92.4508 237.205 90.9322 239.732 89.9013C242.258 88.8704 244.962 88.3475 247.691 88.3623H549.273C552.009 88.3363 554.722 88.8511 557.258 89.877C559.794 90.9029 562.103 92.4197 564.051 94.3404C566 96.2611 567.55 98.5479 568.613 101.069C569.676 103.591 570.231 106.298 570.245 109.034V109.034Z" fill="#FFB443"/>
<path opacity="0.18" d="M369.593 109.681H256.506V213.603H369.593V109.681Z" fill="#FFB443"/>
<path d="M498.289 368.701C496.601 370.389 495.263 372.395 494.352 374.602C493.441 376.81 492.976 379.176 492.983 381.565C492.971 384.09 493.498 386.589 494.527 388.895C495.622 391.394 497.266 393.613 499.337 395.388C501.407 397.163 503.851 398.448 506.487 399.147V403.304H287.501C282.937 403.309 278.488 401.873 274.787 399.2C271.087 396.527 268.325 392.754 266.894 388.418C266.149 386.21 265.769 383.895 265.771 381.565C265.767 378.709 266.327 375.88 267.418 373.241C268.508 370.602 270.109 368.204 272.127 366.184C274.146 364.165 276.543 362.563 279.181 361.472C281.819 360.381 284.646 359.821 287.501 359.825H506.487V363.982C503.391 364.816 500.566 366.443 498.289 368.701V368.701Z" fill="#FFB443"/>
<path d="M506.487 399.147V403.304H287.501C282.937 403.309 278.488 401.873 274.787 399.2C271.087 396.527 268.325 392.754 266.894 388.418C275.317 389.878 327.845 398.276 357.156 381.565L494.443 388.895C495.546 391.403 497.203 393.628 499.289 395.404C501.375 397.179 503.836 398.459 506.487 399.147V399.147Z" fill="url(#paint10_linear_1532_20877)" fill-opacity="0.2"/>
<path d="M293.678 415.466C299.882 415.803 306.536 416.084 311.842 412.826C312.221 412.622 312.547 412.333 312.797 411.983C312.922 411.698 312.972 411.386 312.942 411.076C312.913 410.767 312.805 410.47 312.628 410.214C312.254 409.709 311.763 409.304 311.197 409.034C309.208 408.075 307.073 407.457 304.88 407.208C302.072 406.731 299.517 406.281 296.822 406C295.081 405.832 292.134 405.13 290.73 406.534C290.301 407.185 290.019 407.922 289.903 408.693C289.787 409.464 289.839 410.251 290.056 411C290.393 413.528 290.87 415.297 293.678 415.466Z" fill="white"/>
<path d="M252.548 408.444C257.433 412.292 262.767 416.28 268.972 416.645C269.391 416.704 269.819 416.646 270.207 416.477C270.478 416.32 270.704 416.095 270.862 415.824C271.019 415.553 271.103 415.246 271.105 414.932C271.08 414.302 270.907 413.686 270.6 413.135C269.486 411.235 268.085 409.52 266.445 408.051C264.508 406.141 262.571 404.231 260.493 402.433C259.173 401.31 257.152 399.035 255.215 399.4C253.278 399.765 252.744 401.422 252.099 402.686C250.947 404.961 250.33 406.703 252.548 408.444Z" fill="white"/>
<path d="M498.289 368.701C496.032 370.963 494.41 373.779 493.587 376.868C492.763 379.956 492.767 383.206 493.598 386.293C494.429 389.379 496.058 392.192 498.321 394.448C500.583 396.705 503.4 398.325 506.487 399.147V399.765H375.432C370.593 399.765 365.951 397.842 362.529 394.418C359.106 390.994 357.184 386.35 357.184 381.508C357.184 376.666 359.106 372.023 362.529 368.599C365.951 365.175 370.593 363.252 375.432 363.252H506.487V363.842C503.377 364.716 500.55 366.392 498.289 368.701V368.701Z" fill="white"/>
<path d="M107.287 290.871L107.933 288.736C107.991 288.543 108.105 288.371 108.259 288.242C108.414 288.112 108.603 288.03 108.803 288.006L121.746 287.051C121.855 287.039 121.966 287.056 122.068 287.099C122.17 287.142 122.259 287.211 122.326 287.298C122.394 287.385 122.438 287.488 122.454 287.598C122.47 287.707 122.459 287.819 122.419 287.922L121.633 290.253C121.556 290.487 121.41 290.692 121.215 290.842C121.02 290.992 120.784 291.08 120.538 291.096L108.073 291.854C107.949 291.864 107.825 291.844 107.711 291.795C107.596 291.746 107.496 291.669 107.418 291.572C107.341 291.475 107.288 291.36 107.265 291.238C107.242 291.116 107.25 290.99 107.287 290.871V290.871Z" fill="white"/>
<g filter="url(#filter0_d_1532_20877)">
<rect x="258" y="222" width="11" height="11" rx="3" fill="#981921"/>
</g>
<g filter="url(#filter1_d_1532_20877)">
<rect x="258" y="239" width="11" height="11" rx="3" fill="#FFB443"/>
</g>
<g filter="url(#filter2_d_1532_20877)">
<rect x="258" y="256" width="11" height="11" rx="3" fill="#981921"/>
</g>
<rect opacity="0.7" x="272" y="225" width="21" height="5" fill="black" fill-opacity="0.8"/>
<rect opacity="0.7" x="272" y="242" width="33" height="5" fill="black" fill-opacity="0.8"/>
<rect opacity="0.7" x="272" y="259" width="23" height="5" fill="black" fill-opacity="0.8"/>
<path d="M158.159 235.736C157.218 237.419 155.802 238.786 154.088 239.668C152.482 240.42 150.82 241.049 149.119 241.55C147.399 242 145.866 242.983 144.739 244.359L144.543 244.611C142.914 243.638 141.258 242.701 139.573 241.803C139.798 241.353 140.219 240.82 140.388 240.483C140.753 239.668 141.033 238.825 141.37 238.011C142.588 235.179 144.621 232.774 147.21 231.101C147.406 231.101 147.659 230.849 147.856 231.101C147.884 231.163 147.898 231.23 147.898 231.298C147.898 231.366 147.884 231.433 147.856 231.495C147.834 232.691 147.506 233.861 146.901 234.893L157.064 231.242C157.315 231.113 157.599 231.064 157.878 231.101C158.041 231.165 158.188 231.263 158.31 231.389C158.431 231.516 158.523 231.666 158.58 231.832C158.791 232.475 158.862 233.156 158.789 233.829C158.717 234.502 158.502 235.152 158.159 235.736Z" fill="#FFBBAB"/>
<path d="M301.061 401.394V407.573C297.336 408.024 293.576 408.127 289.831 407.882C289.66 407.916 289.482 407.907 289.314 407.858C289.146 407.809 288.993 407.72 288.866 407.599C288.74 407.477 288.644 407.328 288.587 407.162C288.531 406.997 288.514 406.82 288.54 406.646C287.754 396.395 289.045 386.059 287.866 375.891C287.68 373.753 287.188 371.654 286.406 369.656C285.447 367.666 284.28 365.783 282.925 364.038C278.994 358.618 275.493 352.899 272.453 346.933C269.542 340.875 268.2 334.181 268.55 327.469C268.55 320.756 272.088 317.863 278.629 319.604C279.636 319.768 280.595 320.152 281.437 320.728C282.102 321.326 282.654 322.04 283.065 322.834C287.014 329.26 290.513 335.951 293.537 342.86C300.725 361.258 301.314 381.508 301.061 401.394Z" fill="#473F47"/>
<path d="M301.061 401.394V407.573C297.336 408.024 293.576 408.127 289.831 407.882C289.66 407.916 289.482 407.907 289.314 407.858C289.146 407.809 288.993 407.72 288.866 407.599C288.74 407.477 288.644 407.328 288.587 407.162C288.531 406.997 288.514 406.82 288.54 406.646C287.754 396.395 289.045 386.059 287.866 375.891C287.68 373.753 287.188 371.654 286.406 369.656C285.447 367.666 284.28 365.783 282.925 364.038C278.994 358.618 275.493 352.899 272.453 346.933C269.542 340.875 268.2 334.181 268.55 327.469C268.55 320.756 272.088 317.863 278.629 319.604C279.636 319.768 280.595 320.152 281.437 320.728C282.102 321.326 282.654 322.04 283.065 322.834C287.014 329.26 290.513 335.951 293.537 342.86C300.725 361.258 301.314 381.508 301.061 401.394Z" fill="#A6A6A6"/>
<path d="M304.627 283.175C317.959 279.457 329.417 270.88 336.745 259.132C337.434 258.278 337.917 257.276 338.155 256.204C338.394 255.132 338.382 254.02 338.121 252.953C338.089 252.822 338.03 252.7 337.948 252.593C337.866 252.487 337.762 252.399 337.643 252.335C337.278 252.167 336.857 252.335 336.492 252.644L319.198 263.879C314.575 267.268 309.424 269.868 303.953 271.575C303.111 273.26 302.515 275.057 302.184 276.912C302.23 279.223 303.096 281.443 304.627 283.175V283.175Z" fill="#FFBBAB"/>
<path opacity="0.16" d="M339.58 308.707C338.649 309.34 337.581 309.745 336.464 309.886C329.075 311.369 321.522 311.86 314.004 311.347C313.265 311.386 312.535 311.178 311.927 310.757C311.317 310.102 310.984 309.236 311 308.341C310.798 306.029 310.949 303.699 311.449 301.432C311.449 301.123 329.81 301.151 331.551 301.432C333.994 301.825 343.904 305.224 339.58 308.707Z" fill="#FFB443"/>
<path opacity="0.16" d="M496.969 244.106C496.703 245.573 496.703 247.076 496.969 248.544C497.572 250.609 498.605 252.524 500.002 254.161C505.562 261.888 509.925 270.41 512.944 279.44C514.069 274.458 514.494 269.344 514.208 264.244C514.26 262.457 514.128 260.668 513.815 258.908C513.133 256.482 512.192 254.137 511.007 251.914C509.37 248.317 508.137 244.549 507.329 240.679C506.768 237.87 505.813 231.13 501.546 231.579C497.868 232.169 497.25 241.381 496.969 244.106Z" fill="#FFB443"/>
<path d="M255.804 333.114C257.458 339.548 259.762 345.797 262.683 351.764C265.097 356.848 270.684 363.364 270.656 369.094C270.656 379.43 259.791 393.221 253.109 400.299C256.635 402.624 260.4 404.564 264.339 406.085C265.2 406.541 266.194 406.68 267.147 406.478C268.19 406.019 269.015 405.173 269.449 404.118L276.72 391.507C280.763 384.485 284.946 377.07 285.283 369.038C285.302 366.096 285.096 363.157 284.666 360.246C283.908 354.039 284.666 347.017 283.121 340.978C281.746 335.361 279.949 330.024 278.686 324.435C278.371 321.549 277.037 318.87 274.924 316.88C273.923 316.21 272.81 315.725 271.639 315.447C266.024 313.846 259.847 313.65 256.759 319.52C254.862 323.8 254.524 328.61 255.804 333.114V333.114Z" fill="#A6A6A6"/>
<path d="M306.34 272.193C309.428 273.317 306.536 280.619 305.722 282.67C305.679 282.938 305.578 283.194 305.426 283.42C305.274 283.645 305.076 283.835 304.843 283.977C304.611 284.118 304.351 284.208 304.081 284.239C303.811 284.27 303.538 284.243 303.279 284.158C298.647 283.737 294.015 283.175 289.41 282.501C288.428 282.408 287.474 282.122 286.603 281.658C286.058 281.27 285.596 280.777 285.244 280.208C284.892 279.639 284.657 279.005 284.553 278.344C284.132 276.181 283.908 271.013 285.789 269.356C287.136 268.149 289.859 269.019 291.628 269.188C296.636 269.587 301.576 270.596 306.34 272.193V272.193Z" fill="white"/>
<path d="M297.327 245.594C297.889 246.521 298.984 247.055 299.349 248.038C299.714 249.021 298.956 250.51 298.507 251.718C297.917 253.403 298.114 255.313 297.524 256.998C297.414 257.369 297.199 257.7 296.906 257.953C296.636 258.136 296.33 258.261 296.008 258.318C294.753 258.575 293.467 258.651 292.19 258.543C291.954 258.457 291.695 258.457 291.46 258.543C291.269 258.707 291.148 258.938 291.123 259.189C290.337 262.39 290.337 265.734 291.123 268.935C291.404 269.974 291.712 271.266 290.926 272.025C290.649 272.271 290.309 272.436 289.944 272.502C288.7 272.616 287.449 272.391 286.322 271.852C285.195 271.313 284.235 270.48 283.543 269.441C282.072 267.723 280.809 265.837 279.78 263.823C279.471 263.272 279.253 262.674 279.135 262.054C279.106 261.244 279.22 260.436 279.472 259.666C280.172 257.011 280.596 254.291 280.735 251.549C280.585 248.048 281.012 244.547 281.998 241.185C282.39 240.044 283.138 239.059 284.132 238.376C285.305 237.826 286.61 237.622 287.894 237.786C290.462 237.606 292.999 238.432 294.969 240.089C295.615 240.848 296.654 244.359 297.327 245.594Z" fill="#FFBBAB"/>
<path d="M296.289 237.281C297.327 237.084 298.085 238.488 297.692 239.443C297.436 239.908 297.068 240.303 296.623 240.592C296.177 240.881 295.667 241.056 295.138 241.1C294.091 241.193 293.051 241.343 292.021 241.55C291.505 241.676 291.041 241.96 290.693 242.363C290.346 242.766 290.133 243.267 290.084 243.797C289.508 243.715 288.921 243.847 288.435 244.168C287.949 244.488 287.597 244.976 287.445 245.538C287.151 246.671 287.151 247.86 287.445 248.993C287.108 249.358 286.519 248.993 286.21 248.74C285.901 248.487 285.704 247.926 285.311 247.673C284.413 247.195 283.346 248.319 283.458 249.33C283.72 250.315 284.303 251.185 285.115 251.802C285.31 251.948 285.464 252.141 285.564 252.363C285.845 253.206 284.722 253.796 283.851 253.992C283.921 254.647 283.844 255.309 283.627 255.93C283.522 256.244 283.323 256.518 283.057 256.715C282.79 256.911 282.47 257.019 282.139 257.026C281.549 257.026 281.072 256.548 280.539 256.324C280.005 256.099 279.163 256.324 279.107 256.829C278.208 254.947 279.107 253.178 278.77 251.212C278.433 249.246 276.973 250.172 275.962 249.077C275.429 248.459 275.457 247.532 275.204 246.746C274.952 245.959 274.053 244.92 273.829 243.937C273.436 242.196 274.895 240.623 276.215 239.443C276.076 239.116 276.041 238.754 276.117 238.407C276.192 238.06 276.374 237.745 276.636 237.505C277.184 237.061 277.845 236.779 278.545 236.691C278.727 236.667 278.901 236.6 279.051 236.494C279.275 236.269 279.219 235.904 279.051 235.595C278.629 230.287 287.277 231.747 290.449 232.028C291.776 232.148 293.056 232.581 294.183 233.292C294.829 233.629 297.468 237.056 296.289 237.281Z" fill="#6C4409"/>
<path d="M279.5 262.503H279.696C284.329 263.655 291.067 267.868 292.583 272.558C294.797 278.95 295.414 285.787 294.38 292.472C293.425 296.713 290.842 300.393 289.775 304.521C289.009 309.096 287.921 313.61 286.519 318.031C285.859 320.071 284.559 321.844 282.813 323.087C281.225 323.868 279.472 324.254 277.703 324.211C272.509 324.491 265.21 326.261 260.858 322.694C259.289 321.225 258.078 319.415 257.319 317.404C256.56 315.392 256.272 313.234 256.478 311.094C256.928 306.817 258.046 302.638 259.791 298.707L267.006 279.889C268.803 275.423 273.014 261.211 279.5 262.503Z" fill="white"/>
<path d="M283.543 276.238C283.543 276.238 290.14 294.129 291.46 295.449C292.779 296.769 278.714 304.662 278.714 304.662C278.714 304.662 269.561 287.276 270.01 279.72C270.46 272.165 278.264 269.132 283.543 276.238Z" fill="white"/>
<path d="M278.714 302.246C278.841 303.111 279.137 303.943 279.585 304.693C280.034 305.444 280.625 306.098 281.327 306.62C282.028 307.142 282.825 307.52 283.673 307.733C284.52 307.947 285.401 307.991 286.266 307.864L298.226 307.695C303.841 307.695 309.231 307.442 314.734 307.471C316.079 307.655 317.398 307.994 318.664 308.482C320.377 308.865 322.141 308.969 323.886 308.791C327.329 308.425 330.556 306.934 333.067 304.549C333.915 303.916 334.55 303.039 334.886 302.035C335.222 301.031 335.244 299.949 334.948 298.932C334.833 298.663 334.636 298.438 334.387 298.286C334.164 298.243 333.935 298.243 333.713 298.286C330.428 298.85 327.066 298.793 323.802 298.117C324.071 297.7 324.208 297.21 324.195 296.713C324.195 296.236 323.69 295.758 323.213 295.87C322.96 295.957 322.736 296.113 322.567 296.32C321.766 297.223 320.765 297.924 319.643 298.368C318.521 298.812 317.311 298.986 316.11 298.876C307.041 298.455 298.114 296.517 289.045 296.067C286.927 295.844 284.785 296.064 282.756 296.713C281.69 297.246 280.767 298.026 280.063 298.989C279.36 299.951 278.897 301.068 278.714 302.246V302.246Z" fill="#FFBBAB"/>
<path d="M525.522 259.413C523.299 260.412 521.266 261.79 519.514 263.486C518.611 264.317 517.895 265.33 517.411 266.458C516.927 267.586 516.687 268.803 516.706 270.03C517.238 272.962 518.876 275.577 521.283 277.333C523.809 279.552 526.898 281.883 527.094 285.282C528.919 283.933 530.576 282.473 532.428 281.068C535.864 279.076 539.461 277.376 543.181 275.985C546.938 274.567 550.084 271.886 552.081 268.401C552.999 266.147 553.531 263.754 553.653 261.323C554.013 258.717 554.079 256.079 553.85 253.459C553.598 250.823 552.448 248.354 550.593 246.465C547.749 244.283 544.396 242.862 540.851 242.336C538.854 242.426 536.923 243.084 535.287 244.233C533.651 245.383 532.377 246.975 531.614 248.824C530.884 250.79 531.221 253.037 530.491 254.975C529.458 257.032 527.681 258.618 525.522 259.413V259.413Z" fill="#FC682D"/>
<path d="M494.443 418.752C493.736 418.82 493.044 419 492.393 419.286C492.076 419.442 491.807 419.681 491.614 419.978C491.422 420.274 491.312 420.617 491.298 420.971C491.365 421.316 491.515 421.64 491.735 421.914C491.956 422.188 492.239 422.404 492.562 422.544C493.179 422.853 493.881 422.993 494.499 423.33C495.023 423.687 495.577 423.997 496.155 424.257C497.185 424.453 498.25 424.305 499.187 423.836C503.588 422.291 508.225 421.53 512.888 421.589C513.335 421.645 513.788 421.645 514.236 421.589C514.914 421.357 515.519 420.948 515.987 420.405C516.456 419.862 516.772 419.204 516.903 418.499C517.548 415.604 517.548 412.603 516.903 409.708C516.855 409.379 516.74 409.064 516.566 408.781C516.36 408.563 516.098 408.407 515.808 408.332C511.232 406.59 509.266 411.14 506.262 413.612C502.851 416.349 498.77 418.124 494.443 418.752V418.752Z" fill="#FFBBAB"/>
<path d="M509.687 418.892H508.789C506.729 419.117 504.654 419.174 502.584 419.061C502.192 419.065 501.806 418.968 501.461 418.78C501.241 418.601 501.066 418.374 500.949 418.115C500.832 417.857 500.777 417.575 500.788 417.292C500.844 416.731 500.844 416.167 500.788 415.606C500.76 415.49 500.702 415.384 500.619 415.297C500.518 415.268 500.411 415.268 500.31 415.297C498.723 415.343 497.171 415.777 495.79 416.561C492.945 417.694 490.501 419.65 488.771 422.179C488.618 422.392 488.53 422.646 488.519 422.909C488.531 423.138 488.62 423.355 488.771 423.527C490.624 426.336 495.257 425.718 498.092 425.128C500.928 424.538 504.269 423.246 507.469 422.74C510.67 422.235 514.769 422.46 517.801 420.606C518.299 420.337 518.716 419.939 519.008 419.454C519.283 418.597 519.313 417.68 519.095 416.806C518.877 415.933 518.419 415.138 517.773 414.511C517.674 414.361 517.524 414.252 517.352 414.202C517.123 414.173 516.892 414.233 516.706 414.37C515.274 415.269 514.32 416.842 512.86 417.741C511.898 418.349 510.816 418.742 509.687 418.892V418.892Z" fill="#FFB443"/>
<path d="M541.075 301.572C541.075 301.572 555.366 309.774 551.379 324.744C547.87 337.833 537.819 345.978 531.39 357.157C527.824 363.336 528.582 373.476 526.982 380.694C525.123 389.539 522.58 398.225 519.373 406.675C518.7 408.36 517.661 410.354 515.836 410.41C514.986 410.294 514.143 410.135 513.309 409.933C512.497 410.016 511.679 410.016 510.867 409.933C508.789 409.455 508.789 406.506 509.266 404.315C511.543 394.281 512.915 384.064 513.365 373.784C513.702 365.864 511.569 357.466 513.815 349.77C515.583 343.703 526.196 311.122 526.196 311.122L541.075 301.572Z" fill="#E52440"/>
<path d="M541.075 301.572C541.075 301.572 555.366 309.774 551.379 324.744C547.87 337.833 537.819 345.978 531.39 357.157C527.824 363.336 528.582 373.476 526.982 380.694C525.123 389.539 522.58 398.225 519.373 406.675C518.7 408.36 517.661 410.354 515.836 410.41C514.986 410.294 514.143 410.135 513.309 409.933C512.497 410.016 511.679 410.016 510.867 409.933C508.789 409.455 508.789 406.506 509.266 404.315C511.543 394.281 512.915 384.064 513.365 373.784C513.702 365.864 511.569 357.466 513.815 349.77C515.583 343.703 526.196 311.122 526.196 311.122L541.075 301.572Z" fill="url(#paint11_linear_1532_20877)"/>
<path d="M524.595 426.673C523.925 426.902 523.298 427.244 522.742 427.684C522.465 427.908 522.257 428.207 522.142 428.545C522.028 428.883 522.012 429.247 522.097 429.594C522.242 429.912 522.465 430.189 522.744 430.4C523.023 430.611 523.351 430.749 523.697 430.801C524.371 430.942 525.073 430.801 525.746 431.082C526.362 431.29 526.991 431.459 527.627 431.588C528.665 431.504 529.649 431.091 530.435 430.408C534.314 427.807 538.618 425.905 543.153 424.791C543.597 424.697 544.03 424.556 544.444 424.369C544.992 423.958 545.428 423.416 545.712 422.793C545.997 422.17 546.121 421.486 546.073 420.802C545.963 417.858 545.185 414.976 543.799 412.376C543.689 412.066 543.506 411.787 543.265 411.562C543.011 411.407 542.721 411.32 542.423 411.309C537.538 410.775 536.808 415.691 534.506 418.808C531.937 422.242 528.522 424.952 524.595 426.673Z" fill="#FFBBAB"/>
<path d="M539.363 311.768C543.138 312.318 546.649 314.025 549.414 316.655C555.394 321.739 555.029 332.131 552.951 339.743C551.884 343.731 545.539 356.286 544.529 359.853C542.76 366.594 546.298 374.964 546.606 381.789C547 390.825 546.69 399.878 545.68 408.865C545.483 410.663 544.95 412.826 543.209 413.359C542.367 413.584 541.469 413.359 540.626 413.528C539.875 413.833 539.094 414.059 538.296 414.202C536.162 414.202 535.489 411.393 535.489 409.287C535.181 398.995 533.969 388.751 531.867 378.672C530.238 370.92 526.055 363.308 526.252 355.303L526.841 335.642C527.066 328.395 526.055 321.065 528.273 314.099C528.453 313.255 528.907 312.495 529.565 311.936C530.194 311.565 530.912 311.371 531.642 311.375C533.791 311.206 535.95 311.206 538.1 311.375L539.363 311.768Z" fill="#E52440"/>
<path d="M529.031 238.404C528.498 239.303 527.375 239.837 527.01 240.848C526.645 241.859 527.431 243.319 527.852 244.527C528.47 246.212 528.273 248.122 528.863 249.808C528.962 250.176 529.167 250.508 529.452 250.763C529.721 250.944 530.029 251.06 530.351 251.1C531.612 251.385 532.911 251.461 534.197 251.324C534.435 251.252 534.689 251.252 534.927 251.324C535.113 251.492 535.233 251.721 535.264 251.97C535.995 255.185 535.937 258.529 535.095 261.717C534.843 262.756 534.534 264.048 535.32 264.806C535.598 265.052 535.937 265.218 536.303 265.284C537.548 265.382 538.796 265.148 539.921 264.605C541.046 264.062 542.006 263.23 542.704 262.194C544.161 260.472 545.414 258.587 546.438 256.577C546.747 256.026 546.965 255.428 547.084 254.807C547.137 253.987 547.023 253.165 546.747 252.392C546.067 249.743 545.653 247.033 545.511 244.302C545.666 240.79 545.23 237.277 544.22 233.91C543.836 232.773 543.098 231.789 542.114 231.101C540.931 230.554 539.618 230.349 538.324 230.512C535.763 230.317 533.229 231.145 531.277 232.815C530.772 233.657 529.705 237.253 529.031 238.404Z" fill="#FFBBAB"/>
<path d="M546.887 255.256C546.887 255.256 536.415 260.677 533.242 264.918C530.07 269.16 524.82 272.305 526.898 280.366C528.526 286.883 526.757 292.95 526.673 299.41C526.673 301.179 527.431 302.612 527.403 304.409C527.403 307.555 524.595 310.335 525.662 313.594C526.476 316.262 529.565 317.413 532.26 318.172L542.788 321.233C545.046 322.199 547.589 322.259 549.891 321.402C552.53 319.941 553.12 316.43 553.372 313.425C553.99 305.645 553.765 296.292 556.966 289.017C558.94 284.887 559.606 280.252 558.875 275.732C558.201 269.834 555.646 254.217 546.887 255.256Z" fill="white"/>
<path d="M532.4 232.759C532.612 234.488 533.439 236.084 534.73 237.253C535.966 238.404 537.538 239.191 538.773 240.314C539.458 240.824 540.005 241.497 540.363 242.272C540.721 243.047 540.879 243.9 540.823 244.752C541.316 244.529 541.874 244.495 542.391 244.655C542.908 244.815 543.349 245.16 543.63 245.622C543.772 245.939 543.821 246.289 543.772 246.632C543.722 246.976 543.575 247.298 543.349 247.561C543.118 247.811 542.835 248.009 542.52 248.14C542.205 248.271 541.865 248.332 541.525 248.319C542.849 248.854 543.983 249.774 544.781 250.959C545.68 252.279 546.129 253.768 546.943 255.256C547.962 256.646 549.228 257.836 550.677 258.767C551.351 259.21 551.909 259.807 552.305 260.509C552.603 261.561 552.969 262.593 553.4 263.598C554.329 264.918 555.332 266.184 556.404 267.39C557.829 269.496 558.645 271.955 558.763 274.496C558.693 273.739 558.693 272.978 558.763 272.221C559.015 271.772 559.268 271.322 559.493 270.873C559.906 270.05 560.226 269.183 560.447 268.289C560.756 266.244 560.812 264.169 560.616 262.11C560.616 257.7 564.771 249.386 561.43 245.594C560.091 244.491 558.674 243.487 557.191 242.589C554.383 240.146 553.822 235.848 551.969 232.506C551.149 231.036 550.043 229.744 548.717 228.707C547.392 227.67 545.872 226.908 544.248 226.467C539.784 225.259 531.867 226.636 532.4 232.759Z" fill="#FC682D"/>
<path d="M546.55 262.082C546.55 262.082 527.712 265.115 525.943 264.637C524.174 264.16 524.174 280.254 524.174 280.254C524.174 280.254 543.827 279.664 550.172 275.563C556.517 271.463 555.281 263.065 546.55 262.082Z" fill="white"/>
<path d="M526.308 279.074C525.492 279.396 524.62 279.554 523.742 279.537C522.865 279.521 521.999 279.331 521.196 278.979C520.392 278.626 519.666 278.118 519.059 277.484C518.452 276.85 517.977 276.101 517.661 275.283L502.584 247.701C502.584 245.285 501.209 242.645 501.967 240.37C502.36 239.275 503.146 238.376 503.539 237.309C504.045 235.902 504.045 234.362 503.539 232.955C502.987 231.593 502.29 230.293 501.461 229.079C501.614 228.665 501.911 228.32 502.298 228.108C502.686 227.897 503.136 227.832 503.567 227.928C504.417 228.159 505.18 228.638 505.757 229.304C507.039 230.634 508.047 232.205 508.721 233.925C509.396 235.646 509.724 237.483 509.687 239.331C509.519 240.458 509.519 241.603 509.687 242.73C509.923 243.495 510.283 244.216 510.754 244.864C515.583 252.56 521.647 259.385 526.476 267.081C527.697 268.832 528.556 270.808 529.003 272.895C529.067 274.064 528.857 275.232 528.389 276.305C527.921 277.378 527.208 278.326 526.308 279.074Z" fill="#FFBBAB"/>
<path d="M539.84 424.117L539.026 424.341C537.18 424.788 535.303 425.098 533.411 425.268C533.062 425.365 532.693 425.365 532.344 425.268C532.119 425.129 531.929 424.94 531.788 424.716C531.647 424.492 531.559 424.239 531.53 423.976C531.484 423.451 531.381 422.933 531.221 422.431C531.191 422.324 531.121 422.234 531.025 422.179C530.933 422.15 530.835 422.15 530.744 422.179C529.285 422.426 527.907 423.023 526.729 423.92C524.3 425.369 522.348 427.497 521.114 430.043C521.011 430.262 520.963 430.503 520.974 430.745C521.031 430.946 521.137 431.129 521.283 431.279C523.36 433.722 527.515 432.486 530.042 431.56C532.569 430.633 535.488 429.088 538.464 428.217C541.44 427.347 545.118 427.009 547.673 424.931C548.095 424.627 548.433 424.221 548.656 423.751C548.799 422.925 548.709 422.074 548.397 421.295C548.085 420.517 547.562 419.84 546.887 419.342C546.773 419.225 546.626 419.146 546.466 419.117C546.36 419.118 546.255 419.14 546.158 419.184C546.062 419.227 545.975 419.291 545.904 419.37C544.669 420.381 543.995 421.926 542.788 422.937C541.903 423.541 540.897 423.944 539.84 424.117Z" fill="#FFB443"/>
<path d="M490.484 212.451H481.051V196.329H464.487V186.864H490.484V212.451Z" fill="#FFB443"/>
<g filter="url(#filter3_d_1532_20877)">
<path d="M347.515 149.337C349.879 157.556 349.572 166.339 346.641 174.363C343.71 182.387 338.314 189.217 331.266 193.823C324.218 198.429 315.9 200.562 307.566 199.9C299.233 199.238 291.335 195.817 285.063 190.153L300.352 172.367C302.86 174.633 306.019 176.001 309.353 176.266C312.686 176.53 316.014 175.677 318.833 173.835C321.652 171.992 323.811 169.26 324.983 166.051C326.155 162.841 326.278 159.328 325.333 156.04L347.515 149.337Z" fill="#FFB443"/>
</g>
<g filter="url(#filter4_d_1532_20877)">
<path d="M285.082 190.17C280.959 186.452 277.659 181.873 275.403 176.741C273.147 171.609 271.987 166.042 272 160.413L295.126 160.471C295.121 162.722 295.585 164.949 296.488 167.002C297.39 169.055 298.71 170.886 300.359 172.374L285.082 190.17Z" fill="black" fill-opacity="0.25"/>
</g>
<g filter="url(#filter5_d_1532_20877)">
<path d="M272 160.509C272 151.008 275.34 141.825 281.408 134.643C287.476 127.462 295.866 122.762 305.04 121.405C314.214 120.048 323.558 122.126 331.359 127.256C339.16 132.387 344.896 140.228 347.516 149.341L325.333 156.042C324.285 152.397 321.991 149.26 318.87 147.208C315.75 145.156 312.012 144.325 308.343 144.868C304.673 145.41 301.317 147.29 298.89 150.163C296.462 153.036 295.126 156.709 295.126 160.509H272Z" fill="#E52440"/>
</g>
<path opacity="0.1" d="M491.514 150.905C463.221 140.946 436.676 150.905 429.438 125.016C422.2 99.128 415.22 137.11 395.477 145.894C392.356 147.282 381.438 169.974 377.457 170L556.744 169.412V108C540.863 111.494 519.807 160.864 491.514 150.905Z" fill="#F4263E"/>
<g filter="url(#filter6_d_1532_20877)">
<path d="M378.584 167.884C407.503 167.884 419.417 103.025 431.943 126.965C444.47 150.905 482.621 137.919 510.722 147.286C538.823 156.653 539.764 111.286 555.538 108" stroke="#FFB443" stroke-width="5" stroke-linecap="round"/>
</g>
<path d="M513.871 148.413H311V311.964H513.871V148.413Z" fill="white"/>
<path d="M502.163 293.174H325.992V170.405H502.304L502.163 293.174ZM327.424 291.601H500.591V171.978H327.424V291.601Z" fill="#FFB443"/>
<path d="M341.714 271.126L335.145 264.329L366.813 233.714L387.28 243.095L422.795 210.12L441.465 221.917L477.85 192.145L483.83 199.447L442.195 233.545L423.89 222.001L389.077 254.33L368.75 245.005L341.714 271.126Z" fill="#E52440"/>
</g>
<defs>
<filter id="filter0_d_1532_20877" x="253" y="220" width="21" height="21" filterUnits="userSpaceOnUse" color-interpolation-filters="sRGB">
<feFlood flood-opacity="0" result="BackgroundImageFix"/>
<feColorMatrix in="SourceAlpha" type="matrix" values="0 0 0 0 0 0 0 0 0 0 0 0 0 0 0 0 0 0 127 0" result="hardAlpha"/>
<feOffset dy="3"/>
<feGaussianBlur stdDeviation="2.5"/>
<feColorMatrix type="matrix" values="0 0 0 0 0.956863 0 0 0 0 0.14902 0 0 0 0 0.243137 0 0 0 0.18 0"/>
<feBlend mode="normal" in2="BackgroundImageFix" result="effect1_dropShadow_1532_20877"/>
<feBlend mode="normal" in="SourceGraphic" in2="effect1_dropShadow_1532_20877" result="shape"/>
</filter>
<filter id="filter1_d_1532_20877" x="253" y="237" width="21" height="21" filterUnits="userSpaceOnUse" color-interpolation-filters="sRGB">
<feFlood flood-opacity="0" result="BackgroundImageFix"/>
<feColorMatrix in="SourceAlpha" type="matrix" values="0 0 0 0 0 0 0 0 0 0 0 0 0 0 0 0 0 0 127 0" result="hardAlpha"/>
<feOffset dy="3"/>
<feGaussianBlur stdDeviation="2.5"/>
<feColorMatrix type="matrix" values="0 0 0 0 0.956863 0 0 0 0 0.14902 0 0 0 0 0.243137 0 0 0 0.18 0"/>
<feBlend mode="normal" in2="BackgroundImageFix" result="effect1_dropShadow_1532_20877"/>
<feBlend mode="normal" in="SourceGraphic" in2="effect1_dropShadow_1532_20877" result="shape"/>
</filter>
<filter id="filter2_d_1532_20877" x="253" y="254" width="21" height="21" filterUnits="userSpaceOnUse" color-interpolation-filters="sRGB">
<feFlood flood-opacity="0" result="BackgroundImageFix"/>
<feColorMatrix in="SourceAlpha" type="matrix" values="0 0 0 0 0 0 0 0 0 0 0 0 0 0 0 0 0 0 127 0" result="hardAlpha"/>
<feOffset dy="3"/>
<feGaussianBlur stdDeviation="2.5"/>
<feColorMatrix type="matrix" values="0 0 0 0 0.956863 0 0 0 0 0.14902 0 0 0 0 0.243137 0 0 0 0.18 0"/>
<feBlend mode="normal" in2="BackgroundImageFix" result="effect1_dropShadow_1532_20877"/>
<feBlend mode="normal" in="SourceGraphic" in2="effect1_dropShadow_1532_20877" result="shape"/>
</filter>
<filter id="filter3_d_1532_20877" x="278.89" y="149.337" width="76.3711" height="63.0268" filterUnits="userSpaceOnUse" color-interpolation-filters="sRGB">
<feFlood flood-opacity="0" result="BackgroundImageFix"/>
<feColorMatrix in="SourceAlpha" type="matrix" values="0 0 0 0 0 0 0 0 0 0 0 0 0 0 0 0 0 0 127 0" result="hardAlpha"/>
<feOffset dy="6.17289"/>
<feGaussianBlur stdDeviation="3.08645"/>
<feColorMatrix type="matrix" values="0 0 0 0 0.104167 0 0 0 0 0.4625 0 0 0 0 1 0 0 0 0.17 0"/>
<feBlend mode="normal" in2="BackgroundImageFix" result="effect1_dropShadow_1532_20877"/>
<feBlend mode="normal" in="SourceGraphic" in2="effect1_dropShadow_1532_20877" result="shape"/>
</filter>
<filter id="filter4_d_1532_20877" x="261.197" y="152.697" width="49.9644" height="51.3624" filterUnits="userSpaceOnUse" color-interpolation-filters="sRGB">
<feFlood flood-opacity="0" result="BackgroundImageFix"/>
<feColorMatrix in="SourceAlpha" type="matrix" values="0 0 0 0 0 0 0 0 0 0 0 0 0 0 0 0 0 0 127 0" result="hardAlpha"/>
<feOffset dy="3.08645"/>
<feGaussianBlur stdDeviation="5.40128"/>
<feColorMatrix type="matrix" values="0 0 0 0 1 0 0 0 0 0.80475 0 0 0 0 0.1125 0 0 0 0.12 0"/>
<feBlend mode="normal" in2="BackgroundImageFix" result="effect1_dropShadow_1532_20877"/>
<feBlend mode="normal" in="SourceGraphic" in2="effect1_dropShadow_1532_20877" result="shape"/>
</filter>
<filter id="filter5_d_1532_20877" x="265.827" y="119.457" width="87.8621" height="51.8552" filterUnits="userSpaceOnUse" color-interpolation-filters="sRGB">
<feFlood flood-opacity="0" result="BackgroundImageFix"/>
<feColorMatrix in="SourceAlpha" type="matrix" values="0 0 0 0 0 0 0 0 0 0 0 0 0 0 0 0 0 0 127 0" result="hardAlpha"/>
<feOffset dy="4.62967"/>
<feGaussianBlur stdDeviation="3.08645"/>
<feColorMatrix type="matrix" values="0 0 0 0 0.956863 0 0 0 0 0.14902 0 0 0 0 0.243137 0 0 0 0.28 0"/>
<feBlend mode="normal" in2="BackgroundImageFix" result="effect1_dropShadow_1532_20877"/>
<feBlend mode="normal" in="SourceGraphic" in2="effect1_dropShadow_1532_20877" result="shape"/>
</filter>
<filter id="filter6_d_1532_20877" x="371.084" y="102.5" width="191.955" height="74.8842" filterUnits="userSpaceOnUse" color-interpolation-filters="sRGB">
<feFlood flood-opacity="0" result="BackgroundImageFix"/>
<feColorMatrix in="SourceAlpha" type="matrix" values="0 0 0 0 0 0 0 0 0 0 0 0 0 0 0 0 0 0 127 0" result="hardAlpha"/>
<feOffset dy="2"/>
<feGaussianBlur stdDeviation="2.5"/>
<feColorMatrix type="matrix" values="0 0 0 0 0.956863 0 0 0 0 0.14902 0 0 0 0 0.243137 0 0 0 0.33 0"/>
<feBlend mode="normal" in2="BackgroundImageFix" result="effect1_dropShadow_1532_20877"/>
<feBlend mode="normal" in="SourceGraphic" in2="effect1_dropShadow_1532_20877" result="shape"/>
</filter>
<linearGradient id="paint0_linear_1532_20877" x1="241.152" y1="298.981" x2="183.603" y2="524.459" gradientUnits="userSpaceOnUse">
<stop offset="0.01"/>
<stop offset="0.13" stop-opacity="0.69"/>
<stop offset="0.25" stop-opacity="0.32"/>
<stop offset="1" stop-opacity="0"/>
</linearGradient>
<linearGradient id="paint1_linear_1532_20877" x1="22199.6" y1="15018.4" x2="9033.71" y2="19288.7" gradientUnits="userSpaceOnUse">
<stop offset="0.01"/>
<stop offset="0.13" stop-opacity="0.69"/>
<stop offset="0.25" stop-opacity="0.32"/>
<stop offset="1" stop-opacity="0"/>
</linearGradient>
<linearGradient id="paint2_linear_1532_20877" x1="49.9858" y1="348.366" x2="196.683" y2="435.549" gradientUnits="userSpaceOnUse">
<stop offset="0.01"/>
<stop offset="0.08" stop-opacity="0.69"/>
<stop offset="0.21" stop-opacity="0.32"/>
<stop offset="1" stop-opacity="0"/>
</linearGradient>
<linearGradient id="paint3_linear_1532_20877" x1="4195.18" y1="5475.1" x2="3855.33" y2="3396.02" gradientUnits="userSpaceOnUse">
<stop offset="0.01"/>
<stop offset="0.08" stop-opacity="0.69"/>
<stop offset="0.21" stop-opacity="0.32"/>
<stop offset="1" stop-opacity="0"/>
</linearGradient>
<linearGradient id="paint4_linear_1532_20877" x1="7382.29" y1="13957.6" x2="6841.87" y2="14015.3" gradientUnits="userSpaceOnUse">
<stop offset="0.01"/>
<stop offset="0.08" stop-opacity="0.69"/>
<stop offset="0.21" stop-opacity="0.32"/>
<stop offset="1" stop-opacity="0"/>
</linearGradient>
<linearGradient id="paint5_linear_1532_20877" x1="14512.3" y1="4281.68" x2="14176.9" y2="4889.88" gradientUnits="userSpaceOnUse">
<stop offset="0.01"/>
<stop offset="0.08" stop-opacity="0.69"/>
<stop offset="0.21" stop-opacity="0.32"/>
<stop offset="1" stop-opacity="0"/>
</linearGradient>
<linearGradient id="paint6_linear_1532_20877" x1="23050.1" y1="7776.64" x2="21390.7" y2="8326.68" gradientUnits="userSpaceOnUse">
<stop offset="0.01"/>
<stop offset="0.08" stop-opacity="0.69"/>
<stop offset="0.21" stop-opacity="0.32"/>
<stop offset="1" stop-opacity="0"/>
</linearGradient>
<linearGradient id="paint7_linear_1532_20877" x1="8395.95" y1="6487.85" x2="6555" y2="6907.34" gradientUnits="userSpaceOnUse">
<stop offset="0.01"/>
<stop offset="0.08" stop-opacity="0.69"/>
<stop offset="0.21" stop-opacity="0.32"/>
<stop offset="1" stop-opacity="0"/>
</linearGradient>
<linearGradient id="paint8_linear_1532_20877" x1="3924.73" y1="6985.32" x2="3124.54" y2="6930.99" gradientUnits="userSpaceOnUse">
<stop offset="0.01"/>
<stop offset="0.08" stop-opacity="0.69"/>
<stop offset="0.21" stop-opacity="0.32"/>
<stop offset="1" stop-opacity="0"/>
</linearGradient>
<linearGradient id="paint9_linear_1532_20877" x1="6803.39" y1="3485.3" x2="6072.43" y2="3252.85" gradientUnits="userSpaceOnUse">
<stop offset="0.01"/>
<stop offset="0.08" stop-opacity="0.69"/>
<stop offset="0.21" stop-opacity="0.32"/>
<stop offset="1" stop-opacity="0"/>
</linearGradient>
<linearGradient id="paint10_linear_1532_20877" x1="40513.7" y1="2843.35" x2="40553.5" y2="6530.54" gradientUnits="userSpaceOnUse">
<stop offset="0.01"/>
<stop offset="0.08" stop-opacity="0.69"/>
<stop offset="0.21" stop-opacity="0.32"/>
<stop offset="1" stop-opacity="0"/>
</linearGradient>
<linearGradient id="paint11_linear_1532_20877" x1="11672.1" y1="17579.6" x2="6479.99" y2="17399.1" gradientUnits="userSpaceOnUse">
<stop offset="0.01"/>
<stop offset="0.08" stop-opacity="0.69"/>
<stop offset="0.21" stop-opacity="0.32"/>
<stop offset="1" stop-opacity="0"/>
</linearGradient>
<clipPath id="clip0_1532_20877">
<rect width="622" height="469" fill="white"/>
</clipPath>
</defs>
</svg>
