<svg width="451" height="364" viewBox="0 0 451 364" fill="none" xmlns="http://www.w3.org/2000/svg">
<g clip-path="url(#clip0_802_5082)">
<path opacity="0.24" d="M146.855 5.93436C115.958 18.1628 98.029 49.5836 74.6429 73.1868C61.2315 86.7544 45.6826 97.9534 31.8941 111.128C18.1055 124.302 5.90947 140.088 1.71841 158.669C-6.25298 193.89 15.968 228.29 21.7852 263.929C23.6377 275.312 23.8305 287.055 27.527 297.97C30.4523 306.607 35.4816 314.417 41.2988 321.406C64.8609 349.914 102.572 366.16 139.512 363.716C163.879 362.1 187.29 352.935 211.724 351.922C248.547 350.391 285.713 367.465 321.429 358.417C337.9 354.232 352.485 344.816 366.5 335.224C394.312 316.183 423.264 292.831 429.726 259.778C434.471 235.505 426.021 209.918 431.914 185.905C435.334 171.969 443.372 159.59 447.614 145.88C456.625 116.811 447.002 83.7413 426.474 61.2513C405.946 38.7612 375.821 26.3403 345.461 23.7037C325.553 21.9712 305.52 24.1557 285.537 23.7707C236.77 22.8835 197.458 -14.0949 146.855 5.93436Z" fill="#FFB443"/>
<path opacity="0.24" d="M105.17 295.668C103.092 296.086 100.879 296.63 99.4789 298.179C97.5091 300.422 97.9534 304.038 99.7555 306.423C101.558 308.809 104.366 310.164 107.149 311.227C120.258 316.249 134.659 316.291 148.69 316.308C177.014 316.308 206.41 316.141 232.059 304.13C211.33 296.137 192.026 296.53 170.45 295.007C148.003 293.492 127.626 291.081 105.17 295.668Z" fill="#FFB443"/>
<path d="M275.462 164.963L262.134 172.253L243.241 218.849L283.24 196.978L275.462 164.963Z" fill="url(#paint0_linear_802_5082)"/>
<path d="M332.921 164.963L346.249 172.253L365.142 218.849L325.143 196.978L332.921 164.963Z" fill="#FFB443"/>
<path d="M275.462 164.963L262.134 172.253L243.241 218.849L283.24 196.978L275.462 164.963Z" fill="url(#paint1_linear_802_5082)" fill-opacity="0.1"/>
<path d="M332.921 164.963L346.249 172.253L365.142 218.849L325.143 196.978L332.921 164.963Z" fill="url(#paint2_linear_802_5082)"/>
<path d="M174.826 292.655C174.568 293.56 174.622 294.525 174.981 295.395C175.34 296.266 175.983 296.99 176.804 297.451C177.621 297.815 178.48 298.08 179.361 298.237C182.064 298.899 184.567 300.206 186.653 302.046C186.993 302.269 187.27 302.576 187.457 302.936C187.645 303.296 187.738 303.699 187.726 304.105C187.533 305.034 186.444 305.427 185.522 305.645C183.583 306.17 181.603 306.532 179.604 306.724C175.539 307.001 171.515 305.887 167.592 304.758C166.1 304.331 163.854 303.686 163.51 301.954C163.441 300.76 163.497 299.562 163.678 298.38L163.938 292.353" fill="#606161"/>
<path d="M151.666 299.844C151.488 300.304 151.447 300.806 151.548 301.289C151.649 301.772 151.888 302.215 152.236 302.565C152.941 303.253 153.747 303.832 154.625 304.281C156.943 305.685 158.988 307.497 160.66 309.629C161.431 310.608 162.152 311.889 161.666 313.035C161.407 313.567 160.996 314.01 160.484 314.308C158.811 315.28 156.882 315.723 154.952 315.58C150.082 315.454 142.881 312.416 141.473 307.151C141.029 305.519 141.515 303.285 141.582 301.602L141.758 297.543" fill="#606161"/>
<path d="M179.268 199.556L175.48 294.136C174.017 295.209 172.264 295.813 170.45 295.869C166.955 296.07 166.326 296.321 163.812 294.036L152.831 194.844L179.268 194.291V199.556Z" fill="#981921"/>
<path d="M179.268 199.556L175.48 294.136C174.017 295.209 172.264 295.813 170.45 295.869C166.955 296.07 166.326 296.321 163.812 294.036L152.831 194.844L179.268 194.291V199.556Z" fill="url(#paint3_linear_802_5082)" fill-opacity="0.2"/>
<path d="M164.332 208.051L153.435 300.037C153.435 300.037 151.859 301.652 147.567 301.711C142.697 301.77 142.253 301.108 141.163 298.648L139.009 193.136L164.03 197.397L164.332 208.051Z" fill="#981921"/>
<path d="M164.332 208.051L153.435 300.037C153.435 300.037 151.859 301.652 147.567 301.711C142.697 301.77 142.253 301.108 141.163 298.648L139.009 193.136L164.03 197.397L164.332 208.051Z" fill="url(#paint4_linear_802_5082)" fill-opacity="0.3"/>
<path d="M167.726 198.844C164.312 199.997 160.795 200.821 157.223 201.305C152.488 201.791 147.525 199.506 143.812 199.313C138.858 199.062 138.724 198.903 138.724 195.681C138.724 194.057 179.914 190.165 179.914 190.165C179.914 190.165 179.721 193.136 179.729 195.881C179.729 197.94 178.849 197.823 175.103 198.041C171.356 198.259 170.635 197.12 167.726 198.844Z" fill="#F2FBFF"/>
<path d="M151.473 126.227C151.473 126.227 144.566 128.018 139.638 131.6C136.595 133.81 138.699 195.681 138.699 195.681C139.001 195.63 152.236 200.987 165.035 198.786C175.932 196.911 179.863 191.805 179.863 191.805C179.863 191.805 180.844 132.437 178.723 130.002C177.785 128.914 167.416 125.089 167.416 125.089C167.416 125.089 162.89 131.885 151.473 126.227Z" fill="#FFB443"/>
<path d="M151.473 126.227C151.473 126.227 144.566 128.018 139.638 131.6C136.595 133.81 138.699 195.681 138.699 195.681C139.001 195.63 152.236 200.987 165.035 198.786C175.932 196.911 179.863 191.805 179.863 191.805C179.863 191.805 180.844 132.437 178.723 130.002C177.785 128.914 167.416 125.089 167.416 125.089C167.416 125.089 162.89 131.885 151.473 126.227Z" fill="url(#paint5_linear_802_5082)"/>
<path d="M153.736 112.483L151.473 126.227C151.473 126.227 156.502 133.626 162.932 132.521C169.361 131.416 167.743 128.436 167.743 128.436L166.905 116.827C166.905 116.827 161.129 117.84 153.736 112.483Z" fill="#C8A59C"/>
<path d="M152.94 117.304L153.778 112.483C161.171 117.84 165.01 115.564 165.01 115.564L166.796 121.799C165.791 122.849 164.438 123.497 162.99 123.624C159.403 123.875 155.815 121.071 152.94 117.304Z" fill="#B58B81"/>
<path d="M151.758 124.57L145.053 127.717C145.053 127.717 155.614 138.866 158.833 138.648C158.833 138.648 161.876 133.007 164.7 132.12L151.758 124.57Z" fill="#F2FBFF"/>
<path d="M167.291 126.486C166.737 128.484 165.871 130.382 164.726 132.111C165.354 132.354 169.453 135.208 169.52 137.133C169.52 137.133 173.594 127.926 171.909 126.478C170.5 125.762 169.054 125.122 167.575 124.561L167.291 126.486Z" fill="#F2FBFF"/>
<path d="M142.362 129.968C142.362 129.968 131.993 133.316 130.82 149.847C129.747 164.913 127.048 175.852 129.244 180.313C132.102 186.131 152.094 187.093 152.094 187.093C152.577 184.198 152.454 181.234 151.733 178.388L140.778 174.019C140.778 174.019 142.538 132.546 142.362 129.968Z" fill="#FFB443"/>
<path d="M147.945 102.473C148.489 110.098 156.327 123.574 163.954 123.03C171.582 122.486 173.803 106.708 173.259 99.0832C172.714 91.4582 168.431 87.131 160.786 87.675C158.97 87.8045 157.197 88.29 155.568 89.1038C153.94 89.9175 152.488 91.0437 151.296 92.4179C150.103 93.792 149.193 95.3873 148.618 97.1126C148.043 98.8379 147.814 100.659 147.945 102.473Z" fill="#C8A59C"/>
<path d="M165.924 185.896C165.74 184.44 166.427 183.042 166.628 180.565C166.829 178.087 165.22 177.443 162.864 177.217C162.219 177.141 161.716 177.066 161.289 176.999C159.092 177.526 160.844 180.188 160.962 182.021C161.079 183.854 160.668 186.482 161.305 187.043C161.574 187.286 163.594 187.177 165.932 186.876C165.97 186.55 165.967 186.221 165.924 185.896Z" fill="#B58B81"/>
<path d="M167.374 115.153C167.374 115.153 167.164 114.961 165.563 115.078C163.663 115.175 161.757 115.04 159.889 114.676C158.657 114.367 158.07 114.559 158.212 116.208C158.355 117.857 159.646 119.322 162.881 119.498C166.511 119.69 168.036 118.326 168.321 116.694C168.522 115.513 167.776 115.12 167.374 115.153Z" fill="#C8A59C"/>
<path d="M153.435 178.648C154.795 178.359 156.136 177.984 157.45 177.526C159.176 176.873 159.721 177.258 162.253 177.526C164.784 177.794 166.519 178.439 166.301 180.975C166.083 183.511 165.354 184.934 165.547 186.415C165.74 187.897 165.279 189.169 163.032 189.219C160.786 189.269 153.435 187.009 153.435 187.009" fill="#C8A59C"/>
<path d="M150.987 177.987H154.835C154.835 177.987 156.511 183.527 154.332 187.369L150.082 187.193C150.082 187.193 151.524 181.803 150.987 177.987Z" fill="#F2FBFF"/>
<path d="M152.932 180.673C153.399 180.673 153.778 180.273 153.778 179.778C153.778 179.283 153.399 178.882 152.932 178.882C152.464 178.882 152.085 179.283 152.085 179.778C152.085 180.273 152.464 180.673 152.932 180.673Z" fill="#D2E8EC"/>
<path d="M167.927 106.072C167.801 105.588 167.773 105.083 167.843 104.587C167.914 104.092 168.082 103.615 168.338 103.184C168.589 102.752 168.925 102.374 169.325 102.074C169.726 101.773 170.182 101.556 170.668 101.435C171.161 101.283 171.679 101.233 172.192 101.287C172.704 101.341 173.201 101.498 173.651 101.749C174.101 102 174.495 102.339 174.81 102.747C175.125 103.154 175.354 103.621 175.484 104.119C175.613 104.618 175.64 105.137 175.563 105.646C175.485 106.155 175.305 106.643 175.034 107.08C174.762 107.518 174.405 107.896 173.983 108.191C173.561 108.487 173.084 108.694 172.579 108.801H172.445C171.485 109.016 170.479 108.852 169.637 108.343C168.795 107.835 168.182 107.021 167.927 106.072ZM170.894 102.322C170.151 102.515 169.515 102.995 169.126 103.655C168.736 104.316 168.625 105.104 168.816 105.846C168.958 106.397 169.259 106.894 169.682 107.275C170.105 107.655 170.63 107.904 171.194 107.988C171.757 108.073 172.332 107.99 172.849 107.75C173.365 107.509 173.799 107.123 174.097 106.638C174.395 106.153 174.543 105.592 174.523 105.023C174.503 104.455 174.316 103.905 173.985 103.442C173.655 102.979 173.195 102.624 172.663 102.42C172.131 102.217 171.551 102.174 170.995 102.297L170.894 102.322Z" fill="#292F67"/>
<path d="M160.141 108.859C159.65 108.572 159.22 108.19 158.878 107.736C158.536 107.282 158.287 106.765 158.146 106.215C157.933 105.388 157.971 104.517 158.253 103.711C158.536 102.906 159.052 102.202 159.735 101.689C160.418 101.176 161.238 100.877 162.091 100.829C162.945 100.781 163.793 100.986 164.53 101.419C165.266 101.852 165.858 102.494 166.229 103.262C166.601 104.031 166.737 104.892 166.619 105.737C166.501 106.582 166.134 107.374 165.566 108.012C164.998 108.649 164.253 109.104 163.426 109.32H163.267C162.204 109.572 161.085 109.407 160.141 108.859ZM161.482 101.837C161.044 101.948 160.632 102.145 160.271 102.416C159.911 102.687 159.607 103.028 159.379 103.417C159.152 103.807 159.004 104.238 158.944 104.685C158.885 105.132 158.916 105.587 159.034 106.022C159.202 106.669 159.557 107.252 160.055 107.698C160.552 108.145 161.171 108.436 161.832 108.534C162.494 108.633 163.17 108.535 163.777 108.253C164.383 107.971 164.893 107.517 165.243 106.948C165.593 106.378 165.768 105.719 165.746 105.051C165.723 104.383 165.505 103.737 165.117 103.192C164.73 102.648 164.19 102.229 163.566 101.988C162.942 101.747 162.261 101.694 161.607 101.837H161.482Z" fill="#292F67"/>
<path d="M167.827 105.168L168.707 104.909C168.651 104.732 168.555 104.57 168.428 104.435C168.3 104.3 168.143 104.196 167.97 104.13C167.581 104.024 167.174 104.004 166.777 104.072C166.381 104.14 166.003 104.294 165.673 104.524L166.109 105.361C167.006 104.875 167.441 104.925 167.618 105.001C167.706 105.028 167.781 105.088 167.827 105.168Z" fill="#292F67"/>
<path d="M158.506 104.926L158.473 104.013L153.242 104.164L153.284 105.076L158.506 104.926Z" fill="#292F67"/>
<path d="M178.723 130.002C178.723 130.002 184.515 146.122 188.12 159.188C191.724 172.253 202.369 159.414 202.369 159.414C202.369 159.414 208.237 159.188 208.455 162.762C208.673 166.336 205.102 177.827 194.926 178.079C184.75 178.33 173.971 165.013 173.971 165.013L178.723 130.002Z" fill="#FFB443"/>
<path d="M194.306 186.013L173.61 185.712C173.074 185.742 172.539 185.646 172.047 185.432C171.554 185.218 171.12 184.891 170.777 184.478C170.434 184.065 170.194 183.578 170.075 183.055C169.955 182.532 169.96 181.989 170.09 181.468L177.994 144.934C178.303 143.757 178.992 142.716 179.955 141.971C180.917 141.227 182.099 140.82 183.317 140.816L204.012 141.117C204.549 141.085 205.086 141.18 205.579 141.393C206.072 141.607 206.507 141.934 206.85 142.347C207.193 142.761 207.434 143.249 207.552 143.772C207.671 144.296 207.664 144.84 207.533 145.361L199.637 181.895C199.327 183.072 198.636 184.114 197.672 184.859C196.708 185.603 195.525 186.009 194.306 186.013Z" fill="#FFB443"/>
<path d="M194.306 186.013L173.61 185.712C173.074 185.742 172.539 185.646 172.047 185.432C171.554 185.218 171.12 184.891 170.777 184.478C170.434 184.065 170.194 183.578 170.075 183.055C169.955 182.532 169.96 181.989 170.09 181.468L177.994 144.934C178.303 143.757 178.992 142.716 179.955 141.971C180.917 141.227 182.099 140.82 183.317 140.816L204.012 141.117C204.549 141.085 205.086 141.18 205.579 141.393C206.072 141.607 206.507 141.934 206.85 142.347C207.193 142.761 207.434 143.249 207.552 143.772C207.671 144.296 207.664 144.84 207.533 145.361L199.637 181.895C199.327 183.072 198.636 184.114 197.672 184.859C196.708 185.603 195.525 186.009 194.306 186.013Z" fill="#981921"/>
<path d="M194.448 186.231L174.65 185.938C174.138 185.964 173.627 185.869 173.158 185.662C172.689 185.455 172.275 185.141 171.949 184.746C171.623 184.351 171.394 183.885 171.281 183.385C171.168 182.886 171.173 182.367 171.297 181.87L178.841 146.909C179.14 145.783 179.801 144.787 180.724 144.074C181.647 143.361 182.779 142.972 183.946 142.967L203.753 143.26C204.265 143.232 204.777 143.326 205.247 143.532C205.717 143.738 206.132 144.052 206.458 144.448C206.784 144.844 207.013 145.311 207.125 145.811C207.238 146.311 207.231 146.83 207.105 147.328L199.562 182.289C199.263 183.416 198.6 184.414 197.675 185.126C196.751 185.839 195.616 186.227 194.448 186.231Z" fill="#E52440"/>
<path d="M207.785 161.096C207.769 160.286 207.595 159.487 207.273 158.744C207.052 157.989 206.608 157.318 205.999 156.819C205.325 156.44 204.559 156.255 203.786 156.283C203.007 156.283 202.219 156.283 201.439 156.283C200.58 156.269 199.725 156.423 198.925 156.735C197.779 157.358 196.89 158.362 196.41 159.573C195.337 161.858 195.111 164.762 196.645 166.763C197.322 167.557 198.119 168.24 199.008 168.788C199.972 169.449 201.104 170.144 202.236 169.834C202.774 169.645 203.266 169.343 203.677 168.947L205.354 167.558C205.926 167.133 206.41 166.601 206.779 165.993C207.086 165.206 207.234 164.367 207.215 163.523C207.445 162.724 207.635 161.914 207.785 161.096Z" fill="#C8A59C"/>
<path d="M172.236 89.1983C171.16 86.6512 169.587 84.3436 167.609 82.4102L167.45 83.9419C164.308 82.5093 160.917 81.7019 157.467 81.5649L157.768 82.6362C156.513 82.3231 155.309 81.8357 154.189 81.1882L153.108 83.1133C152.373 82.5312 151.568 82.0447 150.711 81.6653L149.311 86.6873C148.915 86.476 148.549 86.2143 148.221 85.9089C147.852 85.6578 147.257 85.5825 147.022 85.9591C146.932 86.1403 146.894 86.3434 146.913 86.545V88.7044L144.851 87.9679C144.764 87.9268 144.668 87.9055 144.571 87.9055C144.474 87.9055 144.378 87.9268 144.29 87.9679C144.221 88.0246 144.165 88.0947 144.125 88.1739C144.085 88.253 144.061 88.3396 144.055 88.4282C142.555 95.9109 145.732 105.645 150.669 111.462C150.859 110.566 150.765 109.633 150.4 108.792C149.99 107.721 148.724 107.118 148.942 105.988C149 105.417 149.267 104.887 149.693 104.501C150.118 104.115 150.672 103.899 151.247 103.896C152.848 104.08 152.253 104.666 153.393 105.804C153.795 103.586 152.831 99.9453 153.527 97.8109C153.757 97.2493 154.116 96.7493 154.575 96.3508C155.033 95.9524 155.579 95.6665 156.167 95.516C156.756 95.3656 157.372 95.3547 157.966 95.4843C158.56 95.6139 159.115 95.8804 159.587 96.2625C159.537 94.8396 161.213 93.9273 162.638 93.9775C164.063 94.0277 165.681 94.5718 167.19 94.7559C168.472 94.9065 169.788 95.8021 171.02 95.7854C174.189 95.7352 172.915 90.9811 172.236 89.1983Z" fill="#606161"/>
<path opacity="0.24" d="M303.492 287.783C316.236 287.783 326.567 286.528 326.567 284.979C326.567 283.431 316.236 282.176 303.492 282.176C290.747 282.176 280.416 283.431 280.416 284.979C280.416 286.528 290.747 287.783 303.492 287.783Z" fill="#FFB443"/>
<path opacity="0.24" d="M302.092 306.072C322.762 306.072 339.518 304.037 339.518 301.527C339.518 299.017 322.762 296.982 302.092 296.982C281.422 296.982 264.666 299.017 264.666 301.527C264.666 304.037 281.422 306.072 302.092 306.072Z" fill="#FFB443"/>
<path d="M302.787 273.889C335.165 273.889 361.412 270.7 361.412 266.766C361.412 262.833 335.165 259.644 302.787 259.644C270.41 259.644 244.163 262.833 244.163 266.766C244.163 270.7 270.41 273.889 302.787 273.889Z" stroke="white" stroke-width="6.21" stroke-miterlimit="10"/>
<path d="M304.095 46.6624C304.095 46.6624 241.103 83.5988 278.11 198.794H329.459C329.459 198.794 367.581 107.127 304.095 46.6624Z" fill="#FFB443"/>
<path d="M304.095 46.6624C304.095 46.6624 241.103 83.5988 278.11 198.794H329.459C329.459 198.794 367.581 107.127 304.095 46.6624Z" fill="url(#paint6_linear_802_5082)"/>
<path d="M303.022 138.824C312.545 138.824 320.264 131.115 320.264 121.607C320.264 112.098 312.545 104.39 303.022 104.39C293.5 104.39 285.78 112.098 285.78 121.607C285.78 131.115 293.5 138.824 303.022 138.824Z" fill="#981921"/>
<path d="M282.419 239.263L288.756 227.738C289.877 241.885 293.356 255.747 299.049 268.75C309.284 258.581 311.849 243.23 313.827 228.951C316.733 235.96 319.328 243.082 321.614 250.32C326.259 241.12 327.774 230.659 325.931 220.523L329.87 227.219C332.563 217.505 331.401 207.13 326.626 198.25C318.49 198.853 310.337 199.252 302.167 199.447C298.256 199.548 294.327 199.598 290.382 199.598C287.792 199.598 283.022 198.585 280.659 199.899C276.116 202.41 277.775 213.232 278.06 217.677C278.296 221.352 278.78 225.007 279.51 228.616C279.854 230.315 283.064 238.091 282.419 239.263Z" fill="#981921"/>
<path d="M282.419 239.263L288.756 227.738C289.877 241.885 293.356 255.747 299.049 268.75C309.284 258.581 311.849 243.23 313.827 228.951C316.733 235.96 319.328 243.082 321.614 250.32C326.259 241.12 327.774 230.659 325.931 220.523L329.87 227.219C332.563 217.505 331.401 207.13 326.626 198.25C318.49 198.853 310.337 199.252 302.167 199.447C298.256 199.548 294.327 199.598 290.382 199.598C287.792 199.598 283.022 198.585 280.659 199.899C276.116 202.41 277.775 213.232 278.06 217.677C278.296 221.352 278.78 225.007 279.51 228.616C279.854 230.315 283.064 238.091 282.419 239.263Z" fill="url(#paint7_linear_802_5082)" fill-opacity="0.3"/>
<path d="M291.136 224.791L294.992 217.761C295.681 226.388 297.805 234.84 301.279 242.77C307.515 236.568 309.082 227.202 310.289 218.497C312.066 222.777 313.65 227.124 315.042 231.538C317.874 225.924 318.798 219.542 317.674 213.358L320.071 217.459C321.727 211.522 321.018 205.176 318.093 199.749C313.131 200.117 308.16 200.362 303.181 200.485C300.784 200.541 298.387 200.569 295.989 200.569C294.414 200.569 291.505 199.949 290.063 200.753C287.289 202.301 288.295 208.889 288.471 211.634C288.618 213.883 288.915 216.12 289.359 218.33C289.569 219.334 291.522 224.08 291.136 224.791Z" fill="url(#paint8_linear_802_5082)" fill-opacity="0.3"/>
<path d="M291.22 58.4221C291.22 58.4221 304.28 62.8163 314.9 58.4221L304.355 46.972C304.104 46.699 303.796 46.4832 303.454 46.3392C303.112 46.1953 302.742 46.1265 302.371 46.1376C302 46.1488 301.635 46.2395 301.302 46.4037C300.969 46.5679 300.675 46.8017 300.441 47.0892L291.22 58.4221Z" fill="#981921"/>
<path d="M291.22 58.422C291.22 58.422 304.28 62.8162 314.9 58.422L304.229 46.838C303.993 46.5822 303.705 46.3799 303.384 46.2449C303.063 46.11 302.717 46.0454 302.369 46.0558C302.021 46.0661 301.679 46.151 301.366 46.3047C301.054 46.4585 300.778 46.6775 300.558 46.9469L291.22 58.422Z" fill="url(#paint9_linear_802_5082)" fill-opacity="0.3"/>
<path d="M325.36 240.761C334.145 241.598 339.744 242.962 339.744 244.452C339.744 247.097 322.142 249.24 300.348 249.24C278.555 249.24 260.952 247.097 260.952 244.452C260.952 242.268 273.056 240.418 289.577 239.849" stroke="white" stroke-width="4.17" stroke-miterlimit="10"/>
</g>
<defs>
<linearGradient id="paint0_linear_802_5082" x1="242.001" y1="198.56" x2="282.173" y2="198.453" gradientUnits="userSpaceOnUse">
<stop stop-color="#D33B51"/>
<stop offset="1" stop-color="#E52440"/>
</linearGradient>
<linearGradient id="paint1_linear_802_5082" x1="268.873" y1="152.609" x2="250.611" y2="332.543" gradientUnits="userSpaceOnUse">
<stop stop-color="#010101" stop-opacity="0"/>
<stop offset="0.95" stop-color="#010101"/>
</linearGradient>
<linearGradient id="paint2_linear_802_5082" x1="323.902" y1="198.56" x2="364.075" y2="198.453" gradientUnits="userSpaceOnUse">
<stop stop-color="#D33B51"/>
<stop offset="1" stop-color="#E52440"/>
</linearGradient>
<linearGradient id="paint3_linear_802_5082" x1="6625.19" y1="34715" x2="179.492" y2="32967.6" gradientUnits="userSpaceOnUse">
<stop stop-color="#010101" stop-opacity="0"/>
<stop offset="0.95" stop-color="#010101"/>
</linearGradient>
<linearGradient id="paint4_linear_802_5082" x1="5892.26" y1="35788.3" x2="2308.38" y2="35502.7" gradientUnits="userSpaceOnUse">
<stop stop-color="#010101" stop-opacity="0"/>
<stop offset="0.95" stop-color="#010101"/>
</linearGradient>
<linearGradient id="paint5_linear_802_5082" x1="8730.1" y1="14971.5" x2="6783.76" y2="29169.6" gradientUnits="userSpaceOnUse">
<stop stop-color="#010101" stop-opacity="0"/>
<stop offset="0.95" stop-color="#010101"/>
</linearGradient>
<linearGradient id="paint6_linear_802_5082" x1="257.884" y1="125.775" x2="328.57" y2="122.107" gradientUnits="userSpaceOnUse">
<stop stop-color="white" stop-opacity="0"/>
<stop offset="0.95" stop-color="white"/>
</linearGradient>
<linearGradient id="paint7_linear_802_5082" x1="20411.9" y1="23277.8" x2="20897" y2="10903.2" gradientUnits="userSpaceOnUse">
<stop stop-color="#010101" stop-opacity="0"/>
<stop offset="0.95" stop-color="#010101"/>
</linearGradient>
<linearGradient id="paint8_linear_802_5082" x1="12597.7" y1="13168.1" x2="12777.6" y2="8562.18" gradientUnits="userSpaceOnUse">
<stop stop-color="#010101" stop-opacity="0"/>
<stop offset="0.95" stop-color="#010101"/>
</linearGradient>
<linearGradient id="paint9_linear_802_5082" x1="9334.41" y1="1256.55" x2="8428.84" y2="996.118" gradientUnits="userSpaceOnUse">
<stop stop-color="#010101" stop-opacity="0"/>
<stop offset="0.95" stop-color="#010101"/>
</linearGradient>
<clipPath id="clip0_802_5082">
<rect width="451" height="364" fill="white"/>
</clipPath>
</defs>
</svg>
