<svg width="406" height="306" viewBox="0 0 406 306" fill="none" xmlns="http://www.w3.org/2000/svg">
<g clip-path="url(#clip0_516_3678)">
<path opacity="0.18" d="M386.391 263.306C383.312 268.804 379.785 274.127 375.181 278.421C372.504 280.879 369.574 283.045 366.438 284.881C364.087 286.309 361.649 287.591 359.191 288.815C343.94 296.441 327.901 302.367 310.979 304.64C293.338 307.02 275.415 305.971 257.823 303.795C234.149 300.881 210.708 295.907 186.908 294.508C169.743 293.488 152.52 294.323 135.423 295.615C119.88 296.781 103.997 298.297 88.6192 296.111C85.8992 295.722 83.1889 295.217 80.498 294.576C57.0089 288.961 36.6478 272.729 24.2135 252.027C13.3723 233.988 1.18091 199.677 10.6718 179.442C20.7843 157.896 48.1786 143.266 66.1209 129.151C73.3872 123.439 80.5758 117.145 84.714 108.878C89.3186 99.6589 89.6586 88.9926 91.5723 78.8606C97.7701 46.0555 122.609 17.4275 154.22 6.66404C198.672 -8.48053 252.334 1.56404 278.563 43.18C279.858 45.22 281.062 47.2989 282.176 49.4166C289.627 63.24 297.214 78.2875 302.975 92.7618C308.803 107.489 321.432 119.962 333.089 130.23C345.921 141.595 359.871 151.708 371.946 163.87C384.021 176.033 394.347 190.711 397.708 207.517C401.39 226.518 395.872 246.403 386.391 263.306Z" fill="#FFB443"/>
<path opacity="0.18" d="M366.428 284.881C364.077 286.309 361.639 287.591 359.181 288.815C343.93 296.441 327.892 302.367 310.969 304.64C293.328 307.02 275.405 305.971 257.813 303.795C234.139 300.881 210.699 295.907 186.899 294.508C169.733 293.488 152.51 294.323 135.413 295.615C119.87 296.781 103.987 298.297 88.6094 296.111L84.782 246.413L279.447 200.678L366.428 284.881Z" fill="#FFB443"/>
<path d="M82.6644 227.509L202.791 172.885C204.083 172.179 205.502 171.736 206.966 171.582C208.43 171.429 209.91 171.568 211.32 171.991L279.942 181.307C283.828 182.483 282.856 198.482 279.456 200.678L167.878 272.01C165.68 273.418 163.179 274.282 160.581 274.532C157.983 274.782 155.363 274.41 152.938 273.447L84.7821 246.403C81.0421 244.926 79.1381 229.442 82.6644 227.509Z" fill="white"/>
<path d="M82.6644 227.509L202.791 172.885C204.083 172.179 205.502 171.736 206.966 171.582C208.43 171.429 209.91 171.568 211.32 171.991L279.942 181.307C283.828 182.483 282.856 198.482 279.456 200.678L167.878 272.01C165.68 273.418 163.179 274.282 160.581 274.532C157.983 274.782 155.363 274.41 152.938 273.447L84.7821 246.403C81.0421 244.926 79.1381 229.442 82.6644 227.509Z" fill="url(#paint0_linear_516_3678)"/>
<path d="M84.2769 226.129L202.791 161.189C204.083 160.483 205.502 160.04 206.966 159.886C208.43 159.733 209.91 159.872 211.32 160.295L278.261 180.404C279.134 180.666 279.912 181.173 280.505 181.865C281.098 182.556 281.48 183.403 281.605 184.305C281.731 185.207 281.595 186.126 281.215 186.953C280.834 187.781 280.223 188.481 279.456 188.972L167.878 260.314C165.677 261.715 163.176 262.575 160.579 262.823C157.982 263.071 155.364 262.701 152.937 261.742L84.782 234.707C83.9462 234.371 83.2231 233.805 82.697 233.074C82.1709 232.343 81.8634 231.477 81.8105 230.578C81.7575 229.679 81.9613 228.783 82.398 227.996C82.8346 227.208 83.4863 226.561 84.2769 226.129V226.129Z" fill="white"/>
<path opacity="0.52" d="M90.8535 225.129L201.354 164.589C202.557 163.931 203.879 163.518 205.243 163.374C206.607 163.231 207.986 163.36 209.3 163.754L271.763 182.502C272.577 182.747 273.303 183.22 273.856 183.866C274.409 184.512 274.765 185.302 274.881 186.144C274.998 186.986 274.87 187.844 274.514 188.616C274.157 189.387 273.587 190.04 272.87 190.497L168.791 256.991C166.743 258.302 164.413 259.107 161.993 259.34C159.572 259.574 157.131 259.228 154.871 258.332L91.3296 233.075C90.5637 232.756 89.9027 232.228 89.422 231.552C88.9413 230.876 88.6601 230.078 88.6105 229.25C88.5609 228.422 88.7448 227.597 89.1414 226.868C89.538 226.139 90.1312 225.537 90.8535 225.129V225.129Z" fill="#FFB443"/>
<path d="M186.782 176.839L201.519 168.679L262.262 192.071L245.961 201.154L186.782 176.839Z" fill="white"/>
<path d="M166.868 188.719L181.604 180.559L242.348 203.961L226.047 213.044L166.868 188.719Z" fill="white"/>
<path d="M146.953 200.61L161.69 192.45L222.443 215.842L206.143 224.925L146.953 200.61Z" fill="white"/>
<path d="M127.039 212.49L141.785 204.33L202.529 227.732L186.228 236.815L127.039 212.49Z" fill="white"/>
<path d="M107.135 224.381L121.871 216.221L182.615 239.613L166.314 248.695L107.135 224.381Z" fill="white"/>
<path d="M124.902 101.922C124.902 101.922 118.423 102.952 115.868 105.691C113.313 108.431 99.4602 130.482 99.4602 130.482C99.4602 130.482 94.2631 135.961 99.4602 137.739C104.657 139.517 106.163 138.963 106.435 137.739C106.707 136.515 107.251 134.591 107.251 134.591C107.251 134.591 107.805 134.319 108.485 132.95C108.93 132.154 109.164 131.258 109.165 130.346C109.042 129.737 108.86 129.142 108.621 128.569L120.278 114.075L124.164 111.063L124.902 101.922Z" fill="#FFBBAB"/>
<path d="M167.936 91.46C168.001 91.8873 167.961 92.3241 167.82 92.7325C167.543 93.1487 167.182 93.5027 166.761 93.772C165.821 94.7368 164.981 95.7946 164.255 96.9291C163.4 97.988 162.098 98.872 160.787 98.5708C160.418 98.4363 160.037 98.3387 159.65 98.2794C159.263 98.3138 158.893 98.4495 158.576 98.673C158.258 98.8964 158.006 99.1996 157.843 99.552C157.528 100.269 157.09 100.926 156.551 101.495C155.405 102.466 153.724 102.01 152.325 101.553C151.518 101.38 150.796 100.93 150.285 100.281C150.06 99.8382 149.944 99.3488 149.945 98.8525C149.945 97.6674 150.013 96.4822 150.013 95.3068C150.013 91.5085 148.848 87.6908 149.576 83.9605C149.977 81.9061 150.972 80.0146 152.438 78.5207C153.904 77.0269 155.777 75.9966 157.824 75.5577C159.632 75.2909 161.478 75.5579 163.137 76.3258C164.795 77.0937 166.193 78.3292 167.159 79.8805C169.17 83.0085 167.761 87.856 167.936 91.46Z" fill="#FFBBAB"/>
<path d="M166.741 116.824C166.741 116.824 173.308 123.935 175.63 124.207C177.952 124.479 196.03 104.652 196.03 104.652C196.653 104.577 197.243 104.328 197.732 103.935C198.221 103.542 198.591 103.02 198.799 102.427C199.202 101.265 199.341 100.027 199.207 98.8039C199.198 98.4477 199.139 98.0945 199.032 97.7548C198.775 97.2015 198.396 96.7133 197.924 96.3268C197.426 95.8103 196.845 95.3802 196.205 95.0542C195.889 94.8867 195.537 94.7991 195.18 94.7991C194.823 94.7991 194.471 94.8867 194.155 95.0542C193.741 95.3539 193.408 95.7509 193.184 96.2102C192.484 97.4051 191.775 98.8428 192.348 100.096C192.479 100.302 192.562 100.534 192.591 100.776C192.555 101.071 192.409 101.341 192.183 101.534C187.555 106.585 182.102 110.812 176.057 114.036C175.879 114.148 175.675 114.214 175.465 114.23C175.192 114.208 174.933 114.099 174.727 113.919C173.425 113.016 172.152 112.083 170.889 111.131C169.143 112.736 167.734 114.67 166.741 116.824V116.824Z" fill="#FFBBAB"/>
<path d="M146.39 99.212L145.72 100.455C144.068 103.596 142.41 106.731 140.746 109.859C139.872 111.501 138.696 115.27 136.996 116.163C136.203 116.514 135.319 116.606 134.47 116.426C131.945 116.086 128.817 114.483 126.971 114.007C126.324 113.79 125.637 113.72 124.96 113.803C124 114.126 123.169 114.749 122.59 115.581C119.591 119.052 116.425 122.368 113.089 125.528C112.427 126.226 111.652 126.807 110.797 127.247C108.922 128.083 106.911 127.51 104.968 126.538C104.201 126.159 103.455 125.738 102.734 125.275C102.29 125.05 101.929 124.69 101.704 124.246C101.384 123.41 102.064 122.555 102.676 121.895C105.077 119.289 107.146 116.394 108.834 113.278C110.398 110.364 111.749 107.226 114.236 105.128C119.141 101.038 127.398 101.611 133.509 100.844C134.568 100.708 140.212 100.572 143.68 100.067C145.078 99.8629 146.118 99.6006 146.37 99.2606L146.39 99.212Z" fill="#FFB443"/>
<path d="M157.134 149.513C157.134 149.513 175.232 150.999 177.417 155.788C179.603 160.577 181.799 190.109 181.799 190.109L171.531 193.567L169.209 167.445C169.209 167.445 139.843 166.367 136.268 162.481C134.052 160.001 132.519 156.989 131.819 153.738L157.134 149.513Z" fill="#282328"/>
<path d="M155.978 152.99C155.978 152.99 153.617 179.442 150.606 181.638C147.595 183.833 129.73 209.625 129.73 209.625L120.22 204.34L135.024 176.441L136.899 154.894L155.978 152.99Z" fill="#473F47"/>
<path d="M163.322 109.626C163.322 109.626 163.322 109.713 163.322 109.762C162.778 113.424 162.224 117.096 161.68 120.749L161.564 121.526C160.683 127.413 159.806 133.296 158.931 139.177C158.319 143.237 157.717 147.298 156.746 151.271C156.639 151.901 156.379 152.495 155.988 153C155.483 153.473 154.852 153.79 154.171 153.913C149.78 155.089 145.166 154.953 140.571 154.797C137.625 154.824 134.687 154.475 131.828 153.758C130.731 153.427 129.526 152.786 129.283 151.718C129.22 151.341 129.22 150.957 129.283 150.581C129.808 146.462 131.226 142.47 131.527 138.322C131.644 136.495 131.527 134.65 131.702 132.823C131.848 131.308 132.168 129.812 132.431 128.316C132.576 127.539 132.703 126.762 132.78 125.975C132.946 124.333 132.907 122.682 133.169 121.05C133.456 119.488 133.889 117.956 134.461 116.474C134.461 116.406 134.461 116.348 134.529 116.28C135.5 113.579 136.472 110.889 137.511 108.246C138.257 106.247 139.287 104.365 140.571 102.661C141.038 102.082 141.566 101.554 142.145 101.087C142.619 100.712 143.13 100.386 143.67 100.115C144.354 99.7514 145.092 99.4989 145.856 99.3674C146.023 99.3384 146.192 99.3189 146.361 99.3091C147.468 99.2331 148.58 99.2886 149.674 99.4742C152.724 99.8725 157.134 99.9308 160.194 101.631C161.436 102.268 162.439 103.29 163.05 104.545C163.628 106.177 163.722 107.941 163.322 109.626Z" fill="#FFB443"/>
<path d="M195.175 106.935C195.243 108.013 194.398 108.878 193.601 109.655L178.399 124.013C178.175 124.226 177.942 124.44 177.699 124.644C177.284 125.017 176.807 125.317 176.291 125.528C175.887 125.668 175.464 125.747 175.037 125.761C174.351 125.76 173.666 125.682 172.997 125.528C168.925 124.725 165.065 123.084 161.661 120.71C156.804 117.164 154.064 111.899 156.881 104.905C157.114 104.294 157.4 103.706 157.736 103.146C157.951 102.671 158.297 102.267 158.735 101.982C159.172 101.698 159.682 101.546 160.204 101.543C161.224 101.688 162.179 102.126 162.953 102.806C165.391 104.652 167.723 106.614 170.044 108.635C170.724 109.208 171.463 109.849 172.23 110.451C173.32 111.353 174.533 112.092 175.834 112.647C176.122 112.781 176.442 112.832 176.757 112.793C177.019 112.711 177.26 112.576 177.466 112.394C181.773 109.085 186.089 105.798 190.415 102.534C190.591 102.357 190.805 102.221 191.04 102.137C191.275 102.053 191.527 102.023 191.775 102.049C192.101 102.186 192.373 102.424 192.552 102.729L194.262 105.031C194.473 105.302 194.664 105.588 194.835 105.886C195.027 106.205 195.144 106.564 195.175 106.935Z" fill="#FFB443"/>
<path d="M148.323 117.397C147.479 117.806 146.766 118.442 146.264 119.233C144.865 121.263 143.855 123.741 141.912 125.334C139.328 127.442 135.656 127.422 132.421 128.316C132.567 127.539 132.693 126.762 132.771 125.975C132.936 124.333 132.897 122.682 133.159 121.05C133.446 119.488 133.879 117.956 134.451 116.474C131.925 116.134 128.797 114.531 126.952 114.055C126.305 113.839 125.618 113.769 124.941 113.851C123.981 114.174 123.149 114.798 122.571 115.629C119.572 119.1 116.405 122.416 113.07 125.577C112.408 126.275 111.633 126.856 110.777 127.296C108.903 128.131 106.892 127.558 104.949 126.587C104.939 126.529 104.939 126.47 104.949 126.412C104.96 126.083 105.095 125.771 105.328 125.538C110.146 119.506 115.558 113.973 121.483 109.023C126.787 104.477 133.645 102.865 140.357 101.495L142.164 101.135C143.349 100.912 144.535 100.708 145.729 100.553C148.16 100.179 150.633 100.179 153.064 100.553C154.86 100.937 156.499 101.854 157.765 103.185C159.786 105.128 161.457 107.712 163.351 109.626L163.866 110.131C167.999 113.795 172.385 117.165 176.99 120.214C177.304 120.486 177.702 120.64 178.117 120.651C178.46 120.586 178.776 120.425 179.03 120.185C183.633 116.513 188 112.554 192.105 108.334C192.85 107.526 193.652 106.773 194.505 106.08C194.6 106.003 194.705 105.938 194.816 105.886C195.008 106.205 195.124 106.564 195.156 106.935C195.224 108.013 194.379 108.878 193.582 109.655L178.399 124.013C178.175 124.226 177.942 124.44 177.699 124.644L177.544 124.722C176.737 125.134 175.899 125.482 175.037 125.761C174.351 125.76 173.667 125.682 172.997 125.528C168.925 124.725 165.065 123.084 161.661 120.71L161.544 121.487C161.367 121.366 161.198 121.233 161.039 121.089C160.417 120.535 159.941 119.845 159.339 119.272C157.396 117.426 154.482 117.086 151.84 116.911C146.497 116.571 147.08 121.633 146.361 125.887C145.545 130.751 144.965 135.647 144.622 140.575C144.369 144.111 144.243 147.725 143.009 151.047C142.707 152.118 142.041 153.049 141.125 153.68C140.451 154.012 139.71 154.188 138.959 154.195C136.516 154.348 134.063 154.158 131.673 153.631C131.212 153.591 130.766 153.441 130.375 153.195C129.983 152.948 129.655 152.612 129.419 152.213C129.256 151.668 129.256 151.087 129.419 150.542L133.635 127.568" fill="url(#paint1_linear_516_3678)" fill-opacity="0.2"/>
<path d="M119.472 207.361C118.578 208.177 117.461 208.877 117.062 210.013C116.87 210.643 116.836 211.31 116.965 211.956C117.354 214.317 118.84 216.337 120.268 218.261L121.92 220.466L124.669 224.147C125.296 225.1 126.093 225.93 127.02 226.595C128.52 227.356 130.199 227.692 131.877 227.567C132.601 227.626 133.33 227.53 134.014 227.285C134.351 227.157 134.64 226.927 134.842 226.628C135.044 226.329 135.148 225.975 135.141 225.614C135.044 224.643 133.985 224.157 133.198 223.671C130.721 222.059 129.817 218.931 129.098 216.065C128.603 214.122 128.127 211.995 128.632 210.023C128.807 209.353 129.098 208.711 129.244 208.031C129.328 207.703 129.342 207.361 129.287 207.026C129.232 206.692 129.108 206.373 128.924 206.089C128.581 205.702 128.147 205.408 127.661 205.234C126.189 204.595 124.652 204.123 123.076 203.825C121.346 203.349 120.589 206.331 119.472 207.361Z" fill="#FFBBAB"/>
<path d="M174.455 196.219C174.406 197.569 174.756 199.133 175.931 199.784C176.509 200.084 177.155 200.228 177.806 200.202C179.304 200.231 180.791 199.94 182.168 199.347C184.587 198.298 186.559 196.374 188.968 195.374C189.664 195.159 190.321 194.83 190.911 194.402C191.203 194.184 191.415 193.875 191.514 193.524C191.612 193.172 191.591 192.798 191.455 192.459C191.212 192.042 190.736 191.808 190.425 191.488C190.114 191.167 189.978 190.516 189.56 190.225C188.841 189.691 187.86 190.225 187.093 190.691C185.645 191.558 184.035 192.117 182.362 192.333C182.128 192.382 181.887 192.382 181.653 192.333C180.759 192.051 180.788 190.672 180.021 190.138C178.913 189.39 176.028 190.973 175.261 191.896C174.396 192.916 174.484 194.868 174.455 196.219Z" fill="#FFBBAB"/>
<path d="M170.637 83.6206C169.17 85.6703 166.625 86.8069 165.401 89.0023C164.177 91.1977 164.488 94.5491 162.564 96.4046C161.775 97.0963 160.81 97.5568 159.776 97.7354C158.601 98.0074 157.328 98.1046 156.172 98.4057C155.413 98.5477 154.726 98.9495 154.23 99.5423C153.637 100.378 154.23 101.553 154.288 102.457C154.475 103.87 154.402 105.305 154.074 106.692C153.783 107.595 153.305 108.428 152.673 109.135C152.041 109.843 151.267 110.41 150.402 110.801C148.667 111.585 146.763 111.919 144.865 111.773C144.446 111.708 144.018 111.765 143.631 111.938C143.403 112.134 143.22 112.377 143.095 112.65C142.969 112.923 142.904 113.22 142.903 113.521C142.475 116.581 141.698 119.845 139.347 121.846C138.315 122.676 137.12 123.282 135.84 123.624C133.576 124.311 131.177 124.427 128.857 123.962C126.537 123.498 124.367 122.467 122.542 120.962C121.543 120.094 120.688 119.075 120.006 117.941C119.116 116.493 118.537 114.875 118.307 113.191C118.076 111.507 118.198 109.793 118.666 108.159C119.637 105.128 121.823 102.194 121.084 99.1051C120.812 97.988 120.171 96.9971 119.831 95.8994C119.444 94.2432 119.424 92.5224 119.773 90.8577C119.894 89.3514 120.341 87.8895 121.084 86.5737C121.931 85.3629 123.089 84.403 124.436 83.7954C129.983 81.0463 136.744 81.4737 142.164 78.4623C146.905 75.82 150.305 70.6909 155.609 69.5154C157.159 69.1696 158.76 69.1136 160.33 69.3503C161.875 69.6126 162.739 70.6811 164.158 71.1377C165.015 71.2738 165.883 71.342 166.751 71.3417C168.102 71.6624 169.272 72.5039 170.006 73.6829C170.715 74.6652 171.242 75.7676 171.56 76.9371C171.912 78.0498 172.012 79.2269 171.852 80.3829C171.692 81.539 171.277 82.645 170.637 83.6206V83.6206Z" fill="#981921"/>
<path d="M170.637 83.6206C169.17 85.6703 166.625 86.8069 165.401 89.0023C164.177 91.1978 164.488 94.5492 162.564 96.4046C161.775 97.0963 160.81 97.5568 159.776 97.7355C158.601 98.0075 157.328 98.1046 156.172 98.4058C155.413 98.5478 154.726 98.9496 154.23 99.5423C153.637 100.378 154.23 101.553 154.288 102.457C154.475 103.87 154.402 105.305 154.074 106.692C153.783 107.595 153.305 108.428 152.673 109.135C152.041 109.843 151.267 110.41 150.402 110.801C148.667 111.585 146.763 111.919 144.865 111.773C144.446 111.708 144.018 111.765 143.631 111.938C143.403 112.134 143.22 112.377 143.095 112.65C142.969 112.923 142.904 113.22 142.903 113.521C142.475 116.581 141.698 119.845 139.347 121.846C138.315 122.676 137.12 123.282 135.84 123.624C133.576 124.311 131.177 124.427 128.857 123.962C126.537 123.498 124.367 122.467 122.542 120.962C121.543 120.094 120.688 119.075 120.006 117.941C121.784 118.751 123.679 119.273 125.621 119.486C127.791 119.576 129.958 119.246 132.003 118.514C134.327 117.871 136.467 116.689 138.25 115.066C139.132 114.247 139.804 113.226 140.206 112.091C140.609 110.956 140.731 109.74 140.562 108.547C142.628 108.352 144.553 107.415 145.982 105.909C147.411 104.404 148.246 102.432 148.333 100.358C146.735 100.702 145.109 100.9 143.476 100.951C148.051 99.4469 152.11 96.6866 155.191 92.9852C154.775 93.5742 154.466 94.2318 154.278 94.928C155.184 95.0847 156.115 95.0276 156.995 94.7611C157.876 94.4946 158.682 94.0262 159.349 93.3932C160.007 92.7529 160.53 91.9871 160.887 91.1412C161.244 90.2952 161.428 89.3863 161.428 88.468C161.378 88.0071 161.462 87.5417 161.671 87.1275C161.903 86.8568 162.201 86.6495 162.535 86.5252C165.35 85.1271 167.736 82.9962 169.442 80.3566C170.058 79.1625 170.773 78.022 171.579 76.9469C171.927 78.0596 172.023 79.2356 171.86 80.3899C171.697 81.5442 171.279 82.6477 170.637 83.6206Z" fill="url(#paint2_linear_516_3678)" fill-opacity="0.5"/>
<path d="M230.516 63.8811L183.071 84.7085V45.3462L230.516 24.5188V63.8811Z" stroke="white" stroke-width="0.971429" stroke-miterlimit="10"/>
<path d="M225.018 53.0885C224.983 54.2343 224.608 55.3437 223.939 56.2748C223.299 57.2399 222.391 57.9964 221.326 58.4508L195.991 68.5537C193.951 69.3697 192.3 68.2817 192.3 66.1251C192.334 64.9794 192.71 63.87 193.378 62.9388C194.02 61.9736 194.928 61.2145 195.991 60.7531L196.856 60.4131C196.674 59.7816 196.582 59.1275 196.584 58.4702C196.66 56.2116 197.4 54.0254 198.711 52.1851C199.971 50.2764 201.756 48.772 203.85 47.8525L206.007 46.9977C208.814 45.8805 211.252 46.5897 212.467 48.5617C213.031 48.0172 213.689 47.5794 214.41 47.2697L214.963 47.0462C217.382 46.0748 219.344 47.3668 219.344 49.9605V50.1937C219.341 50.6454 219.286 51.0953 219.179 51.5342L221.278 50.6988C223.366 49.844 225.018 50.932 225.018 53.0885Z" fill="white"/>
<path opacity="0.82" d="M259.066 142.227C259.066 143.903 258.494 145.528 257.445 146.835C256.396 148.142 254.932 149.052 253.296 149.414C251.66 149.777 249.949 149.571 248.446 148.83C246.943 148.089 245.738 146.857 245.029 145.338C244.321 143.819 244.152 142.104 244.55 140.477C244.948 138.849 245.889 137.405 247.218 136.385C248.548 135.364 250.185 134.828 251.861 134.864C253.536 134.9 255.149 135.506 256.433 136.583C257.258 137.274 257.921 138.138 258.376 139.113C258.831 140.088 259.066 141.151 259.066 142.227Z" fill="#FFB443"/>
<path opacity="0.55" d="M256.851 139.031C256.854 140.432 256.456 141.805 255.705 142.988C254.953 144.171 253.879 145.115 252.609 145.708C251.34 146.301 249.927 146.519 248.537 146.336C247.148 146.153 245.84 145.576 244.767 144.675C244.236 143.155 244.218 141.503 244.715 139.972C245.212 138.441 246.197 137.116 247.519 136.198C248.842 135.28 250.428 134.82 252.036 134.89C253.645 134.96 255.186 135.554 256.424 136.583C256.706 137.368 256.85 138.196 256.851 139.031Z" fill="white"/>
<path opacity="0.82" d="M250.595 118.33C250.595 119.058 250.379 119.77 249.974 120.376C249.569 120.982 248.993 121.454 248.32 121.732C247.647 122.01 246.906 122.083 246.192 121.94C245.477 121.797 244.821 121.445 244.307 120.93C243.792 120.414 243.442 119.757 243.301 119.042C243.16 118.327 243.235 117.587 243.515 116.914C243.795 116.241 244.268 115.667 244.875 115.264C245.482 114.86 246.195 114.646 246.923 114.648C247.898 114.651 248.832 115.04 249.52 115.73C250.209 116.42 250.595 117.355 250.595 118.33V118.33Z" fill="#FFB443"/>
<path opacity="0.55" d="M249.488 116.737C249.486 117.436 249.285 118.121 248.909 118.71C248.532 119.3 247.996 119.77 247.362 120.065C246.728 120.361 246.023 120.47 245.329 120.379C244.636 120.288 243.982 120.002 243.446 119.554C243.262 119.001 243.211 118.412 243.298 117.836C243.385 117.26 243.607 116.713 243.947 116.239C244.286 115.765 244.732 115.378 245.25 115.11C245.767 114.842 246.341 114.7 246.923 114.697C247.788 114.695 248.625 115.001 249.284 115.561C249.417 115.939 249.486 116.336 249.488 116.737V116.737Z" fill="white"/>
<path opacity="0.82" d="M283.973 102.486C283.973 103.323 283.687 104.136 283.163 104.789C282.638 105.442 281.907 105.897 281.089 106.078C280.272 106.26 279.416 106.157 278.665 105.787C277.914 105.417 277.311 104.802 276.956 104.043C276.602 103.284 276.516 102.427 276.714 101.613C276.912 100.799 277.382 100.078 278.046 99.5666C278.71 99.0558 279.528 98.7865 280.365 98.8032C281.203 98.82 282.009 99.1218 282.652 99.6588C283.066 100.005 283.399 100.437 283.627 100.925C283.855 101.414 283.974 101.947 283.973 102.486V102.486Z" fill="#FFB443"/>
<path opacity="0.55" d="M282.856 100.883C282.857 101.583 282.657 102.269 282.281 102.86C281.906 103.451 281.369 103.922 280.735 104.219C280.101 104.516 279.395 104.626 278.7 104.535C278.006 104.445 277.352 104.159 276.814 103.71C276.547 102.95 276.536 102.123 276.784 101.356C277.032 100.589 277.525 99.9253 278.186 99.4655C278.848 99.0056 279.642 98.7755 280.447 98.8105C281.252 98.8454 282.023 99.1435 282.643 99.6589C282.783 100.052 282.855 100.466 282.856 100.883V100.883Z" fill="white"/>
<g opacity="0.82">
<path opacity="0.82" d="M258.483 140.002L257.716 139.721L265.196 118.718L249.828 117.941L249.866 117.135L266.332 117.961L258.483 140.002Z" fill="#FFB443"/>
</g>
<path d="M276.445 118.738H265.759V117.931H275.823L279.35 104.652L280.136 104.866L276.445 118.738Z" fill="#FFB443"/>
</g>
<defs>
<linearGradient id="paint0_linear_516_3678" x1="168.442" y1="163.482" x2="219.859" y2="352.386" gradientUnits="userSpaceOnUse">
<stop offset="0.01"/>
<stop offset="0.13" stop-opacity="0.69"/>
<stop offset="0.25" stop-opacity="0.32"/>
<stop offset="1" stop-opacity="0"/>
</linearGradient>
<linearGradient id="paint1_linear_516_3678" x1="13643.1" y1="866.705" x2="14282.8" y2="16194.4" gradientUnits="userSpaceOnUse">
<stop offset="0.01"/>
<stop offset="0.13" stop-opacity="0.69"/>
<stop offset="0.25" stop-opacity="0.32"/>
<stop offset="1" stop-opacity="0"/>
</linearGradient>
<linearGradient id="paint2_linear_516_3678" x1="7425.13" y1="4368" x2="9199.14" y2="6451.57" gradientUnits="userSpaceOnUse">
<stop offset="0.01"/>
<stop offset="0.13" stop-opacity="0.69"/>
<stop offset="0.25" stop-opacity="0.32"/>
<stop offset="1" stop-opacity="0"/>
</linearGradient>
<clipPath id="clip0_516_3678">
<rect width="406" height="306" fill="white"/>
</clipPath>
</defs>
</svg>
