<svg width="522" height="393" viewBox="0 0 522 393" fill="none" xmlns="http://www.w3.org/2000/svg">
<path d="M247.078 187.652C254.937 187.652 261.308 181.288 261.308 173.438C261.308 165.587 254.937 159.223 247.078 159.223C239.219 159.223 232.848 165.587 232.848 173.438C232.848 181.288 239.219 187.652 247.078 187.652Z" fill="#981921"/>
<path d="M295.265 280.985C295.265 280.985 294.464 298.827 293.313 302.283C292.162 305.739 293.532 307.325 289.92 308.231C286.308 309.136 287.578 289.688 287.578 289.688L288.795 282.234L295.265 280.985Z" fill="url(#paint0_linear_1532_21533)"/>
<path d="M257.497 286.173L265.852 335.027H272.996L274.783 306.883L276.43 342.216H284.269C284.269 342.216 291.01 303.512 289.766 296.389C289.425 294.04 288.685 291.767 287.577 289.668L257.497 286.173Z" fill="#25233A"/>
<path d="M262.424 210.007C262.133 206.234 262.338 202.223 264.369 199.031C265.196 197.747 266.283 196.651 267.561 195.814C268.838 194.976 270.277 194.415 271.785 194.167C276.131 193.507 280.385 195.489 284.354 197.405C290.175 200.26 296.037 203.141 301.157 207.1C306.277 211.058 310.676 216.245 312.615 222.424C313.486 225.432 313.951 228.544 313.997 231.675C314.155 234.597 313.953 237.526 313.395 240.398C312.388 244.797 310.206 248.841 307.08 252.099C303.955 255.358 300.003 257.708 295.646 258.901C285.723 261.478 274.418 257.837 265.441 262.76C264.852 263.168 264.169 263.419 263.456 263.487C262.972 263.44 262.512 263.25 262.137 262.94C261.762 262.63 261.489 262.216 261.352 261.749C261.098 260.81 261.098 259.82 261.352 258.881C261.98 255.964 263.45 253.294 265.58 251.202C268.318 248.526 271.97 246.98 274.96 244.594C275.469 244.256 275.858 243.765 276.072 243.193C276.429 241.872 275.053 240.781 273.789 240.292C272.526 239.803 271.017 239.367 270.515 238.118C270.104 237.107 270.515 235.984 270.799 234.926C271.944 230.301 269.476 227.195 266.929 223.765C263.972 219.8 262.795 214.844 262.424 210.007Z" fill="#981921"/>
<path d="M284.455 211.375C284.455 211.375 288.914 218.822 294.041 223.752C299.168 228.682 307.9 237.543 302.336 244.27C298.994 248.309 294.738 251.496 289.919 253.568L278.627 242.235V223.732L284.455 211.375Z" fill="#6F1319"/>
<path d="M245.319 204.76L256.089 203.961C256.089 203.961 253.066 224.842 267.765 231.622C282.464 238.402 291.508 239.816 292.506 245.05C293.505 250.284 297.395 280.49 297.395 280.49L289.993 282.214L289.768 258.855L290.052 288.32C290.052 288.32 274.017 297.307 269.399 295.536C264.781 293.765 255.09 292.292 255.322 277.278C255.553 262.264 262.598 251.638 254.951 240.213C247.304 228.787 245.121 210.172 245.319 204.76Z" fill="#FFB443"/>
<path d="M245.319 204.76L256.089 203.961C256.089 203.961 253.066 224.842 267.765 231.622C282.464 238.402 291.508 239.816 292.506 245.05C293.505 250.284 297.395 280.49 297.395 280.49L289.993 282.214L289.768 258.855L290.052 288.32C290.052 288.32 274.017 297.307 269.399 295.536C264.781 293.765 255.09 292.292 255.322 277.278C255.553 262.264 262.598 251.638 254.951 240.213C247.304 228.787 245.121 210.172 245.319 204.76Z" fill="url(#paint1_linear_1532_21533)"/>
<path d="M270.96 233.083C270.96 233.083 271.37 239.294 275.366 239.142C279.361 238.99 279.368 236.995 279.368 236.995L281.908 226.171L270.96 226.831C270.96 226.831 272.203 231.418 270.96 233.083Z" fill="url(#paint2_linear_1532_21533)"/>
<path d="M271.455 229.673C271.455 229.673 270.953 232.871 273.01 233.777C275.067 234.682 278.382 233.545 279.182 232.633L279.367 236.968L281.22 229.072L271.455 229.673Z" fill="#DDAEC4"/>
<path d="M267.533 211.164C267.533 211.164 265.224 227.605 273.519 230.929C281.815 234.252 284.355 225.331 285.427 221.049C286.499 216.767 283.396 201.423 276.827 203.809C272.981 205.132 269.702 207.726 267.533 211.164V211.164Z" fill="url(#paint3_linear_1532_21533)"/>
<path d="M248.038 204.562C248.038 204.562 248.812 198.813 248.832 198.707C248.9 198.174 248.822 197.631 248.605 197.139C248.388 196.646 248.041 196.222 247.601 195.912C246.808 195.317 245.934 193.929 245.934 190.724C245.934 187.52 249.335 184.05 250.737 185.438C252.14 186.826 252.146 187.923 253.449 188.127C254.753 188.332 253.747 191.636 253.449 192.753C253.152 193.87 255.05 204.06 255.05 204.06L248.038 204.562Z" fill="url(#paint4_linear_1532_21533)"/>
<path d="M289.768 258.881L294.068 281.263L289.993 282.214L289.768 258.881Z" fill="url(#paint5_linear_1532_21533)"/>
<path d="M276.429 342.216C276.429 342.216 274.57 360.521 277.62 375.396H279.743L284.268 342.216H276.429Z" fill="#25233A"/>
<path d="M265.852 335.027L270.113 372.356L271.674 371.695C271.674 371.695 274.598 345.263 274.36 342.712C274.121 340.161 272.997 335.013 272.997 335.013L265.852 335.027Z" fill="#25233A"/>
<path d="M271.675 371.708C271.675 371.708 272.621 373.308 272.515 374.444C272.436 375.224 267.038 381.911 263.181 385.519C259.013 389.418 254.971 387.978 254.971 387.978C253.463 387.826 252.682 384.363 253.834 383.352C256.342 381.205 259.161 379.45 262.195 378.145C269.108 375.224 270.134 372.33 270.134 372.33L271.675 371.708Z" fill="#8D6965"/>
<path d="M277.623 375.396C277.207 376.694 277.057 378.063 277.179 379.42C277.444 381.356 285.779 390.833 285.779 390.833C285.779 390.833 292.606 395.26 295.001 391.454C297.396 387.647 287.936 382.599 286.057 381.541C284.178 380.484 279.746 375.402 279.746 375.402L277.623 375.396Z" fill="#8D6965"/>
<path d="M271.675 369.14C271.675 369.14 272.621 370.739 272.515 371.876C272.436 372.655 267.038 379.343 263.181 382.951C259.013 386.85 254.971 385.409 254.971 385.409C253.463 385.257 252.682 381.794 253.834 380.783C256.342 378.637 259.161 376.881 262.195 375.576C269.108 372.655 270.134 369.761 270.134 369.761L271.675 369.14Z" fill="#B2857F"/>
<path d="M277.623 372.827C277.207 374.126 277.057 375.494 277.179 376.852C277.444 378.788 285.779 388.264 285.779 388.264C285.779 388.264 292.606 392.691 295.001 388.885C297.396 385.079 287.936 380.03 286.057 378.973C284.178 377.916 279.746 372.834 279.746 372.834L277.623 372.827Z" fill="#B2857F"/>
<path d="M229.864 151.465C230.77 154.365 232.566 156.907 234.997 158.732C237.428 160.557 240.372 161.573 243.412 161.635C247.216 161.635 251.496 160.188 255.465 155.397C266.05 142.63 246.567 120.13 272.811 92.9238C299.054 65.718 301.786 17.4917 254.651 14.2868C218.657 11.855 203.931 34.2169 199.79 48.213V62.4007L225.074 72.313C225.074 72.313 234.746 42.9992 250.669 46.7328C266.592 50.4664 251.595 76.7536 241.546 86.7452C219.405 108.77 225.808 138.877 229.864 151.465Z" fill="#981921"/>
<path d="M229.864 133.498C230.776 136.394 232.573 138.932 235.003 140.756C237.433 142.58 240.373 143.598 243.412 143.668C247.216 143.668 251.496 141.943 255.465 137.159C266.05 124.385 245.218 111.691 271.468 84.4853C297.717 57.2795 301.806 3.33054 254.671 0.145412C207.537 -3.03972 199.81 48.2329 199.81 48.2329L225.094 58.1452C225.094 58.1452 234.746 28.8644 250.669 32.5848C266.592 36.3052 251.595 62.5991 241.546 72.5972C219.405 94.6023 225.808 120.909 229.864 133.498Z" fill="#E52440"/>
<path d="M247.078 178.354C254.937 178.354 261.308 171.99 261.308 164.14C261.308 156.29 254.937 149.926 247.078 149.926C239.219 149.926 232.848 156.29 232.848 164.14C232.848 171.99 239.219 178.354 247.078 178.354Z" fill="#E52440"/>
<path d="M190.339 170.782C191.753 167.76 190.447 164.165 187.422 162.753C184.396 161.34 180.798 162.645 179.384 165.667C177.97 168.689 179.276 172.284 182.301 173.696C185.327 175.108 188.925 173.804 190.339 170.782Z" fill="#C28A36"/>
<path d="M174.805 161.953C175.59 162.978 176.677 163.733 177.914 164.11C179.15 164.487 180.474 164.467 181.698 164.054C183.22 163.512 184.715 162.303 185.608 159.812C187.976 153.203 176.929 147.012 183.471 132.335C190.014 117.658 184.093 97.9725 164.803 103.55C150.064 107.792 147.424 118.861 147.801 125.059L149.859 130.716L161.396 131.007C161.396 131.007 160.999 117.903 167.905 117.083C174.812 116.264 172.635 128.945 170.068 134.397C164.419 146.41 171.352 157.512 174.805 161.953Z" fill="#C28A36"/>
<path d="M172.198 154.77C172.98 155.797 174.066 156.553 175.302 156.93C176.538 157.307 177.861 157.287 179.085 156.871C180.613 156.329 182.068 155.014 182.955 152.523C185.329 145.915 175.168 143.833 181.704 129.156C188.24 114.48 182.042 92.3357 162.745 97.8932C143.448 103.451 147.834 125.059 147.834 125.059L159.371 125.343C159.371 125.343 158.981 112.246 165.88 111.427C172.78 110.607 170.61 123.288 168.044 128.733C162.387 140.747 168.738 150.329 172.198 154.77Z" fill="#FFB443"/>
<path d="M186.174 169.936C189.173 168.47 190.415 164.852 188.947 161.856C187.479 158.86 183.857 157.62 180.858 159.087C177.858 160.553 176.617 164.171 178.085 167.167C179.553 170.163 183.175 171.403 186.174 169.936Z" fill="#FFB443"/>
<path d="M172.198 154.77C172.98 155.797 174.066 156.553 175.302 156.93C176.538 157.307 177.861 157.287 179.085 156.871C180.613 156.329 182.068 155.014 182.955 152.523C185.329 145.915 175.168 143.833 181.704 129.156C188.24 114.48 182.042 92.3357 162.745 97.8932C143.448 103.451 147.834 125.059 147.834 125.059L159.371 125.343C159.371 125.343 158.981 112.246 165.88 111.427C172.78 110.607 170.61 123.288 168.044 128.733C162.387 140.747 168.738 150.329 172.198 154.77Z" fill="#FFB443"/>
<path d="M186.174 169.936C189.173 168.47 190.415 164.852 188.947 161.856C187.479 158.86 183.857 157.62 180.858 159.087C177.858 160.553 176.617 164.171 178.085 167.167C179.553 170.163 183.175 171.403 186.174 169.936Z" fill="#FFB443"/>
<path d="M158.221 226.164C158.473 227.331 158.373 228.546 157.934 229.657C157.495 230.767 156.737 231.722 155.754 232.402C154.772 233.082 153.61 233.456 152.415 233.477C151.221 233.498 150.046 233.164 149.041 232.519C148.036 231.873 147.244 230.945 146.767 229.85C146.29 228.756 146.148 227.545 146.359 226.37C146.571 225.195 147.126 224.109 147.955 223.249C148.784 222.389 149.849 221.794 151.017 221.538C151.794 221.367 152.597 221.351 153.381 221.492C154.164 221.632 154.912 221.925 155.581 222.355C156.251 222.785 156.829 223.343 157.282 223.996C157.734 224.65 158.054 225.387 158.221 226.164V226.164Z" fill="#C28A36"/>
<path d="M143.165 219.906C143.806 221.028 144.784 221.92 145.961 222.456C147.137 222.992 148.453 223.145 149.721 222.893C151.302 222.556 152.949 221.571 154.153 219.206C157.375 212.941 147.234 205.375 155.642 191.683C164.05 177.991 160.775 157.723 140.916 160.704C125.747 162.977 121.679 173.603 121.242 179.795L122.565 185.676L133.943 187.486C133.943 187.486 135.267 174.449 142.226 174.541C149.185 174.634 145.355 186.918 142.1 191.98C134.909 203.141 140.327 215.056 143.165 219.906Z" fill="#C28A36"/>
<path d="M141.523 212.445C142.165 213.566 143.143 214.458 144.32 214.994C145.496 215.53 146.811 215.683 148.079 215.432C149.66 215.095 151.274 213.979 152.485 211.633C155.707 205.368 145.903 201.998 154.311 188.306C162.719 174.614 159.477 151.842 139.618 154.822C119.759 157.803 121.241 179.795 121.241 179.795L132.619 181.592C132.619 181.592 133.942 168.554 140.901 168.647C147.861 168.739 144.03 181.024 140.776 186.086C133.618 197.26 138.679 207.595 141.523 212.445Z" fill="#FFB443"/>
<path d="M151.904 229.631C155.234 229.383 157.733 226.485 157.484 223.159C157.235 219.832 154.334 217.337 151.004 217.585C147.674 217.834 145.176 220.732 145.425 224.058C145.673 227.384 148.574 229.88 151.904 229.631Z" fill="#FFB443"/>
<path d="M335.216 180.773C334.949 181.937 334.343 182.996 333.474 183.816C332.605 184.636 331.512 185.181 330.333 185.381C329.154 185.58 327.943 185.426 326.851 184.938C325.76 184.45 324.838 183.65 324.202 182.639C323.566 181.628 323.244 180.451 323.278 179.257C323.311 178.063 323.698 176.906 324.39 175.932C325.082 174.957 326.047 174.21 327.164 173.784C328.281 173.357 329.499 173.271 330.665 173.537C332.228 173.894 333.586 174.857 334.439 176.214C335.293 177.571 335.572 179.21 335.216 180.773V180.773Z" fill="#C28A36"/>
<path d="M324.28 168.693C324.379 169.978 324.879 171.2 325.71 172.186C326.54 173.173 327.66 173.874 328.911 174.191C330.479 174.561 332.397 174.356 334.494 172.75C340.084 168.462 334.157 157.294 347.612 148.505C361.068 139.716 366.797 119.991 347.553 114.209C332.867 109.788 324.637 117.658 321.594 123.07L320.271 128.938L329.811 135.427C329.811 135.427 336.591 124.194 342.836 127.26C349.081 130.326 340.369 139.782 335.255 142.974C323.989 150.005 323.804 163.089 324.28 168.693Z" fill="#C28A36"/>
<path d="M325.986 161.246C326.084 162.531 326.584 163.753 327.415 164.74C328.246 165.727 329.366 166.427 330.617 166.744C332.191 167.12 334.136 166.796 336.233 165.191C341.823 160.902 334.401 153.666 347.863 144.877C361.325 136.088 368.126 114.136 348.942 108.334C329.757 102.532 321.64 123.07 321.64 123.07L331.179 129.559C331.179 129.559 337.96 118.326 344.205 121.385C350.45 124.445 341.737 133.941 336.63 137.106C325.331 144.137 325.49 155.648 325.986 161.246Z" fill="#FFB443"/>
<path d="M335.805 177.801C337.039 174.702 335.525 171.189 332.422 169.956C329.32 168.723 325.804 170.235 324.569 173.334C323.334 176.434 324.848 179.946 327.951 181.18C331.054 182.413 334.57 180.9 335.805 177.801Z" fill="#FFB443"/>
<path d="M365.915 234.807C365.403 235.532 364.686 236.088 363.857 236.406C363.028 236.723 362.123 236.788 361.257 236.593C360.391 236.397 359.602 235.949 358.99 235.305C358.379 234.662 357.972 233.852 357.822 232.977C357.671 232.103 357.783 231.204 358.144 230.393C358.505 229.583 359.098 228.897 359.849 228.423C360.6 227.949 361.474 227.708 362.362 227.731C363.25 227.753 364.111 228.038 364.837 228.55C365.32 228.889 365.73 229.321 366.046 229.82C366.361 230.318 366.575 230.874 366.675 231.455C366.775 232.036 366.76 232.632 366.629 233.207C366.499 233.782 366.256 234.326 365.915 234.807V234.807Z" fill="#C28A36"/>
<path d="M361.814 223.415C361.52 224.329 361.521 225.311 361.817 226.224C362.112 227.137 362.687 227.934 363.461 228.503C364.074 228.925 364.777 229.198 365.515 229.3C366.252 229.402 367.003 229.331 367.708 229.091C372.769 227.723 371.849 218.366 383.585 216.12C395.321 213.873 404.84 201.925 393.25 192.515C384.405 185.332 376.52 188.418 372.895 191.28L370.308 194.934L375.031 202.097C375.031 202.097 382.87 196.295 386.277 200.154C389.684 204.013 381.038 208.084 376.619 208.824C366.908 210.476 363.064 219.417 361.814 223.415Z" fill="#C28A36"/>
<path d="M365.097 218.769C364.803 219.684 364.804 220.668 365.099 221.582C365.395 222.496 365.97 223.294 366.744 223.864C367.717 224.565 369.146 224.895 371.038 224.38C376.098 223.012 373.022 215.941 384.791 213.701C396.56 211.461 407.435 198.271 395.845 188.861C384.255 179.451 372.903 191.28 372.903 191.28L377.627 198.436C377.627 198.436 385.466 192.634 388.873 196.5C392.28 200.366 383.633 204.43 379.214 205.17C369.496 206.822 366.347 214.778 365.097 218.769Z" fill="#FFB443"/>
<path d="M367.646 232.341C369.052 230.295 368.531 227.498 366.482 226.093C364.434 224.689 361.634 225.21 360.228 227.256C358.822 229.302 359.343 232.099 361.392 233.504C363.44 234.908 366.24 234.387 367.646 232.341Z" fill="#FFB443"/>
<path d="M247.469 354.164C247.385 354.164 247.303 354.141 247.231 354.098C247.175 354.067 247.125 354.025 247.086 353.975C247.047 353.924 247.018 353.866 247.002 353.804C246.986 353.743 246.983 353.678 246.992 353.615C247.002 353.552 247.025 353.491 247.059 353.437C252.072 344.279 256.16 334.645 259.264 324.678C264.173 309.116 268.803 285.888 262.969 263.592C251.723 220.673 249.116 194.319 249.076 194.055C249.065 193.93 249.104 193.805 249.185 193.709C249.266 193.612 249.381 193.551 249.506 193.539C249.63 193.528 249.753 193.567 249.848 193.646C249.944 193.725 250.004 193.839 250.016 193.962C250.016 194.227 252.662 220.514 263.868 263.348C269.763 285.869 265.099 309.294 260.144 324.982C257.016 335.004 252.903 344.693 247.866 353.906C247.828 353.98 247.771 354.043 247.702 354.088C247.632 354.133 247.552 354.159 247.469 354.164V354.164Z" fill="white"/>
<defs>
<linearGradient id="paint0_linear_1532_21533" x1="287.36" y1="294.611" x2="295.265" y2="294.611" gradientUnits="userSpaceOnUse">
<stop stop-color="#ECC4D7"/>
<stop offset="0.42" stop-color="#EFD4D1"/>
<stop offset="1" stop-color="#F2EAC9"/>
</linearGradient>
<linearGradient id="paint1_linear_1532_21533" x1="240.635" y1="256.661" x2="391.536" y2="204.533" gradientUnits="userSpaceOnUse">
<stop stop-color="white" stop-opacity="0"/>
<stop offset="0.99" stop-color="white"/>
</linearGradient>
<linearGradient id="paint2_linear_1532_21533" x1="5324.88" y1="4541.12" x2="5207.89" y2="4792.47" gradientUnits="userSpaceOnUse">
<stop stop-color="#ECC4D7"/>
<stop offset="0.42" stop-color="#EFD4D1"/>
<stop offset="1" stop-color="#F2EAC9"/>
</linearGradient>
<linearGradient id="paint3_linear_1532_21533" x1="8389.61" y1="9519.77" x2="8901.25" y2="9519.77" gradientUnits="userSpaceOnUse">
<stop stop-color="#ECC4D7"/>
<stop offset="0.42" stop-color="#EFD4D1"/>
<stop offset="1" stop-color="#F2EAC9"/>
</linearGradient>
<linearGradient id="paint4_linear_1532_21533" x1="3977.01" y1="5960.82" x2="4102.63" y2="5960.82" gradientUnits="userSpaceOnUse">
<stop stop-color="#ECC4D7"/>
<stop offset="0.42" stop-color="#EFD4D1"/>
<stop offset="1" stop-color="#F2EAC9"/>
</linearGradient>
<linearGradient id="paint5_linear_1532_21533" x1="296.939" y1="268.046" x2="257.781" y2="283.876" gradientUnits="userSpaceOnUse">
<stop stop-opacity="0"/>
<stop offset="1"/>
</linearGradient>
</defs>
</svg>
