<svg width="567" height="427" viewBox="0 0 567 427" fill="none" xmlns="http://www.w3.org/2000/svg">
<g clip-path="url(#clip0_1532_20741)">
<path opacity="0.18" d="M100.962 407.071L217.714 412.191L246.6 413.471C277.921 414.827 309.255 416.197 340.588 415.966C366.823 415.787 393.045 414.482 419.242 413.189L506.594 408.824C513.255 408.491 522.517 403.039 518.264 397.906C539.593 374.316 556.951 344.633 561.665 313.197C566.379 281.761 559.615 248.2 540.643 222.677C526.335 203.478 504.416 186.006 505.198 162.045C505.659 147.62 514.767 134.41 514.524 119.985C514.293 106.11 505.223 93.5918 493.848 85.6559C482.473 77.7201 468.932 73.4706 455.623 69.477C403.703 53.7077 342.522 37.2856 288.361 40.8568C234.2 44.4279 179.476 67.0707 146.579 110.244C139.341 119.754 133.141 130.225 124.251 138.199C108.239 152.586 85.8209 156.989 66.6826 166.794C36.5917 182.269 14.5967 211.926 7.02596 244.885C-0.544804 277.844 5.98835 313.479 23.1923 342.573C32.249 357.856 44.06 371.295 55.7812 384.645C62.1862 391.954 68.7963 399.404 77.315 404.101C85.8337 408.799 92.5974 412.024 100.962 407.071Z" fill="#FFB443"/>
<path d="M288.733 384.85C288.494 386.337 288.813 387.86 289.63 389.126C290.625 390.05 291.874 390.656 293.216 390.866C297.716 392.16 301.82 394.558 305.155 397.842C295.536 400.094 285.565 400.416 275.82 398.789C275.289 398.827 274.756 398.739 274.265 398.534C273.773 398.329 273.337 398.011 272.99 397.606C272.644 397.202 272.398 396.722 272.271 396.205C272.144 395.688 272.14 395.148 272.259 394.629L272.912 315.066C272.912 308.103 277.896 300.065 286.107 303.905C293.024 307.13 291.231 316.871 290.975 322.938C290.215 343.571 289.467 364.209 288.733 384.85Z" fill="url(#paint0_linear_1532_20741)"/>
<path d="M250.316 384.85C250.084 386.337 250.403 387.857 251.212 389.126C252.21 390.046 253.458 390.651 254.799 390.866C259.301 392.163 263.409 394.56 266.751 397.842C257.127 400.094 247.152 400.416 237.403 398.789C236.269 398.723 235.202 398.229 234.418 397.407C233.934 396.566 233.732 395.593 233.842 394.629L234.495 315.066C234.559 308.103 239.491 300.065 247.689 303.905C254.607 307.13 252.813 316.871 252.557 322.938C251.814 343.571 251.067 364.209 250.316 384.85Z" fill="url(#paint1_linear_1532_20741)"/>
<path d="M366.759 174.281H279.855V225.877H366.759V174.281Z" fill="#FFB443"/>
<path d="M502.341 408.978H475.44V290.695C475.43 280.569 471.399 270.86 464.233 263.699C457.066 256.538 447.35 252.511 437.215 252.501H140.021C129.886 252.511 120.169 256.538 113.002 263.699C105.836 270.86 101.805 280.569 101.795 290.695V408.978H75.0093V290.695C75.0296 273.46 81.8909 256.936 94.0881 244.749C106.285 232.561 122.822 225.706 140.072 225.685H437.266C454.515 225.706 471.053 232.561 483.25 244.749C495.447 256.936 502.308 273.46 502.329 290.695L502.341 408.978Z" fill="#FFB443"/>
<path d="M502.341 290.695V408.978H475.44V290.695C475.427 280.57 471.395 270.863 464.229 263.703C457.064 256.543 447.349 252.514 437.215 252.501H140.021C129.887 252.514 120.172 256.543 113.006 263.703C105.84 270.863 101.809 280.57 101.795 290.695V408.978H75.0093V290.695C75.0296 273.46 81.8909 256.936 94.0881 244.749C106.285 232.561 122.822 225.706 140.072 225.685H437.266C454.518 225.702 471.058 232.557 483.258 244.744C495.458 256.932 502.321 273.458 502.341 290.695V290.695Z" fill="#981921"/>
<path d="M502.341 308.718V427H475.44V290.695C475.427 280.57 471.395 270.863 464.229 263.703C457.064 256.543 447.349 252.514 437.215 252.501H140.021C129.887 252.514 120.172 256.543 113.006 263.703C105.84 270.863 101.809 280.57 101.795 290.695V427H75.0093V308.718C75.0296 291.482 81.8909 274.958 94.0881 262.771C106.285 250.584 122.822 243.728 140.072 243.708H437.266C454.518 243.724 471.058 250.579 483.258 262.766C495.458 274.954 502.321 291.48 502.341 308.718V308.718Z" fill="#E52440"/>
<path d="M295.446 228.079H377.789L350.452 242.824H274.552L295.446 228.079Z" fill="white"/>
<path d="M443.876 0H195.181C187.696 0 181.628 6.06303 181.628 13.5421V171.44C181.628 178.919 187.696 184.982 195.181 184.982H443.876C451.361 184.982 457.429 178.919 457.429 171.44V13.5421C457.429 6.06303 451.361 0 443.876 0Z" fill="#FFB443"/>
<path d="M443.876 0H195.181C187.696 0 181.628 6.06303 181.628 13.5421V171.44C181.628 178.919 187.696 184.982 195.181 184.982H443.876C451.361 184.982 457.429 178.919 457.429 171.44V13.5421C457.429 6.06303 451.361 0 443.876 0Z" fill="url(#paint2_linear_1532_20741)"/>
<path d="M442.121 7.2063H192.119C184.995 7.2063 179.219 12.9771 179.219 20.0957V161.917C179.219 169.036 184.995 174.806 192.119 174.806H442.121C449.245 174.806 455.021 169.036 455.021 161.917V20.0957C455.021 12.9771 449.245 7.2063 442.121 7.2063Z" fill="url(#paint3_linear_1532_20741)"/>
<path d="M239.862 58.8149H230.485V130.468H239.862V58.8149Z" fill="#FFB443"/>
<path d="M255.836 71.6018H246.459V130.468H255.836V71.6018Z" fill="#FFB443"/>
<path d="M272.144 58.8149H262.767V130.468H272.144V58.8149Z" fill="#E52440"/>
<path d="M288.118 87.6272H278.741V130.455H288.118V87.6272Z" fill="#FFB443"/>
<path d="M304.425 58.8149H295.048V130.468H304.425V58.8149Z" fill="#E52440"/>
<path d="M320.387 80.3184H311.01V130.468H320.387V80.3184Z" fill="#FFB443"/>
<g filter="url(#filter0_d_1532_20741)">
<path d="M402.909 39.1674C393.658 39.1402 384.775 42.7863 378.214 49.3034C371.653 55.8205 367.952 64.6749 367.925 73.9187C367.898 83.1625 371.547 92.0385 378.069 98.594C384.592 105.15 393.453 108.848 402.704 108.875V96.7407H402.563C398.003 96.7407 393.545 95.3895 389.753 92.8578C385.961 90.3262 383.006 86.7279 381.26 82.518C379.515 78.3081 379.059 73.6756 379.948 69.2063C380.838 64.7371 383.034 60.6318 386.259 57.4097C389.484 54.1876 393.592 51.9933 398.065 51.1043C402.538 50.2153 407.174 50.6715 411.387 52.4153C415.601 54.1592 419.202 57.1122 421.736 60.901C424.269 64.6899 425.622 69.1443 425.622 73.7011C425.625 74.8023 425.544 75.902 425.378 76.9907H437.689C437.787 76.0125 437.834 75.0298 437.83 74.0467C437.833 69.4643 436.932 64.9262 435.178 60.692C433.424 56.4579 430.852 52.611 427.608 49.3713C424.365 46.1316 420.514 43.5628 416.276 41.8119C412.038 40.061 407.495 39.1623 402.909 39.1674V39.1674Z" fill="#E52440"/>
</g>
<path d="M437.689 76.9651C436.959 85.6685 432.982 93.7801 426.547 99.6908C420.112 105.602 411.689 108.88 402.948 108.875H402.743V96.7407C408.262 96.6983 413.582 94.6793 417.738 91.0506C421.894 87.4219 424.609 82.4241 425.391 76.9651H437.689Z" fill="url(#paint4_linear_1532_20741)"/>
<path d="M257.809 167.984C257.297 162.083 256.682 156.042 254.184 150.666C251.686 145.29 246.959 140.58 241.092 139.709C240.365 139.572 239.616 139.603 238.902 139.799C237.493 140.26 236.673 141.681 235.61 142.705C234.546 143.729 232.561 144.266 231.766 143.037C232.766 138.865 236.891 135.793 237.275 131.518C237.347 129.646 237.042 127.778 236.378 126.026C234.67 120.591 232.778 115.211 230.703 109.886C230.178 108.529 229.422 107.006 228.052 106.609C227.051 106.426 226.018 106.598 225.131 107.096C218.418 110.142 214.076 116.759 210.809 123.364C207.965 129.137 205.621 135.396 205.929 141.821C206.133 146.135 207.53 150.32 207.965 154.621C208.35 158.461 207.965 162.647 209.823 166.141C213.422 172.874 223.043 173.206 228.923 178.083C230.806 179.645 232.356 181.705 234.623 182.589C235.904 183.113 236.852 184.112 238.274 184.163C242.719 184.342 259.731 184.713 259.731 184.713C259.731 184.713 258.142 171.85 257.809 167.984Z" fill="url(#paint5_linear_1532_20741)"/>
<path d="M224.618 96.2798C225.478 96.6361 226.264 97.1482 226.937 97.7902C229.046 99.728 230.5 102.273 231.097 105.074C231.694 107.874 231.404 110.79 230.268 113.419C229.946 114.222 229.426 114.931 228.756 115.479C228.219 115.78 227.709 116.127 227.232 116.516C227.143 116.644 227.018 116.742 226.873 116.798C226.751 116.829 226.623 116.829 226.502 116.798C223.598 115.813 220.886 114.336 218.482 112.433C216.208 110.118 214.376 107.407 213.077 104.433C211.86 102.04 211.565 98.1358 214.358 96.5358C215.601 95.9581 216.975 95.7154 218.342 95.8318C220.444 95.6213 222.567 95.7729 224.618 96.2798V96.2798Z" fill="#422F12"/>
<path d="M234.918 170.122L235.443 156.567L246.203 154.685L256.17 211.401C256.17 211.401 240.798 201.737 240.106 200.316C239.414 198.895 234.918 170.122 234.918 170.122Z" fill="url(#paint6_linear_1532_20741)"/>
<path d="M196.103 157.156C195.994 157.8 196.056 158.462 196.282 159.075C196.527 159.525 196.896 159.894 197.346 160.138C198.721 160.804 200.238 161.124 201.765 161.072C204.942 161.175 208.17 161.175 211.296 161.072C212.013 161.072 212.859 160.919 213.179 160.291C213.306 159.979 213.359 159.642 213.333 159.306L213.205 147.722C213.235 146.211 213.111 144.702 212.833 143.217C212.586 141.964 212.067 140.78 211.312 139.749C210.557 138.719 209.585 137.866 208.465 137.252C207.431 136.777 206.309 136.522 205.171 136.504C204.032 136.487 202.903 136.706 201.855 137.149C200.24 137.786 198.822 138.837 197.743 140.196C197.065 141.355 196.781 142.702 196.936 144.036C196.744 148.413 196.475 152.829 196.103 157.156Z" fill="url(#paint7_linear_1532_20741)"/>
<path d="M211.949 149.245C211.55 149.67 211.038 149.973 210.474 150.12C209.91 150.267 209.316 150.252 208.759 150.077C207.652 149.7 206.642 149.084 205.8 148.272C204.706 147.339 203.663 146.348 202.675 145.303C201.803 146.463 201.351 147.885 201.394 149.335C201.471 150.858 202.073 152.381 201.714 153.866C201.312 155.038 200.61 156.084 199.677 156.899L197.192 159.459C196.923 159.741 196.577 160.048 196.206 159.959C196.017 159.892 195.849 159.777 195.719 159.626C194.937 158.845 194.194 158.051 193.477 157.232C193.139 156.882 192.866 156.474 192.67 156.029C192.5 155.47 192.443 154.882 192.503 154.301L192.644 150.909C192.637 150.214 192.741 149.523 192.952 148.861C193.257 148.223 193.622 147.614 194.041 147.044C194.663 145.886 195.219 144.693 195.706 143.472C196.431 141.907 197.409 140.471 198.601 139.223C199.187 138.534 199.935 138.002 200.779 137.674C201.37 137.507 201.983 137.43 202.598 137.444C204.768 137.378 206.94 137.42 209.105 137.572C209.671 137.581 210.233 137.676 210.771 137.853C212.731 138.621 214.78 141.361 213.96 143.485C213.666 144.24 213.089 144.765 212.833 145.597C212.487 146.826 212.782 148.208 211.949 149.245Z" fill="url(#paint8_linear_1532_20741)"/>
<path d="M221.07 159.511C231.6 162.199 241.566 168.727 246.331 178.467C248.676 183.216 249.7 188.464 250.802 193.648C253.27 205.415 256.212 217.075 259.628 228.629C259.719 229.17 260.001 229.661 260.423 230.012C260.889 230.247 261.422 230.32 261.934 230.217C274.795 229.141 287.682 228.395 300.595 227.977C301.475 227.863 302.37 227.991 303.183 228.348C304.017 228.904 304.639 229.725 304.95 230.677C306.544 234.353 307.355 238.32 307.333 242.325C293.353 245.807 279.262 248.742 265.06 251.131C257.22 252.411 248.522 253.435 241.899 249.032C237.031 245.794 234.29 240.252 231.779 234.952C233.316 241.967 234.533 249.041 235.43 256.174C235.817 257.741 235.597 259.396 234.815 260.808C233.674 261.974 232.129 262.661 230.498 262.728C217.937 264.717 205.175 265.104 192.516 263.88C190.798 263.98 189.109 263.408 187.806 262.285C186.503 261.162 185.688 259.577 185.535 257.864C180.488 241.045 180.757 223.049 176.568 205.987C175.428 201.353 174.006 196.784 173.25 192.048C172.622 187.208 172.622 182.308 173.25 177.469C173.954 171.312 176.516 163.082 182.793 160.368C185.189 159.331 188.033 159.306 190.582 158.973C195.306 158.278 200.067 157.85 204.84 157.693C210.306 157.589 215.762 158.2 221.07 159.511V159.511Z" fill="#E52440"/>
<path d="M226.937 145.789C226.807 146.113 226.745 146.459 226.754 146.808C226.763 147.156 226.843 147.499 226.99 147.815C227.136 148.132 227.345 148.415 227.605 148.648C227.865 148.88 228.169 149.058 228.5 149.168C229.486 149.36 230.588 148.772 231.459 149.245C232.33 149.719 232.381 151.229 232.535 152.356C232.682 153.227 233.018 154.056 233.521 154.784C234.023 155.512 234.679 156.12 235.443 156.567C236.995 157.457 238.786 157.842 240.567 157.667C241.683 157.65 242.778 157.371 243.766 156.853C244.754 156.335 245.607 155.593 246.255 154.685C247.104 153.179 247.32 151.397 246.857 149.732C246.384 148.088 245.587 146.556 244.512 145.226C242.578 142.666 238.876 139.146 235.353 139.479C232.612 139.722 227.795 143.217 226.937 145.789Z" fill="url(#paint9_linear_1532_20741)"/>
<path d="M313.175 224.725C314.077 224.238 315.056 223.909 316.07 223.753C317.208 223.683 318.346 223.89 319.387 224.354C323.448 225.954 326.561 229.333 329.085 232.892C330.238 234.517 331.352 236.488 330.801 238.395C330.533 239.136 330.089 239.801 329.506 240.332C328.924 240.862 328.221 241.243 327.458 241.442C325.925 241.817 324.341 241.939 322.769 241.8L311.356 241.403C310.257 241.438 309.162 241.246 308.14 240.84C306.116 239.855 305.322 237.423 304.746 235.234C304.361 233.8 303.26 231.573 303.375 230.114C303.465 228.834 303.631 229.09 304.746 228.68C307.641 227.592 310.344 226.044 313.175 224.725Z" fill="url(#paint10_linear_1532_20741)"/>
<path d="M314.865 225.417C314.987 225.923 315.276 226.374 315.685 226.697C316.049 226.869 316.449 226.949 316.851 226.927H319.861C318.812 223.115 317.392 219.416 315.621 215.881L312.367 208.828C311.894 207.83 311.304 206.716 310.241 206.435C308.96 206.089 306.27 207.343 306.398 208.841C306.526 210.338 308.742 212.617 309.447 213.846C311.528 217.568 313.339 221.435 314.865 225.417V225.417Z" fill="white"/>
<path d="M258.834 271.483C269.377 272.123 279.984 274.491 289.143 279.752C298.302 285.012 305.937 293.345 309.05 303.431L277.793 319.751C276.813 320.371 275.696 320.74 274.539 320.826C272.81 320.826 271.375 319.546 270.043 318.497C264.572 313.824 258.191 310.337 251.302 308.257C237.48 304.289 222.62 307.322 208.414 305.185C204.727 304.78 201.171 303.588 197.986 301.691C192.772 298.26 189.916 292.065 189.096 285.883C188.276 279.701 189.237 273.442 190.185 267.285C190.278 265.66 190.863 264.102 191.863 262.818C192.928 261.891 194.225 261.271 195.616 261.026C205.249 258.466 219.264 253 228.218 259.413C232.125 262.216 235.084 265.941 239.465 268.168C245.537 271.24 252.25 271.074 258.834 271.483Z" fill="#422F12"/>
<path d="M287.593 386.937C288.179 386.662 288.816 386.513 289.463 386.502C290.057 386.581 290.628 386.782 291.141 387.09L306.795 395.218C307.949 395.726 308.997 396.447 309.882 397.343C310.318 397.797 310.619 398.363 310.752 398.977C310.886 399.592 310.846 400.231 310.638 400.825C310.272 401.427 309.772 401.936 309.176 402.314C308.581 402.691 307.906 402.926 307.205 403.001C304.254 403.599 301.249 403.894 298.238 403.884C291.671 404.063 285.099 404.063 278.523 403.884C275.649 403.938 272.786 403.505 270.056 402.604C269.238 402.381 268.539 401.848 268.109 401.119C267.902 400.514 267.854 399.866 267.968 399.237C268.416 394.719 267.724 391.25 272.72 390.521C277.794 389.874 282.782 388.672 287.593 386.937V386.937Z" fill="#981921"/>
<path d="M249.175 386.937C249.761 386.662 250.399 386.513 251.046 386.502C251.64 386.581 252.211 386.782 252.724 387.09L268.391 395.218C269.541 395.726 270.584 396.447 271.465 397.343C271.903 397.796 272.206 398.361 272.342 398.975C272.478 399.59 272.44 400.23 272.234 400.825C271.867 401.427 271.367 401.936 270.772 402.314C270.176 402.691 269.502 402.926 268.801 403.001C265.849 403.597 262.845 403.893 259.833 403.884C253.258 404.063 246.686 404.063 240.119 403.884C237.24 403.938 234.373 403.505 231.638 402.604C230.825 402.378 230.132 401.846 229.704 401.119C229.487 400.517 229.434 399.867 229.55 399.237C230.012 394.719 229.32 391.25 234.303 390.521C239.377 389.875 244.365 388.673 249.175 386.937Z" fill="#981921"/>
<path d="M219.405 323.399H205.865V383.481H219.405V323.399Z" fill="#FFB443"/>
<path d="M256.861 376.249H169.035C166.771 376.249 164.936 378.08 164.936 380.338C164.936 382.597 166.771 384.428 169.035 384.428H256.861C259.125 384.428 260.961 382.597 260.961 380.338C260.961 378.08 259.125 376.249 256.861 376.249Z" fill="#FFB443"/>
<path d="M168.318 402.399C173.271 402.399 177.285 398.388 177.285 393.439C177.285 388.491 173.271 384.479 168.318 384.479C163.366 384.479 159.351 388.491 159.351 393.439C159.351 398.388 163.366 402.399 168.318 402.399Z" fill="#3E3E54"/>
<path d="M212.09 402.399C217.042 402.399 221.057 398.388 221.057 393.439C221.057 388.491 217.042 384.479 212.09 384.479C207.138 384.479 203.123 388.491 203.123 393.439C203.123 398.388 207.138 402.399 212.09 402.399Z" fill="#3E3E54"/>
<path d="M255.849 402.399C260.802 402.399 264.817 398.388 264.817 393.439C264.817 388.491 260.802 384.479 255.849 384.479C250.897 384.479 246.882 388.491 246.882 393.439C246.882 398.388 250.897 402.399 255.849 402.399Z" fill="#3E3E54"/>
<path d="M216.42 102.91C216.42 102.91 223.337 101.489 225.707 105.47C228.077 109.451 227.283 122.609 230.114 126.231C232.945 129.854 233.265 131.889 230.421 134.09C227.577 136.292 228.218 142.436 226.809 144.33C225.4 146.224 221.775 148.733 215.152 146.378C208.529 144.023 196.859 138.417 196.859 137.636C196.859 136.855 197.205 103.972 216.42 102.91Z" fill="url(#paint11_linear_1532_20741)"/>
<path d="M218.482 96.5102C223.401 99.6334 225.31 106.366 223.606 111.972C221.903 117.579 217.329 121.956 212 124.337C210.861 124.672 209.88 125.403 209.233 126.398C209.04 126.917 208.952 127.47 208.977 128.023C208.977 132.375 209.31 136.151 205.903 139.389C204.423 140.677 202.847 141.849 201.189 142.897C200.794 143.139 200.439 143.441 200.138 143.793C199.165 145.073 199.575 146.775 199.703 148.324C199.837 150.913 199.068 153.468 197.526 155.553C195.983 157.638 193.765 159.123 191.248 159.754C190.185 159.984 189.096 160.061 188.058 160.394C187.533 160.529 187.043 160.773 186.619 161.11C186.195 161.448 185.847 161.871 185.599 162.352C185.022 163.735 185.701 165.335 185.484 166.807C185.15 168.944 183.037 170.339 181 171.018C178.937 171.691 176.759 171.936 174.598 171.738C172.437 171.539 170.339 170.902 168.433 169.866C167.152 169.136 165.641 169.149 164.59 168.035C163.477 166.672 162.807 165.002 162.669 163.248C162.557 160.902 162.785 158.553 163.348 156.272L166.55 140.209C167.383 135.998 168.587 131.249 172.34 129.214C173.627 128.716 174.852 128.071 175.991 127.294C177.071 126.131 177.768 124.666 177.99 123.095C179.04 118.539 179.629 113.854 181 109.387C182.371 104.92 184.625 100.529 188.315 97.6494C192.222 94.6159 197.282 93.5663 202.278 93.3999C209.374 93.1567 213.807 91.0959 218.38 96.5102" fill="#422F12"/>
<path d="M131.873 176.176C131.873 176.176 129.042 175.549 129.042 184.982C129.042 194.416 152.664 322.771 152.664 322.771C152.664 322.771 150.461 327.495 172.174 326.611C193.887 325.728 263.804 325.331 263.804 325.331C263.804 325.331 270.094 325.331 270.722 316.205C271.35 307.079 257.822 305.505 257.822 305.505L202.085 302.945L180.052 178.429L131.873 176.176Z" fill="#FFB443"/>
<path d="M270.722 316.167C270.094 325.293 263.804 325.293 263.804 325.293C263.804 325.293 218.636 325.498 189.647 326.061C182.563 326.202 176.452 326.355 172.187 326.547C150.409 327.495 152.664 322.708 152.664 322.708C152.664 322.708 129.042 194.416 129.042 184.982C129.042 175.549 131.886 176.176 131.886 176.176L161.964 177.545L180.052 178.377L202.085 302.958L257.822 305.517C257.822 305.517 271.362 307.041 270.722 316.167Z" fill="url(#paint12_linear_1532_20741)"/>
<path d="M270.722 316.167C270.094 325.293 263.804 325.293 263.804 325.293C263.804 325.293 218.636 325.498 189.647 326.061C183.434 324.96 184.459 322.772 184.459 322.772C184.459 322.772 160.837 194.415 160.837 184.982C160.837 180.937 161.362 178.736 161.964 177.545L180.052 178.377L202.085 302.958L257.822 305.517C257.822 305.517 271.362 307.041 270.722 316.167Z" fill="url(#paint13_linear_1532_20741)"/>
</g>
<defs>
<filter id="filter0_d_1532_20741" x="363.925" y="37.1672" width="77.9053" height="77.7076" filterUnits="userSpaceOnUse" color-interpolation-filters="sRGB">
<feFlood flood-opacity="0" result="BackgroundImageFix"/>
<feColorMatrix in="SourceAlpha" type="matrix" values="0 0 0 0 0 0 0 0 0 0 0 0 0 0 0 0 0 0 127 0" result="hardAlpha"/>
<feOffset dy="2"/>
<feGaussianBlur stdDeviation="2"/>
<feComposite in2="hardAlpha" operator="out"/>
<feColorMatrix type="matrix" values="0 0 0 0 0 0 0 0 0 0 0 0 0 0 0 0 0 0 0.25 0"/>
<feBlend mode="normal" in2="BackgroundImageFix" result="effect1_dropShadow_1532_20741"/>
<feBlend mode="normal" in="SourceGraphic" in2="effect1_dropShadow_1532_20741" result="shape"/>
</filter>
<linearGradient id="paint0_linear_1532_20741" x1="272.246" y1="351.353" x2="305.155" y2="351.353" gradientUnits="userSpaceOnUse">
<stop stop-color="#E5C5D5"/>
<stop offset="0.42" stop-color="#EAD4D1"/>
<stop offset="1" stop-color="#F0E9CB"/>
</linearGradient>
<linearGradient id="paint1_linear_1532_20741" x1="6191.33" y1="28897.8" x2="7037.51" y2="28897.8" gradientUnits="userSpaceOnUse">
<stop stop-color="#E5C5D5"/>
<stop offset="0.42" stop-color="#EAD4D1"/>
<stop offset="1" stop-color="#F0E9CB"/>
</linearGradient>
<linearGradient id="paint2_linear_1532_20741" x1="317.261" y1="-123.633" x2="321.571" y2="288.647" gradientUnits="userSpaceOnUse">
<stop offset="0.02" stop-color="white" stop-opacity="0"/>
<stop offset="0.32" stop-color="white" stop-opacity="0.39"/>
<stop offset="0.68" stop-color="white" stop-opacity="0.68"/>
<stop offset="1" stop-color="white"/>
</linearGradient>
<linearGradient id="paint3_linear_1532_20741" x1="67176.9" y1="-13756.1" x2="67488.6" y2="35233.4" gradientUnits="userSpaceOnUse">
<stop offset="0.02" stop-color="white" stop-opacity="0"/>
<stop offset="0.32" stop-color="white" stop-opacity="0.39"/>
<stop offset="0.68" stop-color="white" stop-opacity="0.68"/>
<stop offset="1" stop-color="white"/>
</linearGradient>
<linearGradient id="paint4_linear_1532_20741" x1="11137.1" y1="2205.35" x2="12563.8" y2="4365.17" gradientUnits="userSpaceOnUse">
<stop offset="0.02" stop-color="white" stop-opacity="0"/>
<stop offset="0.32" stop-color="white" stop-opacity="0.39"/>
<stop offset="0.68" stop-color="white" stop-opacity="0.68"/>
<stop offset="1" stop-color="white"/>
</linearGradient>
<linearGradient id="paint5_linear_1532_20741" x1="11625.3" y1="7232.26" x2="2747.7" y2="17274.8" gradientUnits="userSpaceOnUse">
<stop stop-opacity="0"/>
<stop offset="0.99"/>
</linearGradient>
<linearGradient id="paint6_linear_1532_20741" x1="4096.6" y1="9433.94" x2="4449.17" y2="9433.94" gradientUnits="userSpaceOnUse">
<stop stop-color="#E5C5D5"/>
<stop offset="0.42" stop-color="#EAD4D1"/>
<stop offset="1" stop-color="#F0E9CB"/>
</linearGradient>
<linearGradient id="paint7_linear_1532_20741" x1="2813.22" y1="3509.52" x2="3046.27" y2="3509.52" gradientUnits="userSpaceOnUse">
<stop stop-color="#E5C5D5"/>
<stop offset="0.42" stop-color="#EAD4D1"/>
<stop offset="1" stop-color="#F0E9CB"/>
</linearGradient>
<linearGradient id="paint8_linear_1532_20741" x1="3764.31" y1="3623.96" x2="3336.68" y2="2687.11" gradientUnits="userSpaceOnUse">
<stop stop-opacity="0"/>
<stop offset="0.99"/>
</linearGradient>
<linearGradient id="paint9_linear_1532_20741" x1="3794.23" y1="2634.05" x2="4115.64" y2="2634.05" gradientUnits="userSpaceOnUse">
<stop stop-color="#E5C5D5"/>
<stop offset="0.42" stop-color="#EAD4D1"/>
<stop offset="1" stop-color="#F0E9CB"/>
</linearGradient>
<linearGradient id="paint10_linear_1532_20741" x1="6788.5" y1="3891.71" x2="7382.3" y2="3891.71" gradientUnits="userSpaceOnUse">
<stop stop-color="#E5C5D5"/>
<stop offset="0.42" stop-color="#EAD4D1"/>
<stop offset="1" stop-color="#F0E9CB"/>
</linearGradient>
<linearGradient id="paint11_linear_1532_20741" x1="5600.51" y1="5383.09" x2="6585.77" y2="5383.09" gradientUnits="userSpaceOnUse">
<stop stop-color="#E5C5D5"/>
<stop offset="0.42" stop-color="#EAD4D1"/>
<stop offset="1" stop-color="#F0E9CB"/>
</linearGradient>
<linearGradient id="paint12_linear_1532_20741" x1="14166" y1="32838.6" x2="29841.1" y2="32838.6" gradientUnits="userSpaceOnUse">
<stop stop-opacity="0"/>
<stop offset="0.99"/>
</linearGradient>
<linearGradient id="paint13_linear_1532_20741" x1="19747.4" y1="29809.4" x2="7671.94" y2="42258.9" gradientUnits="userSpaceOnUse">
<stop stop-opacity="0"/>
<stop offset="0.99"/>
</linearGradient>
<clipPath id="clip0_1532_20741">
<rect width="567" height="427" fill="white"/>
</clipPath>
</defs>
</svg>
