<svg width="68" height="68" viewBox="0 0 68 68" fill="none" xmlns="http://www.w3.org/2000/svg">
<g filter="url(#filter0_d_204_9490)">
<circle cx="33.9042" cy="31.9051" r="23.7928" fill="#FFB443"/>
<path d="M33.905 3C17.9422 3 5 15.9422 5 31.905C5 47.8678 17.9422 60.81 33.905 60.81C49.8678 60.81 62.81 47.8678 62.81 31.905C62.81 15.9422 49.8678 3 33.905 3ZM44.1121 40.1646C44.1121 48.576 37.2038 49.7105 35.9826 49.8623V54.6677H32.3622V49.8623C31.2349 49.7069 23.651 48.8759 23.651 38.4267H30.4798C30.4798 44.5979 33.6629 44.3414 34.1471 44.3414C34.6782 44.3414 37.2833 44.2439 37.2833 40.2116C37.2833 32.1579 24.7855 35.7313 24.7855 23.6599C24.7855 15.3858 31.6432 14.0959 32.8681 13.9405V8.781H36.5101V14.0417C37.6699 14.2621 44.1591 15.7435 44.1591 25.2352H37.3303C37.3303 20.2744 35.2238 19.4939 34.3386 19.4939C33.8544 19.4939 31.6107 19.6204 31.6107 23.6924C31.6143 30.7994 44.1121 28.5846 44.1121 40.1646Z" fill="white"/>
</g>
<path d="M62.5835 58.3299L55.943 51.6908C55.906 51.6542 55.8775 51.6098 55.8596 51.5609C55.8417 51.5119 55.8349 51.4596 55.8395 51.4078C55.8441 51.3559 55.8601 51.3056 55.8864 51.2606C55.9126 51.2156 55.9485 51.177 55.9914 51.1474L60.2591 48.1885C60.4792 48.0359 60.6519 47.8243 60.7571 47.5779C60.8623 47.3315 60.8958 47.0605 60.8537 46.7959C60.8116 46.5313 60.6957 46.284 60.5193 46.0824C60.3429 45.8808 60.1131 45.7331 59.8565 45.6564L41.793 40.235C41.6084 40.1801 41.4125 40.1761 41.2259 40.2234C41.0393 40.2707 40.8689 40.3675 40.7328 40.5036C40.5967 40.6397 40.4999 40.8101 40.4526 40.9967C40.4054 41.1833 40.4094 41.3792 40.4643 41.5637L45.8856 59.6301C45.9626 59.8866 46.1104 60.1162 46.3121 60.2925C46.5137 60.4688 46.7611 60.5845 47.0256 60.6264C47.2902 60.6684 47.5612 60.6347 47.8075 60.5294C48.0537 60.4241 48.2653 60.2514 48.4178 60.0312L51.3752 55.7636C51.4048 55.7208 51.4435 55.685 51.4884 55.6587C51.5333 55.6325 51.5835 55.6164 51.6353 55.6117C51.6871 55.6069 51.7394 55.6136 51.7883 55.6313C51.8373 55.6489 51.8818 55.6771 51.9187 55.7138L58.5591 62.3542C58.8259 62.6209 59.1876 62.7708 59.5648 62.7708C59.9421 62.7708 60.3038 62.6209 60.5706 62.3542L62.5835 60.3413C62.8502 60.0746 63 59.7128 63 59.3356C63 58.9584 62.8502 58.5966 62.5835 58.3299Z" fill="#E52440"/>
<defs>
<filter id="filter0_d_204_9490" x="0.643613" y="0.821806" width="66.5228" height="66.5228" filterUnits="userSpaceOnUse" color-interpolation-filters="sRGB">
<feFlood flood-opacity="0" result="BackgroundImageFix"/>
<feColorMatrix in="SourceAlpha" type="matrix" values="0 0 0 0 0 0 0 0 0 0 0 0 0 0 0 0 0 0 127 0" result="hardAlpha"/>
<feOffset dy="2.17819"/>
<feGaussianBlur stdDeviation="2.17819"/>
<feColorMatrix type="matrix" values="0 0 0 0 1 0 0 0 0 0.587917 0 0 0 0 0.104167 0 0 0 0.37 0"/>
<feBlend mode="normal" in2="BackgroundImageFix" result="effect1_dropShadow_204_9490"/>
<feBlend mode="normal" in="SourceGraphic" in2="effect1_dropShadow_204_9490" result="shape"/>
</filter>
</defs>
</svg>
