<svg width="360" height="314" viewBox="0 0 360 314" fill="none" xmlns="http://www.w3.org/2000/svg">
<path opacity="0.18" d="M76.5264 43.9395C100.684 40.0689 125.557 42.7349 149.509 37.4228C174.561 31.8638 197.376 17.8727 221.524 8.5815C245.673 -0.709712 273.561 -4.88632 295.965 8.72961C309.681 17.0729 319.773 31.2023 327.692 46.1512C343.299 75.6312 351.757 109.052 352.252 143.191C352.475 160.114 350.695 177.156 345.989 193.27C330.26 247.122 282.652 284.395 232.449 295.888C177.316 308.517 117.37 293.124 72.8491 255.1C34.9399 222.665 -2.54881 164.834 10.3083 112.157C18.835 77.1252 40.3082 49.7452 76.5264 43.9395Z" fill="#FFB443"/>
<path d="M265.812 172.524L238.377 193.12C237.793 193.558 237.062 193.743 236.344 193.634C235.627 193.525 234.981 193.132 234.548 192.541L223.169 176.942C222.955 176.651 222.803 176.318 222.723 175.964C222.59 175.432 222.615 174.871 222.796 174.354C222.977 173.836 223.306 173.385 223.74 173.058L251.184 152.461C251.508 152.219 251.881 152.052 252.276 151.972C252.671 151.893 253.078 151.902 253.469 151.999C254.085 152.159 254.629 152.526 255.013 153.04L266.392 168.649C266.605 168.942 266.758 169.274 266.844 169.628C266.931 169.981 266.947 170.348 266.893 170.708C266.839 171.068 266.716 171.413 266.531 171.725C266.345 172.037 266.101 172.308 265.812 172.524V172.524Z" fill="#FFB443"/>
<path d="M253.469 151.999L248.39 175.14L222.723 175.964C222.59 175.432 222.615 174.871 222.796 174.354C222.977 173.836 223.306 173.385 223.74 173.058L251.184 152.461C251.508 152.219 251.881 152.052 252.276 151.972C252.67 151.893 253.078 151.902 253.469 151.999V151.999Z" fill="url(#paint0_linear_1532_21290)"/>
<path d="M239.18 175.439L240.019 191.88L265.811 172.524L250.202 166.865L248.39 175.14L239.18 175.439Z" fill="url(#paint1_linear_1532_21290)"/>
<path d="M270.916 40.8494L240.269 85.1482L234.379 68.5712C214.038 74.0519 194.012 80.6741 174.395 88.4074C151.78 97.5424 130.004 108.895 123.747 120.629C109.405 147.581 143.096 159.495 143.096 159.495C136.687 160.015 130.241 159.858 123.863 159.025C107.058 156.788 86.1922 148.532 92.2342 120.629C97.009 98.5835 128.094 80.042 158.634 66.8329H158.679C163.141 64.9136 167.604 63.1119 171.941 61.4008L172.066 61.3465C188.404 55.0093 205.067 49.5694 221.982 45.0502L219.046 30.5465L270.916 40.8494Z" fill="#E52440"/>
<path d="M123.748 120.629C109.406 147.581 143.097 159.496 143.097 159.496C136.687 160.016 130.242 159.858 123.864 159.025C121.339 156.043 118.979 152.921 116.796 149.673C97.4558 121.136 138.938 98.647 138.938 98.647C142.392 85.8544 158.635 75.2709 158.635 75.2709V66.833H158.68L171.942 61.4009L172.067 61.3466L174.985 86.0807L174.396 88.3894C151.781 97.5425 130.004 108.896 123.748 120.629Z" fill="url(#paint2_linear_1532_21290)"/>
<path d="M217.795 213.699C216.978 215.108 216.473 216.68 216.313 218.307C216.341 219.935 216.861 221.516 217.804 222.834C219.741 225.749 222.71 227.794 226.095 228.547C226.538 228.685 227.014 228.662 227.443 228.483C227.736 228.301 227.964 228.028 228.094 227.705C228.906 226.03 228.576 224.038 228.041 222.273C227.505 220.507 226.773 218.714 226.854 216.84C226.987 213.337 231.923 206.574 226.175 204.926C221.383 203.514 219.321 210.575 217.795 213.699Z" fill="#B2857F"/>
<path d="M214.423 218.271C214.423 218.271 212.727 219.683 213.048 221.24C213.37 222.798 219.465 233.653 228.149 232.412C236.833 231.172 222.571 222.454 222.571 222.454L214.423 218.271Z" fill="#FFB443"/>
<path d="M217.048 214.26C217.403 214.273 217.743 214.416 218.003 214.662C218.264 214.908 218.428 215.241 218.467 215.6C218.693 216.634 219.176 217.593 219.869 218.385C220.563 219.177 221.444 219.776 222.429 220.127C224.696 220.752 226.767 218.832 227.784 219.375C228.801 219.919 231.657 227.478 230.908 229.633C230.158 231.788 226.642 231.733 223.518 230.258C220.394 228.782 214.7 222.888 214.263 220.561C213.826 218.235 215.807 214.885 217.048 214.26Z" fill="white"/>
<path d="M180.974 226.22C180.132 227.826 179.645 229.6 179.546 231.417C179.669 233.209 180.322 234.923 181.42 236.333C183.712 239.484 187.113 241.617 190.916 242.29C191.413 242.423 191.941 242.375 192.406 242.154C192.721 241.928 192.963 241.613 193.103 241.249C193.924 239.347 193.451 237.147 192.781 235.192C192.112 233.236 191.219 231.308 191.184 229.244C191.184 225.351 196.333 217.574 189.872 216.026C184.472 214.731 182.509 222.68 180.974 226.22Z" fill="#B2857F"/>
<path d="M177.43 231.534C177.43 231.534 175.645 233.191 176.046 234.902C176.448 236.613 183.748 248.392 193.351 246.581C202.954 244.77 186.693 235.853 186.693 235.853L177.43 231.534Z" fill="#FFB443"/>
<path d="M180.152 226.899C180.551 226.895 180.938 227.037 181.242 227.3C181.545 227.563 181.744 227.929 181.803 228.329C182.101 229.465 182.682 230.503 183.49 231.345C184.298 232.187 185.306 232.804 186.417 233.137C188.969 233.716 191.192 231.498 192.316 232.041C193.441 232.584 197.01 240.868 196.261 243.286C195.511 245.703 191.611 245.83 188.068 244.345C184.525 242.86 177.912 236.577 177.358 234.015C176.805 231.453 178.804 227.659 180.152 226.899Z" fill="white"/>
<path d="M200.223 131.801C200.466 131.844 200.704 131.907 200.937 131.991C206.577 134.164 213.369 143.851 217.207 148.45C222.195 154.275 226.348 160.785 229.541 167.789C236.02 182.464 236.618 200.698 227.515 213.862L220.518 212.377C219.907 212.308 219.331 212.053 218.867 211.644C218.628 211.289 218.463 210.888 218.381 210.466C218.3 210.044 218.304 209.61 218.394 209.19C218.763 204.12 218.532 199.022 217.706 194.007C217.245 190.57 216.206 187.239 214.636 184.157C212.441 180.147 208.978 177.041 205.604 173.999C194.895 164.375 185.292 154.426 179.981 140.818C184.774 138.428 195.055 130.877 200.223 131.801Z" fill="#473F47"/>
<path d="M184.016 139.189C184.247 139.282 184.466 139.403 184.668 139.551C189.657 142.991 194.039 154.036 196.716 159.396C200.223 166.245 202.764 173.559 204.266 181.124C207.185 196.923 203.588 214.794 191.709 225.487L185.239 222.381C184.663 222.17 184.162 221.788 183.802 221.286C183.652 220.882 183.584 220.452 183.603 220.021C183.621 219.59 183.725 219.167 183.909 218.778C185.435 213.934 186.382 208.922 186.729 203.849C187.071 200.398 186.827 196.913 186.006 193.546C184.801 189.137 182.142 185.298 179.563 181.532C171.396 169.654 164.31 157.694 162.275 143.208C167.479 142.013 179.215 137.106 184.016 139.189Z" fill="#473F47"/>
<path d="M213.083 104.704C213.088 104.743 213.088 104.782 213.083 104.821C213.164 106.333 213.654 107.664 213.271 109.203C212.86 110.914 211.289 112.463 209.576 112.209C208.148 112.001 207.175 110.697 206.077 109.747C204.928 108.813 203.654 108.051 202.293 107.483C200.508 106.641 198.67 105.854 196.831 105.129C195.653 104.658 193.404 104.369 192.904 103.147C192.405 101.924 192.565 99.9959 192.422 98.7013L190.2 78.1589L210.879 95.3605C211.727 97.2416 212.388 99.2038 212.851 101.218C213.049 102.369 213.126 103.537 213.083 104.704V104.704Z" fill="white"/>
<path d="M197.734 106.967C197.858 108.18 198.135 109.384 198.278 110.589C199.028 117.279 198.215 124.368 200.893 130.714C201.5 132.127 202.285 133.63 201.928 135.133C201.492 136.406 200.613 137.475 199.456 138.138C193.994 142.013 187.363 143.742 180.901 145.381C176.037 146.631 169.192 148.903 164.337 146.712C162.267 145.807 161.374 143.706 160.526 141.642C157.849 135.069 156.439 127.826 155.171 120.819C155.011 119.914 154.841 119.008 154.689 118.058C153.636 111.738 152.812 105.365 152.217 98.9366C151.807 94.265 151.619 89.1951 154.243 85.3564C157.724 80.2321 165.096 76.3029 170.834 74.4922C172.69 73.8861 174.624 73.5597 176.573 73.5234C179.35 73.6551 182.085 74.2675 184.659 75.3341C187.72 76.4658 190.442 77.4074 192.182 80.1597C194.112 83.3569 195.59 86.8128 196.573 90.4263C197.499 93.8102 197.959 97.3079 197.939 100.82C197.939 102.54 197.707 104.278 197.716 105.989C197.687 106.315 197.693 106.643 197.734 106.967V106.967Z" fill="white"/>
<path opacity="0.1" d="M174.887 147.889C173.03 148.677 168.425 147.382 166.935 147.282C166.042 147.228 165.15 146.866 164.257 146.757C159.795 146.133 157.894 133.729 157.117 130.461C155.029 121.724 152.298 112.743 151.209 103.871C150.799 100.44 150.504 96.9359 151.263 93.577C152.021 90.2182 153.94 86.977 157.019 85.4289C162.374 82.7671 165.989 100.503 167.158 104.124C168.621 108.651 170.094 113.178 171.549 117.705C172.191 119.733 172.397 121.987 173.494 123.843C175.163 126.658 176.573 126.124 179.367 125.654C185.23 124.621 190.71 122.096 196.484 120.683C196.722 120.593 196.975 120.553 197.228 120.566C197.481 120.578 197.729 120.643 197.957 120.756C198.268 121.015 198.48 121.377 198.555 121.779C198.895 122.922 199.081 124.107 199.108 125.3C199.142 125.642 199.093 125.987 198.965 126.305C198.764 126.63 198.485 126.898 198.153 127.084C194.251 129.703 189.964 131.68 185.453 132.942C181.884 133.956 178.501 135.658 176.091 138.682C173.923 141.398 176.743 144.259 175.565 147.201C175.503 147.356 175.411 147.497 175.295 147.615C175.178 147.733 175.039 147.827 174.887 147.889V147.889Z" fill="#020202"/>
<path d="M170.815 134.209L205.033 122.503L230.129 137.025L195.207 151.547L170.815 134.209Z" fill="#FFB443"/>
<path d="M170.815 134.209L205.033 122.503L230.129 137.025L195.207 151.547L170.815 134.209Z" fill="url(#paint3_linear_1532_21290)"/>
<path d="M172.227 132.335L206.444 120.629L231.54 135.151L196.618 149.673L172.227 132.335Z" fill="#FFB443"/>
<path d="M198.295 147.672L226.605 134.988L212.789 127.292L184.641 138.102L198.295 147.672Z" fill="url(#paint4_linear_1532_21290)"/>
<path d="M196.619 149.672H230.364L259.414 131.321L231.542 135.151L196.619 149.672Z" fill="#FFB443"/>
<path d="M185.105 65.5565C184.757 66.833 184.382 68.1095 183.981 69.377C183.088 72.2742 181.303 74.9178 178.198 75.6149C177.511 75.7489 176.816 75.8336 176.118 75.8684C175.984 75.8684 175.832 75.8684 175.654 75.8684C175.644 75.8732 175.634 75.8757 175.623 75.8757C175.612 75.8757 175.601 75.8732 175.592 75.8684H175.511C175.163 75.8518 174.814 75.8884 174.476 75.977C174.382 75.982 174.29 76.01 174.208 76.0585C173.316 76.475 173.387 77.9416 173.45 78.7746C173.669 79.7117 173.562 80.6971 173.146 81.563C173.146 81.563 173.146 81.6174 173.093 81.6536C172.845 81.9273 172.547 82.1484 172.214 82.3038C171.881 82.4593 171.522 82.546 171.156 82.5589C169.617 82.6851 168.089 82.2125 166.881 81.2371C166.19 80.5861 165.634 79.8011 165.248 78.9285C165.127 78.6805 165.025 78.4232 164.944 78.1589C164.843 77.7109 164.804 77.2508 164.828 76.7919C164.845 76.0879 164.91 75.386 165.025 74.6914C165.354 73.3208 165.613 71.9337 165.801 70.5359C165.813 69.8277 165.86 69.1206 165.944 68.4174C166.058 67.9681 166.142 67.5113 166.194 67.0503C166.194 65.7194 165.524 64.4338 165.515 63.0849C165.504 61.7508 165.626 60.4191 165.881 59.1104C166.358 56.5145 167.472 54.0824 169.121 52.0396C172.182 48.4182 177.609 46.6075 181.875 48.6717C184.006 49.7035 185.66 51.534 186.489 53.7779C187.917 57.5894 186.132 61.8355 185.105 65.5565Z" fill="#B2857F"/>
<path d="M180.66 130.914C181.41 130.823 182.168 130.742 182.918 130.678C183.365 130.615 183.82 130.642 184.257 130.76C184.471 130.817 184.667 130.931 184.824 131.09C184.981 131.249 185.093 131.447 185.149 131.665C185.145 131.831 185.178 131.995 185.247 132.145C185.362 132.279 185.52 132.366 185.694 132.389C188.371 133.096 191.138 134.2 192.735 136.436C192.926 136.648 193.058 136.906 193.121 137.185C193.184 137.465 193.174 137.755 193.092 138.03C192.726 138.79 191.655 138.682 190.852 138.455C190.967 138.622 191.029 138.822 191.029 139.026C191.029 139.23 190.967 139.429 190.852 139.596C190.732 139.76 190.574 139.892 190.392 139.981C190.21 140.069 190.01 140.111 189.808 140.103C189.543 140.053 189.27 140.053 189.005 140.103C188.823 140.189 188.654 140.302 188.505 140.438C188.129 140.69 187.707 140.861 187.263 140.942C186.82 141.023 186.365 141.012 185.926 140.909C185.033 140.773 184.141 140.465 183.248 140.393C181.865 140.284 180.624 140.746 179.339 140.175C177.922 139.464 176.423 138.935 174.877 138.6C174.385 138.52 173.932 138.282 173.583 137.921C173.433 137.614 173.354 137.277 173.354 136.934C173.354 136.592 173.433 136.254 173.583 135.947C173.814 134.837 174.23 133.774 174.814 132.806C175.573 131.719 176.84 131.529 178.081 131.312C178.991 131.158 179.803 131.04 180.66 130.914Z" fill="#B2857F"/>
<path d="M154.225 85.3474C147.666 96.3655 141.186 109.131 139.321 121.969C138.83 125.346 138.563 129.329 140.124 132.498C142.677 137.659 151.361 138.664 156.359 139.18C162.343 139.795 168.37 139.877 174.369 139.424C174.5 139.449 174.635 139.441 174.763 139.401C174.89 139.36 175.006 139.288 175.099 139.192C175.193 139.095 175.261 138.976 175.299 138.846C175.337 138.716 175.342 138.579 175.315 138.446L175.565 132.589C175.606 132.315 175.569 132.035 175.457 131.783C175.301 131.598 175.104 131.454 174.882 131.361C174.661 131.268 174.42 131.23 174.181 131.249C170.686 130.965 167.251 130.156 163.989 128.85C160.892 127.6 154.841 124.323 155.279 120.194C155.52 117.877 158.027 115.052 159.268 113.223C162.249 108.832 165.462 104.577 168.746 100.412C168.746 100.412 169.067 76.7194 154.225 85.3474Z" fill="white"/>
<path d="M184.079 60.2329C184.523 60.1287 184.94 59.9305 185.303 59.6512C185.666 59.3719 185.967 59.0179 186.185 58.6124C186.551 59.6535 188.282 59.3366 188.72 58.3136C189.157 57.2905 188.72 56.1317 188.327 55.1086C188.737 55.0107 189.117 54.8107 189.431 54.5267C189.746 54.2427 189.986 53.8836 190.129 53.482C190.273 53.0803 190.315 52.6487 190.253 52.2261C190.191 51.8035 190.026 51.4034 189.773 51.0617C189.478 50.7268 189.068 50.437 188.988 49.9844C188.968 49.6394 189.02 49.2941 189.139 48.9704C189.195 48.4389 189.111 47.9019 188.896 47.4138C188.682 46.9257 188.344 46.5039 187.917 46.191C187.039 45.577 186.06 45.1292 185.025 44.8691C185.303 44.4109 185.406 43.8656 185.316 43.3356C185.225 42.8055 184.947 42.3271 184.534 41.9901C183.688 41.3346 182.662 40.9614 181.598 40.9218C180.054 40.7498 178.349 40.8222 177.135 41.8272C176.307 41.3054 175.33 41.079 174.36 41.184C173.39 41.2889 172.482 41.7192 171.781 42.4066C171.531 42.7572 171.183 43.0225 170.781 43.1671C170.494 43.1881 170.206 43.1384 169.942 43.0222C168.817 42.534 167.572 42.4046 166.372 42.651C165.773 42.796 165.248 43.1638 164.903 43.6817C164.558 44.1996 164.416 44.8301 164.507 45.4486C164.064 45.5026 163.648 45.6929 163.314 45.9939C162.981 46.2949 162.746 46.6923 162.642 47.1325C162.621 47.4087 162.536 47.6758 162.392 47.9111C162.133 48.2189 161.678 48.2008 161.294 48.237C160.562 48.3017 159.881 48.6442 159.387 49.1959C158.893 49.7477 158.622 50.4682 158.629 51.2136C158.636 51.959 158.919 52.6743 159.423 53.2168C159.927 53.7593 160.615 54.0889 161.348 54.1399C161.263 54.5037 161.254 54.8812 161.32 55.2488C161.386 55.6165 161.526 55.9664 161.731 56.2766C162.204 57.0461 162.838 57.1004 163.463 57.5803C163.829 57.87 163.686 57.8971 163.668 58.4856C163.65 59.0271 163.677 59.5692 163.748 60.1062C163.87 61.1405 164.125 62.1541 164.507 63.121C164.775 63.8181 165.114 64.4881 165.355 65.1942C165.687 66.2759 165.908 67.3893 166.015 68.5169L167.524 64.1893C167.54 64.1302 167.54 64.0674 167.524 64.0082C167.493 63.9279 167.437 63.8607 167.363 63.8181C166.705 63.2982 166.242 62.566 166.051 61.7428C165.859 60.9196 165.951 60.0547 166.31 59.2914C166.41 59.052 166.57 58.8429 166.773 58.6843C166.976 58.5257 167.216 58.4229 167.47 58.386C168.077 58.386 168.541 58.9202 168.835 59.4543C169.149 60.0234 169.386 60.6323 169.541 61.265C169.949 60.2743 170.512 59.3571 171.209 58.549C171.504 58.214 171.861 57.6436 172.334 57.8156C172.807 57.9877 173.03 58.8568 173.226 59.1737C173.93 58.8962 174.57 58.4774 175.11 57.9424C175.047 58.5707 175.164 59.2039 175.445 59.7671C175.727 60.3303 176.162 60.7998 176.698 61.1202C177.823 61.6543 179.456 60.8938 179.456 59.6263C179.456 60.1967 181.892 59.237 182.071 59.1284C182.259 59.4944 182.551 59.795 182.909 59.9918C183.266 60.1886 183.674 60.2726 184.079 60.2329Z" fill="#473F47"/>
<path d="M172.307 75.9136C173.026 76.0093 173.751 76.0396 174.476 76.0041C174.381 76.0091 174.289 76.037 174.208 76.0856C173.315 76.5021 173.387 77.9687 173.449 78.8017C173.669 79.7388 173.562 80.7242 173.146 81.5901C172.868 81.5923 172.591 81.5526 172.325 81.4724C172.052 81.3747 171.8 81.224 171.584 81.0288C170.775 80.3529 170.183 79.4472 169.884 78.4279C169.585 77.4085 169.593 76.3218 169.906 75.307C170.679 75.6086 171.485 75.8123 172.307 75.9136V75.9136Z" fill="#96625E"/>
<path d="M207.676 92.7079C207.676 92.7079 224.018 104.939 221.76 117.152C219.662 128.514 217.779 137.55 217.779 137.55L210.131 133.023C210.131 133.023 215.245 115.903 204.571 108.461C193.897 101.019 207.676 92.7079 207.676 92.7079Z" fill="white"/>
<path d="M208.773 132.851L208.041 136.699C207.912 137.186 207.894 137.697 207.988 138.193C208.037 138.44 208.167 138.664 208.356 138.828C208.545 138.992 208.783 139.087 209.032 139.098C209.567 139.098 210.022 138.501 210.558 138.609C210.749 138.667 210.93 138.756 211.093 138.872C212.236 139.505 213.619 138.872 214.824 138.301C215.016 138.192 215.239 138.15 215.458 138.184C215.716 138.256 215.877 138.519 216.1 138.682C216.323 138.818 216.582 138.882 216.841 138.866C217.101 138.85 217.35 138.754 217.555 138.591C217.959 138.25 218.267 137.807 218.447 137.305C218.928 136.235 219.136 135.059 219.054 133.886C218.971 132.712 218.6 131.578 217.974 130.588C217.29 129.729 216.39 129.072 215.369 128.687C214.349 128.302 213.245 128.201 212.173 128.397C209.853 128.768 209.192 130.615 208.773 132.851Z" fill="#B2857F"/>
<path d="M195.208 151.547H228.952L258.003 133.195L230.131 137.025L195.208 151.547Z" fill="#FFB443"/>
<path d="M196.618 149.672L195.208 151.547H228.952L230.363 149.672H196.618Z" fill="url(#paint5_linear_1532_21290)"/>
<path d="M259.412 131.321L258.002 133.195L228.952 151.547L230.362 149.673L259.412 131.321Z" fill="#FFB443"/>
<path d="M259.412 131.321L258.002 133.195L228.952 151.547L230.362 149.673L259.412 131.321Z" fill="url(#paint6_linear_1532_21290)"/>
<path d="M231.88 135.965L254.96 132.697L230.89 147.672L204.624 148.133L231.88 135.965Z" fill="white"/>
<path d="M192.557 133.938L205.623 129.021L199.322 124.35L185.917 129.021L192.557 133.938Z" fill="url(#paint7_linear_1532_21290)"/>
<path d="M164.596 184.61L112.752 208.62C111.649 209.13 110.392 209.175 109.256 208.746C108.12 208.316 107.198 207.447 106.692 206.329L93.4303 176.851C93.1766 176.304 93.0397 175.708 93.0287 175.104C92.9942 174.185 93.2305 173.276 93.7074 172.494C94.1843 171.712 94.8802 171.092 95.7061 170.713L147.55 146.703C148.165 146.423 148.832 146.282 149.506 146.292C150.18 146.301 150.843 146.46 151.45 146.757C152.405 147.225 153.169 148.016 153.61 148.994L166.854 178.481C167.103 179.034 167.241 179.631 167.262 180.238C167.283 180.845 167.186 181.451 166.977 182.02C166.767 182.589 166.449 183.111 166.04 183.555C165.632 184 165.141 184.358 164.596 184.61V184.61Z" fill="#FFB443"/>
<path d="M164.596 184.61L112.752 208.62C111.649 209.13 110.392 209.175 109.256 208.746C108.12 208.316 107.198 207.447 106.692 206.329L93.4303 176.851C93.1766 176.304 93.0397 175.708 93.0287 175.104C92.9942 174.185 93.2305 173.276 93.7074 172.494C94.1843 171.712 94.8802 171.092 95.7061 170.713L147.55 146.703C148.165 146.423 148.832 146.282 149.506 146.292C150.18 146.301 150.843 146.46 151.45 146.757C152.405 147.225 153.169 148.016 153.61 148.994L166.854 178.481C167.103 179.034 167.241 179.631 167.262 180.238C167.283 180.845 167.186 181.451 166.977 182.02C166.767 182.589 166.449 183.111 166.04 183.555C165.632 184 165.141 184.358 164.596 184.61V184.61Z" fill="url(#paint8_linear_1532_21290)"/>
<path d="M166.996 183.551L115.153 207.561C114.049 208.071 112.792 208.116 111.656 207.686C110.52 207.257 109.598 206.388 109.093 205.27L95.8305 175.801C95.58 175.252 95.4404 174.658 95.42 174.054C95.3873 173.134 95.6242 172.225 96.1008 171.442C96.5774 170.658 97.2722 170.036 98.0974 169.654L149.941 145.653C151.044 145.145 152.299 145.1 153.435 145.527C154.57 145.954 155.492 146.82 156.001 147.934L169.263 177.422C169.512 177.975 169.65 178.573 169.67 179.18C169.691 179.788 169.593 180.394 169.382 180.963C169.172 181.532 168.853 182.054 168.443 182.498C168.034 182.942 167.542 183.3 166.996 183.551V183.551Z" fill="#E52440"/>
<path d="M153.824 145.653L137.634 181.668L95.42 174.008C95.3873 173.089 95.6242 172.18 96.1008 171.396C96.5774 170.613 97.2722 169.991 98.0974 169.608L149.941 145.607C150.552 145.325 151.216 145.182 151.887 145.19C152.558 145.198 153.22 145.356 153.824 145.653Z" fill="url(#paint9_linear_1532_21290)"/>
<path d="M122.497 178.915L118.258 206.067L166.996 183.505L143.426 168.784L137.633 181.668L122.497 178.915Z" fill="url(#paint10_linear_1532_21290)"/>
<path d="M277.994 126.206L244.508 119.497C244.156 119.427 243.821 119.287 243.522 119.085C243.223 118.883 242.966 118.623 242.766 118.32C242.566 118.017 242.428 117.678 242.357 117.32C242.287 116.963 242.287 116.595 242.357 116.238L246.061 97.2256C246.126 96.8691 246.263 96.5301 246.463 96.2297C246.761 95.7696 247.188 95.4102 247.689 95.1973C248.189 94.9844 248.741 94.9278 249.274 95.0347L282.76 101.743C283.156 101.819 283.531 101.984 283.855 102.227C284.18 102.47 284.446 102.785 284.634 103.147C284.936 103.714 285.036 104.369 284.919 105.003L281.207 124.015C281.138 124.373 281.001 124.714 280.802 125.018C280.604 125.323 280.348 125.584 280.049 125.788C279.751 125.991 279.415 126.133 279.063 126.205C278.71 126.277 278.347 126.277 277.994 126.206Z" fill="#E52440"/>
<path d="M284.633 103.128L264.356 114.898L246.507 96.2115C246.805 95.7514 247.232 95.392 247.733 95.1791C248.234 94.9662 248.786 94.9096 249.318 95.0165L282.804 101.725C283.192 101.807 283.558 101.975 283.874 102.218C284.191 102.461 284.45 102.772 284.633 103.128Z" fill="url(#paint11_linear_1532_21290)"/>
<path d="M257.94 108.189L246.525 119.896L277.994 126.206L271.604 110.688L264.357 114.898L257.94 108.189Z" fill="url(#paint12_linear_1532_21290)"/>
<defs>
<linearGradient id="paint0_linear_1532_21290" x1="227.311" y1="137.835" x2="251.462" y2="194.695" gradientUnits="userSpaceOnUse">
<stop offset="0.01" stop-color="white"/>
<stop offset="1" stop-color="white" stop-opacity="0"/>
</linearGradient>
<linearGradient id="paint1_linear_1532_21290" x1="210.191" y1="154.858" x2="322.545" y2="224.633" gradientUnits="userSpaceOnUse">
<stop offset="0.01"/>
<stop offset="0.08" stop-opacity="0.69"/>
<stop offset="0.21" stop-opacity="0.32"/>
<stop offset="1" stop-opacity="0"/>
</linearGradient>
<linearGradient id="paint2_linear_1532_21290" x1="18268.4" y1="21502.4" x2="-4199.69" y2="11623.5" gradientUnits="userSpaceOnUse">
<stop offset="0.01"/>
<stop offset="0.08" stop-opacity="0.69"/>
<stop offset="0.21" stop-opacity="0.32"/>
<stop offset="1" stop-opacity="0"/>
</linearGradient>
<linearGradient id="paint3_linear_1532_21290" x1="13154" y1="3960.91" x2="12796.2" y2="7735.4" gradientUnits="userSpaceOnUse">
<stop offset="0.01"/>
<stop offset="0.08" stop-opacity="0.69"/>
<stop offset="0.21" stop-opacity="0.32"/>
<stop offset="1" stop-opacity="0"/>
</linearGradient>
<linearGradient id="paint4_linear_1532_21290" x1="8701.26" y1="2900.32" x2="10306.2" y2="5564.24" gradientUnits="userSpaceOnUse">
<stop offset="0.01"/>
<stop offset="0.08" stop-opacity="0.69"/>
<stop offset="0.21" stop-opacity="0.32"/>
<stop offset="1" stop-opacity="0"/>
</linearGradient>
<linearGradient id="paint5_linear_1532_21290" x1="7209.59" y1="495.029" x2="7270.24" y2="-190.329" gradientUnits="userSpaceOnUse">
<stop offset="0.01"/>
<stop offset="0.08" stop-opacity="0.69"/>
<stop offset="0.21" stop-opacity="0.32"/>
<stop offset="1" stop-opacity="0"/>
</linearGradient>
<linearGradient id="paint6_linear_1532_21290" x1="7979.24" y1="3017.91" x2="8929.98" y2="4947.65" gradientUnits="userSpaceOnUse">
<stop offset="0.01"/>
<stop offset="0.08" stop-opacity="0.69"/>
<stop offset="0.21" stop-opacity="0.32"/>
<stop offset="1" stop-opacity="0"/>
</linearGradient>
<linearGradient id="paint7_linear_1532_21290" x1="4239.8" y1="1428.56" x2="4366.66" y2="1804.33" gradientUnits="userSpaceOnUse">
<stop offset="0.01"/>
<stop offset="0.08" stop-opacity="0.69"/>
<stop offset="0.21" stop-opacity="0.32"/>
<stop offset="1" stop-opacity="0"/>
</linearGradient>
<linearGradient id="paint8_linear_1532_21290" x1="12396.8" y1="13439.2" x2="4524.93" y2="19648.6" gradientUnits="userSpaceOnUse">
<stop offset="0.01"/>
<stop offset="0.08" stop-opacity="0.69"/>
<stop offset="0.21" stop-opacity="0.32"/>
<stop offset="1" stop-opacity="0"/>
</linearGradient>
<linearGradient id="paint9_linear_1532_21290" x1="22209.9" y1="3046" x2="22903" y2="7155.4" gradientUnits="userSpaceOnUse">
<stop offset="0.01" stop-color="white"/>
<stop offset="1" stop-color="white" stop-opacity="0"/>
</linearGradient>
<linearGradient id="paint10_linear_1532_21290" x1="16782.6" y1="4603.21" x2="23040.6" y2="12418.3" gradientUnits="userSpaceOnUse">
<stop offset="0.01"/>
<stop offset="0.08" stop-opacity="0.69"/>
<stop offset="0.21" stop-opacity="0.32"/>
<stop offset="1" stop-opacity="0"/>
</linearGradient>
<linearGradient id="paint11_linear_1532_21290" x1="-20113.9" y1="-3738.39" x2="-20730.3" y2="-2525.25" gradientUnits="userSpaceOnUse">
<stop offset="0.01" stop-color="white"/>
<stop offset="1" stop-color="white" stop-opacity="0"/>
</linearGradient>
<linearGradient id="paint12_linear_1532_21290" x1="-17452.4" y1="-2781.89" x2="-17682.4" y2="308.791" gradientUnits="userSpaceOnUse">
<stop offset="0.01"/>
<stop offset="0.08" stop-opacity="0.69"/>
<stop offset="0.21" stop-opacity="0.32"/>
<stop offset="1" stop-opacity="0"/>
</linearGradient>
</defs>
</svg>
