<svg width="244" height="184" viewBox="0 0 244 184" fill="none" xmlns="http://www.w3.org/2000/svg">
<g clip-path="url(#clip0_1532_21438)">
<path opacity="0.24" d="M66.2035 17.8521C63.9694 17.3944 61.7108 17.0659 59.4389 16.8683C48.4504 15.9975 37.4949 18.9147 28.3926 25.1351C13.1471 35.6108 6.54185 54.8771 2.72252 72.2213C-1.58845 91.6926 -1.13322 112.585 6.71028 131.131C17.4354 156.496 43.7063 176.004 71.1563 173.895C83.106 172.984 94.482 168.252 106.395 166.904C120.079 165.355 133.827 168.307 147.57 169.181C168.294 170.486 189.045 167.079 208.265 159.216C219.582 154.574 230.685 148.025 237.299 137.731C247.191 122.323 244.915 101.927 238.387 84.8059C234.923 75.6965 230.403 67.0153 226.096 58.2703C221.79 49.5253 218.94 40.1609 214.934 31.3977C208.224 16.7226 189.719 8.05957 174.178 10.2868C160.48 12.2453 148.717 21.1907 135.238 24.3152C128.838 25.7955 122.205 25.9276 115.636 25.7727C104.492 25.5131 93.3303 24.4473 82.4823 21.883C77.0424 20.6123 71.6707 18.9407 66.2035 17.8521Z" fill="#FFB443"/>
<path opacity="0.24" d="M143.659 148.385C141.16 148.512 138.438 148.731 136.626 150.452C158.458 152.808 180.496 152.492 202.251 149.51C200.886 146.973 197.44 146.604 194.549 146.54C186.355 146.358 176.745 144.058 168.669 145.392C160.316 146.777 152.136 148.385 143.659 148.385Z" fill="#FFB443"/>
<path opacity="0.24" d="M39.9732 148.457C38.6076 148.489 36.7002 149.118 36.9824 150.471C37.1782 151.382 38.3071 151.728 39.2585 151.873C62.1153 155.481 85.5229 155.098 108.412 151.668C108.125 150.229 102.589 150.817 100.218 150.421C97.3041 149.933 94.3907 149.423 91.4955 148.826C86.5808 147.797 81.559 147.372 76.5414 147.56L39.9732 148.457Z" fill="#FFB443"/>
<path d="M159.337 33.7525H72.0892C65.7084 33.7525 60.5356 38.928 60.5356 45.3122V94.1748C60.5356 100.559 65.7084 105.735 72.0892 105.735H159.337C165.718 105.735 170.891 100.559 170.891 94.1748V45.3122C170.891 38.928 165.718 33.7525 159.337 33.7525Z" fill="#FFB443"/>
<path d="M158.728 33.7525H71.4794C65.0985 33.7525 59.9258 38.928 59.9258 45.3123V94.1748C59.9258 100.559 65.0985 105.735 71.4794 105.735H158.728C165.108 105.735 170.281 100.559 170.281 94.1748V45.3123C170.281 38.928 165.108 33.7525 158.728 33.7525Z" fill="url(#paint0_linear_1532_21438)"/>
<path opacity="0.24" d="M108.84 82.155C108.847 84.6274 108.129 87.0475 106.775 89.1157C105.421 91.1838 103.49 92.809 101.222 93.79C98.9538 94.7709 96.4478 95.0645 94.0144 94.6343C91.5811 94.2041 89.3273 93.0691 87.5325 91.3698C85.7376 89.6706 84.4804 87.4818 83.9167 85.0746C83.353 82.6674 83.5076 80.1477 84.3612 77.8275C85.2149 75.5074 86.7301 73.4888 88.7192 72.0219C90.7083 70.555 93.0839 69.7042 95.5515 69.575C95.7766 69.5486 96.0033 69.5379 96.2298 69.5431C99.5733 69.5431 102.78 70.8717 105.145 73.2368C107.509 75.6018 108.838 78.8097 108.84 82.155Z" fill="#FFB443"/>
<path opacity="0.45" d="M107.952 48.1817C107.852 48.5278 106.236 48.9605 105.822 49.2247C105.108 49.7276 104.481 50.3429 103.964 51.0466C102.976 52.3492 102.198 53.8067 101.033 54.9545C100.69 55.2429 100.393 55.5806 100.15 55.9565C99.8355 56.4985 99.8355 57.1544 99.6488 57.7465C99.4539 58.3432 99.0856 58.8682 98.5909 59.2544C98.0963 59.6406 97.4978 59.8704 96.8719 59.9145C97.3743 60.3535 97.7232 60.9416 97.8678 61.5931C98.0124 62.2445 97.9451 62.9251 97.6756 63.5356C97.4061 64.146 96.9487 64.6542 96.37 64.9861C95.7914 65.3179 95.1219 65.456 94.4593 65.3801C95.1317 66.6679 95.5051 68.0909 95.5518 69.5431C93.7465 69.6353 91.9822 70.1154 90.3789 70.9509C88.7756 71.7863 87.371 72.9575 86.2607 74.3847C85.8649 74.2955 85.4921 74.1246 85.166 73.8831C84.8399 73.6415 84.5678 73.3346 84.367 72.9819C83.3609 73.8928 81.7494 73.3098 80.6933 72.4763C76.874 69.5112 75.7996 63.5583 78.3489 59.4454C79.6008 57.3958 82.2866 55.8017 84.3351 57.0314C84.8722 56.166 86.0831 55.9064 87.0664 56.166C88.0453 56.5076 88.9384 57.0577 89.684 57.7784C89.4928 56.2662 90.7765 54.8087 92.2696 54.5127C93.0317 54.4142 93.8063 54.509 94.5223 54.7884C95.2382 55.0678 95.8724 55.5227 96.3666 56.1114C95.9478 55.624 104.219 48.496 105.089 47.913C105.576 47.6078 108.526 46.2186 107.952 48.1817Z" fill="#FFB443"/>
<path opacity="0.24" d="M106.072 67.0699C102.917 71.1327 98.9295 75.4004 93.7809 75.4915C92.8386 75.4915 91.8553 75.3822 90.9813 75.7466C89.3015 76.448 88.8144 78.5523 88.5504 80.3605C87.8903 84.9152 87.2348 89.5382 88.0951 94.0245C88.7643 97.5225 90.3394 100.929 90.0071 104.473C89.9434 105.124 89.7658 105.839 89.2059 106.186C88.7624 106.386 88.2682 106.444 87.7901 106.354L79.9057 105.662C79.248 105.668 78.6027 105.483 78.0484 105.129C77.6052 104.707 77.2897 104.169 77.1379 103.576C73.9513 94.5073 74.7161 84.6009 75.5082 75.027C75.6812 72.9181 75.8633 70.7729 76.6372 68.8007C77.411 66.8285 78.8632 65.0249 80.8662 64.3462C85.4184 62.8022 89.8204 67.4981 94.6322 67.6848C99.6396 67.8761 103.14 63.4672 106.723 60.6569C107.92 59.7141 110.861 56.8857 111.125 59.7779C111.316 61.7 107.219 65.617 106.072 67.0699Z" fill="#FFB443"/>
<path opacity="0.24" d="M111.239 94.3297C118.205 94.3297 123.853 88.6791 123.853 81.7087C123.853 74.7383 118.205 69.0877 111.239 69.0877C104.272 69.0877 98.6243 74.7383 98.6243 81.7087C98.6243 88.6791 104.272 94.3297 111.239 94.3297Z" fill="#FFB443"/>
<path d="M59.9029 71.2511C59.4159 72.4763 58.9197 73.7744 59.1473 75.0725C59.3319 75.8881 59.6702 76.661 60.1442 77.3498C61.5176 79.6003 63.085 81.7263 64.8285 83.7036C65.2805 84.3199 65.9069 84.7863 66.6266 85.0427C67.2953 80.2145 67.4555 75.3294 67.1046 70.4677C67.1085 70.0295 67.007 69.5968 66.8087 69.2061C66.4731 68.7643 66.0159 68.4303 65.4931 68.245C64.2868 67.6803 63.085 67.0198 61.8513 66.5644C61.4871 67.0198 60.2762 71.2511 59.9029 71.2511Z" fill="#C8A59C"/>
<path d="M109.827 56.8538L104.792 56.0294C104.792 56.0294 104.273 54.9591 105.066 54.5947L113.032 55.9611L109.827 56.8538Z" fill="#606161"/>
<path d="M94.4538 65.9222C95.2154 66.0328 95.9882 66.0435 96.7527 65.9541C97.0485 65.8356 105.661 58.9945 108.962 57.3002C110.488 56.3545 112.243 55.8427 114.038 55.8199C114.866 55.7652 115.858 55.7926 116.314 56.4985C116.446 56.7462 116.506 57.0259 116.488 57.306C116.469 57.5862 116.373 57.8555 116.209 58.0836C115.877 58.5355 115.435 58.8946 114.925 59.1266C113.872 59.6745 112.718 59.9986 111.534 60.0785C111.225 60.0762 110.918 60.1223 110.623 60.2152C110.243 60.4037 109.916 60.6839 109.672 61.0304C107.229 63.9242 104.672 66.7132 102.001 69.3974C100.577 70.8276 98.965 72.3033 96.9575 72.531C96.2352 72.5934 95.5077 72.5457 94.7997 72.3898C93.4166 72.1213 92.0775 71.6614 90.8211 71.0234C90.5477 70.9051 90.306 70.7241 90.1155 70.4951C89.9153 70.1725 89.8244 69.794 89.856 69.4156C89.8838 68.1578 90.3381 66.9468 91.1443 65.9814C92.2004 64.7243 93.1018 65.6261 94.4538 65.9222Z" fill="#C8A59C"/>
<path d="M82.4414 49.0153C82.5252 50.0608 82.4855 51.1126 82.3231 52.1489C82.1182 53.2056 81.5264 54.326 80.5022 54.5993C79.8922 54.7587 79.1775 54.5993 78.6813 55.0138C78.308 55.319 78.2033 55.8336 77.9529 56.2481C77.71 56.5936 77.3865 56.8746 77.0105 57.0667C76.6345 57.2587 76.2173 57.3561 75.7951 57.3503C74.9511 57.3288 74.1168 57.164 73.3278 56.863C73.1214 56.8147 72.9295 56.7179 72.7679 56.5806C72.5589 56.3111 72.4583 55.9732 72.4857 55.6332C72.3916 53.0371 72.3552 50.4379 72.3764 47.8356C72.3338 47.0845 72.4518 46.333 72.7224 45.6312C73.1992 44.8021 73.9303 44.1489 74.8073 43.7683C76.0469 43.1287 77.3809 42.692 78.7587 42.4748C80.0287 42.2698 82.141 42.3882 82.3731 44.0279C82.3844 44.6272 82.357 45.2267 82.2912 45.8225C82.314 46.8746 82.4004 47.9404 82.4414 49.0153Z" fill="#C8A59C"/>
<path d="M83.2107 40.6119C83.4125 40.9175 83.5406 41.2658 83.5848 41.6294C83.6291 41.993 83.5882 42.3619 83.4656 42.707C83.2091 43.3985 82.7683 44.0065 82.191 44.4651C81.8484 44.7129 81.5419 45.0073 81.2805 45.3396C80.7297 46.164 80.9937 47.2663 80.8253 48.2501C80.8253 48.3275 80.7798 48.4232 80.6978 48.4368C80.6159 48.4505 80.5567 48.3822 80.5021 48.3184C80.3494 48.1418 80.1443 48.0188 79.9167 47.9673C79.6891 47.9158 79.4511 47.9386 79.2373 48.0322C79.0236 48.1259 78.8455 48.2856 78.729 48.4879C78.6126 48.6902 78.5639 48.9245 78.5901 49.1565C78.6539 49.7486 79.1865 50.2359 79.1637 50.8326C79.1165 51.1708 78.9708 51.4876 78.7449 51.7435C78.5799 52.0107 78.3367 52.2206 78.0484 52.3447C77.8115 52.3971 77.5661 52.3971 77.3292 52.3447L72.4128 51.7754C72.1358 51.7545 71.8623 51.7009 71.5979 51.616C71.2511 51.4672 70.9425 51.2414 70.6957 50.9558C70.4489 50.6701 70.2701 50.3321 70.173 49.9672C69.9869 49.2355 69.9071 48.4808 69.9363 47.7263C69.9363 46.3599 69.8726 44.9206 69.3127 43.6544C69.2099 43.4745 69.1594 43.2694 69.167 43.0623C69.2022 42.9242 69.2692 42.7963 69.3628 42.6888C70.1412 41.6822 71.3248 40.9899 71.8574 39.8376C71.9409 39.621 72.0462 39.4135 72.1715 39.2182C72.5812 38.6761 73.3778 38.667 74.0561 38.7035L77.0925 38.872C77.7889 38.9084 78.3307 38.6488 78.9953 38.6033C79.4883 38.6037 79.9756 38.7093 80.4247 38.913C81.3351 39.3138 82.6189 39.7966 83.2107 40.6119Z" fill="#606161"/>
<path d="M83.2107 40.6119C83.4125 40.9175 83.5406 41.2658 83.5848 41.6294C83.6291 41.993 83.5882 42.3619 83.4656 42.707C83.2091 43.3985 82.7683 44.0065 82.191 44.4651C81.8484 44.7129 81.5419 45.0073 81.2805 45.3396C80.7297 46.164 80.9937 47.2663 80.8253 48.2501C80.8253 48.3275 80.7798 48.4232 80.6978 48.4368C80.6159 48.4505 80.5567 48.3822 80.5021 48.3184C80.3494 48.1418 80.1443 48.0188 79.9167 47.9673C79.6891 47.9158 79.4511 47.9386 79.2373 48.0322C79.0236 48.1259 78.8455 48.2856 78.729 48.4879C78.6126 48.6902 78.5639 48.9245 78.5901 49.1565C78.6539 49.7486 79.1865 50.2359 79.1637 50.8326C79.1165 51.1708 78.9708 51.4876 78.7449 51.7435C78.5799 52.0107 78.3367 52.2206 78.0484 52.3447C77.8115 52.3971 77.5661 52.3971 77.3292 52.3447L72.4128 51.7754C72.1358 51.7545 71.8623 51.7009 71.5979 51.616C71.2511 51.4672 70.9425 51.2414 70.6957 50.9558C70.4489 50.6701 70.2701 50.3321 70.173 49.9672C69.9869 49.2355 69.9071 48.4808 69.9363 47.7263C69.9363 46.3599 69.8726 44.9206 69.3127 43.6544C69.2099 43.4745 69.1594 43.2694 69.167 43.0623C69.2022 42.9242 69.2692 42.7963 69.3628 42.6888C70.1412 41.6822 71.3248 40.9899 71.8574 39.8376C71.9409 39.621 72.0462 39.4135 72.1715 39.2182C72.5812 38.6761 73.3778 38.667 74.0561 38.7035L77.0925 38.872C77.7889 38.9084 78.3307 38.6488 78.9953 38.6033C79.4883 38.6037 79.9756 38.7093 80.4247 38.913C81.3351 39.3138 82.6189 39.7966 83.2107 40.6119Z" fill="url(#paint1_linear_1532_21438)"/>
<path d="M72.18 56.0295C74.0008 56.3483 75.9128 56.2663 77.7792 56.3392C80.6107 56.444 83.5196 56.945 85.8958 58.4845C86.8598 59.1492 87.7659 59.8942 88.6044 60.7117L92.7014 64.4966C92.8646 64.6063 92.9903 64.7632 93.0619 64.9464C93.1335 65.1295 93.1475 65.3301 93.102 65.5214C92.884 67.5284 91.9225 69.3809 90.4071 70.7138C90.3183 70.8089 90.2022 70.8742 90.0748 70.9005C89.9491 70.9017 89.8252 70.8703 89.7152 70.8094L85.1629 68.6961C85.0059 69.5926 85.0059 70.5096 85.1629 71.4061C86.3329 77.9785 85.1629 84.8242 84.5894 91.474C84.5864 91.777 84.5164 92.0757 84.3845 92.3485C84.1948 92.6288 83.934 92.8536 83.6288 92.9998C81.0659 94.4345 77.9841 94.4937 75.0479 94.4755C72.3165 94.4755 69.4258 94.3389 67.2317 92.7447C66.9687 92.5714 66.7466 92.343 66.5807 92.0752C66.4172 91.7013 66.3454 91.2937 66.3713 90.8864L66.1164 73.5559C66.1366 73.1451 66.0794 72.7341 65.9479 72.3443C65.5428 71.3332 61.7735 69.7573 61.1226 66.6647C61.5823 63.4263 69.5715 56.5077 72.18 56.0295Z" fill="#FFB443"/>
<path d="M72.18 56.0295C74.0008 56.3483 75.9128 56.2663 77.7792 56.3392C80.6107 56.444 83.5196 56.945 85.8958 58.4845C86.8598 59.1492 87.7659 59.8942 88.6044 60.7117L92.7014 64.4966C92.8646 64.6063 92.9903 64.7632 93.0619 64.9464C93.1335 65.1295 93.1475 65.3301 93.102 65.5214C92.884 67.5284 91.9225 69.3809 90.4071 70.7138C90.3183 70.8089 90.2022 70.8742 90.0748 70.9005C89.9491 70.9017 89.8252 70.8703 89.7152 70.8094L85.1629 68.6961C85.0059 69.5926 85.0059 70.5096 85.1629 71.4061C86.3329 77.9785 85.1629 84.8242 84.5894 91.474C84.5864 91.777 84.5164 92.0757 84.3845 92.3485C84.1948 92.6288 83.934 92.8536 83.6288 92.9998C81.0659 94.4345 77.9841 94.4937 75.0479 94.4755C72.3165 94.4755 69.4258 94.3389 67.2317 92.7447C66.9687 92.5714 66.7466 92.343 66.5807 92.0752C66.4172 91.7013 66.3454 91.2937 66.3713 90.8864L66.1164 73.5559C66.1366 73.1451 66.0794 72.7341 65.9479 72.3443C65.5428 71.3332 61.7735 69.7573 61.1226 66.6647C61.5823 63.4263 69.5715 56.5077 72.18 56.0295Z" fill="url(#paint2_linear_1532_21438)"/>
<path d="M84.3711 92.3302C84.3711 92.3302 88.1267 112.371 88.1267 115.054C88.1267 117.736 83.2467 143.511 83.2467 143.511C83.2467 143.511 78.9722 143.757 77.8751 142.29L79.9509 117.627L76.4821 107.033L74.6931 120.915L63.3398 142.901L57.7314 139.489L68.7433 115.805C68.7433 115.805 63.2214 104.131 66.5901 92.0752L84.3711 92.3302Z" fill="#606161"/>
<path d="M84.3711 92.3302C84.3711 92.3302 88.1267 112.371 88.1267 115.054C88.1267 117.736 83.2467 143.511 83.2467 143.511C83.2467 143.511 78.9722 143.757 77.8751 142.29L79.9509 117.627L76.4821 107.033L74.6931 120.915L63.3398 142.901L57.7314 139.489L68.7433 115.805C68.7433 115.805 63.2214 104.131 66.5901 92.0752L84.3711 92.3302Z" fill="url(#paint3_linear_1532_21438)"/>
<path d="M77.9483 150.48C77.9425 150.547 77.9535 150.614 77.9801 150.676C78.031 150.753 78.109 150.808 78.1986 150.831C79.0134 151.09 79.8658 151.212 80.7206 151.19C83.4792 151.263 86.2409 151.325 89.0057 151.377C89.0057 150.056 87.8676 148.986 86.643 148.494C85.4185 148.002 84.0756 147.92 82.801 147.583C82.5399 147.54 82.3018 147.408 82.1272 147.21C82.0215 147.016 81.9711 146.797 81.9816 146.576L81.8814 143.967C81.8949 143.809 81.8764 143.65 81.8271 143.5C81.7779 143.35 81.6988 143.211 81.5946 143.092C81.4743 143.005 81.3383 142.941 81.194 142.905C80.6887 142.755 79.3959 142.213 78.9179 142.536C78.4399 142.86 78.4399 144.185 78.3671 144.732C78.1 146.636 77.96 148.557 77.9483 150.48V150.48Z" fill="#606161"/>
<path d="M55.7873 145.356C55.7422 145.411 55.7089 145.475 55.6895 145.544C55.67 145.613 55.6648 145.685 55.6742 145.755C55.6836 145.826 55.7074 145.894 55.744 145.956C55.7807 146.017 55.8295 146.07 55.8875 146.112L59.8889 150.667C59.9924 150.803 60.1225 150.918 60.2713 151.004C60.4471 151.077 60.6363 151.113 60.8267 151.108C62.4837 151.177 64.1498 151.172 65.8068 151.108C65.6998 150.565 65.472 150.053 65.1402 149.61C64.8085 149.167 64.3813 148.804 63.8903 148.549C63.2667 148.23 62.5247 148.093 61.9966 147.638C61.5282 147.203 61.1627 146.669 60.9268 146.075C60.7133 145.776 60.605 145.414 60.619 145.047C60.633 144.679 60.7685 144.326 61.0042 144.044L61.8282 142.678C61.948 142.531 62.0311 142.358 62.0707 142.172C62.1103 141.987 62.1052 141.795 62.0558 141.612C61.9372 141.412 61.7611 141.254 61.5505 141.156C60.9769 140.819 60.1848 140.132 59.5293 140.009C58.8738 139.886 58.6188 140.5 58.282 141.052C57.4762 142.45 56.452 143.866 55.7873 145.356Z" fill="#606161"/>
<path opacity="0.24" d="M159.784 49.3432H129.384C128.778 49.3432 128.287 49.8346 128.287 50.4408V50.4454C128.287 51.0516 128.778 51.5431 129.384 51.5431H159.784C160.39 51.5431 160.881 51.0516 160.881 50.4454V50.4408C160.881 49.8346 160.39 49.3432 159.784 49.3432Z" fill="#FFB443"/>
<path opacity="0.24" d="M159.42 53.1281H129.02C128.414 53.1281 127.923 53.6196 127.923 54.2258V54.2304C127.923 54.8366 128.414 55.328 129.02 55.328H159.42C160.025 55.328 160.517 54.8366 160.517 54.2304V54.2258C160.517 53.6196 160.025 53.1281 159.42 53.1281Z" fill="#FFB443"/>
<path opacity="0.24" d="M159.051 56.9177H128.651C128.045 56.9177 127.554 57.4091 127.554 58.0153V58.0199C127.554 58.6261 128.045 59.1176 128.651 59.1176H159.051C159.657 59.1176 160.148 58.6261 160.148 58.0199V58.0153C160.148 57.4091 159.657 56.9177 159.051 56.9177Z" fill="#FFB443"/>
<path opacity="0.24" d="M158.686 60.7025H128.286C127.68 60.7025 127.189 61.1939 127.189 61.8002V61.8047C127.189 62.411 127.68 62.9024 128.286 62.9024H158.686C159.292 62.9024 159.783 62.411 159.783 61.8047V61.8002C159.783 61.1939 159.292 60.7025 158.686 60.7025Z" fill="#FFB443"/>
<path opacity="0.24" d="M160.516 66.8103H126.702V96.6116H160.516V66.8103Z" fill="#FFB443"/>
<path opacity="0.24" d="M130.039 76.9081L136.872 88.3039L147.943 74.4622L152.664 81.1394L159.338 70.231V94.9811H127.923V81.6313L130.039 76.9081Z" fill="#FFB443"/>
<path opacity="0.24" d="M161.827 71.4151C160.266 69.9394 157.862 69.616 155.786 70.158C153.71 70.7 151.908 72.0027 150.324 73.4465C149.343 74.2656 148.526 75.2622 147.915 76.3843C147.173 77.8873 147.087 79.6272 147.078 81.3033C147.064 85.0119 147.369 88.7148 147.988 92.3712C148.018 92.7198 148.135 93.0551 148.33 93.3459C148.912 94.0701 150.05 93.733 150.975 93.8332C152.094 93.9562 153.009 94.8171 153.578 95.7918C154.08 96.8004 154.518 97.8394 154.889 98.9026C155.729 100.857 157.068 102.555 158.773 103.826C160.002 104.737 161.809 105.388 162.992 104.409C163.392 104.026 163.703 103.559 163.903 103.043C169.548 90.7224 164.904 75.8924 168.97 62.9616C169.225 62.1509 171.082 58.3523 169.88 57.783C168.97 57.3731 167.581 59.7278 167.19 60.2562C165.987 61.8197 164.921 63.4838 164.003 65.2299C163.63 65.9176 161.203 70.8276 161.827 71.4151Z" fill="#FFB443"/>
<path d="M121.29 42.5066C120.407 43.9641 118.358 45.6949 115.722 47.0886C111.648 49.2385 107.71 49.7622 106.914 48.2501C106.816 48.0245 106.769 47.7798 106.778 47.5339C106.787 47.288 106.85 47.0471 106.964 46.829C107.328 45.9181 108.248 44.8341 109.568 43.7728C110.587 42.9559 111.685 42.2419 112.845 41.6413C115.376 40.3022 117.853 39.5917 119.555 39.6099L121.29 42.5066Z" fill="url(#paint4_linear_1532_21438)"/>
<path opacity="0.24" d="M109.567 43.7728C108.247 44.834 107.328 45.9089 106.964 46.829C105.994 45.6812 103.322 44.8158 103.322 44.8158C105.525 43.2171 108.734 43.6361 109.567 43.7728Z" fill="#FFB443"/>
<path opacity="0.24" d="M108.503 53.4059C108.503 53.4059 112.072 51.584 112.718 48.373C112.718 48.373 109.686 49.5845 108.248 49.0289C108.248 49.0289 109.204 50.3998 108.503 53.4059Z" fill="#FFB443"/>
<path opacity="0.24" d="M121.308 42.4747L119.574 39.5779C119.574 39.5779 122.419 39.1225 122.801 39.6326C123.184 40.1427 121.499 42.247 121.308 42.4747Z" fill="#FFB443"/>
<path opacity="0.24" d="M112.359 46.4555C113.068 46.4555 113.642 45.8805 113.642 45.1711C113.642 44.4617 113.068 43.8867 112.359 43.8867C111.65 43.8867 111.075 44.4617 111.075 45.1711C111.075 45.8805 111.65 46.4555 112.359 46.4555Z" fill="#FFB443"/>
<path opacity="0.24" d="M115.03 44.6701C115.588 44.6701 116.041 44.2174 116.041 43.6589C116.041 43.1005 115.588 42.6478 115.03 42.6478C114.472 42.6478 114.02 43.1005 114.02 43.6589C114.02 44.2174 114.472 44.6701 115.03 44.6701Z" fill="#FFB443"/>
<path opacity="0.24" d="M117.566 43.3856C118.124 43.3856 118.577 42.9329 118.577 42.3745C118.577 41.8161 118.124 41.3634 117.566 41.3634C117.008 41.3634 116.555 41.8161 116.555 42.3745C116.555 42.9329 117.008 43.3856 117.566 43.3856Z" fill="#FFB443"/>
<path d="M65.9346 72.3261V64.2825C65.9346 64.2825 62.1654 66.0771 61.5144 67.7031C61.5144 67.7031 65.0606 71.8979 65.9346 72.3261Z" fill="url(#paint5_linear_1532_21438)"/>
<path d="M163.69 118.342C163.5 119.076 163.525 119.849 163.762 120.569C165.06 126.272 166.275 132.047 166.303 137.877C166.303 139.476 166.216 141.115 165.583 142.582C164.985 143.868 164.092 144.993 162.975 145.866C162.561 146.212 162.064 146.668 162.21 147.187C162.28 147.398 162.416 147.581 162.597 147.711C162.951 147.989 163.377 148.159 163.825 148.202C164.273 148.245 164.723 148.158 165.123 147.952C165.563 147.681 165.955 147.339 166.284 146.941L169.334 143.62C169.5 143.459 169.635 143.267 169.73 143.056C169.827 142.614 169.774 142.152 169.58 141.744C168.337 137.836 169.994 133.655 170.204 129.56C170.395 125.748 169.316 121.999 168.251 118.333C168.16 117.927 167.991 117.542 167.755 117.199C167.531 116.952 167.254 116.759 166.945 116.636C166.636 116.513 166.302 116.462 165.97 116.488C165.307 116.545 164.657 116.707 164.045 116.966" fill="url(#paint6_linear_1532_21438)"/>
<path d="M169.958 119.125C170.519 123.519 171.043 127.922 171.528 132.334C172.033 136.952 172.493 141.703 171.291 146.194C171.046 147.105 170.754 148.207 171.332 148.972C171.623 149.301 172.022 149.514 172.457 149.572C172.892 149.629 173.333 149.528 173.7 149.286C174.057 149.035 174.358 148.711 174.584 148.336C174.81 147.961 174.955 147.543 175.011 147.109C175.109 146.242 175.109 145.367 175.011 144.499C174.71 138.929 175.98 133.404 176.322 127.838C176.501 125.743 176.403 123.632 176.03 121.562C175.602 119.467 174.56 116.452 172.598 115.29C170.076 113.783 169.757 117.54 169.958 119.125Z" fill="url(#paint7_linear_1532_21438)"/>
<path d="M160.803 147.911C160.665 148.035 160.558 148.192 160.494 148.366C160.47 148.528 160.499 148.692 160.576 148.836C160.653 148.979 160.774 149.094 160.922 149.163C161.219 149.294 161.545 149.349 161.868 149.323C163.109 149.357 164.327 148.989 165.342 148.275C166.676 147.241 167.299 145.438 168.751 144.586C168.797 144.553 168.85 144.531 168.906 144.522C169.307 144.472 169.166 145.251 169.507 145.456C169.849 145.661 170.126 145.196 170.19 144.841C170.308 144.204 170.308 143.551 170.19 142.914C170.144 142.7 170.058 142.459 169.844 142.395C169.63 142.331 169.361 142.618 169.229 142.851C168.842 143.624 168.271 144.292 167.568 144.796C166.271 145.629 164.969 145.196 163.585 145.506C162.383 145.802 161.609 147.055 160.803 147.911Z" fill="#FFB443"/>
<path d="M170.759 149.355C170.725 149.889 170.774 150.425 170.905 150.944C170.973 151.204 171.1 151.444 171.276 151.646C171.452 151.848 171.672 152.007 171.92 152.11C172.231 152.184 172.556 152.181 172.866 152.102C173.176 152.022 173.462 151.869 173.7 151.655C174.545 150.964 175.141 150.015 175.398 148.954C175.649 147.897 175.716 146.805 175.598 145.725C175.562 145.292 175.457 144.786 175.065 144.6C174.967 145.131 174.718 145.623 174.346 146.015C173.974 146.407 173.497 146.683 172.971 146.809C172.636 146.898 172.279 146.859 171.971 146.7C171.662 146.541 171.423 146.273 171.301 145.948C170.677 146.777 170.777 148.321 170.759 149.355Z" fill="#FFB443"/>
<path d="M161.336 99.0529C161.181 101.855 161.228 104.665 161.477 107.461L161.933 114.334L162.42 121.831C162.401 122.529 162.574 123.219 162.92 123.826C163.376 124.463 164.159 124.586 164.86 124.659C168.932 125.088 173.024 125.291 177.119 125.265C177.656 125.265 178.266 125.224 178.626 124.75C178.861 124.36 178.988 123.913 178.994 123.457C179.231 121.061 179.277 118.638 179.518 116.242C179.905 112.325 180.811 108.499 181.189 104.601C181.566 100.702 181.38 96.5114 179.727 93.0499C179.563 92.6335 179.301 92.2631 178.963 91.9704C178.602 91.7429 178.187 91.617 177.761 91.606C173.938 91.1929 170.093 91.0179 166.248 91.0822C165.579 91.0822 164.213 90.8272 163.626 91.2143C163.112 91.5514 162.716 92.9314 162.483 93.5463C161.856 95.3221 161.47 97.1742 161.336 99.0529Z" fill="#606161"/>
<path d="M162.565 54.5218C161.991 56.2299 161.632 58.0973 162.16 59.8189C162.187 59.9427 162.249 60.0563 162.337 60.1469C162.417 60.2087 162.508 60.2536 162.606 60.279L163.311 60.5113C163.613 60.6422 163.944 60.6924 164.272 60.657C164.436 60.6357 164.586 60.5546 164.693 60.4293C164.801 60.3041 164.858 60.1435 164.855 59.9783L165.132 60.9713L168.915 60.6297C169.039 60.6285 169.161 60.5922 169.266 60.5249C169.324 60.4646 169.369 60.3932 169.399 60.3149C169.429 60.2366 169.442 60.1531 169.439 60.0694C169.671 57.7511 169.616 55.4146 169.643 53.0826C169.643 51.8209 169.689 50.5092 169.188 49.3523C168.688 48.1954 167.468 47.2435 166.225 47.4803C164.982 47.7172 164.358 48.6919 164.167 49.8351C163.885 51.452 163.088 52.9778 162.565 54.5218Z" fill="#606161"/>
<path d="M162.565 54.5218C161.991 56.2299 161.632 58.0973 162.16 59.8189C162.187 59.9427 162.249 60.0563 162.337 60.1469C162.417 60.2087 162.508 60.2536 162.606 60.279L163.311 60.5113C163.613 60.6422 163.944 60.6924 164.272 60.657C164.436 60.6357 164.586 60.5546 164.693 60.4293C164.801 60.3041 164.858 60.1435 164.855 59.9783L165.132 60.9713L168.915 60.6297C169.039 60.6285 169.161 60.5922 169.266 60.5249C169.324 60.4646 169.369 60.3932 169.399 60.3149C169.429 60.2366 169.442 60.1531 169.439 60.0694C169.671 57.7511 169.616 55.4146 169.643 53.0826C169.643 51.8209 169.689 50.5092 169.188 49.3523C168.688 48.1954 167.468 47.2435 166.225 47.4803C164.982 47.7172 164.358 48.6919 164.167 49.8351C163.885 51.452 163.088 52.9778 162.565 54.5218Z" fill="url(#paint8_linear_1532_21438)"/>
<path d="M181.184 65.7993C182.026 67.5483 182.136 69.5478 182.227 71.4881C182.418 75.3778 183.674 79.6136 182.045 83.1526C179.828 87.9851 184.362 90.554 181.08 94.4345C180.592 95.0084 163.481 96.1926 162.097 93.182C161.582 92.0707 162.966 88.1309 162.861 86.9102C162.306 80.4836 161.778 73.8292 163.908 67.7441C164.329 66.3594 165.054 65.0864 166.03 64.0184C170.819 59.2679 178.157 59.441 181.184 65.7993Z" fill="#FFB443"/>
<path d="M181.184 65.7993C182.026 67.5483 182.136 69.5478 182.227 71.4881C182.418 75.3778 183.674 79.6136 182.045 83.1526C179.828 87.9851 184.362 90.554 181.08 94.4345C180.592 95.0084 163.481 96.1926 162.097 93.182C161.582 92.0707 162.966 88.1309 162.861 86.9102C162.306 80.4836 161.778 73.8292 163.908 67.7441C164.329 66.3594 165.054 65.0864 166.03 64.0184C170.819 59.2679 178.157 59.441 181.184 65.7993Z" fill="url(#paint9_linear_1532_21438)"/>
<path d="M164.6 54.5674C164.445 55.5329 164.445 56.5169 164.6 57.4824C164.679 57.9646 164.861 58.4242 165.133 58.8297C165.406 59.2353 165.763 59.5773 166.179 59.8326C166.737 60.0732 167.318 60.2548 167.914 60.3746C168.084 60.4057 168.242 60.4847 168.369 60.6023C168.456 60.7041 168.515 60.8264 168.542 60.9576C168.646 61.5973 168.67 62.2475 168.615 62.8933C168.591 63.2174 168.643 63.5425 168.768 63.8424C168.893 64.1424 169.087 64.4086 169.334 64.6195C169.548 64.7472 169.79 64.8232 170.039 64.8413C170.288 64.8595 170.537 64.8195 170.768 64.7243C171.229 64.531 171.643 64.2386 171.979 63.868C172.208 63.6438 172.411 63.3948 172.584 63.1256C173.027 62.2754 173.219 61.3162 173.135 60.3609C173.135 59.0947 173.008 57.8285 172.999 56.5623C172.999 54.3214 174.068 52.9869 173.995 50.7505C173.995 50.3588 173.172 49.0517 172.999 48.7009C172.829 48.4078 172.612 48.1447 172.357 47.9221C172.11 47.6597 171.821 47.441 171.501 47.2753C171.012 47.1038 170.486 47.0722 169.98 47.1842C168.897 47.3484 167.838 47.6436 166.826 48.0633C166.431 48.2083 166.068 48.4279 165.756 48.7101C165.613 48.8561 165.504 49.0318 165.437 49.2246C165.369 49.4173 165.344 49.6226 165.364 49.826C165.322 50.3377 165.236 50.845 165.11 51.3427C164.9 52.4145 164.73 53.4894 164.6 54.5674Z" fill="url(#paint10_linear_1532_21438)"/>
<path d="M164.591 44.2966C163.446 45.4052 162.725 46.8794 162.551 48.4641C162.478 48.9695 162.502 49.4841 162.62 49.9808C162.705 50.354 162.916 50.6867 163.216 50.9236C163.562 51.1409 163.971 51.2356 164.377 51.1924C164.817 51.1933 165.246 51.0581 165.606 50.8052C165.785 50.678 165.924 50.5014 166.005 50.2968C166.086 50.0921 166.105 49.8684 166.061 49.6529L166.18 50.7916C166.179 50.8698 166.203 50.9464 166.248 51.0102C166.293 51.0463 166.345 51.0723 166.401 51.0864C166.456 51.1006 166.515 51.1025 166.571 51.0922L169.07 50.9555C169.218 50.9797 169.369 50.9458 169.492 50.8609C169.615 50.776 169.701 50.6466 169.73 50.5001L170.186 49.2976C170.172 49.7722 170.301 50.24 170.554 50.6412C170.739 50.8591 170.995 51.0043 171.277 51.051C171.559 51.0977 171.848 51.0429 172.093 50.8963C172.07 54.0846 172.025 57.3867 170.654 60.2607C170.887 60.5485 171.184 60.7764 171.522 60.9253C171.861 61.0743 172.229 61.14 172.598 61.117C173.128 61.1465 173.654 61.0266 174.119 60.7709C174.348 60.6414 174.54 60.4537 174.674 60.2266C174.809 59.9995 174.881 59.7411 174.884 59.4773L174.829 60.2744C174.815 60.3504 174.831 60.4289 174.874 60.493C174.908 60.5181 174.946 60.5359 174.987 60.5453C175.028 60.5548 175.07 60.5555 175.111 60.5477L177.66 60.3655C177.806 60.3801 177.952 60.3422 178.072 60.2587C178.192 60.1752 178.279 60.0516 178.316 59.91C179.033 58.5863 179.621 57.1969 180.073 55.7607C180.729 53.4469 180.669 50.992 180.446 48.6008C180.406 47.9049 180.274 47.2173 180.055 46.5557C179.322 44.6109 177.242 43.4767 175.202 43.0987C173.163 42.7207 171.132 43.0031 169.098 42.8209C168.284 42.7216 167.459 42.8024 166.68 43.0574C165.902 43.3124 165.188 43.7354 164.591 44.2966V44.2966Z" fill="#606161"/>
<path d="M164.591 44.2966C163.446 45.4052 162.725 46.8794 162.551 48.4641C162.478 48.9695 162.502 49.4841 162.62 49.9808C162.705 50.354 162.916 50.6867 163.216 50.9236C163.562 51.1409 163.971 51.2356 164.377 51.1924C164.817 51.1933 165.246 51.0581 165.606 50.8052C165.785 50.678 165.924 50.5014 166.005 50.2968C166.086 50.0921 166.105 49.8684 166.061 49.6529L166.18 50.7916C166.179 50.8698 166.203 50.9464 166.248 51.0102C166.293 51.0463 166.345 51.0723 166.401 51.0864C166.456 51.1006 166.515 51.1025 166.571 51.0922L169.07 50.9555C169.218 50.9797 169.369 50.9458 169.492 50.8609C169.615 50.776 169.701 50.6466 169.73 50.5001L170.186 49.2976C170.172 49.7722 170.301 50.24 170.554 50.6412C170.739 50.8591 170.995 51.0043 171.277 51.051C171.559 51.0977 171.848 51.0429 172.093 50.8963C172.07 54.0846 172.025 57.3867 170.654 60.2607C170.887 60.5485 171.184 60.7764 171.522 60.9253C171.861 61.0743 172.229 61.14 172.598 61.117C173.128 61.1465 173.654 61.0266 174.119 60.7709C174.348 60.6414 174.54 60.4537 174.674 60.2266C174.809 59.9995 174.881 59.7411 174.884 59.4773L174.829 60.2744C174.815 60.3504 174.831 60.4289 174.874 60.493C174.908 60.5181 174.946 60.5359 174.987 60.5453C175.028 60.5548 175.07 60.5555 175.111 60.5477L177.66 60.3655C177.806 60.3801 177.952 60.3422 178.072 60.2587C178.192 60.1752 178.279 60.0516 178.316 59.91C179.033 58.5863 179.621 57.1969 180.073 55.7607C180.729 53.4469 180.669 50.992 180.446 48.6008C180.406 47.9049 180.274 47.2173 180.055 46.5557C179.322 44.6109 177.242 43.4767 175.202 43.0987C173.163 42.7207 171.132 43.0031 169.098 42.8209C168.284 42.7216 167.459 42.8024 166.68 43.0574C165.902 43.3124 165.188 43.7354 164.591 44.2966V44.2966Z" fill="url(#paint11_linear_1532_21438)"/>
<path d="M165.401 89.1738L149.582 91.4239L144.529 69.3838L160.348 67.1338L165.401 89.1738Z" fill="white"/>
<path d="M185.281 83.2846C185.281 83.9815 185.281 84.7467 184.826 85.2887C184.37 85.8307 183.555 86.0174 182.823 86.0994C177.511 86.6893 172.148 85.61 167.477 83.0114C167.106 82.8375 166.784 82.5746 166.539 82.2462C166.339 81.8696 166.24 81.4474 166.252 81.021C166.215 80.1552 166.235 79.2879 166.312 78.4248C166.302 78.2342 166.335 78.0439 166.406 77.8669C166.478 77.69 166.587 77.5307 166.726 77.4C166.987 77.2576 167.288 77.2063 167.582 77.2542L174.756 77.6095C174.996 77.652 175.242 77.6033 175.448 77.4729C175.61 77.3118 175.706 77.0956 175.716 76.8671C176.103 74.5533 175.716 72.1758 175.944 69.8392C176.122 68.1449 176.909 65.2846 178.858 64.8291C181.134 64.2962 181.867 67.1611 182.449 68.7507C184.168 73.4115 185.124 78.3192 185.281 83.2846V83.2846Z" fill="#FFB443"/>
<path d="M163.321 76.7167C163.029 76.574 162.724 76.4611 162.41 76.3797C162.123 76.3281 161.832 76.3037 161.541 76.3068C160.917 76.3068 160.298 76.3068 159.679 76.3068C159.128 76.2978 158.578 76.3513 158.04 76.4662C157.882 76.4927 157.738 76.5713 157.63 76.6894C157.557 76.8002 157.519 76.9303 157.521 77.0629C157.497 77.5226 157.602 77.9799 157.825 78.3826C158.048 78.7853 158.38 79.1171 158.782 79.3402C158.968 79.4121 159.126 79.5393 159.237 79.7046C159.287 79.8048 159.287 79.9278 159.333 80.0326C159.435 80.2069 159.596 80.3381 159.788 80.4015C160.769 80.8469 161.822 81.1122 162.897 81.1849C163.045 81.1821 163.193 81.21 163.33 81.2669C163.426 81.3248 163.519 81.3887 163.607 81.4582C163.808 81.57 164.03 81.6372 164.258 81.6553C164.487 81.6734 164.717 81.6419 164.932 81.5629C165.36 81.4037 165.8 81.2774 166.248 81.1849C166.621 81.1393 167.076 81.153 167.263 80.8342C167.352 80.6399 167.369 80.4207 167.313 80.2147C167.277 79.6872 167.199 79.1632 167.081 78.6479C166.962 78.2699 166.653 78.1925 166.302 78.0513L164.796 77.3726C164.386 77.1859 163.662 77.0219 163.321 76.7167Z" fill="url(#paint12_linear_1532_21438)"/>
<path d="M37.8471 121.271C38.2351 117.094 37.7498 112.883 36.4222 108.905C35.6529 106.627 34.6013 104.414 33.923 102.073C33.2448 99.7316 32.9307 97.2356 33.6636 94.9309C34.3965 92.6263 34.9245 90.6632 36.1309 88.5772C37.4601 86.2998 38.8122 83.9633 40.7195 82.1323C38.8679 84.9169 37.5897 88.0428 36.9597 91.3275C36.3297 94.6121 36.3605 97.9894 37.0504 101.262C37.4374 103.038 38.0155 104.769 38.4571 106.536C39.4813 110.635 39.7681 114.885 39.8227 119.112C39.8227 119.922 39.8227 120.797 39.3311 121.453C38.8395 122.109 38.3342 121.94 37.8471 121.271Z" fill="#FFB443"/>
<path d="M33.5039 84.2867C33.5039 84.2867 40.9286 91.0868 40.5189 100.501C40.1092 109.916 39.0303 120.997 39.3035 121.453C39.5766 121.908 43.9695 121.936 43.9695 121.936C43.5056 114.868 43.4008 107.78 43.6554 100.702C44.0651 88.8914 33.5039 84.2867 33.5039 84.2867Z" fill="#FFB443"/>
<path d="M33.5039 84.2867C33.5039 84.2867 40.9286 91.0868 40.5189 100.501C40.1092 109.916 39.0303 120.997 39.3035 121.453C39.5766 121.908 43.9695 121.936 43.9695 121.936C43.5056 114.868 43.4008 107.78 43.6554 100.702C44.0651 88.8914 33.5039 84.2867 33.5039 84.2867Z" fill="url(#paint13_linear_1532_21438)"/>
<path d="M56.0203 85.0928C56.0203 85.0928 47.2345 91.9248 45.2133 103.152C43.1921 114.379 42.1497 121.981 42.1497 121.981L47.1571 121.772C47.1571 121.772 47.2254 103.639 51.1312 95.4092C55.037 87.1789 56.0203 85.0928 56.0203 85.0928Z" fill="#FFB443"/>
<path d="M56.0203 85.0928C56.0203 85.0928 47.2345 91.9248 45.2133 103.152C43.1921 114.379 42.1497 121.981 42.1497 121.981L47.1571 121.772C47.1571 121.772 47.2254 103.639 51.1312 95.4092C55.037 87.1789 56.0203 85.0928 56.0203 85.0928Z" fill="url(#paint14_linear_1532_21438)"/>
<path d="M46.3279 78.4567C46.3279 78.4567 49.5144 90.2442 47.516 96.1015C45.5176 101.959 44.7847 122.145 44.7847 122.145L42.1353 121.972C42.1353 121.972 42.3765 100.597 43.3188 97.4588C44.2611 94.3206 47.1291 86.5549 46.3279 78.4567Z" fill="#FFB443"/>
<path d="M46.3279 78.4567C46.3279 78.4567 49.5144 90.2442 47.516 96.1015C45.5176 101.959 44.7847 122.145 44.7847 122.145L42.1353 121.972C42.1353 121.972 42.3765 100.597 43.3188 97.4588C44.2611 94.3206 47.1291 86.5549 46.3279 78.4567Z" fill="url(#paint15_linear_1532_21438)"/>
<path d="M25.001 95.3408C25.001 95.3408 37.7472 93.3185 41.034 101.895C44.3207 110.471 41.034 121.895 41.034 121.895L39.295 121.462C39.295 121.462 40.9293 103.325 31.101 98.3059L25.001 95.3408Z" fill="#FFB443"/>
<path d="M25.001 95.3408C25.001 95.3408 37.7472 93.3185 41.034 101.895C44.3207 110.471 41.034 121.895 41.034 121.895L39.295 121.462C39.295 121.462 40.9293 103.325 31.101 98.3059L25.001 95.3408Z" fill="url(#paint16_linear_1532_21438)"/>
<path d="M37.8471 121.271C38.2351 117.094 37.7498 112.883 36.4222 108.905C35.6529 106.627 34.6013 104.414 33.923 102.073C33.2448 99.7316 32.9307 97.2356 33.6636 94.9309C34.3965 92.6263 34.9245 90.6632 36.1309 88.5772C37.4601 86.2998 38.8122 83.9633 40.7195 82.1323C38.8679 84.9169 37.5897 88.0428 36.9597 91.3275C36.3297 94.6121 36.3605 97.9894 37.0504 101.262C37.4374 103.038 38.0155 104.769 38.4571 106.536C39.4813 110.635 39.7681 114.885 39.8227 119.112C39.8227 119.922 39.8227 120.797 39.3311 121.453C38.8395 122.109 38.3342 121.94 37.8471 121.271Z" fill="url(#paint17_linear_1532_21438)"/>
<path d="M34.6877 120.515H51.4172L48.0713 146.458H37.756L34.6877 120.515Z" fill="#FFB443"/>
<path d="M34.6877 120.515H51.4172L48.0713 146.458H37.756L34.6877 120.515Z" fill="url(#paint18_linear_1532_21438)"/>
</g>
<defs>
<linearGradient id="paint0_linear_1532_21438" x1="104.916" y1="-39.1724" x2="117.302" y2="93.0623" gradientUnits="userSpaceOnUse">
<stop stop-color="white" stop-opacity="0"/>
<stop offset="0.95" stop-color="white"/>
</linearGradient>
<linearGradient id="paint1_linear_1532_21438" x1="69.1579" y1="45.5127" x2="83.5976" y2="45.5127" gradientUnits="userSpaceOnUse">
<stop stop-color="#010101" stop-opacity="0"/>
<stop offset="0.95" stop-color="#010101"/>
</linearGradient>
<linearGradient id="paint2_linear_1532_21438" x1="5989.21" y1="8009.82" x2="1731.37" y2="10601.9" gradientUnits="userSpaceOnUse">
<stop stop-color="#010101" stop-opacity="0"/>
<stop offset="0.95" stop-color="#010101"/>
</linearGradient>
<linearGradient id="paint3_linear_1532_21438" x1="5322.2" y1="18084.7" x2="5322.2" y2="10247.6" gradientUnits="userSpaceOnUse">
<stop stop-color="#010101" stop-opacity="0"/>
<stop offset="0.95" stop-color="#010101"/>
</linearGradient>
<linearGradient id="paint4_linear_1532_21438" x1="3893.78" y1="1148.1" x2="3911.99" y2="1444.9" gradientUnits="userSpaceOnUse">
<stop stop-color="white" stop-opacity="0"/>
<stop offset="0.95" stop-color="white"/>
</linearGradient>
<linearGradient id="paint5_linear_1532_21438" x1="737.851" y1="1582.42" x2="735.216" y2="2020.95" gradientUnits="userSpaceOnUse">
<stop stop-color="#010101" stop-opacity="0"/>
<stop offset="0.95" stop-color="#010101"/>
</linearGradient>
<linearGradient id="paint6_linear_1532_21438" x1="162.205" y1="132.357" x2="170.245" y2="132.357" gradientUnits="userSpaceOnUse">
<stop stop-color="#E4C5D5"/>
<stop offset="0.42" stop-color="#E9D3CF"/>
<stop offset="1" stop-color="#EFE8CA"/>
</linearGradient>
<linearGradient id="paint7_linear_1532_21438" x1="2680.52" y1="11725.2" x2="2773.41" y2="11725.2" gradientUnits="userSpaceOnUse">
<stop stop-color="#E4C5D5"/>
<stop offset="0.42" stop-color="#E9D3CF"/>
<stop offset="1" stop-color="#EFE8CA"/>
</linearGradient>
<linearGradient id="paint8_linear_1532_21438" x1="2991.52" y1="2262.69" x2="3123.29" y2="2262.69" gradientUnits="userSpaceOnUse">
<stop stop-color="#010101" stop-opacity="0"/>
<stop offset="0.95" stop-color="#010101"/>
</linearGradient>
<linearGradient id="paint9_linear_1532_21438" x1="8475.79" y1="7105.8" x2="6368.31" y2="11295.2" gradientUnits="userSpaceOnUse">
<stop stop-color="#010101" stop-opacity="0"/>
<stop offset="0.95" stop-color="#010101"/>
</linearGradient>
<linearGradient id="paint10_linear_1532_21438" x1="3726.01" y1="3019.25" x2="3924.5" y2="3019.25" gradientUnits="userSpaceOnUse">
<stop stop-color="#E4C5D5"/>
<stop offset="0.42" stop-color="#E9D3CF"/>
<stop offset="1" stop-color="#EFE8CA"/>
</linearGradient>
<linearGradient id="paint11_linear_1532_21438" x1="168.661" y1="53.8159" x2="186.834" y2="42.8386" gradientUnits="userSpaceOnUse">
<stop stop-color="#010101" stop-opacity="0"/>
<stop offset="0.47" stop-color="#010101" stop-opacity="0.47"/>
<stop offset="0.95" stop-color="#010101"/>
</linearGradient>
<linearGradient id="paint12_linear_1532_21438" x1="3685.36" y1="1244.21" x2="3897.84" y2="1244.21" gradientUnits="userSpaceOnUse">
<stop stop-color="#E4C5D5"/>
<stop offset="0.42" stop-color="#E9D3CF"/>
<stop offset="1" stop-color="#EFE8CA"/>
</linearGradient>
<linearGradient id="paint13_linear_1532_21438" x1="1151.33" y1="9612.86" x2="595.225" y2="9932.29" gradientUnits="userSpaceOnUse">
<stop stop-color="#010101" stop-opacity="0"/>
<stop offset="0.95" stop-color="#010101"/>
</linearGradient>
<linearGradient id="paint14_linear_1532_21438" x1="1762.81" y1="10136.1" x2="1106.15" y2="10205.8" gradientUnits="userSpaceOnUse">
<stop stop-color="#010101" stop-opacity="0"/>
<stop offset="0.95" stop-color="#010101"/>
</linearGradient>
<linearGradient id="paint15_linear_1532_21438" x1="745.483" y1="10895.3" x2="-1236.1" y2="12305.6" gradientUnits="userSpaceOnUse">
<stop stop-color="#010101" stop-opacity="0"/>
<stop offset="0.95" stop-color="#010101"/>
</linearGradient>
<linearGradient id="paint16_linear_1532_21438" x1="1611.51" y1="7448.64" x2="2230.11" y2="8507.01" gradientUnits="userSpaceOnUse">
<stop stop-color="#010101" stop-opacity="0"/>
<stop offset="0.95" stop-color="#010101"/>
</linearGradient>
<linearGradient id="paint17_linear_1532_21438" x1="772.98" y1="10779.2" x2="540.174" y2="10795.2" gradientUnits="userSpaceOnUse">
<stop stop-color="#010101" stop-opacity="0"/>
<stop offset="0.95" stop-color="#010101"/>
</linearGradient>
<linearGradient id="paint18_linear_1532_21438" x1="1628.5" y1="6213.33" x2="831.226" y2="12068.6" gradientUnits="userSpaceOnUse">
<stop stop-color="#010101" stop-opacity="0"/>
<stop offset="0.95" stop-color="#010101"/>
</linearGradient>
<clipPath id="clip0_1532_21438">
<rect width="244" height="184" fill="white"/>
</clipPath>
</defs>
</svg>
