<svg width="468" height="408" viewBox="0 0 468 408" fill="none" xmlns="http://www.w3.org/2000/svg">
<path opacity="0.18" d="M182.928 51.7194L159.096 74.8102C150.402 83.2432 141.66 91.7046 132.083 98.77C108.201 116.377 79.8004 124.753 56.5816 143.527C33.1929 162.608 16.621 190.947 9.98425 223.213C-2.72411 286.146 28.7091 374.208 84.5277 395.091C105.254 402.868 127.577 401.045 149.359 401.002C203.851 400.888 258.393 412.398 312.664 406.13C366.936 399.863 423.786 370.818 447.066 313.653C468.296 261.531 462.132 187.757 447.569 134.368C437.746 98.1575 420.127 64.0839 394.452 40.5087C358.549 7.57471 310.086 -2.05479 264.508 2.48931C252.106 3.71437 239.57 5.97929 228.298 12.1046C218.144 17.6315 209.401 26.0645 200.794 34.4119L182.928 51.7194Z" fill="white"/>
<path d="M319.913 39.3685H211.407C199.315 39.3685 189.514 49.1149 189.514 61.1377V310.403C189.514 322.426 199.315 332.172 211.407 332.172H319.913C332.004 332.172 341.806 322.426 341.806 310.403V61.1377C341.806 49.1149 332.004 39.3685 319.913 39.3685Z" fill="#FFB443"/>
<path d="M317.629 43.0555H213.69C201.999 43.0555 192.522 52.4794 192.522 64.1044V306.96C192.522 318.585 201.999 328.009 213.69 328.009H317.629C329.32 328.009 338.798 318.585 338.798 306.96V64.1044C338.798 52.4794 329.32 43.0555 317.629 43.0555Z" fill="#473F47"/>
<path d="M334.819 66.4976V301.661C334.764 306.992 332.582 312.083 328.753 315.815C324.924 319.547 319.761 321.614 314.4 321.562H217.018C213.46 321.572 209.962 320.663 206.863 318.925C203.757 317.22 201.165 314.72 199.356 311.685C197.547 308.65 196.587 305.189 196.574 301.661V66.4976C196.632 61.1632 198.818 56.0702 202.652 52.3383C206.486 48.6064 211.653 46.5411 217.018 46.5964H233.471V49.49C233.511 51.3888 234.116 53.2333 235.208 54.7911C236.301 56.349 237.832 57.5504 239.61 58.2441C240.804 58.7098 242.074 58.9499 243.355 58.9522H288.59C291.18 58.9686 293.673 57.9668 295.524 56.1649C297.375 54.363 298.436 51.9069 298.474 49.3313V46.5964H314.437C319.674 46.5862 324.718 48.5594 328.545 52.115C330.526 53.957 332.105 56.1842 333.184 58.6583C334.264 61.1324 334.82 63.8007 334.819 66.4976Z" fill="white"/>
<path d="M365.922 82.8702H237.143V204.976H365.922V82.8702Z" fill="white"/>
<path d="M365.922 82.8702H237.143V204.976H365.922V82.8702Z" fill="#E52440"/>
<path d="M359.02 88.3644H243.208V186.368H359.02V88.3644Z" fill="white"/>
<path opacity="0.22" d="M243.197 142.33L290.433 113.711L322.222 145.333L324.789 143.917L313.492 132.684L323.438 122.782L359.009 150.607V186.369H244.007L243.197 142.33Z" fill="#FFB443"/>
<path d="M194.253 163.195C194.02 162.841 193.578 162.45 193.234 162.695C193.089 162.829 192.986 163.003 192.94 163.195C192.74 163.564 192.445 163.872 192.084 164.087C191.723 164.302 191.31 164.415 190.889 164.416C190.091 164.477 189.244 164.294 188.433 164.294C187.359 164.331 186.307 164.614 185.362 165.123C184.416 165.631 183.601 166.35 182.982 167.224C181.752 168.989 181.069 171.073 181.017 173.219C180.796 175.147 181.323 177.086 182.491 178.64C184.418 180.813 187.746 180.887 190.656 180.777L193.296 180.691C193.926 180.776 194.564 180.615 195.077 180.242C195.59 179.868 195.938 179.312 196.046 178.689C197.139 176.076 199.104 173.463 197.741 170.826C196.562 168.506 195.85 165.124 194.253 163.195Z" fill="#B2857F"/>
<path d="M245.48 353.221C245.554 355.595 245.11 357.957 244.178 360.144C242.999 362.174 241.232 363.803 239.107 364.82C234.564 367.162 229.288 367.678 224.373 366.26C223.706 366.123 223.108 365.76 222.678 365.235C222.42 364.797 222.312 364.287 222.371 363.782C222.482 361.071 224.299 358.764 226.252 356.871C228.204 354.979 230.377 353.209 231.568 350.767C233.827 346.213 232.145 334.101 240.777 336.055C247.936 337.703 245.701 348.154 245.48 353.221Z" fill="#B2857F"/>
<path d="M246.709 361.426C246.709 361.426 247.937 364.429 246.415 366.175C244.892 367.921 229.409 377.493 218.972 369.838C208.535 362.183 233.203 361.072 233.203 361.072L246.709 361.426Z" fill="#FFB443"/>
<path d="M246.093 354.454C245.618 354.223 245.076 354.169 244.565 354.301C244.054 354.433 243.607 354.743 243.305 355.174C242.288 356.323 240.994 357.197 239.544 357.713C238.095 358.23 236.537 358.373 235.017 358.129C231.616 357.323 230.265 353.428 228.596 353.416C226.926 353.404 217.889 361.01 217.361 364.295C216.833 367.579 221.449 369.972 226.533 370.302C231.616 370.631 243.158 367.103 245.344 364.441C247.529 361.78 247.271 356.127 246.093 354.454Z" fill="#FFB443"/>
<path d="M275.071 357.885C275.171 360.25 274.752 362.608 273.843 364.795C272.666 366.832 270.893 368.463 268.76 369.471C264.218 371.818 258.943 372.338 254.026 370.924C253.354 370.79 252.751 370.427 252.319 369.899C252.072 369.452 251.965 368.942 252.012 368.434C252.122 365.735 253.952 363.428 255.892 361.523C257.832 359.619 259.993 357.86 261.221 355.48C263.468 350.926 261.798 338.826 270.418 340.767C277.515 342.391 275.268 352.842 275.071 357.885Z" fill="#B2857F"/>
<path d="M276.264 366.114C276.264 366.114 277.492 369.105 275.982 370.864C274.471 372.622 259 382.182 248.576 374.526C238.151 366.871 262.672 365.784 262.672 365.784L276.264 366.114Z" fill="#FFB443"/>
<path d="M275.66 359.143C275.186 358.912 274.644 358.857 274.132 358.989C273.621 359.121 273.174 359.431 272.873 359.863C271.861 361.022 270.565 361.903 269.112 362.42C267.658 362.937 266.095 363.074 264.573 362.818C261.196 362.012 259.821 358.117 258.163 358.105C256.506 358.093 247.456 365.711 246.965 368.983C246.474 372.255 251.042 374.661 256.149 374.99C261.257 375.32 272.75 371.791 274.948 369.142C277.146 366.493 276.839 360.827 275.66 359.143Z" fill="#FFB443"/>
<path d="M281.235 231.36C281.235 231.36 282.844 319.413 276.324 348.789L259.674 350.828L248.157 230.273L281.235 231.36Z" fill="#473F47"/>
<path d="M229.801 221.751C229.801 221.751 221.98 269.245 231.471 345.529L248.121 347.568L259.638 227.001L229.801 221.751Z" fill="#473F47"/>
<path d="M210.313 183.915C210.497 187.101 211.541 189.873 214.328 190.788C214.56 190.872 214.798 190.937 215.04 190.984C220.161 191.997 226.865 188.127 231.531 184.757C233.485 183.357 235.358 181.849 237.142 180.24V146.188L212.327 171.485C212.327 171.485 209.969 178.323 210.313 183.915Z" fill="#FFB443"/>
<path d="M231.335 184.659C231.335 186.259 231.139 187.846 231.127 189.445C231.127 198.224 233.177 207.295 230.55 215.903C229.948 217.832 229.125 219.895 229.801 221.788C230.563 223.368 231.87 224.624 233.484 225.328C241.269 229.565 250.281 230.859 259.061 232.08C265.667 233.008 275.023 234.961 281.162 231.421C283.765 229.907 284.65 227.099 285.472 224.303C288.124 215.39 288.91 205.806 289.598 196.575C289.696 195.354 289.782 194.134 289.856 192.913C290.363 184.504 290.531 176.088 290.359 167.664C290.249 161.559 289.757 154.954 285.755 150.339C280.413 144.234 270.087 140.132 262.253 138.703C259.713 138.189 257.112 138.045 254.53 138.276C250.875 138.857 247.346 140.05 244.093 141.804C240.213 143.721 236.726 145.333 234.835 149.13C232.745 153.551 231.287 158.239 230.501 163.061C229.756 167.586 229.649 172.193 230.181 176.748C230.415 178.97 230.979 181.192 231.213 183.414C231.296 183.824 231.338 184.241 231.335 184.659Z" fill="#FFB443"/>
<path d="M246.71 185.77C246.71 214.706 233.571 238.173 217.364 238.173H213.177C197.632 236.83 188.005 213.852 188.005 185.77C188.005 157.396 197.141 134.259 212.919 133.368H217.364C233.621 133.38 246.71 156.834 246.71 185.77Z" fill="#981921"/>
<path opacity="0.1" d="M246.71 185.77C246.71 214.706 233.571 238.173 217.364 238.173H213.177C197.632 236.83 188.005 213.852 188.005 185.77C188.005 157.396 197.141 134.259 212.919 133.368H217.364C233.621 133.38 246.71 156.834 246.71 185.77Z" fill="#981921"/>
<path d="M212.967 238.173C229.181 238.173 242.325 214.711 242.325 185.77C242.325 156.829 229.181 133.368 212.967 133.368C196.753 133.368 183.609 156.829 183.609 185.77C183.609 214.711 196.753 238.173 212.967 238.173Z" fill="#E52440"/>
<path d="M212.965 230.395C226.772 230.395 237.965 210.416 237.965 185.77C237.965 161.125 226.772 141.145 212.965 141.145C199.158 141.145 187.966 161.125 187.966 185.77C187.966 210.416 199.158 230.395 212.965 230.395Z" fill="white"/>
<path d="M212.967 222.911C224.454 222.911 233.767 206.282 233.767 185.77C233.767 165.258 224.454 148.629 212.967 148.629C201.479 148.629 192.167 165.258 192.167 185.77C192.167 206.282 201.479 222.911 212.967 222.911Z" fill="#E52440"/>
<path d="M212.967 213.253C221.471 213.253 228.364 200.949 228.364 185.77C228.364 170.592 221.471 158.287 212.967 158.287C204.463 158.287 197.569 170.592 197.569 185.77C197.569 200.949 204.463 213.253 212.967 213.253Z" fill="white"/>
<path d="M212.966 204.963C218.907 204.963 223.722 196.37 223.722 185.77C223.722 175.17 218.907 166.577 212.966 166.577C207.026 166.577 202.21 175.17 202.21 185.77C202.21 196.37 207.026 204.963 212.966 204.963Z" fill="#E52440"/>
<path d="M212.968 195.757C216.06 195.757 218.567 191.286 218.567 185.77C218.567 180.254 216.06 175.783 212.968 175.783C209.875 175.783 207.369 180.254 207.369 185.77C207.369 191.286 209.875 195.757 212.968 195.757Z" fill="white"/>
<path opacity="0.1" d="M267.396 234.363C269.95 235.12 275.857 232.764 277.833 232.434C279.061 232.227 280.068 231.641 281.235 231.36C287.091 229.907 287.791 213.559 288.356 209.163C289.879 197.54 292.199 185.49 292.371 173.83C292.371 169.337 292.31 164.758 290.824 160.509C289.338 156.26 286.306 152.341 282.045 150.815C274.567 148.129 272.345 171.644 271.326 176.455C270.036 182.559 268.723 188.664 267.458 194.769C266.537 199.225 267.053 202.79 263.504 206.099C263.268 206.369 262.948 206.553 262.596 206.624C262.283 206.623 261.976 206.548 261.699 206.404C260.208 205.767 258.617 205.391 256.996 205.293C256.271 205.19 255.532 205.305 254.872 205.623C254.49 205.898 254.166 206.245 253.919 206.646C253.673 207.046 253.508 207.491 253.436 207.955C252.986 210.026 253.177 212.184 253.983 214.145C254.79 216.106 256.174 217.779 257.954 218.943C259.55 219.932 261.38 220.469 262.976 221.385C269.03 225.048 263.958 228.942 266.365 233.435C266.455 233.657 266.595 233.856 266.774 234.017C266.952 234.178 267.165 234.296 267.396 234.363Z" fill="#020202"/>
<path d="M247.163 127.41C247.788 128.643 248.844 129.607 250.134 130.12C251.644 130.731 253.351 130.816 254.567 131.915C255.662 133.098 256.358 134.592 256.556 136.188C256.912 137.836 257.268 139.472 257.636 141.072C257.808 141.902 258.005 142.72 258.177 143.514C258.253 143.946 258.411 144.361 258.643 144.735C258.947 145.082 259.326 145.356 259.751 145.538C260.176 145.72 260.637 145.804 261.099 145.785C263.052 145.849 264.983 145.353 266.661 144.356C266.951 144.216 267.194 143.996 267.361 143.721C267.507 143.374 267.545 142.992 267.472 142.622L266.845 135.517C266.5 133.563 266.811 131.551 267.729 129.79C269.571 125.969 271.56 122.147 272.285 117.935C272.728 115.982 272.556 113.94 271.794 112.087C271.085 110.908 270.141 109.885 269.02 109.083C267.898 108.281 266.623 107.716 265.274 107.423C261.777 106.36 258.046 106.326 254.53 107.325C253.228 107.765 252.823 108.656 252.209 109.767C251.288 111.574 250.429 113.43 249.655 115.298C248.783 117.422 248.022 119.608 247.335 121.83C246.573 123.602 246.512 125.595 247.163 127.41Z" fill="#B2857F"/>
<path d="M256.606 108.791C258.571 110.536 261.96 109.364 264.084 110.915C266.208 112.466 266.024 115.506 266.036 117.716C266.036 118.106 265.337 122.599 264.809 122.306C265.668 122.917 266.331 121.256 267.264 120.768C268.197 120.28 269.597 121.696 269.364 122.917C268.967 124.093 268.274 125.148 267.35 125.981C265.854 127.826 265.028 130.119 265.005 132.489C265.005 133.038 265.214 133.71 265.779 133.783C266.343 133.856 267.006 133.014 267.387 132.721C269.659 131.195 272.397 130.56 274.607 128.96C275.356 128.454 275.997 127.805 276.492 127.05C276.988 126.296 277.328 125.451 277.492 124.565C277.445 123.334 277.564 122.102 277.848 120.902C278.313 120.109 278.879 119.379 279.531 118.729C279.847 118.401 280.065 117.992 280.161 117.548C280.256 117.104 280.225 116.642 280.071 116.214C279.887 115.848 279.555 115.579 279.371 115.213C279.09 114.423 279.09 113.561 279.371 112.771C279.645 111.652 279.677 110.488 279.466 109.356C279.254 108.223 278.803 107.148 278.143 106.202C277.05 104.81 275.417 103.943 274.153 102.698C272.888 101.453 272.053 99.4016 273.035 97.9243C273.404 97.3504 274.054 96.8132 273.919 96.1417C273.832 95.906 273.69 95.6944 273.504 95.5245C273.318 95.3546 273.094 95.2313 272.851 95.165C271.79 94.7441 270.642 94.5896 269.507 94.7153C268.371 94.8409 267.285 95.2428 266.343 95.8853C267.068 95.0429 266.061 93.6388 264.956 93.6022C263.834 93.7004 262.791 94.2147 262.034 95.0429C261.969 94.6697 261.785 94.3275 261.508 94.0676C261.231 93.8077 260.877 93.6444 260.499 93.6022C259.741 93.5304 258.978 93.6611 258.289 93.9807C256.088 94.7606 254.155 96.1449 252.714 97.9731C252.006 98.8918 251.514 99.9564 251.274 101.089C251.034 102.221 251.052 103.393 251.327 104.517C251.45 105.098 251.713 105.641 252.094 106.098C252.474 106.555 252.961 106.914 253.512 107.142C254.161 107.239 254.798 107.398 255.415 107.618C255.857 107.961 256.257 108.355 256.606 108.791Z" fill="#473F47"/>
<path d="M253.498 131.158L254.075 131.317C254.243 131.339 254.399 131.416 254.517 131.536C254.554 131.664 254.554 131.8 254.517 131.927C255.612 133.11 256.308 134.604 256.506 136.2C256.862 137.849 257.218 139.485 257.587 141.084C259.38 137.924 260.731 134.535 261.602 131.011C258.913 131.341 256.197 131.39 253.498 131.158Z" fill="#996764"/>
<path d="M250.661 191.094C250.345 190.709 249.939 190.406 249.479 190.213C249.019 190.019 248.519 189.94 248.021 189.982C247.455 190.262 246.917 190.593 246.412 190.971C245.938 191.188 245.424 191.305 244.902 191.313C242.789 191.449 240.671 191.154 238.677 190.446C237.681 189.948 236.587 189.673 235.472 189.641C234.803 189.77 234.169 190.041 233.614 190.435C233.059 190.829 232.596 191.336 232.255 191.924C231.262 193.349 230.706 195.031 230.653 196.764C230.601 198.498 231.055 200.209 231.96 201.691C232.789 202.893 233.886 203.887 235.165 204.597C238 206.085 241.156 206.869 244.362 206.88C247.554 207.014 250.784 206.782 253.939 207.014C254.687 207.161 255.463 207.062 256.149 206.734C256.526 206.379 256.816 205.945 256.999 205.462C257.182 204.98 257.253 204.463 257.205 203.95C257.328 201.508 257.733 199.542 256.321 197.503C254.546 195.271 252.657 193.132 250.661 191.094Z" fill="#B2857F"/>
<path d="M285.779 150.314C285.779 150.314 320.896 195.977 309.808 212.118C298.721 228.259 251.877 209.456 251.877 209.456L256.433 196.087C256.433 196.087 289.34 200.226 289.585 196.575C289.831 192.925 268.711 171.937 268.711 171.937C268.711 171.937 264.905 141.218 285.779 150.314Z" fill="#FFB443"/>
<path d="M109.42 184.806L100.997 176.161L98.5776 172.206H92.7453L90.3387 169.08H82.4803L85.0711 173.036H75.7271L87.5637 185.27L78.0232 195.489H87.6619L84.9606 198.7H92.2787L95.4097 194.378H100.702L109.42 184.806Z" fill="#FFB443"/>
<path opacity="0.1" d="M87.5637 185.27H109.42L100.997 176.162L98.5776 172.206H92.7453L98.504 183.06H92.1068L85.0711 173.036H75.7271L87.5637 185.27Z" fill="#020202"/>
<path d="M208.645 184.72C208.646 184.937 208.605 185.152 208.522 185.353C208.439 185.554 208.317 185.736 208.163 185.889C208.009 186.043 207.825 186.164 207.623 186.246C207.422 186.329 207.205 186.37 206.987 186.368H95.9512C95.731 186.39 95.5087 186.368 95.2972 186.303C95.0858 186.239 94.8893 186.133 94.7192 185.993C94.5491 185.852 94.4088 185.679 94.3065 185.484C94.2042 185.289 94.1419 185.076 94.1232 184.856C94.1045 184.637 94.1297 184.417 94.1975 184.207C94.2653 183.998 94.3743 183.804 94.5181 183.637C94.6619 183.469 94.8377 183.332 95.0352 183.233C95.2327 183.134 95.4481 183.075 95.6688 183.06H206.975C207.194 183.06 207.411 183.103 207.614 183.186C207.816 183.27 208.001 183.392 208.156 183.546C208.311 183.7 208.434 183.883 208.518 184.085C208.602 184.286 208.645 184.502 208.645 184.72Z" fill="#FFB443"/>
<path opacity="0.1" d="M205.795 184.72V186.369H95.9502C95.732 186.372 95.5154 186.332 95.313 186.251C95.1105 186.17 94.9262 186.05 94.7708 185.898C94.6154 185.746 94.492 185.564 94.4078 185.364C94.3236 185.164 94.2802 184.949 94.2803 184.733H205.795V184.72Z" fill="#020202"/>
<path opacity="0.1" d="M84.9634 198.7L95.167 186.369H101.269L92.2815 198.7H84.9634Z" fill="#020202"/>
<path d="M199.299 178.457L201.141 184.72L199.299 190.117L213.616 185.148L199.299 178.457Z" fill="#FFB443"/>
<path d="M199.299 178.457L201.141 184.72L199.299 190.117L213.616 185.148L199.299 178.457Z" fill="url(#paint0_linear_252_1723)"/>
<path d="M126.636 170.374C139.147 170.374 149.29 160.289 149.29 147.848C149.29 135.407 139.147 125.322 126.636 125.322C114.124 125.322 103.981 135.407 103.981 147.848C103.981 160.289 114.124 170.374 126.636 170.374Z" fill="#FFB443"/>
<path d="M117.207 154.136C117.319 154.362 117.478 154.561 117.673 154.722C117.97 154.94 118.303 155.105 118.656 155.21C122.867 156.663 127.251 157.909 131.708 157.506C132.182 157.491 132.647 157.374 133.071 157.164C133.281 157.059 133.456 156.896 133.576 156.695C133.696 156.493 133.755 156.262 133.746 156.028C133.706 155.831 133.677 155.631 133.66 155.43C133.66 154.673 134.888 154.551 135.183 153.867C135.257 153.641 135.263 153.397 135.2 153.167C135.136 152.937 135.007 152.731 134.827 152.573C134.495 152.231 134.078 151.987 133.759 151.633C134.302 151.341 134.765 150.922 135.109 150.412C135.27 150.146 135.346 149.838 135.326 149.528C135.306 149.218 135.192 148.922 134.999 148.678C134.667 148.324 134.078 148.129 134.029 147.653C133.98 147.177 134.458 146.908 134.729 146.566C135.008 146.142 135.114 145.628 135.025 145.129C134.936 144.63 134.659 144.183 134.25 143.88C133.406 143.293 132.377 143.028 131.352 143.135C130.337 143.247 129.315 143.292 128.295 143.27C128.169 143.277 128.044 143.256 127.927 143.21C127.81 143.163 127.705 143.092 127.619 143.001C127.423 142.732 127.546 142.342 127.619 142.024C128.061 140.984 128.249 139.855 128.171 138.729C128.092 137.602 127.747 136.51 127.165 135.541C126.956 135.166 126.641 134.86 126.259 134.66C125.878 134.46 125.445 134.376 125.016 134.418C124.738 134.498 124.483 134.642 124.27 134.837C124.057 135.031 123.892 135.273 123.788 135.541C123.597 136.075 123.465 136.627 123.395 137.189C122.806 140.535 121.21 144.112 117.809 145.357C117.231 145.565 116.716 145.455 116.335 145.98C116.061 146.472 115.933 147.031 115.967 147.592C115.809 149.732 116.149 151.879 116.961 153.867L117.207 154.136Z" fill="white"/>
<path d="M179.029 259.075C188.503 259.075 196.183 251.439 196.183 242.019C196.183 232.599 188.503 224.962 179.029 224.962C169.556 224.962 161.876 232.599 161.876 242.019C161.876 251.439 169.556 259.075 179.029 259.075Z" fill="#FFB443"/>
<path d="M171.808 246.683C171.89 246.855 172.007 247.009 172.151 247.134C172.372 247.303 172.622 247.431 172.888 247.513C175.99 248.83 179.338 249.48 182.711 249.417C183.069 249.416 183.422 249.333 183.743 249.173C183.905 249.097 184.042 248.976 184.138 248.824C184.234 248.673 184.284 248.497 184.283 248.319C184.283 248.16 184.209 248.013 184.209 247.867C184.209 247.293 185.155 247.22 185.437 246.646C185.495 246.476 185.502 246.293 185.456 246.119C185.41 245.945 185.314 245.789 185.179 245.669C184.934 245.413 184.627 245.217 184.381 244.949C184.799 244.728 185.157 244.409 185.425 244.021C185.543 243.818 185.6 243.586 185.589 243.353C185.578 243.119 185.5 242.893 185.363 242.702C185.118 242.434 184.676 242.275 184.651 241.921C184.627 241.567 184.97 241.359 185.191 241.103C185.403 240.784 185.487 240.397 185.425 240.019C185.364 239.642 185.162 239.301 184.86 239.064C184.228 238.609 183.452 238.397 182.674 238.466C181.906 238.515 181.135 238.515 180.366 238.466C180.27 238.47 180.174 238.453 180.086 238.417C179.997 238.381 179.916 238.327 179.85 238.258C179.703 238.051 179.85 237.758 179.85 237.513C180.189 236.734 180.342 235.887 180.295 235.04C180.248 234.192 180.003 233.367 179.58 232.63C179.426 232.344 179.193 232.109 178.907 231.953C178.621 231.797 178.296 231.726 177.972 231.751C177.766 231.813 177.577 231.921 177.419 232.067C177.262 232.213 177.14 232.393 177.063 232.593C176.908 232.986 176.801 233.396 176.744 233.814C176.253 236.341 175 239.027 172.409 239.919C171.967 240.065 171.587 239.98 171.292 240.37C171.078 240.741 170.976 241.165 170.997 241.591C170.835 243.208 171.062 244.841 171.66 246.353C171.697 246.468 171.746 246.579 171.808 246.683Z" fill="white"/>
<path d="M110.085 239.247C118.521 239.247 125.359 232.447 125.359 224.059C125.359 215.67 118.521 208.87 110.085 208.87C101.649 208.87 94.8101 215.67 94.8101 224.059C94.8101 232.447 101.649 239.247 110.085 239.247Z" fill="#FFB443"/>
<path d="M109.616 221.568C109.616 221.568 104.042 214.841 100.518 221.214C96.9939 227.587 111.691 233.264 111.691 233.264C111.691 233.264 119.955 225.695 119.059 221.128C118.162 216.562 110.648 214.78 109.616 221.568Z" fill="white"/>
<path d="M154.163 216.013C167.651 216.013 178.585 205.14 178.585 191.728C178.585 178.316 167.651 167.444 154.163 167.444C140.675 167.444 129.741 178.316 129.741 191.728C129.741 205.14 140.675 216.013 154.163 216.013Z" fill="#FFB443"/>
<path d="M153.391 187.76C153.391 187.76 144.452 176.98 138.829 187.174C133.205 197.369 156.694 206.453 156.694 206.453C156.694 206.453 169.906 194.353 168.543 187.052C167.18 179.751 155.061 176.894 153.391 187.76Z" fill="white"/>
<path opacity="0.22" d="M338.503 116.324C342.578 116.324 345.882 113.038 345.882 108.986C345.882 104.933 342.578 101.648 338.503 101.648C334.427 101.648 331.123 104.933 331.123 108.986C331.123 113.038 334.427 116.324 338.503 116.324Z" fill="#FFB443"/>
<defs>
<linearGradient id="paint0_linear_252_1723" x1="207.993" y1="179.653" x2="202.972" y2="186.798" gradientUnits="userSpaceOnUse">
<stop offset="0.01" stop-color="white"/>
<stop offset="1" stop-color="white" stop-opacity="0"/>
</linearGradient>
</defs>
</svg>
