<svg width="213" height="197" viewBox="0 0 213 197" fill="none" xmlns="http://www.w3.org/2000/svg">
<path d="M152.616 0H89.3209C82.2677 0 76.55 5.47431 76.55 12.2272V152.233C76.55 158.986 82.2677 164.46 89.3209 164.46H152.616C159.67 164.46 165.387 158.986 165.387 152.233V12.2272C165.387 5.47431 159.67 0 152.616 0Z" fill="#FFB443" fill-opacity="0.5"/>
<path d="M151.284 2.07129H90.6532C83.8334 2.07129 78.3049 7.36445 78.3049 13.8939V150.3C78.3049 156.829 83.8334 162.122 90.6532 162.122H151.284C158.104 162.122 163.632 156.829 163.632 150.3V13.8939C163.632 7.36445 158.104 2.07129 151.284 2.07129Z" fill="#EA9516" fill-opacity="0.5"/>
<path d="M161.312 15.2377V147.323C161.28 150.317 160.007 153.177 157.773 155.273C155.539 157.369 152.528 158.53 149.4 158.501H92.5941C90.519 158.506 88.478 157.996 86.6707 157.02C84.8587 156.062 83.3469 154.658 82.2917 152.953C81.2364 151.248 80.676 149.305 80.6685 147.323V15.2377C80.7025 12.2415 81.9778 9.38088 84.2142 7.28476C86.4505 5.18864 89.4647 4.02861 92.5941 4.05969H102.192V5.68496C102.215 6.75145 102.568 7.78746 103.205 8.66245C103.843 9.53744 104.736 10.2123 105.773 10.6019C106.469 10.8634 107.21 10.9983 107.958 10.9996H134.345C135.856 11.0088 137.31 10.4462 138.389 9.43408C139.469 8.422 140.088 7.04247 140.111 5.59581V4.05969H149.422C152.477 4.05393 155.42 5.16225 157.652 7.15935C158.807 8.19394 159.728 9.44488 160.358 10.8345C160.988 12.2242 161.312 13.7229 161.312 15.2377Z" fill="white"/>
<path d="M179.454 24.4338H104.333V93.0173H179.454V24.4338Z" fill="white"/>
<path opacity="0.42" d="M179.454 24.4338H104.333V93.0173H179.454V24.4338Z" fill="#E52440"/>
<path d="M175.429 27.52H107.872V82.5665H175.429V27.52Z" fill="white"/>
<path opacity="0.22" d="M107.865 57.8307L135.419 41.7563L153.963 59.5177L155.46 58.7222L148.87 52.4131L154.672 46.8516L175.422 62.4802V82.5663H108.337L107.865 57.8307Z" fill="#FFB443" fill-opacity="0.5"/>
<path d="M79.3149 69.5505C79.1788 69.3516 78.921 69.1322 78.7204 69.2693C78.6354 69.3448 78.5756 69.4426 78.5485 69.5505C78.4323 69.7574 78.2597 69.9304 78.0492 70.0512C77.8386 70.1719 77.5978 70.2358 77.3524 70.2363C76.8868 70.2705 76.3926 70.1677 75.9199 70.1677C75.293 70.1883 74.6797 70.3476 74.128 70.6331C73.5762 70.9187 73.1011 71.3227 72.7397 71.8135C72.0224 72.8046 71.624 73.9752 71.5937 75.1806C71.4648 76.2633 71.7722 77.3523 72.4532 78.2254C73.5777 79.4461 75.5188 79.4872 77.2163 79.4255L78.7563 79.3775C79.1237 79.4254 79.4962 79.3349 79.7955 79.1251C80.0947 78.9154 80.2973 78.6027 80.3607 78.2529C80.9981 76.7853 82.1441 75.3178 81.3491 73.8365C80.6615 72.5336 80.2461 70.634 79.3149 69.5505Z" fill="#B2857F"/>
<path d="M109.197 176.283C109.24 177.616 108.981 178.943 108.438 180.171C107.75 181.312 106.719 182.227 105.48 182.798C102.829 184.114 99.7519 184.403 96.8846 183.607C96.4957 183.53 96.1466 183.326 95.8962 183.031C95.7452 182.785 95.6823 182.498 95.7171 182.215C95.7816 180.693 96.8416 179.396 97.9805 178.333C99.1193 177.271 100.387 176.276 101.082 174.905C102.4 172.347 101.418 165.544 106.454 166.641C110.63 167.567 109.326 173.437 109.197 176.283Z" fill="#B2857F"/>
<path d="M109.913 180.891C109.913 180.891 110.629 182.578 109.741 183.559C108.853 184.54 99.8211 189.916 93.733 185.616C87.6448 181.316 102.034 180.692 102.034 180.692L109.913 180.891Z" fill="#E52440"/>
<path d="M109.555 176.976C109.278 176.846 108.962 176.815 108.664 176.89C108.366 176.964 108.105 177.138 107.929 177.38C107.336 178.026 106.581 178.516 105.735 178.806C104.89 179.097 103.981 179.177 103.095 179.04C101.111 178.587 100.323 176.4 99.3486 176.393C98.3745 176.386 93.1028 180.658 92.7948 182.503C92.4869 184.348 95.18 185.692 98.1453 185.877C101.111 186.062 107.843 184.08 109.118 182.585C110.393 181.09 110.243 177.915 109.555 176.976Z" fill="white"/>
<path d="M126.459 178.903C126.517 180.231 126.272 181.555 125.743 182.784C125.056 183.928 124.022 184.844 122.777 185.41C120.128 186.729 117.05 187.021 114.182 186.226C113.791 186.151 113.439 185.947 113.187 185.65C113.042 185.399 112.98 185.113 113.008 184.828C113.072 183.312 114.139 182.016 115.271 180.946C116.403 179.876 117.663 178.889 118.379 177.552C119.69 174.994 118.716 168.198 123.744 169.288C127.884 170.2 126.573 176.07 126.459 178.903Z" fill="#B2857F"/>
<path d="M127.153 183.525C127.153 183.525 127.87 185.205 126.989 186.192C126.108 187.18 117.083 192.549 111.002 188.25C104.921 183.95 119.225 183.34 119.225 183.34L127.153 183.525Z" fill="#E52440"/>
<path d="M126.803 179.609C126.526 179.479 126.21 179.449 125.911 179.523C125.613 179.597 125.352 179.771 125.177 180.014C124.586 180.665 123.83 181.159 122.982 181.45C122.134 181.741 121.223 181.817 120.335 181.673C118.365 181.221 117.563 179.033 116.596 179.026C115.629 179.019 110.35 183.298 110.064 185.136C109.777 186.974 112.442 188.325 115.421 188.51C118.401 188.695 125.105 186.714 126.387 185.225C127.669 183.737 127.49 180.555 126.803 179.609Z" fill="white"/>
<path d="M130.054 107.837C130.054 107.837 130.993 157.294 127.189 173.794L117.477 174.939L110.758 107.226L130.054 107.837Z" fill="#473F47"/>
<path d="M100.051 102.44C100.051 102.44 95.488 129.116 101.025 171.963L110.737 173.108L117.456 105.388L100.051 102.44Z" fill="#473F47"/>
<path d="M88.6836 81.1877C88.791 82.9776 89.3998 84.5343 91.0257 85.0486C91.161 85.0955 91.2999 85.1322 91.4411 85.1583C94.4279 85.7275 98.3387 83.5536 101.06 81.6609C102.2 80.8745 103.293 80.0274 104.334 79.1236V59.9976L89.8582 74.2066C89.8582 74.2066 88.483 78.0469 88.6836 81.1877Z" fill="#E52440"/>
<path d="M100.946 81.606C100.946 82.5043 100.831 83.3958 100.824 84.2942C100.824 89.2248 102.02 94.3201 100.487 99.1547C100.136 100.238 99.6564 101.397 100.05 102.46C100.495 103.348 101.257 104.053 102.199 104.449C106.74 106.828 111.997 107.555 117.119 108.241C120.972 108.762 126.43 109.86 130.011 107.871C131.53 107.02 132.045 105.443 132.525 103.873C134.072 98.8667 134.531 93.4834 134.932 88.2991C134.989 87.6133 135.039 86.9275 135.082 86.2418C135.378 81.5191 135.476 76.7919 135.376 72.0601C135.312 68.6313 135.025 64.9213 132.69 62.3291C129.574 58.9003 123.551 56.5961 118.981 55.7938C117.499 55.5051 115.982 55.4243 114.476 55.5537C112.344 55.8801 110.285 56.5502 108.388 57.5356C106.124 58.6123 104.09 59.5175 102.987 61.6502C101.768 64.1331 100.917 66.7667 100.459 69.4748C100.024 72.0166 99.9618 74.6039 100.272 77.1622C100.408 78.4103 100.738 79.6584 100.874 80.9065C100.923 81.1367 100.947 81.3711 100.946 81.606Z" fill="#E52440"/>
<path d="M109.913 82.2302C109.913 98.4829 102.249 111.663 92.7948 111.663H90.3524C81.2846 110.909 75.6692 98.0028 75.6692 82.2302C75.6692 66.293 80.9981 53.2977 90.202 52.7971H92.7948C102.278 52.804 109.913 65.9775 109.913 82.2302Z" fill="#E52440"/>
<path opacity="0.1" d="M109.913 82.2302C109.913 98.4829 102.249 111.663 92.7948 111.663H90.3524C81.2846 110.909 75.6692 98.0028 75.6692 82.2302C75.6692 66.293 80.9981 53.2977 90.202 52.7971H92.7948C102.278 52.804 109.913 65.9775 109.913 82.2302Z" fill="#020202"/>
<path d="M90.2306 111.663C99.6889 111.663 107.356 98.4856 107.356 82.2302C107.356 65.9748 99.6889 52.7971 90.2306 52.7971C80.7724 52.7971 73.105 65.9748 73.105 82.2302C73.105 98.4856 80.7724 111.663 90.2306 111.663Z" fill="#E52440"/>
<path d="M90.2306 107.295C98.2846 107.295 104.814 96.0732 104.814 82.2303C104.814 68.3874 98.2846 57.1655 90.2306 57.1655C82.1767 57.1655 75.6477 68.3874 75.6477 82.2303C75.6477 96.0732 82.1767 107.295 90.2306 107.295Z" fill="white"/>
<path d="M90.2305 103.091C96.9316 103.091 102.364 93.7514 102.364 82.2302C102.364 70.7089 96.9316 61.3691 90.2305 61.3691C83.5295 61.3691 78.0972 70.7089 78.0972 82.2302C78.0972 93.7514 83.5295 103.091 90.2305 103.091Z" fill="#E52440"/>
<path d="M90.2306 97.6669C95.1912 97.6669 99.2125 90.7557 99.2125 82.2303C99.2125 73.7049 95.1912 66.7937 90.2306 66.7937C85.2701 66.7937 81.2488 73.7049 81.2488 82.2303C81.2488 90.7557 85.2701 97.6669 90.2306 97.6669Z" fill="white"/>
<path d="M90.2305 93.0104C93.6957 93.0104 96.5049 88.184 96.5049 82.2302C96.5049 76.2764 93.6957 71.45 90.2305 71.45C86.7652 71.45 83.9561 76.2764 83.9561 82.2302C83.9561 88.184 86.7652 93.0104 90.2305 93.0104Z" fill="#E52440"/>
<path d="M90.2305 87.8397C92.0343 87.8397 93.4966 85.3282 93.4966 82.2302C93.4966 79.1321 92.0343 76.6206 90.2305 76.6206C88.4267 76.6206 86.9644 79.1321 86.9644 82.2302C86.9644 85.3282 88.4267 87.8397 90.2305 87.8397Z" fill="white"/>
<path opacity="0.1" d="M121.982 109.524C123.472 109.949 126.917 108.625 128.07 108.44C128.786 108.324 129.374 107.994 130.054 107.837C133.471 107.021 133.879 97.8382 134.209 95.3694C135.097 88.841 136.45 82.0724 136.551 75.5234C136.551 72.9998 136.515 70.4281 135.648 68.0417C134.782 65.6552 133.012 63.4539 130.527 62.5967C126.165 61.088 124.869 74.2959 124.274 76.9978C123.522 80.4266 122.756 83.8554 122.018 87.2843C121.481 89.7873 121.781 91.7897 119.712 93.6482C119.574 93.7997 119.387 93.9034 119.181 93.9431C118.999 93.9428 118.82 93.9004 118.659 93.8196C117.789 93.4619 116.861 93.2508 115.915 93.1956C115.492 93.1379 115.061 93.2024 114.676 93.3807C114.453 93.5352 114.264 93.7305 114.12 93.9553C113.977 94.1802 113.881 94.43 113.838 94.6905C113.576 95.8538 113.687 97.0658 114.158 98.1674C114.628 99.2689 115.436 100.208 116.474 100.862C117.405 101.418 118.472 101.72 119.404 102.234C122.935 104.291 119.977 106.479 121.38 109.002C121.433 109.127 121.515 109.239 121.619 109.329C121.723 109.419 121.847 109.486 121.982 109.524Z" fill="#020202"/>
<path d="M110.178 49.4506C110.543 50.1434 111.159 50.6848 111.912 50.973C112.793 51.3159 113.788 51.3639 114.497 51.9811C115.136 52.6456 115.542 53.4849 115.658 54.3813C115.865 55.3071 116.073 56.226 116.288 57.1244C116.388 57.5907 116.503 58.0501 116.603 58.4959C116.648 58.7389 116.74 58.9716 116.875 59.1817C117.052 59.3766 117.273 59.5309 117.521 59.633C117.769 59.7351 118.038 59.7824 118.308 59.7714C119.447 59.8074 120.574 59.5289 121.552 58.9691C121.722 58.8904 121.863 58.7666 121.961 58.6125C122.046 58.4175 122.068 58.2026 122.025 57.9953L121.66 54.0041C121.458 52.9069 121.639 51.7767 122.175 50.7879C123.25 48.6414 124.41 46.495 124.833 44.1291C125.091 43.0319 124.991 41.8852 124.546 40.8443C124.133 40.1819 123.582 39.6077 122.928 39.1571C122.274 38.7066 121.53 38.3892 120.743 38.2246C118.703 37.6273 116.527 37.6083 114.476 38.1698C113.717 38.4167 113.48 38.9173 113.122 39.5413C112.585 40.5562 112.083 41.5986 111.632 42.6478C111.124 43.8411 110.68 45.0686 110.278 46.3167C109.834 47.312 109.798 48.4311 110.178 49.4506Z" fill="#B2857F"/>
<path d="M115.686 38.9926C116.832 39.9733 118.809 39.3149 120.048 40.1858C121.287 41.0568 121.18 42.7643 121.187 44.0056C121.187 44.225 120.779 46.7486 120.471 46.584C120.972 46.9269 121.359 45.9943 121.903 45.72C122.448 45.4457 123.264 46.2412 123.128 46.9269C122.897 47.5874 122.492 48.1801 121.954 48.6482C121.081 49.6843 120.599 50.9722 120.586 52.3033C120.586 52.6119 120.707 52.9891 121.037 53.0302C121.366 53.0714 121.753 52.5982 121.975 52.4336C123.3 51.5764 124.897 51.2198 126.187 50.3215C126.624 50.037 126.998 49.6723 127.287 49.2485C127.575 48.8248 127.774 48.3503 127.87 47.8527C127.842 47.1611 127.912 46.4691 128.078 45.7954C128.349 45.35 128.679 44.9398 129.059 44.5747C129.243 44.3907 129.371 44.1609 129.426 43.9114C129.482 43.6618 129.464 43.4023 129.374 43.1621C129.267 42.9563 129.073 42.8055 128.966 42.5997C128.802 42.156 128.802 41.6719 128.966 41.2282C129.126 40.5997 129.144 39.9459 129.021 39.3099C128.897 38.674 128.635 38.0703 128.249 37.5388C127.612 36.757 126.659 36.2701 125.922 35.5706C125.184 34.8712 124.697 33.7191 125.27 32.8893C125.485 32.567 125.864 32.2653 125.786 31.8881C125.735 31.7557 125.652 31.6369 125.543 31.5414C125.435 31.446 125.304 31.3768 125.162 31.3395C124.544 31.1031 123.874 31.0163 123.211 31.0869C122.549 31.1575 121.916 31.3832 121.366 31.7441C121.789 31.2709 121.201 30.4823 120.557 30.4617C119.903 30.5168 119.294 30.8057 118.852 31.2709C118.815 31.0613 118.707 30.8691 118.546 30.7231C118.384 30.5772 118.178 30.4854 117.957 30.4617C117.515 30.4214 117.07 30.4948 116.668 30.6743C115.384 31.1123 114.256 31.8899 113.416 32.9167C113.003 33.4327 112.716 34.0307 112.576 34.6667C112.436 35.3028 112.446 35.9608 112.606 36.5924C112.678 36.9187 112.832 37.2234 113.054 37.4802C113.276 37.7371 113.56 37.9384 113.881 38.0668C114.26 38.1211 114.631 38.2106 114.992 38.3343C115.249 38.5269 115.483 38.7478 115.686 38.9926Z" fill="#473F47"/>
<path d="M113.874 51.5559L114.211 51.6451C114.309 51.6576 114.399 51.7011 114.469 51.7685C114.49 51.8402 114.49 51.9163 114.469 51.988C115.107 52.6525 115.513 53.4917 115.629 54.3881C115.837 55.3139 116.044 56.2328 116.259 57.1312C117.305 55.3562 118.093 53.4528 118.601 51.4736C117.033 51.6587 115.448 51.6863 113.874 51.5559Z" fill="#996764"/>
<path d="M112.219 85.2201C112.035 85.004 111.799 84.8342 111.53 84.7254C111.262 84.6167 110.97 84.5723 110.68 84.5961C110.35 84.7533 110.036 84.9393 109.741 85.1515C109.465 85.2732 109.165 85.3386 108.86 85.3435C107.628 85.4197 106.392 85.254 105.229 84.8567C104.648 84.5769 104.01 84.4224 103.359 84.4041C102.969 84.4768 102.599 84.6289 102.276 84.8501C101.952 85.0714 101.682 85.3566 101.483 85.6864C100.904 86.4872 100.579 87.4315 100.549 88.4051C100.518 89.3788 100.783 90.34 101.311 91.1726C101.794 91.8475 102.434 92.4061 103.18 92.8047C104.834 93.6406 106.675 94.0806 108.545 94.0871C110.407 94.1625 112.291 94.0322 114.132 94.1625C114.568 94.2448 115.021 94.1895 115.421 94.0048C115.641 93.8058 115.81 93.5616 115.917 93.2908C116.024 93.02 116.065 92.7295 116.037 92.4412C116.109 91.0697 116.345 89.9656 115.521 88.8204C114.486 87.5668 113.384 86.3651 112.219 85.2201Z" fill="#B2857F"/>
<path d="M132.705 62.3157C132.705 62.3157 153.189 87.9633 146.722 97.0291C140.254 106.095 112.929 95.5342 112.929 95.5342L115.586 88.025C115.586 88.025 134.782 90.3498 134.925 88.2993C135.068 86.2489 122.749 74.4606 122.749 74.4606C122.749 74.4606 120.528 57.2067 132.705 62.3157Z" fill="#E52440"/>
<path d="M29.8288 81.6884L24.9153 76.8332L23.5043 74.6113H20.1021L18.6982 72.8557H14.1142L15.6255 75.0776H10.1748L17.0795 81.949L11.5142 87.6888H17.1368L15.561 89.4924H19.8299L21.6564 87.0648H24.7434L29.8288 81.6884Z" fill="#E52440"/>
<path opacity="0.1" d="M17.0795 81.949H29.8288L24.9153 76.8332L23.5043 74.6113H20.1021L23.4613 80.7078H19.7296L15.6255 75.0776H10.1748L17.0795 81.949Z" fill="#020202"/>
<path d="M87.7093 81.6404C87.7103 81.7622 87.6859 81.883 87.6377 81.9958C87.5894 82.1085 87.5182 82.2109 87.4282 82.2971C87.3383 82.3832 87.2313 82.4514 87.1136 82.4976C86.9958 82.5438 86.8696 82.5671 86.7424 82.5662H21.9714C21.843 82.5783 21.7134 82.5659 21.59 82.5297C21.4666 82.4934 21.352 82.4341 21.2528 82.3551C21.1536 82.276 21.0717 82.1789 21.0121 82.0694C20.9524 81.9598 20.916 81.84 20.9051 81.7169C20.8942 81.5938 20.9089 81.4698 20.9485 81.3522C20.988 81.2346 21.0516 81.1257 21.1355 81.0318C21.2194 80.9379 21.3219 80.8609 21.4371 80.8053C21.5524 80.7497 21.678 80.7165 21.8067 80.7078H86.7352C86.8632 80.7078 86.9898 80.7319 87.108 80.7788C87.2262 80.8256 87.3336 80.8943 87.424 80.9809C87.5145 81.0675 87.5862 81.1703 87.6352 81.2835C87.6841 81.3967 87.7093 81.5179 87.7093 81.6404Z" fill="#E52440"/>
<path opacity="0.1" d="M86.0476 81.6404V82.5662H21.9714C21.8442 82.568 21.7178 82.5456 21.5997 82.5002C21.4816 82.4548 21.3741 82.3874 21.2835 82.3019C21.1928 82.2164 21.1208 82.1145 21.0717 82.0021C21.0226 81.8897 20.9973 81.7691 20.9973 81.6472H86.0476V81.6404Z" fill="#020202"/>
<path opacity="0.1" d="M15.561 89.4924L21.5131 82.5662H25.0729L19.8299 89.4924H15.561Z" fill="#020202"/>
<path d="M82.2585 78.1226L83.3329 81.6405L82.2585 84.6716L90.6101 81.8806L82.2585 78.1226Z" fill="#E52440"/>
<path d="M82.2585 78.1226L83.3329 81.6405L82.2585 84.6716L90.6101 81.8806L82.2585 78.1226Z" fill="url(#paint0_linear_1532_21825)"/>
<path d="M39.8707 73.5826C47.1691 73.5826 53.0856 67.9179 53.0856 60.9302C53.0856 53.9425 47.1691 48.2778 39.8707 48.2778C32.5723 48.2778 26.6558 53.9425 26.6558 60.9302C26.6558 67.9179 32.5723 73.5826 39.8707 73.5826Z" fill="#FFB443" fill-opacity="0.5"/>
<path d="M34.3698 64.4621C34.4354 64.5889 34.5282 64.701 34.642 64.7912C34.8151 64.9136 35.0089 65.0064 35.215 65.0655C37.6718 65.8816 40.2288 66.5811 42.8288 66.3548C43.1052 66.3463 43.3764 66.2809 43.6238 66.1628C43.7464 66.1037 43.8487 66.0123 43.9185 65.8992C43.9883 65.7861 44.0228 65.6563 44.0178 65.525C43.9941 65.4141 43.9773 65.3018 43.9676 65.189C43.9676 64.7638 44.6839 64.6952 44.8558 64.3112C44.8991 64.1839 44.9025 64.0472 44.8656 63.918C44.8287 63.7888 44.7531 63.6728 44.6481 63.5843C44.4547 63.3923 44.2112 63.2551 44.0249 63.0562C44.3418 62.8922 44.6122 62.6569 44.8128 62.3705C44.9068 62.2211 44.9509 62.0479 44.9394 61.874C44.9279 61.7 44.8612 61.5335 44.7484 61.3967C44.555 61.1978 44.2112 61.0881 44.1825 60.8207C44.1539 60.5532 44.4332 60.4023 44.5908 60.2103C44.7537 59.9721 44.8155 59.6833 44.7636 59.4029C44.7117 59.1226 44.5499 58.8717 44.3114 58.7016C43.8191 58.3716 43.2188 58.2231 42.6211 58.2833C42.029 58.3461 41.4332 58.3713 40.8376 58.3588C40.7644 58.3627 40.6912 58.3513 40.6231 58.3252C40.5551 58.2991 40.4938 58.2591 40.4437 58.2079C40.3291 58.057 40.4007 57.8376 40.4437 57.6593C40.7012 57.075 40.8113 56.4409 40.7653 55.8083C40.7193 55.1756 40.5183 54.5623 40.1787 54.0179C40.0568 53.8071 39.8732 53.635 39.6505 53.5229C39.4278 53.4108 39.1756 53.3635 38.9252 53.387C38.7631 53.4322 38.6142 53.5127 38.4899 53.6221C38.3657 53.7315 38.2695 53.867 38.209 54.0179C38.0972 54.3174 38.0204 54.6279 37.9798 54.9436C37.636 56.8226 36.7048 58.8319 34.7208 59.5314C34.3842 59.648 34.0833 59.5863 33.8613 59.8812C33.7012 60.1572 33.6266 60.4712 33.6464 60.7864C33.5544 61.9884 33.753 63.1945 34.2266 64.3112L34.3698 64.4621Z" fill="white"/>
<path d="M70.4333 123.404C75.9595 123.404 80.4394 119.115 80.4394 113.824C80.4394 108.533 75.9595 104.243 70.4333 104.243C64.9071 104.243 60.4272 108.533 60.4272 113.824C60.4272 119.115 64.9071 123.404 70.4333 123.404Z" fill="#FFB443" fill-opacity="0.5"/>
<path d="M66.2217 116.443C66.2695 116.54 66.3378 116.626 66.4222 116.697C66.5511 116.792 66.6966 116.864 66.852 116.909C68.6617 117.649 70.6145 118.014 72.582 117.979C72.7909 117.978 72.9969 117.932 73.1837 117.842C73.2784 117.799 73.3584 117.731 73.4142 117.646C73.4701 117.561 73.4994 117.462 73.4988 117.362C73.4988 117.273 73.4559 117.19 73.4559 117.108C73.4559 116.786 74.0074 116.745 74.1721 116.422C74.206 116.327 74.2098 116.224 74.183 116.126C74.1563 116.029 74.1002 115.941 74.0217 115.874C73.8784 115.73 73.6994 115.62 73.5561 115.469C73.8 115.345 74.0089 115.166 74.1649 114.948C74.2337 114.834 74.2669 114.704 74.2606 114.573C74.2542 114.441 74.2086 114.315 74.1291 114.207C73.9859 114.057 73.728 113.967 73.7137 113.769C73.6994 113.57 73.8999 113.453 74.0289 113.309C74.1524 113.13 74.2011 112.912 74.1652 112.7C74.1294 112.488 74.0117 112.297 73.8355 112.164C73.4666 111.909 73.0139 111.789 72.5605 111.828C72.1121 111.855 71.6624 111.855 71.214 111.828C71.1581 111.83 71.1023 111.821 71.0504 111.801C70.9986 111.78 70.9518 111.75 70.9132 111.711C70.8272 111.595 70.9132 111.43 70.9132 111.293C71.111 110.855 71.1998 110.38 71.1724 109.904C71.1451 109.427 71.0024 108.964 70.7556 108.55C70.6659 108.389 70.5295 108.257 70.363 108.17C70.1964 108.082 70.0068 108.043 69.8173 108.056C69.6971 108.091 69.5869 108.152 69.495 108.234C69.4031 108.316 69.3321 108.417 69.2873 108.529C69.1968 108.75 69.1343 108.98 69.101 109.215C68.8145 110.635 68.0839 112.143 66.5727 112.644C66.3148 112.726 66.0928 112.678 65.9209 112.898C65.7963 113.106 65.7366 113.344 65.749 113.583C65.6542 114.492 65.7868 115.408 66.1357 116.258C66.157 116.322 66.1858 116.385 66.2217 116.443Z" fill="white"/>
<path d="M30.2156 112.267C35.1366 112.267 39.1259 108.447 39.1259 103.736C39.1259 99.0243 35.1366 95.2048 30.2156 95.2048C25.2947 95.2048 21.3054 99.0243 21.3054 103.736C21.3054 108.447 25.2947 112.267 30.2156 112.267Z" fill="#FFB443" fill-opacity="0.5"/>
<path d="M29.9434 102.337C29.9434 102.337 26.6916 98.5582 24.6359 102.138C22.5803 105.718 31.1539 108.906 31.1539 108.906C31.1539 108.906 35.9743 104.655 35.4514 102.09C34.9285 99.5252 30.545 98.5239 29.9434 102.337Z" fill="white"/>
<path d="M55.9292 99.2165C63.7972 99.2165 70.1755 93.1097 70.1755 85.5766C70.1755 78.0436 63.7972 71.9368 55.9292 71.9368C48.0612 71.9368 41.6829 78.0436 41.6829 85.5766C41.6829 93.1097 48.0612 99.2165 55.9292 99.2165Z" fill="#FFB443" fill-opacity="0.5"/>
<path d="M55.4779 83.3483C55.4779 83.3483 50.2636 77.293 46.9831 83.0191C43.7027 88.7453 57.4047 93.8474 57.4047 93.8474C57.4047 93.8474 65.1116 87.0514 64.3165 82.9505C63.5215 78.8496 56.452 77.2449 55.4779 83.3483Z" fill="white"/>
<path opacity="0.22" d="M163.46 43.2239C165.838 43.2239 167.765 41.3786 167.765 39.1024C167.765 36.8262 165.838 34.981 163.46 34.981C161.083 34.981 159.156 36.8262 159.156 39.1024C159.156 41.3786 161.083 43.2239 163.46 43.2239Z" fill="#E52440"/>
<defs>
<linearGradient id="paint0_linear_1532_21825" x1="87.3296" y1="78.7946" x2="84.5473" y2="82.9067" gradientUnits="userSpaceOnUse">
<stop offset="0.01" stop-color="white"/>
<stop offset="1" stop-color="white" stop-opacity="0"/>
</linearGradient>
</defs>
</svg>
