<svg width="780" height="566" viewBox="0 0 780 566" fill="none" xmlns="http://www.w3.org/2000/svg">
<g clip-path="url(#clip0_1532_21051)">
<path opacity="0.18" d="M300.233 18.0963C217.663 47.2934 148.264 109.06 123.182 182.217C115.976 203.262 112.113 224.962 103.766 245.815C94.4777 268.941 79.7451 290.545 69.5564 313.459C38.6701 382.357 54.1633 461.064 103.125 516.663C140.017 558.542 194.563 575.27 256.776 560.989C287.422 553.974 313.805 538.248 343.51 530.019C384.485 518.668 430.785 519.747 472.641 518.706C519.4 517.531 617.384 501.362 664.304 497.507C736.246 491.571 732.803 347.841 717.029 311.609C701.256 275.378 676.675 242.789 658.98 207.29C638.522 166.279 627.052 121.202 598.448 84.2186C554.651 27.5782 472.641 -3.25706 390.791 0.269719C359.833 1.6959 329.288 7.70873 300.233 18.0963V18.0963Z" fill="#FFB443"/>
<path d="M387.427 509.167C552.215 509.167 685.802 496.172 685.802 480.143C685.802 464.114 552.215 451.119 387.427 451.119C222.64 451.119 89.0527 464.114 89.0527 480.143C89.0527 496.172 222.64 509.167 387.427 509.167Z" fill="url(#paint0_linear_1532_21051)"/>
<path d="M468.718 376.749H355.661L335.104 292.453H448.16L468.718 376.749Z" fill="#D99023"/>
<path d="M462.032 376.749H355.661L335.104 292.453H441.474L462.032 376.749Z" fill="#FFB443"/>
<path d="M618.485 373.684H215.301V477.098H618.485V373.684Z" fill="#FFB443"/>
<path d="M618.485 373.684H215.301V477.098H618.485V373.684Z" fill="#981921"/>
<path d="M551.988 74.0817H222.887C203.464 74.0817 187.717 89.2417 187.717 107.943V285.13C187.717 303.83 203.464 318.991 222.887 318.991H551.988C571.412 318.991 587.158 303.83 587.158 285.13V107.943C587.158 89.2417 571.412 74.0817 551.988 74.0817Z" fill="#E52440"/>
<path d="M587.158 270.406V285.11C587.148 294.088 583.439 302.694 576.845 309.042C570.252 315.39 561.313 318.961 551.988 318.971H222.867C213.54 318.971 204.594 315.404 197.998 309.054C191.403 302.703 187.697 294.091 187.697 285.11V285.11V270.406H587.158Z" fill="url(#paint1_linear_1532_21051)"/>
<path opacity="0.1" d="M540.339 240.11V335.43H454.645C452.272 335.43 449.996 334.522 448.318 332.906C446.64 331.291 445.698 329.1 445.698 326.815V326.815V248.725C445.698 246.44 446.64 244.249 448.318 242.633C449.996 241.018 452.272 240.11 454.645 240.11H540.339V240.11Z" fill="#020202"/>
<path d="M318.549 321.149H382.423C382.97 321.149 383.511 321.253 384.017 321.454C384.522 321.656 384.981 321.951 385.367 322.323C385.754 322.695 386.061 323.137 386.27 323.623C386.479 324.11 386.587 324.631 386.587 325.158V325.158C386.587 325.684 386.479 326.205 386.27 326.692C386.061 327.178 385.754 327.62 385.367 327.992C384.981 328.364 384.522 328.66 384.017 328.861C383.511 329.062 382.97 329.166 382.423 329.166H318.549C318.002 329.166 317.461 329.062 316.955 328.861C316.45 328.66 315.991 328.364 315.605 327.992C315.218 327.62 314.911 327.178 314.702 326.692C314.493 326.205 314.385 325.684 314.385 325.158V325.158C314.385 324.094 314.824 323.075 315.605 322.323C316.386 321.571 317.445 321.149 318.549 321.149V321.149Z" fill="#473F47"/>
<path d="M328.878 299.699L326.976 311.783L332.241 312.361L337.985 299.584L328.878 299.699Z" fill="#FCBDBA"/>
<path d="M333.822 310.588C333.567 310.39 333.344 310.156 333.162 309.894C332.893 310.056 332.59 310.159 332.275 310.195C331.961 310.232 331.641 310.202 331.34 310.106L328.698 309.682C328.234 309.628 327.781 309.505 327.357 309.316H327.176L326.616 310.357C325.657 312.216 325.093 314.24 324.955 316.312C329.955 317.452 335.094 317.926 340.228 317.719C340.639 317.773 341.057 317.721 341.44 317.569C341.824 317.417 342.158 317.169 342.41 316.851C342.508 316.636 342.559 316.403 342.559 316.167C342.559 315.932 342.508 315.699 342.41 315.483C342.167 314.995 341.827 314.557 341.407 314.197C340.988 313.836 340.499 313.559 339.967 313.382C338.606 312.843 337.225 312.38 335.964 311.764C335.198 311.467 334.477 311.071 333.822 310.588V310.588Z" fill="#FFB443"/>
<path d="M364.188 303.38L362.546 315.502L367.831 315.965L373.296 303.091L364.188 303.38Z" fill="#FCBDBA"/>
<path opacity="0.1" d="M543.681 134.499V171.906C543.681 176.823 541.653 181.539 538.041 185.016C534.43 188.493 529.532 190.446 524.425 190.446H411.669L365.97 241.054V115.96H524.425C526.954 115.96 529.458 116.439 531.794 117.371C534.13 118.303 536.253 119.668 538.041 121.39C539.829 123.111 541.248 125.155 542.216 127.405C543.183 129.654 543.681 132.065 543.681 134.499V134.499Z" fill="#020202"/>
<path d="M519.78 100.041H392.272C381.637 100.041 373.015 108.342 373.015 118.581V155.988C373.015 166.227 381.637 174.527 392.272 174.527H519.78C530.416 174.527 539.037 166.227 539.037 155.988V118.581C539.037 108.342 530.416 100.041 519.78 100.041Z" fill="white"/>
<path opacity="0.1" d="M395.395 165.296C394.747 165.352 394.096 165.259 393.493 165.026C392.518 164.373 391.849 163.376 391.631 162.251C388.489 152.904 381.983 143.808 372.215 141.052C369.673 151.016 369.853 161.423 370.053 171.695C370.053 174.431 370.373 177.572 372.655 179.191C374.143 180.075 375.873 180.505 377.619 180.425C388.696 180.83 399.704 178.571 409.647 173.853C412.629 172.427 418.774 166.857 413.05 165.046C411.328 164.487 407.525 165.335 405.683 165.335L395.395 165.296Z" fill="#020202"/>
<path d="M328.417 215.596L336.264 257.59L328.417 302.763L341.128 303.708L359.644 252.83L353.378 212.513L328.417 215.596Z" fill="#473F47"/>
<path d="M372.295 212.513L386.407 268.421L374.997 306.907L363.688 306.348L365.269 273.509L345.352 220.414L372.295 212.513Z" fill="#473F47"/>
<path d="M411.148 166.144C412.846 165.189 414.662 164.445 416.553 163.928C416.85 163.8 417.174 163.744 417.498 163.764C417.823 163.784 418.137 163.88 418.414 164.043C418.708 164.308 418.899 164.662 418.955 165.046C419.248 166.28 419.143 167.57 418.655 168.746C420.787 169.883 423.025 170.825 425.34 171.559C425.823 171.639 426.284 171.813 426.694 172.072C427.104 172.331 427.454 172.668 427.722 173.063C427.866 173.475 427.878 173.92 427.756 174.339C427.635 174.758 427.386 175.132 427.042 175.414C426.342 175.973 425.498 176.339 424.6 176.474C418.795 177.784 409.347 176.474 407.966 169.786C407.665 168.322 408.226 168.071 409.427 167.243C410.067 166.838 410.648 166.491 411.148 166.144Z" fill="#FCBDBA"/>
<path d="M367.531 114.553C368.85 117.103 369.697 119.855 370.033 122.686C370.188 124.099 369.957 125.527 369.364 126.828C368.771 128.129 367.835 129.259 366.65 130.105C365.927 130.427 365.254 130.842 364.648 131.339C362.526 133.44 364.949 137.236 363.728 139.953C363.257 140.848 362.456 141.541 361.483 141.898C360.509 142.254 359.432 142.248 358.463 141.881C357.494 141.472 356.631 140.861 355.938 140.091C355.246 139.32 354.741 138.411 354.46 137.429C353.92 135.455 353.677 133.417 353.739 131.377L353.519 119.236C353.238 116.534 353.679 113.807 354.8 111.315C355.563 110.046 356.675 109.004 358.014 108.304C359.352 107.603 360.865 107.272 362.386 107.345C365.569 107.731 366.47 112.163 367.531 114.553Z" fill="#FCBDBA"/>
<path d="M411.528 175.183C411.528 175.183 387.347 195.977 385.606 195.977C383.864 195.977 373.115 182.911 373.115 182.911L372.294 212.59C369.309 214.285 366.198 215.767 362.987 217.022C357.458 219.452 351.427 220.639 345.351 220.491C333.601 219.47 328.417 215.673 328.417 215.673L335.663 145.966C335.663 145.966 349.355 136.484 354.039 137.93C357.388 138.508 360.818 138.508 364.168 137.93C370.933 137.063 377.839 145.966 377.839 145.966L386.827 174.392L407.905 167.185C409.277 168.009 410.358 169.215 411.005 170.643C411.652 172.07 411.834 173.653 411.528 175.183Z" fill="white"/>
<path d="M370.193 101.467C370.349 99.9364 369.976 98.3988 369.132 97.0925C367.511 94.9148 364.188 94.722 361.466 95.3002C359.594 95.7944 357.782 96.4792 356.061 97.343C354.795 97.8451 353.415 98.0179 352.058 97.8441C348.464 97.7827 344.98 99.0362 342.31 101.352C338.626 104.705 337.766 109.658 337.385 114.302C336.985 119.564 339.387 123.938 343.01 127.947C346.073 131.435 351.657 134.866 355.641 130.452C357.417 128.209 358.227 125.393 357.903 122.589C356.949 122.495 356.049 122.116 355.331 121.504C354.613 120.892 354.112 120.079 353.899 119.178C353.762 118.612 353.79 118.021 353.981 117.47C354.172 116.919 354.518 116.429 354.98 116.056C355.264 115.892 355.579 115.782 355.907 115.735C356.234 115.687 356.569 115.703 356.89 115.78C357.212 115.857 357.514 115.994 357.781 116.183C358.047 116.373 358.273 116.611 358.443 116.885C358.558 117.058 358.646 117.246 358.704 117.444C359.281 116.326 359.705 115.14 359.965 113.917C360.425 112.741 361.966 111.72 362.967 112.51C363.548 112.953 363.888 113.936 364.629 113.782C364.874 113.693 365.089 113.54 365.249 113.339C366.706 111.989 367.936 110.429 368.892 108.714C369.788 106.69 370.258 104.515 370.273 102.315C370.197 102.039 370.17 101.752 370.193 101.467V101.467Z" fill="#512716"/>
<path d="M322.673 98.8848C320.127 98.5939 317.55 99.0581 315.286 100.215C313.022 101.372 311.178 103.167 310.002 105.36C307.22 110.853 309.221 117.347 309.682 123.457C310.1 125.577 309.757 127.772 308.71 129.68C307.662 131.589 305.972 133.098 303.917 133.96C299.433 136.562 294.269 138.315 290.685 141.996C287.864 145.022 286.198 148.883 285.961 152.943C285.738 154.635 286.044 156.353 286.842 157.876C287.625 159.003 288.649 159.956 289.845 160.671C293.162 162.98 296.924 164.627 300.912 165.517C304.899 166.408 309.031 166.522 313.065 165.855C317.088 165.12 320.811 163.299 323.799 160.603C326.787 157.907 328.917 154.448 329.939 150.63C331.7 142.497 327.417 134.422 325.795 126.251C325.499 125.294 325.404 124.289 325.518 123.296C325.631 122.303 325.95 121.342 326.456 120.469C327.797 118.735 330.279 118.33 332.221 117.232C342.73 111.277 330.379 99.8869 322.673 98.8848Z" fill="#512716"/>
<path d="M337.645 106.748H337.465C335.265 106.748 333.482 108.465 333.482 110.583V110.756C333.482 112.874 335.265 114.592 337.465 114.592H337.645C339.845 114.592 341.629 112.874 341.629 110.756V110.583C341.629 108.465 339.845 106.748 337.645 106.748Z" fill="#FFB443"/>
<path d="M369.352 314.173C369.102 313.97 368.879 313.737 368.692 313.479C368.427 313.649 368.127 313.761 367.812 313.808C367.497 313.854 367.176 313.834 366.87 313.749L364.228 313.363C363.759 313.314 363.3 313.197 362.867 313.016H362.687L362.146 314.076C361.243 315.961 360.726 317.996 360.625 320.07C365.648 321.096 370.791 321.472 375.918 321.188C376.332 321.236 376.751 321.176 377.132 321.013C377.513 320.85 377.84 320.591 378.08 320.262C378.179 320.047 378.23 319.814 378.23 319.578C378.23 319.343 378.179 319.11 378.08 318.894C377.831 318.41 377.483 317.979 377.057 317.627C376.63 317.276 376.134 317.012 375.598 316.851C374.217 316.331 372.815 315.907 371.474 315.29C370.717 315.014 370.003 314.638 369.352 314.173V314.173Z" fill="#FFB443"/>
<path d="M370.473 329.166H362.366L355.901 346.01H322.492L328.958 329.166H320.851L263.982 477.098H272.089L277.714 462.471H311.063L305.438 477.098H313.545L319.17 462.471H319.41V461.854L369.993 330.303V477.098H378.1V329.166H370.473ZM353.699 351.753L345.272 373.684H311.843L320.27 351.753H353.699ZM301.194 401.455L309.621 379.543H343.09L334.623 401.455H301.194ZM332.421 407.237L323.994 429.149H290.565L299.052 407.121L332.421 407.237ZM279.916 456.843L288.343 434.912H321.772L313.345 456.843H279.916Z" fill="#E52440"/>
<path d="M576.529 229.857H454.645C449.704 229.857 445.698 233.714 445.698 238.472V316.543C445.698 321.301 449.704 325.158 454.645 325.158H576.529C581.471 325.158 585.477 321.301 585.477 316.543V238.472C585.477 233.714 581.471 229.857 576.529 229.857Z" fill="white"/>
<path d="M564.099 311.995H467.076V243.039H468.817V310.299H564.099V311.995Z" fill="#FFB443"/>
<path d="M468.217 287.211L467.296 285.766L491.757 271.292L527.728 276.631L559.515 258.977L560.396 260.442L528.068 278.404L527.768 278.346L492.138 273.065L468.217 287.211Z" fill="#FFB443"/>
<path d="M493.038 276.033C495.16 276.033 496.881 274.376 496.881 272.333C496.881 270.289 495.16 268.633 493.038 268.633C490.915 268.633 489.194 270.289 489.194 272.333C489.194 274.376 490.915 276.033 493.038 276.033Z" fill="#E52440"/>
<path d="M527.888 281.217C530.01 281.217 531.731 279.561 531.731 277.517C531.731 275.474 530.01 273.817 527.888 273.817C525.765 273.817 524.044 275.474 524.044 277.517C524.044 279.561 525.765 281.217 527.888 281.217Z" fill="#E52440"/>
<path d="M559.294 263.969C561.417 263.969 563.138 262.312 563.138 260.269C563.138 258.225 561.417 256.568 559.294 256.568C557.172 256.568 555.451 258.225 555.451 260.269C555.451 262.312 557.172 263.969 559.294 263.969Z" fill="#E52440"/>
<path d="M572.866 349.055C572.866 349.055 545.062 399.644 539.858 415.543C534.653 431.443 535.134 478.293 535.134 478.293H550.267C550.267 478.293 550.267 431.019 556.692 423.059C563.118 415.1 598.928 374.475 598.928 374.475L572.866 349.055Z" fill="#473F47"/>
<path d="M569.783 355.203C569.783 355.203 586.638 420.727 595.365 435.393C604.092 450.059 627.953 476.481 627.953 476.481L640.804 469.852C640.804 469.852 607.756 428.109 609.597 415.89C611.439 403.672 616.123 356.918 616.123 356.918C616.123 356.918 592.843 344.757 569.783 355.203Z" fill="#473F47"/>
<path d="M626.932 261.04C626.932 261.04 640.363 267.65 635.359 283.549C630.355 299.449 614.521 335.256 616.243 345.856C617.964 356.455 616.123 356.802 616.123 356.802C616.123 356.802 580.793 369.059 569.783 355.145C569.783 355.145 590.801 283.549 595.265 274.607C599.729 265.665 612.48 255.759 626.932 261.04Z" fill="#FFB443"/>
<path d="M619.966 296.384C618.661 300.297 616.831 304.029 614.522 307.485C613.357 309.553 611.961 311.492 610.358 313.267C605.814 317.969 599.008 319.761 592.923 322.344C591.834 322.755 590.826 323.342 589.941 324.078C589.035 325.068 588.317 326.203 587.819 327.432C584.516 334.389 580.072 341.442 572.826 344.584C575.808 333.618 578.831 322.652 582.234 311.821C582.63 309.813 583.474 307.911 584.708 306.248C585.942 304.584 587.536 303.198 589.38 302.185C596.987 296.808 604.533 291.335 612.22 286.055C614.842 284.243 617.584 282.2 619.806 285.477C621.748 288.348 620.867 293.378 619.966 296.384Z" fill="url(#paint2_linear_1532_21051)"/>
<path d="M601.951 233.095C601.191 233.847 600.21 234.617 600.21 235.658C600.339 236.441 600.677 237.178 601.191 237.797C603.513 241.652 601.391 247.048 604.193 250.536C605.238 251.73 606.634 252.59 608.197 253.003C609.786 253.21 611.324 253.686 612.741 254.41C613.814 255.428 614.426 256.814 614.442 258.264C614.602 259.999 614.282 261.733 614.442 263.468C614.402 264.049 614.517 264.63 614.776 265.157C615.035 265.683 615.43 266.136 615.923 266.474C616.421 266.685 616.962 266.784 617.505 266.763C620.625 266.899 623.751 266.666 626.813 266.069C627.253 266.014 627.672 265.855 628.034 265.607C628.389 265.208 628.618 264.72 628.694 264.2C630.015 258.418 631.376 252.637 632.698 246.855C633.474 244.776 634.445 242.77 635.6 240.862C636.654 237.977 637.01 234.899 636.641 231.862C636.3 229.588 635.497 227.4 634.279 225.425C633.28 223.56 631.823 221.959 630.035 220.761C628.717 220.013 627.295 219.448 625.812 219.084C620.687 217.562 612.681 215.519 608.237 219.759C604.594 223.305 605.795 229.414 601.951 233.095Z" fill="#FCBDBA"/>
<path d="M601.41 239.57C602.511 238.915 606.074 240.284 607.416 240.264C611.639 240.149 615.082 242.191 618.465 239.686C621.227 237.759 622.328 234.309 623.289 231.149C623.309 230.976 623.309 230.801 623.289 230.628C623.25 230.407 623.161 230.196 623.029 230.012C621.468 227.815 618.285 227.583 615.603 226.947C610.818 225.616 606.519 223.019 603.192 219.45C602.31 218.72 601.717 217.72 601.511 216.617C601.56 215.981 601.768 215.365 602.117 214.822C602.465 214.278 602.944 213.824 603.512 213.495C606.934 211.414 611.072 210.721 615.022 211.568C618.916 212.434 622.758 213.502 626.532 214.767C630.175 215.75 633.938 216.348 637.561 217.465C638.335 217.679 639.07 218.004 639.743 218.429C640.628 219.104 641.318 219.986 641.745 220.992C642.387 222.259 642.721 223.649 642.721 225.059C642.721 226.468 642.387 227.859 641.745 229.125C641.483 229.496 641.287 229.907 641.164 230.339C641.144 230.777 641.205 231.214 641.344 231.63C642.245 235.485 640.264 239.339 638.342 242.673L633.338 251.654C632.83 252.738 632.078 253.699 631.136 254.468C630.659 254.841 630.069 255.054 629.454 255.075C628.84 255.096 628.236 254.923 627.733 254.583C626.692 253.716 626.632 251.982 625.411 251.403C624.997 251.273 624.559 251.231 624.127 251.281C623.694 251.331 623.279 251.471 622.909 251.693C620.707 252.714 618.905 254.333 616.744 255.547C613.006 257.552 608.602 258.071 604.473 256.992C603.26 256.704 602.126 256.164 601.15 255.412C599.008 253.639 599.149 251.269 599.589 248.86C600.029 246.451 599.149 240.92 601.41 239.57Z" fill="#473F47"/>
<path d="M623.81 285.997C623.81 285.997 609.358 321.785 551.989 328.627L549.987 320.918C549.987 320.918 588.3 306.329 596.567 291.528C598.942 287.369 600.996 283.046 602.712 278.596C605.314 271.658 613.661 267.92 620.347 271.524C624.31 273.663 626.772 277.903 623.81 285.997Z" fill="#FFB443"/>
<path d="M540.278 319.318C540.343 320.295 540.769 321.218 541.479 321.92C537.802 323.241 533.914 323.932 529.99 323.963C529.275 323.883 528.556 324.076 527.988 324.502C527.227 325.292 527.828 326.584 528.528 327.412C531.51 330.651 535.632 332.71 540.098 333.194C543.008 333.738 546.024 333.267 548.605 331.864C550.387 330.577 551.89 328.967 553.029 327.123C553.261 326.841 553.437 326.521 553.55 326.179C553.636 325.502 553.465 324.817 553.069 324.252C552.609 323.423 551.968 321.785 551.067 321.38C550.167 320.975 548.926 321.38 548.005 321.226C545.363 320.648 543.001 319.029 540.278 319.318Z" fill="#FCBDBA"/>
<path d="M651.453 477.426C651.742 477.626 651.978 477.889 652.141 478.194C652.303 478.499 652.388 478.837 652.388 479.18C652.388 479.522 652.303 479.86 652.141 480.165C651.978 480.47 651.742 480.733 651.453 480.933C645.24 487.377 637.799 492.611 629.534 496.351C627.252 497.372 624.11 498.105 622.548 496.197C620.987 494.289 622.648 491.398 623.97 489.201C625.754 486.252 626.847 482.963 627.172 479.565C627.174 478.401 627.412 477.249 627.873 476.173C629.494 473.302 637.461 470.392 640.764 470.392C645.148 470.353 648.771 474.496 651.453 477.426Z" fill="#FFB443"/>
<path d="M555.271 488.661C555.428 488.97 555.505 489.311 555.495 489.655C555.485 489.999 555.388 490.336 555.212 490.635C555.037 490.935 554.788 491.189 554.488 491.376C554.188 491.562 553.845 491.676 553.489 491.706C544.778 494.328 535.623 495.309 526.526 494.597C524.004 494.385 520.902 493.518 520.521 491.109C520.141 488.7 523.083 486.985 525.365 485.732C528.414 484.019 531.048 481.699 533.092 478.929C533.685 477.914 534.489 477.028 535.454 476.327C538.336 474.593 546.784 475.807 549.666 477.407C553.469 479.507 554.47 484.826 555.271 488.661Z" fill="#FFB443"/>
<path d="M179.31 471.182C179.225 473.64 179.696 476.086 180.691 478.351C181.947 480.461 183.839 482.155 186.116 483.207C190.995 485.655 196.668 486.194 201.949 484.711C202.666 484.572 203.31 484.197 203.771 483.651C204.044 483.189 204.156 482.656 204.091 482.128C203.69 479.323 202.212 476.765 199.948 474.959C197.691 473.19 195.762 471.066 194.243 468.676C191.821 463.935 193.622 451.331 184.394 453.413C176.688 455.089 179.09 465.94 179.31 471.182Z" fill="#FBB9AD"/>
<path d="M178.029 479.681C178.029 479.681 176.708 482.803 178.329 484.614C179.951 486.426 196.545 496.351 207.714 488.353C218.884 480.355 192.541 479.334 192.541 479.334L178.029 479.681Z" fill="#FFB443"/>
<path d="M178.67 472.473C179.175 472.227 179.755 472.166 180.303 472.301C180.852 472.436 181.331 472.757 181.652 473.205C182.742 474.4 184.129 475.309 185.684 475.845C187.239 476.381 188.91 476.527 190.54 476.269C194.183 475.441 195.624 471.394 197.426 471.374C199.227 471.355 208.875 479.276 209.436 482.668C209.996 486.06 205.052 488.565 199.608 488.893C194.163 489.22 181.792 485.578 179.45 482.822C178.463 481.286 177.876 479.542 177.74 477.74C177.604 475.938 177.923 474.13 178.67 472.473V472.473Z" fill="white"/>
<path d="M147.663 476.019C147.556 478.478 148.028 480.929 149.044 483.188C150.3 485.294 152.192 486.981 154.469 488.025C159.341 490.474 165.007 491.012 170.282 489.529C171.008 489.397 171.661 489.022 172.124 488.469C172.388 488.011 172.499 487.486 172.444 486.965C172.04 484.162 170.562 481.605 168.301 479.796C166.06 478.019 164.133 475.904 162.596 473.533C160.174 468.811 161.975 456.188 152.747 458.269C145.041 459.965 147.443 470.835 147.663 476.019Z" fill="#FBB9AD"/>
<path d="M146.382 484.556C146.382 484.556 145.061 487.659 146.682 489.471C148.303 491.282 164.858 501.207 176.027 493.229C187.197 485.25 160.894 484.21 160.894 484.21L146.382 484.556Z" fill="#FFB443"/>
<path d="M147.022 477.329C147.531 477.09 148.111 477.034 148.659 477.172C149.206 477.31 149.684 477.633 150.005 478.081C151.088 479.284 152.475 480.197 154.032 480.734C155.589 481.27 157.263 481.412 158.893 481.145C162.516 480.297 163.977 476.269 165.758 476.25C167.54 476.231 177.208 484.132 177.769 487.524C178.329 490.916 173.385 493.422 167.94 493.749C162.496 494.077 150.145 490.454 147.803 487.698C146.81 486.16 146.221 484.412 146.085 482.606C145.949 480.8 146.271 478.989 147.022 477.329V477.329Z" fill="white"/>
<path d="M141.037 344.854C141.037 344.854 139.336 436.145 146.342 466.595L164.177 468.715L169.041 343.948L141.037 344.854Z" fill="#473F47"/>
<path d="M190.3 334.986C190.3 334.986 204.492 384.13 194.303 463.203L176.468 465.323L165.238 339.265L190.3 334.986Z" fill="#473F47"/>
<path d="M216.982 295.652C216.782 298.967 215.681 301.819 212.699 302.783C212.444 302.865 212.183 302.929 211.918 302.975C206.453 304.035 199.267 300.027 194.283 296.519C192.193 295.073 190.189 293.516 188.278 291.856V256.53L214.981 282.778C216.365 286.938 217.041 291.285 216.982 295.652V295.652Z" fill="white"/>
<path d="M194.483 296.365C194.483 298.023 194.703 299.68 194.703 301.337C194.703 310.434 192.521 319.838 195.324 328.781C196.246 330.68 196.526 332.81 196.125 334.871C195.304 336.524 193.878 337.828 192.121 338.532C183.774 342.926 174.106 344.314 164.738 345.547C157.652 346.511 147.603 348.534 141.058 344.854C138.275 343.293 137.334 340.382 136.434 337.472C133.929 328.068 132.453 318.438 132.03 308.738C132.03 307.466 131.83 306.213 131.77 304.883C131.222 296.172 131.036 287.449 131.209 278.712C131.329 272.371 131.85 265.53 136.153 260.75C141.858 254.391 152.908 250.17 161.315 248.686C164.033 248.145 166.819 247.996 169.582 248.243C173.495 248.84 177.273 250.079 180.751 251.905C184.915 253.832 188.618 255.566 190.76 259.517C193.008 264.102 194.578 268.967 195.424 273.971C196.211 278.662 196.319 283.436 195.744 288.155C195.504 290.468 194.883 292.761 194.643 295.055C194.549 295.486 194.496 295.925 194.483 296.365V296.365Z" fill="white"/>
<path opacity="0.1" d="M155.87 347.956C153.128 348.727 146.802 346.299 144.701 346.029C143.439 345.817 142.298 345.2 141.037 344.931C134.772 343.427 134.031 326.468 133.431 321.901C131.81 309.856 129.307 297.367 129.127 285.284C128.846 280.62 129.408 275.944 130.789 271.466C131.492 269.229 132.697 267.168 134.319 265.429C135.942 263.691 137.941 262.317 140.177 261.406C148.183 258.63 150.566 283.01 151.666 288.059C152.767 293.108 152.908 302.05 156.37 306.097C159.833 310.145 166.759 310.896 171.283 308.853C173.716 307.677 175.741 305.845 177.109 303.579C178.478 301.313 179.131 298.713 178.99 296.095C178.716 294.282 178.563 292.454 178.529 290.622C178.531 289.703 178.805 288.803 179.319 288.028C179.834 287.253 180.566 286.636 181.432 286.247C182.248 286.051 183.106 286.076 183.908 286.321C184.71 286.566 185.426 287.021 185.976 287.635C187.042 288.898 187.808 290.372 188.218 291.952C189.253 295.254 189.924 298.652 190.219 302.089C191.02 310.241 189.739 318.605 191.761 326.564C192.665 329.039 193.099 331.65 193.042 334.273C192.582 336.443 191.359 338.394 189.58 339.798C187.801 341.202 185.574 341.974 183.273 341.982C180.966 341.897 178.714 341.277 176.71 340.173C174.706 339.068 173.009 337.514 171.764 335.642C171.364 334.972 170.826 334.388 170.182 333.926C169.464 333.579 168.662 333.426 167.86 333.483C164.037 333.483 158.552 334.331 157.311 338.455C156.431 341.404 158.552 344.237 156.891 347.282C156.647 347.618 156.284 347.858 155.87 347.956V347.956Z" fill="#020202"/>
<path d="M177.529 237.084C176.863 238.363 175.729 239.358 174.346 239.879C172.659 240.246 171.052 240.898 169.602 241.806V241.806C168.426 243.033 167.677 244.583 167.46 246.239L166.319 251.365L165.719 253.947C165.64 254.414 165.478 254.864 165.238 255.277C164.9 255.64 164.482 255.926 164.014 256.113C163.547 256.299 163.042 256.383 162.536 256.357C160.426 256.44 158.338 255.924 156.531 254.873C156.215 254.74 155.954 254.509 155.79 254.217C155.632 253.859 155.59 253.462 155.67 253.08L156.331 245.699C156.698 243.681 156.367 241.603 155.39 239.783C153.184 235.921 151.547 231.783 150.526 227.487C150.168 226.294 150.085 225.04 150.28 223.813C150.475 222.585 150.945 221.414 151.657 220.378C152.369 219.343 153.306 218.469 154.403 217.816C155.5 217.163 156.732 216.748 158.012 216.598C161.757 215.491 165.754 215.451 169.522 216.483C170.923 216.945 171.343 217.87 172.004 219.084C172.985 221.012 174.006 222.939 174.746 224.866C175.487 226.793 176.488 229.337 177.228 231.65C177.996 233.37 178.102 235.296 177.529 237.084V237.084Z" fill="#FBB9AD"/>
<path d="M234.197 274.26C234.437 273.875 234.898 273.489 235.278 273.72C235.433 273.869 235.544 274.056 235.598 274.26C235.818 274.63 236.135 274.938 236.519 275.151C236.902 275.364 237.337 275.476 237.78 275.474C238.641 275.474 239.542 275.339 240.422 275.339C241.573 275.374 242.7 275.666 243.714 276.191C244.728 276.716 245.602 277.46 246.267 278.365C247.59 280.196 248.328 282.36 248.389 284.59C248.625 286.594 248.051 288.609 246.788 290.217C244.786 292.472 241.163 292.53 238.06 292.434H235.218C234.546 292.518 233.867 292.352 233.319 291.968C232.771 291.584 232.398 291.013 232.275 290.372C231.114 287.654 229.013 284.937 230.454 282.2C231.895 279.464 232.475 276.187 234.197 274.26Z" fill="#FBB9AD"/>
<path d="M178.33 302.975V282.547C178.329 281.748 178.579 280.967 179.047 280.307C179.515 279.647 180.179 279.138 180.952 278.847L233.497 258.708C236.219 257.667 241.764 260.789 241.764 263.603L239.181 310.877C239.183 311.666 238.94 312.438 238.483 313.094C238.027 313.749 237.378 314.259 236.619 314.558L186.577 336.759C183.834 337.839 178.25 334.716 178.25 331.883L178.33 302.975Z" fill="#FFB443"/>
<path d="M178.33 302.975V282.547C178.31 281.746 178.551 280.96 179.017 280.297C179.483 279.634 180.153 279.127 180.932 278.847L233.497 258.708C236.219 257.667 241.764 260.789 241.764 263.603L239.182 310.877C239.18 311.666 238.936 312.436 238.48 313.091C238.024 313.747 237.377 314.257 236.619 314.558L186.577 336.759C183.854 337.839 178.27 334.716 178.27 331.883L178.33 302.975Z" fill="url(#paint3_linear_1532_21051)"/>
<path d="M180.952 304.17V283.742C180.95 282.94 181.199 282.156 181.667 281.493C182.135 280.829 182.799 280.317 183.574 280.022L236.119 259.902C236.747 259.66 237.428 259.569 238.101 259.639C238.775 259.708 239.42 259.935 239.981 260.301C240.542 260.666 241.001 261.158 241.319 261.733C241.637 262.309 241.803 262.951 241.804 263.603V312.13C241.802 312.918 241.558 313.689 241.102 314.344C240.646 314.999 239.999 315.51 239.241 315.811L186.697 336.817C186.192 337.019 185.651 337.122 185.105 337.122C184.559 337.121 184.018 337.017 183.514 336.814C183.01 336.612 182.552 336.316 182.167 335.942C181.783 335.569 181.478 335.126 181.272 334.639C181.059 334.158 180.95 333.64 180.952 333.117V304.17Z" fill="#FFB443"/>
<path d="M180.952 283.742L216.982 301.588L240.803 261.117C240.803 261.117 241.723 260.596 241.723 263.603V312.13L180.952 330.323V283.742Z" fill="url(#paint4_linear_1532_21051)"/>
<path d="M168.461 218.776C168.094 219.311 167.62 219.771 167.067 220.128C166.513 220.486 165.892 220.733 165.238 220.857C161.675 221.59 159.513 219.932 157.712 223.922C157.131 225.288 156.951 226.781 157.191 228.239C157.191 228.547 158.312 231.958 158.593 231.785C157.672 232.421 156.951 230.686 155.95 230.185C154.949 229.684 153.468 231.149 153.708 232.401C154.126 233.631 154.871 234.734 155.87 235.6C157.47 237.513 158.352 239.89 158.372 242.346C158.372 242.905 158.152 243.656 157.552 243.675C156.951 243.695 156.291 242.885 155.83 242.577C155.097 242.104 154.327 241.685 153.528 241.324C151.086 240.206 147.403 239.86 145.361 238.279C144.309 237.436 143.6 236.262 143.36 234.964C143.36 234.656 143.36 231.341 143.96 231.515C143.354 231.341 142.789 231.053 142.3 230.667C141.81 230.281 141.406 229.805 141.109 229.267C140.813 228.728 140.631 228.139 140.574 227.532C140.517 226.925 140.586 226.314 140.777 225.733V225.733C141.046 224.917 141.537 224.185 142.199 223.613C139.696 220.26 140.857 215.288 143.86 212.339C147.083 209.566 151.161 207.887 155.47 207.56C160.151 206.849 164.938 207.152 169.482 208.446C171.058 208.866 172.516 209.624 173.745 210.662C174.346 211.186 174.807 211.841 175.09 212.572C175.372 213.304 175.467 214.09 175.367 214.864C175.102 214.967 174.812 214.995 174.532 214.944C174.251 214.893 173.992 214.765 173.785 214.575C174.05 215.27 174.018 216.038 173.695 216.71C173.372 217.382 172.786 217.903 172.064 218.159C171.523 218.349 170.937 218.38 170.378 218.25C169.819 218.119 169.312 217.833 168.921 217.427C168.881 217.905 168.723 218.368 168.461 218.776V218.776Z" fill="#473F47"/>
<path d="M170.743 240.958L170.143 241.132C169.963 241.149 169.794 241.224 169.662 241.343C169.623 241.476 169.623 241.616 169.662 241.748C168.486 242.975 167.738 244.525 167.52 246.181L166.379 251.307C164.453 248.03 162.998 244.516 162.056 240.862C164.94 241.183 167.852 241.215 170.743 240.958V240.958Z" fill="#DC9F95"/>
<path d="M173.785 303.168C174.122 302.77 174.556 302.457 175.048 302.259C175.541 302.061 176.076 301.982 176.608 302.031C177.211 302.323 177.787 302.665 178.329 303.053C178.84 303.272 179.391 303.39 179.951 303.399C182.214 303.556 184.486 303.247 186.616 302.494C187.691 301.989 188.864 301.707 190.059 301.665C190.774 301.799 191.449 302.08 192.04 302.489C192.631 302.898 193.123 303.426 193.482 304.035C194.547 305.507 195.147 307.244 195.207 309.036C195.267 310.829 194.786 312.599 193.822 314.134C192.928 315.381 191.751 316.416 190.379 317.16C187.34 318.692 183.962 319.499 180.531 319.511C177.128 319.665 173.665 319.511 170.282 319.665C169.481 319.806 168.654 319.698 167.92 319.357C167.515 318.994 167.201 318.546 167.004 318.048C166.806 317.551 166.729 317.016 166.779 316.485C166.659 313.999 166.219 311.898 167.72 309.798C169.607 307.477 171.632 305.263 173.785 303.168V303.168Z" fill="#FBB9AD"/>
<path d="M136.193 260.77C136.193 260.77 98.5809 308.121 110.471 324.849C122.361 341.577 172.524 322.093 172.524 322.093L167.64 308.237C167.64 308.237 132.41 312.534 132.15 308.738C131.889 304.941 154.489 283.202 154.489 283.202C154.489 283.202 158.532 251.384 136.193 260.77Z" fill="white"/>
</g>
<defs>
<linearGradient id="paint0_linear_1532_21051" x1="367.731" y1="318.971" x2="395.33" y2="562.581" gradientUnits="userSpaceOnUse">
<stop offset="0.01"/>
<stop offset="0.08" stop-opacity="0.69"/>
<stop offset="0.21" stop-opacity="0.32"/>
<stop offset="1" stop-opacity="0"/>
</linearGradient>
<linearGradient id="paint1_linear_1532_21051" x1="74088" y1="-11323.1" x2="74504" y2="-3703.87" gradientUnits="userSpaceOnUse">
<stop offset="0.01"/>
<stop offset="0.08" stop-opacity="0.69"/>
<stop offset="0.21" stop-opacity="0.32"/>
<stop offset="1" stop-opacity="0"/>
</linearGradient>
<linearGradient id="paint2_linear_1532_21051" x1="31827.1" y1="-10936.4" x2="35699.5" y2="-6978.44" gradientUnits="userSpaceOnUse">
<stop offset="0.01"/>
<stop offset="0.08" stop-opacity="0.69"/>
<stop offset="0.21" stop-opacity="0.32"/>
<stop offset="1" stop-opacity="0"/>
</linearGradient>
<linearGradient id="paint3_linear_1532_21051" x1="167.52" y1="252.078" x2="300.81" y2="406.636" gradientUnits="userSpaceOnUse">
<stop offset="0.01"/>
<stop offset="0.13" stop-opacity="0.69"/>
<stop offset="0.25" stop-opacity="0.32"/>
<stop offset="1" stop-opacity="0"/>
</linearGradient>
<linearGradient id="paint4_linear_1532_21051" x1="7716.66" y1="13355.1" x2="8551.29" y2="8501.04" gradientUnits="userSpaceOnUse">
<stop offset="0.01"/>
<stop offset="0.13" stop-opacity="0.69"/>
<stop offset="0.25" stop-opacity="0.32"/>
<stop offset="1" stop-opacity="0"/>
</linearGradient>
<clipPath id="clip0_1532_21051">
<rect width="780" height="566" fill="white"/>
</clipPath>
</defs>
</svg>
