<svg width="344" height="260" viewBox="0 0 344 260" fill="none" xmlns="http://www.w3.org/2000/svg">
<path d="M127.841 94.8658C103.524 94.8658 83.8113 75.0975 83.8113 50.7121C83.8113 26.3267 103.524 6.55838 127.841 6.55838C152.158 6.55838 171.871 26.3267 171.871 50.7121C171.871 75.0975 152.158 94.8658 127.841 94.8658Z" fill="url(#paint0_radial_1532_22531)"/>
<path d="M172.798 233.158C116.875 233.158 71.54 223.676 71.54 211.98C71.54 200.283 116.875 190.801 172.798 190.801C228.722 190.801 274.057 200.283 274.057 211.98C274.057 223.676 228.722 233.158 172.798 233.158Z" fill="url(#paint1_linear_1532_22531)"/>
<path d="M128.106 213.175C127.905 213.865 127.53 214.491 127.018 214.993C126.526 215.369 125.944 215.61 125.331 215.692C123.239 216.056 120.45 213.91 120.722 212.756C120.994 211.602 120.597 207.561 120.806 206.393C120.854 205.87 120.991 205.36 121.21 204.883C121.838 203.799 123.337 203.68 124.578 203.799C126.231 203.967 128.803 204.498 129.312 206.33C129.842 208.302 128.775 211.343 128.106 213.175Z" fill="#F5BBB9"/>
<path d="M194.042 97.0193C196.371 98.7533 197.082 102.074 196.434 104.913C195.785 107.752 194.028 110.199 192.174 112.436C187.406 118.198 181.758 123.166 175.44 127.154C173.139 128.602 170.671 129.951 167.966 130.252C164.926 130.587 161.907 129.552 159.013 128.588C157.656 128.208 156.377 127.59 155.234 126.763C154.101 125.742 153.229 124.464 152.69 123.036C151.25 119.581 150.47 115.886 150.389 112.143C150.207 107.213 151.232 107.137 152.947 102.515C154.23 99.019 156.315 94.9497 159.878 95.9355C169.416 98.5645 166.634 108.801 166.627 113.45C169.772 109.738 175.614 104.403 179.268 101.193C182.28 98.5155 190.012 94.0268 194.042 97.0193Z" fill="#FFB443"/>
<path d="M194.042 97.0193C196.371 98.7533 197.082 102.074 196.434 104.913C195.785 107.752 194.028 110.199 192.174 112.436C187.406 118.198 181.758 123.166 175.44 127.154C173.139 128.602 170.671 129.951 167.966 130.252C164.926 130.587 161.907 129.552 159.013 128.588C157.656 128.208 156.377 127.59 155.234 126.763C154.101 125.742 153.229 124.464 152.69 123.036C151.25 119.581 150.47 115.886 150.389 112.143C150.207 107.213 151.232 107.137 152.947 102.515C154.23 99.019 156.315 94.9497 159.878 95.9355C169.416 98.5645 166.634 108.801 166.627 113.45C169.772 109.738 175.614 104.403 179.268 101.193C182.28 98.5155 190.012 94.0268 194.042 97.0193Z" fill="#EAA237"/>
<path d="M164.111 81.9518C165.017 83.6788 164.173 85.9302 165.045 87.6711C165.568 88.5939 166.397 89.3038 167.388 89.6778C169.117 90.419 171.083 90.5238 172.77 91.3419C174.266 92.0698 175.453 93.3097 176.117 94.8378C176.765 96.376 176.905 98.2219 178.118 99.3686C179.575 100.767 181.904 100.48 183.835 99.9349C185.16 99.5643 186.568 99.019 187.28 97.8373C187.687 97.0489 187.872 96.1644 187.816 95.2783C187.816 93.1388 187.182 91.0482 186.771 88.9507C186.178 85.9372 185.976 82.8537 185.272 79.8612C184.567 76.8687 183.291 73.9041 180.977 71.8905C178.662 69.8768 173.579 64.6818 170.658 65.1923C167.869 65.6887 167.241 71.9184 165.679 74.2817C165.153 75.1816 164.687 76.116 164.285 77.0784C163.302 79.148 163.044 79.9311 164.111 81.9518Z" fill="#F5BBB9"/>
<path d="M168.574 66.276C169.145 68.1358 170.965 69.2685 172.625 70.2753C174.284 71.2822 176.076 72.4918 176.515 74.3866C176.794 75.5472 176.515 76.8617 177.212 77.8825C177.437 77.3636 177.753 76.8898 178.147 76.4841C178.348 76.2852 178.6 76.145 178.875 76.0785C179.15 76.012 179.438 76.0217 179.708 76.1066C179.987 76.2561 180.218 76.4821 180.374 76.7582C180.529 77.0343 180.603 77.3491 180.587 77.6658C180.579 78.3487 180.334 79.0075 179.894 79.5284C179.453 80.0493 178.845 80.3995 178.174 80.5184C178.978 81.6846 179.499 83.0231 179.694 84.4269C179.897 85.8812 179.792 87.4963 180.712 88.622C181.204 89.1877 181.892 89.5429 182.637 89.6145C183.382 89.686 184.125 89.4684 184.714 89.0066C184.922 89.4823 185.27 89.8826 185.712 90.1533C186.89 89.538 186.862 87.8949 187.106 86.5874C187.685 83.0915 190.962 80.6513 192.049 77.2812C192.525 75.4569 192.646 73.5578 192.405 71.6877C192.37 69.9042 192.014 68.1416 191.352 66.4858C190.178 64.217 188.231 62.4457 185.865 61.4936C183.73 60.6262 181.499 60.0159 179.22 59.6757C177.347 59.2232 175.443 58.9123 173.524 58.7457C169.982 58.6339 167.618 63.1716 168.574 66.276Z" fill="#2E2E3F"/>
<path d="M136.242 143.236C135.543 143.228 134.847 143.339 134.185 143.564C133.584 143.837 133.04 144.221 132.581 144.697C127.255 149.703 125.644 157.415 124.305 164.61C122.053 176.678 119.801 188.802 119.494 201.072C119.432 203.492 118.456 205.694 119.585 207.827C120.715 209.959 125.895 210.169 128.175 209.386C130.455 208.603 129.89 207.687 130.81 205.428C132.686 200.856 135.335 196.661 137.964 192.465L147.572 177.202C149.106 174.769 150.702 172.266 153.052 170.602C156.357 168.267 160.61 167.952 164.584 167.218C168.558 166.484 172.86 164.924 174.687 161.31C177.957 154.814 173.62 145.976 166.662 145.151C156.51 143.928 146.491 142.823 136.242 143.236Z" fill="#2E2E3F"/>
<path d="M136.242 143.236C135.543 143.228 134.847 143.339 134.185 143.564C133.584 143.837 133.04 144.221 132.581 144.697C127.255 149.703 125.644 157.415 124.305 164.61C122.053 176.678 119.801 188.802 119.494 201.072C119.432 203.492 118.972 205.589 120.101 207.729C121.231 209.868 124.752 210.372 127.038 209.596C129.325 208.819 129.89 207.687 130.81 205.4C132.686 200.856 135.335 196.661 137.964 192.465L147.572 177.202C149.106 174.769 150.702 172.266 153.052 170.602C156.357 168.267 160.61 167.952 164.584 167.218C168.558 166.484 172.86 164.924 174.687 161.31C177.957 154.814 173.62 145.976 166.662 145.151C156.51 143.928 146.491 142.823 136.242 143.236Z" fill="#1C1205"/>
<path d="M124.961 182.824C124.857 183.588 124.621 184.329 124.264 185.012C123.295 186.669 121.217 187.354 119.293 187.389C118.469 187.447 117.645 187.28 116.908 186.907C116.485 186.634 116.12 186.279 115.834 185.864C115.548 185.449 115.347 184.981 115.242 184.488C115.031 183.503 114.977 182.49 115.081 181.488C115.207 179.334 115.472 177.19 115.876 175.07C115.912 174.751 116.029 174.447 116.218 174.189C116.671 173.664 117.508 173.825 118.17 174.028C119.83 174.531 123.908 174.951 125.087 176.244C126.411 177.72 124.961 181.076 124.961 182.824Z" fill="#F5BBB9"/>
<path d="M115.808 184.222C116.659 184.489 117.495 184.804 118.311 185.166C119.394 185.542 120.552 185.648 121.685 185.474C122.905 185.278 124.397 184.851 125.171 185.809C125.375 186.143 125.505 186.516 125.553 186.905C125.601 187.293 125.566 187.687 125.45 188.061C125.176 189.544 124.768 191 124.23 192.409C124.069 192.917 123.816 193.391 123.484 193.808C122.654 194.738 121.26 194.85 119.998 194.899C115.558 195.157 111.107 195.157 106.667 194.899C105.335 194.801 103.697 194.395 103.404 193.088C103.312 192.359 103.51 191.623 103.955 191.039C105.28 188.941 107.371 187.543 109.533 186.438C111.422 185.474 113.639 183.754 115.808 184.222Z" fill="#2E2E3F"/>
<path d="M121.12 211.819C121.848 212.045 122.563 212.314 123.26 212.623C124.186 212.94 125.174 213.026 126.14 212.875C127.179 212.707 128.455 212.343 129.131 213.161C129.305 213.446 129.416 213.765 129.457 214.097C129.498 214.429 129.467 214.765 129.368 215.084C129.132 216.348 128.784 217.588 128.329 218.79C128.188 219.217 127.971 219.615 127.688 219.964C126.99 220.755 125.791 220.852 124.731 220.894C120.939 221.115 117.138 221.115 113.346 220.894C112.209 220.81 110.815 220.461 110.557 219.349C110.516 219.041 110.536 218.728 110.616 218.428C110.697 218.128 110.835 217.847 111.024 217.601C112.233 215.886 113.88 214.529 115.793 213.672C117.376 212.875 119.272 211.413 121.12 211.819Z" fill="#2E2E3F"/>
<path d="M188.235 92.4816C193.38 94.6351 197.082 99.2777 199.878 104.116C206.634 115.793 209.375 129.287 212.017 142.529C212.561 145.27 213.112 148.053 212.889 150.843C212.807 152.022 212.539 153.181 212.094 154.276C210.379 158.338 205.819 160.534 201.405 160.799C197.515 161.044 193.659 160.1 189.803 159.513C186.561 159.051 183.277 158.883 180.105 158.114C176.933 157.345 173.83 155.786 171.85 153.171C169.577 150.137 169.172 146.13 168.845 142.355L167.095 121.868C166.572 115.73 166.084 109.283 168.489 103.634C170.157 99.7972 173.022 96.6075 176.654 94.5442C180.098 92.4816 184.435 90.8525 188.235 92.4816Z" fill="#FFB443"/>
<path d="M167.095 121.799L167.45 125.952C167.915 131.401 168.38 136.845 168.845 142.285C169.089 145.081 169.368 147.948 170.4 150.486C170.767 151.418 171.254 152.297 171.85 153.101C173.809 155.716 176.933 157.247 180.105 158.044C183.277 158.842 186.568 159.016 189.803 159.443C193.666 159.995 197.515 160.974 201.405 160.729C205.791 160.464 210.386 158.268 212.101 154.206C212.54 153.11 212.806 151.951 212.889 150.773C213.112 147.976 212.561 145.179 212.017 142.46C209.375 129.224 206.634 115.723 199.878 104.046C197.089 99.2078 193.38 94.5652 188.228 92.4117C184.428 90.8175 180.098 92.4606 176.64 94.4393C173.008 96.5018 170.143 99.6917 168.475 103.529C166.084 109.262 166.572 115.66 167.095 121.799Z" fill="url(#paint2_linear_1532_22531)"/>
<path d="M167.235 120.016C167.305 121.994 167.382 123.973 167.451 125.952C167.916 131.401 168.381 136.845 168.846 142.285C169.09 145.081 169.369 147.948 170.401 150.486C172.255 152.325 175.1 152.933 177.722 153.409C177.864 153.478 178.022 153.507 178.18 153.492C178.337 153.476 178.487 153.418 178.614 153.322C178.74 153.227 178.837 153.098 178.895 152.95C178.953 152.803 178.969 152.642 178.942 152.486C179.486 146.046 177.254 139.712 176.85 133.258C176.563 128.621 177.215 123.974 178.767 119.596C179.639 117.135 184.896 109.989 178.956 110.255C177.706 110.402 176.511 110.848 175.469 111.555C172.932 113.075 170.59 114.902 168.497 116.995C168.034 117.401 167.669 117.908 167.43 118.477C167.271 118.974 167.204 119.495 167.235 120.016V120.016Z" fill="url(#paint3_linear_1532_22531)"/>
<path d="M166.307 91.2999C166.461 90.9509 166.531 90.5709 166.513 90.1899C166.495 89.8088 166.388 89.4373 166.203 89.1045C165.775 88.6396 165.206 88.3298 164.585 88.2235C163.63 87.9508 162.661 87.7131 161.685 87.5243C161.253 87.4077 160.806 87.3628 160.36 87.3915C159.293 87.5103 158.491 88.3913 157.801 89.2024C157.053 89.9788 156.461 90.8928 156.058 91.8943C155.803 92.858 155.725 93.8601 155.828 94.8518L155.918 97.1102C155.916 97.526 155.982 97.9394 156.114 98.3338C156.302 98.7673 156.609 99.1382 156.999 99.4035C157.721 99.8865 158.554 100.175 159.419 100.243C160.402 100.347 161.915 100.278 162.556 99.3756C162.974 98.7952 162.842 97.8234 163.128 97.1452C163.978 95.0826 165.61 93.4255 166.307 91.2999Z" fill="#F5BBB9"/>
<path d="M210.658 156.562H210.93L210.776 155.611C211.92 165.491 208.636 177.335 198.115 180.286C189.051 182.824 180.356 182.887 171.62 179.971C164.529 177.615 157.808 172.881 152.307 167.826C147.559 163.463 143.891 158.037 139.018 153.842C137.881 155.632 136.229 156.863 134.981 158.562C133.426 160.659 133.252 162.981 132.408 165.344C131.516 167.861 129.926 170.022 128.845 172.448C126.649 177.342 125.715 179.663 120.109 179.67C118.24 179.67 117.418 180.006 116.17 178.601C114.134 176.3 114.908 169.826 115.04 167.078C115.521 157.373 116.964 147.186 120.346 138.048C122.215 133.006 124.529 128.042 128.322 124.19C133.433 119.03 139.192 121.099 144.714 124.365C151.442 128.35 157.445 134.307 163.037 139.81C165.352 142.082 166.816 144.124 169.591 145.99C172.666 148.088 175.664 149.682 178.934 151.458C188.179 156.478 200.471 156.562 210.658 156.562Z" fill="#2D1F0B"/>
<path d="M133.385 205.484C133.464 206.43 133.63 207.366 133.88 208.281C135.672 214.818 141.988 219.314 148.57 220.866C155.152 222.419 162.034 221.566 168.734 220.664C183.704 218.643 268.354 212.791 258.342 113.206C257.143 101.207 249.829 85.3429 238.457 83.0425C236.291 82.6104 234.056 82.6702 231.917 83.2173C208.155 89.1115 226.576 131.678 193.96 146.718C184.268 151.185 176.18 158.667 166.231 162.512C148.466 169.399 137.645 189.207 137.645 189.207C135.316 194.36 132.938 199.975 133.385 205.484Z" fill="#E52440"/>
<path d="M128.042 110.765C125.881 112.569 125.253 115.625 125.198 118.456C125.132 119.045 125.268 119.639 125.581 120.141C125.809 120.394 126.081 120.602 126.383 120.757C127.994 121.708 129.869 122.686 131.64 122.106C133.195 121.596 134.185 120.009 135.698 119.386C136.946 118.869 138.487 119.016 139.491 118.086C139.913 117.652 140.203 117.106 140.328 116.513C142.189 108.968 132.797 106.808 128.042 110.765Z" fill="#F5BBB9"/>
<path d="M160.632 106.962C159.88 107.629 159.019 108.164 158.087 108.542C157.081 108.823 156.028 108.899 154.992 108.766C148.975 108.29 142.839 106.305 137.024 107.934C136.184 108.105 135.415 108.53 134.821 109.15C134.327 109.84 134.081 110.679 134.124 111.527C134.124 115.723 137.526 119.219 141.277 121.141C145.593 123.337 150.481 124.071 155.271 124.777C158.52 125.253 161.804 125.728 165.081 125.42C166.581 125.373 168.041 124.927 169.313 124.127C197.655 103.585 187.775 100.529 185.851 94.6561C184.847 91.5866 172.206 97.7465 169.264 100.089C166.322 102.431 163.519 104.668 160.632 106.962Z" fill="#EDA73D"/>
<path d="M133.385 205.484C133.464 206.43 133.63 207.366 133.88 208.281C135.672 214.818 141.988 219.314 148.57 220.866C155.152 222.419 162.034 221.566 168.734 220.664C183.704 218.643 268.354 212.791 258.342 113.206C257.143 101.207 249.829 85.3429 238.457 83.0425C237.92 86.1889 240.681 89.9575 241.727 93.3486C245.073 104.354 245.75 116.002 243.7 127.322C242.548 133.772 240.487 140.025 237.578 145.893C233.597 153.87 228.138 161.009 222.476 167.896C218.223 173.07 213.733 178.216 208.002 181.663C202.822 184.781 196.846 186.362 190.962 187.634C183.149 189.321 175.246 190.549 167.291 191.312C156.574 192.34 144.77 192.941 136.954 200.401C135.416 201.821 134.199 203.554 133.385 205.484V205.484Z" fill="url(#paint4_linear_1532_22531)"/>
<path d="M113.723 39.1615C113.716 41.4948 114.279 43.7945 115.362 45.8597L121.302 60.7314H135.846L141.368 45.0347C142.192 43.187 142.615 41.1852 142.609 39.1615C142.526 35.3753 140.968 31.7722 138.269 29.1238C135.569 26.4755 131.943 24.9926 128.166 24.9926C124.39 24.9926 120.763 26.4755 118.064 29.1238C115.364 31.7722 113.806 35.3753 113.723 39.1615V39.1615Z" fill="#E52440"/>
<path opacity="0.69" d="M113.723 39.1615C113.716 41.4948 114.279 43.7945 115.362 45.8597L121.302 60.7314H135.846L141.368 45.0347C142.192 43.187 142.615 41.1852 142.609 39.1615C142.526 35.3753 140.968 31.7722 138.269 29.1238C135.569 26.4755 131.943 24.9926 128.166 24.9926C124.39 24.9926 120.763 26.4755 118.064 29.1238C115.364 31.7722 113.806 35.3753 113.723 39.1615V39.1615Z" fill="url(#paint5_radial_1532_22531)"/>
<path d="M130.526 60.9692C132.65 56.5242 133.764 51.6624 133.789 46.7337C133.789 45.629 133.636 44.3285 132.667 43.7901C131.488 43.1329 130.031 44.1607 129.383 45.3493C128.969 46.13 128.725 46.9893 128.665 47.8711C128.605 48.7529 128.73 49.6376 129.034 50.4674C129.731 49.4308 130.127 48.2205 130.177 46.9714C130.329 46.0546 130.272 45.1152 130.01 44.2236C129.872 43.7809 129.609 43.3878 129.253 43.0923C128.896 42.7969 128.462 42.6118 128.002 42.5596C126.608 42.5106 125.659 44.1048 125.506 45.5171C125.327 47.1304 125.698 48.7569 126.559 50.1318C126.857 49.2226 126.91 48.2509 126.714 47.3144C126.519 46.3778 126.08 45.5096 125.443 44.797C125.023 44.2997 124.457 43.9475 123.826 43.7901C123.511 43.7178 123.182 43.7365 122.877 43.8442C122.572 43.9519 122.304 44.1441 122.104 44.3984C121.907 44.7109 121.788 45.0655 121.755 45.4332C121.385 48.1041 122.306 50.789 123.463 53.2292C124.621 55.6693 126.015 58.0116 126.691 60.6266" stroke="white" stroke-width="0.650083" stroke-miterlimit="10"/>
<path d="M122.186 60.5637H135.273C136.174 60.5637 136.904 61.2962 136.904 62.1998V66.7515C136.904 67.6551 136.174 68.3876 135.273 68.3876H122.186C121.285 68.3876 120.554 67.6551 120.554 66.7515V62.1998C120.554 61.2962 121.285 60.5637 122.186 60.5637Z" fill="#FFB443"/>
<path d="M122.186 60.5637H135.273C136.174 60.5637 136.904 61.2962 136.904 62.1998V66.7515C136.904 67.6551 136.174 68.3876 135.273 68.3876H122.186C121.285 68.3876 120.554 67.6551 120.554 66.7515V62.1998C120.554 61.2962 121.285 60.5637 122.186 60.5637Z" fill="url(#paint6_linear_1532_22531)"/>
<path d="M120.863 63.1577H136.411C137.166 63.1577 137.777 63.7712 137.777 64.5281V64.6259C137.777 65.3828 137.166 65.9964 136.411 65.9964H120.863C120.108 65.9964 119.496 65.3828 119.496 64.6259V64.5281C119.496 63.7712 120.108 63.1577 120.863 63.1577Z" fill="#FFB443"/>
<path d="M120.863 63.1577H136.411C137.166 63.1577 137.777 63.7712 137.777 64.5281V64.6259C137.777 65.3828 137.166 65.9964 136.411 65.9964H120.863C120.108 65.9964 119.496 65.3828 119.496 64.6259V64.5281C119.496 63.7712 120.108 63.1577 120.863 63.1577Z" fill="url(#paint7_linear_1532_22531)"/>
<defs>
<radialGradient id="paint0_radial_1532_22531" cx="0" cy="0" r="1" gradientUnits="userSpaceOnUse" gradientTransform="translate(127.841 50.7121) rotate(180) scale(29.667 29.7504)">
<stop stop-color="white"/>
<stop offset="1" stop-color="white" stop-opacity="0"/>
</radialGradient>
<linearGradient id="paint1_linear_1532_22531" x1="170.965" y1="104.179" x2="174.709" y2="322.843" gradientUnits="userSpaceOnUse">
<stop offset="0.01" stop-color="#FFB4B4"/>
<stop offset="0.13" stop-color="#FF8484" stop-opacity="0.69"/>
<stop offset="1" stop-color="#FF7C7C" stop-opacity="0"/>
</linearGradient>
<linearGradient id="paint2_linear_1532_22531" x1="-7321.93" y1="15304.4" x2="-10518.7" y2="14232.4" gradientUnits="userSpaceOnUse">
<stop offset="0.01" stop-color="#FFB443"/>
<stop offset="0.13" stop-opacity="0.69"/>
<stop offset="1" stop-opacity="0"/>
</linearGradient>
<linearGradient id="paint3_linear_1532_22531" x1="-3806.11" y1="9363.59" x2="-2444.12" y2="9312.33" gradientUnits="userSpaceOnUse">
<stop offset="0.01"/>
<stop offset="0.13" stop-opacity="0.69"/>
<stop offset="1" stop-opacity="0"/>
</linearGradient>
<linearGradient id="paint4_linear_1532_22531" x1="-13167.6" y1="45087" x2="-31455.6" y2="28411.9" gradientUnits="userSpaceOnUse">
<stop offset="0.01"/>
<stop offset="0.13" stop-opacity="0.69"/>
<stop offset="1" stop-opacity="0"/>
</linearGradient>
<radialGradient id="paint5_radial_1532_22531" cx="0" cy="0" r="1" gradientUnits="userSpaceOnUse" gradientTransform="translate(128.163 42.7064) rotate(180) scale(16.3082 16.354)">
<stop offset="0.34" stop-color="white"/>
<stop offset="1" stop-color="white" stop-opacity="0.39"/>
</radialGradient>
<linearGradient id="paint6_linear_1532_22531" x1="-3747.68" y1="782.084" x2="-4130.93" y2="782.084" gradientUnits="userSpaceOnUse">
<stop offset="0.01"/>
<stop offset="0.13" stop-opacity="0.69"/>
<stop offset="1" stop-opacity="0"/>
</linearGradient>
<linearGradient id="paint7_linear_1532_22531" x1="-4182.82" y1="325.34" x2="-4662.16" y2="325.34" gradientUnits="userSpaceOnUse">
<stop offset="0.01"/>
<stop offset="0.13" stop-opacity="0.69"/>
<stop offset="1" stop-opacity="0"/>
</linearGradient>
</defs>
</svg>
