<svg width="216" height="163" viewBox="0 0 216 163" fill="none" xmlns="http://www.w3.org/2000/svg">
<g clip-path="url(#clip0_1532_21165)">
<path opacity="0.18" d="M38.4735 152.596C41.3276 153.362 44.2209 153.973 47.1409 154.427C63.4956 157.007 80.25 155.511 96.682 157.497C114.081 159.586 130.978 165.584 148.519 161.263C162.578 157.794 175.076 148.933 184.22 137.853C197.041 122.376 204.045 102.848 209.384 83.4498C215.369 61.7425 218.606 35.6629 203.232 19.218C190.953 6.06204 170.987 3.98547 153.007 4.68196C143.502 5.056 133.996 5.97176 124.49 5.66221C114.984 5.35266 107.632 2.23135 98.8747 0.503025C84.9191 -2.27004 67.0941 7.06808 57.4206 16.3417C45.8125 27.4082 39.3635 42.8212 28.6195 54.6874C21.3966 62.6454 12.1875 69.1202 7.29915 78.6904C4.91367 83.7926 3.36336 89.2448 2.70747 94.8387C0.953352 106.537 0.85017 119.048 6.29311 129.547C12.5615 141.645 25.0983 148.959 38.4735 152.596Z" fill="#FFB443"/>
<path d="M153.755 22.1071C153.755 22.1071 194.229 40.0869 195.622 65.1218C197.015 90.1567 121.459 85.6424 104.937 96.438C88.4143 107.234 16.8049 123.64 18.185 104.835C19.565 86.0294 36.5775 79.5417 36.5775 79.5417" stroke="white" stroke-width="1.16368" stroke-miterlimit="10"/>
<path opacity="0.18" d="M47.773 102.952L72.4726 37.0429C72.8765 35.9703 73.5978 35.0464 74.5403 34.3942C75.4828 33.7421 76.6017 33.3927 77.7479 33.3928H181.757C183.25 33.3962 184.68 33.9916 185.734 35.0482C186.788 36.1049 187.38 37.5366 187.38 39.0292C187.379 39.6021 187.292 40.1716 187.123 40.7189L163.223 115.527C162.833 116.737 162.044 117.779 160.985 118.482C159.926 119.185 158.659 119.507 157.393 119.396L52.5581 110.497C51.0685 110.375 49.6881 109.667 48.7206 108.528C47.7531 107.388 47.2777 105.912 47.399 104.422C47.4593 103.918 47.5851 103.423 47.773 102.952Z" fill="#FFB443"/>
<path d="M184.337 34.128L160.398 108.975C160.002 110.183 159.209 111.223 158.149 111.925C157.089 112.627 155.823 112.951 154.555 112.844L123.162 110.187L49.7852 103.919C49.0475 103.862 48.3284 103.66 47.6692 103.324C47.0101 102.988 46.4239 102.525 45.9444 101.961C45.4648 101.398 45.1015 100.745 44.8752 100.041C44.649 99.3363 44.5643 98.5941 44.626 97.8568C44.6782 97.3273 44.7996 96.807 44.9871 96.3091L50.8557 80.8315L61.4707 52.456L69.6996 30.5295C70.1035 29.4569 70.8248 28.5329 71.7673 27.8807C72.7098 27.2286 73.8288 26.8793 74.9749 26.8793H178.984C179.723 26.8793 180.454 27.0248 181.136 27.3074C181.818 27.59 182.438 28.0042 182.96 28.5264C183.483 29.0486 183.897 29.6686 184.179 30.3508C184.462 31.0331 184.608 31.7644 184.608 32.5029C184.6 33.0551 184.509 33.6031 184.337 34.128V34.128Z" fill="white"/>
<path opacity="0.18" d="M81.2947 99.2498L88.969 78.1874H120.904L112.572 99.8302L81.2947 99.2498Z" fill="#FFB443"/>
<path d="M184.337 34.128L160.398 108.975C160.002 110.183 159.209 111.223 158.149 111.925C157.089 112.627 155.823 112.951 154.555 112.844L123.162 110.187L152.118 31.5871L152.337 30.9809L184.504 31.3162C184.499 31.4108 184.499 31.5055 184.504 31.6C184.642 32.4444 184.585 33.3092 184.337 34.128V34.128Z" fill="#FFB443"/>
<path opacity="0.18" d="M82.675 40.0611L74.7685 66.2826C74.6519 66.7049 74.3989 67.0768 74.049 67.3404C73.6991 67.604 73.2719 67.7445 72.8338 67.7401L51.8359 67.1339L62.4639 38.7584L80.9079 37.6749C81.2007 37.6626 81.492 37.7221 81.7563 37.8484C82.0207 37.9746 82.2501 38.1638 82.4245 38.3992C82.5988 38.6347 82.7129 38.9093 82.7565 39.199C82.8002 39.4887 82.7722 39.7847 82.675 40.0611Z" fill="#FFB443"/>
<path d="M34.5525 59.8336L42.7298 36.6818C42.8552 36.3101 43.0871 35.9836 43.3967 35.7428C43.7064 35.502 44.08 35.3575 44.471 35.3275L78.9344 33.2896C79.2277 33.2805 79.519 33.3425 79.7832 33.4703C80.0474 33.5981 80.2767 33.788 80.4516 34.0237C80.6265 34.2595 80.7417 34.534 80.7875 34.8239C80.8332 35.1139 80.8081 35.4105 80.7143 35.6887L72.8079 61.9231C72.6898 62.3456 72.4368 62.7179 72.0875 62.9833C71.7383 63.2488 71.3118 63.3928 70.8732 63.3935L36.1261 62.3487C35.836 62.3319 35.5543 62.2459 35.3043 62.0979C35.0544 61.9498 34.8436 61.744 34.6895 61.4977C34.5354 61.2515 34.4426 60.9719 34.4187 60.6823C34.3949 60.3928 34.4408 60.1018 34.5525 59.8336V59.8336Z" fill="white"/>
<path d="M184.556 31.3162V31.6129V31.9353L152.117 31.6L69.6995 30.7616V30.1425L152.337 30.9809L184.504 31.3162H184.556Z" fill="#FFB443"/>
<path d="M45.8384 57.4088H41.4272L43.7489 51.4113H48.1471L45.8384 57.4088Z" fill="#FFB443"/>
<path d="M51.2683 57.4088H46.8572L51.5778 45.2073H55.9889L51.2683 57.4088Z" fill="#FFB443"/>
<path d="M56.7114 57.4088H52.3003L55.1765 49.9796H59.5747L56.7114 57.4088Z" fill="#FFB443"/>
<path d="M62.1413 57.4088H57.7302L63.947 41.338H68.3581L62.1413 57.4088Z" fill="#FFB443"/>
<path d="M51.2683 57.4088H46.8572L51.5778 45.2073H55.9889L51.2683 57.4088Z" fill="url(#paint0_linear_1532_21165)"/>
<path d="M62.1413 57.4088H57.7302L63.947 41.338H68.3581L62.1413 57.4088Z" fill="url(#paint1_linear_1532_21165)"/>
<path d="M67.5842 57.4088H63.1731L71.1182 36.8495H75.5293L67.5842 57.4088Z" fill="#FFB443"/>
<path d="M169.427 50.2891C169.942 48.3791 169.687 46.3431 168.716 44.6194C167.745 42.8958 166.136 41.6225 164.235 41.0738C162.334 40.525 160.294 40.7448 158.554 41.6856C156.813 42.6265 155.512 44.2132 154.93 46.1041C154.349 47.9949 154.533 50.0387 155.443 51.7951C156.353 53.5516 157.917 54.8802 159.798 55.4949C161.678 56.1096 163.725 55.9611 165.497 55.0816C167.269 54.202 168.624 52.6616 169.272 50.7922L169.349 50.5471L169.427 50.2891Z" fill="white"/>
<path d="M152.93 98.1793C153.318 96.3067 152.985 94.3566 151.996 92.7196C151.008 91.0825 149.437 89.8793 147.599 89.3509C145.762 88.8225 143.792 89.008 142.085 89.8701C140.378 90.7323 139.06 92.2075 138.394 94.0003C138.394 94.0777 138.394 94.168 138.394 94.2454C138.394 94.3228 138.394 94.4131 138.304 94.4904C137.793 96.3272 137.994 98.289 138.867 99.984C139.739 101.679 141.219 102.982 143.011 103.634C144.802 104.285 146.774 104.237 148.531 103.498C150.289 102.76 151.703 101.385 152.492 99.6496C152.569 99.4046 152.633 99.1595 152.711 98.9144C152.788 98.6694 152.84 98.4243 152.93 98.1793Z" fill="white"/>
<path d="M160.643 71.674C160.643 69.666 159.845 67.7402 158.425 66.3204C157.006 64.9005 155.08 64.1029 153.072 64.1029C151.064 64.1029 149.138 64.9005 147.718 66.3204C146.298 67.7402 145.501 69.666 145.501 71.674V72.2028C145.501 74.2108 146.298 76.1365 147.718 77.5564C149.138 78.9762 151.064 79.7739 153.072 79.7739C155.08 79.7739 157.006 78.9762 158.425 77.5564C159.845 76.1365 160.643 74.2108 160.643 72.2028V71.674Z" fill="white"/>
<path d="M161.894 48.2126L163.674 42.4988C163.171 42.3441 162.651 42.2531 162.126 42.2279C160.813 42.1785 159.519 42.562 158.445 43.3194C157.371 44.0767 156.575 45.166 156.18 46.4198C156.026 46.9223 155.935 47.4423 155.909 47.9675C155.893 48.4916 155.941 49.0156 156.051 49.5282C156.279 50.5526 156.778 51.497 157.496 52.2625C158.203 53.0412 159.106 53.6167 160.111 53.9296C161.115 54.2425 162.185 54.2815 163.21 54.0424C163.715 53.9242 164.204 53.7467 164.667 53.5136C165.133 53.2674 165.566 52.9641 165.957 52.6108C166.718 51.906 167.287 51.0179 167.608 50.0312L161.894 48.2126Z" fill="#FFB443"/>
<path d="M153.175 71.919V65.9344C152.128 65.9423 151.101 66.2223 150.196 66.7469C149.722 67.002 149.288 67.3234 148.906 67.7014C148.16 68.4421 147.622 69.367 147.349 70.3823C147.076 71.3976 147.076 72.4672 147.35 73.4824C147.624 74.4975 148.161 75.4222 148.908 76.1625C149.655 76.9028 150.584 77.4323 151.601 77.6973C152.614 77.9808 153.685 77.9808 154.697 77.6973C155.202 77.5669 155.687 77.3718 156.142 77.1169L153.175 71.919Z" fill="#FFB443"/>
<path d="M145.527 96.5799L147.384 90.8919C146.383 90.5727 145.318 90.515 144.289 90.7242C142.999 90.9981 141.836 91.6903 140.98 92.6932C140.124 93.6961 139.623 94.9536 139.555 96.2704C139.527 96.7898 139.57 97.3105 139.684 97.8181C139.79 98.329 139.963 98.8235 140.2 99.2885C140.548 99.9862 141.03 100.608 141.619 101.12C142.207 101.631 142.891 102.021 143.631 102.268L145.488 96.567L145.527 96.5799Z" fill="#FFB443"/>
<path d="M69.6091 73.7763C69.545 74.0199 69.4049 74.2367 69.2093 74.3954C68.9295 74.5528 68.6146 74.6371 68.2936 74.6405C67.9531 74.6647 67.6245 74.7757 67.3391 74.9629C67.3006 75.0389 67.2805 75.1228 67.2805 75.208C67.2805 75.2932 67.3006 75.3771 67.3391 75.4531L67.7131 77.5425C67.7646 77.7062 67.7646 77.8818 67.7131 78.0455C67.6613 78.1315 67.5921 78.2058 67.5099 78.2635C67.4277 78.3213 67.3344 78.3612 67.2359 78.3809C66.4878 78.6775 65.5592 78.9355 64.9659 78.3809C64.6812 78.0651 64.4893 77.6768 64.4113 77.2588C63.6362 74.9165 63.2443 72.4644 63.2505 69.9972C63.2301 69.2513 63.3718 68.5099 63.6657 67.8241C63.9596 67.1382 64.3988 66.5243 64.953 66.0247C66.0214 65.2747 67.3396 64.9694 68.6289 65.1734C68.9161 65.2074 69.1908 65.311 69.429 65.475C69.6672 65.6391 69.8619 65.8587 69.9961 66.1149C70.1638 66.489 69.9961 66.8501 69.9961 67.25C69.9891 67.8368 70.0279 68.4233 70.1122 69.0041C70.1672 69.274 70.2361 69.5409 70.3185 69.8038C70.4184 70.0255 70.4879 70.2598 70.5249 70.5002C70.5042 70.9537 70.376 71.3958 70.1509 71.79C69.9457 72.2595 69.7859 72.7476 69.6736 73.2475C69.6696 73.4255 69.648 73.6026 69.6091 73.7763V73.7763Z" fill="#FDB9A9"/>
<path d="M71.2859 89.2539C71.2859 89.2539 73.8655 92.014 76.0323 92.014C78.1992 92.014 87.7566 82.9855 87.7566 82.9855C88.2701 82.7417 88.729 82.3967 89.1058 81.9712C89.4826 81.5456 89.7695 81.0483 89.9492 80.5091C90.0395 80.135 90.0137 79.7481 90.0782 79.374C90.2462 78.6189 90.586 77.9127 91.0714 77.3104C91.1529 77.2281 91.2149 77.1287 91.2528 77.0193C91.2908 76.9099 91.3037 76.7934 91.2906 76.6784C91.2132 76.3946 90.8779 76.3043 90.5941 76.2527C89.6993 75.9908 88.7392 76.0689 87.8985 76.472C87.3038 76.9583 86.8904 77.6308 86.7247 78.3809C86.4686 78.0111 86.1099 77.7242 85.6929 77.5554C85.5671 77.6284 85.4709 77.7434 85.4214 77.8802C85.3719 78.017 85.3721 78.1669 85.4221 78.3035C85.5182 78.5764 85.6301 78.8434 85.7574 79.1032C85.8441 79.5918 85.788 80.0951 85.5958 80.5526C85.4036 81.0102 85.0836 81.4026 84.674 81.6828C84.1744 82.0697 83.6437 82.4148 83.0875 82.7146L77.2319 86.1326C76.6385 86.4808 75.9421 86.842 75.2972 86.5195C75.0005 86.3647 74.7941 86.0681 74.4717 85.9262C74.2214 85.8716 73.9612 85.8834 73.7169 85.9603C73.4726 86.0372 73.2526 86.1766 73.0787 86.3647C72.2984 87.2016 71.6893 88.1831 71.2859 89.2539V89.2539Z" fill="#FDB9A9"/>
<path d="M47.9536 127.458C47.86 128.237 47.5981 128.987 47.1861 129.655C46.7741 130.323 46.2218 130.893 45.5675 131.327C43.1685 132.449 40.0859 132.733 37.5063 133.288C35.9456 133.636 34.385 133.984 32.8501 134.397C31.5603 134.745 30.1802 134.706 29.3032 135.841C28.7744 136.512 28.4261 137.466 27.6006 137.66C27.3048 137.706 27.0018 137.665 26.7291 137.541C26.4563 137.417 26.2258 137.217 26.0658 136.963C25.754 136.443 25.5767 135.854 25.5499 135.248C25.5114 135.022 25.5114 134.791 25.5499 134.564C25.6182 134.324 25.7419 134.103 25.911 133.92C26.7962 133.113 27.8693 132.541 29.0323 132.256C30.0326 131.904 31.0031 131.473 31.9344 130.966C32.6979 130.59 33.4918 130.279 34.3076 130.037L39.0153 128.322C40.1246 127.922 41.7884 127.767 42.214 126.503C42.3738 125.884 42.4561 125.247 42.4591 124.607C42.5499 123.339 42.9388 122.111 43.5941 121.022C43.6738 120.839 43.8034 120.682 43.9681 120.57C44.1621 120.465 44.3797 120.412 44.6001 120.415C45.2014 120.344 45.8111 120.415 46.3801 120.622C46.7499 120.801 47.0805 121.052 47.3528 121.359C47.6251 121.667 47.8337 122.026 47.9665 122.415C48.2146 123.197 48.3109 124.02 48.2503 124.839C48.227 125.719 48.1278 126.595 47.9536 127.458V127.458Z" fill="#FDB9A9"/>
<path d="M26.7623 133.416C26.6849 133.752 26.4269 134.023 26.3366 134.358C26.285 134.631 26.285 134.911 26.3366 135.184L26.5817 136.473C26.5874 136.609 26.6216 136.742 26.682 136.863C26.7424 136.985 26.8277 137.092 26.9323 137.178C27.0369 137.265 27.1585 137.328 27.2892 137.364C27.4199 137.401 27.5567 137.409 27.6909 137.389C27.7448 137.393 27.797 137.409 27.8439 137.436C27.8908 137.462 27.9311 137.499 27.9618 137.544C27.9874 137.615 27.9874 137.692 27.9618 137.763L27.6006 139.401C27.4522 140.087 27.2137 140.751 26.8912 141.375C26.7898 141.401 26.6831 141.401 26.5817 141.375C25.7562 141.375 25.4338 139.285 25.1371 138.498C24.892 137.701 24.826 136.86 24.9436 136.035C24.9436 135.583 25.021 135.145 25.0855 134.745C25.09 134.304 25.173 133.867 25.3306 133.455C25.3824 133.354 25.4622 133.27 25.5605 133.213C25.6589 133.155 25.7716 133.128 25.8852 133.133C26.1431 133.146 26.8525 133.042 26.7623 133.416Z" fill="#FFB443"/>
<path d="M61.7287 127.703C62.1787 128.358 62.4771 129.106 62.602 129.891C62.727 130.677 62.6754 131.48 62.4509 132.243C61.3546 134.642 59.1878 136.873 57.6013 138.963C56.6211 140.252 55.6666 141.542 54.7509 142.832C54.0028 143.928 52.9323 144.792 52.9967 146.224C52.9967 147.075 53.3837 148.03 52.8807 148.713C52.684 148.94 52.4256 149.105 52.1371 149.187C51.8485 149.269 51.5423 149.266 51.2555 149.178C50.6841 148.985 50.1698 148.652 49.7594 148.21C49.5894 148.059 49.4456 147.88 49.3337 147.682C49.2289 147.451 49.1803 147.199 49.1919 146.946C49.3348 145.758 49.7787 144.626 50.4816 143.657C50.9917 142.728 51.4231 141.757 51.7714 140.755C52.1062 139.968 52.512 139.212 52.9839 138.498L55.4474 134.139C56.0407 133.12 57.2144 131.92 56.7372 130.682C56.4577 130.107 56.1067 129.57 55.6924 129.083C54.9432 128.059 54.44 126.876 54.2221 125.626C54.1835 125.43 54.1835 125.229 54.2221 125.033C54.2997 124.828 54.4285 124.646 54.5961 124.504C55.0156 124.061 55.5321 123.721 56.1052 123.511C56.5008 123.404 56.914 123.379 57.3197 123.437C57.7254 123.494 58.1151 123.634 58.4655 123.846C59.1655 124.274 59.7747 124.835 60.2583 125.497C60.8102 126.189 61.3021 126.927 61.7287 127.703V127.703Z" fill="#FDB9A9"/>
<path d="M49.4755 145.979C49.6303 146.289 49.6174 146.663 49.7721 146.972C49.916 147.209 50.1097 147.411 50.3396 147.566L51.3328 148.378C51.4485 148.479 51.579 148.562 51.7197 148.623C51.9043 148.653 52.0931 148.646 52.2748 148.602C52.4565 148.557 52.6274 148.477 52.7774 148.365C52.8059 148.331 52.8433 148.304 52.8857 148.289C52.9281 148.275 52.9737 148.272 53.0176 148.281C53.0615 148.29 53.1021 148.311 53.1348 148.342C53.1674 148.373 53.191 148.412 53.203 148.455L53.9898 149.952C54.328 150.563 54.5797 151.219 54.7379 151.899C54.6913 151.997 54.6202 152.082 54.5315 152.144C53.8866 152.673 52.3001 151.293 51.5779 150.855C50.8674 150.435 50.2558 149.868 49.785 149.191C49.5271 148.83 49.282 148.455 49.037 148.094C48.7721 147.765 48.563 147.395 48.4179 146.998C48.3916 146.883 48.3983 146.762 48.437 146.651C48.4758 146.539 48.5451 146.44 48.6371 146.366C48.8048 146.173 49.282 145.644 49.4755 145.979Z" fill="#FFB443"/>
<path d="M74.5233 85.9907C74.4727 86.1608 74.3687 86.31 74.2266 86.4163C73.2464 87.3579 72.2532 88.2736 71.2859 89.2152C70.9738 89.5136 70.6373 89.7854 70.2798 90.0277C69.9574 90.2212 69.6091 90.3502 69.2867 90.5437C69.1775 90.6127 69.074 90.6903 68.9771 90.7758C68.2936 91.4035 67.7639 92.1803 67.4294 93.0459C67.1843 93.5747 66.9522 94.1293 66.7587 94.6839C66.2421 96.1249 65.8579 97.6101 65.6108 99.1208C64.1275 107.737 66.0622 116.52 67.0682 125.162C67.1972 126.116 67.2875 127.071 67.3649 128.025C67.3649 128.425 67.4423 128.838 67.4681 129.25C67.5353 129.616 67.4761 129.993 67.3004 130.321C67.094 130.563 66.8201 130.738 66.5136 130.824C62.1541 132.591 57.24 133.984 52.816 132.41C49.9527 131.391 47.6568 129.25 45.1546 127.522C42.6524 125.794 39.5311 124.452 36.6033 125.304C36.6374 123.194 37.4189 121.165 38.8088 119.577C39.2837 118.949 39.8054 118.359 40.3695 117.81L41.5303 116.662C45.3997 112.883 48.7145 109.62 50.791 104.319C51.6294 102.165 51.7971 99.6367 53.2158 97.7536C54.5056 96.1414 55.4988 95.9737 55.7954 93.8069C56.1835 91.0982 56.8005 88.4274 57.6398 85.823C58.4141 83.4622 59.6359 81.2727 61.2384 79.374C61.9265 78.4943 62.7649 77.7432 63.7148 77.1556C64.6736 76.5629 65.8117 76.3298 66.9264 76.4978C67.4782 76.5903 67.9962 76.8261 68.4285 77.1814C68.8608 77.5367 69.1923 77.9992 69.3899 78.5228C70.383 81.4506 72.9626 82.7275 74.3685 85.5006C74.4774 85.64 74.5323 85.814 74.5233 85.9907Z" fill="#FFB443"/>
<path d="M70.7701 65.0444C70.6664 65.497 70.4519 65.9167 70.1457 66.2657C69.8394 66.6147 69.4512 66.882 69.016 67.0436C67.0168 67.8304 64.2566 67.5079 64.8112 70.3584C65.3494 72.4485 65.177 74.6583 64.3211 76.6397C63.7657 77.3671 63.3781 78.2083 63.1861 79.1032C63.1987 79.4986 63.2505 79.8917 63.3409 80.2769C63.6274 81.9445 63.2472 83.6578 62.282 85.0476C61.3169 86.4374 59.8443 87.3922 58.1817 87.7061C57.935 87.7552 57.6849 87.7854 57.4336 87.7964C56.679 87.7416 55.9223 87.8699 55.228 88.1704C54.6008 88.6974 54.1506 89.4042 53.9382 90.1954C53.6695 91.0278 53.1628 91.7632 52.4808 92.3107C51.1007 93.2393 49.2563 92.6718 47.7085 92.0398C46.5382 91.6239 45.4379 91.0324 44.4453 90.2857C43.9505 89.9088 43.5391 89.4334 43.2372 88.8895C42.9353 88.3456 42.7494 87.745 42.6912 87.1257C42.8071 86.3205 42.7941 85.502 42.6525 84.7009C42.3773 84.2504 42.0713 83.8195 41.7368 83.4111C41.4432 82.7113 41.3261 81.95 41.3958 81.1943C41.4655 80.4386 41.7199 79.7117 42.1366 79.0774C42.2774 78.854 42.3697 78.6035 42.4075 78.3422C42.3872 78.089 42.3263 77.8408 42.2269 77.607C42.0809 76.7454 42.2167 75.8597 42.614 75.0813C43.0113 74.3029 43.649 73.6734 44.4324 73.2862C46.0186 72.5586 47.6919 72.0384 49.4111 71.7384C50.6806 71.4155 51.8566 70.7992 52.8445 69.9389C53.8324 69.0787 54.6046 67.9987 55.0991 66.7856C56.0922 64.6704 56.9306 62.3616 59.2006 61.304C60.9336 60.6389 62.8018 60.4029 64.6457 60.6163C66.4896 60.8296 68.2546 61.486 69.7898 62.5293C70.195 62.7941 70.5073 63.1788 70.6831 63.6298C70.8588 64.0807 70.8892 64.5753 70.7701 65.0444V65.0444Z" fill="#473F47"/>
<path d="M70.28 90.0665C69.9575 90.2599 69.6093 90.3889 69.2868 90.5824C69.1755 90.6482 69.0717 90.726 68.9773 90.8145C67.8529 91.8419 67.0774 93.1946 66.7588 94.6839C66.2425 96.1304 65.854 97.6193 65.598 99.1337C65.0142 103.057 64.8973 107.036 65.2498 110.987C65.4336 112.425 65.3901 113.883 65.1208 115.308C63.4081 113.288 62.3192 110.815 61.9866 108.188C61.806 106.756 61.8576 105.286 61.561 103.867C61.3288 102.848 60.9161 101.868 60.7484 100.836C60.7546 100.785 60.7546 100.733 60.7484 100.681C60.4775 98.8242 61.1998 98.5533 62.2446 97.4828C63.2628 96.3742 64.0207 95.0522 64.463 93.6134C65.3229 91.0338 66.2214 88.4929 67.1587 85.9907C66.9652 86.6743 69.4803 88.7896 70.28 90.0665Z" fill="url(#paint2_linear_1532_21165)"/>
<path opacity="0.38" d="M67.378 128.064C62.9149 129.421 58.1328 129.299 53.7448 127.716C52.0903 127.158 50.561 126.282 49.2435 125.136C48.7404 124.672 48.289 124.156 47.7731 123.717C46.9869 123.074 46.1196 122.536 45.1935 122.118C43.1943 121.163 41.1048 120.557 39.0799 119.732L38.8606 119.641C39.3393 119.017 39.8607 118.427 40.4212 117.874L41.595 116.727H41.8529C43.1457 116.903 44.4084 117.254 45.6062 117.771C47.5196 118.868 49.3286 120.137 51.0105 121.563C52.7019 122.7 54.4885 123.688 56.3502 124.517C57.5234 125.12 58.7668 125.575 60.0519 125.871C61.3343 126.048 62.6329 126.074 63.9213 125.949C65.0229 125.974 66.1121 125.712 67.0813 125.188C67.1974 126.155 67.2877 127.096 67.378 128.064Z" fill="white"/>
<path opacity="0.18" d="M90.4265 71.9448L98.1008 50.8696H130.049L121.704 72.5123L90.4265 71.9448Z" fill="#FFB443"/>
<path d="M133.17 11.0407L146.391 17.1543L144.159 24.9447L133.17 11.0407Z" fill="#FFB443"/>
<path d="M133.17 11.0407H153.768L147.5 14.8713L133.17 11.0407Z" fill="#FFB443"/>
<path d="M149.886 20.598L146.391 17.1543L133.17 11.0407L147.5 14.8713L149.886 20.598Z" fill="#FFB443"/>
<path d="M149.886 20.598L146.391 17.1543L133.17 11.0407L147.5 14.8713L149.886 20.598Z" fill="url(#paint3_linear_1532_21165)"/>
<path d="M149.886 20.598L146.391 17.1543L133.17 11.0407L149.886 20.598Z" fill="#FFB443"/>
</g>
<defs>
<linearGradient id="paint0_linear_1532_21165" x1="48.5357" y1="32.2199" x2="82.0992" y2="110.062" gradientUnits="userSpaceOnUse">
<stop offset="0.01"/>
<stop offset="0.08" stop-opacity="0.69"/>
<stop offset="0.21" stop-opacity="0.32"/>
<stop offset="1" stop-opacity="0"/>
</linearGradient>
<linearGradient id="paint1_linear_1532_21165" x1="-3805.73" y1="1461.04" x2="-3118.5" y2="600.898" gradientUnits="userSpaceOnUse">
<stop offset="0.01"/>
<stop offset="0.08" stop-opacity="0.69"/>
<stop offset="0.21" stop-opacity="0.32"/>
<stop offset="1" stop-opacity="0"/>
</linearGradient>
<linearGradient id="paint2_linear_1532_21165" x1="41.5175" y1="95.2385" x2="97.4689" y2="107.595" gradientUnits="userSpaceOnUse">
<stop offset="0.01"/>
<stop offset="0.13" stop-opacity="0.69"/>
<stop offset="0.25" stop-opacity="0.32"/>
<stop offset="1" stop-opacity="0"/>
</linearGradient>
<linearGradient id="paint3_linear_1532_21165" x1="1999.17" y1="-1137.25" x2="2022.45" y2="-832.684" gradientUnits="userSpaceOnUse">
<stop offset="0.01"/>
<stop offset="0.08" stop-opacity="0.69"/>
<stop offset="0.21" stop-opacity="0.32"/>
<stop offset="1" stop-opacity="0"/>
</linearGradient>
<clipPath id="clip0_1532_21165">
<rect width="216" height="162.798" fill="white"/>
</clipPath>
</defs>
</svg>
